<?xml version="1.0" standalone="no"?>
<!DOCTYPE svg PUBLIC "-//W3C//DTD SVG 20010904//EN"
 "http://www.w3.org/TR/2001/REC-SVG-20010904/DTD/svg10.dtd">
<svg version="1.0" xmlns="http://www.w3.org/2000/svg"
 width="1024.000000pt" height="1536.000000pt" viewBox="0 0 1024.000000 1536.000000"
 preserveAspectRatio="xMidYMid meet">
<metadata>
Created by potrace 1.16, written by Peter Selinger 2001-2019
</metadata>
<g transform="translate(0.000000,1536.000000) scale(0.100000,-0.100000)"
fill="#000000" stroke="none">
<path d="M3885 14424 c-282 -63 -539 -267 -673 -537 -81 -162 -107 -281 -106
-487 1 -250 46 -413 165 -591 68 -101 208 -238 297 -290 34 -20 59 -38 57 -41
-8 -7 -52 -216 -64 -303 -7 -51 -8 -91 -2 -112 7 -25 -1 -75 -44 -250 -61
-253 -146 -655 -175 -828 -31 -187 -43 -328 -38 -438 10 -192 65 -286 314
-536 l174 -174 0 -115 c0 -169 5 -176 175 -262 82 -42 305 -188 348 -229 16
-16 15 -23 -22 -136 -101 -307 -141 -437 -165 -527 -46 -174 -126 -545 -157
-731 -16 -100 -43 -245 -60 -321 -39 -187 -39 -232 4 -288 28 -37 106 -99 137
-110 6 -2 -4 -38 -24 -88 -102 -256 -246 -691 -326 -990 -62 -231 -180 -762
-180 -809 0 -29 9 -44 54 -87 88 -85 203 -134 318 -134 l56 0 12 -72 c6 -40
18 -101 26 -135 7 -34 23 -133 34 -220 12 -87 26 -178 32 -203 35 -143 125
-246 308 -350 134 -76 224 -141 376 -271 228 -196 464 -441 581 -604 77 -108
77 -106 47 -160 -23 -41 -26 -55 -22 -114 4 -48 15 -89 37 -137 31 -68 32 -70
16 -113 -19 -54 -19 -130 0 -200 17 -67 8 -152 -35 -304 -61 -217 -78 -401
-44 -473 43 -90 203 -132 344 -91 120 35 275 156 356 278 89 135 119 242 130
476 l7 138 62 90 c120 173 150 255 150 410 0 100 -3 115 -27 160 -55 106 -143
167 -293 205 -47 12 -84 27 -90 37 -45 75 -113 118 -177 111 -28 -3 -37 3 -71
47 -34 44 -267 388 -275 407 -7 16 354 -143 483 -212 218 -117 405 -251 593
-426 56 -52 81 -109 61 -145 -5 -10 -9 -42 -9 -71 0 -67 32 -126 82 -153 35
-18 37 -23 47 -93 6 -41 23 -102 38 -136 26 -61 26 -62 33 -391 5 -282 9 -337
24 -379 46 -127 108 -179 222 -184 238 -12 485 206 560 493 19 73 22 183 14
465 -4 118 -1 152 24 274 37 182 34 285 -9 364 -50 93 -117 132 -263 158 -128
22 -145 29 -180 80 -43 60 -103 88 -196 89 l-69 1 -46 50 c-25 28 -102 117
-170 199 -350 421 -343 413 -463 498 -37 27 -123 76 -190 110 -119 60 -123 63
-140 107 -13 35 -59 371 -58 426 0 7 33 20 73 29 149 36 272 97 398 201 112
91 209 232 209 302 0 49 -34 114 -81 157 -23 20 -67 84 -101 143 -34 59 -87
139 -118 178 -66 82 -68 88 -100 341 -11 93 -31 196 -46 245 -34 106 -116 271
-205 408 -38 59 -69 109 -69 112 0 3 19 18 42 33 84 55 127 126 128 205 0 49
-38 138 -84 199 -18 25 -26 47 -26 76 0 54 -23 132 -66 226 l-36 76 30 44
c112 167 347 624 391 763 40 125 61 252 61 372 0 141 -22 239 -81 361 -41 87
-47 106 -39 128 27 72 -1 170 -64 222 -36 30 -37 31 -34 93 l3 64 170 2 c233
3 373 33 535 114 132 66 292 208 337 298 l18 37 3 -83 c3 -86 -9 -172 -49
-347 -18 -77 -23 -132 -24 -235 0 -128 1 -138 28 -192 34 -68 104 -135 184
-173 44 -21 77 -29 138 -32 44 -3 91 -1 105 5 l25 9 -31 16 c-64 33 -131 129
-148 212 -5 27 -4 28 7 10 6 -10 36 -45 66 -77 154 -165 382 -164 550 1 33 32
70 81 86 114 28 59 43 141 31 173 -6 15 -11 13 -39 -13 -44 -42 -72 -55 -121
-55 -81 -2 -144 54 -172 150 -19 65 -22 156 -10 392 7 137 6 176 -8 233 -19
83 -54 153 -95 191 l-31 29 49 33 c101 68 145 149 139 255 -4 77 -23 111 -78
143 -42 25 -180 34 -255 17 -62 -14 -135 -60 -155 -96 -20 -37 -27 -31 -29 28
-8 235 -192 566 -415 745 -187 150 -452 248 -726 267 -47 3 -132 18 -189 32
-291 71 -558 -32 -717 -277 -24 -37 -55 -101 -69 -143 -25 -75 -47 -197 -36
-197 3 1 33 36 66 80 33 44 63 79 67 80 3 0 -9 -32 -29 -72 -19 -39 -50 -128
-69 -197 -19 -69 -45 -157 -57 -196 l-22 -70 -56 -11 c-107 -21 -139 -65 -126
-175 4 -27 2 -47 -2 -45 -16 10 -40 121 -56 256 -9 74 -29 198 -45 276 -16 77
-36 206 -45 287 l-15 146 60 83 c33 46 92 145 130 222 115 229 157 388 166
641 3 77 12 167 20 200 38 153 33 419 -10 568 -88 299 -296 546 -569 672 -133
62 -205 77 -377 81 -114 3 -173 -1 -225 -12z m378 -2509 c1 -110 -4 -337 -12
-505 -7 -168 -11 -415 -9 -550 5 -279 12 -311 81 -410 23 -33 85 -122 136
-198 l95 -137 -95 96 c-97 100 -149 134 -243 159 -37 10 -68 30 -118 76 -37
34 -88 70 -112 79 -37 14 -52 29 -85 81 l-40 64 0 247 c0 310 13 518 45 698
13 77 29 169 35 205 11 65 12 65 113 165 56 55 122 127 146 159 l45 59 8 -44
c4 -24 9 -134 10 -244z m634 -7037 c31 -35 42 -60 88 -207 23 -75 54 -164 68
-199 l26 -63 -41 33 c-75 62 -113 87 -145 98 l-33 12 0 174 c0 96 4 174 8 174
5 0 18 -10 29 -22z"/>
</g>
</svg>
