<?xml version="1.0" standalone="no"?>
<!DOCTYPE svg PUBLIC "-//W3C//DTD SVG 20010904//EN"
 "http://www.w3.org/TR/2001/REC-SVG-20010904/DTD/svg10.dtd">
<svg version="1.0" xmlns="http://www.w3.org/2000/svg"
 width="1024.000000pt" height="1536.000000pt" viewBox="0 0 1024.000000 1536.000000"
 preserveAspectRatio="xMidYMid meet">
<metadata>
Created by potrace 1.16, written by Peter Selinger 2001-2019
</metadata>
<g transform="translate(0.000000,1536.000000) scale(0.100000,-0.100000)"
fill="#000000" stroke="none">
<path d="M4220 13251 c-149 -32 -250 -79 -440 -204 -207 -137 -316 -173 -499
-165 -181 9 -325 72 -417 185 -23 28 -44 57 -46 64 -14 39 -23 -18 -22 -144 1
-112 6 -159 23 -221 30 -112 86 -219 150 -288 106 -115 193 -157 346 -167
l100 -6 -65 -25 c-99 -37 -204 -35 -290 6 -36 17 -75 42 -88 54 -32 30 -37 20
-18 -37 59 -179 228 -346 411 -409 108 -37 270 -40 387 -6 170 48 276 117 408
262 245 270 306 323 409 350 33 9 55 9 92 0 27 -7 49 -15 49 -19 0 -3 -32 -38
-71 -76 -270 -266 -386 -724 -281 -1110 11 -41 16 -105 17 -205 1 -179 25
-279 89 -374 69 -102 144 -143 326 -176 71 -13 85 -22 95 -61 l7 -26 -54 14
c-76 20 -306 35 -418 28 -130 -9 -266 -37 -328 -69 -65 -33 -271 -198 -377
-303 -44 -43 -145 -152 -225 -243 -175 -201 -434 -466 -514 -528 -33 -25 -145
-89 -250 -142 -105 -53 -245 -130 -311 -171 -173 -109 -214 -130 -373 -198
-274 -117 -299 -135 -400 -283 -101 -150 -144 -202 -295 -362 -74 -80 -149
-169 -166 -199 -48 -84 -131 -341 -131 -407 0 -70 24 -119 71 -144 77 -41 137
10 240 204 39 74 80 151 92 169 l21 35 13 -88 c20 -140 58 -202 120 -194 41 5
61 44 88 173 31 141 50 188 100 244 45 49 182 121 231 121 49 0 126 -32 205
-86 83 -56 142 -67 199 -37 41 21 60 54 60 104 0 67 -27 122 -138 279 -12 17
-10 21 27 39 49 25 212 70 386 106 218 45 400 117 545 215 109 74 289 224 464
388 98 92 188 173 199 181 20 14 20 13 13 -45 -23 -184 -27 -269 -31 -570 -3
-261 -7 -343 -19 -392 -9 -34 -23 -108 -30 -164 -14 -99 -17 -108 -85 -227
-121 -209 -134 -242 -135 -347 -1 -86 1 -93 32 -144 l33 -54 -35 -75 c-19 -42
-63 -170 -97 -286 -129 -439 -145 -526 -137 -776 8 -236 2 -258 -125 -462 -68
-109 -81 -137 -85 -181 -4 -45 -1 -56 19 -79 13 -14 44 -32 69 -41 l45 -14 -3
-74 c-2 -40 -12 -113 -23 -162 -29 -136 -72 -189 -240 -301 -240 -160 -528
-519 -573 -713 -8 -35 -17 -66 -20 -69 -3 -3 -38 -14 -78 -25 -82 -22 -152
-69 -217 -145 -137 -163 -210 -254 -238 -298 -75 -118 -111 -240 -120 -405 -6
-137 10 -244 60 -400 19 -58 42 -143 51 -188 23 -115 50 -181 100 -250 74
-100 180 -164 344 -209 84 -23 116 -27 242 -27 320 1 474 91 488 284 6 90 -16
171 -89 315 l-60 121 30 64 c17 36 31 79 31 96 0 35 -45 111 -100 169 -53 57
-55 69 -13 101 41 31 72 94 73 144 0 20 -9 68 -20 107 -11 40 -17 80 -13 90
19 54 172 198 418 395 66 53 161 134 211 180 50 46 119 106 154 133 107 85
149 125 240 235 122 146 156 205 209 354 26 71 54 134 63 140 12 7 59 6 155
-2 76 -7 158 -12 183 -12 95 0 176 69 219 186 26 69 100 341 143 527 l33 138
19 -28 c10 -15 58 -66 106 -113 48 -47 94 -96 103 -110 8 -14 41 -115 72 -225
107 -377 132 -395 520 -365 72 5 161 19 200 30 38 11 79 20 91 20 14 0 45 -32
105 -112 46 -62 111 -147 144 -188 126 -157 154 -198 214 -318 69 -138 217
-369 308 -482 34 -41 105 -118 160 -170 54 -52 135 -142 178 -200 l80 -105 0
-125 c0 -119 2 -129 34 -205 30 -72 34 -93 41 -215 8 -157 27 -229 78 -304 46
-67 79 -95 179 -150 72 -40 80 -47 115 -112 65 -121 106 -145 360 -210 122
-32 158 -37 248 -36 124 0 224 24 326 75 272 137 230 381 -115 680 -53 46
-123 119 -156 162 -33 43 -87 108 -120 144 -85 93 -99 114 -155 245 -67 157
-86 181 -186 226 -90 42 -107 60 -131 140 -17 58 -82 213 -155 370 -25 52 -73
164 -107 248 -34 84 -81 185 -104 224 -58 96 -184 263 -290 383 -73 83 -99
121 -147 220 -32 66 -90 185 -128 263 l-71 144 38 36 c43 41 66 105 56 152 -6
28 -83 161 -236 405 -42 66 -97 161 -123 210 -26 50 -72 120 -102 155 -75 88
-81 102 -86 200 -5 98 -16 124 -107 249 -34 46 -61 91 -61 100 0 9 10 36 21
61 26 57 35 160 20 228 -6 29 -38 112 -72 185 -74 161 -81 203 -50 338 25 112
38 224 47 417 7 141 7 143 24 115 9 -15 54 -91 100 -168 46 -77 158 -259 248
-405 91 -146 186 -302 212 -347 142 -246 320 -424 588 -589 53 -33 125 -93
205 -171 118 -116 124 -123 135 -176 6 -31 8 -72 5 -92 -11 -69 22 -155 114
-292 81 -122 143 -234 143 -260 0 -21 43 -53 71 -53 32 0 57 21 63 53 14 66
14 90 1 144 -8 33 -17 91 -21 127 l-7 67 29 -7 c85 -19 213 -69 261 -101 30
-19 80 -65 111 -101 156 -179 186 -201 268 -202 58 0 138 42 158 84 33 69 20
109 -109 336 -52 92 -95 170 -95 174 0 18 29 -4 130 -99 61 -58 119 -105 128
-105 76 0 41 137 -71 278 -189 236 -408 361 -742 423 -63 12 -120 26 -128 33
-15 12 -202 298 -325 496 -95 154 -165 236 -270 319 -49 39 -100 87 -114 108
-23 36 -198 404 -198 419 0 3 -50 110 -111 238 -104 215 -151 339 -205 536
-21 76 -100 240 -157 325 -61 91 -179 202 -307 290 -99 68 -112 80 -96 89 161
97 334 252 390 349 61 105 76 168 76 337 l1 155 50 65 c69 89 144 245 175 365
23 87 27 121 28 260 0 88 -2 175 -6 194 -7 29 -6 32 7 21 9 -7 38 -46 65 -87
49 -73 100 -206 100 -261 0 -20 3 -23 12 -14 8 8 13 63 16 159 5 205 -26 352
-111 518 -79 156 -266 333 -406 386 -42 15 -77 41 -146 107 -236 229 -543 352
-876 352 -169 0 -356 -45 -476 -116 -24 -14 -46 -24 -47 -22 -1 1 -8 30 -15
63 -22 106 -76 201 -166 291 -130 132 -240 174 -470 180 -110 3 -158 0 -225
-15z"/>
<path d="M2075 7609 c-254 -34 -480 -150 -662 -342 -243 -256 -367 -584 -350
-926 13 -252 86 -463 226 -648 284 -377 781 -551 1237 -432 301 78 587 306
728 579 84 164 116 291 123 496 14 361 -107 668 -366 925 -148 147 -294 238
-479 298 -142 47 -330 67 -457 50z"/>
</g>
</svg>
