<?xml version="1.0" standalone="no"?>
<!DOCTYPE svg PUBLIC "-//W3C//DTD SVG 20010904//EN"
 "http://www.w3.org/TR/2001/REC-SVG-20010904/DTD/svg10.dtd">
<svg version="1.0" xmlns="http://www.w3.org/2000/svg"
 width="1024.000000pt" height="1024.000000pt" viewBox="0 0 1024.000000 1024.000000"
 preserveAspectRatio="xMidYMid meet">
<metadata>
Created by potrace 1.16, written by Peter Selinger 2001-2019
</metadata>
<g transform="translate(0.000000,1024.000000) scale(0.100000,-0.100000)"
fill="#000000" stroke="none">
<path d="M4803 9664 c-3 -9 -3 -72 0 -141 l6 -125 -22 7 c-59 19 -93 17 -123
-8 -23 -20 -29 -33 -29 -67 0 -59 40 -94 99 -88 23 3 49 8 58 12 15 7 17 -3
20 -101 2 -59 2 -111 0 -115 -2 -5 -16 -1 -32 7 -44 23 -78 19 -111 -14 -38
-39 -40 -91 -4 -127 22 -22 33 -25 73 -22 26 3 54 8 63 12 14 6 17 -9 22 -120
4 -69 4 -130 1 -135 -3 -5 -15 -2 -27 6 -12 8 -41 15 -65 15 -34 0 -48 -6 -68
-27 -34 -37 -28 -97 12 -131 27 -24 73 -26 130 -7 20 6 21 2 27 -87 3 -51 10
-106 16 -121 8 -20 11 -445 11 -1423 l0 -1394 -57 0 c-233 0 -528 -86 -709
-206 -80 -53 -175 -151 -227 -236 -133 -213 -141 -445 -27 -801 78 -248 87
-373 39 -546 -31 -111 -62 -172 -204 -406 -136 -224 -210 -369 -269 -529 -204
-544 -174 -1113 78 -1501 107 -164 319 -351 505 -445 153 -76 390 -146 618
-180 278 -43 766 -38 1053 11 565 95 963 347 1162 734 92 181 136 358 145 591
17 453 -110 870 -409 1337 -160 250 -207 370 -215 548 -7 144 4 209 68 406 27
84 56 195 65 245 32 184 2 372 -83 518 -46 79 -165 201 -253 261 -159 106
-403 178 -666 195 l-104 7 0 1386 c0 1187 2 1396 15 1456 8 39 15 96 15 129 0
56 1 58 23 51 81 -26 138 -8 156 48 28 84 -58 146 -141 103 l-28 -15 0 88 c0
130 9 184 29 175 9 -4 31 -9 49 -12 88 -12 136 86 73 149 -33 33 -56 36 -106
15 l-35 -15 0 116 c0 115 0 115 23 108 59 -19 93 -17 123 8 23 20 29 33 29 67
0 74 -70 110 -147 76 -17 -8 -18 2 -18 133 l0 141 -310 0 c-276 0 -311 -2
-317 -16z m451 -5074 c96 -24 175 -72 247 -147 109 -114 152 -223 152 -383 0
-127 -19 -195 -86 -298 -146 -225 -428 -304 -673 -188 -340 161 -409 631 -130
894 129 122 312 168 490 122z m526 -1934 l0 -113 -97 -6 c-54 -3 -154 -16
-223 -29 -108 -20 -156 -23 -350 -23 -191 0 -244 4 -350 24 -69 12 -167 25
-217 28 l-93 6 0 113 0 114 665 0 665 0 0 -114z"/>
<path d="M5023 4485 c-77 -21 -130 -51 -188 -106 -181 -171 -179 -461 4 -632
174 -163 436 -150 599 28 153 169 146 430 -18 596 -108 109 -257 151 -397 114z"/>
<path d="M4747 2723 c-4 -3 -7 -15 -7 -25 0 -17 17 -18 339 -18 347 0 356 1
344 38 -4 9 -80 12 -337 12 -183 0 -336 -3 -339 -7z"/>
</g>
</svg>
