<?xml version="1.0" standalone="no"?>
<!DOCTYPE svg PUBLIC "-//W3C//DTD SVG 20010904//EN"
 "http://www.w3.org/TR/2001/REC-SVG-20010904/DTD/svg10.dtd">
<svg version="1.0" xmlns="http://www.w3.org/2000/svg"
 width="1024.000000pt" height="1024.000000pt" viewBox="0 0 1024.000000 1024.000000"
 preserveAspectRatio="xMidYMid meet">
<metadata>
Created by potrace 1.16, written by Peter Selinger 2001-2019
</metadata>
<g transform="translate(0.000000,1024.000000) scale(0.100000,-0.100000)"
fill="#000000" stroke="none">
<path d="M3125 8846 c-120 -29 -236 -120 -291 -228 -56 -111 -54 -55 -54
-1430 l0 -1268 -24 0 c-68 0 -149 -52 -177 -114 -17 -38 -19 -71 -19 -412 0
-384 2 -409 43 -468 23 -32 108 -76 149 -76 l28 0 2 -1552 3 -1553 21 -56 c58
-150 174 -253 331 -294 86 -23 3870 -23 3956 0 177 46 311 183 346 353 8 37
11 506 11 1577 0 1446 1 1525 18 1525 73 0 161 62 180 128 8 27 12 156 12 413
0 341 -2 378 -19 414 -29 66 -104 115 -173 115 -17 0 -18 73 -20 1293 l-3
1292 -22 59 c-44 117 -147 218 -272 268 l-56 23 -1960 2 c-1519 1 -1971 -1
-2010 -11z m2149 -632 c99 -24 193 -80 276 -163 119 -121 170 -245 171 -416 0
-177 -50 -303 -166 -420 -226 -227 -603 -232 -843 -10 -82 77 -133 161 -162
268 -19 69 -22 99 -17 192 6 128 28 202 88 296 143 220 393 317 653 253z
m-1351 -13 c88 -29 210 -112 268 -184 93 -115 139 -247 139 -397 0 -163 -52
-292 -164 -405 -118 -120 -254 -177 -424 -177 -175 1 -317 58 -437 177 -117
116 -165 241 -165 425 0 89 5 117 28 186 16 44 45 106 66 137 77 115 214 214
349 252 77 22 253 14 340 -14z m2721 13 c191 -49 352 -199 418 -389 24 -68 28
-96 28 -185 0 -121 -15 -185 -64 -285 -46 -92 -101 -153 -189 -213 -108 -72
-195 -97 -337 -97 -142 0 -229 25 -337 97 -165 111 -252 280 -253 490 0 105
13 173 50 253 73 162 216 285 381 329 73 20 226 20 303 0z m-34 -1784 c22 -11
52 -39 67 -62 24 -35 28 -52 28 -112 0 -88 -22 -137 -78 -174 -34 -23 -52 -27
-108 -27 -75 0 -100 12 -153 78 -54 67 -45 207 17 265 59 56 155 69 227 32z
m-2 -931 c120 -58 139 -237 34 -329 -129 -114 -312 -24 -312 154 0 153 140
241 278 175z m-1277 -1510 c375 -104 611 -458 568 -851 -35 -317 -245 -576
-547 -675 -81 -26 -97 -28 -247 -27 -146 0 -167 3 -240 27 -267 89 -461 304
-517 575 -26 124 -21 299 12 412 84 295 346 523 643 560 98 12 242 3 328 -21z"/>
<path d="M5037 8090 c-72 -13 -166 -61 -229 -119 -109 -99 -165 -266 -139
-412 65 -361 508 -505 780 -253 270 249 125 716 -243 783 -67 12 -99 12 -169
1z"/>
<path d="M3588 8071 c-317 -105 -422 -505 -195 -747 180 -193 486 -201 672
-18 135 134 169 344 84 524 -40 85 -137 181 -225 222 -60 28 -80 32 -173 35
-84 2 -118 -1 -163 -16z"/>
<path d="M6425 8088 c-226 -28 -405 -261 -381 -494 42 -410 538 -564 812 -252
112 127 134 330 53 493 -87 178 -280 278 -484 253z"/>
<path d="M4976 3854 c-234 -51 -413 -223 -475 -456 -29 -108 -33 -155 -22
-251 30 -263 191 -464 435 -543 101 -33 253 -37 356 -11 171 44 340 177 414
326 49 96 76 205 76 300 -1 420 -375 722 -784 635z"/>
</g>
</svg>
