<?xml version="1.0" standalone="no"?>
<!DOCTYPE svg PUBLIC "-//W3C//DTD SVG 20010904//EN"
 "http://www.w3.org/TR/2001/REC-SVG-20010904/DTD/svg10.dtd">
<svg version="1.0" xmlns="http://www.w3.org/2000/svg"
 width="1024.000000pt" height="1024.000000pt" viewBox="0 0 1024.000000 1024.000000"
 preserveAspectRatio="xMidYMid meet">
<metadata>
Created by potrace 1.16, written by Peter Selinger 2001-2019
</metadata>
<g transform="translate(0.000000,1024.000000) scale(0.100000,-0.100000)"
fill="#000000" stroke="none">
<path d="M4997 9470 c-87 -9 -161 -32 -194 -63 -37 -34 -58 -101 -46 -150 6
-23 14 -49 17 -59 6 -14 2 -16 -31 -12 -70 9 -121 -40 -101 -96 13 -38 54 -54
116 -45 l49 6 6 -77 c4 -42 5 -79 3 -82 -3 -2 -19 1 -37 7 -68 23 -123 9 -140
-36 -13 -34 4 -76 36 -93 24 -13 91 -10 129 6 18 7 19 3 13 -76 -4 -46 -8 -85
-10 -87 -3 -2 -16 1 -31 7 -48 18 -95 12 -121 -15 -28 -27 -30 -42 -14 -79 15
-32 59 -50 109 -43 22 3 40 4 40 3 0 -2 -7 -17 -16 -35 -29 -58 10 -159 78
-199 l28 -16 0 -236 c-1 -129 -5 -777 -10 -1440 -5 -663 -10 -1407 -11 -1655
-3 -564 -8 -676 -36 -730 -66 -125 -225 -192 -353 -150 -62 21 -132 80 -163
140 -19 35 -22 55 -21 155 0 81 5 128 17 158 20 53 10 54 -63 6 -160 -104
-277 -277 -337 -499 -25 -94 -27 -113 -27 -305 0 -243 13 -319 100 -578 87
-262 97 -367 48 -492 -25 -63 -50 -101 -149 -225 -157 -197 -224 -315 -267
-472 -32 -118 -32 -366 0 -478 60 -206 196 -367 414 -489 200 -112 560 -197
899 -213 l137 -6 16 -34 c13 -28 21 -34 44 -31 17 2 34 14 47 35 20 32 21 32
101 33 196 1 485 46 672 105 457 145 697 409 718 790 11 187 -39 384 -137 544
-28 45 -100 143 -160 219 -120 150 -151 205 -168 299 -16 86 5 208 68 404 92
283 118 444 108 664 -7 145 -23 223 -69 339 -48 125 -94 194 -187 286 -80 79
-201 162 -189 129 3 -8 13 -55 23 -105 14 -76 16 -103 7 -154 -21 -117 -89
-194 -200 -226 -123 -36 -264 26 -325 141 -19 37 -22 62 -28 345 -9 331 -25
1731 -36 2952 l-6 767 46 50 c25 27 49 61 53 76 7 28 1 98 -11 128 -6 15 -4
16 20 7 47 -18 94 -12 120 15 32 31 32 69 -1 102 -26 26 -25 26 -129 11 -18
-3 -20 3 -23 81 -3 83 -3 84 20 76 13 -4 42 -10 65 -12 35 -4 46 -1 67 21 34
33 34 75 1 106 -20 19 -31 22 -67 17 -24 -3 -53 -9 -66 -13 l-24 -7 7 84 c4
46 9 85 10 87 2 2 12 -1 23 -7 37 -20 91 -13 117 14 60 59 0 137 -96 123 -29
-4 -30 -3 -22 21 4 14 8 52 8 83 0 60 -17 94 -66 130 -55 40 -252 63 -412 48z"/>
</g>
</svg>
