<?xml version="1.0" standalone="no"?>
<!DOCTYPE svg PUBLIC "-//W3C//DTD SVG 20010904//EN"
 "http://www.w3.org/TR/2001/REC-SVG-20010904/DTD/svg10.dtd">
<svg version="1.0" xmlns="http://www.w3.org/2000/svg"
 width="1024.000000pt" height="1024.000000pt" viewBox="0 0 1024.000000 1024.000000"
 preserveAspectRatio="xMidYMid meet">
<metadata>
Created by potrace 1.16, written by Peter Selinger 2001-2019
</metadata>
<g transform="translate(0.000000,1024.000000) scale(0.100000,-0.100000)"
fill="#000000" stroke="none">
<path d="M5005 9692 c-27 -10 -68 -26 -90 -35 -22 -9 -65 -21 -96 -27 -87 -17
-92 -27 -84 -159 4 -61 5 -111 1 -111 -4 0 -18 7 -31 16 -51 34 -135 -12 -135
-73 0 -14 13 -37 29 -54 33 -32 70 -37 111 -14 14 8 28 14 33 15 4 0 7 -36 7
-80 l0 -81 -30 16 c-85 44 -176 -25 -136 -104 8 -15 29 -34 46 -41 26 -11 37
-10 72 4 23 8 43 14 45 12 2 -2 7 -36 10 -76 6 -70 5 -73 -13 -65 -10 5 -40
10 -66 13 -42 3 -51 1 -78 -26 -34 -34 -36 -50 -15 -91 20 -40 64 -56 110 -41
20 7 39 18 42 26 12 33 21 8 28 -78 9 -116 24 -174 76 -296 l42 -97 -6 -430
c-4 -236 -12 -691 -18 -1010 -6 -319 -14 -836 -17 -1150 l-7 -570 -120 -6
c-132 -7 -215 -25 -313 -70 -209 -95 -374 -297 -417 -511 -38 -193 -5 -357
133 -649 73 -157 86 -201 87 -299 0 -131 -19 -164 -255 -430 -255 -286 -373
-490 -440 -753 -75 -299 -57 -604 55 -892 126 -326 424 -613 790 -760 211 -85
422 -125 700 -132 364 -10 638 42 915 173 282 134 535 375 659 629 100 204
135 362 136 605 0 201 -17 313 -72 479 -76 231 -159 360 -421 659 -226 259
-247 298 -239 457 5 109 8 120 122 380 75 171 96 255 98 380 1 126 -22 211
-69 262 -32 33 -37 35 -84 31 -57 -6 -78 -22 -115 -83 -61 -106 -181 -165
-301 -151 -106 12 -199 67 -236 139 -24 46 -19 -125 -73 2762 l-18 930 23 60
c68 180 81 227 87 325 6 103 11 112 47 85 31 -23 83 -19 111 10 35 34 33 78
-4 116 -33 33 -67 37 -111 14 l-30 -16 0 74 c0 41 3 77 6 80 4 3 16 0 28 -8
81 -57 178 45 113 120 -25 29 -77 36 -115 16 -11 -6 -22 -11 -24 -11 -2 0 -2
34 0 76 3 66 6 75 20 68 9 -4 35 -9 57 -11 82 -9 120 80 58 135 -27 24 -52 25
-112 7 -23 -8 -23 -7 -17 41 18 155 18 159 -1 182 -13 17 -42 28 -103 42 -47
10 -107 29 -135 41 -69 31 -182 36 -250 11z m469 -5563 c26 -20 26 -21 26
-165 0 -130 -2 -146 -20 -164 -11 -11 -30 -22 -42 -25 -13 -3 -166 -5 -341 -3
l-319 3 -24 28 c-23 27 -24 35 -24 163 0 130 1 136 25 159 l24 25 334 0 c323
0 335 -1 361 -21z m-19 -1139 c40 -15 55 -64 55 -183 0 -57 -5 -118 -11 -136
-21 -59 -33 -61 -394 -61 l-326 0 -24 25 c-24 23 -25 28 -25 170 0 142 1 147
25 170 l24 25 325 0 c191 0 335 -4 351 -10z m107 -607 c20 -18 23 -54 8 -83
-19 -35 -74 -40 -465 -40 -342 0 -384 2 -415 18 -29 14 -36 23 -38 53 -6 71
-22 69 460 69 387 0 433 -2 450 -17z"/>
</g>
</svg>
