<?xml version="1.0" standalone="no"?>
<!DOCTYPE svg PUBLIC "-//W3C//DTD SVG 20010904//EN"
 "http://www.w3.org/TR/2001/REC-SVG-20010904/DTD/svg10.dtd">
<svg version="1.0" xmlns="http://www.w3.org/2000/svg"
 width="1024.000000pt" height="1024.000000pt" viewBox="0 0 1024.000000 1024.000000"
 preserveAspectRatio="xMidYMid meet">
<metadata>
Created by potrace 1.16, written by Peter Selinger 2001-2019
</metadata>
<g transform="translate(0.000000,1024.000000) scale(0.100000,-0.100000)"
fill="#000000" stroke="none">
<path d="M5338 9536 c-62 -23 -88 -44 -111 -94 -12 -26 -23 -49 -24 -51 -1 -2
-16 10 -32 28 -20 22 -38 31 -60 31 -45 0 -63 -35 -69 -131 -4 -67 -7 -79 -24
-85 -27 -8 -44 -55 -53 -141 -6 -62 -10 -73 -26 -73 -26 0 -45 -44 -52 -123
-5 -56 -11 -71 -32 -90 -22 -19 -28 -35 -37 -105 -9 -69 -13 -82 -29 -82 -30
0 -49 -51 -49 -134 0 -49 -5 -79 -13 -88 -39 -38 -49 -107 -23 -156 8 -15 30
-41 50 -59 30 -26 36 -38 36 -70 0 -57 17 -107 46 -134 50 -46 65 -92 76 -233
11 -145 4 -1309 -12 -1881 -5 -187 -14 -515 -20 -730 -12 -447 -24 -654 -42
-708 -18 -57 -56 -80 -126 -75 -117 8 -198 71 -378 288 -151 183 -196 214
-310 215 -60 0 -76 -4 -112 -28 -85 -56 -142 -183 -142 -314 0 -157 52 -388
151 -663 94 -265 102 -303 103 -470 0 -121 -3 -159 -22 -229 -29 -105 -103
-263 -222 -471 -114 -199 -159 -296 -210 -448 -80 -239 -89 -428 -30 -657 108
-422 464 -718 1076 -894 249 -72 596 -136 876 -162 161 -15 453 -7 573 15 323
60 527 204 607 427 34 96 32 293 -4 440 -45 179 -100 302 -224 499 -172 275
-224 406 -224 567 0 108 22 212 72 343 115 301 142 420 142 635 0 231 -34 353
-129 454 -70 75 -126 96 -255 96 -87 0 -121 -5 -195 -29 -157 -48 -328 -46
-407 7 -46 32 -75 79 -82 135 -11 92 -16 451 -23 1612 -12 1731 -11 2204 5
2270 22 96 56 151 122 197 69 49 87 79 99 165 10 74 0 151 -27 205 -41 79 -55
151 -50 253 6 123 30 178 97 224 128 87 168 155 158 271 -11 150 -113 235
-287 242 -56 2 -98 -2 -122 -11z m-189 -267 c-15 -70 -18 -76 -29 -59 -9 14
-5 95 6 129 4 11 8 10 19 -6 10 -15 11 -30 4 -64z m-70 -148 c12 -21 -16 -134
-30 -125 -18 10 -6 144 12 144 5 0 13 -8 18 -19z m-80 -278 c-21 -82 -42 -83
-34 -2 9 90 12 96 32 76 16 -15 16 -22 2 -74z m-71 -160 c4 -38 -10 -94 -23
-96 -14 -3 -18 37 -10 90 7 50 28 54 33 6z m-78 -178 c8 -10 10 -31 5 -65 -8
-57 -29 -67 -39 -19 -16 81 1 124 34 84z m-52 -219 c5 -43 -13 -53 -27 -16 -6
18 -8 37 -5 42 11 17 29 2 32 -26z"/>
</g>
</svg>
