<?xml version="1.0" standalone="no"?>
<!DOCTYPE svg PUBLIC "-//W3C//DTD SVG 20010904//EN"
 "http://www.w3.org/TR/2001/REC-SVG-20010904/DTD/svg10.dtd">
<svg version="1.0" xmlns="http://www.w3.org/2000/svg"
 width="1024.000000pt" height="1024.000000pt" viewBox="0 0 1024.000000 1024.000000"
 preserveAspectRatio="xMidYMid meet">
<metadata>
Created by potrace 1.16, written by Peter Selinger 2001-2019
</metadata>
<g transform="translate(0.000000,1024.000000) scale(0.100000,-0.100000)"
fill="#000000" stroke="none">
<path d="M5279 9617 c-55 -21 -98 -55 -128 -102 -26 -41 -28 -42 -52 -29 -69
38 -149 -7 -149 -86 0 -73 71 -121 131 -90 10 6 19 7 19 3 -1 -14 -49 -99 -50
-87 0 6 -11 16 -25 22 -105 48 -203 -61 -131 -145 21 -24 32 -28 75 -28 28 0
51 -1 51 -3 0 -1 -9 -21 -21 -44 -18 -35 -23 -39 -31 -25 -12 22 -61 47 -92
47 -14 0 -40 -13 -58 -29 -28 -25 -33 -36 -33 -75 0 -33 6 -51 21 -66 29 -30
86 -41 118 -24 31 15 30 16 10 -36 -18 -45 -20 -46 -45 -24 -10 9 -38 19 -62
21 -35 4 -48 1 -71 -18 -38 -33 -46 -94 -16 -131 25 -32 75 -49 109 -36 13 5
25 7 27 5 2 -1 -3 -22 -10 -46 -12 -42 -13 -43 -27 -21 -11 17 -28 24 -65 27
-43 4 -54 2 -81 -21 -39 -32 -47 -66 -29 -110 18 -43 48 -60 98 -53 33 4 38 3
34 -11 -3 -10 -8 -29 -12 -44 l-6 -28 -30 25 c-63 53 -168 9 -168 -71 0 -56
73 -115 117 -95 13 6 25 11 27 11 1 0 0 -27 -2 -59 -6 -81 10 -119 73 -184 30
-30 56 -65 59 -78 3 -13 7 -37 10 -54 4 -29 -7 -1497 -22 -2825 -7 -577 -9
-648 -24 -676 -19 -35 -35 -44 -81 -44 -41 0 -205 45 -271 74 -64 28 -86 50
-86 84 -1 39 -22 62 -58 62 -26 0 -36 -7 -57 -40 -36 -56 -65 -72 -166 -87
-147 -21 -215 -71 -275 -197 -100 -210 -82 -454 56 -766 23 -52 56 -135 73
-185 29 -83 31 -100 31 -220 -1 -190 -22 -254 -187 -565 -161 -305 -236 -573
-237 -842 0 -261 65 -446 213 -604 178 -190 468 -307 902 -361 217 -27 670
-24 868 5 601 91 915 299 1033 687 26 84 28 102 28 280 0 159 -3 206 -22 287
-36 165 -92 316 -181 488 -137 267 -149 294 -177 387 -34 115 -43 276 -20 381
8 40 45 148 82 240 37 92 78 208 91 257 60 224 30 510 -68 645 -41 56 -103 84
-175 78 -103 -9 -164 -89 -214 -283 -69 -267 -142 -345 -324 -345 -114 0 -184
36 -205 104 -6 17 -15 319 -20 681 -11 664 -13 803 -32 2065 -7 399 -12 921
-13 1160 l-1 435 27 70 c131 345 154 441 144 623 -7 145 0 179 54 263 56 87
73 147 68 233 -7 109 -51 178 -144 224 -54 27 -148 36 -195 19z m111 -6067
c11 -11 20 -31 20 -45 0 -14 -9 -34 -20 -45 -19 -19 -33 -20 -282 -20 -292 0
-298 1 -298 66 0 61 13 64 302 64 245 0 259 -1 278 -20z m-3 -1051 c47 -25 54
-107 11 -145 -19 -18 -41 -19 -300 -19 l-280 0 -24 28 c-53 62 -21 137 62 146
89 11 507 2 531 -10z m609 -40 l29 -30 0 -531 0 -530 -28 -24 c-41 -35 -97
-33 -139 5 l-33 29 -3 499 c-2 274 0 513 3 532 15 82 112 111 171 50z"/>
<path d="M5865 1685 c-46 -45 -22 -136 39 -147 90 -17 139 103 64 156 -33 23
-75 20 -103 -9z"/>
</g>
</svg>
