<?xml version="1.0" standalone="no"?>
<!DOCTYPE svg PUBLIC "-//W3C//DTD SVG 20010904//EN"
 "http://www.w3.org/TR/2001/REC-SVG-20010904/DTD/svg10.dtd">
<svg version="1.0" xmlns="http://www.w3.org/2000/svg"
 width="1024.000000pt" height="1024.000000pt" viewBox="0 0 1024.000000 1024.000000"
 preserveAspectRatio="xMidYMid meet">
<metadata>
Created by potrace 1.16, written by Peter Selinger 2001-2019
</metadata>
<g transform="translate(0.000000,1024.000000) scale(0.100000,-0.100000)"
fill="#000000" stroke="none">
<path d="M5055 9528 c-36 -12 -82 -53 -99 -88 -12 -22 -41 -128 -60 -213 l-7
-28 -35 28 c-49 37 -98 37 -130 -1 -33 -38 -31 -80 5 -117 36 -36 84 -39 118
-7 28 26 28 22 3 -83 -29 -118 -29 -117 -43 -98 -25 33 -66 51 -101 45 -42 -8
-65 -33 -73 -79 -5 -31 -1 -40 25 -67 36 -35 93 -41 125 -12 20 17 20 16 14
-16 -4 -18 -12 -63 -18 -100 -7 -37 -14 -69 -15 -71 -2 -2 -17 8 -34 23 -52
43 -116 33 -145 -24 -14 -26 -14 -34 -1 -64 8 -19 23 -39 34 -45 29 -15 84
-14 107 3 19 13 20 12 17 -25 -7 -73 5 -104 75 -181 36 -40 72 -87 79 -105 17
-39 18 -388 4 -1357 -5 -358 -12 -925 -15 -1260 -4 -336 -11 -628 -17 -649 -7
-28 -34 -65 -102 -136 -52 -53 -100 -111 -109 -127 -8 -16 -72 -194 -142 -394
-69 -201 -146 -421 -170 -490 -54 -154 -266 -766 -470 -1360 -84 -245 -230
-665 -323 -935 -93 -269 -171 -503 -175 -520 -16 -82 44 -188 127 -226 63 -28
141 -25 198 9 25 15 57 41 70 57 62 77 819 990 1056 1273 93 111 159 181 187
197 53 31 122 33 180 5 47 -23 155 -147 835 -964 233 -280 439 -524 458 -542
99 -96 268 -75 342 43 50 79 49 108 -13 294 -126 378 -441 1289 -772 2234
-157 451 -271 777 -381 1094 l-78 225 -103 108 c-75 80 -104 117 -107 141 -3
18 -8 262 -11 542 -5 515 -19 1552 -30 2291 -7 462 -10 441 86 556 64 76 83
120 77 179 -4 42 2 48 22 24 20 -25 87 -19 115 10 50 49 17 145 -50 145 -33 0
-81 -24 -94 -47 -11 -21 -11 -22 -35 87 -9 41 -19 86 -23 100 l-6 24 28 -22
c43 -34 97 -30 130 10 65 77 -22 181 -113 134 -17 -9 -33 -25 -37 -36 -12 -37
-21 -21 -39 68 -10 48 -22 95 -27 105 -12 21 4 23 21 2 38 -45 140 9 140 75 0
72 -99 109 -150 55 -13 -14 -26 -25 -29 -25 -4 0 -20 52 -36 117 -16 64 -38
130 -50 147 -40 61 -135 90 -210 64z m266 -6539 c46 -24 36 -102 -14 -114 -12
-3 -103 -4 -201 -3 l-179 3 -19 26 c-21 28 -18 57 8 84 13 12 49 15 200 15
112 0 193 -4 205 -11z"/>
</g>
</svg>
