<?xml version="1.0" standalone="no"?>
<!DOCTYPE svg PUBLIC "-//W3C//DTD SVG 20010904//EN"
 "http://www.w3.org/TR/2001/REC-SVG-20010904/DTD/svg10.dtd">
<svg version="1.0" xmlns="http://www.w3.org/2000/svg"
 width="1024.000000pt" height="1024.000000pt" viewBox="0 0 1024.000000 1024.000000"
 preserveAspectRatio="xMidYMid meet">
<metadata>
Created by potrace 1.16, written by Peter Selinger 2001-2019
</metadata>
<g transform="translate(0.000000,1024.000000) scale(0.100000,-0.100000)"
fill="#000000" stroke="none">
<path d="M5234 9611 c-46 -21 -78 -57 -94 -107 -13 -39 -16 -40 -58 -18 -40
20 -60 16 -85 -18 -26 -35 -16 -74 24 -96 63 -35 62 -33 44 -80 -10 -23 -19
-42 -21 -42 -2 0 -18 9 -36 20 -18 11 -43 20 -55 20 -29 0 -55 -40 -51 -77 2
-22 13 -33 53 -53 28 -14 52 -26 53 -27 8 -4 -21 -75 -33 -79 -7 -3 -31 5 -54
17 -39 20 -43 20 -66 5 -26 -17 -39 -51 -33 -83 2 -10 27 -29 60 -45 55 -26
57 -28 48 -57 -14 -49 -18 -51 -63 -31 -60 28 -84 26 -102 -10 -30 -57 -15
-84 63 -115 45 -18 48 -25 29 -67 l-12 -27 -49 21 c-54 24 -72 19 -94 -26 -20
-41 -6 -64 55 -91 52 -23 55 -27 48 -52 -10 -44 -21 -48 -64 -28 -46 20 -63
16 -87 -20 -27 -41 -10 -76 46 -96 29 -11 46 -23 47 -35 2 -11 -8 -59 -21
-108 -13 -50 -21 -98 -18 -108 2 -9 24 -34 49 -54 85 -70 83 -49 83 -639 0
-511 -14 -1765 -29 -2525 -8 -428 -6 -420 -78 -479 -46 -38 -105 -48 -191 -32
-86 16 -154 52 -223 118 -98 94 -140 196 -158 396 -11 110 -18 133 -46 157
-13 11 -15 24 -10 63 7 49 7 50 -18 43 -44 -11 -151 -76 -195 -119 -55 -53
-118 -179 -138 -277 -12 -57 -15 -107 -10 -210 7 -174 34 -320 98 -528 131
-426 148 -503 148 -654 0 -49 -7 -123 -16 -165 -17 -85 -75 -251 -124 -358
-61 -133 -158 -380 -195 -495 -80 -248 -111 -449 -102 -659 9 -213 51 -354
152 -506 232 -350 734 -537 1445 -538 499 -1 866 96 1136 299 220 166 334 413
334 724 -1 267 -62 481 -294 1023 -129 301 -150 379 -143 527 6 132 29 215
119 439 101 251 126 402 98 579 -37 224 -168 349 -298 283 -55 -28 -88 -87
-124 -220 -50 -181 -109 -264 -227 -320 -49 -23 -69 -26 -156 -26 -88 0 -105
3 -144 25 -71 40 -81 62 -91 186 -8 103 -17 529 -40 1984 -6 338 -15 888 -21
1223 -9 542 -8 614 6 669 23 92 70 181 128 245 90 99 91 105 47 392 -63 422
-64 406 35 504 50 50 67 75 79 117 42 142 -12 275 -130 319 -71 27 -173 28
-230 2z m991 -5316 c29 -57 30 -65 30 -190 0 -152 -10 -191 -106 -418 -84
-198 -111 -302 -116 -457 -9 -214 14 -297 200 -730 264 -615 292 -830 110
-830 -56 0 -105 29 -258 153 -77 62 -170 129 -207 150 -76 42 -211 89 -313
107 -85 15 -109 29 -134 78 -38 75 -37 74 -279 83 -119 5 -231 11 -249 14 -48
9 -99 -17 -117 -59 -28 -66 -105 -91 -193 -62 -134 44 -214 230 -199 461 7
116 16 156 89 405 120 406 135 573 82 883 -19 108 -15 165 15 214 45 74 148
84 206 20 39 -42 54 -91 54 -174 0 -79 12 -108 52 -133 42 -25 73 -25 286 2
l174 21 88 -22 c209 -54 383 -11 520 128 81 82 110 137 150 276 31 107 53 149
74 142 6 -1 25 -30 41 -62z m-365 -2510 c134 -68 332 -268 361 -365 34 -112
-68 -172 -201 -120 -167 66 -360 282 -360 403 0 31 7 46 34 73 43 43 94 46
166 9z"/>
<path d="M4805 3625 c-16 -15 -25 -36 -25 -55 0 -19 9 -40 25 -55 l24 -25 256
0 256 0 24 25 c35 34 34 86 -1 114 -25 20 -39 21 -281 21 l-254 0 -24 -25z"/>
<path d="M4822 3083 c-17 -6 -42 -57 -42 -83 0 -11 11 -32 25 -45 l24 -25 256
0 256 0 24 25 c40 39 32 96 -16 120 -22 12 -76 15 -271 14 -134 0 -249 -3
-256 -6z"/>
<path d="M5790 2790 c-55 -55 21 -144 83 -97 27 21 31 60 7 90 -26 32 -62 35
-90 7z"/>
<path d="M5950 2703 c-55 -20 -67 -78 -24 -112 34 -27 55 -26 82 2 29 30 28
62 -3 92 -25 26 -30 27 -55 18z"/>
<path d="M4833 2615 c-33 -14 -53 -41 -53 -73 0 -31 38 -71 73 -76 467 -75
453 -74 497 -51 49 25 53 102 8 126 -13 7 -119 27 -238 45 -118 19 -224 36
-235 38 -11 3 -34 -1 -52 -9z"/>
<path d="M5593 2450 c-47 -19 -57 -87 -18 -125 45 -46 115 -24 131 40 8 31
-17 72 -52 85 -29 12 -32 12 -61 0z"/>
<path d="M5955 2218 c-32 -38 -29 -81 11 -115 81 -72 181 50 104 127 -32 32
-83 26 -115 -12z"/>
<path d="M6206 2009 c-54 -42 -19 -139 50 -139 46 0 74 29 74 78 0 71 -68 105
-124 61z"/>
</g>
</svg>
