<?xml version="1.0" standalone="no"?>
<!DOCTYPE svg PUBLIC "-//W3C//DTD SVG 20010904//EN"
 "http://www.w3.org/TR/2001/REC-SVG-20010904/DTD/svg10.dtd">
<svg version="1.0" xmlns="http://www.w3.org/2000/svg"
 width="1024.000000pt" height="1024.000000pt" viewBox="0 0 1024.000000 1024.000000"
 preserveAspectRatio="xMidYMid meet">
<metadata>
Created by potrace 1.16, written by Peter Selinger 2001-2019
</metadata>
<g transform="translate(0.000000,1024.000000) scale(0.100000,-0.100000)"
fill="#000000" stroke="none">
<path d="M2745 9027 c-52 -25 -111 -82 -142 -139 -17 -31 -18 -98 -21 -1250
l-2 -1217 61 32 62 32 2421 0 2421 0 58 -32 57 -31 0 1203 c0 1321 3 1245 -61
1326 -17 22 -52 52 -77 67 l-47 27 -2340 2 -2340 3 -50 -23z m959 -463 c110
-28 184 -71 272 -159 137 -136 191 -280 181 -485 -9 -179 -70 -314 -196 -432
-241 -228 -615 -223 -852 12 -110 110 -159 205 -180 355 -44 316 171 635 477
709 80 19 222 20 298 0z m1625 -14 c35 -12 97 -45 138 -72 231 -155 328 -453
239 -734 -98 -306 -419 -484 -730 -404 -227 58 -396 226 -452 450 -24 97 -16
271 19 368 69 196 244 359 439 408 82 21 267 12 347 -16z m1580 -1 c89 -30
206 -113 264 -184 163 -203 192 -464 77 -704 -71 -147 -216 -270 -375 -317
-91 -27 -269 -26 -360 3 -367 116 -538 526 -366 878 84 173 232 294 416 342
77 20 264 10 344 -18z"/>
<path d="M3390 8477 c-128 -43 -213 -109 -288 -220 -69 -104 -97 -197 -97
-322 0 -78 5 -115 23 -167 77 -224 278 -367 517 -368 245 0 457 169 520 415
19 76 19 214 0 288 -55 210 -232 369 -440 393 l-55 7 -2 -213 c-3 -186 -5
-214 -20 -223 -12 -8 -21 -7 -32 2 -14 12 -16 44 -16 222 l0 209 -22 0 c-13 0
-52 -11 -88 -23z"/>
<path d="M4996 8489 c-63 -15 -175 -79 -235 -135 -139 -128 -205 -334 -166
-519 53 -256 271 -435 528 -435 178 1 354 96 448 241 107 167 118 401 26 573
-43 82 -143 186 -214 224 -60 31 -161 62 -207 62 l-26 0 -2 -211 c-3 -189 -5
-213 -20 -223 -13 -8 -23 -8 -35 0 -16 10 -18 34 -21 223 -3 235 4 219 -76
200z"/>
<path d="M6570 8486 c-187 -50 -349 -222 -395 -419 -81 -342 175 -667 525
-667 301 0 540 245 540 555 0 155 -59 294 -169 397 -37 35 -89 75 -117 90 -54
29 -151 58 -196 58 l-28 0 0 -208 c0 -215 -3 -232 -42 -232 -33 0 -38 34 -38
239 0 226 6 211 -80 187z"/>
<path d="M2658 6390 c-48 -26 -93 -82 -107 -134 -9 -30 -11 -681 -9 -2461 l3
-2420 21 -46 c30 -64 88 -125 148 -157 l51 -27 2340 -3 c2625 -2 2391 -9 2484
74 29 26 62 69 78 102 l28 57 0 2435 0 2435 -22 41 c-24 45 -82 100 -120 115
-15 5 -969 9 -2441 9 -2369 -1 -2418 -1 -2454 -20z m4577 -2137 c47 -25 86
-65 109 -110 14 -29 16 -144 16 -1195 l0 -1163 -30 -52 c-22 -39 -44 -61 -83
-83 l-52 -30 -2070 0 c-1981 0 -2072 1 -2110 19 -46 20 -100 78 -124 130 -14
33 -16 145 -16 1171 0 936 2 1142 14 1175 16 48 53 99 87 121 68 45 -16 43
2159 41 l2060 -2 40 -22z"/>
<path d="M3023 4180 c-18 -10 -40 -34 -50 -52 -17 -31 -18 -97 -21 -1163 -3
-1261 -7 -1187 66 -1243 l35 -27 2068 0 2068 0 27 21 c15 11 37 33 48 48 21
27 21 34 24 1174 2 1077 1 1149 -15 1182 -10 19 -33 45 -52 57 l-34 23 -2066
0 c-2031 0 -2067 0 -2098 -20z m2258 -836 c215 -64 383 -241 434 -457 17 -73
19 -215 4 -289 -6 -29 -29 -91 -51 -137 -76 -159 -230 -282 -408 -327 -83 -21
-240 -14 -320 14 -176 62 -291 161 -369 319 -60 120 -78 286 -45 423 46 199
213 384 400 445 116 37 247 41 355 9z"/>
<path d="M4980 3221 c-88 -28 -140 -60 -201 -120 -125 -125 -178 -317 -134
-486 50 -190 218 -338 416 -364 399 -54 675 353 493 728 -34 69 -132 170 -199
204 -117 59 -264 74 -375 38z m236 -75 c258 -69 388 -353 270 -592 -69 -138
-183 -212 -341 -221 -367 -22 -571 417 -322 693 99 110 254 157 393 120z"/>
<path d="M4999 3065 c-276 -88 -325 -473 -81 -635 192 -127 427 -70 529 130
24 49 28 66 27 150 0 121 -26 193 -93 260 -70 70 -147 103 -251 107 -56 2
-101 -2 -131 -12z"/>
<path d="M2309 6161 l-29 -29 0 -260 c0 -164 4 -271 11 -291 15 -43 54 -61
134 -61 l65 0 0 335 0 335 -76 0 c-70 0 -78 -2 -105 -29z"/>
<path d="M7750 5855 l0 -335 65 0 c35 0 76 5 90 12 52 23 55 44 55 333 l0 267
-29 29 c-27 27 -35 29 -105 29 l-76 0 0 -335z"/>
</g>
</svg>
