<?xml version="1.0" standalone="no"?>
<!DOCTYPE svg PUBLIC "-//W3C//DTD SVG 20010904//EN"
 "http://www.w3.org/TR/2001/REC-SVG-20010904/DTD/svg10.dtd">
<svg version="1.0" xmlns="http://www.w3.org/2000/svg"
 width="1024.000000pt" height="1024.000000pt" viewBox="0 0 1024.000000 1024.000000"
 preserveAspectRatio="xMidYMid meet">
<metadata>
Created by potrace 1.16, written by Peter Selinger 2001-2019
</metadata>
<g transform="translate(0.000000,1024.000000) scale(0.100000,-0.100000)"
fill="#000000" stroke="none">
<path d="M1985 7228 c-47 -16 -93 -56 -114 -96 -10 -20 -111 -316 -224 -657
-113 -341 -346 -1041 -516 -1555 -214 -643 -311 -949 -311 -979 0 -57 38 -97
101 -106 24 -3 406 -5 849 -3 l805 3 31 22 c47 34 35 -2 305 913 34 113 87
293 119 400 33 107 118 393 190 635 72 242 187 628 255 857 69 230 125 435
125 457 0 24 -8 48 -21 65 -46 58 -12 56 -821 55 -491 0 -753 -4 -773 -11z"/>
<path d="M3724 7086 c-48 -21 -68 -55 -103 -177 -18 -63 -74 -249 -123 -414
-50 -165 -139 -464 -198 -665 -59 -201 -126 -426 -148 -500 -64 -212 -265
-887 -322 -1080 -132 -446 -128 -433 -160 -462 l-30 -28 -908 0 c-879 0 -908
-1 -939 -19 -74 -46 -117 -177 -111 -340 3 -90 8 -115 32 -168 32 -69 96 -137
167 -175 l44 -23 4175 -3 c2962 -1 4190 1 4227 9 111 22 213 120 250 236 20
64 19 206 -1 323 -102 580 -156 881 -397 2215 -204 1128 -194 1082 -233 1143
-36 57 -103 110 -160 127 -43 13 -372 15 -2540 15 -2062 -1 -2496 -3 -2522
-14z m1955 -402 c17 -14 35 -42 41 -62 6 -22 10 -186 10 -410 0 -413 -2 -425
-62 -462 -33 -20 -44 -20 -866 -18 l-834 3 -29 33 c-18 20 -29 43 -29 62 0 60
81 776 91 807 6 18 22 42 36 53 25 20 39 20 819 20 l792 0 31 -26z m635 -124
c50 -30 79 -92 74 -152 -9 -88 -72 -142 -165 -142 -152 0 -212 203 -84 290 46
31 128 33 175 4z m561 0 c91 -56 106 -182 29 -250 -113 -99 -284 -21 -271 123
5 54 28 91 77 125 43 29 119 30 165 2z m565 -2 c48 -33 72 -70 77 -120 12
-109 -87 -194 -198 -169 -138 31 -167 218 -46 291 46 28 124 27 167 -2z m570
0 c110 -75 87 -244 -39 -287 -136 -45 -260 104 -190 229 43 77 158 106 229 58z
m553 6 c64 -31 102 -124 78 -196 -31 -95 -157 -132 -247 -73 -90 59 -85 208 8
265 40 24 114 26 161 4z m-4284 -1649 c47 -24 54 -58 47 -212 -4 -76 -13 -295
-21 -488 -9 -192 -18 -362 -21 -377 -3 -15 -19 -39 -36 -53 l-30 -25 -289 0
-289 0 -32 29 c-32 29 -33 32 -31 103 1 77 59 838 69 923 5 38 14 57 39 82
l33 33 266 0 c214 0 273 -3 295 -15z m1612 -23 l29 -32 0 -521 0 -521 -29 -29
-29 -29 -290 0 c-277 0 -290 1 -315 21 -15 11 -31 37 -37 59 -12 45 -13 909
-1 984 6 38 16 57 40 78 l32 29 285 -3 286 -3 29 -33z m1535 4 c19 -19 34 -43
34 -54 0 -11 11 -170 25 -353 49 -667 48 -645 30 -678 -8 -17 -24 -35 -34 -41
-12 -6 -130 -10 -310 -10 -376 0 -340 -26 -357 256 -21 339 -38 817 -31 847 5
16 21 36 40 47 30 19 51 20 301 20 l268 0 34 -34z m1547 6 c29 -27 32 -40 82
-372 20 -129 52 -332 71 -450 18 -118 34 -228 34 -243 0 -17 -10 -37 -26 -52
l-27 -25 -307 0 -306 0 -28 29 c-26 27 -29 40 -46 188 -10 87 -28 237 -39 333
-61 524 -62 537 -49 565 24 53 39 55 340 52 274 -2 277 -2 301 -25z"/>
</g>
</svg>
