<?xml version="1.0" standalone="no"?>
<!DOCTYPE svg PUBLIC "-//W3C//DTD SVG 20010904//EN"
 "http://www.w3.org/TR/2001/REC-SVG-20010904/DTD/svg10.dtd">
<svg version="1.0" xmlns="http://www.w3.org/2000/svg"
 width="1024.000000pt" height="1024.000000pt" viewBox="0 0 1024.000000 1024.000000"
 preserveAspectRatio="xMidYMid meet">
<metadata>
Created by potrace 1.16, written by Peter Selinger 2001-2019
</metadata>
<g transform="translate(0.000000,1024.000000) scale(0.100000,-0.100000)"
fill="#000000" stroke="none">
<path d="M1231 6499 c-44 -17 -81 -51 -101 -90 -22 -42 -113 -363 -395 -1399
-210 -769 -233 -867 -242 -1030 -9 -184 30 -276 135 -317 45 -17 222 -18 4497
-18 3720 0 4456 2 4488 14 99 34 147 122 147 269 0 102 -27 269 -70 437 -65
255 -542 1933 -572 2012 -22 60 -70 107 -125 122 -50 14 -7727 14 -7762 0z
m341 -1124 c3 -3 -46 -184 -109 -403 -62 -218 -113 -405 -113 -414 0 -13 13
-18 55 -23 37 -5 55 -12 55 -21 0 -13 -29 -129 -79 -319 -11 -38 -22 -82 -25
-97 l-6 -28 -145 0 c-79 0 -146 4 -149 9 -3 5 21 98 53 207 196 660 248 832
282 948 20 71 43 133 51 137 14 9 121 12 130 4z m400 0 c3 -3 -41 -189 -97
-413 -93 -366 -102 -408 -87 -419 9 -7 28 -13 43 -13 15 0 30 -3 32 -7 3 -5
-19 -107 -47 -228 l-51 -220 -177 -3 c-134 -2 -178 1 -178 10 0 17 110 431
116 438 3 3 24 10 47 15 l42 11 43 164 c24 91 70 269 103 395 33 127 64 240
69 253 9 19 17 22 73 22 35 0 66 -2 69 -5z m448 -22 c0 -15 -18 -129 -41 -253
-22 -124 -70 -405 -108 -625 l-67 -400 -184 -3 c-101 -1 -187 1 -191 5 -4 5
13 91 37 193 70 288 56 256 113 264 27 3 54 12 59 19 6 7 29 98 52 202 74 344
140 609 153 617 6 4 49 8 95 8 l82 0 0 -27z m273 20 c3 -5 -22 -179 -54 -388
-33 -209 -60 -393 -62 -410 -2 -29 0 -30 51 -39 43 -8 52 -13 52 -31 0 -19
-42 -326 -55 -402 l-6 -33 -173 0 c-95 0 -175 2 -178 5 -6 7 201 1230 218
1288 5 15 19 17 104 17 54 0 101 -3 103 -7z m407 -10 c0 -10 -20 -195 -45
-412 -24 -217 -42 -398 -39 -403 3 -4 23 -11 45 -14 37 -6 39 -8 38 -43 0 -20
-10 -121 -22 -226 l-22 -190 -187 -3 c-156 -2 -188 0 -188 12 0 26 60 428 65
436 3 5 25 12 50 16 28 4 46 12 49 23 3 9 17 113 31 231 42 342 73 568 80 579
3 6 37 11 76 11 59 0 69 -3 69 -17z m410 1 c0 -18 -55 -575 -70 -714 -10 -86
-9 -96 7 -107 9 -7 27 -13 40 -13 21 0 23 -4 22 -52 0 -29 -8 -132 -17 -228
l-17 -175 -174 -3 c-96 -1 -178 1 -183 6 -4 4 -2 64 6 132 8 69 17 161 21 205
9 114 8 112 69 119 45 6 55 11 59 29 3 12 22 191 43 397 20 206 41 385 45 398
8 20 15 22 79 22 57 0 70 -3 70 -16z m496 8 c8 -5 6 -73 -7 -242 -10 -129 -29
-404 -44 -610 -14 -206 -28 -392 -31 -412 l-6 -38 -188 0 c-104 0 -191 4 -194
8 -3 5 4 103 14 218 11 115 20 214 20 220 0 6 26 14 60 18 33 4 62 11 64 15 3
4 19 174 36 377 29 358 37 431 46 446 7 10 215 10 230 0z m277 -82 c-2 -68
-35 -585 -46 -715 -2 -29 0 -30 50 -40 28 -5 54 -12 56 -15 4 -4 -18 -425 -22
-447 -1 -2 -77 -3 -171 -3 -170 0 -170 0 -170 23 0 12 9 144 20 292 55 754 72
971 76 983 3 9 29 12 106 10 l103 -3 -2 -85z m463 77 c3 -8 -2 -188 -11 -402
-8 -213 -15 -396 -15 -406 0 -14 10 -20 42 -25 l41 -7 -7 -220 c-3 -121 -9
-224 -12 -228 -3 -5 -95 -9 -205 -9 l-200 0 7 158 c4 86 10 188 13 227 l6 69
45 9 c25 5 48 14 51 19 4 5 9 87 13 181 13 324 27 602 31 625 5 21 10 22 101
22 70 0 96 -4 100 -13z m469 -579 c4 -326 5 -620 3 -653 l-3 -60 -182 -3 -183
-2 0 138 c0 77 3 179 6 229 l7 90 61 9 61 9 8 410 c5 306 11 411 20 417 6 4
53 8 103 8 l92 0 7 -592z m287 402 c5 -102 11 -288 15 -415 l8 -230 52 -10
c28 -5 53 -12 56 -15 2 -3 8 -105 12 -228 l7 -222 -189 2 -188 3 -3 640 c-1
352 0 646 3 653 3 9 32 12 112 10 l108 -3 7 -185z m410 -190 c15 -206 28 -393
30 -415 3 -38 5 -40 46 -49 31 -7 44 -16 47 -30 5 -26 25 -336 25 -394 l0 -42
-175 0 c-173 0 -175 0 -179 23 -3 12 -7 115 -10 229 l-5 206 49 7 c60 8 57
-46 30 451 -11 206 -18 379 -14 385 3 5 33 9 67 7 l62 -3 27 -375z m380 195
c10 -99 27 -283 38 -408 11 -126 22 -233 25 -238 4 -5 24 -12 46 -15 31 -5 39
-11 39 -28 0 -25 27 -322 36 -388 l6 -48 -180 0 -181 0 -5 53 c-5 46 -26 365
-26 393 0 6 22 14 50 18 27 4 52 10 55 15 3 5 -11 190 -30 412 -19 221 -32
406 -29 411 3 5 36 8 72 6 l67 -3 17 -180z m432 169 c3 -9 24 -154 46 -322 58
-438 109 -817 120 -887 6 -33 10 -66 10 -72 0 -10 -43 -13 -180 -13 -136 0
-182 3 -185 13 -7 19 -35 338 -35 394 l0 50 58 9 57 9 -2 35 c-3 49 -82 719
-89 752 -3 15 -3 32 1 38 3 6 47 10 100 10 76 0 94 -3 99 -16z m277 -34 c4
-25 30 -205 58 -400 29 -195 54 -362 57 -371 3 -11 23 -19 56 -25 l52 -9 31
-224 c22 -156 28 -224 20 -227 -6 -3 -80 -3 -165 -2 l-155 3 -82 620 c-45 341
-82 635 -82 653 l-1 33 102 -3 103 -3 6 -45z m464 40 c8 -13 215 -1245 215
-1277 0 -23 -1 -23 -164 -23 -94 0 -167 4 -171 10 -8 13 -65 432 -59 441 2 4
22 10 44 14 23 4 40 12 40 20 0 15 -103 656 -120 748 -6 31 -8 62 -5 67 8 13
212 13 220 0z m203 -3 c6 -6 47 -192 92 -411 44 -220 83 -403 86 -407 3 -5 27
-11 55 -15 39 -5 50 -11 54 -28 56 -249 92 -423 88 -428 -2 -5 -69 -8 -149 -8
-107 0 -146 3 -149 13 -12 32 -215 1279 -210 1288 9 14 121 11 133 -4z m371
-4 c5 -10 48 -182 95 -383 115 -487 98 -438 151 -446 41 -6 46 -9 54 -43 54
-206 101 -395 101 -407 0 -12 -27 -14 -167 -12 l-168 3 -41 186 c-22 102 -44
204 -48 227 l-6 42 41 6 c22 4 43 12 45 19 4 10 -69 332 -160 710 -13 55 -22
103 -20 107 3 5 30 8 59 8 42 0 57 -4 64 -17z m377 -28 c7 -22 43 -155 79
-295 37 -140 82 -309 99 -375 l32 -120 37 -8 c42 -10 31 17 112 -279 25 -91
45 -171 45 -177 0 -8 -51 -11 -159 -11 l-159 0 -51 208 c-28 114 -52 216 -53
227 -3 16 5 21 45 28 54 10 55 15 32 104 -9 32 -49 186 -90 343 -41 157 -81
308 -90 335 -8 28 -15 54 -15 58 0 4 28 7 62 5 l61 -3 13 -40z m392 33 c5 -7
37 -101 70 -208 33 -107 121 -390 196 -629 75 -239 136 -440 136 -447 0 -11
-33 -14 -165 -14 l-164 0 -11 43 c-14 54 -100 376 -106 400 -4 14 1 17 33 18
65 2 88 12 87 40 0 13 -49 188 -109 389 -59 201 -110 377 -113 393 l-4 27 70
0 c43 0 73 -5 80 -12z"/>
</g>
</svg>
