<?xml version="1.0" standalone="no"?>
<!DOCTYPE svg PUBLIC "-//W3C//DTD SVG 20010904//EN"
 "http://www.w3.org/TR/2001/REC-SVG-20010904/DTD/svg10.dtd">
<svg version="1.0" xmlns="http://www.w3.org/2000/svg"
 width="1024.000000pt" height="1536.000000pt" viewBox="0 0 1024.000000 1536.000000"
 preserveAspectRatio="xMidYMid meet">
<metadata>
Created by potrace 1.16, written by Peter Selinger 2001-2019
</metadata>
<g transform="translate(0.000000,1536.000000) scale(0.100000,-0.100000)"
fill="#000000" stroke="none">
<path d="M4185 13849 c-81 -26 -148 -78 -196 -151 -50 -78 -63 -124 -62 -223
1 -141 64 -254 190 -341 97 -67 161 -87 278 -88 l100 -1 115 -104 c63 -56 140
-120 171 -141 30 -21 70 -55 88 -76 65 -73 65 -74 71 -459 5 -340 6 -351 28
-388 l22 -38 0 -4575 0 -4574 -23 0 c-12 0 -42 -11 -67 -24 -25 -13 -198 -73
-385 -134 -187 -61 -443 -144 -570 -185 -126 -42 -282 -92 -345 -112 -63 -21
-128 -44 -143 -52 -64 -32 -87 -134 -47 -201 21 -34 87 -71 127 -72 21 0 519
156 878 276 186 61 281 68 435 29 186 -46 287 -45 489 6 103 26 200 24 302 -5
46 -14 275 -86 509 -162 473 -153 501 -158 562 -112 65 49 75 145 24 213 -14
18 -40 38 -58 44 -157 48 -1302 426 -1331 438 -20 9 -42 22 -48 29 -5 7 -28
15 -50 19 l-39 7 0 4577 c0 4557 0 4577 20 4616 19 37 20 59 20 332 0 167 4
293 9 293 5 0 42 -31 82 -68 126 -115 262 -236 301 -265 62 -48 117 -35 206
46 49 46 72 89 72 137 0 41 -31 71 -415 410 -422 372 -668 594 -698 629 -14
17 -33 54 -42 83 -94 289 -340 445 -580 367z m395 -136 c0 -14 -100 -215 -137
-277 -77 -128 -220 -296 -253 -296 -19 0 -10 16 50 80 81 87 164 209 240 355
35 66 67 126 73 133 10 13 27 16 27 5z"/>
</g>
</svg>
