<?xml version="1.0" standalone="no"?>
<!DOCTYPE svg PUBLIC "-//W3C//DTD SVG 20010904//EN"
 "http://www.w3.org/TR/2001/REC-SVG-20010904/DTD/svg10.dtd">
<svg version="1.0" xmlns="http://www.w3.org/2000/svg"
 width="1024.000000pt" height="1024.000000pt" viewBox="0 0 1024.000000 1024.000000"
 preserveAspectRatio="xMidYMid meet">
<metadata>
Created by potrace 1.16, written by Peter Selinger 2001-2019
</metadata>
<g transform="translate(0.000000,1024.000000) scale(0.100000,-0.100000)"
fill="#000000" stroke="none">
<path d="M1203 7891 c-40 -10 -82 -37 -90 -57 -8 -22 23 -61 65 -83 20 -10
105 -44 188 -75 222 -83 441 -144 667 -185 54 -10 104 -24 110 -30 8 -8 7 -11
-4 -11 -20 0 -85 -68 -98 -103 -6 -16 -11 -52 -11 -80 -1 -58 4 -52 -200 -286
-100 -115 -107 -121 -143 -121 -95 0 -152 -58 -143 -148 l5 -52 -102 -113
c-56 -61 -174 -190 -262 -285 -229 -247 -245 -268 -245 -319 0 -32 5 -46 22
-57 35 -25 58 -19 100 24 29 31 38 49 38 75 0 38 -5 32 298 364 107 116 197
211 201 211 12 0 21 -253 21 -576 l0 -291 -30 -38 c-25 -32 -30 -46 -30 -95 0
-46 5 -65 27 -96 l28 -39 6 -839 7 -840 -233 -240 c-128 -133 -307 -327 -397
-431 -89 -105 -202 -236 -249 -290 -98 -114 -109 -132 -109 -175 0 -35 38 -80
68 -80 39 0 82 57 82 110 0 31 15 51 122 170 66 74 160 177 208 228 l87 94 47
-68 47 -67 -67 -166 c-212 -525 -216 -534 -265 -589 -56 -62 -93 -150 -85
-202 12 -79 112 -118 168 -67 60 55 82 127 69 222 -9 64 -11 59 216 623 l29
72 69 -100 c39 -55 82 -118 97 -139 33 -48 105 -84 164 -83 42 0 133 40 222
96 21 13 52 31 71 40 l34 18 -20 -34 c-11 -18 -28 -54 -38 -79 -9 -26 -31 -62
-48 -80 -60 -66 -87 -119 -87 -171 0 -86 71 -126 135 -76 43 34 65 92 65 179
0 72 3 81 63 205 35 72 71 149 80 171 12 31 37 57 104 109 48 37 114 90 145
117 37 31 62 46 70 41 33 -20 488 -469 488 -482 0 -29 -31 -78 -60 -96 -17 -9
-37 -31 -46 -48 -15 -29 -15 -44 2 -111 10 -41 -113 -305 -183 -392 -62 -77
-78 -124 -59 -169 7 -17 20 -37 29 -44 26 -22 81 -26 115 -8 49 25 66 68 69
170 3 102 7 118 79 281 87 200 114 255 123 255 4 0 16 -10 27 -21 23 -26 90
-58 122 -59 14 0 38 14 58 34 26 26 34 42 34 70 0 69 -37 112 -132 154 -27 11
-48 25 -48 29 0 10 86 222 93 229 2 2 41 -69 85 -158 166 -335 367 -587 602
-754 107 -77 110 -79 110 -99 0 -9 15 -32 34 -51 36 -36 78 -44 116 -24 14 7
50 2 137 -19 190 -47 309 -62 498 -62 173 0 314 16 422 47 43 13 59 13 86 3
69 -24 167 24 167 83 0 19 11 29 48 47 214 104 477 366 601 603 24 45 45 84
46 86 1 1 16 -1 33 -4 l30 -6 -34 -67 c-19 -36 -37 -80 -40 -97 -14 -73 52
-143 121 -130 36 7 82 53 111 108 19 36 20 109 3 150 -10 24 -7 35 19 85 41
80 57 82 48 7 -18 -156 -18 -182 -2 -237 9 -30 16 -75 16 -99 0 -50 26 -112
69 -165 46 -59 65 -145 65 -305 l1 -138 31 -31 c42 -42 93 -43 135 -3 57 54
49 129 -25 238 -72 105 -87 205 -57 376 16 89 27 115 80 185 25 32 51 65 56
73 9 11 32 6 130 -28 66 -22 129 -47 141 -55 12 -7 31 -41 44 -74 28 -77 66
-111 121 -111 57 0 89 34 89 95 0 78 -41 131 -138 179 -29 15 -52 31 -50 36 2
5 43 64 91 130 62 84 92 118 100 112 7 -5 68 -51 137 -102 125 -93 125 -93
122 -131 -4 -47 16 -63 108 -80 55 -10 70 -18 100 -50 30 -33 48 -42 130 -64
148 -39 344 -75 411 -75 53 0 64 4 88 28 l28 27 -5 252 c-4 238 -1 303 16 303
14 0 82 -117 82 -141 0 -13 14 -132 30 -264 31 -238 31 -241 14 -321 -26 -126
-3 -192 75 -215 48 -14 106 8 121 46 24 62 11 116 -51 211 -38 58 -41 69 -59
209 -11 81 -20 164 -19 184 0 32 2 34 12 18 7 -11 72 -105 144 -210 132 -191
133 -192 133 -249 0 -70 32 -160 67 -188 57 -44 139 -30 171 31 36 69 -28 189
-135 254 -27 17 -148 189 -398 567 l-117 177 16 54 c9 30 16 69 16 86 0 30 77
163 92 158 3 -1 83 -154 178 -340 166 -329 171 -340 160 -373 -17 -50 -5 -95
33 -131 42 -41 69 -48 106 -28 72 37 68 67 -35 276 -48 96 -175 354 -284 574
-108 220 -247 496 -308 614 l-112 214 0 448 0 448 26 48 c30 56 28 116 -6 163
-18 26 -20 44 -20 207 0 98 3 241 7 319 l6 140 33 22 c55 36 87 151 60 214 -8
18 -38 15 417 42 273 17 302 25 302 86 0 27 -6 37 -30 51 -46 27 -268 67 -599
109 -134 17 -142 25 -126 122 10 62 1 109 -25 138 -13 15 -15 65 -13 385 l3
368 170 42 c188 47 231 62 259 93 25 28 14 67 -23 87 -16 8 -71 20 -123 26
-105 12 -609 13 -767 1 -99 -7 -104 -7 -111 14 -5 11 -23 33 -40 47 -67 57
-167 28 -192 -55 -14 -47 -5 -42 -203 -103 -359 -110 -668 -218 -727 -252 -44
-25 -64 -67 -49 -100 19 -42 72 -56 230 -61 205 -6 477 23 728 77 49 10 103
22 122 25 l35 6 -21 -22 c-32 -37 -46 -83 -39 -131 7 -47 38 -105 67 -125 18
-12 19 -32 19 -312 l0 -300 -22 -4 c-13 -3 -69 -14 -125 -26 -57 -11 -118 -27
-137 -35 -45 -19 -79 -61 -66 -84 18 -34 40 -43 142 -57 57 -9 123 -18 147
-22 l44 -7 -2 -170 c0 -93 -4 -249 -7 -345 -7 -173 -7 -175 -35 -207 -15 -18
-31 -48 -35 -68 -8 -46 3 -120 21 -135 13 -11 15 -108 15 -675 l0 -663 -61
-83 c-34 -46 -132 -172 -218 -280 -86 -108 -203 -257 -261 -330 -57 -74 -166
-211 -241 -306 l-137 -172 -101 154 c-110 167 -114 176 -126 250 -10 60 -7 89
8 94 30 11 77 70 77 98 0 40 -43 126 -72 145 -25 16 -25 17 -13 90 6 40 17 84
25 97 15 29 9 127 -15 214 -23 87 -20 121 11 137 59 32 69 108 24 185 -16 28
-30 58 -30 67 0 9 18 32 41 50 23 18 73 76 111 128 38 52 80 100 92 107 27 14
290 61 395 70 100 8 138 45 92 87 -19 17 -28 17 -213 -19 -106 -20 -231 -43
-278 -51 l-84 -14 -86 -85 -85 -85 5 123 5 122 55 2 c30 2 141 10 245 18 105
8 267 19 360 25 207 12 263 19 271 32 13 21 11 452 -3 503 -18 69 -16 99 7
142 24 45 25 74 5 113 -16 31 -50 45 -134 54 -30 3 -61 12 -71 21 -14 13 -25
14 -67 4 -42 -10 -83 -8 -239 10 -104 12 -222 27 -261 33 l-73 11 0 226 c0
201 2 233 20 284 26 74 26 177 1 232 -79 170 -416 265 -896 252 -323 -9 -482
-47 -600 -142 -78 -63 -112 -189 -87 -323 5 -29 6 -54 2 -57 -3 -2 -49 -7
-101 -11 -52 -4 -101 -12 -109 -19 -8 -7 -42 -16 -74 -20 -55 -7 -59 -7 -51
11 32 77 37 103 33 184 -14 270 -194 361 -793 401 -205 14 -484 7 -590 -15
-146 -30 -229 -76 -264 -150 -20 -40 -21 -60 -21 -383 0 -333 0 -341 -20 -346
-26 -7 -46 -56 -55 -133 l-7 -61 -341 1 c-309 1 -345 -1 -374 -17 -59 -32 -67
-75 -31 -183 l22 -66 -21 -17 c-12 -9 -28 -30 -37 -48 -33 -65 -11 -183 34
-183 17 0 20 -7 20 -52 0 -28 -9 -144 -20 -257 -11 -113 -23 -253 -27 -311 -7
-90 -11 -105 -26 -108 -17 -4 -18 6 -15 148 3 149 2 152 -21 171 -47 38 -121
13 -121 -40 0 -16 7 -45 15 -64 19 -47 19 -135 -1 -233 -17 -82 -13 -189 7
-223 8 -12 9 -105 3 -310 l-9 -293 -135 83 c-74 45 -155 94 -180 108 l-45 26
5 865 c5 797 6 868 23 902 23 50 21 96 -5 138 -22 35 -22 42 -26 506 -4 435
-3 473 13 505 10 19 19 58 19 90 l2 55 145 165 c81 90 153 169 160 175 8 6 34
14 58 17 89 11 177 105 167 176 -6 40 -37 76 -89 103 -22 11 -37 21 -35 23 2
2 64 -5 138 -15 310 -45 496 -62 700 -64 187 -1 208 1 244 19 48 24 61 44 52
78 -12 48 -82 75 -608 232 -181 54 -328 104 -328 110 0 17 -51 62 -83 74 -63
24 -205 6 -243 -30 -22 -20 -24 -20 -145 -5 -288 36 -657 55 -726 37z m7139
-818 l-4 -358 -28 -25 c-38 -33 -50 -67 -50 -145 0 -63 0 -64 -32 -74 -28 -9
-265 -41 -305 -41 -10 0 -13 66 -13 295 l0 295 34 45 c45 58 54 115 31 185
-10 31 -27 57 -42 67 -24 16 -20 18 188 64 118 25 216 47 219 48 4 0 4 -160 2
-356z m-181 -913 l46 0 -1 -78 c-1 -72 1 -81 28 -117 l30 -38 -3 -316 -3 -315
-23 -28 c-35 -42 -42 -93 -19 -148 17 -42 19 -81 21 -516 l3 -471 -28 -6 c-44
-9 -77 -42 -192 -191 -58 -74 -108 -136 -111 -136 -15 0 -19 165 -19 776 0
431 3 655 10 659 19 12 50 84 50 115 0 37 -21 90 -43 109 -15 12 -17 50 -17
364 l0 350 113 -6 c61 -4 133 -7 158 -7z m-3446 -299 c3 -5 1 -12 -5 -16 -5
-3 -10 1 -10 9 0 18 6 21 15 7z m409 -123 c-14 -156 -11 -356 5 -401 17 -50
64 -103 113 -128 44 -22 193 -61 308 -79 41 -7 81 -17 88 -22 6 -6 12 -26 12
-45 0 -48 -30 -177 -44 -185 -6 -4 -24 8 -41 26 -53 58 -207 98 -492 128
l-113 12 0 367 c0 338 1 367 18 382 27 25 83 46 121 47 l34 0 -9 -102z m-378
54 c25 -16 36 -167 32 -462 l-3 -295 -50 -2 c-135 -7 -186 -27 -360 -138 -102
-66 -241 -145 -255 -145 -6 0 -10 58 -10 165 0 92 4 165 9 165 26 0 297 32
372 44 169 27 259 103 259 218 0 24 -9 106 -20 183 -11 77 -20 170 -20 208 0
57 3 67 18 67 9 0 22 -4 28 -8z m1242 -1032 c136 -23 300 -40 382 -40 l57 0 7
-77 c8 -101 8 -163 -1 -163 -5 0 -21 19 -38 41 -55 75 -96 104 -186 131 -153
47 -283 89 -334 108 -66 25 -34 25 113 0z m182 -175 c30 -10 60 -22 67 -27 6
-5 44 -55 84 -111 63 -89 72 -106 70 -140 -1 -24 6 -54 18 -78 21 -40 30 -106
17 -128 -10 -15 -18 -4 -71 94 -73 136 -169 270 -250 351 l-81 81 45 -12 c25
-7 71 -20 101 -30z m-3877 -521 c5 -36 4 -109 -3 -185 -11 -113 -10 -130 5
-162 9 -20 28 -40 43 -45 132 -50 638 -102 790 -81 47 7 78 7 84 1 6 -6 -11
-57 -47 -138 -47 -106 -56 -135 -52 -167 3 -24 13 -45 27 -54 19 -13 21 -21
15 -71 -4 -32 -33 -127 -65 -212 -33 -85 -64 -168 -70 -183 l-10 -28 -152 148
c-244 238 -272 263 -566 506 l-74 61 8 336 c3 184 8 338 11 342 2 4 14 3 26
-1 18 -7 24 -19 30 -67z m5902 -165 c5 -21 2 -36 -8 -47 -43 -48 -40 -127 6
-172 21 -21 22 -26 15 -118 -4 -53 -5 -113 -2 -132 6 -31 5 -33 -9 -20 -38 38
-207 265 -207 277 0 24 173 243 191 243 4 0 10 -14 14 -31z m275 -147 c0 -4
34 -72 75 -150 l75 -142 -43 -64 c-23 -36 -44 -65 -47 -65 -7 -1 -45 151 -59
234 -16 94 -21 195 -11 195 6 0 10 -4 10 -8z m-750 -145 l0 -63 -119 -169
c-66 -94 -159 -225 -206 -293 l-86 -122 -45 36 c-24 20 -44 40 -44 44 0 4 46
66 103 138 167 212 330 422 357 458 14 18 28 34 33 34 4 0 7 -28 7 -63z
m-5722 -116 l134 -86 -6 -70 c-3 -38 -9 -143 -12 -233 l-7 -163 -41 -28 c-23
-15 -68 -43 -101 -61 -33 -19 -87 -51 -119 -72 -33 -21 -63 -38 -68 -38 -4 0
-8 201 -8 446 l0 446 48 -28 c26 -15 107 -66 180 -113z m6073 -89 c89 -123 97
-140 79 -158 -5 -5 -18 -26 -28 -46 l-17 -37 -93 131 c-91 128 -94 133 -99
199 -3 37 -3 76 1 86 7 16 11 14 38 -17 16 -19 70 -90 119 -158z m-6446 -269
c-4 -210 -11 -362 -17 -368 -11 -12 -61 42 -144 157 l-55 77 59 138 c33 76 78
179 100 228 21 50 42 98 45 108 4 9 9 17 13 17 3 0 3 -161 -1 -357z m-178 199
c-14 -31 -44 -97 -67 -146 l-40 -89 -34 48 -35 48 97 103 c53 56 99 101 101
98 3 -2 -7 -30 -22 -62z m881 -82 c45 -36 80 -68 79 -73 -5 -16 -202 -166
-206 -156 -2 6 0 80 4 165 7 143 8 153 25 141 9 -6 53 -41 98 -77z m5387 -448
c-5 -33 -12 -45 -30 -52 -13 -5 -26 -18 -30 -30 -4 -12 -10 -20 -15 -18 -5 2
-56 41 -115 88 -59 47 -113 90 -122 97 -12 10 -6 22 44 85 32 40 105 138 163
218 l105 145 3 -245 c2 -135 0 -264 -3 -288z m283 331 c55 -82 62 -97 62 -141
0 -43 5 -55 35 -88 19 -22 35 -42 35 -45 0 -3 -30 -39 -67 -80 -58 -64 -72
-74 -97 -71 -17 1 -32 5 -35 8 -4 3 -7 123 -9 267 -2 152 0 258 6 252 4 -5 36
-51 70 -102z m-792 -199 c24 -20 44 -40 44 -44 0 -5 -43 -68 -95 -141 -52 -74
-96 -138 -98 -143 -3 -10 -123 20 -140 35 -8 6 229 329 240 329 3 0 25 -16 49
-36z m1274 16 c0 -5 -4 -10 -10 -10 -5 0 -10 5 -10 10 0 6 5 10 10 10 6 0 10
-4 10 -10z m-2124 -62 c-8 -23 -26 -70 -39 -102 -21 -50 -26 -56 -31 -38 -9
28 -2 53 41 130 39 71 52 76 29 10z m310 -125 c20 -38 44 -76 52 -86 15 -17
12 -21 -31 -64 -25 -26 -48 -45 -51 -43 -4 5 -13 260 -9 260 1 0 18 -30 39
-67z m1676 -65 c3 -73 3 -139 1 -145 -7 -17 -38 -16 -99 1 -27 8 -61 17 -75
20 -27 6 -35 22 -45 81 -4 26 3 39 49 90 50 55 89 76 153 84 8 1 13 -42 16
-131z"/>
</g>
</svg>
