<?xml version="1.0" standalone="no"?>
<!DOCTYPE svg PUBLIC "-//W3C//DTD SVG 20010904//EN"
 "http://www.w3.org/TR/2001/REC-SVG-20010904/DTD/svg10.dtd">
<svg version="1.0" xmlns="http://www.w3.org/2000/svg"
 width="1024.000000pt" height="1024.000000pt" viewBox="0 0 1024.000000 1024.000000"
 preserveAspectRatio="xMidYMid meet">
<metadata>
Created by potrace 1.16, written by Peter Selinger 2001-2019
</metadata>
<g transform="translate(0.000000,1024.000000) scale(0.100000,-0.100000)"
fill="#000000" stroke="none">
<path d="M2675 8665 c-41 -22 -64 -45 -81 -77 -50 -97 44 -346 150 -398 23
-11 49 -20 58 -20 9 0 40 -33 69 -72 408 -561 1597 -2154 1929 -2586 46 -60
61 -87 55 -96 -6 -8 -130 -164 -277 -347 -147 -184 -385 -482 -529 -664 -339
-427 -480 -603 -964 -1210 -219 -275 -554 -696 -744 -935 -190 -239 -364 -458
-387 -487 -50 -61 -68 -111 -59 -160 10 -53 105 -144 196 -188 99 -47 160 -45
218 8 28 26 151 179 366 457 87 113 207 267 267 342 108 138 449 576 693 893
72 94 232 301 355 460 123 160 382 493 575 740 193 248 398 512 455 587 58 76
108 137 112 138 3 0 125 -154 270 -342 145 -189 296 -383 334 -433 39 -49 261
-337 494 -640 528 -685 898 -1164 1055 -1365 67 -85 184 -236 260 -335 301
-390 396 -505 436 -525 69 -36 134 -21 251 56 114 76 146 150 103 234 -18 35
-109 155 -429 565 -99 127 -257 329 -351 450 -609 783 -1256 1605 -1792 2277
l-342 428 89 115 c265 338 1150 1534 1718 2320 l223 310 49 11 c27 6 60 18 74
28 70 46 149 209 150 311 1 72 -24 114 -84 145 -81 41 -166 15 -261 -79 -70
-71 -113 -134 -130 -191 -10 -34 -58 -98 -193 -260 -99 -118 -259 -309 -356
-425 -96 -115 -425 -511 -730 -880 -700 -847 -780 -943 -808 -980 l-24 -30
-31 40 c-88 109 -1388 1687 -1924 2336 -104 125 -123 153 -123 182 0 67 -92
191 -192 261 -66 45 -144 58 -193 31z"/>
</g>
</svg>
