<?xml version="1.0" standalone="no"?>
<!DOCTYPE svg PUBLIC "-//W3C//DTD SVG 20010904//EN"
 "http://www.w3.org/TR/2001/REC-SVG-20010904/DTD/svg10.dtd">
<svg version="1.0" xmlns="http://www.w3.org/2000/svg"
 width="1024.000000pt" height="1024.000000pt" viewBox="0 0 1024.000000 1024.000000"
 preserveAspectRatio="xMidYMid meet">
<metadata>
Created by potrace 1.16, written by Peter Selinger 2001-2019
</metadata>
<g transform="translate(0.000000,1024.000000) scale(0.100000,-0.100000)"
fill="#000000" stroke="none">
<path d="M4715 9334 c-782 -37 -1369 -169 -1866 -420 -343 -173 -657 -433
-852 -705 -84 -117 -215 -379 -261 -522 -91 -278 -129 -608 -107 -902 48 -614
291 -1343 762 -2285 287 -572 605 -1126 982 -1705 487 -749 848 -1224 1202
-1581 158 -159 265 -245 365 -293 71 -34 81 -36 175 -36 88 0 107 3 159 28 91
42 176 108 317 245 588 569 1388 1720 2047 2941 701 1302 1005 2223 979 2966
-38 1081 -694 1798 -1933 2113 -272 70 -504 106 -874 137 -177 15 -904 28
-1095 19z"/>
</g>
</svg>
