<?xml version="1.0" standalone="no"?>
<!DOCTYPE svg PUBLIC "-//W3C//DTD SVG 20010904//EN"
 "http://www.w3.org/TR/2001/REC-SVG-20010904/DTD/svg10.dtd">
<svg version="1.0" xmlns="http://www.w3.org/2000/svg"
 width="1024.000000pt" height="1536.000000pt" viewBox="0 0 1024.000000 1536.000000"
 preserveAspectRatio="xMidYMid meet">
<metadata>
Created by potrace 1.16, written by Peter Selinger 2001-2019
</metadata>
<g transform="translate(0.000000,1536.000000) scale(0.100000,-0.100000)"
fill="#000000" stroke="none">
<path d="M5380 14311 c-100 -33 -155 -87 -213 -209 -37 -79 -40 -83 -65 -77
-15 3 -35 16 -44 28 -9 12 -26 34 -38 49 -11 14 -40 34 -65 43 -112 43 -204
-38 -205 -180 0 -81 30 -143 83 -169 56 -27 99 -15 159 45 49 49 70 57 98 39
12 -8 8 -35 -30 -191 -25 -100 -51 -184 -57 -186 -28 -11 -59 9 -85 53 -50 81
-167 108 -228 52 -83 -78 -78 -278 9 -322 64 -33 131 -12 187 58 30 37 63 46
82 24 7 -9 1 -51 -20 -138 -48 -203 -49 -205 -78 -202 -15 2 -45 25 -75 57
-60 64 -80 75 -137 75 -106 0 -165 -100 -144 -242 19 -129 155 -161 247 -59
38 43 84 55 95 27 5 -14 -60 -313 -70 -323 -3 -3 -21 -2 -40 1 -26 5 -42 17
-63 48 -43 63 -73 81 -132 80 -111 -3 -156 -64 -149 -203 4 -89 21 -123 81
-152 52 -26 109 -9 162 49 27 29 49 44 65 44 50 0 53 -9 35 -99 -30 -147 -3
-211 127 -298 89 -60 125 -113 138 -204 5 -35 10 -206 10 -379 0 -319 -4 -536
-40 -2060 -11 -465 -24 -1079 -30 -1365 -30 -1558 -32 -1612 -65 -1662 -25
-38 -79 -56 -155 -51 -82 5 -131 28 -196 93 -118 117 -167 287 -209 723 -9 92
-25 188 -36 222 -11 35 -17 70 -13 85 14 58 -26 115 -81 115 -18 0 -47 -11
-66 -25 -19 -13 -58 -41 -88 -60 -83 -56 -159 -133 -212 -213 -54 -82 -79
-143 -117 -282 -24 -89 -26 -108 -25 -320 1 -331 24 -470 158 -945 121 -431
139 -530 140 -775 0 -260 -30 -375 -193 -750 -212 -483 -282 -691 -326 -970
-21 -134 -15 -387 12 -495 84 -330 280 -563 607 -720 236 -113 469 -164 822
-181 l152 -7 6 -27 c10 -46 39 -64 110 -68 58 -4 66 -2 89 21 14 15 26 38 26
52 l0 25 103 0 c365 0 700 62 942 174 222 103 436 300 533 491 134 266 145
641 32 1025 -59 197 -111 328 -277 700 -83 185 -106 249 -129 360 -33 165 -15
260 116 595 99 254 140 444 140 645 -1 182 -30 329 -90 455 -67 141 -144 205
-244 205 -123 0 -181 -84 -221 -319 -40 -234 -110 -357 -243 -425 -99 -51
-245 -32 -336 43 -38 32 -54 91 -60 216 -12 246 -33 1842 -41 3025 -3 487 -10
1340 -16 1896 -10 1054 -9 1096 32 1217 29 87 49 116 138 199 93 87 112 115
122 176 14 92 -24 354 -85 592 -46 179 -69 315 -61 364 10 67 39 118 108 193
111 121 142 208 117 328 -30 144 -135 282 -247 326 -62 23 -198 35 -243 20z"/>
</g>
</svg>
