<?xml version="1.0" standalone="no"?>
<!DOCTYPE svg PUBLIC "-//W3C//DTD SVG 20010904//EN"
 "http://www.w3.org/TR/2001/REC-SVG-20010904/DTD/svg10.dtd">
<svg version="1.0" xmlns="http://www.w3.org/2000/svg"
 width="1024.000000pt" height="1536.000000pt" viewBox="0 0 1024.000000 1536.000000"
 preserveAspectRatio="xMidYMid meet">
<metadata>
Created by potrace 1.16, written by Peter Selinger 2001-2019
</metadata>
<g transform="translate(0.000000,1536.000000) scale(0.100000,-0.100000)"
fill="#000000" stroke="none">
<path d="M3045 12563 c-289 -36 -610 -178 -856 -379 -102 -83 -276 -269 -352
-374 -73 -103 -183 -317 -216 -420 -52 -164 -65 -263 -65 -485 0 -225 10 -309
59 -477 69 -238 229 -508 302 -508 60 0 281 111 462 232 440 294 961 748 1308
1139 246 278 396 479 467 628 37 79 41 93 41 167 0 76 -2 85 -31 125 -83 117
-320 247 -562 308 -156 40 -422 61 -557 44z"/>
<path d="M4366 12007 c-200 -362 -637 -883 -1073 -1278 -468 -422 -1061 -837
-1295 -904 -32 -9 -58 -20 -58 -23 0 -4 15 -30 34 -58 82 -121 213 -234 273
-234 19 0 51 -17 93 -48 240 -180 526 -292 743 -292 226 0 440 117 877 479
147 122 486 461 613 614 122 145 237 309 280 396 31 65 32 68 31 201 -1 253
-60 492 -181 735 -37 75 -52 116 -48 132 11 46 -75 175 -185 276 -34 31 -64
57 -68 57 -4 0 -20 -24 -36 -53z"/>
<path d="M4915 10508 c-273 -458 -652 -830 -1254 -1232 -91 -61 -205 -134
-253 -161 -83 -47 -104 -65 -76 -65 16 0 127 -73 223 -146 244 -188 606 -540
1104 -1074 157 -168 351 -375 431 -460 277 -295 846 -896 1031 -1090 102 -107
264 -278 360 -380 303 -322 692 -722 1074 -1107 313 -315 379 -377 425 -398
78 -35 127 -33 212 10 38 20 73 33 77 30 19 -11 275 -319 366 -440 55 -71 134
-184 176 -250 110 -169 109 -167 127 -160 35 15 44 9 63 -40 57 -148 81 -324
79 -600 -1 -110 -1 -212 -1 -227 1 -15 14 -43 32 -62 60 -69 148 -55 189 29
31 65 43 196 37 430 -5 226 -28 386 -82 564 -23 79 -24 86 -9 103 16 16 15 22
-6 80 -81 228 -248 543 -418 788 -36 52 -79 114 -95 138 l-29 43 29 37 c74 94
92 149 72 220 -23 84 -435 669 -1156 1644 -110 148 -508 686 -683 923 -973
1313 -1411 1910 -1551 2120 -170 253 -275 454 -374 715 -26 69 -48 126 -50
128 -1 2 -33 -48 -70 -110z m729 -2012 c18 -7 64 -49 102 -91 38 -43 94 -106
124 -139 144 -158 405 -499 428 -558 21 -53 4 -106 -56 -171 -77 -82 -117
-107 -174 -107 -48 0 -51 2 -121 73 -40 39 -124 135 -186 212 -63 77 -176 211
-250 298 -147 171 -171 206 -171 250 0 60 29 96 138 173 58 41 112 74 119 74
8 0 28 -6 47 -14z"/>
<path d="M5740 8217 c-30 -29 -79 -73 -109 -98 l-54 -46 33 -49 c60 -88 286
-388 337 -448 59 -68 85 -85 132 -86 29 0 44 10 98 63 101 102 102 101 -166
447 -74 96 -150 195 -169 220 -19 25 -37 46 -41 47 -3 2 -31 -21 -61 -50z"/>
</g>
</svg>
