<?xml version="1.0" standalone="no"?>
<!DOCTYPE svg PUBLIC "-//W3C//DTD SVG 20010904//EN"
 "http://www.w3.org/TR/2001/REC-SVG-20010904/DTD/svg10.dtd">
<svg version="1.0" xmlns="http://www.w3.org/2000/svg"
 width="1024.000000pt" height="1536.000000pt" viewBox="0 0 1024.000000 1536.000000"
 preserveAspectRatio="xMidYMid meet">
<metadata>
Created by potrace 1.16, written by Peter Selinger 2001-2019
</metadata>
<g transform="translate(0.000000,1536.000000) scale(0.100000,-0.100000)"
fill="#000000" stroke="none">
<path d="M6108 13846 c-21 -7 -50 -22 -65 -31 -55 -36 -289 -237 -478 -410
-432 -397 -665 -624 -1552 -1515 -802 -806 -997 -997 -1016 -995 -12 2 -38 12
-57 24 -60 36 -113 22 -145 -40 -14 -27 -20 -29 -71 -29 -61 0 -96 -14 -136
-57 -30 -31 -42 -80 -20 -75 8 1 11 -2 7 -8 -3 -5 -15 -10 -26 -10 -11 0 -29
-5 -40 -10 -19 -11 -51 -63 -47 -77 2 -4 -34 -44 -79 -88 -45 -44 -84 -92 -88
-106 -5 -19 -19 -31 -59 -48 -75 -31 -152 -90 -171 -131 -11 -24 -31 -44 -61
-59 -50 -27 -75 -57 -95 -116 -7 -22 -17 -45 -21 -51 -5 -7 -15 -42 -23 -79
-7 -37 -21 -75 -31 -86 -9 -10 -14 -24 -11 -32 4 -11 -2 -12 -35 -3 -48 13
-81 -2 -115 -53 -58 -86 0 -233 129 -329 108 -80 163 -77 246 14 l50 54 38
-42 c83 -92 165 -165 216 -192 90 -49 113 -71 193 -193 155 -234 167 -252 181
-257 9 -3 12 -10 9 -16 -3 -5 29 -67 73 -137 43 -71 107 -180 141 -243 78
-145 119 -186 227 -223 43 -15 83 -27 88 -27 5 0 -44 55 -110 122 -114 117
-230 250 -304 348 -52 70 -3 17 103 -111 53 -64 156 -179 229 -255 73 -77 124
-132 112 -124 -11 8 -2 -2 21 -23 136 -127 326 -237 479 -276 43 -11 144 -30
225 -42 80 -12 151 -23 157 -24 6 -2 30 -77 53 -167 42 -164 86 -309 182 -603
51 -158 52 -162 54 -295 2 -177 17 -211 113 -267 24 -14 41 -30 39 -37 -1 -6
-41 -30 -87 -53 -46 -23 -92 -52 -102 -65 -10 -13 -23 -50 -29 -83 -11 -59
-14 -62 -113 -154 -301 -280 -569 -575 -746 -821 -113 -156 -150 -230 -159
-312 -6 -55 -13 -71 -57 -128 -59 -77 -87 -139 -114 -251 -11 -46 -40 -169
-65 -274 -99 -413 -343 -1301 -382 -1388 -22 -48 -36 -65 -79 -92 -40 -26 -68
-56 -115 -127 -159 -239 -241 -336 -310 -370 -19 -9 -99 -48 -179 -86 -116
-56 -158 -82 -213 -132 -88 -81 -111 -124 -105 -202 3 -47 10 -64 33 -88 16
-17 33 -30 38 -30 5 0 29 -17 52 -39 44 -40 136 -81 184 -81 15 0 42 5 60 11
29 10 34 8 71 -24 72 -66 138 -67 246 -6 62 35 77 36 129 4 51 -31 90 -31 165
0 l59 25 2511 0 2510 0 39 -25 c55 -37 99 -41 156 -16 76 34 118 37 174 12 64
-27 120 -26 204 3 123 44 231 150 277 273 11 30 25 98 31 151 15 138 24 178
55 257 25 62 28 82 28 180 -1 122 -16 179 -78 289 -40 70 -184 245 -247 300
-24 21 -87 60 -141 87 -90 45 -98 52 -129 106 -66 116 -304 500 -352 568 -144
203 -302 359 -519 509 -63 43 -98 74 -98 86 0 9 20 34 44 54 62 50 70 82 56
203 -22 191 -125 670 -216 1002 -81 299 -214 673 -301 846 -14 28 -50 88 -80
134 -60 93 -60 90 -18 191 23 53 27 74 22 121 -6 66 -44 144 -98 201 -29 31
-38 51 -47 101 -6 34 -47 278 -91 542 -114 672 -146 806 -233 980 -80 158
-218 298 -275 278 -10 -3 1 8 24 25 120 89 223 299 223 454 0 52 2 58 29 74
40 24 61 64 61 121 0 84 -47 134 -139 149 -36 6 -41 10 -47 40 -8 41 0 85 31
184 30 97 57 229 51 247 -3 7 -1 13 5 13 22 0 432 162 468 184 60 38 81 71 81
127 0 42 -5 55 -36 89 -50 55 -130 83 -449 155 -66 15 -125 32 -131 39 -6 6
-19 34 -29 61 -26 73 -82 181 -128 250 -114 168 -292 292 -496 345 -435 114
-984 -54 -1328 -407 -138 -142 -227 -296 -279 -488 -26 -92 -28 -115 -28 -295
-1 -174 1 -203 22 -273 36 -124 93 -227 175 -316 28 -30 35 -47 40 -95 16
-153 125 -266 330 -342 42 -16 77 -31 77 -35 0 -3 -30 -9 -67 -12 -148 -12
-265 -30 -423 -63 -91 -19 -223 -39 -295 -45 -229 -18 -280 -37 -291 -110 -6
-34 -3 -39 62 -97 94 -84 188 -158 321 -253 62 -44 115 -84 119 -90 9 -15
-237 163 -326 235 -41 33 -108 92 -150 131 -41 39 -108 97 -147 129 -40 32
-73 60 -73 63 0 3 18 -9 39 -26 21 -17 41 -31 44 -31 9 0 -25 156 -55 250 -26
80 -149 396 -188 480 -10 24 -8 30 30 70 128 139 176 297 152 497 -6 54 -14
107 -17 118 -5 17 27 47 182 176 454 378 754 612 1507 1178 614 462 758 584
1328 1129 312 298 315 302 305 398 -18 172 -183 331 -354 341 -43 2 -82 -2
-105 -11z m-141 -3542 c-3 -3 -12 -4 -19 -1 -8 3 -5 6 6 6 11 1 17 -2 13 -5z
m-40 -10 c-3 -3 -12 -4 -19 -1 -8 3 -5 6 6 6 11 1 17 -2 13 -5z m-100 -20 c-3
-3 -12 -4 -19 -1 -8 3 -5 6 6 6 11 1 17 -2 13 -5z m-204 -31 c-7 -2 -21 -2
-30 0 -10 3 -4 5 12 5 17 0 24 -2 18 -5z m-365 -10 c-10 -2 -28 -2 -40 0 -13
2 -5 4 17 4 22 1 32 -1 23 -4z m245 0 c-7 -2 -19 -2 -25 0 -7 3 -2 5 12 5 14
0 19 -2 13 -5z m-3566 -179 c-3 -3 -12 -4 -19 -1 -8 3 -5 6 6 6 11 1 17 -2 13
-5z m4 -361 c13 -16 12 -17 -3 -4 -10 7 -18 15 -18 17 0 8 8 3 21 -13z m84
-73 c33 -33 57 -60 54 -60 -2 0 -31 27 -64 60 -33 33 -57 60 -54 60 2 0 31
-27 64 -60z m965 -147 c0 -8 -9 0 -50 45 l-45 47 48 -45 c26 -24 47 -45 47
-47z m-885 57 c10 -11 16 -20 13 -20 -3 0 -13 9 -23 20 -10 11 -16 20 -13 20
3 0 13 -9 23 -20z m925 -85 c13 -14 21 -25 18 -25 -2 0 -15 11 -28 25 -13 14
-21 25 -18 25 2 0 15 -11 28 -25z m55 -45 c10 -11 16 -20 13 -20 -3 0 -13 9
-23 20 -10 11 -16 20 -13 20 3 0 13 -9 23 -20z m46 -37 c13 -16 12 -17 -3 -4
-10 7 -18 15 -18 17 0 8 8 3 21 -13z m99 -80 c0 -2 -18 10 -40 27 -22 17 -40
34 -40 37 0 2 18 -10 40 -27 22 -17 40 -34 40 -37z m2127 -229 c-3 -3 -12 -4
-19 -1 -8 3 -5 6 6 6 11 1 17 -2 13 -5z m553 -4 c-8 -5 -22 -9 -30 -9 -10 0
-8 3 5 9 27 12 43 12 25 0z m-513 -6 c-3 -3 -12 -4 -19 -1 -8 3 -5 6 6 6 11 1
17 -2 13 -5z m40 -10 c-3 -3 -12 -4 -19 -1 -8 3 -5 6 6 6 11 1 17 -2 13 -5z
m56 -11 c-7 -2 -19 -2 -25 0 -7 3 -2 5 12 5 14 0 19 -2 13 -5z m324 1 c-3 -3
-12 -4 -19 -1 -8 3 -5 6 6 6 11 1 17 -2 13 -5z m-219 -11 c-16 -2 -40 -2 -55
0 -16 2 -3 4 27 4 30 0 43 -2 28 -4z m150 0 c-16 -2 -40 -2 -55 0 -16 2 -3 4
27 4 30 0 43 -2 28 -4z m-951 -239 c-3 -3 -12 -4 -19 -1 -8 3 -5 6 6 6 11 1
17 -2 13 -5z m-50 -10 c-3 -3 -12 -4 -19 -1 -8 3 -5 6 6 6 11 1 17 -2 13 -5z
m-50 -10 c-3 -3 -12 -4 -19 -1 -8 3 -5 6 6 6 11 1 17 -2 13 -5z m-1897 -34
c12 -16 19 -30 16 -30 -2 0 -14 14 -26 30 -12 17 -19 30 -16 30 2 0 14 -13 26
-30z m1847 24 c-3 -3 -12 -4 -19 -1 -8 3 -5 6 6 6 11 1 17 -2 13 -5z m-60 -10
c-3 -3 -12 -4 -19 -1 -8 3 -5 6 6 6 11 1 17 -2 13 -5z m-50 -10 c-3 -3 -12 -4
-19 -1 -8 3 -5 6 6 6 11 1 17 -2 13 -5z m-49 -11 c-10 -2 -26 -2 -35 0 -10 3
-2 5 17 5 19 0 27 -2 18 -5z m-80 -10 c-10 -2 -26 -2 -35 0 -10 3 -2 5 17 5
19 0 27 -2 18 -5z m119 -250 c-1 -49 -3 -9 -3 87 0 96 2 136 3 88 2 -49 2
-127 0 -175z m-474 240 c-13 -2 -33 -2 -45 0 -13 2 -3 4 22 4 25 0 35 -2 23
-4z m275 0 c-16 -2 -40 -2 -55 0 -16 2 -3 4 27 4 30 0 43 -2 28 -4z m-130 -10
c-21 -2 -57 -2 -80 0 -24 2 -7 4 37 4 44 0 63 -2 43 -4z m339 -395 c-2 -13 -4
-3 -4 22 0 25 2 35 4 23 2 -13 2 -33 0 -45z m10 -80 c-2 -13 -4 -5 -4 17 -1
22 1 32 4 23 2 -10 2 -28 0 -40z m10 -65 c-3 -10 -5 -4 -5 12 0 17 2 24 5 18
2 -7 2 -21 0 -30z m10 -70 c-3 -10 -5 -4 -5 12 0 17 2 24 5 18 2 -7 2 -21 0
-30z m10 -45 c-3 -8 -6 -5 -6 6 -1 11 2 17 5 13 3 -3 4 -12 1 -19z m10 -50
c-3 -8 -6 -5 -6 6 -1 11 2 17 5 13 3 -3 4 -12 1 -19z m10 -40 c-3 -8 -6 -5 -6
6 -1 11 2 17 5 13 3 -3 4 -12 1 -19z m-429 -125 c-16 -2 -40 -2 -55 0 -16 2
-3 4 27 4 30 0 43 -2 28 -4z m140 -10 c-21 -2 -55 -2 -75 0 -21 2 -4 4 37 4
41 0 58 -2 38 -4z m660 -170 c-15 -2 -42 -2 -60 0 -18 2 -6 4 27 4 33 0 48 -2
33 -4z m-181 -9 c-3 -3 -12 -4 -19 -1 -8 3 -5 6 6 6 11 1 17 -2 13 -5z m216
-1261 c-7 -2 -19 -2 -25 0 -7 3 -2 5 12 5 14 0 19 -2 13 -5z m85 -10 c-10 -2
-28 -2 -40 0 -13 2 -5 4 17 4 22 1 32 -1 23 -4z m349 1 c-3 -3 -12 -4 -19 -1
-8 3 -5 6 6 6 11 1 17 -2 13 -5z m-190 -11 c-20 -2 -52 -2 -70 0 -17 2 0 4 38
4 39 0 53 -2 32 -4z m14 -890 c13 -16 12 -17 -3 -4 -10 7 -18 15 -18 17 0 8 8
3 21 -13z m381 -458 c72 -150 107 -239 178 -455 48 -148 99 -289 114 -314 39
-68 70 -79 187 -74 l98 5 31 -86 c64 -172 127 -259 253 -354 39 -29 196 -139
347 -242 257 -177 508 -369 798 -612 68 -56 129 -106 137 -111 12 -6 11 -17
-10 -67 -40 -97 -32 -151 37 -258 l31 -48 -12 -88 c-6 -48 -11 -112 -11 -142
0 -46 -4 -60 -24 -78 -13 -12 -38 -51 -56 -86 -29 -56 -32 -71 -28 -125 3 -41
11 -69 26 -90 12 -16 22 -32 22 -35 0 -3 -42 -4 -92 -1 -51 3 -277 8 -503 11
-225 3 -612 8 -860 12 -749 11 -1837 9 -2448 -6 -318 -8 -580 -11 -583 -9 -3
3 11 15 30 26 42 25 79 94 103 189 24 101 24 410 -1 565 l-19 118 38 100 c46
123 210 426 309 569 134 196 193 323 221 477 8 49 27 143 42 209 26 117 28
122 93 210 37 50 73 100 80 111 13 21 16 19 84 -50 39 -39 93 -83 119 -96 53
-26 127 -32 164 -12 12 7 55 52 95 100 77 93 896 922 911 922 4 0 49 -83 99
-185z m-2427 -3245 c4 -6 -32 -10 -102 -10 -73 0 -103 3 -93 10 20 13 187 13
195 0z"/>
</g>
</svg>
