<?xml version="1.0" standalone="no"?>
<!DOCTYPE svg PUBLIC "-//W3C//DTD SVG 20010904//EN"
 "http://www.w3.org/TR/2001/REC-SVG-20010904/DTD/svg10.dtd">
<svg version="1.0" xmlns="http://www.w3.org/2000/svg"
 width="1024.000000pt" height="1536.000000pt" viewBox="0 0 1024.000000 1536.000000"
 preserveAspectRatio="xMidYMid meet">
<metadata>
Created by potrace 1.16, written by Peter Selinger 2001-2019
</metadata>
<g transform="translate(0.000000,1536.000000) scale(0.100000,-0.100000)"
fill="#000000" stroke="none">
<path d="M4435 12920 c-514 -38 -970 -336 -1185 -773 -68 -139 -83 -214 -84
-422 0 -151 3 -197 22 -287 49 -227 124 -398 189 -430 20 -10 29 -26 39 -68
21 -85 99 -231 159 -297 31 -35 78 -72 113 -91 70 -38 74 -42 91 -107 6 -27
14 -51 16 -53 5 -5 87 52 130 89 l32 29 7 -79 c7 -90 16 -161 21 -177 9 -28 4
-29 -710 -218 -463 -122 -591 -156 -673 -176 -52 -12 -83 -27 -105 -47 -24
-22 -49 -33 -96 -41 -36 -6 -66 -10 -67 -9 -8 9 -194 389 -230 470 -69 154
-141 339 -163 422 -20 72 -20 74 -2 128 46 133 71 336 71 576 0 197 -14 309
-47 384 -54 121 -181 184 -285 142 -11 -4 -21 2 -34 24 -10 17 -37 41 -61 53
-41 22 -44 22 -70 6 -16 -9 -39 -35 -53 -57 -20 -32 -43 -49 -108 -82 -95 -48
-167 -119 -204 -200 -19 -42 -29 -51 -60 -60 -20 -5 -51 -23 -67 -40 -51 -51
-39 -113 38 -182 21 -19 49 -57 61 -83 11 -27 28 -56 36 -65 12 -13 17 -45 19
-126 1 -62 10 -136 20 -175 26 -100 89 -204 157 -258 l56 -45 32 -160 c45
-229 127 -581 166 -716 42 -145 146 -426 187 -502 45 -86 98 -123 242 -170
122 -40 218 -58 353 -64 l123 -6 44 -67 c35 -53 54 -71 87 -85 67 -27 268 -38
565 -31 l272 5 10 -37 c6 -20 35 -134 65 -252 57 -227 98 -365 167 -569 l43
-125 -13 -80 c-31 -199 -25 -262 30 -329 34 -41 84 -66 148 -76 45 -6 46 -7
49 -44 2 -21 -2 -70 -8 -108 -9 -59 -16 -76 -44 -104 -39 -39 -56 -111 -56
-238 0 -74 -1 -77 -29 -91 -60 -32 -95 -88 -115 -187 -3 -14 -35 -66 -71 -115
-36 -49 -124 -168 -195 -264 -71 -96 -193 -263 -272 -370 -78 -107 -215 -296
-306 -420 -90 -124 -167 -230 -170 -236 -4 -6 -30 -23 -58 -37 -78 -39 -111
-72 -129 -128 -15 -43 -26 -57 -77 -92 -268 -188 -379 -298 -538 -531 -104
-154 -247 -349 -509 -694 -68 -89 -98 -122 -114 -122 -70 -1 -151 -73 -198
-176 -24 -53 -49 -81 -176 -200 -428 -400 -506 -500 -520 -669 -10 -120 31
-191 139 -241 l63 -28 -40 -7 c-22 -5 -74 -8 -116 -8 -42 -1 -91 -6 -110 -13
l-34 -12 30 -9 c75 -23 4539 -40 7370 -28 l880 3 95 -22 c75 -18 103 -30 133
-57 45 -40 84 -43 125 -8 28 23 38 25 131 25 97 0 103 -1 143 -30 53 -39 83
-38 164 5 76 41 91 42 144 15 l39 -20 63 36 c81 47 95 59 130 113 23 37 28 56
28 105 0 121 -65 204 -215 276 -342 163 -427 206 -522 263 -124 75 -133 83
-158 152 -45 121 -122 202 -221 231 l-52 15 -62 167 c-34 92 -89 250 -122 352
-33 102 -68 209 -78 238 -16 48 -17 57 -4 87 18 44 18 106 0 176 -15 57 -131
321 -284 644 -49 105 -120 262 -157 350 -37 88 -80 185 -95 215 -114 225 -919
1082 -1283 1366 -18 15 -27 31 -27 51 0 62 -30 122 -85 169 -48 42 -54 52 -65
106 -17 88 -59 200 -149 398 l-79 175 30 34 c50 56 70 116 66 192 -3 56 -12
83 -55 170 -48 96 -54 117 -78 261 -48 297 -125 951 -112 964 2 3 157 12 343
20 259 12 344 19 362 30 31 20 70 84 112 186 20 49 40 91 43 95 10 9 359 5
385 -4 38 -14 293 -234 457 -394 88 -86 184 -177 213 -203 44 -38 50 -47 35
-52 -79 -26 -93 -40 -93 -93 0 -27 -9 -36 -69 -76 -39 -26 -108 -87 -158 -142
-109 -119 -195 -205 -397 -402 -238 -233 -294 -325 -283 -465 8 -86 40 -138
109 -174 l47 -24 -6 -67 c-5 -55 -2 -74 15 -108 23 -45 67 -77 122 -88 19 -4
59 -21 89 -36 30 -16 67 -29 83 -29 18 0 45 -12 67 -29 61 -48 102 -64 176
-69 78 -5 207 24 254 57 14 10 51 26 81 36 126 41 236 112 364 235 101 97 244
282 298 385 45 88 88 223 88 278 0 24 7 53 18 67 27 40 24 272 -7 410 -29 131
-41 154 -98 190 -38 24 -53 44 -84 107 -21 43 -75 140 -121 215 -46 75 -103
170 -127 210 -82 136 -284 442 -345 523 -190 253 -324 362 -527 429 -131 42
-445 100 -585 108 -27 1 -40 6 -38 13 15 37 -107 58 -420 74 -414 21 -794 6
-905 -37 -8 -3 2 16 22 42 102 133 123 324 58 513 l-32 93 17 142 c10 93 15
188 12 271 l-5 128 58 -57 c32 -32 61 -55 64 -52 21 20 45 126 45 196 0 69 2
78 19 79 62 5 255 107 340 180 86 74 98 145 34 205 -56 52 -235 86 -506 95
l-178 6 -14 33 c-21 51 -100 169 -146 219 -103 112 -292 217 -454 253 -109 24
-227 31 -360 22z m1005 -7165 c93 -43 250 -129 460 -250 74 -43 234 -136 356
-205 121 -70 240 -140 265 -156 24 -16 93 -58 153 -94 l109 -65 17 -61 c21
-78 44 -109 105 -142 l50 -27 70 -210 c91 -274 210 -565 260 -640 46 -68 103
-108 185 -128 l55 -14 132 -214 c73 -118 169 -279 214 -359 45 -80 93 -163
107 -184 l24 -39 -26 -76 c-63 -185 -84 -466 -40 -541 24 -42 68 -73 129 -91
68 -20 55 -33 -27 -26 -195 16 -2877 29 -4768 22 -1114 -4 -2049 -8 -2079 -10
l-54 -3 79 38 c120 59 180 113 295 266 173 231 289 449 289 545 0 37 14 65 49
96 45 40 432 336 521 398 81 57 88 60 163 66 121 11 169 39 317 188 69 69 172
179 229 244 65 74 119 126 145 139 98 49 183 116 356 279 216 203 389 354 855
743 366 306 570 460 692 522 64 33 73 35 148 32 68 -3 93 -10 165 -43z"/>
</g>
</svg>
