<?xml version="1.0" standalone="no"?>
<!DOCTYPE svg PUBLIC "-//W3C//DTD SVG 20010904//EN"
 "http://www.w3.org/TR/2001/REC-SVG-20010904/DTD/svg10.dtd">
<svg version="1.0" xmlns="http://www.w3.org/2000/svg"
 width="1024.000000pt" height="1536.000000pt" viewBox="0 0 1024.000000 1536.000000"
 preserveAspectRatio="xMidYMid meet">
<metadata>
Created by potrace 1.16, written by Peter Selinger 2001-2019
</metadata>
<g transform="translate(0.000000,1536.000000) scale(0.100000,-0.100000)"
fill="#000000" stroke="none">
<path d="M5643 13695 c-49 -21 -143 -88 -206 -145 -72 -66 -119 -131 -182
-249 l-50 -96 -100 -7 c-111 -7 -189 -31 -270 -83 -53 -34 -151 -132 -141
-142 3 -3 35 0 71 7 67 13 95 7 60 -12 -39 -23 -105 -91 -153 -161 -60 -88
-88 -141 -118 -229 -23 -69 -59 -258 -52 -278 2 -6 34 28 71 75 38 48 70 85
72 83 2 -2 -11 -51 -30 -109 -43 -133 -59 -256 -51 -380 7 -106 35 -234 51
-234 6 0 14 21 19 48 10 50 26 64 26 23 0 -34 62 -222 95 -287 35 -70 108
-182 153 -238 32 -40 37 -42 48 -26 12 16 15 15 41 -16 61 -73 145 -158 182
-184 24 -16 38 -32 35 -40 -3 -8 -20 -78 -38 -157 l-33 -143 -59 3 c-93 5
-432 -49 -739 -118 -453 -102 -587 -141 -719 -207 -90 -45 -120 -68 -150 -114
-20 -30 -34 -39 -78 -49 -238 -57 -414 -154 -509 -280 -109 -146 -150 -275
-194 -622 -8 -62 -25 -184 -39 -271 -14 -87 -32 -227 -41 -310 -23 -229 -32
-270 -86 -409 -27 -70 -56 -156 -64 -190 -31 -132 -10 -310 46 -387 38 -53
117 -94 164 -85 25 4 40 1 63 -16 38 -28 91 -39 142 -30 31 6 54 3 91 -11 101
-39 247 -13 269 47 7 16 17 24 33 24 76 0 147 149 147 310 0 143 -47 257 -170
414 -40 51 -75 107 -81 129 -16 60 1 137 103 451 87 271 144 414 188 476 27
38 83 62 133 58 37 -3 40 -6 58 -53 24 -66 73 -123 123 -146 54 -25 81 -24
153 6 125 50 352 110 498 129 48 7 28 -4 -55 -29 -135 -41 -179 -94 -180 -215
0 -193 -86 -712 -147 -890 -54 -159 -137 -336 -251 -531 -117 -201 -132 -235
-132 -285 0 -48 27 -104 57 -115 22 -8 23 -10 8 -32 -21 -33 -59 -149 -76
-232 -9 -43 -14 -129 -13 -225 0 -162 8 -199 68 -332 13 -31 14 -38 3 -38 -24
0 -486 -632 -533 -730 -54 -110 -37 -245 40 -319 l34 -33 -33 -62 c-18 -33
-45 -95 -61 -136 -56 -151 -109 -204 -384 -391 -117 -79 -254 -215 -342 -339
-37 -52 -124 -190 -194 -307 -187 -315 -364 -567 -412 -587 -7 -3 -27 1 -44
10 -24 12 -50 15 -103 12 -65 -4 -84 -11 -191 -68 -275 -145 -401 -243 -424
-329 -17 -64 2 -142 95 -379 84 -213 141 -391 195 -610 52 -212 119 -346 231
-466 118 -126 261 -215 409 -252 130 -33 256 1 315 85 27 38 30 51 30 115 0
69 -3 79 -62 199 -80 161 -113 259 -126 377 -13 121 3 227 69 436 75 241 88
331 59 387 -15 28 -14 29 69 125 131 153 435 444 621 597 94 77 231 193 305
258 74 66 212 180 305 255 107 85 236 202 346 313 l175 177 47 -5 c40 -5 53
-1 87 22 45 31 171 194 294 381 113 171 124 185 218 281 l80 83 62 -37 c118
-71 282 -180 456 -303 96 -68 194 -132 218 -142 84 -38 145 -21 287 78 l67 47
65 -64 c35 -35 73 -76 84 -91 l20 -27 -96 -140 c-181 -265 -274 -444 -408
-781 -48 -121 -136 -316 -203 -447 l-118 -233 -41 0 c-91 -1 -153 -54 -290
-249 -41 -58 -110 -152 -154 -209 -136 -175 -154 -237 -102 -344 40 -83 58
-100 488 -465 66 -57 167 -143 224 -193 292 -255 629 -403 881 -387 133 9 215
54 257 140 58 120 -5 259 -217 479 -66 68 -129 142 -140 164 -27 53 -106 267
-121 329 -7 28 -21 95 -31 150 -30 161 -49 232 -76 288 l-26 52 96 158 c100
165 164 260 276 412 36 50 136 191 221 315 86 124 205 290 265 370 209 278
316 462 359 620 27 96 25 226 -4 320 -47 153 -102 235 -294 440 -69 74 -143
162 -165 195 -53 83 -335 339 -647 589 -77 62 -176 146 -220 187 -44 41 -103
95 -132 121 -44 41 -49 48 -32 53 24 8 54 66 74 141 8 32 20 139 25 238 6 100
15 210 21 245 11 68 73 232 171 446 123 267 297 745 317 870 5 33 25 123 44
200 19 77 39 163 43 190 5 30 9 41 11 28 6 -32 -32 -234 -63 -338 -33 -111
-38 -138 -30 -168 5 -23 214 -220 274 -259 34 -22 66 -23 102 -2 27 17 28 16
86 -28 76 -59 155 -129 278 -244 106 -101 163 -135 235 -142 120 -11 312 120
498 341 103 124 335 474 412 625 17 32 27 39 81 55 120 35 228 177 257 342 45
254 -83 563 -273 656 -57 29 -71 31 -129 27 -96 -8 -188 -72 -267 -185 -18
-28 -37 -43 -50 -43 -33 0 -81 -43 -113 -101 -26 -47 -30 -64 -30 -134 0 -76
3 -86 53 -190 57 -121 61 -149 32 -212 -21 -47 -63 -91 -195 -207 -138 -121
-210 -169 -233 -157 -26 14 -152 149 -152 163 0 6 8 20 18 31 11 13 17 35 17
67 0 55 -35 113 -175 285 -85 104 -120 151 -245 323 -143 196 -311 347 -481
433 -71 36 -86 40 -123 34 -22 -4 -41 -7 -42 -8 0 -1 -7 -36 -14 -77 l-14 -75
4 110 c3 61 12 158 21 217 l16 107 92 -33 c50 -19 118 -46 150 -60 135 -60
220 -67 300 -23 43 24 217 220 245 276 10 20 26 60 36 89 15 46 25 58 69 87
84 54 116 104 116 183 0 39 5 53 24 71 59 55 73 143 32 203 -12 19 -42 52 -66
74 -42 39 -43 42 -48 115 -5 92 11 159 79 328 81 201 112 368 90 485 -6 33 -9
61 -7 64 13 13 117 -62 177 -127 l69 -75 0 75 c0 171 -82 381 -208 537 -19 23
-33 45 -30 47 9 10 112 25 130 19 38 -12 5 27 -71 82 -113 83 -251 161 -386
220 -112 48 -323 122 -362 126 -10 1 29 4 87 8 l105 5 -37 17 c-65 31 -208 68
-306 79 -134 16 -386 6 -482 -20 -81 -21 -189 -59 -239 -85 -29 -15 -31 -15
-31 0 0 45 60 238 88 282 13 21 13 22 -9 22 -13 -1 -38 -7 -56 -15z m-1413
-6436 c311 -98 710 -191 960 -224 185 -24 167 -32 -35 -15 -369 31 -749 123
-960 233 -61 32 -51 33 35 6z m-140 -1080 c52 -41 142 -109 200 -149 58 -41
159 -115 225 -165 66 -51 143 -107 172 -125 29 -19 51 -36 49 -37 -5 -5 -113
58 -196 114 -41 28 -134 97 -206 154 -72 57 -178 140 -235 184 -107 82 -303
265 -321 300 -6 11 40 -29 103 -90 63 -60 157 -144 209 -186z"/>
</g>
</svg>
