<?xml version="1.0" standalone="no"?>
<!DOCTYPE svg PUBLIC "-//W3C//DTD SVG 20010904//EN"
 "http://www.w3.org/TR/2001/REC-SVG-20010904/DTD/svg10.dtd">
<svg version="1.0" xmlns="http://www.w3.org/2000/svg"
 width="1024.000000pt" height="1536.000000pt" viewBox="0 0 1024.000000 1536.000000"
 preserveAspectRatio="xMidYMid meet">
<metadata>
Created by potrace 1.16, written by Peter Selinger 2001-2019
</metadata>
<g transform="translate(0.000000,1536.000000) scale(0.100000,-0.100000)"
fill="#000000" stroke="none">
<path d="M4450 14589 c-315 -39 -550 -220 -644 -497 -77 -227 -54 -515 56
-699 49 -82 157 -193 229 -235 34 -21 66 -39 71 -40 4 -2 -8 -41 -27 -88 -19
-47 -35 -101 -35 -121 0 -88 -63 -226 -235 -514 -148 -248 -185 -319 -256
-486 -160 -381 -189 -471 -189 -598 0 -130 69 -262 245 -466 48 -55 140 -163
204 -240 168 -200 274 -290 445 -376 79 -40 116 -64 128 -85 10 -18 25 -90 37
-189 11 -88 30 -196 42 -240 19 -68 22 -109 24 -270 1 -169 6 -219 43 -460 24
-148 47 -322 52 -386 l9 -115 -49 -117 c-53 -126 -80 -216 -80 -268 0 -41 27
-103 64 -146 l27 -32 -23 -68 -24 -68 -71 -12 c-136 -22 -156 -48 -198 -253
-14 -69 -29 -134 -34 -146 -5 -12 -26 -25 -49 -32 -76 -23 -134 -116 -163
-263 -14 -65 -112 -273 -181 -379 -106 -164 -208 -331 -231 -375 -34 -68 -57
-150 -57 -202 0 -23 -11 -82 -25 -130 -40 -138 -96 -448 -102 -563 -3 -58 -1
-136 5 -174 22 -138 135 -319 300 -478 123 -118 187 -167 338 -256 194 -114
217 -141 196 -234 -26 -111 -8 -196 57 -270 30 -34 31 -39 31 -126 0 -99 -24
-249 -66 -417 -25 -98 -28 -128 -29 -280 0 -157 2 -174 23 -220 42 -91 91
-125 180 -125 215 0 435 202 512 470 26 89 37 301 22 425 l-9 80 31 37 c57 66
134 208 168 307 27 81 32 111 33 191 0 80 -4 102 -22 137 -28 52 -86 87 -168
102 -33 7 -69 14 -81 16 -11 3 -54 27 -95 55 -40 27 -102 59 -136 71 -99 33
-101 36 -139 202 -41 177 -90 283 -170 367 l-54 57 14 40 c19 54 53 120 66
128 6 4 34 -2 63 -13 78 -31 161 -52 202 -52 56 0 87 37 114 140 13 47 30 99
39 115 17 34 92 135 182 245 33 41 73 94 88 117 15 24 29 43 32 43 3 0 2 -188
-1 -417 -4 -255 -3 -434 3 -458 13 -54 53 -104 99 -125 l39 -17 4 -184 c4
-212 14 -274 88 -529 28 -96 59 -214 69 -263 26 -121 48 -194 75 -249 19 -37
26 -74 34 -185 17 -212 25 -261 59 -358 18 -49 41 -124 51 -165 10 -41 32
-128 48 -192 43 -167 56 -280 56 -468 -1 -153 -3 -170 -27 -231 -22 -57 -26
-87 -32 -215 -3 -82 -10 -178 -15 -214 -26 -182 -44 -266 -81 -380 -53 -163
-66 -263 -51 -376 13 -98 43 -170 97 -232 104 -119 229 -137 393 -56 138 68
236 186 288 349 32 101 43 298 25 443 -7 53 -13 214 -14 357 -2 233 -5 267
-24 330 -50 165 -48 332 6 640 61 345 71 419 71 548 0 210 -46 379 -177 645
-126 257 -124 343 19 769 l71 213 31 0 c17 0 49 9 72 19 70 32 76 61 68 330
-7 250 -1 322 47 560 26 125 29 162 28 290 -2 80 3 188 11 238 9 66 11 160 7
330 -7 325 -29 442 -109 593 -48 91 -74 196 -54 220 19 22 54 93 83 169 26 69
58 258 93 556 14 114 121 488 193 670 94 241 122 355 132 542 3 61 17 164 31
230 41 191 54 283 54 373 0 111 -16 238 -39 320 -11 36 -24 123 -31 193 -15
174 -45 272 -139 452 -43 83 -90 189 -104 237 -90 291 -308 609 -608 888 -229
213 -412 401 -482 494 -37 49 -67 93 -67 98 0 5 13 34 29 66 62 123 67 289 13
447 -70 208 -142 405 -154 424 -19 31 -41 35 -60 11 -14 -18 -18 -41 -18 -111
0 -50 -4 -89 -10 -89 -13 0 -45 109 -64 221 -24 142 -52 233 -102 338 -59 122
-172 240 -281 295 -138 69 -306 96 -473 75z m830 -1136 c0 -54 -3 -73 -10 -63
-13 20 -13 140 0 140 6 0 10 -32 10 -77z m-92 -245 c14 -16 13 -27 -8 -109
-34 -136 -27 -242 23 -341 20 -40 65 -111 99 -158 34 -47 115 -186 181 -310
65 -124 134 -246 152 -271 18 -26 40 -60 49 -76 l15 -30 -76 -11 c-95 -15
-164 -52 -208 -111 -35 -49 -75 -153 -75 -197 0 -14 -15 -47 -34 -73 -57 -79
-68 -137 -39 -198 15 -33 15 -37 -8 -101 -21 -60 -24 -83 -23 -212 1 -162 15
-238 64 -346 16 -37 30 -68 30 -70 0 -7 -35 -4 -71 6 -29 8 -49 26 -93 85 -68
90 -160 169 -241 206 -33 15 -112 37 -175 50 -63 12 -131 29 -150 37 -20 8
-88 68 -160 141 -128 130 -193 175 -287 200 -48 13 -53 28 -29 85 21 51 44
166 61 311 25 215 75 383 187 630 28 61 67 157 87 215 45 126 79 166 191 224
225 116 382 266 471 449 l23 47 14 -27 c8 -16 21 -36 30 -45z m995 -2461 c1
-73 -2 -110 -10 -118 -7 -7 -15 -11 -17 -8 -3 3 -2 60 1 127 3 69 10 119 15
114 4 -4 9 -56 11 -115z"/>
</g>
</svg>
