<?xml version="1.0" standalone="no"?>
<!DOCTYPE svg PUBLIC "-//W3C//DTD SVG 20010904//EN"
 "http://www.w3.org/TR/2001/REC-SVG-20010904/DTD/svg10.dtd">
<svg version="1.0" xmlns="http://www.w3.org/2000/svg"
 width="1024.000000pt" height="1024.000000pt" viewBox="0 0 1024.000000 1024.000000"
 preserveAspectRatio="xMidYMid meet">
<metadata>
Created by potrace 1.16, written by Peter Selinger 2001-2019
</metadata>
<g transform="translate(0.000000,1024.000000) scale(0.100000,-0.100000)"
fill="#000000" stroke="none">
<path d="M5140 10154 c-265 -14 -628 -72 -806 -129 -60 -19 -126 -35 -146 -35
-32 0 -51 -11 -128 -76 -50 -42 -96 -86 -102 -97 -8 -13 -15 -90 -19 -192 -8
-205 -16 -234 -105 -380 -37 -60 -101 -168 -141 -240 -41 -71 -103 -177 -138
-235 -123 -205 -166 -314 -205 -515 -29 -149 -64 -276 -104 -382 -19 -48 -44
-140 -56 -203 -28 -151 -20 -133 -103 -243 -122 -161 -196 -313 -218 -445 -10
-59 -8 -82 11 -177 30 -153 36 -303 16 -443 -20 -142 -20 -290 -1 -384 49
-232 73 -579 46 -675 -6 -23 -36 -111 -67 -195 -30 -84 -60 -176 -65 -204 -14
-73 9 -134 73 -200 l50 -52 -30 -53 c-112 -197 -123 -240 -124 -479 -1 -243
33 -378 132 -519 22 -31 45 -73 50 -92 6 -18 10 -122 10 -230 0 -149 4 -208
16 -249 20 -66 54 -121 92 -149 37 -26 172 -91 189 -91 33 0 6 -21 -59 -46
-103 -38 -150 -68 -205 -128 -83 -91 -135 -223 -197 -505 -27 -125 -44 -179
-73 -232 -30 -55 -42 -69 -61 -69 -17 0 -56 -33 -140 -121 -198 -204 -212
-238 -212 -497 0 -126 -6 -211 -21 -310 -27 -175 -23 -290 13 -380 61 -149
173 -286 273 -333 145 -69 338 -10 407 125 29 56 34 139 15 248 -35 203 -39
407 -9 503 24 77 105 250 137 292 48 63 52 86 27 146 l-22 50 45 61 c86 120
219 255 340 347 153 116 185 146 250 244 62 93 115 145 205 206 84 56 107 81
141 156 15 35 47 90 69 124 23 33 53 86 68 117 51 112 39 270 -34 471 -57 153
-60 144 38 109 97 -35 362 -104 567 -148 178 -39 289 -77 408 -141 54 -29 105
-49 123 -49 39 0 146 55 221 114 44 34 63 59 90 115 28 60 37 71 54 67 11 -3
68 -8 127 -12 144 -9 140 -5 189 -226 45 -205 68 -284 115 -386 62 -136 134
-230 277 -366 74 -69 159 -161 189 -203 70 -97 212 -324 263 -420 l39 -73 -17
-35 c-23 -49 -21 -95 7 -168 24 -64 68 -278 86 -427 23 -182 55 -239 147 -266
138 -40 343 28 519 171 139 114 197 152 286 187 248 99 480 328 559 553 30 85
24 178 -14 229 -48 62 -70 71 -172 71 -84 0 -101 -4 -269 -63 -217 -75 -315
-97 -403 -88 -91 9 -110 21 -119 70 -12 75 -51 105 -156 121 l-46 7 -45 96
c-73 154 -141 319 -212 508 -112 299 -182 452 -295 649 -116 201 -157 295
-174 392 -25 146 -61 236 -113 285 -15 14 -82 47 -148 73 -166 65 -231 101
-273 153 -43 53 -85 75 -267 140 -208 74 -394 130 -514 153 -148 29 -198 44
-232 73 -39 33 -88 46 -176 46 l-71 0 -36 50 c-38 53 -53 62 -123 80 -24 6
-43 13 -43 15 0 3 14 37 32 76 l32 72 -18 51 c-9 28 -40 88 -67 133 -69 116
-70 122 -14 229 127 239 156 302 193 416 42 127 77 292 88 413 8 92 32 131
158 264 155 163 290 377 423 671 41 91 114 239 163 330 86 161 89 170 116 305
22 111 28 180 33 335 l6 195 27 9 c33 12 57 -6 95 -71 14 -24 30 -43 37 -43 7
0 31 20 53 45 47 53 63 56 63 15 0 -26 4 -30 28 -30 l27 0 2 98 c1 59 12 144
27 217 14 66 35 164 46 219 12 54 29 115 39 135 10 20 24 61 30 91 7 30 20 69
29 86 9 17 27 50 39 72 13 23 39 54 58 69 34 27 137 147 254 296 35 45 69 76
100 92 88 44 121 97 121 192 0 68 -20 104 -98 173 -132 118 -481 216 -941 265
-139 15 -515 26 -651 19z m324 -286 c-20 -46 -57 -136 -82 -200 -34 -86 -52
-118 -64 -118 -9 0 -28 -12 -41 -26 -14 -14 -27 -22 -29 -18 -3 5 -25 68 -48
139 -24 72 -56 163 -71 203 -16 40 -29 77 -29 82 0 13 45 17 232 18 l167 2
-35 -82z m190 50 c3 -13 12 -66 20 -118 9 -52 29 -149 45 -215 16 -66 29 -120
28 -121 -1 -1 -19 -4 -39 -7 -35 -5 -38 -4 -38 18 0 45 -53 65 -212 81 -32 4
-58 9 -58 13 0 13 107 287 129 329 21 41 23 42 71 42 43 0 50 -3 54 -22z m207
2 c182 -24 259 -39 259 -49 0 -11 -92 -155 -178 -280 -74 -108 -103 -137 -127
-127 -19 7 -50 113 -86 291 -16 83 -32 158 -35 168 -7 21 -18 21 167 -3z
m-732 -207 c39 -120 71 -223 71 -229 0 -7 -32 -7 -107 2 -159 20 -166 22 -158
47 3 12 9 101 11 197 3 96 7 181 9 188 3 7 23 12 53 12 l49 0 72 -217z m-233
40 c-3 -93 -9 -183 -12 -200 -7 -34 -8 -35 -75 -17 -10 3 -27 40 -47 107 -59
192 -71 242 -64 249 8 8 116 25 171 27 l34 1 -7 -167z m-240 70 c9 -32 29
-103 44 -158 16 -54 27 -101 25 -104 -7 -6 -147 47 -170 65 -16 12 -21 32 -27
117 -4 56 -3 106 2 111 8 8 62 23 92 25 13 1 22 -14 34 -56z m1600 22 c29 -12
34 -18 29 -37 -3 -13 -18 -81 -34 -152 -24 -111 -31 -130 -50 -137 -30 -12
-250 -43 -257 -37 -2 3 48 89 112 192 128 203 127 202 200 171z m-1781 -16
c11 -17 -1 -21 -15 -4 -8 9 -8 15 -2 15 6 0 14 -5 17 -11z m2034 -50 l70 -31
-39 -58 c-22 -32 -53 -68 -68 -79 -29 -20 -181 -76 -188 -68 -5 5 43 225 57
256 9 21 14 23 54 18 24 -4 75 -21 114 -38z m-1936 -370 c90 -27 102 -40 142
-160 45 -131 32 -144 -50 -46 -33 40 -94 110 -134 156 -46 51 -67 82 -55 79
10 -3 54 -16 97 -29z m-81 -86 c215 -246 230 -271 248 -423 5 -36 13 -77 18
-91 6 -15 13 -80 16 -146 3 -66 8 -127 11 -136 8 -18 -18 -199 -40 -282 -16
-63 -15 -70 14 -78 25 -6 37 8 45 57 8 44 23 38 42 -17 9 -28 16 -32 52 -35
33 -3 45 1 62 21 12 14 39 33 60 42 44 20 38 22 153 -57 l55 -38 -15 -41 c-36
-107 -44 -179 -32 -291 6 -59 8 -119 5 -133 -4 -15 -57 -79 -118 -143 -166
-173 -223 -272 -268 -464 -26 -110 -49 -153 -88 -161 -15 -3 -57 -33 -94 -65
-91 -81 -137 -116 -145 -108 -4 3 3 16 14 29 35 37 143 207 184 289 50 100 90
202 119 306 23 83 24 84 53 79 36 -5 42 9 22 56 -22 52 -20 65 10 59 60 -11 5
77 -73 117 -64 33 -65 80 -2 118 63 37 37 59 -144 123 -65 23 -124 44 -132 47
-23 8 -16 30 16 53 69 49 12 53 -123 10 -94 -30 -135 -35 -172 -21 -19 8 -19
8 0 24 11 9 29 23 39 30 21 15 14 37 -11 37 -24 0 -190 -86 -246 -127 -102
-75 -169 -212 -217 -443 -57 -271 -55 -254 -37 -302 15 -39 15 -50 3 -113 -8
-39 -16 -81 -18 -95 -2 -21 -10 -13 -47 50 -59 103 -61 125 -17 256 19 60 45
168 56 239 11 72 29 162 40 200 10 39 31 131 45 205 28 147 26 140 107 285 63
111 110 242 128 355 49 315 107 548 166 667 36 72 118 163 148 163 8 0 57 -48
108 -107z m2051 93 c-15 -28 -132 -171 -162 -200 -25 -24 -33 -27 -45 -17 -14
11 -14 16 -1 40 8 16 19 50 26 76 7 28 19 49 28 52 9 2 48 17 86 33 39 16 71
29 73 29 2 1 -1 -5 -5 -13z m-1747 -92 c13 -3 24 -12 24 -19 0 -24 -23 -115
-29 -115 -3 0 -14 26 -23 58 -9 32 -20 66 -24 77 -6 15 -4 17 10 12 10 -4 29
-10 42 -13z m1504 6 c0 -19 -52 -140 -60 -140 -5 0 -11 23 -15 52 -7 48 -5 54
19 75 28 24 56 30 56 13z m-1185 -47 c42 -3 77 -9 79 -12 4 -6 -50 -132 -67
-158 -5 -7 -14 -13 -20 -13 -12 0 -147 181 -147 196 0 4 18 4 40 0 22 -3 74
-9 115 -13z m1019 5 c-20 -34 -167 -198 -178 -198 -11 0 -53 167 -44 175 4 4
181 32 211 34 12 1 16 -3 11 -11z m-1147 -140 c45 -66 46 -69 35 -107 -7 -21
-12 -52 -12 -68 0 -26 -43 -85 -53 -72 -2 2 -22 29 -44 59 -52 71 -62 140 -36
243 l18 68 22 -28 c13 -15 44 -58 70 -95z m693 75 c-1 -42 -17 -83 -32 -83
-14 0 -16 75 -2 101 21 42 34 35 34 -18z m-380 -3 c68 -36 92 -239 37 -314
-12 -17 -16 -17 -43 -3 -50 26 -80 68 -94 131 -12 58 -12 61 21 128 33 68 44
77 79 58z m521 -17 c21 -56 41 -164 35 -189 -4 -14 -30 -51 -59 -81 l-52 -55
-5 28 c-4 22 -11 30 -32 32 -24 3 -27 8 -33 55 -6 48 -4 57 29 107 94 146 99
150 117 103z m339 -106 c-44 -105 -54 -118 -113 -168 -45 -37 -62 -47 -68 -37
-15 23 -10 47 21 90 17 22 30 50 30 61 0 10 30 55 67 99 l68 80 9 -36 c6 -29
4 -48 -14 -89z m-1361 -165 c0 -24 -1 -25 -9 -7 -12 28 -12 47 0 40 6 -3 10
-18 9 -33z m1367 -4 c-4 -13 -12 -48 -18 -78 -12 -64 -46 -171 -59 -184 -10
-11 -59 88 -59 120 0 21 115 164 132 164 6 0 8 -10 4 -22z m-1290 -21 c5 -12
21 -41 34 -64 l25 -42 -28 -57 c-16 -32 -32 -53 -37 -48 -21 23 -37 162 -24
212 8 28 16 28 30 -1z m321 -13 c28 -21 33 -31 33 -67 0 -39 -6 -48 -57 -99
-33 -33 -63 -54 -69 -50 -6 4 -23 25 -37 47 -27 40 -32 75 -21 134 6 27 11 31
39 31 18 0 38 7 45 15 17 21 28 19 67 -11z m719 -46 c6 -54 5 -59 -31 -107
-20 -28 -40 -49 -45 -46 -11 7 -40 94 -40 121 0 25 89 109 102 96 4 -4 10 -33
14 -64z m-576 -103 c9 -11 11 -42 7 -113 -5 -83 -9 -99 -27 -114 -35 -28 -55
-22 -104 33 -45 50 -46 52 -29 73 33 41 127 136 134 136 4 0 12 -7 19 -15z
m-320 -66 c0 -8 7 -24 15 -35 22 -29 18 -45 -17 -81 -38 -39 -77 -45 -79 -10
-4 64 5 123 24 154 l20 35 18 -23 c10 -13 19 -31 19 -40z m745 31 c23 -44 18
-81 -16 -136 -38 -58 -42 -52 -53 68 -7 68 -5 77 11 87 29 17 42 13 58 -19z
m215 18 c0 -7 12 -35 25 -63 14 -27 25 -58 25 -68 0 -17 -59 -106 -71 -107 -9
0 -69 134 -69 155 0 19 66 95 82 95 4 0 8 -6 8 -12z m-100 -222 c23 -42 29
-61 24 -83 -10 -40 -29 -66 -63 -86 l-30 -18 -33 37 c-44 48 -50 59 -43 86 7
26 87 118 103 118 6 0 25 -24 42 -54z m-710 -15 l55 -48 -34 -29 c-58 -49 -85
-64 -117 -64 -25 0 -36 8 -58 40 -14 22 -26 44 -26 49 0 13 100 101 114 101 7
0 37 -22 66 -49z m-272 -11 c2 -39 -1 -49 -26 -74 l-30 -28 -7 51 c-5 40 -3
57 10 77 25 39 49 28 53 -26z m1160 -82 c-7 -37 -17 -68 -23 -69 -5 -1 -19 14
-30 33 l-19 36 39 59 c36 52 40 55 43 33 1 -14 -3 -55 -10 -92z m-762 -44
c-10 -51 -47 -144 -58 -144 -5 0 -29 14 -54 31 -29 21 -41 36 -36 45 15 27
114 104 134 104 18 0 19 -4 14 -36z m-321 -13 c15 -22 24 -45 20 -51 -3 -6
-28 -22 -55 -35 l-49 -25 -11 41 c-10 37 -9 43 15 75 14 19 32 34 39 34 7 0
26 -18 41 -39z m989 -33 c21 -30 20 -54 -5 -89 -26 -37 -40 -37 -62 0 -22 38
-22 62 3 89 26 28 45 28 64 0z"/>
<path d="M6723 6290 c-308 -81 -523 -337 -540 -645 -13 -230 79 -450 248 -592
123 -103 268 -161 424 -170 134 -7 231 13 355 73 79 39 109 61 181 133 141
142 207 286 216 481 5 86 2 120 -15 188 -67 266 -265 466 -526 532 -103 26
-244 26 -343 0z"/>
</g>
</svg>
