<?xml version="1.0" standalone="no"?>
<!DOCTYPE svg PUBLIC "-//W3C//DTD SVG 20010904//EN"
 "http://www.w3.org/TR/2001/REC-SVG-20010904/DTD/svg10.dtd">
<svg version="1.0" xmlns="http://www.w3.org/2000/svg"
 width="1024.000000pt" height="1536.000000pt" viewBox="0 0 1024.000000 1536.000000"
 preserveAspectRatio="xMidYMid meet">
<metadata>
Created by potrace 1.16, written by Peter Selinger 2001-2019
</metadata>
<g transform="translate(0.000000,1536.000000) scale(0.100000,-0.100000)"
fill="#000000" stroke="none">
<path d="M2702 14370 c-122 -32 -206 -82 -307 -184 -151 -152 -214 -299 -222
-521 -11 -282 78 -502 295 -735 43 -47 86 -99 95 -115 8 -17 50 -148 92 -290
137 -463 212 -651 351 -876 68 -109 135 -184 236 -260 l78 -60 69 -142 c128
-264 254 -441 468 -657 l144 -145 3 -190 c4 -219 19 -292 105 -529 124 -336
146 -447 116 -582 -25 -119 -122 -439 -157 -519 -39 -91 -35 -147 12 -186 l32
-27 -71 -119 c-38 -65 -99 -158 -135 -208 -200 -277 -238 -404 -218 -727 13
-196 9 -253 -27 -348 -24 -63 -160 -311 -376 -680 -81 -140 -156 -273 -166
-295 -27 -58 -24 -107 7 -144 25 -30 25 -33 14 -84 -26 -108 -74 -245 -121
-345 -58 -120 -71 -131 -262 -229 -328 -167 -519 -391 -593 -697 -19 -75 -43
-141 -79 -210 -69 -134 -296 -526 -349 -601 -45 -64 -55 -68 -113 -44 -37 15
-46 11 -139 -55 -55 -39 -73 -46 -178 -65 -147 -28 -189 -43 -249 -87 -73 -53
-92 -103 -90 -229 1 -81 10 -131 42 -260 46 -178 57 -240 66 -370 28 -407 65
-591 156 -782 46 -96 137 -201 203 -232 76 -37 165 -19 210 42 20 27 21 42 22
245 1 220 14 341 50 472 23 82 119 265 163 310 l38 40 7 -55 c6 -56 32 -164
41 -173 14 -14 17 46 9 193 -10 191 -14 188 90 71 61 -68 118 -108 133 -93 6
6 -71 99 -175 210 -29 31 -52 64 -50 73 2 9 22 24 45 33 52 20 82 47 100 88
12 31 11 37 -22 103 -19 38 -40 70 -45 70 -6 0 -10 5 -10 11 0 12 83 118 200
254 47 55 140 165 207 245 138 166 298 331 463 476 117 103 193 180 333 337
89 98 155 149 307 233 158 87 192 115 315 264 64 76 151 168 198 208 83 70 85
71 120 60 19 -6 50 -8 69 -4 44 8 107 62 132 112 42 82 183 313 241 394 88
121 140 207 160 265 10 28 21 53 25 58 7 8 108 -95 261 -269 159 -179 170
-182 403 -94 73 27 141 50 152 50 18 0 207 -99 228 -120 7 -7 -4 -10 -31 -10
-23 0 -75 -12 -115 -26 -222 -80 -385 -209 -560 -444 -109 -145 -219 -265
-433 -472 -231 -223 -323 -294 -348 -269 -31 31 -92 8 -222 -83 -43 -31 -97
-61 -118 -67 -21 -6 -82 -35 -135 -64 -53 -30 -140 -73 -193 -95 -210 -89
-244 -124 -244 -255 0 -136 52 -266 188 -470 106 -161 121 -192 147 -315 40
-187 70 -283 112 -357 86 -150 332 -404 451 -465 54 -27 133 -28 179 -1 83 48
95 181 34 368 -55 165 -69 272 -62 445 6 135 32 300 48 300 4 0 13 -28 21 -63
9 -41 18 -62 28 -62 11 0 13 18 11 98 -4 112 2 116 58 37 38 -54 50 -61 50
-30 0 25 -23 72 -56 116 -28 36 -29 44 -9 44 25 0 95 -71 121 -121 30 -60 44
-69 44 -29 0 73 -70 155 -176 205 -47 23 -54 29 -54 55 0 17 5 30 12 30 29 0
140 65 173 102 40 43 42 68 15 134 -22 51 -7 74 93 143 352 245 435 296 697
431 440 227 569 303 805 474 44 32 145 97 225 144 217 128 292 216 311 362 10
81 -5 154 -60 283 -21 51 -48 121 -60 157 -30 92 -96 200 -182 300 -54 62 -82
105 -104 160 -48 115 -68 149 -141 235 -219 256 -602 634 -842 831 l-75 61 -1
60 c-2 44 -9 71 -29 105 l-27 46 24 6 c39 10 83 53 100 99 9 23 23 92 32 152
22 156 73 348 155 585 114 327 128 385 141 558 7 83 15 152 19 152 3 0 19 -18
34 -40 72 -103 277 -271 415 -340 120 -59 172 -102 245 -201 160 -215 394
-370 775 -512 553 -207 579 -222 624 -362 35 -109 71 -167 162 -266 99 -108
113 -140 124 -285 12 -161 37 -194 100 -136 46 42 64 129 56 267 l-6 110 222
-222 c201 -199 278 -263 317 -263 6 0 18 11 26 24 22 34 8 63 -104 214 -90
122 -101 147 -39 94 18 -16 40 -33 50 -38 9 -5 59 -48 112 -96 53 -49 105 -88
116 -88 30 0 60 46 53 83 -8 42 -27 63 -163 172 -117 95 -208 183 -179 172 9
-3 70 -37 135 -76 64 -40 129 -74 143 -78 63 -16 104 56 62 109 -11 14 -73 58
-138 98 -111 69 -269 174 -533 355 -63 44 -200 143 -305 220 -104 78 -244 179
-310 225 -121 85 -237 193 -397 371 -100 111 -185 171 -398 284 -239 127 -299
177 -374 313 -80 146 -124 196 -282 323 -81 64 -103 103 -129 224 -26 121 -74
214 -157 301 -91 96 -164 144 -384 251 -278 135 -280 137 -269 259 10 102 7
100 108 84 95 -14 127 -8 167 35 23 24 70 142 70 174 0 10 12 40 26 67 20 37
25 59 22 96 -2 40 0 48 14 48 22 0 58 47 58 77 0 31 -22 72 -55 103 -34 32
-51 64 -59 117 -6 39 -4 43 21 55 58 28 55 94 -6 161 -59 65 -111 177 -81 177
20 0 9 48 -21 93 -40 60 -109 104 -250 160 -133 53 -205 67 -339 67 -115 0
-190 -17 -289 -67 -211 -106 -344 -357 -311 -587 17 -116 47 -191 132 -328 24
-38 27 -51 19 -67 -6 -11 -11 -39 -11 -63 0 -24 -6 -51 -13 -60 -12 -15 -17
-12 -55 31 -83 98 -203 171 -367 227 -64 22 -79 33 -190 143 -66 65 -163 150
-215 188 -52 39 -103 79 -112 90 -9 10 -33 66 -53 123 -55 159 -105 230 -295
425 -92 94 -186 197 -211 230 -51 70 -174 305 -184 352 -12 57 0 71 99 118
241 115 415 327 462 565 20 99 15 249 -11 345 -65 237 -269 441 -500 500 -84
21 -251 19 -343 -5z m2338 -6507 c0 -7 -39 17 -46 28 -3 6 5 3 20 -6 14 -10
26 -19 26 -22z"/>
</g>
</svg>
