<?xml version="1.0" standalone="no"?>
<!DOCTYPE svg PUBLIC "-//W3C//DTD SVG 20010904//EN"
 "http://www.w3.org/TR/2001/REC-SVG-20010904/DTD/svg10.dtd">
<svg version="1.0" xmlns="http://www.w3.org/2000/svg"
 width="1024.000000pt" height="1536.000000pt" viewBox="0 0 1024.000000 1536.000000"
 preserveAspectRatio="xMidYMid meet">
<metadata>
Created by potrace 1.16, written by Peter Selinger 2001-2019
</metadata>
<g transform="translate(0.000000,1536.000000) scale(0.100000,-0.100000)"
fill="#000000" stroke="none">
<path d="M4175 12809 c-33 -5 -73 -18 -88 -30 -21 -15 -37 -19 -59 -15 -69 14
-197 -42 -249 -108 -12 -16 -30 -26 -46 -26 -39 0 -103 -69 -103 -112 0 -28
-10 -44 -60 -93 -64 -64 -82 -106 -61 -151 8 -19 8 -37 0 -69 -13 -51 2 -135
28 -157 13 -11 14 -37 8 -188 -7 -173 -6 -177 18 -236 17 -40 29 -96 37 -174
15 -145 36 -211 93 -297 25 -37 56 -96 70 -129 13 -34 45 -100 69 -148 49 -94
50 -90 -22 -126 -122 -62 -279 -196 -350 -300 -82 -121 -135 -260 -165 -435
-18 -107 -77 -237 -183 -402 -38 -60 -97 -163 -131 -231 -60 -117 -66 -125
-134 -176 -40 -29 -117 -81 -172 -116 -151 -95 -230 -159 -464 -371 -266 -241
-318 -283 -408 -326 -121 -58 -170 -62 -421 -30 -242 30 -321 33 -435 12 -131
-23 -261 -109 -227 -150 12 -14 32 -15 154 -9 78 3 139 4 136 1 -3 -2 -59 -24
-125 -47 -164 -58 -215 -82 -259 -120 -46 -41 -62 -76 -44 -97 10 -12 27 -14
88 -9 67 6 214 32 295 51 18 5 -20 -25 -93 -71 -67 -44 -145 -99 -173 -123
-43 -37 -50 -48 -47 -74 4 -43 40 -56 106 -39 72 19 207 87 283 142 38 28 69
47 69 43 0 -5 -48 -66 -106 -138 -122 -151 -142 -184 -122 -196 24 -16 53 -9
129 30 91 46 154 87 253 164 l75 59 89 -12 c186 -26 278 -2 422 110 171 133
257 182 459 262 117 46 333 149 431 206 79 45 403 263 465 313 76 60 218 206
420 432 188 211 199 226 233 297 19 40 27 50 30 35 2 -11 22 -73 44 -138 53
-153 146 -342 243 -497 90 -145 90 -143 110 -262 16 -90 51 -186 81 -219 13
-14 11 -22 -11 -71 -51 -111 -43 -253 16 -286 16 -9 29 -22 29 -28 0 -15 -28
-38 -72 -58 -56 -27 -92 -86 -98 -164 l-5 -65 -50 -13 c-58 -14 -101 -58 -111
-114 -6 -29 -44 -73 -218 -250 -117 -118 -250 -262 -296 -320 -111 -138 -247
-296 -337 -393 -92 -99 -138 -188 -130 -250 6 -41 3 -47 -61 -134 -180 -244
-215 -294 -254 -372 l-43 -84 0 -116 c0 -112 2 -120 47 -251 55 -157 63 -189
88 -370 10 -74 33 -200 50 -280 63 -295 109 -598 122 -794 l3 -49 -40 -12
c-55 -16 -93 -42 -111 -77 -24 -46 -36 -130 -25 -178 9 -40 8 -44 -19 -67 -16
-13 -53 -61 -84 -106 -109 -164 -205 -233 -410 -298 -204 -64 -316 -132 -362
-221 -22 -42 -30 -154 -15 -201 35 -105 162 -185 355 -222 269 -51 506 -12
821 136 54 25 114 40 260 66 316 56 401 86 446 160 61 99 17 528 -70 690 -25
45 -28 59 -19 71 7 8 12 50 13 105 0 110 -19 155 -75 173 l-35 12 -3 138 c-4
173 17 343 64 535 31 122 37 167 41 294 3 83 0 189 -5 236 -12 98 -69 364 -85
393 -8 16 -4 23 19 40 16 12 71 58 123 103 51 46 101 83 111 83 9 0 41 -15 71
-33 30 -19 92 -57 138 -85 107 -66 177 -92 247 -92 75 0 115 21 178 94 464
534 700 792 775 849 62 47 113 57 176 33 74 -29 123 -106 208 -331 109 -286
254 -607 303 -672 58 -76 125 -80 327 -18 65 20 124 34 132 32 7 -3 36 -44 65
-91 83 -139 157 -231 311 -391 195 -201 206 -219 289 -450 52 -144 85 -194
263 -400 67 -79 129 -167 223 -320 26 -44 63 -101 81 -126 29 -40 32 -51 23
-74 -5 -14 -10 -62 -10 -105 0 -90 35 -218 72 -265 18 -23 24 -51 34 -149 6
-67 17 -173 24 -236 12 -107 11 -122 -9 -217 -27 -129 -28 -259 -3 -341 59
-186 216 -272 500 -272 291 1 440 99 474 313 9 61 8 90 -6 177 -18 106 -106
386 -166 530 -18 41 -45 122 -62 180 -30 108 -43 136 -84 180 -17 18 -28 51
-39 109 -31 164 -62 215 -138 230 -32 7 -32 8 -65 131 -18 69 -48 197 -68 285
-79 356 -112 477 -159 573 -62 129 -134 236 -248 369 -236 275 -305 400 -347
635 -10 53 -9 61 15 107 33 66 32 121 -4 224 -111 310 -306 856 -332 927 -18
47 -60 137 -94 200 -34 63 -83 156 -108 205 -41 83 -44 92 -30 110 10 14 13
35 10 73 -8 72 -35 124 -74 141 -25 11 -33 21 -33 41 0 36 -52 188 -86 249
-14 27 -54 80 -89 118 l-62 68 25 32 c36 49 51 100 52 179 0 84 -15 133 -64
204 -20 29 -36 56 -36 61 0 41 -36 251 -55 319 -40 143 -55 246 -55 373 l0
120 58 -54 c31 -30 113 -97 182 -149 182 -138 319 -278 421 -430 108 -161 200
-252 368 -365 133 -89 168 -118 482 -394 90 -79 190 -165 222 -193 l57 -49 0
-77 c0 -91 21 -194 48 -248 11 -22 44 -61 72 -89 62 -60 71 -76 109 -196 53
-165 116 -245 177 -224 76 27 91 127 50 319 -15 65 -25 121 -23 123 9 8 173
-135 220 -192 29 -35 83 -119 121 -187 120 -214 181 -288 237 -288 43 0 63 37
56 103 -3 29 -9 60 -13 70 -4 11 16 -4 43 -31 41 -41 54 -49 77 -45 37 7 60
45 53 86 -4 26 -26 82 -55 140 -2 4 16 -6 41 -23 50 -33 69 -37 87 -15 19 23
5 48 -120 214 -143 190 -185 233 -348 358 -232 178 -326 256 -436 362 -178
175 -268 293 -397 526 -85 154 -112 194 -313 462 -176 233 -319 374 -507 500
-93 63 -138 112 -259 284 -71 101 -134 173 -252 290 -156 156 -156 156 -221
285 -36 71 -86 157 -112 192 -88 117 -238 218 -417 281 -48 16 -105 39 -127
51 -53 26 -168 58 -426 115 -115 26 -248 60 -294 76 -47 16 -121 33 -165 40
-100 13 -109 18 -135 72 -28 57 -20 94 31 151 75 86 105 202 94 366 -6 87 -4
101 16 146 20 44 23 65 23 199 0 167 -20 275 -60 323 -16 20 -21 37 -18 62 5
42 -24 94 -66 117 -15 9 -32 26 -37 37 -6 15 -20 22 -44 24 -27 2 -39 10 -52
32 -17 30 -64 55 -132 71 -21 5 -52 20 -70 33 -28 22 -44 25 -161 30 -71 3
-161 8 -200 10 -38 2 -97 0 -130 -5z"/>
</g>
</svg>
