<?xml version="1.0" standalone="no"?>
<!DOCTYPE svg PUBLIC "-//W3C//DTD SVG 20010904//EN"
 "http://www.w3.org/TR/2001/REC-SVG-20010904/DTD/svg10.dtd">
<svg version="1.0" xmlns="http://www.w3.org/2000/svg"
 width="1024.000000pt" height="1536.000000pt" viewBox="0 0 1024.000000 1536.000000"
 preserveAspectRatio="xMidYMid meet">
<metadata>
Created by potrace 1.16, written by Peter Selinger 2001-2019
</metadata>
<g transform="translate(0.000000,1536.000000) scale(0.100000,-0.100000)"
fill="#000000" stroke="none">
<path d="M3870 12961 c-178 -65 -303 -134 -390 -216 -95 -90 -126 -123 -154
-170 -61 -100 -67 -161 -19 -201 l24 -21 -12 -129 c-20 -203 -18 -220 35 -283
34 -41 35 -43 29 -110 l-6 -68 82 -169 c45 -93 88 -182 96 -197 14 -27 13 -31
-11 -62 -32 -42 -83 -83 -201 -164 -128 -87 -237 -205 -297 -320 -61 -118 -85
-216 -93 -371 l-6 -125 -48 -62 c-69 -90 -110 -168 -173 -333 -93 -239 -90
-233 -228 -377 -139 -144 -161 -174 -268 -373 -110 -204 -328 -528 -408 -607
-37 -37 -89 -96 -117 -132 -46 -61 -59 -71 -175 -131 -69 -36 -155 -86 -190
-112 -100 -72 -271 -244 -326 -328 -51 -78 -152 -302 -161 -356 -9 -56 31 -75
101 -48 12 4 -3 -24 -42 -80 -116 -168 -158 -316 -149 -531 3 -72 13 -157 22
-190 41 -150 147 -315 267 -414 76 -63 216 -132 318 -157 97 -24 277 -24 374
0 333 81 576 352 616 690 35 293 -87 582 -319 758 -135 102 -315 168 -455 168
-70 -1 -193 -19 -230 -35 -17 -7 -17 -6 -6 16 53 99 174 206 259 229 60 16 94
8 218 -53 99 -48 109 -56 154 -118 27 -36 64 -77 84 -90 19 -13 38 -33 41 -44
11 -36 45 -63 93 -75 88 -21 141 26 108 95 -9 19 -21 35 -26 35 -24 0 -63 74
-72 138 -6 37 -21 113 -35 168 -36 147 -45 240 -27 286 21 53 123 134 341 269
329 205 354 222 448 312 94 89 108 109 239 342 37 66 149 254 247 417 98 164
188 319 200 345 11 27 22 49 23 51 2 2 67 -62 145 -142 91 -93 157 -152 185
-165 46 -22 50 -25 125 -141 27 -41 93 -124 145 -184 l97 -109 -6 -46 c-21
-171 -20 -203 12 -274 l31 -67 -27 -6 c-130 -27 -198 -112 -206 -256 -3 -50
-4 -51 -61 -83 -64 -37 -95 -75 -95 -120 0 -39 -13 -57 -135 -190 -55 -60
-122 -135 -147 -165 -87 -104 -286 -449 -349 -604 -20 -50 -66 -158 -102 -241
-35 -82 -79 -195 -96 -250 -55 -169 -61 -182 -115 -250 -69 -87 -109 -154
-150 -254 -31 -74 -46 -94 -149 -201 -219 -227 -305 -398 -409 -815 -61 -246
-151 -556 -238 -820 -43 -132 -84 -259 -90 -282 -7 -27 -16 -43 -26 -43 -53 0
-99 -59 -149 -192 -20 -54 -16 -53 -132 -36 -76 11 -84 10 -103 -7 -11 -10
-20 -30 -20 -45 0 -29 18 -49 68 -74 36 -19 41 -32 13 -41 -11 -3 -52 -35 -91
-70 -40 -36 -95 -76 -124 -90 -49 -24 -63 -26 -222 -28 -154 -2 -174 -4 -222
-26 -93 -42 -153 -135 -153 -239 -1 -72 16 -108 71 -154 61 -53 291 -153 535
-233 121 -40 264 -91 318 -113 284 -119 443 -132 527 -43 49 51 60 93 70 266
19 325 50 512 112 675 60 159 62 171 44 215 -14 32 -14 41 -3 59 7 12 31 66
52 121 46 121 75 176 170 320 71 108 218 287 340 415 171 180 246 332 341 698
88 339 107 374 328 589 201 197 486 450 522 463 29 11 38 10 184 -32 123 -36
193 -39 240 -12 33 19 96 98 356 441 149 198 226 277 328 340 l60 37 44 -50
c25 -27 84 -94 131 -148 111 -130 426 -446 614 -619 113 -103 154 -135 170
-131 50 9 130 -72 262 -266 244 -359 425 -530 657 -623 l58 -23 76 -154 c94
-189 143 -244 304 -334 139 -79 236 -151 296 -223 27 -32 86 -97 131 -146 82
-87 83 -88 118 -200 19 -62 64 -178 100 -257 36 -80 65 -151 65 -158 0 -7 -11
-17 -25 -22 -34 -13 -31 -32 8 -50 17 -8 32 -19 32 -25 2 -24 17 -55 28 -55 7
0 20 -7 30 -14 16 -12 17 -18 7 -36 -18 -33 6 -55 44 -40 30 11 23 20 72 -99
36 -86 46 -151 53 -346 9 -232 22 -281 97 -364 65 -72 135 -104 244 -109 107
-5 180 9 269 54 85 42 152 112 194 202 27 57 32 81 35 165 8 181 -46 340 -208
617 -70 119 -92 168 -140 315 -86 259 -159 362 -302 430 -63 30 -76 41 -98 82
-16 29 -38 53 -60 65 -33 17 -37 25 -113 250 -43 128 -100 307 -128 398 -64
208 -112 301 -208 402 -110 116 -223 182 -426 248 -55 18 -106 38 -113 43 -37
29 -128 243 -182 427 -33 113 -40 148 -31 162 16 25 14 80 -5 135 -27 79 -216
483 -276 589 -52 92 -56 105 -63 183 -4 46 -15 112 -25 145 -20 64 -75 164
-114 206 -37 40 -44 61 -55 164 -6 63 -17 108 -29 129 l-19 32 40 75 c23 41
107 185 187 320 178 297 190 321 245 476 117 328 128 447 54 600 -29 62 -268
379 -424 564 -95 111 -229 240 -335 320 -47 35 -117 88 -156 118 -51 38 -77
65 -90 95 -94 215 -265 393 -479 499 -102 51 -162 70 -445 137 -140 33 -279
67 -307 75 -40 11 -103 14 -255 12 -286 -3 -311 8 -329 143 -5 36 -13 181 -18
321 -11 277 -18 322 -76 447 -36 77 -68 126 -124 185 -27 29 -45 39 -80 44
-25 3 -58 14 -73 25 -15 10 -41 19 -59 19 -17 0 -46 8 -63 19 -21 13 -59 21
-116 25 -81 5 -90 4 -190 -33z m2697 -3056 c99 -66 188 -125 199 -131 18 -11
18 -13 -4 -85 -24 -78 -62 -299 -62 -358 0 -19 -5 -75 -11 -123 l-12 -89 -20
33 c-35 59 -101 131 -143 158 l-42 26 24 21 c19 17 24 31 24 71 0 73 -21 131
-78 213 -61 88 -77 142 -87 299 -7 113 -7 114 13 100 11 -8 101 -69 199 -135z
m-4809 -5867 c22 0 30 -22 12 -33 -12 -7 -132 23 -145 37 -7 7 8 8 50 3 33 -4
70 -7 83 -7z"/>
</g>
</svg>
