<?xml version="1.0" standalone="no"?>
<!DOCTYPE svg PUBLIC "-//W3C//DTD SVG 20010904//EN"
 "http://www.w3.org/TR/2001/REC-SVG-20010904/DTD/svg10.dtd">
<svg version="1.0" xmlns="http://www.w3.org/2000/svg"
 width="1024.000000pt" height="1536.000000pt" viewBox="0 0 1024.000000 1536.000000"
 preserveAspectRatio="xMidYMid meet">
<metadata>
Created by potrace 1.16, written by Peter Selinger 2001-2019
</metadata>
<g transform="translate(0.000000,1536.000000) scale(0.100000,-0.100000)"
fill="#000000" stroke="none">
<path d="M5843 12550 c-71 -13 -151 -45 -207 -81 -108 -72 -216 -232 -249
-369 -13 -50 -37 -236 -37 -279 0 -3 -15 -15 -34 -25 -49 -26 -76 -81 -76
-153 l0 -60 -197 1 c-109 0 -229 -1 -268 -3 -50 -3 -87 1 -130 14 -87 28 -299
25 -410 -4 -150 -39 -217 -82 -394 -245 -51 -48 -106 -93 -121 -101 -16 -8
-75 -26 -133 -39 -204 -48 -283 -89 -544 -281 -57 -41 -169 -112 -250 -156
-82 -45 -182 -104 -223 -132 -132 -90 -266 -237 -480 -526 -107 -146 -227
-308 -267 -361 -40 -54 -109 -131 -154 -171 -190 -171 -215 -201 -280 -336
-70 -147 -116 -223 -209 -353 -38 -53 -97 -152 -133 -220 -35 -69 -72 -141
-84 -160 -51 -89 -66 -150 -66 -270 -1 -176 17 -365 37 -395 21 -33 43 -41 67
-27 23 15 24 13 43 -89 27 -145 65 -238 138 -337 166 -224 433 -355 723 -354
135 0 225 16 342 62 298 115 558 396 634 685 33 123 37 314 10 428 -68 288
-242 508 -515 653 -101 54 -170 78 -301 108 l-100 23 -17 59 c-9 32 -19 68
-22 79 -5 15 3 28 31 51 71 57 383 264 550 365 91 55 200 126 242 157 122 91
256 227 362 368 l99 131 63 11 c34 6 103 16 152 22 248 29 422 102 619 259 41
33 85 62 97 66 35 11 87 -4 125 -37 50 -44 66 -78 54 -119 -6 -19 -10 -63 -10
-99 0 -112 24 -194 100 -348 68 -136 72 -149 86 -255 8 -62 30 -195 50 -296
34 -174 35 -185 20 -220 -24 -56 -38 -160 -31 -227 l6 -62 -51 -17 c-97 -32
-150 -102 -150 -199 0 -48 -3 -54 -23 -60 -89 -22 -174 -151 -165 -248 5 -47
1 -57 -52 -152 -94 -167 -179 -314 -264 -451 -109 -179 -173 -315 -231 -495
-47 -143 -52 -154 -86 -176 -62 -39 -73 -81 -74 -284 l-1 -175 -36 -88 c-48
-117 -152 -307 -195 -357 -20 -22 -58 -56 -87 -74 -82 -53 -253 -193 -355
-291 -234 -225 -316 -392 -490 -1000 -66 -232 -118 -378 -186 -526 -43 -95
-61 -144 -105 -299 -20 -69 -28 -81 -89 -140 -57 -55 -78 -85 -133 -195 -36
-71 -80 -175 -97 -230 -37 -122 -65 -168 -176 -286 -90 -96 -141 -177 -176
-275 -26 -76 -38 -334 -17 -373 46 -85 272 -110 688 -76 298 25 336 35 367 96
18 34 16 170 -5 339 -21 167 -19 250 6 250 10 0 30 10 45 23 31 24 46 74 47
147 0 25 11 77 25 115 27 77 32 153 14 235 -18 84 4 146 101 290 31 47 73 114
93 150 77 138 289 387 421 494 105 85 163 145 231 237 103 140 177 293 241
498 56 178 63 190 145 256 115 92 176 153 242 240 34 44 97 118 142 165 45 47
109 121 142 166 107 141 237 242 346 269 l27 7 0 -81 c0 -51 6 -95 16 -121 16
-39 16 -40 -16 -92 -51 -84 -80 -118 -99 -118 -10 0 -44 12 -76 26 -49 23 -67
26 -124 22 -152 -11 -313 -145 -340 -281 -5 -29 -13 -146 -16 -260 -5 -142
-11 -222 -21 -250 -8 -23 -50 -109 -93 -192 -70 -133 -120 -246 -162 -370 -23
-65 -17 -263 9 -358 27 -95 70 -183 109 -219 42 -40 115 -69 175 -69 113 -2
198 40 295 144 117 127 196 280 244 469 38 152 79 228 124 228 29 0 75 36 75
59 0 9 -7 26 -15 39 -12 16 -13 26 -5 42 10 19 12 19 72 -13 121 -63 233 -38
403 90 108 82 255 236 345 363 41 57 105 136 141 175 51 54 88 109 159 240
167 305 188 348 249 500 88 222 150 348 225 459 37 54 76 116 87 138 40 79
136 163 179 156 17 -3 14 -11 -32 -78 -28 -41 -92 -127 -141 -190 -50 -63
-103 -142 -119 -175 -44 -94 -36 -186 18 -199 46 -12 80 12 148 103 81 109
288 311 319 311 11 0 -13 -63 -54 -138 -23 -42 -76 -124 -119 -182 -104 -140
-140 -214 -140 -283 0 -43 5 -58 23 -75 52 -49 86 -21 213 168 46 69 113 157
149 195 l66 70 -26 -70 c-36 -97 -59 -144 -117 -233 -83 -126 -102 -186 -77
-235 22 -41 58 -48 108 -22 37 19 127 154 224 335 22 41 42 77 45 80 11 11
-10 -83 -38 -171 -34 -105 -40 -189 -14 -189 8 0 24 5 35 10 45 24 206 303
324 560 188 412 343 640 561 830 254 221 361 326 475 470 150 188 239 404 225
546 -9 85 -24 132 -138 429 -98 256 -145 357 -213 459 -53 80 -183 246 -258
329 -63 69 -69 80 -78 138 -6 35 -21 91 -34 124 -13 33 -38 105 -56 160 -71
227 -164 345 -379 487 -67 44 -140 103 -175 140 -34 36 -92 82 -135 108 -41
24 -131 80 -200 125 -69 45 -154 94 -190 110 -36 16 -69 33 -74 37 -5 4 6 41
26 85 72 157 84 244 49 365 -16 56 -18 79 -10 130 20 143 6 255 -47 361 -37
75 -126 188 -182 232 -65 51 -191 109 -292 135 -96 24 -311 35 -397 20z m1544
-3392 c94 -157 186 -281 309 -414 52 -56 94 -104 94 -108 0 -4 -20 -41 -45
-84 -25 -42 -74 -151 -111 -242 -126 -317 -202 -438 -389 -625 -129 -129 -181
-160 -352 -205 -62 -16 -122 -34 -132 -40 -11 -5 -22 -10 -26 -10 -8 0 5 72
15 85 20 26 30 163 20 275 -15 171 -17 162 46 232 107 120 140 209 131 348 -3
47 -12 106 -20 132 l-15 47 80 117 c161 237 234 425 254 652 l7 84 29 -59 c17
-32 64 -115 105 -185z"/>
</g>
</svg>
