<?xml version="1.0" standalone="no"?>
<!DOCTYPE svg PUBLIC "-//W3C//DTD SVG 20010904//EN"
 "http://www.w3.org/TR/2001/REC-SVG-20010904/DTD/svg10.dtd">
<svg version="1.0" xmlns="http://www.w3.org/2000/svg"
 width="1024.000000pt" height="1536.000000pt" viewBox="0 0 1024.000000 1536.000000"
 preserveAspectRatio="xMidYMid meet">
<metadata>
Created by potrace 1.16, written by Peter Selinger 2001-2019
</metadata>
<g transform="translate(0.000000,1536.000000) scale(0.100000,-0.100000)"
fill="#000000" stroke="none">
<path d="M4640 14809 c-168 -30 -276 -86 -383 -199 -83 -88 -128 -159 -165
-262 -24 -67 -26 -86 -27 -223 0 -172 18 -256 83 -378 l36 -70 -3 -131 c-3
-134 12 -234 43 -295 10 -19 16 -66 17 -149 l2 -120 -229 -344 c-410 -614
-506 -773 -560 -930 -52 -150 -43 -249 43 -463 123 -307 332 -649 526 -860 78
-85 100 -126 121 -230 14 -70 63 -475 64 -530 0 -11 9 -72 21 -135 32 -183 51
-398 51 -594 0 -212 -11 -348 -48 -581 -35 -221 -36 -342 -4 -407 13 -26 21
-52 18 -57 -3 -5 -10 -54 -14 -108 -8 -90 -14 -111 -66 -228 -103 -233 -144
-411 -206 -897 -46 -367 -120 -1118 -120 -1229 0 -66 12 -85 65 -103 40 -14
40 -14 47 -78 3 -34 12 -143 19 -240 11 -155 10 -192 -4 -301 -10 -69 -17
-165 -17 -215 0 -61 -6 -110 -20 -153 -72 -236 -78 -481 -19 -889 21 -147 59
-621 59 -737 0 -80 -36 -225 -76 -305 -18 -36 -27 -82 -39 -193 -9 -87 -24
-167 -36 -200 -21 -57 -85 -174 -181 -330 -30 -49 -64 -108 -76 -130 -45 -89
-54 -255 -17 -311 19 -30 71 -54 115 -54 17 0 42 -7 56 -16 17 -12 36 -15 65
-10 32 5 46 2 66 -14 33 -26 49 -25 89 5 19 14 46 25 64 25 23 0 40 9 61 31
17 18 42 32 64 36 63 10 110 93 145 258 32 148 46 167 158 223 114 57 152 96
182 187 32 95 24 162 -41 350 -28 83 -54 179 -59 215 -4 36 -17 92 -30 125
-18 50 -21 71 -15 140 25 330 39 419 86 582 64 223 80 370 66 628 -16 311 -10
355 87 610 25 66 73 210 106 320 80 261 79 260 132 276 40 13 44 18 61 69 28
88 175 662 188 736 11 65 7 231 -8 271 -3 10 -3 15 1 12 4 -4 13 -29 21 -55 7
-27 36 -128 65 -224 28 -96 84 -306 125 -467 41 -161 79 -301 85 -313 6 -11
23 -22 38 -25 75 -16 72 -9 143 -290 94 -375 134 -486 249 -695 l69 -125 6
-135 c14 -301 31 -383 129 -631 79 -201 115 -325 151 -528 26 -139 27 -160 16
-213 -7 -33 -9 -78 -6 -102 4 -27 0 -64 -11 -106 -28 -105 -30 -464 -3 -639
20 -131 20 -138 4 -283 -18 -160 -13 -231 22 -321 31 -81 82 -109 125 -70 17
16 20 15 46 -5 57 -46 123 -74 157 -68 18 4 38 13 45 21 15 18 59 19 95 3 23
-10 29 -8 56 18 17 16 50 68 74 115 49 99 62 182 46 289 -5 36 -16 110 -25
165 -8 55 -22 199 -31 320 -18 245 -20 256 -76 408 -39 103 -40 111 -28 156
10 41 9 52 -8 91 -19 45 -19 47 4 470 28 500 26 725 -6 900 -22 116 -81 299
-186 575 -31 83 -63 179 -70 215 -13 63 -28 233 -40 468 l-5 112 25 10 c15 6
44 10 66 10 51 0 97 24 105 53 16 66 -100 1090 -182 1602 -72 453 -82 492
-165 656 -59 119 -69 169 -40 219 58 102 61 110 61 227 0 62 -7 190 -15 285
-20 243 -23 319 -14 428 13 165 39 290 94 455 69 204 93 294 100 381 12 138
28 211 72 322 77 197 86 245 87 432 0 156 -2 173 -36 310 -20 80 -46 209 -57
286 -11 78 -29 166 -40 195 -11 30 -39 137 -61 238 -72 317 -157 527 -370 911
-156 281 -320 601 -354 692 -24 63 -24 67 -19 343 4 224 2 309 -11 425 -20
174 -39 270 -63 319 -15 31 -24 36 -55 39 -34 3 -43 -2 -88 -49 l-50 -52 6 89
c11 154 -20 296 -88 413 -51 86 -190 220 -268 258 -134 65 -328 96 -460 72z
m900 -891 c-24 -109 -42 -181 -50 -191 -8 -9 6 101 20 157 33 135 57 161 30
34z m-247 -365 c32 -114 33 -195 6 -388 -10 -68 -9 -88 5 -135 33 -113 158
-488 221 -665 26 -71 62 -184 81 -250 19 -66 37 -129 40 -140 4 -11 -12 0 -35
27 -61 68 -203 137 -286 139 -198 5 -209 3 -280 -46 -37 -25 -72 -45 -79 -45
-42 0 -91 -111 -80 -182 5 -26 -3 -65 -30 -142 -35 -104 -35 -107 -19 -141 16
-33 15 -36 -9 -92 -34 -76 -47 -135 -57 -261 -12 -131 -6 -194 23 -257 42 -91
92 -136 168 -150 48 -9 69 -45 47 -83 -24 -44 -59 -49 -136 -22 -50 17 -87 40
-139 85 -39 34 -109 85 -155 113 -103 62 -153 111 -229 222 -78 116 -123 171
-225 278 l-87 92 12 52 c6 29 74 181 150 338 76 157 179 385 228 507 49 123
105 248 123 279 39 64 182 243 325 407 107 123 193 254 234 357 24 60 30 67
81 92 64 32 96 35 102 11z m-825 -50 c47 -22 74 -60 70 -101 -4 -50 -28 -62
-74 -37 -43 23 -54 42 -63 111 -9 61 -7 61 67 27z m522 -48 c0 -13 -96 -108
-122 -121 -15 -8 -28 -12 -28 -9 0 3 15 28 33 55 20 31 45 55 67 64 38 16 50
19 50 11z m745 -1780 c62 -143 125 -304 125 -320 0 -11 -7 2 -70 140 -41 88
-130 310 -130 322 0 21 26 -28 75 -142z m154 -572 c1 -58 38 -319 58 -402 5
-21 3 -24 -8 -13 -18 17 -98 15 -133 -3 -39 -21 -42 -19 -55 16 -30 87 1 250
63 327 19 24 42 66 51 93 9 27 18 49 20 49 2 0 4 -30 4 -67z m-184 -600 c-124
-168 -317 -284 -468 -282 -80 1 -95 14 -18 15 151 3 300 79 431 222 41 45 77
82 79 82 2 0 -9 -17 -24 -37z m-718 -45 c-3 -8 -6 -5 -6 6 -1 11 2 17 5 13 3
-3 4 -12 1 -19z m-306 -186 c-71 -215 -156 -371 -265 -487 l-57 -60 49 65 c62
82 113 163 152 239 30 61 117 274 140 346 7 22 15 35 17 29 2 -6 -14 -66 -36
-132z m1228 16 c18 -156 64 -319 126 -443 77 -154 135 -225 251 -303 10 -7 -1
-2 -26 10 -64 33 -169 136 -212 208 -69 117 -120 265 -143 420 -14 86 -20 219
-11 209 2 -2 9 -48 15 -101z m-770 -44 c14 -12 -19 -1 -35 12 -18 14 -18 14 6
3 14 -6 27 -13 29 -15z m-392 -2540 c-3 -3 -12 -4 -19 -1 -8 3 -5 6 6 6 11 1
17 -2 13 -5z m213 -31 c92 -12 196 -17 395 -17 160 -1 243 -4 205 -8 -194 -21
-577 -1 -744 37 -69 17 -44 14 144 -12z"/>
</g>
</svg>
