<?xml version="1.0" standalone="no"?>
<!DOCTYPE svg PUBLIC "-//W3C//DTD SVG 20010904//EN"
 "http://www.w3.org/TR/2001/REC-SVG-20010904/DTD/svg10.dtd">
<svg version="1.0" xmlns="http://www.w3.org/2000/svg"
 width="1024.000000pt" height="1536.000000pt" viewBox="0 0 1024.000000 1536.000000"
 preserveAspectRatio="xMidYMid meet">
<metadata>
Created by potrace 1.16, written by Peter Selinger 2001-2019
</metadata>
<g transform="translate(0.000000,1536.000000) scale(0.100000,-0.100000)"
fill="#000000" stroke="none">
<path d="M2890 14461 c-260 -57 -436 -191 -536 -407 -49 -105 -66 -189 -66
-329 1 -338 119 -618 392 -930 47 -53 93 -110 104 -126 25 -41 203 -465 283
-679 121 -322 184 -452 303 -624 94 -136 136 -167 677 -502 127 -79 346 -188
567 -284 100 -44 180 -85 196 -102 39 -39 65 -114 100 -286 44 -220 53 -323
46 -528 -8 -229 -27 -408 -65 -609 -16 -88 -37 -214 -46 -280 -13 -93 -22
-128 -42 -157 -13 -20 -31 -58 -39 -84 -8 -26 -22 -57 -32 -68 -10 -12 -26
-33 -35 -47 -9 -15 -46 -44 -83 -64 -79 -44 -134 -93 -207 -182 -51 -64 -54
-66 -282 -178 -126 -62 -284 -149 -350 -192 -205 -135 -399 -315 -579 -540
-36 -45 -83 -96 -104 -113 -67 -53 -88 -109 -117 -298 -9 -56 -31 -153 -49
-215 -19 -61 -42 -150 -51 -197 -25 -123 -30 -438 -14 -875 8 -203 13 -464 13
-580 -2 -237 -12 -298 -68 -400 -18 -33 -41 -83 -50 -112 -20 -61 -39 -88
-177 -255 -57 -68 -130 -157 -161 -196 -71 -88 -135 -139 -246 -197 -151 -77
-203 -138 -204 -234 0 -121 100 -195 299 -222 238 -32 423 26 644 203 133 106
166 123 275 138 169 22 310 75 361 133 37 43 48 88 39 160 -11 82 -116 496
-142 561 -29 73 -31 163 -9 388 25 244 49 358 109 525 109 297 133 459 120
799 -9 232 -6 240 90 301 102 67 192 105 256 110 56 4 66 1 305 -87 82 -30
161 -24 275 23 225 92 374 162 480 227 64 38 126 70 138 70 64 0 154 -161 338
-605 99 -239 143 -362 184 -520 29 -106 31 -112 83 -160 62 -58 56 -43 147
-415 34 -140 75 -287 92 -327 45 -110 116 -202 303 -393 94 -96 215 -233 270
-305 163 -213 213 -273 355 -420 161 -166 219 -236 335 -410 91 -136 246 -436
267 -518 10 -39 10 -53 -1 -80 -27 -63 -25 -108 10 -213 l33 -99 1 -370 1
-370 25 -55 c36 -76 74 -119 134 -146 67 -32 161 -33 223 -3 140 68 286 298
328 516 19 99 18 277 -2 410 -18 117 -15 305 7 418 6 34 9 109 6 175 -5 130
-21 183 -77 258 -61 80 -126 115 -307 162 -32 8 -51 22 -77 55 -40 53 -210
377 -361 689 -156 321 -189 364 -474 625 -56 52 -109 105 -118 118 -8 12 -27
69 -41 126 -22 92 -25 127 -29 367 -3 146 -4 515 -4 820 0 470 3 570 17 655
13 77 15 135 11 256 -4 118 -2 170 8 210 44 166 37 332 -20 484 l-38 100 26
45 c31 56 82 244 102 379 8 55 15 154 15 220 l0 118 63 13 c241 48 373 98 439
167 74 76 80 104 91 413 17 458 9 644 -39 960 -30 192 -67 317 -124 415 -72
122 -197 233 -334 295 -66 30 -499 170 -525 170 -27 0 -79 38 -96 69 -8 17
-15 54 -15 84 0 47 6 62 45 120 63 94 130 231 167 340 26 79 31 105 30 187 -2
116 -20 189 -74 299 -98 198 -284 306 -588 341 -186 22 -345 -12 -458 -96 -59
-46 -83 -131 -43 -156 19 -11 18 -14 -21 -60 -32 -38 -39 -53 -34 -74 5 -17 0
-33 -14 -51 -11 -14 -20 -35 -20 -46 0 -11 -9 -35 -21 -53 -16 -27 -20 -47
-18 -101 3 -59 -1 -74 -24 -114 -41 -69 -44 -122 -13 -193 14 -32 29 -83 32
-113 4 -29 10 -56 14 -58 5 -3 4 -22 -1 -42 -13 -57 -11 -140 5 -176 18 -42
50 -71 107 -96 42 -19 66 -38 83 -68 9 -17 -42 0 -116 38 -32 17 -95 43 -140
59 -46 16 -117 45 -159 65 -93 44 -179 60 -380 73 -172 10 -194 17 -327 101
-62 39 -260 109 -460 162 -126 34 -151 55 -288 235 -158 209 -409 581 -447
663 -17 36 -64 120 -105 185 -60 96 -122 218 -122 239 0 2 36 7 80 10 92 7
197 41 277 89 136 81 284 258 351 420 62 150 77 352 37 503 -36 134 -140 297
-243 380 -67 53 -194 119 -272 141 -90 25 -289 27 -390 5z m4075 -4947 c15
-91 -27 -159 -142 -236 -70 -46 -118 -73 -73 -41 114 83 147 113 173 164 25
46 28 62 24 109 -3 30 -8 66 -11 80 -5 21 -4 20 8 -5 8 -16 18 -48 21 -71z
m-410 -403 c-13 -12 -179 -73 -285 -105 -93 -28 -304 -69 -445 -87 -132 -16
-249 -43 -344 -78 -47 -17 -86 -29 -88 -27 -8 7 151 63 237 84 47 12 150 32
230 46 80 14 170 30 200 36 91 17 392 98 445 119 58 23 62 24 50 12z m370
-410 c-24 -22 -140 -47 -280 -61 -144 -14 -243 -29 -299 -46 -64 -18 -72 -11
-9 9 64 21 83 24 263 47 123 15 241 39 340 69 2 0 -4 -7 -15 -18z m-1675 -76
c-13 -14 -26 -23 -28 -20 -3 3 5 16 18 30 13 14 26 23 28 20 3 -3 -5 -16 -18
-30z m59 -147 c-30 -29 -63 -64 -72 -78 -10 -16 -16 -20 -16 -10 -1 24 26 57
81 100 69 55 72 50 7 -12z m856 6 c-58 -45 -152 -78 -335 -118 -41 -9 -84 -19
-95 -23 -11 -3 -17 -2 -14 1 4 4 56 20 115 36 129 33 234 69 289 98 47 25 68
28 40 6z m-693 -146 c-33 -18 -72 -32 -100 -35 -46 -4 -46 -3 23 20 39 13 79
29 90 35 11 6 25 11 30 11 6 1 -14 -13 -43 -31z m83 -108 c-3 -5 -12 -10 -18
-10 -7 0 -6 4 3 10 19 12 23 12 15 0z"/>
</g>
</svg>
