<?xml version="1.0" standalone="no"?>
<!DOCTYPE svg PUBLIC "-//W3C//DTD SVG 20010904//EN"
 "http://www.w3.org/TR/2001/REC-SVG-20010904/DTD/svg10.dtd">
<svg version="1.0" xmlns="http://www.w3.org/2000/svg"
 width="1024.000000pt" height="1024.000000pt" viewBox="0 0 1024.000000 1024.000000"
 preserveAspectRatio="xMidYMid meet">
<metadata>
Created by potrace 1.16, written by Peter Selinger 2001-2019
</metadata>
<g transform="translate(0.000000,1024.000000) scale(0.100000,-0.100000)"
fill="#000000" stroke="none">
<path d="M4815 9544 c-77 -12 -243 -58 -308 -86 -166 -70 -321 -196 -415 -337
-76 -113 -115 -209 -163 -399 -42 -170 -46 -216 -24 -337 19 -102 19 -236 1
-278 -10 -24 -41 -52 -113 -101 -105 -71 -139 -101 -168 -152 -35 -62 -30 -64
210 -64 118 0 215 -3 215 -7 -1 -26 -24 -30 -197 -29 l-182 1 -28 -26 c-31
-29 -25 -27 -218 -70 -325 -72 -503 -155 -710 -330 -148 -125 -214 -206 -403
-490 -61 -92 -139 -200 -174 -240 -79 -91 -215 -260 -288 -356 -29 -40 -57
-73 -60 -73 -3 0 -23 -15 -43 -34 -31 -28 -37 -41 -37 -73 0 -21 7 -49 16 -61
15 -21 13 -26 -51 -113 -292 -397 -423 -705 -357 -834 22 -44 61 -83 109 -111
38 -21 39 -24 15 -52 -10 -11 -66 -91 -126 -179 -59 -87 -123 -177 -142 -201
-51 -65 -68 -158 -44 -241 8 -30 5 -41 -31 -102 -100 -171 -148 -337 -156
-539 -15 -347 89 -657 291 -868 140 -147 336 -237 597 -276 56 -8 104 -18 107
-21 9 -9 -67 -186 -103 -242 -35 -53 -115 -112 -228 -169 -133 -68 -185 -126
-247 -279 -22 -53 -77 -165 -124 -248 -94 -168 -121 -240 -138 -357 -10 -73
-9 -84 10 -136 13 -32 22 -79 22 -110 0 -46 3 -56 25 -70 17 -11 36 -14 62
-10 151 25 182 17 203 -51 30 -97 63 -115 164 -88 88 24 105 19 143 -40 18
-27 41 -56 50 -62 27 -20 88 -15 153 12 76 32 134 33 158 3 9 -12 34 -40 55
-61 35 -37 40 -39 82 -35 35 4 55 15 90 47 58 53 92 55 141 6 29 -29 42 -35
77 -35 37 0 49 6 82 40 28 29 51 42 89 50 83 18 123 50 142 117 20 70 14 138
-21 209 -29 59 -72 101 -149 144 -80 46 -88 57 -71 105 8 22 14 54 14 70 1 25
-25 110 -53 175 -5 12 34 43 156 124 273 182 941 656 1228 871 144 108 185
145 232 207 50 67 61 76 105 87 26 7 93 28 147 47 55 19 101 32 103 30 2 -2
-10 -24 -27 -50 -65 -96 -127 -253 -174 -438 -33 -131 -76 -207 -209 -373 -75
-94 -127 -170 -156 -230 -25 -50 -71 -131 -102 -180 -117 -182 -164 -320 -157
-455 5 -81 23 -126 77 -194 17 -21 31 -47 31 -57 0 -10 10 -30 23 -44 32 -37
90 -43 152 -16 75 33 113 36 173 12 67 -27 113 -26 193 0 89 29 240 36 344 15
193 -39 251 -59 304 -109 58 -55 76 -57 155 -22 68 30 111 32 151 5 41 -27 79
-25 139 9 77 43 104 46 162 16 43 -22 54 -24 86 -15 29 8 44 21 64 56 29 50
49 64 92 64 70 0 149 99 137 169 -9 47 -48 121 -77 147 -57 51 -188 106 -328
139 -161 37 -145 28 -187 107 -38 73 -80 114 -190 185 -29 18 -53 39 -53 46 0
17 117 160 350 426 226 259 272 314 390 472 148 197 261 395 297 519 10 37 29
70 58 100 43 47 66 102 100 240 9 36 32 90 50 121 47 77 65 153 65 274 0 195
-55 363 -164 502 -127 163 -277 230 -596 268 -177 21 -244 11 -319 -48 l-40
-32 -462 1 -462 1 -17 56 c-24 77 -65 143 -104 169 l-32 21 44 41 c24 22 55
60 70 85 61 108 113 174 239 304 73 77 161 177 195 224 35 47 70 94 78 105 15
18 22 13 166 -134 83 -84 168 -172 189 -196 71 -80 138 -98 243 -65 l54 17 66
-34 c62 -33 341 -215 534 -348 151 -104 277 -134 481 -113 331 33 731 185
1282 485 188 103 205 110 252 101 81 -14 159 -16 195 -6 23 7 58 33 91 66 49
51 57 55 122 65 519 82 950 382 1155 805 73 152 102 271 101 425 -1 185 -72
325 -212 421 -32 22 -59 43 -59 47 0 20 -62 72 -96 80 -196 47 -183 46 -300
29 -320 -46 -628 -218 -926 -518 -117 -118 -128 -132 -146 -191 -11 -34 -36
-94 -56 -133 -20 -38 -50 -122 -67 -185 -51 -192 -108 -367 -127 -389 -20 -25
-317 -133 -427 -156 -156 -32 -208 -34 -835 -37 l-64 0 -76 78 c-41 44 -96 93
-122 111 -37 25 -55 48 -84 104 -42 85 -96 160 -175 245 -61 66 -86 108 -114
192 -9 29 -53 113 -96 186 -78 131 -102 160 -225 262 -40 33 -55 56 -78 113
-36 91 -90 159 -176 223 -104 75 -119 109 -76 162 21 26 29 28 68 24 24 -3
106 -34 183 -70 77 -36 158 -71 180 -77 51 -14 140 -14 167 0 13 7 77 126 174
325 131 268 162 342 214 503 62 195 69 231 47 249 -7 6 -107 18 -222 27 -116
8 -255 20 -310 25 -55 5 -158 14 -230 20 -71 5 -151 13 -177 16 l-48 7 0 101
c0 117 23 402 45 561 43 308 91 397 222 410 l48 5 -43 -14 c-23 -8 -54 -22
-68 -31 -53 -34 -97 -178 -129 -418 -8 -65 -15 -127 -15 -138 0 -18 9 -19 213
-19 116 0 304 -5 417 -10 112 -5 207 -7 209 -4 8 8 -39 144 -80 232 -83 181
-214 316 -356 368 -68 25 -77 37 -23 32 80 -9 157 -54 256 -153 76 -75 99
-106 141 -190 47 -91 131 -320 122 -329 -2 -2 -76 0 -164 5 -88 4 -210 8 -271
9 l-112 0 -5 -32 c-13 -72 -49 -379 -45 -383 7 -7 239 -27 253 -22 7 3 15 34
19 74 13 137 29 216 48 235 16 16 36 18 174 18 88 0 164 4 175 10 24 13 24 42
0 128 -44 159 -107 302 -184 417 -59 88 -199 222 -314 298 -94 64 -105 68
-193 82 -50 9 -100 20 -110 25 -10 5 -53 21 -96 35 -76 25 -90 27 -354 30
-151 2 -288 1 -305 -1z m555 -1512 l0 -119 118 -27 c64 -14 126 -29 138 -32
20 -5 22 -1 28 73 3 43 9 104 13 136 l6 57 66 -1 c96 -1 333 -26 256 -27 -33
-1 -107 3 -165 7 -75 6 -108 5 -117 -3 -6 -6 -17 -56 -23 -111 -6 -55 -13
-108 -16 -117 -4 -12 2 -21 18 -27 38 -14 307 -75 312 -70 2 2 11 56 21 119 9
63 22 118 28 122 7 4 52 8 101 8 66 0 87 -3 84 -12 -3 -7 -26 -77 -52 -155
-26 -79 -53 -143 -59 -143 -7 0 -55 9 -107 21 -52 11 -158 34 -235 51 -77 17
-201 45 -275 64 -74 18 -136 31 -138 29 -13 -12 40 -532 59 -582 5 -13 5 -23
0 -23 -16 0 -51 146 -66 275 -9 72 -19 237 -22 368 -6 216 -5 237 10 237 15 0
17 -15 17 -118z m225 96 c6 -5 -17 -6 -60 -2 -38 4 -78 8 -87 8 -10 0 -18 4
-18 8 0 11 152 -2 165 -14z m495 -38 c0 -5 -8 -10 -17 -10 -15 0 -16 2 -3 10
19 12 20 12 20 0z m-520 -331 c41 -11 80 -25 87 -31 7 -6 13 -27 13 -47 0 -52
-70 -434 -82 -446 -12 -12 -9 12 33 279 17 104 26 193 21 198 -4 4 -46 21 -93
37 -98 34 -86 40 21 10z m255 -58 c104 -24 236 -61 251 -69 12 -8 -208 -489
-238 -519 -34 -33 -29 -2 15 99 25 57 75 168 110 248 35 80 62 148 60 152 -2
4 -69 28 -149 54 -79 25 -144 47 -144 50 0 6 7 5 95 -15z"/>
<path d="M5396 8632 c-5 -8 -26 -298 -26 -359 0 -39 1 -40 165 -48 l130 -7 26
199 c14 109 24 204 21 211 -3 9 -44 12 -157 12 -85 0 -156 -4 -159 -8z"/>
</g>
</svg>
