<?xml version="1.0" standalone="no"?>
<!DOCTYPE svg PUBLIC "-//W3C//DTD SVG 20010904//EN"
 "http://www.w3.org/TR/2001/REC-SVG-20010904/DTD/svg10.dtd">
<svg version="1.0" xmlns="http://www.w3.org/2000/svg"
 width="1024.000000pt" height="1536.000000pt" viewBox="0 0 1024.000000 1536.000000"
 preserveAspectRatio="xMidYMid meet">
<metadata>
Created by potrace 1.16, written by Peter Selinger 2001-2019
</metadata>
<g transform="translate(0.000000,1536.000000) scale(0.100000,-0.100000)"
fill="#000000" stroke="none">
<path d="M6010 14476 c-72 -21 -167 -72 -920 -503 -536 -307 -499 -283 -720
-449 -96 -72 -236 -173 -310 -224 -74 -51 -203 -142 -286 -201 -195 -139 -509
-342 -899 -582 -137 -84 -452 -267 -461 -267 -3 0 -21 16 -41 35 -55 53 -94
49 -153 -14 -34 -36 -50 -47 -61 -40 -42 27 -159 -17 -205 -76 -16 -21 -37
-35 -58 -39 -38 -7 -85 -53 -118 -116 -18 -36 -30 -46 -58 -51 -19 -4 -44 -19
-55 -33 -11 -14 -30 -26 -40 -26 -30 0 -81 -35 -101 -69 -10 -17 -24 -31 -31
-31 -7 0 -27 -13 -46 -30 -23 -20 -40 -27 -54 -24 -27 7 -80 -28 -134 -89 -38
-44 -40 -49 -30 -79 6 -17 10 -32 9 -33 -2 -2 -34 -23 -73 -48 -104 -67 -115
-79 -115 -135 0 -80 66 -194 131 -227 44 -23 71 -18 139 26 34 22 63 39 64 37
1 -2 27 -42 59 -90 76 -114 132 -175 231 -253 97 -75 178 -159 267 -275 420
-547 428 -556 694 -793 231 -206 455 -376 532 -406 34 -13 112 -28 192 -37 75
-9 139 -19 142 -22 3 -4 18 -83 33 -177 38 -232 70 -383 112 -522 57 -187 74
-296 88 -558 13 -244 20 -276 61 -325 11 -13 7 -26 -27 -80 -37 -62 -39 -69
-36 -135 l3 -69 -48 -36 c-70 -54 -75 -60 -107 -139 -17 -40 -49 -96 -74 -124
-24 -29 -97 -124 -162 -212 -65 -88 -165 -223 -222 -300 -138 -185 -519 -757
-610 -916 -94 -165 -161 -307 -211 -449 -22 -63 -78 -189 -124 -280 -46 -91
-115 -246 -154 -345 -89 -225 -114 -325 -213 -855 -41 -222 -86 -390 -177
-665 -76 -229 -77 -230 -77 -341 -1 -104 -3 -113 -29 -153 -16 -24 -65 -81
-108 -126 -95 -99 -161 -183 -228 -291 -53 -84 -121 -154 -214 -216 -110 -75
-167 -178 -167 -303 0 -72 18 -128 47 -143 11 -6 47 -14 81 -18 49 -5 64 -11
77 -30 8 -13 34 -33 56 -45 48 -24 92 -20 132 11 31 25 38 25 87 0 46 -23 110
-26 148 -6 16 8 61 18 102 21 41 4 86 13 100 20 20 11 276 16 1200 25 1657 15
2332 26 2875 47 257 9 182 19 -211 27 -170 4 -363 8 -429 11 -140 6 -2160 25
-2855 28 -384 2 -470 4 -448 14 16 7 28 17 28 23 0 5 21 23 48 40 42 27 55 30
132 30 102 0 125 10 167 74 79 118 122 350 104 561 -15 165 -14 176 7 182 27
7 45 42 122 249 145 386 212 524 368 754 180 268 270 509 367 984 38 191 41
201 75 231 11 10 37 51 57 90 26 50 63 96 127 160 76 76 141 124 401 297 171
113 393 268 495 344 343 256 691 484 738 484 23 0 85 -74 164 -195 93 -141
182 -254 363 -455 180 -201 392 -478 485 -634 107 -179 176 -257 463 -520 116
-106 168 -166 297 -346 158 -220 323 -415 601 -710 196 -208 291 -333 394
-520 31 -58 80 -130 109 -161 50 -54 85 -109 211 -336 35 -62 79 -135 99 -162
51 -69 113 -208 130 -292 20 -94 53 -164 116 -242 62 -78 88 -97 184 -141 40
-19 76 -39 80 -45 13 -20 27 -12 16 9 -6 11 -8 25 -5 30 10 16 67 11 114 -10
66 -30 86 -26 147 32 l55 52 50 -13 c43 -11 53 -11 74 3 14 9 25 20 25 25 0 5
8 8 17 7 17 -1 47 67 79 184 34 119 -31 259 -235 510 -47 58 -112 148 -144
200 -33 52 -71 112 -84 132 -38 57 -158 189 -202 223 -33 25 -40 37 -45 80 -9
61 -78 197 -160 313 -106 150 -179 300 -312 641 -152 388 -346 726 -528 919
-80 85 -281 258 -356 308 -25 17 -43 39 -51 61 -6 19 -37 64 -69 99 -39 43
-68 87 -88 136 -35 85 -135 403 -187 598 -141 526 -233 780 -406 1124 -85 169
-103 213 -120 295 -30 149 -86 301 -177 481 -83 165 -83 165 -68 198 31 64 16
143 -60 320 -59 136 -63 184 -30 373 14 80 34 228 45 330 11 101 34 308 50
459 53 480 54 490 35 599 -19 114 -60 232 -106 304 -122 192 -216 299 -381
436 -67 56 -76 67 -70 88 3 14 6 62 7 106 l1 81 70 35 c65 33 70 39 73 71 2
26 -12 66 -53 152 -30 65 -58 131 -61 147 -4 17 -13 36 -20 42 -8 6 -14 15
-14 19 0 4 38 19 85 34 235 75 469 204 452 249 -3 8 -61 38 -129 67 -170 73
-251 114 -293 151 -30 26 -35 37 -35 74 0 60 -45 229 -74 280 -55 92 -184 194
-322 253 -216 91 -503 108 -723 40 -248 -75 -427 -231 -542 -471 -62 -130 -82
-219 -83 -377 -3 -323 69 -564 215 -723 57 -63 58 -65 41 -86 -16 -20 -30 -21
-197 -27 -221 -6 -268 -14 -470 -76 -185 -56 -358 -94 -506 -108 -57 -6 -116
-13 -130 -16 -25 -5 -28 -1 -44 43 -52 140 -114 259 -236 455 -27 43 -49 80
-49 84 0 3 29 39 65 80 43 50 68 87 75 116 6 24 17 62 26 84 8 23 14 57 14 75
-1 19 2 62 6 96 6 53 4 67 -15 99 -19 31 -20 39 -8 51 7 7 89 54 183 104 208
112 1785 910 1984 1004 80 38 195 101 255 141 179 116 787 473 1086 637 73 40
143 109 166 165 9 20 16 64 16 98 1 73 -25 124 -100 196 -100 97 -138 110
-233 84z m-497 -2883 c-7 -2 -19 -2 -25 0 -7 3 -2 5 12 5 14 0 19 -2 13 -5z
m-60 -10 c-7 -2 -19 -2 -25 0 -7 3 -2 5 12 5 14 0 19 -2 13 -5z m-88 -15 c-66
-8 -260 -9 -309 0 -21 4 51 7 160 7 110 0 177 -3 149 -7z m-3168 -194 c-4
-104 -11 -182 -18 -190 -8 -10 2 -25 46 -66 143 -133 210 -180 838 -589 234
-151 360 -243 439 -318 l68 -63 137 26 c217 41 363 64 567 87 l190 22 122 82
c68 46 181 113 253 149 130 66 318 136 362 135 13 0 -12 -11 -56 -24 -165 -49
-358 -144 -560 -275 -127 -83 -145 -89 -305 -105 -120 -12 -344 -46 -535 -81
l-189 -35 -38 45 c-65 76 -258 211 -771 541 -251 161 -391 263 -500 365 -70
66 -149 157 -104 121 10 -8 20 -12 23 -9 2 3 10 85 16 182 6 97 14 176 16 176
3 0 2 -79 -1 -176z m2637 -184 c-37 -68 -111 -133 -182 -161 -82 -33 -242 -33
-326 -1 -79 29 -94 45 -19 20 96 -33 171 -40 263 -24 122 22 223 92 265 187
10 22 20 37 23 35 2 -3 -9 -28 -24 -56z m-707 -186 c-26 -73 -40 -175 -35
-253 3 -42 2 -65 -2 -51 -12 37 -11 189 0 235 13 47 42 117 47 112 2 -2 -3
-21 -10 -43z m198 -1449 c8 -72 14 -166 14 -210 -2 -73 -3 -68 -14 60 -7 77
-16 174 -20 215 -12 126 3 73 20 -65z m935 -251 c-289 -93 -768 -172 -913
-150 -45 7 -46 8 -53 51 -3 24 -11 49 -18 54 -14 11 -250 38 -496 55 -173 12
-178 13 -82 15 111 1 412 -23 527 -42 l70 -12 9 -40 c4 -22 10 -46 12 -52 5
-18 174 -17 319 2 146 19 467 86 600 124 137 40 153 37 25 -5z m121 -1070 c43
-31 79 -58 79 -60 0 -6 -4 -4 -76 43 -67 42 -189 141 -234 189 -19 20 7 2 58
-40 51 -42 129 -102 173 -132z m-1021 -219 c52 -34 111 -71 130 -83 54 -33 27
-26 -38 10 -109 61 -197 126 -267 199 l-70 73 75 -69 c41 -37 118 -96 170
-130z m945 -366 c-174 -57 -427 -89 -694 -89 -152 0 -359 16 -348 26 2 2 77
-1 167 -7 260 -18 583 8 810 65 115 29 147 31 65 5z m-825 -1122 c177 -112
217 -144 85 -66 -107 62 -295 187 -295 195 0 4 12 -2 28 -12 15 -10 97 -62
182 -117z"/>
</g>
</svg>
