<?xml version="1.0" standalone="no"?>
<!DOCTYPE svg PUBLIC "-//W3C//DTD SVG 20010904//EN"
 "http://www.w3.org/TR/2001/REC-SVG-20010904/DTD/svg10.dtd">
<svg version="1.0" xmlns="http://www.w3.org/2000/svg"
 width="1024.000000pt" height="1536.000000pt" viewBox="0 0 1024.000000 1536.000000"
 preserveAspectRatio="xMidYMid meet">
<metadata>
Created by potrace 1.16, written by Peter Selinger 2001-2019
</metadata>
<g transform="translate(0.000000,1536.000000) scale(0.100000,-0.100000)"
fill="#000000" stroke="none">
<path d="M3993 13190 c-175 -26 -371 -124 -486 -244 -139 -145 -207 -326 -207
-551 0 -58 7 -140 16 -181 17 -85 101 -328 145 -419 50 -107 125 -176 207
-193 34 -7 38 -11 45 -52 5 -25 17 -82 28 -127 25 -106 24 -119 -7 -182 -33
-65 -88 -108 -152 -116 -218 -28 -351 -83 -607 -250 -60 -40 -171 -103 -245
-142 -74 -39 -180 -97 -235 -128 -185 -108 -182 -107 -240 -54 -74 69 -131
181 -217 429 -55 158 -88 270 -88 302 0 16 17 51 40 84 69 99 95 224 69 329
-11 44 -11 45 28 89 135 153 116 425 -36 527 -36 24 -62 51 -76 79 -41 80
-112 93 -189 34 -30 -23 -45 -41 -42 -50 4 -10 -9 -6 -38 11 -62 36 -116 34
-150 -6 -18 -21 -26 -42 -26 -69 0 -31 -9 -48 -45 -91 -33 -39 -52 -75 -75
-143 -16 -50 -30 -101 -30 -113 0 -12 -9 -37 -20 -56 -27 -46 -60 -179 -60
-241 0 -84 27 -173 91 -300 l60 -120 10 -325 c13 -456 42 -681 114 -904 79
-242 148 -322 330 -380 58 -18 91 -22 195 -21 111 1 227 17 282 39 14 6 22 -4
41 -47 33 -73 68 -92 167 -91 108 0 269 47 658 191 58 22 84 27 87 19 87 -260
253 -640 401 -917 l82 -155 -5 -196 c-5 -180 -4 -201 15 -265 26 -84 66 -135
140 -177 l56 -31 -32 -8 c-18 -5 -50 -27 -72 -49 -54 -56 -80 -130 -80 -228 0
-72 -3 -83 -35 -137 -20 -33 -51 -107 -69 -165 -30 -96 -44 -121 -143 -265
-279 -403 -586 -922 -708 -1194 -110 -247 -108 -243 -183 -307 -38 -34 -87
-66 -108 -73 -51 -16 -78 -42 -98 -94 -18 -46 -8 -39 -261 -184 -306 -176
-410 -272 -639 -592 -185 -258 -333 -405 -486 -485 -80 -43 -97 -63 -135 -158
-22 -54 -36 -73 -77 -104 -66 -50 -100 -100 -189 -273 -74 -145 -74 -145 -229
-305 -163 -168 -203 -221 -247 -326 -23 -55 -27 -78 -27 -169 -1 -91 2 -111
23 -153 32 -66 65 -102 120 -135 l46 -27 515 -7 c283 -3 551 -9 594 -12 105
-9 4893 -8 6036 0 l895 7 40 -22 c47 -25 75 -26 141 -6 70 21 129 19 257 -10
151 -35 198 -50 291 -97 71 -35 85 -39 135 -35 31 2 76 10 101 17 57 15 142 7
204 -20 62 -26 65 -26 105 10 31 29 36 30 95 24 93 -10 156 27 191 109 56 136
-32 288 -220 377 -231 108 -208 92 -397 282 -118 118 -179 187 -183 205 -3 16
-20 62 -37 103 -17 41 -52 138 -78 215 -60 176 -72 207 -155 385 -81 174 -113
265 -165 470 -22 85 -66 238 -99 340 -32 102 -80 259 -106 350 -67 241 -123
404 -152 447 -26 38 -36 67 -93 253 -46 151 -116 324 -162 400 -64 106 -114
164 -232 272 -61 56 -221 211 -356 343 -275 271 -416 401 -606 556 -151 124
-393 307 -464 351 -42 26 -50 36 -50 60 0 48 -27 91 -78 124 -42 28 -51 39
-66 90 -10 33 -38 94 -62 137 l-43 78 24 74 c28 81 33 188 13 246 -6 18 -28
63 -49 100 -37 66 -51 119 -64 249 -35 347 -89 755 -159 1195 -43 269 -51 361
-37 397 24 63 297 151 631 203 63 10 106 30 124 57 8 12 20 64 26 113 15 123
23 130 143 129 117 -1 168 -18 397 -133 276 -140 504 -279 636 -389 33 -27 69
-54 82 -61 22 -11 19 -14 -48 -47 -71 -36 -175 -121 -184 -152 -3 -10 -41 -47
-83 -82 -124 -103 -181 -159 -208 -205 -14 -25 -43 -53 -68 -68 -48 -28 -117
-99 -140 -143 -8 -16 -39 -49 -67 -73 -29 -24 -61 -63 -71 -85 -51 -112 6
-339 138 -550 133 -213 172 -256 255 -281 47 -14 62 -13 190 5 288 42 478 134
640 309 117 127 195 286 267 545 64 226 74 386 35 541 -19 73 -36 106 -84 167
-30 38 -39 60 -45 105 -12 99 -79 228 -155 298 -18 17 -142 149 -275 295 -276
302 -317 342 -503 486 -205 159 -335 213 -561 233 -136 12 -482 15 -1041 8
-406 -4 -454 -7 -550 -27 -174 -36 -366 -116 -464 -193 -22 -17 -64 -70 -95
-117 -63 -97 -126 -176 -148 -184 -8 -4 5 16 29 43 57 64 101 140 135 231 27
73 28 80 27 280 0 166 -5 229 -23 329 -12 68 -26 132 -31 142 -10 18 -1 22
138 59 68 18 195 74 246 109 123 85 114 188 -21 227 -60 18 -231 23 -338 11
l-70 -8 -14 48 c-62 208 -216 356 -417 398 -73 16 -270 18 -361 5z m742 -860
c-38 -10 -79 -18 -90 -18 -11 0 12 8 50 18 39 10 79 18 90 18 11 0 -11 -8 -50
-18z m-118 -26 c-3 -3 -12 -4 -19 -1 -8 3 -5 6 6 6 11 1 17 -2 13 -5z m-428
-40 c8 -7 -144 -2 -174 6 -16 4 15 5 70 2 55 -2 102 -6 104 -8z m-549 -99
c-57 -19 -106 -32 -108 -30 -5 5 179 64 198 64 8 -1 -32 -16 -90 -34z m-1901
-401 c-14 -17 -118 -68 -125 -61 -2 2 15 12 38 22 24 11 54 27 67 37 29 22 38
23 20 2z m2810 -504 c-21 -12 -202 -42 -231 -38 -12 2 20 9 72 17 52 7 109 17
125 21 41 11 53 11 34 0z m1938 -117 c-2 -16 -4 -3 -4 27 0 30 2 43 4 28 2
-16 2 -40 0 -55z m-2596 -271 c25 -62 53 -106 108 -166 l36 -39 -32 23 c-84
60 -148 187 -157 310 l-6 75 14 -73 c8 -41 25 -99 37 -130z m443 46 c-91 -134
-98 -143 -54 -63 32 57 116 175 126 175 2 0 -30 -51 -72 -112z m-2123 -547
c-16 -29 -162 -181 -174 -181 -8 0 169 195 181 199 1 1 -2 -8 -7 -18z m1084
-438 c14 -47 23 -88 21 -90 -2 -3 -16 35 -31 84 -15 48 -31 101 -36 117 -5 16
-9 32 -8 35 2 13 31 -64 54 -146z m4955 21 c72 -8 181 -32 154 -33 -32 -1
-276 37 -283 45 -3 3 12 4 34 1 22 -4 65 -9 95 -13z m-3460 -1374 c19 -11 31
-19 25 -19 -5 0 -26 8 -45 19 -19 11 -30 19 -25 19 6 0 26 -8 45 -19z m225
-86 c83 -28 195 -62 250 -75 55 -12 94 -24 88 -26 -33 -11 -395 96 -480 142
-26 14 -39 23 -28 19 11 -4 88 -31 170 -60z m392 -110 c-3 -3 -12 -4 -19 -1
-8 3 -5 6 6 6 11 1 17 -2 13 -5z m50 -10 c-3 -3 -12 -4 -19 -1 -8 3 -5 6 6 6
11 1 17 -2 13 -5z m241 -239 c-12 -12 -242 -88 -347 -115 -125 -32 -360 -74
-368 -67 -2 3 29 10 69 17 147 24 347 73 488 120 145 48 168 54 158 45z
m-1283 -164 c72 -11 115 -19 97 -20 -36 -1 -233 27 -241 34 -6 7 -4 6 144 -14z
m218 -28 c-13 -2 -35 -2 -50 0 -16 2 -5 4 22 4 28 0 40 -2 28 -4z m217 -63 c0
-33 -4 -60 -9 -60 -4 0 -13 27 -18 60 -9 55 -8 60 9 60 15 0 18 -9 18 -60z
m1160 -145 c0 -2 -10 -9 -22 -15 -22 -11 -22 -10 -4 4 21 17 26 19 26 11z
m-60 -39 c0 -2 -28 -20 -62 -41 -74 -45 -165 -114 -262 -199 -38 -34 -65 -54
-60 -45 20 36 200 179 305 244 73 45 79 48 79 41z m-483 -1281 c62 -15 327
-110 568 -205 72 -28 247 -96 389 -152 289 -111 528 -208 589 -240 23 -11 75
-53 116 -92 42 -40 101 -91 132 -113 l56 -41 32 -159 c90 -430 198 -708 408
-1043 111 -178 134 -224 223 -439 83 -202 121 -316 155 -465 32 -143 53 -215
72 -245 11 -18 16 -63 18 -196 5 -246 27 -328 109 -413 l41 -44 -135 7 c-74 3
-301 10 -505 15 -203 6 -539 15 -746 20 -449 13 -5219 18 -5764 7 -295 -6
-376 -5 -360 4 69 41 146 130 293 339 194 275 367 496 404 516 13 7 48 17 78
24 80 18 152 53 198 94 34 31 46 53 73 134 22 65 41 105 59 122 15 14 99 70
186 124 209 130 390 259 544 387 182 151 196 161 300 219 219 121 306 195 597
501 319 338 315 333 448 459 359 339 850 721 1063 829 116 59 239 74 359 46z"/>
</g>
</svg>
