<?xml version="1.0" standalone="no"?>
<!DOCTYPE svg PUBLIC "-//W3C//DTD SVG 20010904//EN"
 "http://www.w3.org/TR/2001/REC-SVG-20010904/DTD/svg10.dtd">
<svg version="1.0" xmlns="http://www.w3.org/2000/svg"
 width="1024.000000pt" height="1024.000000pt" viewBox="0 0 1024.000000 1024.000000"
 preserveAspectRatio="xMidYMid meet">
<metadata>
Created by potrace 1.16, written by Peter Selinger 2001-2019
</metadata>
<g transform="translate(0.000000,1024.000000) scale(0.100000,-0.100000)"
fill="#000000" stroke="none">
<path d="M2875 9209 c-243 -23 -472 -159 -581 -344 -24 -42 -53 -153 -74 -284
-10 -63 -16 -75 -39 -88 -14 -8 -80 -44 -146 -80 -145 -79 -185 -108 -185
-133 0 -25 38 -35 210 -54 218 -25 402 -36 610 -37 l195 -2 -120 -9 c-114 -8
-315 -4 -435 9 l-55 6 23 -25 c13 -14 27 -41 33 -60 8 -32 4 -49 -46 -168 -33
-78 -53 -139 -50 -150 3 -10 35 -37 70 -60 56 -35 65 -44 65 -70 0 -21 9 -36
33 -54 27 -21 33 -31 29 -54 -3 -23 3 -33 32 -56 27 -20 36 -35 36 -56 0 -66
35 -108 135 -162 53 -29 69 -33 135 -33 80 1 152 26 222 78 41 30 58 40 58 33
0 -3 -20 -19 -45 -37 -25 -18 -45 -38 -45 -45 0 -15 116 -113 275 -234 122
-93 140 -107 109 -92 -59 31 -331 245 -374 295 l-25 29 -65 -22 c-130 -44
-246 -15 -348 87 -29 29 -61 53 -71 53 -27 0 -215 -200 -276 -294 -87 -133
-142 -270 -206 -511 -17 -66 -51 -172 -76 -235 -139 -356 -134 -339 -119 -369
14 -26 12 -31 -37 -112 -29 -47 -84 -132 -123 -189 -39 -58 -81 -124 -92 -146
-35 -69 -61 -180 -82 -349 -31 -249 -37 -273 -80 -330 -20 -27 -43 -67 -49
-87 -8 -24 -24 -45 -45 -58 -19 -11 -52 -40 -75 -65 -33 -35 -41 -52 -41 -81
0 -21 -7 -45 -16 -55 -52 -58 -58 -184 -14 -297 37 -94 43 -101 105 -141 55
-35 113 -41 139 -15 23 23 30 62 15 82 -11 14 -11 15 1 4 21 -19 54 -14 77 11
37 41 36 56 -6 98 -45 45 -41 50 11 14 47 -32 61 -31 99 3 29 26 31 31 19 53
-7 13 -21 34 -32 45 -19 21 -19 22 4 47 24 27 73 40 267 68 55 8 80 17 98 35
52 52 11 130 -95 180 -31 15 -59 29 -61 30 -2 2 12 16 30 31 81 66 175 163
219 226 48 67 76 135 124 297 21 70 45 115 136 255 l110 170 -63 18 c-91 26
-298 99 -294 104 2 2 60 -14 128 -36 280 -89 320 -96 357 -63 44 39 132 154
206 272 90 141 151 211 213 241 l42 20 -89 100 c-87 97 -168 198 -184 229 -5
8 5 -1 20 -20 353 -431 598 -627 1094 -875 117 -59 171 -94 280 -185 93 -78
164 -117 243 -135 45 -10 52 -15 53 -36 2 -44 4 -48 34 -82 l30 -34 -87 -69
c-243 -192 -685 -674 -762 -830 -107 -214 -68 -435 107 -606 37 -36 225 -182
417 -324 385 -284 566 -423 755 -583 138 -117 394 -347 453 -408 l37 -39 -30
-22 c-36 -27 -37 -43 -7 -112 l24 -53 -25 -86 c-27 -96 -60 -146 -177 -272
-111 -120 -179 -207 -192 -244 -23 -66 -27 -149 -9 -183 22 -42 37 -48 134
-57 68 -6 82 -10 82 -24 0 -24 20 -41 50 -41 33 0 44 8 63 46 14 27 24 33 64
39 26 4 85 18 131 31 61 18 88 22 102 14 10 -5 32 -10 49 -10 27 0 31 4 37 35
9 51 75 89 137 80 51 -8 70 8 71 60 1 28 17 49 108 143 97 99 109 108 125 96
26 -20 47 -17 72 10 15 16 21 31 17 43 -8 26 63 96 84 83 26 -17 64 -11 78 11
10 15 12 38 7 79 -4 38 -3 66 5 80 10 19 8 28 -18 66 -17 24 -34 60 -38 81
-18 95 -92 206 -203 301 -72 63 -119 92 -145 92 -8 0 -23 -12 -33 -26 l-19
-26 -62 71 c-187 217 -354 456 -467 670 -141 269 -255 421 -414 555 -114 96
-146 117 -206 138 l-50 18 45 -2 c56 -1 91 10 256 83 385 169 703 353 889 514
39 33 104 88 145 121 183 149 238 243 276 464 23 141 16 410 -15 525 -64 241
-203 450 -388 582 -63 45 -72 56 -53 68 6 3 10 19 10 34 0 40 -51 95 -216 232
-166 139 -214 192 -214 238 0 30 -2 31 -40 31 -22 0 -119 -14 -216 -30 -98
-17 -182 -29 -187 -27 -21 7 344 71 533 93 220 26 253 35 276 70 14 20 13 28
-2 76 -13 41 -17 97 -19 248 l-3 195 8 -180 c7 -157 19 -257 32 -271 3 -2 38
3 79 12 77 17 200 14 268 -6 19 -5 77 -43 130 -83 142 -109 173 -128 392 -248
218 -119 289 -164 383 -243 34 -28 96 -80 138 -114 57 -47 80 -72 87 -97 5
-20 21 -49 35 -66 14 -17 26 -36 26 -43 0 -7 13 -32 28 -57 20 -31 35 -78 51
-164 26 -133 44 -182 87 -236 36 -44 104 -194 104 -227 0 -27 20 -42 55 -42
38 0 62 24 76 73 12 43 -9 154 -40 215 -12 23 -21 44 -21 47 0 9 163 -116 295
-227 140 -118 224 -178 250 -178 25 0 75 55 75 83 0 19 -24 45 -107 115 -107
90 -234 212 -220 212 4 0 49 -39 99 -86 144 -135 304 -257 328 -249 23 7 70
61 70 81 0 7 -62 65 -138 128 -76 63 -160 141 -187 173 -48 57 -47 57 31 -18
114 -109 274 -241 287 -236 7 2 18 15 26 29 22 39 0 79 -104 188 -51 54 -65
72 -33 43 31 -29 63 -53 70 -53 21 0 38 21 38 49 0 39 -100 161 -208 254 -54
47 -118 105 -143 129 -60 60 -156 134 -264 203 -52 33 -135 101 -195 159 -58
56 -130 120 -161 143 -30 22 -115 105 -189 184 -244 261 -342 354 -593 555
-318 254 -327 260 -406 284 -69 21 -253 40 -382 40 -63 0 -81 4 -104 22 -24
19 -50 23 -199 35 -94 7 -297 29 -451 49 -653 83 -644 83 -869 59 -77 -8 -223
-19 -325 -25 -102 -6 -203 -15 -223 -21 -23 -6 -58 -30 -90 -62 -52 -51 -239
-191 -301 -225 -50 -27 -199 -24 -254 6 -110 58 -163 141 -162 252 0 36 7 83
14 105 l14 40 -7 -40 c-14 -81 -7 -178 15 -221 27 -51 82 -100 142 -127 64
-29 170 -29 231 0 71 33 280 195 339 264 52 58 56 67 68 143 7 45 16 153 19
241 5 139 3 173 -15 260 -46 223 -181 410 -370 509 -159 83 -359 122 -536 105z
m865 -1794 c-6 -33 -27 -92 -46 -132 -32 -68 -141 -224 -167 -240 -6 -4 -1 6
11 22 66 86 142 210 167 276 28 73 29 78 34 334 l6 260 3 -230 c2 -142 -1
-253 -8 -290z m1744 -1346 c-83 -88 -695 -563 -829 -644 -53 -33 -13 0 105 85
128 93 630 486 700 549 54 48 65 53 24 10z"/>
<path d="M6114 4812 c-264 -240 -486 -391 -827 -563 l-178 -90 30 -37 c32 -41
203 -229 435 -481 83 -90 208 -212 279 -273 106 -90 132 -119 157 -169 67
-132 148 -192 345 -253 77 -24 156 -47 175 -51 19 -4 87 -34 150 -65 239 -120
357 -165 878 -334 223 -73 284 -98 449 -188 l112 -60 -22 -30 c-25 -34 -23
-40 60 -137 40 -47 57 -77 74 -134 11 -39 32 -98 45 -129 18 -42 24 -76 24
-129 l0 -71 -99 -102 c-132 -136 -149 -173 -117 -250 18 -42 51 -66 93 -66 26
0 36 -5 43 -25 12 -31 51 -33 95 -7 17 11 52 21 77 24 40 5 48 3 53 -13 16
-50 71 -40 109 19 15 24 37 44 56 50 17 6 45 21 63 34 17 12 39 21 49 20 9 -2
27 2 38 8 17 9 21 19 19 60 -2 34 3 55 14 67 8 10 20 30 26 46 8 20 17 27 36
27 35 0 41 23 15 61 -21 29 -22 38 -16 123 9 120 50 341 70 371 10 15 27 25
48 27 33 3 33 3 30 53 -4 64 40 155 75 155 12 0 25 4 28 10 3 5 -8 55 -26 110
-28 89 -37 104 -79 142 -134 122 -206 164 -374 220 -77 25 -102 30 -124 22
-19 -7 -27 -17 -26 -33 1 -19 -3 -21 -23 -16 -13 3 -165 76 -336 161 l-312
155 -115 118 c-203 207 -405 325 -835 487 l-140 53 -19 53 c-107 300 -333 768
-479 991 -28 42 -53 77 -57 77 -3 0 -23 -17 -46 -38z"/>
</g>
</svg>
