<?xml version="1.0" standalone="no"?>
<!DOCTYPE svg PUBLIC "-//W3C//DTD SVG 20010904//EN"
 "http://www.w3.org/TR/2001/REC-SVG-20010904/DTD/svg10.dtd">
<svg version="1.0" xmlns="http://www.w3.org/2000/svg"
 width="1024.000000pt" height="1024.000000pt" viewBox="0 0 1024.000000 1024.000000"
 preserveAspectRatio="xMidYMid meet">
<metadata>
Created by potrace 1.16, written by Peter Selinger 2001-2019
</metadata>
<g transform="translate(0.000000,1024.000000) scale(0.100000,-0.100000)"
fill="#000000" stroke="none">
<path d="M5095 8659 c-372 -30 -734 -108 -1030 -220 -60 -23 -152 -55 -204
-71 -109 -34 -142 -54 -271 -158 -52 -42 -129 -101 -170 -131 -253 -181 -414
-356 -520 -568 -46 -93 -107 -283 -121 -379 -18 -127 -7 -325 25 -446 28 -108
111 -290 175 -384 49 -72 66 -116 136 -349 140 -468 198 -631 324 -910 77
-170 294 -713 288 -719 -1 -1 -20 4 -42 12 -70 24 -226 53 -330 60 -193 12
-365 -21 -580 -113 -301 -127 -463 -174 -695 -198 -422 -44 -504 -56 -727
-101 -32 -6 -48 9 -20 19 27 10 -14 31 -71 35 -91 6 -202 -21 -327 -82 -60
-30 -127 -59 -147 -66 -21 -6 -60 -32 -88 -57 -73 -66 -86 -114 -66 -263 11
-90 20 -121 43 -159 30 -48 188 -451 218 -555 23 -78 17 -244 -10 -298 -18
-36 -18 -38 0 -58 14 -16 17 -30 12 -74 -6 -60 5 -79 54 -91 37 -9 74 -50 109
-123 35 -72 64 -92 106 -73 34 15 57 7 75 -25 22 -43 59 -62 118 -62 34 -1 62
-7 79 -19 20 -13 47 -18 97 -18 39 -1 100 -6 137 -13 113 -21 175 16 185 111
8 68 -10 108 -80 172 -116 107 -189 180 -199 199 -13 24 -40 180 -40 229 0 22
11 61 26 89 14 27 26 64 26 81 0 19 12 47 30 71 16 21 32 52 36 69 3 17 24 58
45 91 21 34 46 76 56 93 16 31 16 34 -3 54 -10 11 -32 26 -48 33 l-29 11 54
36 c86 57 109 66 225 89 193 38 434 47 733 27 289 -19 290 -19 357 43 57 52
107 76 222 106 117 30 146 47 283 161 424 353 484 411 703 673 227 272 404
450 514 513 95 56 96 59 63 181 -10 39 -22 86 -25 104 l-6 34 43 -7 c77 -12
360 -84 482 -123 l120 -39 -100 5 c-89 4 -111 1 -189 -22 -88 -27 -336 -138
-411 -184 -97 -59 -277 -247 -495 -512 -173 -211 -328 -359 -565 -541 -60 -46
-148 -114 -193 -152 -100 -81 -114 -89 -215 -116 -147 -40 -168 -56 -371 -285
-216 -244 -266 -318 -266 -396 0 -118 139 -248 494 -465 171 -105 322 -254
386 -383 19 -38 47 -74 76 -98 25 -21 52 -51 60 -66 20 -38 67 -59 108 -47 50
15 69 11 126 -26 53 -34 103 -45 115 -25 11 18 104 11 173 -13 59 -21 70 -22
97 -10 22 10 59 11 143 7 141 -8 187 3 246 61 48 46 61 84 51 145 -14 84 -86
150 -217 199 -124 46 -147 62 -214 141 -58 68 -161 254 -198 355 -8 22 -26 67
-40 100 -36 83 -34 130 9 215 19 38 35 76 35 85 0 8 -18 34 -40 56 -52 54 -52
81 1 151 92 125 356 284 834 503 375 172 535 268 730 440 158 139 206 174 340
250 237 134 330 193 350 219 39 54 21 247 -64 666 -16 80 -37 201 -46 270 -24
190 -28 199 -111 294 -131 150 -365 385 -507 509 -217 190 -336 276 -639 461
-168 102 -78 63 237 -105 321 -169 671 -294 926 -330 l86 -12 1 -266 c1 -321
14 -452 82 -801 72 -371 80 -425 89 -635 8 -173 15 -217 71 -500 81 -406 101
-491 162 -670 73 -217 147 -385 344 -785 194 -394 204 -424 204 -608 0 -82 5
-110 30 -182 17 -46 30 -97 30 -112 0 -46 -54 -140 -125 -218 l-67 -72 23 -24
c29 -31 71 -31 136 2 62 30 161 132 192 198 13 25 24 46 25 46 7 0 -2 -154
-14 -234 -14 -88 -13 -89 9 -107 30 -25 51 -24 92 4 51 34 86 101 116 222 15
61 29 112 31 114 5 8 60 -61 131 -164 80 -116 105 -142 152 -155 49 -14 57
-13 84 15 40 39 33 77 -40 221 -36 71 -65 130 -65 132 0 10 40 -47 84 -119 48
-80 118 -153 162 -169 14 -6 39 -10 56 -10 33 0 118 36 118 50 0 4 -28 28 -63
54 -93 68 -185 187 -292 379 -27 48 -89 138 -138 200 -95 119 -200 274 -242
357 -33 66 -79 226 -153 540 -97 409 -143 691 -162 1007 -12 192 -25 253 -87
403 -52 125 -83 236 -83 297 0 30 11 109 25 176 53 255 57 292 62 711 l5 400
50 64 c162 211 249 571 208 856 -13 85 -63 241 -92 281 l-21 30 25 -23 c33
-30 83 -130 104 -207 42 -159 25 -425 -41 -629 -41 -128 -76 -198 -149 -299
l-56 -78 0 -207 c0 -234 -15 -589 -30 -702 -6 -41 -20 -124 -31 -185 -34 -176
-26 -249 50 -476 67 -197 167 -452 251 -639 71 -160 262 -529 354 -685 43 -71
98 -173 124 -225 l47 -95 6 -150 c5 -149 6 -151 50 -260 37 -92 44 -120 43
-170 -2 -57 -44 -207 -65 -229 -32 -35 39 -35 109 0 80 40 134 100 189 212 0
2 19 -16 41 -40 22 -24 59 -53 82 -66 l41 -22 24 28 c14 15 28 44 31 65 4 20
11 40 15 43 5 3 6 10 3 16 -10 15 31 -9 132 -78 113 -77 181 -97 235 -68 l34
18 -27 10 c-16 5 -28 14 -28 18 0 5 9 4 19 -2 49 -26 201 -1 201 33 0 7 -29
30 -64 51 -87 51 -189 137 -236 199 -22 29 -72 95 -112 149 -40 53 -124 151
-186 219 -138 150 -164 200 -221 429 -22 91 -65 257 -96 370 -51 188 -88 373
-145 727 -30 187 -52 258 -134 433 -88 185 -102 238 -116 440 -10 151 -16 198
-60 480 -26 164 -21 230 27 420 27 109 36 170 45 313 13 198 8 188 89 163 110
-34 137 -61 225 -226 36 -69 75 -137 86 -153 28 -39 79 -76 117 -83 28 -6 36
-2 71 35 23 24 40 36 40 27 0 -39 41 -26 103 33 36 34 42 36 105 36 41 0 76 6
90 15 25 16 72 98 72 125 0 23 15 18 31 -11 23 -44 67 -74 107 -74 67 0 73 13
108 220 17 99 29 149 40 157 9 6 42 11 73 11 32 0 74 5 94 11 37 13 97 71 97
95 0 8 17 35 39 61 21 25 44 64 50 86 l12 39 29 -15 c33 -17 106 -20 145 -5
l27 10 -31 35 c-50 57 -43 64 49 44 38 -8 54 -8 65 1 12 10 11 17 -9 44 -63
84 -109 220 -122 362 -7 75 -7 76 14 65 14 -8 29 -8 52 0 l32 12 -41 41 c-31
32 -47 62 -69 128 -28 81 -133 268 -152 268 -4 0 -10 7 -13 14 -4 11 -1 13 11
9 15 -6 15 -5 3 10 -7 9 -19 17 -25 17 -7 0 -28 17 -49 39 -46 48 -183 120
-262 137 -33 7 -85 14 -115 14 -39 0 -51 3 -40 10 8 5 29 10 46 10 31 0 60 21
47 33 -11 12 -118 7 -166 -7 -45 -13 -46 -13 -73 16 -47 48 -168 71 -190 36
-3 -5 2 -15 12 -22 15 -11 0 -14 -102 -18 -104 -4 -126 -8 -171 -31 -77 -40
-164 -117 -223 -199 -30 -40 -88 -113 -129 -163 -42 -49 -100 -123 -129 -162
-30 -40 -56 -73 -58 -73 -2 0 -36 35 -76 78 -102 109 -229 233 -325 313 -340
287 -778 440 -1468 514 -177 19 -688 28 -850 14z m-1234 -859 c152 -199 341
-350 624 -497 146 -76 164 -91 54 -47 -312 126 -594 346 -699 546 -35 68 -32
68 21 -2z m3814 -165 c-13 -121 -71 -446 -78 -439 -15 15 -6 133 19 239 14 61
32 145 41 188 9 42 18 77 21 77 2 0 1 -29 -3 -65z m835 0 c6 -7 -14 -9 -54 -7
-49 3 -73 -1 -104 -17 -69 -35 -127 -122 -139 -206 -8 -58 -21 -68 -16 -12 10
114 66 207 146 243 35 16 150 15 167 -1z m-2453 -540 c23 -39 71 -108 108
-155 94 -119 106 -149 95 -231 -16 -110 -26 -119 -26 -22 1 102 -15 138 -109
256 -75 94 -122 180 -145 272 -29 113 -24 134 9 35 15 -47 46 -117 68 -155z
m-379 -178 c56 -45 18 -30 -45 17 -65 49 -92 77 -118 121 -12 20 7 5 56 -41
41 -39 89 -83 107 -97z m-2443 -798 c11 -17 179 -138 335 -240 342 -225 573
-355 825 -464 195 -84 129 -71 -85 17 -300 123 -624 313 -930 544 -99 75 -182
154 -163 154 7 0 15 -5 18 -11z m-1871 -2644 c13 -19 14 -26 4 -23 -20 7 -67
107 -73 158 -5 41 -3 38 23 -31 16 -43 36 -89 46 -104z m1934 -242 c38 -74
136 -142 252 -173 62 -17 42 -23 -31 -10 -81 15 -146 48 -191 98 -38 43 -79
136 -77 180 1 23 3 22 14 -14 7 -22 22 -58 33 -81z"/>
</g>
</svg>
