<?xml version="1.0" standalone="no"?>
<!DOCTYPE svg PUBLIC "-//W3C//DTD SVG 20010904//EN"
 "http://www.w3.org/TR/2001/REC-SVG-20010904/DTD/svg10.dtd">
<svg version="1.0" xmlns="http://www.w3.org/2000/svg"
 width="1024.000000pt" height="1024.000000pt" viewBox="0 0 1024.000000 1024.000000"
 preserveAspectRatio="xMidYMid meet">
<metadata>
Created by potrace 1.16, written by Peter Selinger 2001-2019
</metadata>
<g transform="translate(0.000000,1024.000000) scale(0.100000,-0.100000)"
fill="#000000" stroke="none">
<path d="M2175 10210 c-9 -29 0 -76 41 -198 19 -57 34 -108 32 -113 -2 -5 -39
45 -83 112 -106 162 -150 211 -184 207 -21 -2 -27 -9 -29 -36 -4 -44 98 -230
217 -394 23 -32 39 -58 35 -58 -4 0 -78 70 -165 156 -138 136 -161 155 -186
152 -25 -3 -28 -6 -27 -41 1 -42 55 -118 189 -267 130 -144 121 -151 -39 -33
-163 122 -214 138 -202 65 4 -29 28 -58 130 -156 111 -109 130 -132 180 -226
64 -118 87 -148 142 -183 22 -13 49 -35 61 -48 24 -27 72 -140 133 -314 174
-501 285 -690 570 -975 173 -173 337 -304 658 -524 174 -121 207 -154 215
-223 5 -44 53 -254 92 -404 8 -30 15 -87 15 -125 0 -41 11 -111 26 -174 15
-58 30 -141 34 -185 22 -225 35 -321 44 -327 6 -4 135 -9 286 -10 174 -1 57
-4 -315 -9 -324 -4 -851 -12 -1170 -18 -893 -17 -1819 -31 -2143 -31 -323 0
-348 -4 -376 -59 -9 -16 -16 -53 -16 -81 0 -43 5 -56 28 -79 l27 -28 1960 -8
c1078 -4 2037 -11 2130 -14 168 -7 167 -8 -120 -10 -159 -2 -293 -3 -297 -2
-18 2 -31 -87 -33 -225 l-2 -152 -56 -68 c-98 -123 -139 -224 -172 -424 -44
-273 -5 -478 179 -938 42 -104 76 -199 76 -211 0 -11 -9 -53 -19 -93 -10 -40
-24 -125 -31 -188 -14 -141 -29 -250 -36 -261 -2 -4 -64 21 -137 56 -156 76
-255 109 -477 164 -91 23 -174 45 -185 50 -13 5 -31 36 -49 86 -24 64 -38 84
-82 122 -28 25 -64 67 -78 93 -49 90 -130 134 -205 112 -63 -19 -122 -82 -216
-229 -90 -142 -248 -368 -335 -483 -66 -85 -156 -267 -176 -355 -34 -147 -1
-240 101 -290 45 -23 64 -26 100 -22 98 14 153 62 272 237 40 58 83 116 96
129 32 29 82 40 184 41 74 0 87 3 149 36 l68 36 56 -17 c178 -56 570 -307 820
-525 140 -122 216 -163 310 -168 94 -6 152 21 232 107 76 80 226 294 279 397
46 88 50 131 15 163 -14 13 -32 39 -41 57 -14 31 -29 39 -61 35 -14 -1 -103
46 -127 67 -10 9 -40 57 -66 107 -26 49 -66 123 -90 163 -23 41 -40 76 -37 79
2 3 26 -27 53 -66 128 -187 153 -219 199 -253 51 -39 79 -47 87 -25 14 40 139
-146 217 -323 22 -52 50 -115 61 -140 18 -40 19 -53 10 -115 -15 -102 -13
-321 3 -408 20 -104 63 -242 96 -307 16 -30 65 -113 110 -185 44 -71 121 -211
170 -310 86 -175 230 -521 230 -552 0 -9 -10 -31 -21 -50 -35 -56 -16 -152 66
-348 19 -44 40 -97 49 -118 l15 -37 158 0 159 0 62 45 c35 25 147 93 250 151
274 154 420 272 473 380 41 86 10 196 -74 258 -46 34 -142 29 -244 -13 -77
-31 -89 -33 -165 -29 -188 11 -301 100 -374 295 -41 109 -76 285 -153 770 -29
181 -50 282 -76 360 -81 244 -86 268 -96 448 -7 142 -13 186 -37 270 -151 513
-272 835 -443 1177 -44 88 -78 162 -75 165 10 10 100 -142 171 -290 40 -84 98
-219 129 -302 31 -82 62 -161 67 -175 10 -23 15 -17 74 100 96 191 254 629
289 802 30 144 13 404 -29 438 -11 9 -9 18 10 53 31 54 42 107 55 253 5 65 17
172 27 237 19 138 -8 128 231 92 92 -13 219 -31 282 -40 63 -8 284 -40 490
-70 1008 -150 1184 -174 1640 -220 378 -37 917 -75 1087 -75 88 0 123 11 93
30 -7 4 -116 24 -244 44 -540 86 -1195 198 -1381 235 -190 38 -285 59 -925
201 -397 89 -626 134 -915 182 -242 40 -254 43 -250 62 3 12 7 77 9 146 3 100
13 163 46 315 56 251 66 312 74 425 13 189 48 291 113 334 21 14 106 49 188
79 257 92 382 163 610 346 72 58 184 148 250 201 181 146 212 184 516 640 211
318 319 464 371 504 20 15 62 31 104 40 39 8 107 32 150 54 43 22 117 52 164
66 93 30 145 58 160 86 22 40 -51 51 -166 25 -36 -9 -68 -14 -70 -12 -3 2 37
25 88 52 173 89 208 114 208 152 0 20 -5 23 -40 23 -23 0 -82 -16 -138 -38
-107 -43 -171 -61 -138 -39 11 6 58 44 105 83 96 78 150 156 121 174 -28 18
-47 10 -178 -69 -179 -109 -190 -110 -111 -17 95 114 117 147 125 185 5 27 3
37 -11 47 -28 21 -83 -14 -210 -136 -124 -118 -156 -140 -209 -140 -64 0 -105
52 -140 181 -21 77 -73 153 -107 157 -43 5 -53 -18 -40 -91 14 -82 14 -217 0
-329 -9 -71 -9 -97 1 -128 11 -34 11 -46 -4 -85 -24 -62 -72 -115 -276 -305
-191 -178 -242 -229 -460 -456 -165 -171 -188 -187 -440 -295 -85 -37 -193
-85 -238 -107 -94 -46 -139 -57 -294 -70 -99 -9 -113 -13 -178 -51 -98 -56
-172 -76 -230 -60 -25 6 -68 14 -97 16 -34 3 -58 11 -69 24 -9 10 -12 19 -6
19 17 0 82 112 82 141 0 15 7 43 15 62 8 20 15 58 15 84 0 26 5 64 10 84 16
57 -3 250 -29 292 -16 26 -21 51 -21 99 0 57 -25 162 -49 208 -5 9 -12 30 -15
47 -4 17 -21 52 -37 78 -17 26 -39 72 -50 101 -22 57 -80 123 -132 147 -47 23
-158 41 -200 33 -46 -9 -48 -32 -4 -41 33 -8 117 -43 117 -49 0 -3 -25 4 -55
15 -61 21 -174 26 -208 8 -11 -7 -40 -13 -64 -15 -62 -4 -143 -57 -240 -158
-63 -65 -84 -95 -93 -128 -6 -24 -17 -65 -24 -93 -41 -144 -45 -207 -20 -261
9 -19 14 -45 12 -59 -14 -70 47 -226 104 -268 17 -12 28 -30 28 -44 0 -13 5
-23 10 -23 6 0 10 -7 10 -15 0 -25 22 -42 47 -37 22 4 23 2 19 -56 -1 -33 0
-66 4 -72 4 -7 3 -30 -3 -51 -11 -45 -33 -55 -98 -46 -32 4 -45 1 -66 -17 -25
-21 -25 -22 -9 -60 9 -22 14 -41 11 -44 -2 -3 -12 12 -20 34 -30 76 -47 101
-78 116 -18 9 -53 31 -78 51 -86 65 -136 83 -279 96 -139 14 -182 30 -276 105
-48 38 -158 106 -274 169 -107 58 -207 115 -222 126 -15 12 -74 92 -132 179
-58 86 -145 207 -193 267 -221 275 -252 314 -296 376 -60 85 -97 165 -97 211
0 21 9 61 20 90 25 69 37 126 49 232 6 48 22 121 36 163 28 81 29 110 3 127
-44 27 -109 -52 -154 -186 -15 -46 -31 -77 -37 -75 -20 6 -95 153 -153 298
-69 171 -89 203 -131 207 -25 2 -33 -1 -38 -18z m3232 -2635 c-9 -61 -43 -138
-74 -167 -27 -24 -24 -16 13 39 19 28 33 69 49 146 9 44 18 31 12 -18z"/>
</g>
</svg>
