<?xml version="1.0" standalone="no"?>
<!DOCTYPE svg PUBLIC "-//W3C//DTD SVG 20010904//EN"
 "http://www.w3.org/TR/2001/REC-SVG-20010904/DTD/svg10.dtd">
<svg version="1.0" xmlns="http://www.w3.org/2000/svg"
 width="1024.000000pt" height="1024.000000pt" viewBox="0 0 1024.000000 1024.000000"
 preserveAspectRatio="xMidYMid meet">
<metadata>
Created by potrace 1.16, written by Peter Selinger 2001-2019
</metadata>
<g transform="translate(0.000000,1024.000000) scale(0.100000,-0.100000)"
fill="#000000" stroke="none">
<path d="M4840 9299 c-54 -8 -302 -78 -540 -152 -288 -89 -584 -206 -1020
-402 -257 -115 -276 -119 -575 -109 -161 5 -228 12 -347 35 -81 16 -160 29
-177 29 -40 0 -65 -25 -51 -51 15 -27 112 -74 214 -102 86 -25 126 -48 126
-73 0 -24 -70 -27 -218 -10 -253 28 -322 20 -322 -36 0 -25 7 -32 43 -48 23
-10 87 -23 142 -30 195 -22 255 -35 255 -55 0 -22 -23 -30 -195 -73 -163 -40
-235 -67 -274 -103 -26 -24 -26 -30 -1 -57 40 -43 40 -43 370 43 101 26 169
31 201 15 42 -23 21 -38 -210 -156 -84 -43 -166 -90 -182 -105 -36 -34 -40
-82 -8 -100 51 -27 123 2 440 175 l66 35 112 -8 c92 -6 116 -11 132 -28 20
-19 20 -20 -17 -104 -47 -109 -57 -196 -25 -228 13 -13 34 -21 56 -21 30 0 35
4 40 28 18 85 26 106 58 164 19 35 54 85 77 111 35 40 48 66 76 163 54 182 55
183 154 225 116 50 516 186 617 210 52 12 166 25 310 34 283 18 381 40 604
135 l71 30 57 -16 c49 -15 66 -27 133 -99 102 -108 249 -230 411 -338 157
-105 245 -149 350 -175 43 -11 88 -29 99 -39 56 -50 88 -176 86 -333 l-1 -105
-7 110 c-9 126 -20 178 -56 255 l-26 55 -105 35 c-59 19 -129 46 -157 60 l-50
25 -94 -94 c-95 -96 -315 -335 -454 -493 -85 -95 -257 -322 -350 -462 -69
-101 -114 -148 -243 -251 -95 -76 -138 -120 -182 -186 -16 -25 -81 -80 -172
-146 -370 -271 -500 -416 -586 -655 -44 -125 -56 -198 -101 -628 -8 -82 -20
-104 -144 -275 -178 -245 -219 -328 -324 -657 -83 -261 -99 -304 -126 -358
-56 -111 -68 -121 -383 -331 -459 -307 -475 -321 -578 -510 -83 -153 -179
-271 -383 -474 -198 -196 -346 -322 -375 -318 -9 2 -34 6 -56 9 -36 5 -47 1
-100 -36 -33 -23 -100 -70 -150 -104 -72 -49 -99 -75 -137 -131 -59 -88 -84
-181 -63 -233 21 -48 97 -144 206 -258 132 -137 194 -238 265 -427 18 -48 44
-103 58 -122 14 -18 26 -42 26 -53 0 -18 38 -62 55 -62 5 0 16 7 25 15 16 14
22 14 60 1 23 -8 48 -23 56 -34 17 -24 88 -39 108 -23 17 14 97 3 111 -15 6
-7 24 -15 42 -19 25 -5 34 -2 42 13 8 14 26 22 68 27 32 4 69 13 83 20 36 19
73 97 65 135 -10 45 -81 93 -209 141 -63 23 -86 49 -86 96 0 18 -4 33 -10 33
-6 0 -10 28 -10 64 0 36 -4 67 -9 70 -9 6 -5 131 4 146 3 5 1 20 -5 34 -7 20
-4 37 15 78 14 29 25 65 25 79 0 15 12 37 30 54 17 16 30 34 30 40 0 7 -18 33
-40 57 l-40 46 69 78 c95 110 334 318 444 387 220 137 278 177 402 273 71 55
198 158 280 228 109 91 165 132 205 147 235 88 363 174 465 312 25 34 159 177
298 317 261 263 431 454 704 790 l158 194 -170 86 c-352 178 -506 296 -614
471 -28 46 -51 88 -51 94 0 5 11 -9 25 -33 38 -66 109 -155 167 -207 71 -64
146 -111 432 -273 396 -223 531 -280 856 -362 113 -29 259 -69 325 -90 151
-48 149 -48 335 -60 244 -16 231 -25 -38 -26 -281 0 -311 -6 -445 -85 -88 -52
-233 -195 -339 -335 -42 -56 -96 -118 -120 -138 -140 -120 -537 -356 -682
-406 -45 -15 -53 -15 -91 -1 -51 18 -106 6 -153 -34 -16 -13 -63 -43 -105 -65
-108 -59 -290 -236 -307 -299 -14 -53 -10 -72 41 -180 35 -76 52 -97 177 -220
146 -145 232 -266 232 -328 0 -17 10 -43 22 -58 14 -17 21 -40 20 -63 -2 -43
21 -72 57 -72 33 0 95 -71 87 -98 -6 -19 2 -33 46 -71 22 -19 30 -21 41 -12
11 9 25 4 63 -23 30 -20 48 -40 46 -50 -4 -21 55 -56 95 -56 34 0 117 -29 109
-38 -3 -2 -1 -13 5 -23 10 -20 57 -26 74 -10 6 5 40 11 77 13 58 3 72 8 99 33
66 62 78 151 31 222 -15 23 -42 57 -59 76 -45 50 -122 156 -144 199 -11 22
-17 48 -14 61 4 15 -2 33 -17 52 -25 33 -27 39 -31 176 -2 62 -7 103 -16 113
-8 10 -10 22 -5 33 4 10 8 23 9 28 0 6 6 20 13 32 7 12 12 27 12 33 0 6 14 31
30 55 34 49 37 71 14 103 -15 22 -15 25 7 49 93 101 404 272 619 341 343 109
781 297 1010 433 41 25 112 58 158 74 218 76 384 213 473 390 76 152 65 239
-53 401 -188 260 -325 416 -458 524 -52 42 -138 117 -190 165 -158 145 -390
291 -755 472 -104 52 -203 107 -220 123 -71 68 -268 175 -425 231 -58 21 -98
38 -90 38 19 1 142 -38 234 -73 38 -14 71 -24 73 -22 2 2 -10 35 -28 72 -24
51 -54 90 -114 151 -83 84 -68 90 22 9 63 -57 110 -129 132 -202 l16 -56 108
-65 c124 -75 113 -76 208 20 33 34 69 59 94 67 62 20 129 56 264 142 178 113
206 126 512 228 430 143 623 247 825 445 51 50 89 83 84 75 -17 -31 -187 -186
-252 -230 -67 -45 -67 -45 -68 -92 0 -58 47 -222 143 -493 97 -273 120 -333
174 -435 60 -116 106 -176 159 -210 60 -38 110 -45 176 -26 104 30 500 275
683 423 55 44 184 162 287 261 103 100 205 190 226 201 22 11 71 29 110 40 94
26 249 88 292 116 19 13 88 40 152 60 135 42 183 70 183 104 0 43 -25 47 -127
22 -125 -31 -202 -39 -196 -20 2 8 83 53 179 101 102 51 190 102 212 123 37
35 38 37 21 56 -30 33 -74 24 -211 -45 -122 -61 -209 -94 -220 -82 -11 11 64
70 202 161 214 142 253 186 205 230 -19 17 -25 17 -58 5 -20 -7 -113 -64 -205
-126 -93 -63 -174 -114 -181 -114 -20 0 52 64 182 160 128 95 156 128 146 167
-14 52 -71 31 -274 -102 -205 -135 -283 -185 -291 -185 -4 0 15 36 41 81 85
140 100 222 47 247 -39 19 -67 -2 -90 -66 -23 -66 -78 -139 -158 -208 -76 -65
-84 -79 -116 -198 -49 -185 -72 -215 -287 -385 -99 -78 -135 -96 -383 -192
-243 -94 -253 -99 -316 -158 -37 -33 -47 -39 -37 -21 7 14 26 40 41 57 38 44
49 90 49 206 0 135 -20 216 -80 318 -30 50 -48 90 -44 99 57 130 67 175 72
330 5 179 -7 260 -44 296 -21 22 -32 24 -116 25 -51 0 -113 4 -138 8 -39 7
-33 9 46 10 50 0 118 4 152 7 l61 7 118 -115 c140 -135 223 -185 295 -175 36
5 51 14 88 56 40 46 49 51 86 51 45 0 59 10 69 52 4 17 17 30 35 37 18 6 30
18 32 33 3 21 7 23 51 20 76 -5 91 11 106 107 21 141 35 174 96 228 46 41 60
63 95 148 23 55 58 148 77 207 l35 106 24 -26 24 -27 20 24 c35 42 20 140 -42
271 -47 99 -130 188 -288 310 -161 124 -321 182 -500 182 -170 -1 -293 -52
-416 -176 -97 -97 -129 -159 -172 -328 -17 -64 -34 -123 -39 -131 -4 -9 -34
-43 -66 -76 l-57 -61 -88 44 c-69 35 -95 54 -125 94 -47 63 -90 95 -173 133
-50 23 -85 50 -157 123 -82 83 -104 99 -197 145 -99 48 -235 90 -343 106 -38
6 -69 23 -155 87 -69 51 -160 105 -257 153 -167 82 -760 320 -815 327 -19 3
-55 1 -80 -3z m3041 -996 c4 -4 -14 -6 -41 -5 -130 10 -232 -124 -216 -282 3
-34 8 -72 11 -86 3 -14 -2 -7 -10 15 -9 22 -17 72 -18 110 -3 118 57 211 161
250 37 14 98 13 113 -2z m-801 -430 c-7 -32 -34 -148 -62 -258 -36 -147 -51
-228 -56 -305 -5 -92 -7 -100 -14 -65 -5 22 -7 63 -4 90 5 53 139 605 144 600
2 -2 -2 -30 -8 -62z m167 -509 c-3 -3 -12 -4 -19 -1 -8 3 -5 6 6 6 11 1 17 -2
13 -5z m-2490 -1310 c-3 -3 -12 -4 -19 -1 -8 3 -5 6 6 6 11 1 17 -2 13 -5z
m-435 -3164 c28 -22 47 -40 42 -40 -21 0 -118 97 -135 134 -31 68 -21 74 12 8
20 -42 46 -74 81 -102z m-3228 -854 c19 -46 86 -118 147 -156 53 -35 65 -49
22 -26 -50 26 -110 74 -137 108 -25 34 -61 108 -51 108 2 0 11 -15 19 -34z"/>
</g>
</svg>
