<?xml version="1.0" standalone="no"?>
<!DOCTYPE svg PUBLIC "-//W3C//DTD SVG 20010904//EN"
 "http://www.w3.org/TR/2001/REC-SVG-20010904/DTD/svg10.dtd">
<svg version="1.0" xmlns="http://www.w3.org/2000/svg"
 width="1024.000000pt" height="1536.000000pt" viewBox="0 0 1024.000000 1536.000000"
 preserveAspectRatio="xMidYMid meet">
<metadata>
Created by potrace 1.16, written by Peter Selinger 2001-2019
</metadata>
<g transform="translate(0.000000,1536.000000) scale(0.100000,-0.100000)"
fill="#000000" stroke="none">
<path d="M5830 13578 l-25 -11 30 -7 c17 -3 41 -13 55 -20 23 -12 24 -14 5
-21 -11 -4 -32 -8 -46 -8 -50 -2 -180 -40 -227 -68 l-47 -28 50 -5 50 -5 -61
-42 c-70 -48 -105 -87 -139 -152 -44 -88 -56 -156 -65 -366 -9 -230 -22 -295
-58 -295 -12 0 -37 7 -53 16 -17 8 -69 19 -115 24 -75 8 -92 14 -144 49 -59
39 -105 54 -210 66 -30 4 -120 20 -200 35 -323 63 -395 55 -780 -78 -150 -53
-228 -68 -445 -87 -432 -38 -593 -90 -910 -294 -225 -144 -407 -301 -735 -630
-157 -158 -313 -308 -347 -333 -34 -25 -97 -60 -140 -78 -91 -38 -546 -339
-638 -423 -69 -63 -108 -123 -87 -136 10 -6 9 -18 -8 -60 -11 -28 -20 -67 -20
-86 0 -31 3 -35 26 -35 19 0 25 -4 21 -14 -3 -8 -9 -42 -13 -74 -6 -56 -5 -61
18 -76 26 -17 56 -13 119 19 l34 17 -43 -45 c-37 -37 -43 -50 -40 -78 2 -29 7
-35 30 -37 45 -5 108 31 213 123 130 114 248 191 369 244 14 6 -32 -57 -77
-107 -97 -108 -100 -213 -6 -228 28 -5 41 -1 67 21 18 15 39 43 49 63 9 20 65
84 124 142 114 111 135 144 184 284 38 107 92 185 194 286 162 161 401 329
736 520 99 56 243 141 320 190 l140 88 104 -9 c263 -21 764 -16 988 9 96 11
84 -2 -14 -17 -152 -21 -299 -31 -484 -31 l-187 0 -67 -86 c-125 -159 -304
-455 -453 -749 -45 -88 -113 -204 -152 -258 -93 -128 -118 -198 -88 -247 11
-17 5 -34 -40 -126 -112 -225 -158 -384 -169 -579 -14 -267 55 -464 222 -630
103 -103 200 -160 370 -216 152 -50 425 -230 660 -434 139 -120 262 -211 385
-284 103 -61 144 -82 439 -223 79 -37 142 -71 139 -73 -6 -6 -88 27 -238 95
-314 142 -381 149 -790 81 -393 -64 -706 -101 -867 -101 -43 0 -79 7 -109 20
-109 50 -200 68 -396 77 -159 7 -206 -4 -257 -63 -40 -45 -54 -100 -55 -214
-1 -109 13 -172 61 -285 47 -110 61 -219 45 -363 -19 -175 -16 -250 13 -308
14 -27 25 -66 25 -87 0 -41 28 -105 66 -150 18 -21 24 -41 24 -75 0 -50 18
-81 58 -101 12 -7 22 -17 22 -24 1 -19 41 -62 84 -91 45 -30 100 -34 134 -10
50 35 56 64 63 299 7 236 17 299 68 428 44 110 78 163 133 209 119 101 131
115 125 153 l-6 34 52 10 c161 33 263 44 392 44 157 0 256 -13 527 -72 297
-64 416 -80 703 -96 281 -16 368 -29 535 -81 101 -32 239 -42 323 -24 97 20
192 75 277 159 226 224 196 433 -129 924 -146 220 -488 657 -584 746 l-26 24
-98 -31 c-155 -49 -315 -88 -296 -73 4 4 35 15 68 25 33 10 213 72 400 138
432 152 514 178 600 184 109 8 113 5 245 -217 122 -207 278 -392 435 -514 44
-35 161 -112 260 -172 472 -288 559 -350 869 -620 71 -62 132 -113 137 -113 4
0 17 -30 28 -67 53 -176 190 -383 300 -454 127 -82 290 6 456 247 143 207 164
228 281 284 132 64 209 132 202 180 -4 24 0 34 16 42 71 38 161 143 149 174
-7 20 27 103 59 144 24 31 27 43 27 110 0 41 4 91 10 110 43 139 -29 280 -142
280 -53 0 -92 -26 -154 -103 -72 -87 -211 -219 -254 -239 -56 -27 -148 -48
-209 -48 -30 -1 -77 -9 -105 -19 -205 -75 -194 -73 -218 -56 -31 21 -51 19
-87 -12 -31 -26 -32 -26 -67 -9 -153 73 -843 764 -1286 1288 -89 105 -187 243
-187 262 0 3 -28 65 -63 138 -119 249 -228 327 -458 328 -47 0 -189 9 -315 20
-291 25 -528 31 -673 19 -63 -5 -118 -8 -123 -7 -4 2 5 22 20 44 15 23 36 66
47 95 37 101 83 133 307 223 316 126 380 172 572 414 53 67 107 129 120 137
34 23 135 55 190 61 56 6 52 8 173 -87 32 -26 112 -77 178 -114 66 -38 174
-102 240 -143 161 -101 326 -178 529 -248 128 -44 189 -70 255 -112 168 -107
217 -136 311 -182 175 -87 228 -104 597 -189 209 -49 344 -111 455 -209 166
-146 212 -170 363 -182 78 -6 125 -17 213 -49 123 -45 192 -52 242 -26 29 15
60 60 60 88 0 8 9 22 20 32 11 10 25 35 31 56 11 34 9 42 -15 84 -70 118 -171
237 -226 265 -51 26 -100 38 -232 55 -237 31 -329 70 -633 272 -99 65 -215
141 -258 169 -43 27 -140 89 -215 137 -171 111 -244 148 -457 232 -203 80
-299 128 -465 235 -69 43 -155 98 -191 120 -71 44 -111 80 -294 269 -66 68
-144 141 -173 163 l-52 39 27 23 c16 12 49 37 76 55 26 18 54 42 61 54 8 12
19 69 26 127 12 111 33 179 75 241 33 50 52 130 60 249 9 131 18 159 74 229
62 78 75 115 69 205 -6 97 -57 196 -149 289 -63 63 -109 88 -95 51 15 -38 18
-64 7 -64 -6 0 -38 27 -71 59 -64 63 -156 125 -204 137 -26 6 -28 5 -21 -17 4
-13 11 -28 16 -33 14 -16 10 -36 -7 -36 -8 0 -35 9 -59 20 -24 11 -68 26 -97
34 -29 8 -87 24 -128 35 -82 23 -217 28 -260 9z m-637 -1428 l5 -105 -13 65
c-15 71 -19 244 -5 180 4 -19 10 -82 13 -140z m-223 23 c-6 -35 -26 -107 -44
-158 -100 -278 -309 -487 -551 -550 -77 -19 -216 -19 -286 1 -63 18 -189 76
-189 86 0 4 37 -6 82 -23 96 -35 201 -59 262 -59 160 0 371 118 503 280 99
124 191 324 219 480 4 25 9 37 12 27 2 -10 -1 -48 -8 -84z m1015 -432 c-11
-10 -55 32 -55 52 1 20 3 19 29 -13 16 -19 28 -37 26 -39z m335 -45 c-16 -20
-92 -56 -116 -56 -10 1 13 16 51 35 83 40 81 39 65 21z m-540 -11 c0 -9 -162
-85 -179 -85 -9 0 25 20 74 44 91 45 105 50 105 41z m11 -221 c-23 -48 -44
-85 -46 -82 -3 3 13 44 36 92 23 48 44 84 47 82 3 -3 -14 -44 -37 -92z m-2431
-1149 c85 -21 228 -73 207 -75 -8 0 -284 84 -312 94 -30 12 21 3 105 -19z
m1179 -29 c-2 -3 -85 -16 -184 -30 -585 -81 -583 -81 -574 -71 8 7 245 45 479
75 208 27 288 35 279 26z m-290 -402 c-19 -132 -21 -174 -15 -369 4 -121 9
-242 12 -270 11 -89 -5 -42 -21 66 -20 126 -22 401 -5 514 15 101 41 218 46
212 3 -3 -5 -71 -17 -153z m-757 -1043 c51 -6 188 -15 303 -21 338 -17 342
-18 80 -14 -235 3 -462 21 -552 44 -35 9 -33 9 19 5 31 -3 98 -9 150 -14z
m1567 -381 c-30 -34 -92 -93 -139 -132 -87 -73 -217 -164 -224 -157 -2 2 44
40 102 84 58 44 151 123 206 176 56 54 103 95 105 94 2 -2 -21 -31 -50 -65z"/>
<path d="M5955 6794 c-1466 -6 -3099 -24 -3110 -35 -6 -6 -10 -106 -10 -278 0
-217 3 -271 14 -285 13 -15 34 -17 188 -14 l173 3 0 -2034 0 -2033 -32 6 c-18
3 -141 19 -273 36 -132 17 -341 44 -465 60 -603 79 -1192 150 -1237 150 -53 0
-192 -24 -231 -40 -22 -10 -22 -12 -20 -157 l3 -148 35 -7 c19 -4 181 -28 360
-53 179 -24 474 -65 655 -90 182 -25 472 -66 645 -90 636 -90 825 -115 868
-115 61 0 110 25 114 58 3 30 5 31 153 61 55 11 217 45 360 75 143 30 382 80
530 111 568 119 1101 230 1815 380 l505 106 135 -11 c74 -7 160 -10 190 -8
l55 3 0 150 c0 142 -1 150 -20 153 -11 1 -30 5 -42 8 l-23 4 0 1770 c0 1409 3
1770 13 1770 63 2 259 20 267 25 16 10 14 452 -2 462 -14 8 -568 11 -1613 7z
m1078 -786 c4 -149 7 -939 7 -1755 l0 -1483 -22 5 c-13 3 -153 16 -313 30
-159 13 -342 29 -405 35 -63 6 -248 22 -410 35 -397 34 -625 53 -745 65 -469
43 -496 45 -585 27 -46 -9 -88 -21 -94 -27 -13 -13 -19 -211 -7 -229 10 -16
154 -31 1006 -106 231 -20 501 -45 600 -54 l180 -17 -90 -17 c-49 -10 -259
-49 -465 -86 -206 -38 -584 -108 -840 -156 -1234 -228 -1221 -226 -1294 -223
l-71 3 0 2069 c0 1401 3 2069 10 2071 10 3 232 8 1855 41 627 13 1537 36 1651
43 l26 1 6 -272z"/>
</g>
</svg>
