<?xml version="1.0" standalone="no"?>
<!DOCTYPE svg PUBLIC "-//W3C//DTD SVG 20010904//EN"
 "http://www.w3.org/TR/2001/REC-SVG-20010904/DTD/svg10.dtd">
<svg version="1.0" xmlns="http://www.w3.org/2000/svg"
 width="1024.000000pt" height="1536.000000pt" viewBox="0 0 1024.000000 1536.000000"
 preserveAspectRatio="xMidYMid meet">
<metadata>
Created by potrace 1.16, written by Peter Selinger 2001-2019
</metadata>
<g transform="translate(0.000000,1536.000000) scale(0.100000,-0.100000)"
fill="#000000" stroke="none">
<path d="M5279 13806 c-147 -43 -311 -176 -381 -311 -61 -118 -73 -177 -72
-365 1 -152 4 -174 33 -280 63 -232 73 -294 68 -425 -3 -82 -11 -140 -25 -184
-23 -71 -84 -167 -112 -176 -10 -3 -47 -1 -83 5 -51 9 -92 8 -203 -5 -76 -9
-233 -22 -349 -30 -157 -11 -226 -19 -273 -35 -137 -45 -208 -85 -313 -175
-61 -52 -95 -69 -189 -95 -209 -56 -401 -148 -506 -242 -118 -106 -211 -161
-417 -246 -179 -75 -261 -148 -333 -297 -40 -85 -59 -155 -78 -294 -35 -252
-40 -384 -28 -645 20 -413 13 -710 -24 -1068 -21 -202 -14 -292 30 -391 31
-72 96 -142 149 -161 61 -23 467 -18 512 6 55 29 95 95 95 157 0 18 11 40 28
59 35 38 52 92 52 169 0 114 -45 212 -150 328 -77 85 -138 172 -150 213 -14
52 -12 198 5 322 15 111 43 214 130 480 71 214 83 270 91 418 l7 122 36 0 c20
0 83 9 141 21 58 11 159 24 225 29 66 5 185 23 264 40 135 28 363 61 421 59
18 0 13 -4 -19 -14 -54 -17 -61 -28 -55 -80 2 -22 13 -139 25 -260 11 -121 31
-278 45 -350 42 -221 42 -314 -1 -635 -8 -58 -21 -163 -30 -235 -8 -71 -30
-186 -49 -255 -47 -173 -49 -185 -47 -274 1 -73 -2 -86 -39 -167 -61 -132 -90
-258 -97 -419 -8 -179 7 -278 66 -456 l49 -146 -78 -154 c-95 -186 -109 -224
-165 -429 -24 -88 -70 -223 -103 -300 -55 -129 -92 -253 -92 -306 0 -12 -16
-56 -35 -98 -23 -53 -42 -119 -59 -216 -29 -159 -55 -272 -67 -296 -5 -9 -37
-31 -71 -49 -88 -46 -262 -163 -408 -275 -179 -137 -240 -226 -325 -474 -66
-191 -128 -332 -212 -481 -42 -74 -89 -160 -106 -190 -17 -30 -49 -82 -71
-115 -47 -72 -261 -348 -282 -366 -8 -7 -43 -13 -77 -14 -74 -2 -119 -23 -197
-92 -30 -27 -100 -81 -155 -120 -106 -75 -208 -174 -225 -218 -36 -96 31 -228
250 -490 51 -60 103 -134 117 -162 15 -32 34 -108 48 -197 36 -212 73 -294
194 -419 119 -125 319 -227 525 -267 108 -22 183 10 222 94 53 114 18 205
-155 401 -104 117 -110 141 -92 358 20 245 36 350 67 445 22 67 18 126 -12
171 l-25 39 82 138 c115 195 170 271 300 414 119 130 163 177 675 711 171 178
324 339 339 357 15 18 91 86 170 152 141 117 241 221 320 330 21 30 71 93 110
140 38 47 88 108 110 135 22 28 97 109 167 182 141 147 253 282 320 388 61 94
228 408 228 427 0 10 -81 57 -232 133 -446 226 -556 290 -717 420 -88 72 -110
97 -33 39 197 -148 435 -274 1417 -745 403 -194 413 -197 480 -143 74 60 99
74 127 74 16 0 118 -38 225 -85 181 -78 224 -100 212 -108 -48 -33 -133 -117
-197 -194 -191 -231 -256 -357 -321 -620 -27 -106 -46 -153 -152 -365 -67
-134 -156 -297 -199 -363 -43 -66 -116 -183 -163 -260 l-85 -140 -44 3 c-35 3
-52 -3 -90 -28 -97 -64 -434 -443 -487 -548 -30 -58 -35 -103 -17 -145 28 -68
161 -192 491 -458 71 -57 192 -163 267 -236 241 -231 335 -287 661 -395 207
-68 283 -79 337 -51 50 26 82 94 81 172 0 108 -46 182 -230 374 -60 63 -120
136 -134 163 -14 27 -37 101 -51 164 -14 63 -33 138 -41 165 -63 201 -83 327
-65 394 10 40 9 50 -11 92 l-22 48 58 133 c93 216 100 226 335 503 533 627
725 865 981 1220 216 300 284 406 305 483 16 57 16 64 -1 114 -34 107 -131
253 -285 433 -142 165 -269 276 -500 435 -74 52 -178 128 -231 169 -53 42
-138 109 -190 150 -204 161 -423 296 -780 480 -153 80 -170 91 -137 91 20 0
43 3 52 6 30 11 57 130 66 284 10 169 31 313 58 390 25 71 182 431 232 529 49
99 183 449 259 676 65 196 111 376 135 525 33 205 34 207 35 170 3 -104 -56
-425 -100 -544 l-29 -79 24 -32 c14 -18 47 -42 73 -55 27 -12 67 -44 92 -71
24 -27 62 -59 85 -71 50 -25 80 -48 216 -159 290 -237 418 -305 560 -297 57 3
77 9 112 34 135 94 307 444 463 941 75 238 121 362 196 523 78 169 99 248 95
356 -4 143 -61 233 -257 406 -102 90 -146 118 -183 118 -42 0 -55 -10 -90 -68
-17 -27 -44 -67 -61 -90 -16 -22 -38 -54 -47 -71 -11 -19 -33 -38 -55 -47
-100 -39 -109 -56 -107 -199 2 -111 11 -140 64 -190 40 -38 78 -111 90 -174
14 -77 -20 -175 -109 -311 -36 -55 -237 -270 -252 -270 -5 0 -22 30 -39 66
-16 36 -43 78 -60 94 -19 17 -30 38 -30 55 0 43 -25 79 -87 122 -120 85 -187
179 -312 436 -89 183 -93 190 -179 276 -102 102 -192 158 -326 201 -110 35
-247 70 -275 70 -12 0 -21 5 -21 10 0 6 46 10 117 10 109 0 118 2 150 26 40
30 63 72 63 113 0 16 9 45 19 63 11 18 25 53 31 78 6 25 22 56 35 70 13 14 37
61 55 105 17 44 43 93 58 108 24 25 27 36 26 95 -1 41 -10 91 -23 127 -28 78
-27 117 5 172 l27 45 -31 91 c-37 111 -49 239 -30 336 11 57 16 66 50 87 75
48 76 105 0 176 -143 134 -420 264 -636 298 -110 17 -396 21 -447 6z m-994
-5186 c256 -19 578 -76 748 -131 109 -36 299 -127 342 -163 28 -24 24 -23 -50
10 -375 169 -622 231 -1055 269 -102 9 -192 17 -200 19 -33 8 83 5 215 -4z
m951 -355 c56 -4 107 -11 115 -17 10 -6 -2 -8 -36 -4 -110 12 -367 16 -487 9
-70 -4 -124 -5 -119 0 9 9 272 25 361 21 36 -2 110 -6 166 -9z"/>
</g>
</svg>
