<?xml version="1.0" standalone="no"?>
<!DOCTYPE svg PUBLIC "-//W3C//DTD SVG 20010904//EN"
 "http://www.w3.org/TR/2001/REC-SVG-20010904/DTD/svg10.dtd">
<svg version="1.0" xmlns="http://www.w3.org/2000/svg"
 width="1024.000000pt" height="1024.000000pt" viewBox="0 0 1024.000000 1024.000000"
 preserveAspectRatio="xMidYMid meet">
<metadata>
Created by potrace 1.16, written by Peter Selinger 2001-2019
</metadata>
<g transform="translate(0.000000,1024.000000) scale(0.100000,-0.100000)"
fill="#000000" stroke="none">
<path d="M6983 9656 c-104 -34 -195 -89 -281 -170 -84 -80 -178 -199 -212
-273 -36 -76 -34 -75 -104 -43 -160 71 -294 103 -516 121 -205 17 -432 -6
-790 -77 -733 -148 -1153 -344 -1755 -817 -205 -162 -418 -319 -580 -427 -138
-93 -138 -92 -383 -452 -88 -130 -138 -237 -172 -371 -39 -156 -48 -318 -26
-487 27 -202 62 -315 188 -609 110 -257 163 -408 214 -611 105 -412 123 -445
221 -395 53 26 351 117 366 112 9 -3 -96 -38 -308 -104 -27 -9 -52 -18 -55
-20 -2 -2 8 -14 23 -26 81 -67 178 -317 218 -559 16 -99 4 -140 -87 -298 -97
-169 -121 -220 -150 -317 -24 -80 -27 -108 -31 -298 -5 -207 -4 -214 36 -470
92 -595 125 -913 125 -1210 -1 -240 -4 -259 -64 -357 -44 -72 -78 -180 -105
-341 -38 -227 -41 -285 -17 -340 12 -28 31 -51 49 -60 15 -8 96 -28 178 -45
151 -31 220 -51 396 -116 153 -56 247 -69 434 -63 305 11 536 77 594 171 37
60 21 151 -34 195 -16 12 -74 35 -129 53 -178 54 -256 108 -321 220 -19 32
-68 100 -108 151 -88 109 -86 105 -142 254 -36 95 -52 124 -84 153 -34 31 -40
43 -46 95 -10 74 1 344 20 531 17 159 40 297 90 529 43 202 71 382 85 555 38
461 37 456 150 575 75 78 301 414 328 488 16 42 22 80 22 140 0 98 -23 154
-101 254 -88 112 -109 152 -109 205 0 36 4 48 15 48 8 0 15 -4 15 -9 0 -5 33
-28 74 -50 131 -72 352 -260 527 -449 103 -110 237 -277 249 -308 15 -38 12
-98 -9 -204 -33 -163 -44 -311 -38 -484 7 -191 29 -325 96 -593 90 -355 131
-601 161 -948 18 -216 14 -273 -24 -384 -36 -103 -76 -279 -101 -448 -29 -193
-16 -260 57 -293 39 -18 68 -20 338 -20 313 -1 311 -1 590 -60 272 -59 577
-51 786 19 144 48 177 85 172 186 -6 107 -57 150 -239 200 -272 75 -397 131
-511 226 -40 34 -99 79 -130 100 -67 46 -98 84 -134 165 -31 71 -60 104 -90
104 -29 0 -38 31 -56 185 -19 165 -16 822 5 1130 9 138 19 376 23 530 4 194
10 296 20 332 9 32 49 104 105 190 125 189 133 208 120 303 -6 41 -15 125 -21
187 -11 135 -28 174 -127 287 -98 113 -118 143 -118 185 0 42 49 148 127 276
417 682 458 760 573 1082 107 301 131 347 240 483 60 75 79 109 135 250 58
146 65 157 165 264 81 87 95 98 145 112 91 25 108 34 152 83 59 65 72 70 148
64 60 -5 68 -3 95 20 29 25 30 28 30 120 0 118 6 128 132 206 111 67 137 101
164 207 21 84 37 104 79 104 51 0 93 39 117 110 15 46 19 70 12 88 -5 13 -9
44 -9 69 0 146 -107 355 -299 584 -115 138 -201 213 -295 259 -149 72 -352 91
-493 46z m-214 -808 c6 -17 9 -33 7 -35 -2 -3 -7 5 -11 16 -13 43 -93 13 -124
-47 -32 -63 -54 -186 -49 -271 5 -70 4 -73 -8 -41 -17 47 -17 173 0 239 20 74
56 124 108 150 57 28 64 27 77 -11z m-530 -92 c27 -61 51 -185 51 -262 0 -169
-107 -458 -213 -577 l-29 -32 22 32 c45 69 130 263 154 353 38 142 42 232 18
375 -12 66 -24 128 -27 138 -15 37 5 15 24 -27z m-1363 -358 c-62 -133 -157
-302 -264 -473 -112 -179 -110 -229 16 -372 63 -73 165 -151 243 -188 65 -30
46 -33 -37 -5 -85 29 -183 107 -251 200 -56 76 -73 92 -73 69 0 -22 -82 -171
-217 -394 -168 -277 -220 -372 -268 -490 -48 -117 -104 -228 -172 -343 -85
-141 -98 -188 -143 -505 -54 -373 -97 -631 -116 -698 -8 -30 -35 -97 -60 -150
-51 -111 -74 -204 -74 -305 0 -39 -4 -96 -10 -125 -10 -58 -102 -297 -108
-281 -2 6 9 39 23 73 59 143 66 172 75 309 10 160 27 235 82 349 62 132 71
176 153 731 30 206 62 398 70 426 19 67 45 121 133 279 39 72 90 173 112 225
70 159 147 310 222 430 232 373 261 429 283 545 19 100 33 128 153 331 54 93
134 234 177 314 43 80 82 151 88 158 25 32 13 -4 -37 -110z m1749 -505 c26
-60 56 -124 68 -143 54 -95 101 -160 113 -160 8 0 14 -4 14 -10 0 -35 -74 22
-114 88 -54 89 -154 332 -137 332 4 0 29 -48 56 -107z m-776 -150 c-107 -157
-397 -483 -504 -565 -35 -28 -33 -24 16 28 155 166 192 205 254 274 36 41 110
128 163 193 53 64 98 117 100 117 2 0 -12 -21 -29 -47z m-2770 -380 c172 -189
397 -370 569 -457 60 -30 66 -45 9 -21 -179 75 -422 265 -586 460 -54 64 -123
157 -100 135 3 -3 52 -56 108 -117z m3291 23 c-8 -7 -76 -51 -150 -97 -261
-161 -276 -176 -326 -323 -14 -39 -58 -127 -99 -196 -157 -265 -228 -481 -280
-845 -29 -201 -50 -290 -93 -384 l-29 -64 -17 54 c-56 171 -219 411 -482 709
-169 193 -183 222 -148 324 30 86 58 105 263 175 297 101 600 226 791 328 58
30 191 106 295 168 280 165 303 178 275 151z m-1250 -374 c-160 -167 -295
-302 -302 -302 -11 0 53 70 211 232 80 81 147 145 150 143 3 -3 -24 -36 -59
-73z m-465 -748 c-27 -71 -87 -179 -208 -369 -123 -193 -238 -394 -318 -559
-56 -113 -79 -152 -79 -132 0 60 159 360 355 667 122 192 211 354 241 440 24
67 30 76 32 52 2 -17 -9 -61 -23 -99z m710 -944 c-3 -5 -6 -53 -6 -105 0 -52
-4 -97 -9 -100 -6 -4 -10 22 -10 67 0 87 9 148 22 148 5 0 6 -4 3 -10z m-555
-130 c-43 -25 -444 -105 -492 -98 -19 2 447 104 492 106 13 1 13 0 0 -8z m582
-330 c16 -85 33 -204 38 -265 9 -134 25 -189 63 -221 35 -30 48 -30 74 -1 28
30 40 75 53 192 6 55 14 114 19 130 8 27 9 25 10 -20 1 -62 -16 -208 -31 -256
-25 -86 -99 -116 -150 -61 -38 40 -48 82 -58 236 -6 76 -19 177 -30 225 -23
100 -38 217 -31 246 4 14 7 9 9 -15 2 -19 17 -105 34 -190z m427 -312 c7 -46
15 -92 17 -103 4 -16 3 -17 -4 -5 -18 30 -47 190 -34 190 5 0 14 -37 21 -82z
m-2114 -155 c-28 -78 -129 -292 -119 -253 3 14 23 63 43 110 21 47 50 115 66
153 15 37 30 66 32 63 2 -2 -8 -35 -22 -73z m165 -125 c-17 -40 -36 -77 -42
-83 -5 -5 -2 8 7 30 9 22 26 64 38 92 12 29 23 49 25 44 2 -5 -11 -42 -28 -83z
m-379 45 c-12 -20 -14 -14 -5 12 4 9 9 14 11 11 3 -2 0 -13 -6 -23z m-44 -103
c-7 -17 -13 -26 -15 -21 -3 10 15 51 22 51 3 0 -1 -14 -7 -30z"/>
</g>
</svg>
