<?xml version="1.0" standalone="no"?>
<!DOCTYPE svg PUBLIC "-//W3C//DTD SVG 20010904//EN"
 "http://www.w3.org/TR/2001/REC-SVG-20010904/DTD/svg10.dtd">
<svg version="1.0" xmlns="http://www.w3.org/2000/svg"
 width="1024.000000pt" height="1024.000000pt" viewBox="0 0 1024.000000 1024.000000"
 preserveAspectRatio="xMidYMid meet">
<metadata>
Created by potrace 1.16, written by Peter Selinger 2001-2019
</metadata>
<g transform="translate(0.000000,1024.000000) scale(0.100000,-0.100000)"
fill="#000000" stroke="none">
<path d="M4080 9370 c-20 -37 20 -251 61 -332 10 -20 19 -41 19 -45 0 -4 -40
34 -88 85 -48 50 -92 92 -99 92 -19 0 -43 -30 -43 -54 0 -40 48 -118 145 -240
52 -65 95 -120 95 -122 0 -2 -39 21 -87 51 -91 58 -102 61 -134 45 -45 -24
-10 -93 83 -165 35 -26 91 -78 126 -116 34 -37 87 -82 117 -99 31 -17 67 -47
81 -65 88 -116 158 -588 135 -902 -6 -77 -14 -154 -17 -171 l-6 -30 -87 -6
c-582 -41 -982 -176 -1238 -419 -79 -75 -129 -146 -139 -196 -6 -30 -7 -31
-25 -15 -24 21 -116 30 -158 16 -50 -18 -89 1 -174 83 -43 41 -81 75 -84 75
-2 0 -30 -24 -61 -53 -63 -59 -152 -117 -180 -117 -10 0 -22 4 -28 9 -5 5 -19
12 -31 16 -19 5 -23 3 -23 -18 0 -13 -9 -32 -20 -42 -19 -17 -19 -17 -10 13
11 39 12 41 76 127 76 103 88 129 72 163 -26 53 -79 42 -158 -34 l-57 -54 -94
88 c-283 262 -350 307 -365 247 -13 -51 42 -139 143 -229 29 -26 52 -51 49
-53 -5 -5 -24 6 -201 111 -92 55 -138 64 -143 28 -6 -42 42 -106 122 -161 41
-28 78 -56 81 -60 3 -5 -30 4 -72 20 -90 35 -146 36 -151 3 -5 -33 38 -75 119
-118 41 -22 92 -54 114 -72 67 -54 227 -150 279 -167 l50 -17 29 27 c17 16 27
22 23 15 -5 -8 2 -16 19 -22 l26 -10 -20 -26 c-12 -15 -21 -37 -21 -50 0 -13
-16 -50 -36 -84 -19 -33 -50 -97 -68 -143 -19 -45 -43 -98 -54 -117 -21 -35
-164 -171 -214 -203 -27 -17 -54 -55 -45 -63 4 -5 152 109 162 125 3 6 27 25
53 42 45 30 44 29 -18 -30 -69 -66 -197 -165 -249 -193 -44 -24 -39 -35 16
-34 29 1 48 -4 50 -11 3 -7 14 -13 25 -13 11 0 38 -20 61 -44 28 -30 80 -65
157 -105 111 -58 341 -152 408 -166 17 -3 32 -9 32 -12 0 -10 -75 -143 -80
-143 -4 0 -4 16 -2 35 8 66 28 66 -888 15 -306 -17 -730 -35 -981 -43 -69 -1
-91 -6 -108 -21 -26 -24 -28 -91 -4 -125 l16 -24 191 7 c105 3 351 15 546 26
195 10 549 28 785 40 473 22 515 26 515 43 0 7 18 34 40 61 22 26 40 53 40 60
0 6 8 20 16 31 16 19 16 19 9 -5 -4 -14 -13 -38 -21 -54 -8 -16 -14 -35 -14
-43 0 -20 54 46 70 85 7 18 15 31 17 28 6 -6 -22 -88 -47 -136 l-20 -40 35 0
c22 0 35 5 35 13 0 7 23 37 51 67 27 30 63 71 80 90 28 34 29 34 19 7 -5 -15
-30 -58 -54 -95 -24 -37 -42 -69 -41 -70 2 -2 140 3 307 12 167 9 476 25 688
36 212 11 549 29 750 40 382 21 618 32 1010 50 129 6 259 12 287 15 29 2 78
-3 109 -11 111 -28 187 -103 331 -319 55 -83 128 -185 163 -228 55 -69 203
-212 284 -275 34 -26 29 -41 -6 -19 -47 31 -148 49 -243 44 -171 -9 -296 -77
-510 -277 -213 -199 -361 -312 -499 -381 l-81 -40 -75 12 c-45 7 -111 9 -167
5 -59 -5 -112 -3 -150 5 -75 16 -109 7 -154 -40 -54 -58 -76 -141 -93 -357
-12 -158 -18 -193 -46 -270 -76 -208 -90 -254 -104 -339 -41 -235 5 -396 158
-552 72 -73 115 -87 168 -56 52 30 78 89 88 196 12 118 31 189 83 307 87 200
142 272 258 341 125 73 146 125 85 209 l-35 48 27 7 c15 3 97 48 182 99 310
187 521 292 765 380 72 26 198 72 280 102 182 67 496 220 625 306 114 76 205
158 231 209 34 67 21 168 -42 327 -17 42 -93 204 -170 360 -76 157 -137 287
-135 290 7 7 944 47 1321 56 175 5 177 4 55 -5 -69 -5 -201 -12 -295 -17 -207
-10 -250 -25 -351 -126 -128 -128 -211 -356 -303 -826 -83 -422 -122 -554
-217 -740 -37 -73 -50 -110 -55 -160 l-6 -65 -1 58 -2 57 -54 0 c-60 0 -55 3
-259 -153 -176 -134 -197 -166 -184 -280 12 -93 49 -152 182 -282 150 -147
178 -183 245 -310 104 -196 187 -296 330 -397 205 -145 394 -196 457 -124 51
60 40 118 -43 221 -78 98 -99 138 -123 235 -38 155 -53 284 -49 408 4 106 7
123 37 187 17 39 35 89 38 112 5 35 2 45 -20 67 -18 18 -37 26 -62 26 -43 0
-44 8 -15 118 96 378 281 732 729 1404 267 401 305 468 306 541 0 49 -1 52
-30 58 -19 4 -2 7 50 8 44 1 154 5 245 11 193 10 317 16 645 30 271 12 303 15
327 37 40 36 29 138 -18 169 -21 14 -41 15 -161 5 -76 -6 -244 -16 -373 -21
-129 -6 -300 -15 -380 -20 -80 -5 -165 -10 -190 -9 -44 0 -45 1 -68 50 -32 66
-132 165 -245 240 -162 107 -563 293 -912 422 -537 198 -1272 408 -1429 407
l-41 0 -122 -188 c-68 -103 -132 -198 -144 -212 l-21 -25 21 35 c12 19 47 78
77 130 31 52 90 151 130 219 41 68 74 130 74 137 0 16 -129 129 -211 184 -78
54 -240 131 -344 165 -99 32 -299 73 -397 81 l-75 7 -6 -89 c-10 -172 -67
-289 -209 -433 -95 -96 -192 -171 -356 -274 -134 -84 -532 -288 -532 -272 0 2
83 46 185 99 445 231 713 436 824 630 130 227 85 567 -167 1276 -41 114 -48
184 -28 255 9 30 23 122 31 203 8 81 24 185 35 231 23 97 16 144 -26 163 -46
21 -82 -33 -140 -212 -20 -61 -39 -110 -43 -110 -10 1 -66 81 -90 127 -11 23
-37 100 -56 170 -54 196 -71 237 -105 248 -37 12 -50 -11 -50 -89 0 -76 10
-145 36 -259 9 -37 14 -70 11 -73 -7 -7 -62 108 -132 276 -31 74 -68 150 -81
168 -28 37 -58 41 -74 12z m320 -2215 c0 -13 -459 -209 -630 -270 -36 -13
-103 -37 -149 -54 -46 -17 -86 -29 -88 -28 -2 2 41 21 94 42 216 85 632 255
693 283 67 32 80 36 80 27z m-885 -365 c-3 -5 -14 -10 -23 -9 -14 0 -13 2 3 9
27 11 27 11 20 0z m-515 -166 c0 -8 -4 -12 -10 -9 -5 3 -10 10 -10 16 0 5 5 9
10 9 6 0 10 -7 10 -16z m60 -364 c0 -14 11 -49 25 -78 13 -29 21 -50 16 -48
-16 11 -50 94 -55 137 -4 30 -2 39 4 29 5 -8 10 -26 10 -40z m1944 -164 c72
-36 143 -66 159 -66 17 0 27 -5 27 -15 0 -8 7 -15 15 -15 8 0 15 -7 15 -15 0
-20 93 -195 140 -266 22 -31 66 -91 100 -133 l60 -76 71 0 c117 0 68 -17 -68
-24 -584 -30 -1114 -58 -1243 -66 -85 -5 -324 -19 -530 -30 -206 -11 -445 -24
-530 -30 -85 -5 -211 -12 -280 -15 -69 -3 -141 -8 -160 -11 l-35 -5 25 21 c14
11 50 38 81 60 93 64 179 217 179 318 0 62 -14 108 -48 163 l-29 45 76 -38
c148 -73 331 -104 580 -95 291 9 582 91 820 231 83 48 244 116 301 126 91 17
134 7 274 -64z m-2124 -130 c0 -8 -18 -36 -40 -61 -22 -25 -40 -42 -40 -37 0
5 11 19 24 31 14 13 30 36 36 52 14 32 20 37 20 15z m5619 -330 c-4 -4 -476
-31 -729 -41 -142 -5 -360 -15 -790 -35 -758 -35 -903 -42 -1058 -48 -178 -7
-238 1 -84 12 100 7 1233 61 1607 76 138 5 365 15 505 20 140 6 269 12 285 14
48 5 269 6 264 2z m-2184 -266 c-33 -4 -103 -7 -155 -7 l-95 1 80 6 c44 3 114
6 155 7 l75 0 -60 -7z m-307 -17 c-10 -2 -26 -2 -35 0 -10 3 -2 5 17 5 19 0
27 -2 18 -5z m1194 -1956 l22 -32 -24 20 c-24 21 -60 89 -60 115 0 8 9 -4 20
-28 11 -24 30 -58 42 -75z"/>
<path d="M1840 5500 c19 -13 257 -90 277 -90 38 0 -9 23 -122 60 -120 39 -189
52 -155 30z"/>
</g>
</svg>
