<?xml version="1.0" standalone="no"?>
<!DOCTYPE svg PUBLIC "-//W3C//DTD SVG 20010904//EN"
 "http://www.w3.org/TR/2001/REC-SVG-20010904/DTD/svg10.dtd">
<svg version="1.0" xmlns="http://www.w3.org/2000/svg"
 width="1024.000000pt" height="1536.000000pt" viewBox="0 0 1024.000000 1536.000000"
 preserveAspectRatio="xMidYMid meet">
<metadata>
Created by potrace 1.16, written by Peter Selinger 2001-2019
</metadata>
<g transform="translate(0.000000,1536.000000) scale(0.100000,-0.100000)"
fill="#000000" stroke="none">
<path d="M4073 13930 c-131 -28 -245 -71 -433 -160 -266 -126 -406 -159 -552
-130 -76 14 -185 68 -238 116 l-40 36 0 -44 c0 -24 7 -70 15 -101 62 -240 304
-435 584 -471 l96 -13 -40 -12 c-22 -6 -74 -17 -115 -23 -69 -10 -83 -9 -170
14 -52 13 -103 28 -112 32 -29 13 -21 -8 27 -70 89 -116 221 -207 370 -254 87
-28 298 -39 400 -21 156 27 340 102 489 198 87 56 204 150 217 174 5 11 13 19
17 19 5 0 -7 -30 -25 -67 -59 -122 -77 -223 -77 -423 1 -157 4 -185 27 -274
17 -61 52 -150 93 -233 60 -120 66 -137 60 -176 -16 -106 -97 -213 -199 -261
-74 -35 -188 -54 -362 -60 -329 -13 -520 -72 -845 -259 -213 -123 -373 -184
-657 -252 -116 -28 -158 -42 -179 -62 -26 -24 -26 -26 -20 -107 5 -62 4 -86
-6 -93 -7 -6 -67 -32 -133 -58 -239 -94 -404 -201 -559 -366 -116 -124 -178
-207 -289 -389 -102 -169 -279 -454 -350 -565 -57 -88 -167 -202 -229 -237
-27 -15 -73 -36 -103 -47 -141 -53 -227 -117 -266 -199 -35 -71 -39 -236 -9
-328 23 -70 28 -76 166 -206 8 -7 36 -37 62 -65 43 -47 53 -53 88 -53 57 0 82
23 124 114 l38 81 -5 -65 c-5 -76 7 -105 56 -134 32 -19 34 -19 66 -1 22 11
59 56 109 129 41 61 95 140 120 176 72 103 85 148 96 336 13 227 16 233 254
464 354 344 522 516 584 598 35 45 75 90 89 99 14 9 87 32 161 50 128 32 137
33 149 17 7 -10 13 -25 13 -33 0 -26 37 -79 59 -86 12 -3 75 7 144 24 67 17
221 54 342 81 121 28 229 53 240 56 20 5 20 0 20 -248 1 -139 3 -388 5 -553 5
-342 8 -325 -80 -619 -99 -333 -185 -754 -185 -908 0 -82 1 -88 29 -117 16
-17 37 -33 46 -36 14 -5 18 -27 24 -138 14 -292 71 -466 211 -656 93 -124 160
-195 349 -365 236 -214 385 -380 555 -621 35 -49 86 -119 113 -153 27 -35 48
-66 45 -68 -5 -6 -60 61 -209 256 -136 177 -267 324 -417 463 -116 108 -246
207 -272 207 -30 0 -56 -35 -95 -125 -79 -181 -91 -272 -50 -360 12 -28 39
-63 59 -78 68 -52 79 -104 53 -240 -18 -94 -29 -97 -20 -5 10 112 2 138 -59
199 -144 143 -313 243 -763 454 -434 204 -454 218 -493 352 -27 91 -163 325
-224 386 -67 65 -176 107 -282 107 -46 0 -66 -17 -119 -100 -20 -32 -26 -35
-82 -40 -42 -4 -68 -12 -89 -28 -40 -32 -85 -99 -87 -131 0 -14 -2 -31 -2 -37
-1 -6 -28 -33 -61 -59 -33 -27 -74 -61 -92 -76 -18 -15 -74 -49 -125 -76 -52
-27 -126 -76 -169 -113 -52 -45 -96 -74 -136 -88 -72 -26 -90 -45 -113 -114
-14 -43 -24 -57 -55 -73 -43 -23 -130 -138 -141 -187 -5 -24 -2 -35 11 -44 17
-13 17 -16 -4 -63 -11 -27 -21 -63 -21 -79 0 -62 82 -121 168 -122 84 0 205
56 395 184 37 25 82 47 100 50 17 3 118 10 222 16 224 13 298 23 423 56 89 24
96 24 146 10 78 -23 154 -78 311 -227 194 -183 273 -251 443 -386 241 -191
336 -276 555 -494 282 -281 383 -349 523 -349 35 0 81 7 101 15 113 48 404
285 516 422 28 35 102 137 162 226 102 150 114 164 165 190 49 25 62 28 120
22 47 -4 77 -2 109 9 64 23 86 20 149 -21 93 -61 166 -140 190 -206 28 -74 28
-123 -2 -277 -74 -381 -74 -653 -1 -903 40 -135 189 -499 326 -794 22 -48 56
-124 74 -168 18 -44 60 -145 93 -225 33 -80 79 -203 103 -275 39 -118 43 -139
44 -230 0 -97 -2 -106 -59 -270 -52 -150 -60 -181 -64 -265 -5 -113 17 -216
70 -329 l35 -71 -256 6 c-338 8 -2378 -32 -2616 -52 -130 -11 -60 -22 140 -24
99 0 326 -5 505 -10 179 -5 774 -14 1322 -20 921 -11 1004 -10 1080 5 54 12
101 15 139 11 46 -6 76 -2 145 19 95 27 203 33 283 14 26 -6 65 -27 98 -54 47
-38 62 -45 99 -45 54 0 103 19 152 60 20 16 41 30 47 30 6 0 26 -13 45 -28 49
-40 74 -52 110 -52 32 0 56 20 120 100 20 25 35 33 70 37 41 4 49 1 88 -32 36
-32 47 -36 76 -31 36 7 65 33 90 83 8 17 36 48 61 69 61 49 79 85 71 138 -8
48 -57 128 -95 155 -15 11 -108 53 -207 94 -272 112 -328 143 -414 222 -41 39
-106 97 -144 130 -37 33 -86 85 -107 116 -33 49 -47 60 -106 84 -37 16 -78 37
-90 48 -48 43 -125 287 -172 547 -20 110 -82 604 -96 760 -19 217 -68 643 -80
696 -8 33 -23 83 -34 111 -30 76 -43 199 -44 398 0 122 5 220 17 304 24 163
19 315 -13 386 -22 48 -366 580 -402 620 -15 18 -16 22 -3 39 39 54 4 116
-197 357 l-97 116 8 94 c10 121 5 306 -10 441 -14 119 -11 131 39 141 16 3 42
17 57 31 27 23 29 29 29 98 -1 61 -9 96 -47 208 -66 190 -97 326 -107 465 -5
66 -17 144 -26 174 -9 30 -14 64 -12 75 3 12 35 93 72 181 75 179 143 363 235
632 l62 181 71 -77 c93 -100 143 -144 246 -220 89 -64 116 -72 179 -50 47 16
79 -6 262 -185 240 -235 281 -263 645 -441 171 -84 405 -196 520 -250 303
-143 313 -151 424 -343 89 -153 214 -253 343 -273 42 -6 77 -20 106 -40 60
-41 94 -47 121 -20 12 12 21 29 21 38 0 19 -75 169 -97 194 -12 15 -11 17 10
23 26 6 86 -8 131 -31 52 -27 118 -97 193 -205 40 -59 83 -110 94 -113 26 -9
67 19 75 50 l6 25 30 -25 c31 -26 76 -32 109 -15 14 8 19 21 19 53 0 87 -155
310 -339 490 -128 124 -199 163 -411 222 -154 43 -231 79 -345 160 -204 147
-365 284 -595 510 -304 298 -388 366 -618 499 -107 63 -186 138 -202 193 -11
37 -11 45 9 77 15 23 20 43 16 57 -4 11 -88 102 -187 202 -189 192 -255 278
-302 392 -137 334 -233 460 -400 525 -45 18 -108 48 -141 68 -50 31 -69 37
-116 37 l-56 0 71 79 c150 167 169 183 235 202 86 24 121 58 121 118 0 26 -7
63 -15 83 -33 78 -22 108 84 238 84 103 150 217 171 293 9 35 14 41 25 32 28
-23 48 -112 47 -208 -1 -88 0 -93 16 -79 29 27 82 122 107 194 19 53 25 89 25
159 0 158 -43 258 -172 400 -50 55 -79 97 -92 132 -29 81 -91 170 -185 262
-70 70 -104 95 -188 137 -232 118 -487 158 -751 116 -64 -10 -107 -12 -109 -7
-2 6 -20 39 -41 74 -57 98 -148 183 -245 229 -126 60 -188 72 -382 77 -142 3
-185 1 -262 -16z m1371 -2567 c45 -4 80 -1 115 11 64 21 69 20 38 -4 -41 -33
-127 -44 -191 -26 -44 13 -146 77 -146 91 0 2 27 -12 60 -32 47 -27 74 -36
124 -40z m-931 -129 c147 -133 341 -253 462 -284 28 -7 54 -17 59 -21 24 -21
-147 37 -228 77 -109 55 -177 104 -286 207 -93 89 -98 105 -7 21z m774 -186
c-46 -79 -120 -129 -184 -127 l-28 1 30 7 c76 19 172 95 190 151 4 12 9 19 12
16 3 -3 -6 -24 -20 -48z m560 -820 c-6 -93 -36 -273 -44 -265 -2 3 3 45 11 93
9 49 19 128 22 177 4 48 9 87 12 87 3 0 2 -42 -1 -92z m871 -103 c-3 -3 -9 2
-12 12 -6 14 -5 15 5 6 7 -7 10 -15 7 -18z m-2101 -1411 c93 -67 188 -123 297
-176 45 -21 70 -36 56 -32 -74 20 -306 154 -404 233 -61 49 -35 36 51 -25z
m416 -221 c-7 -2 -19 -2 -25 0 -7 3 -2 5 12 5 14 0 19 -2 13 -5z m86 -19 c10
-9 -45 -3 -59 6 -11 7 -5 8 20 4 19 -4 37 -8 39 -10z m-674 -468 c137 -16 516
-83 525 -93 6 -7 -44 0 -155 21 -394 76 -783 95 -1059 51 -54 -8 -101 -14
-103 -11 -5 5 158 34 257 45 102 12 377 5 535 -13z m615 -111 c30 -7 46 -14
35 -14 -11 0 -42 6 -70 13 -65 18 -37 19 35 1z m87 -21 c-3 -3 -12 -4 -19 -1
-8 3 -5 6 6 6 11 1 17 -2 13 -5z m98 -425 c44 -51 106 -122 138 -157 31 -35
57 -69 57 -75 0 -13 6 -20 -130 138 -57 66 -129 147 -159 179 -43 45 -48 53
-21 33 19 -14 71 -67 115 -118z m218 -696 c-7 -2 -21 -2 -30 0 -10 3 -4 5 12
5 17 0 24 -2 18 -5z m-223 -47 c0 -2 -8 -10 -17 -17 -16 -13 -17 -12 -4 4 13
16 21 21 21 13z m-61 -49 c-15 -12 -55 -47 -90 -77 -35 -30 -53 -41 -39 -26
30 35 138 126 148 126 4 -1 -5 -11 -19 -23z m994 -4910 c-5 -8 -233 -1 -242 8
-3 3 52 4 121 3 69 -2 124 -6 121 -11z"/>
<path d="M8220 4364 c-128 -25 -276 -86 -377 -155 -69 -47 -203 -184 -250
-254 -118 -175 -173 -380 -159 -589 17 -264 97 -441 285 -626 189 -186 405
-270 663 -257 250 13 459 108 644 292 130 129 208 267 250 441 26 105 23 316
-5 419 -25 92 -74 201 -128 283 -51 76 -181 211 -263 272 -77 57 -226 131
-315 155 -59 16 -292 29 -345 19z"/>
</g>
</svg>
