<?xml version="1.0" standalone="no"?>
<!DOCTYPE svg PUBLIC "-//W3C//DTD SVG 20010904//EN"
 "http://www.w3.org/TR/2001/REC-SVG-20010904/DTD/svg10.dtd">
<svg version="1.0" xmlns="http://www.w3.org/2000/svg"
 width="1024.000000pt" height="1024.000000pt" viewBox="0 0 1024.000000 1024.000000"
 preserveAspectRatio="xMidYMid meet">
<metadata>
Created by potrace 1.16, written by Peter Selinger 2001-2019
</metadata>
<g transform="translate(0.000000,1024.000000) scale(0.100000,-0.100000)"
fill="#000000" stroke="none">
<path d="M2465 7771 c-39 -10 -116 -40 -173 -65 -56 -25 -107 -46 -113 -46 -6
0 -36 16 -67 35 -92 56 -165 78 -247 73 -39 -3 -90 -14 -115 -25 -85 -37 -194
-155 -275 -298 -80 -140 -150 -201 -242 -212 -60 -7 -143 15 -197 52 -21 14
-41 24 -43 21 -14 -13 12 -81 43 -116 38 -42 111 -81 155 -82 32 -1 39 -14 12
-22 -10 -3 -60 -14 -112 -26 -135 -29 -208 -70 -257 -146 l-18 -27 29 7 c71
18 100 17 224 -8 72 -14 152 -26 179 -26 102 0 261 58 319 116 35 35 38 24 10
-33 -51 -98 -137 -152 -244 -153 -35 0 -63 -4 -63 -8 0 -17 86 -37 150 -36
190 3 272 79 440 408 52 103 104 198 115 212 l20 25 1 -148 c1 -135 4 -157 32
-256 38 -127 91 -237 158 -326 60 -80 69 -138 34 -220 -34 -78 -88 -119 -263
-197 -309 -140 -397 -222 -604 -568 -132 -219 -205 -331 -301 -461 -123 -164
-162 -255 -111 -255 19 0 17 -5 -18 -43 -60 -65 -126 -162 -181 -267 -93 -176
-109 -279 -87 -553 19 -235 50 -507 71 -617 33 -176 37 -163 -145 -537 -89
-182 -161 -339 -161 -348 0 -14 3 -14 31 2 41 24 106 89 136 136 13 22 26 37
29 34 3 -2 -20 -75 -51 -162 -30 -87 -53 -160 -50 -163 2 -2 17 -1 32 3 38 9
126 101 158 165 15 29 28 50 30 48 2 -1 -5 -44 -15 -93 -19 -90 -25 -145 -15
-145 3 0 23 9 44 20 49 24 85 71 149 190 109 204 137 253 146 254 5 1 41 -36
80 -82 88 -103 134 -134 202 -140 61 -5 76 9 45 42 -12 13 -44 78 -71 146 -28
67 -74 168 -104 224 -30 55 -61 121 -69 146 -51 153 -52 656 -2 1074 18 152
43 206 127 278 34 29 79 70 99 91 42 41 49 44 49 22 0 -12 7 -11 38 6 54 31
75 52 167 174 87 116 153 184 248 254 78 57 83 47 7 -13 -33 -26 -60 -52 -60
-57 0 -29 164 -316 283 -494 98 -147 217 -299 337 -429 93 -102 122 -154 175
-316 105 -320 182 -499 235 -544 34 -28 46 -31 83 -17 23 9 26 5 67 -81 196
-406 511 -595 1150 -692 267 -40 355 -49 536 -50 185 -1 200 3 206 52 l3 27
120 -3 c66 -2 181 -7 255 -12 307 -22 548 -7 660 39 33 13 82 20 180 24 351
15 537 115 491 266 -25 85 -135 136 -358 166 -119 17 -173 31 -173 45 0 9
-135 97 -198 129 -127 65 -305 122 -482 156 -161 31 -255 56 -416 110 -244 82
-452 126 -679 144 l-110 8 120 1 c133 2 286 -16 421 -48 106 -24 237 -66 278
-87 51 -26 168 -63 200 -63 68 0 189 81 138 92 -27 6 90 47 208 73 168 38 362
57 537 53 l156 -3 31 -40 c63 -81 180 -195 245 -238 157 -106 270 -147 656
-238 312 -74 396 -97 540 -151 136 -50 184 -74 308 -151 l98 -61 -27 -14 c-24
-13 -26 -17 -20 -59 18 -135 201 -323 314 -323 41 0 128 45 283 146 153 99
289 147 343 122 21 -9 32 -6 73 17 47 28 85 47 172 89 47 22 81 59 81 86 0 23
31 49 77 65 32 11 39 19 44 47 3 18 13 45 23 61 14 21 17 41 14 87 -11 155
-138 187 -417 106 -161 -46 -306 -62 -435 -47 -122 14 -223 14 -232 0 -4 -7 4
-20 17 -30 31 -24 15 -24 -84 2 -147 37 -231 87 -452 269 -451 371 -792 577
-1152 695 -76 25 -181 68 -234 95 -206 106 -776 276 -1056 316 -60 8 -119 19
-133 24 -73 28 -344 47 -910 63 -124 4 -144 10 -230 72 -25 18 -73 47 -107 64
-37 18 -63 38 -63 47 0 8 5 12 10 9 6 -3 10 0 10 7 0 7 -21 26 -46 42 -183
116 -241 215 -344 591 -27 99 -58 207 -70 239 -11 33 -20 62 -20 66 0 4 25 -1
55 -12 30 -10 90 -23 133 -29 42 -6 124 -20 182 -31 178 -35 373 -17 695 63
150 38 410 111 535 151 236 75 337 165 408 362 31 83 59 212 49 222 -12 12
-58 -11 -105 -52 -55 -48 -60 -49 -38 -6 29 57 117 306 114 323 -5 34 -97 -20
-186 -108 -87 -85 -152 -179 -218 -313 -56 -116 -92 -156 -157 -175 -117 -35
-637 -44 -867 -15 -177 22 -224 41 -425 170 -229 147 -310 182 -426 181 -81 0
-97 -8 -205 -95 -45 -36 -103 -76 -129 -90 l-48 -24 -71 20 c-39 11 -73 21
-75 24 -2 2 39 4 93 4 158 0 188 24 286 223 57 115 70 135 103 152 21 11 40
30 43 42 3 12 -3 67 -15 121 -26 120 -26 135 -1 206 26 76 33 153 22 261 -5
50 -7 92 -5 95 2 2 15 -9 28 -25 l24 -30 0 40 c1 92 -60 169 -216 277 -168
117 -173 119 -258 151 -106 40 -280 48 -390 18z m120 -1829 c44 -12 89 -23
100 -25 12 -3 7 -5 -13 -6 -38 -1 -149 28 -247 64 -38 15 -78 29 -87 32 -10 3
-18 9 -18 14 0 4 42 -7 93 -25 50 -19 128 -43 172 -54z m905 -132 c6 -11 8
-20 6 -20 -3 0 -10 9 -16 20 -6 11 -8 20 -6 20 3 0 10 -9 16 -20z m245 -1330
c-27 -12 -43 -12 -25 0 8 5 22 9 30 9 10 0 8 -3 -5 -9z m-45 -14 c0 -14 -339
-114 -511 -152 -41 -9 -103 -22 -139 -30 -156 -34 -73 -7 200 65 162 43 324
87 360 99 66 20 90 25 90 18z m-206 -324 c-46 -37 -181 -139 -214 -162 -29
-19 -32 -20 -15 -3 25 26 235 183 244 183 3 0 -4 -8 -15 -18z m561 -73 c-88
-156 -238 -325 -384 -435 -77 -57 -333 -204 -357 -204 -5 0 36 25 91 56 284
158 473 333 635 587 24 37 45 65 47 63 2 -2 -13 -32 -32 -67z m1144 -114 c-4
-24 -16 -99 -25 -167 -27 -195 -34 -225 -28 -124 5 93 37 307 49 325 11 20 13
12 4 -34z m-329 -1031 c-10 -76 -22 -175 -26 -219 -10 -124 -26 -128 -19 -5 6
94 36 306 51 353 14 46 12 -1 -6 -129z"/>
<path d="M9085 5144 c-186 -30 -350 -128 -449 -268 -96 -134 -132 -263 -123
-445 8 -184 61 -304 192 -437 65 -66 96 -89 165 -122 385 -184 838 8 962 408
30 99 32 292 4 385 -68 223 -247 402 -462 459 -60 17 -235 28 -289 20z"/>
</g>
</svg>
