<?xml version="1.0" standalone="no"?>
<!DOCTYPE svg PUBLIC "-//W3C//DTD SVG 20010904//EN"
 "http://www.w3.org/TR/2001/REC-SVG-20010904/DTD/svg10.dtd">
<svg version="1.0" xmlns="http://www.w3.org/2000/svg"
 width="1024.000000pt" height="1536.000000pt" viewBox="0 0 1024.000000 1536.000000"
 preserveAspectRatio="xMidYMid meet">
<metadata>
Created by potrace 1.16, written by Peter Selinger 2001-2019
</metadata>
<g transform="translate(0.000000,1536.000000) scale(0.100000,-0.100000)"
fill="#000000" stroke="none">
<path d="M6416 13865 c-174 -36 -345 -123 -440 -224 -17 -17 -36 -31 -43 -31
-7 0 -50 19 -96 41 -163 83 -299 122 -474 139 -360 34 -692 -86 -836 -302 -49
-74 -80 -101 -174 -148 -215 -108 -339 -373 -279 -597 14 -52 54 -133 66 -133
4 0 10 35 14 78 6 76 46 236 63 253 4 4 9 -47 10 -114 3 -158 17 -241 60 -352
41 -106 40 -131 -7 -273 -44 -137 -39 -194 22 -233 24 -14 44 -19 75 -16 l41
4 22 -61 c28 -75 81 -183 128 -256 129 -204 253 -258 447 -195 43 14 87 32 98
40 19 13 22 11 53 -65 17 -43 46 -100 63 -126 31 -45 36 -76 6 -38 -31 40 -94
150 -100 177 -10 40 -21 42 -65 13 -120 -79 -305 -73 -398 14 -11 11 -30 20
-42 20 -26 0 -163 -68 -255 -127 -142 -91 -208 -171 -360 -438 -126 -221 -273
-458 -391 -633 -46 -67 -88 -139 -94 -160 -16 -60 -12 -123 11 -161 l21 -34
-30 -66 c-17 -36 -49 -111 -73 -166 -50 -116 -123 -230 -171 -265 -18 -14 -64
-45 -103 -68 -114 -71 -196 -143 -480 -423 -148 -146 -305 -293 -347 -326
-126 -100 -242 -146 -434 -172 -186 -26 -232 -64 -388 -321 -85 -140 -116
-223 -116 -314 1 -152 79 -331 157 -357 28 -9 38 -8 59 6 39 25 68 99 59 149
-4 23 -9 56 -12 74 -10 62 65 200 142 263 42 33 141 83 188 93 l28 7 -23 -33
c-13 -18 -47 -59 -76 -90 -88 -95 -111 -172 -72 -235 38 -62 113 -34 202 76
67 82 116 120 249 191 123 66 156 100 178 182 16 57 21 65 57 83 54 28 128 70
269 152 66 38 219 121 340 183 224 115 307 163 405 234 163 118 229 194 432
501 80 121 154 228 166 238 11 10 43 24 71 32 85 22 133 57 188 137 101 147
109 181 73 330 -26 112 -50 277 -49 335 1 27 4 37 6 23 2 -14 13 -81 24 -150
57 -360 182 -774 329 -1089 46 -99 55 -131 81 -279 29 -163 44 -228 73 -323
l14 -47 -58 -123 c-61 -130 -100 -239 -125 -346 -20 -88 -19 -119 6 -142 l22
-20 -27 -63 c-40 -96 -54 -167 -68 -329 -19 -240 9 -678 68 -1024 26 -154 88
-349 117 -367 13 -8 47 8 47 23 0 6 32 54 71 107 49 67 104 166 180 322 61
123 135 267 166 320 67 114 168 263 190 282 9 7 -1 -14 -23 -47 -65 -96 -229
-391 -290 -521 -91 -192 -112 -231 -214 -389 -207 -322 -380 -605 -429 -703
-108 -216 -121 -267 -132 -512 -9 -217 -7 -208 -114 -550 -67 -217 -150 -532
-205 -780 -35 -155 -130 -510 -201 -750 -52 -173 -164 -421 -238 -525 -53 -74
-255 -297 -357 -395 -102 -98 -169 -136 -302 -174 -228 -64 -333 -173 -292
-303 19 -59 55 -116 99 -156 49 -44 66 -46 103 -10 l28 27 58 -56 c31 -30 72
-64 90 -74 29 -17 35 -17 65 -4 42 19 153 18 192 -2 17 -9 41 -28 54 -42 32
-34 53 -33 98 7 33 29 55 38 163 61 69 16 152 41 185 58 33 16 61 25 63 19 2
-5 12 -21 23 -35 16 -21 29 -26 62 -26 23 1 57 9 76 19 26 14 43 16 75 10 49
-9 2426 7 2576 18 l105 7 -70 8 c-336 35 -1157 69 -1823 75 l-624 6 7 21 c20
61 34 156 44 281 15 180 14 246 -4 320 -32 132 -9 231 111 475 109 223 300
579 424 790 175 297 236 423 293 606 52 163 87 410 87 613 1 175 11 225 64
314 25 43 46 81 46 84 0 19 84 119 199 238 75 78 165 172 200 209 61 64 269
252 300 271 8 4 -120 -124 -283 -286 -337 -333 -396 -400 -396 -450 1 -86 103
-280 201 -384 110 -116 171 -139 459 -178 146 -19 1020 -216 1226 -276 234
-68 434 -136 451 -154 12 -12 13 -22 5 -48 -16 -51 -1 -114 38 -154 18 -19 37
-32 42 -29 12 8 100 -182 144 -311 36 -108 37 -113 45 -325 14 -381 54 -513
173 -569 59 -27 90 -27 140 3 91 54 236 245 236 313 0 36 10 51 31 46 37 -10
49 14 50 101 1 104 26 199 54 204 34 7 45 23 45 68 0 30 -8 57 -24 82 -24 37
-40 86 -49 152 -3 19 -10 69 -17 110 -8 59 -8 95 2 165 12 80 16 90 35 93 30
4 73 47 73 72 0 11 -11 47 -25 80 -34 82 -32 106 15 169 22 29 40 57 40 63 0
27 -34 67 -78 91 -39 21 -51 34 -60 65 -21 69 -86 148 -148 178 -54 26 -59 27
-252 27 -190 1 -199 0 -260 -25 l-64 -26 -81 34 c-140 60 -408 217 -497 292
-30 26 -95 83 -145 127 -173 156 -244 202 -376 243 -97 30 -246 54 -383 61
l-120 6 -8 30 c-17 63 -29 224 -22 312 l6 93 42 10 c125 33 149 53 231 202 32
57 78 139 102 183 47 83 165 264 274 420 270 387 376 646 410 1003 12 124 6
206 -27 350 l-23 104 20 27 c20 27 20 30 5 118 -37 214 -130 474 -227 635
l-61 100 7 68 c10 100 -10 161 -80 239 l-56 63 3 346 c2 191 -1 373 -5 405
l-9 58 59 -44 c32 -25 109 -73 172 -107 63 -34 141 -82 173 -106 84 -65 140
-88 198 -80 55 7 56 7 206 -131 56 -51 106 -106 112 -121 5 -15 18 -88 27
-162 24 -192 76 -497 130 -770 62 -317 95 -507 95 -551 0 -69 -37 -160 -96
-239 -89 -117 -151 -216 -174 -277 -27 -72 -35 -190 -20 -273 7 -36 16 -108
19 -161 9 -129 35 -169 91 -139 31 16 39 41 55 161 8 61 16 114 19 116 9 9 19
-70 20 -161 1 -87 0 -93 -32 -143 -42 -66 -42 -111 2 -132 25 -11 40 -11 110
4 97 20 173 47 232 81 35 21 51 25 82 19 37 -6 41 -4 81 42 23 26 66 94 94
152 l52 104 -1 126 c-1 95 -10 171 -34 306 l-33 180 -2 585 c-1 322 -5 628 -9
680 -11 132 -62 497 -82 578 -28 117 -123 271 -313 510 -99 126 -161 212 -161
227 0 7 9 20 20 30 28 26 26 76 -6 114 -14 17 -53 47 -87 67 -92 55 -163 120
-304 278 -196 217 -430 452 -513 515 -169 127 -606 314 -1044 446 -144 43
-162 76 -160 285 l2 106 62 94 c163 248 216 428 208 699 -4 123 -9 158 -31
221 -14 41 -24 77 -22 79 8 8 157 -114 215 -176 34 -36 100 -123 145 -193 86
-130 148 -197 231 -249 64 -41 163 -73 216 -69 l43 3 -72 48 c-88 58 -156 133
-210 229 -60 107 -63 134 -6 53 77 -108 190 -210 284 -255 104 -50 190 -64
344 -57 140 7 238 32 339 85 70 36 187 134 175 146 -4 4 -26 2 -50 -3 -100
-24 -205 -9 -304 41 -101 51 -101 51 31 65 128 12 183 27 282 76 222 110 404
431 351 620 l-10 38 -60 -56 c-61 -56 -134 -109 -223 -160 l-50 -29 43 56 c39
53 70 123 86 196 9 44 -7 41 -66 -12 -89 -80 -189 -112 -324 -103 -136 8 -229
49 -405 175 -95 69 -202 122 -310 157 -72 23 -107 27 -230 31 -101 2 -166 -1
-214 -11z m-1203 -3016 c61 -27 127 -23 271 16 143 39 167 43 86 14 -92 -34
-233 -69 -273 -69 -68 0 -153 48 -198 112 -21 30 -19 29 25 -10 26 -24 66 -52
89 -63z m383 -2247 c-5 -4 -66 26 -66 33 0 3 16 -3 35 -12 19 -9 33 -18 31
-21z m167 -72 c184 -75 430 -149 647 -196 l65 -14 -70 6 c-182 15 -507 116
-703 220 -78 41 -72 39 61 -16z m-547 -884 c38 -13 121 -34 184 -47 100 -21
140 -24 305 -23 209 1 357 17 594 64 167 33 201 36 131 13 -122 -39 -474 -97
-660 -108 -183 -12 -444 33 -585 100 -65 30 -55 31 31 1z m604 -1168 c133 -52
279 -148 375 -247 55 -58 34 -51 -33 10 -85 77 -183 143 -291 194 -196 93
-212 107 -51 43z m525 -778 c4 -6 -5 -10 -19 -10 -14 0 -26 5 -26 10 0 6 9 10
19 10 11 0 23 -4 26 -10z m-105 -3 c0 -2 -17 -19 -37 -38 l-38 -34 34 38 c33
34 41 42 41 34z"/>
<path d="M2052 3629 c-380 -44 -703 -334 -813 -729 -20 -74 -24 -107 -24 -255
0 -195 16 -275 85 -422 49 -105 87 -160 177 -254 125 -131 285 -227 451 -270
110 -29 292 -36 408 -15 234 41 452 167 599 346 281 344 296 819 36 1186 -162
230 -409 380 -681 414 -95 11 -133 11 -238 -1z"/>
</g>
</svg>
