<?xml version="1.0" standalone="no"?>
<!DOCTYPE svg PUBLIC "-//W3C//DTD SVG 20010904//EN"
 "http://www.w3.org/TR/2001/REC-SVG-20010904/DTD/svg10.dtd">
<svg version="1.0" xmlns="http://www.w3.org/2000/svg"
 width="1080.000000pt" height="276.000000pt" viewBox="0 0 1080.000000 276.000000"
 preserveAspectRatio="xMidYMid meet">
<metadata>
Created by potrace 1.16, written by Peter Selinger 2001-2019
</metadata>
<g transform="translate(0.000000,276.000000) scale(0.100000,-0.100000)"
fill="#000000" stroke="none">
<path d="M1053 2129 c-73 -36 -101 -105 -78 -192 14 -56 16 -49 -40 -142 -33
-53 -34 -136 -3 -200 l22 -45 -23 -52 c-36 -83 -71 -188 -71 -214 0 -31 -11
-30 -61 3 -27 18 -58 28 -94 31 -52 4 -56 3 -90 -31 -32 -32 -35 -39 -35 -96
0 -47 6 -74 26 -113 34 -66 122 -160 198 -209 34 -23 53 -40 45 -43 -8 -2 -72
-12 -144 -21 -71 -9 -133 -19 -137 -21 -15 -9 -8 -43 10 -53 13 -7 31 -5 58 4
44 16 94 19 94 7 0 -5 -28 -24 -62 -43 -51 -28 -63 -39 -63 -59 0 -39 37 -38
93 3 26 19 57 40 70 46 40 21 44 1 8 -40 -35 -38 -38 -62 -10 -73 23 -9 39 2
72 48 17 24 56 60 86 81 31 21 56 41 56 44 0 4 -9 38 -20 78 -30 107 -43 205
-31 233 10 25 10 25 10 2 2 -42 32 -176 58 -255 22 -70 24 -83 13 -122 -7 -25
-27 -57 -46 -76 -40 -39 -41 -44 -10 -64 31 -21 51 -11 69 33 8 20 25 46 37
57 l22 20 19 -24 c11 -13 22 -41 25 -62 8 -47 25 -63 59 -55 35 9 42 33 17 59
-26 27 -44 74 -33 82 13 7 40 -4 87 -38 36 -24 45 -27 64 -17 38 20 22 52 -37
74 -29 10 -68 32 -88 50 -29 26 -37 42 -50 102 -8 39 -16 102 -19 140 l-5 69
15 -65 c40 -167 52 -197 87 -213 56 -27 201 -40 302 -27 49 6 104 18 122 27
36 17 42 32 82 198 12 51 19 69 20 49 2 -46 -29 -215 -45 -246 -17 -34 -58
-62 -120 -85 -56 -21 -71 -53 -34 -73 19 -10 28 -7 64 17 47 34 74 45 87 38
11 -8 -6 -50 -31 -75 -27 -27 -25 -48 6 -62 36 -17 55 -2 69 56 7 26 20 55 28
64 15 15 19 14 41 -7 14 -13 28 -36 31 -52 9 -41 39 -55 71 -34 27 18 23 34
-19 73 -14 13 -30 43 -37 66 -10 38 -9 52 13 122 27 84 57 217 58 256 0 23 0
23 10 -2 12 -28 -1 -126 -31 -233 -11 -40 -20 -74 -20 -78 0 -3 25 -23 56 -44
30 -21 69 -57 86 -81 34 -48 54 -60 74 -43 22 18 16 44 -17 73 -21 19 -28 31
-21 38 11 11 66 -18 124 -63 35 -28 81 -20 76 14 -2 15 -21 32 -63 54 -93 49
-75 73 27 37 43 -15 78 -6 78 20 0 27 -29 37 -151 52 -68 8 -130 17 -138 20
-7 2 12 21 47 44 75 50 164 146 197 211 19 36 25 64 25 110 0 57 -3 64 -35 96
-34 34 -38 35 -90 31 -38 -3 -69 -14 -104 -35 l-49 -31 -6 47 c-4 25 -22 84
-42 131 -48 115 -49 121 -24 170 35 68 26 151 -24 226 -35 53 -38 60 -27 89
39 109 -23 220 -131 232 -55 6 -115 -21 -152 -69 l-25 -33 -146 1 -147 0 -27
31 c-60 72 -132 90 -208 52z"/>
<path d="M6151 2093 c0 -16 10 -102 22 -193 l22 -165 59 -3 c32 -2 64 -1 71 1
8 4 4 52 -17 189 -15 100 -28 186 -28 191 0 4 -29 7 -65 7 -64 0 -65 0 -64
-27z"/>
<path d="M5948 2103 c-11 -3 -18 -14 -18 -26 1 -35 46 -357 51 -360 2 -1 34
-1 70 1 l66 4 -28 186 c-16 103 -29 190 -29 195 0 7 -83 8 -112 0z"/>
<path d="M3460 1830 l0 -170 -250 0 -250 0 0 -75 0 -75 250 0 250 0 0 -132 c0
-153 -16 -243 -59 -335 -39 -82 -124 -171 -204 -213 -34 -18 -63 -34 -65 -35
-2 -2 47 -123 54 -133 1 -2 33 11 71 29 90 43 205 157 255 254 69 134 80 181
87 380 l6 180 245 0 245 0 3 -215 c2 -130 -1 -235 -8 -266 -20 -96 -109 -166
-234 -185 -110 -17 -102 -9 -96 -86 6 -81 6 -81 121 -59 142 27 257 96 316
188 47 76 53 128 53 465 l0 313 -325 0 -325 0 0 170 0 170 -70 0 -70 0 0 -170z"/>
<path d="M5172 1993 l-33 -4 8 -82 c17 -176 -4 -415 -48 -532 -11 -31 -42 -82
-69 -114 l-47 -57 46 -58 46 -57 58 63 c69 75 121 177 144 282 l17 76 253 0
253 0 0 -37 c0 -21 -5 -78 -11 -128 -44 -357 -188 -525 -451 -525 l-67 0 5
-52 c10 -102 7 -98 77 -98 353 1 567 283 589 780 l3 55 163 3 162 2 0 75 0 75
-485 0 -485 0 0 118 c0 64 -3 141 -6 170 l-7 52 -41 -2 c-23 0 -56 -3 -74 -5z"/>
<path d="M9020 1335 c0 -527 3 -664 13 -660 228 71 440 171 597 283 93 66 276
238 318 298 l21 31 -56 48 -56 49 -40 -50 c-134 -163 -358 -330 -566 -420
l-76 -33 -3 559 -2 560 -75 0 -75 0 0 -665z"/>
<path d="M7070 1835 l0 -75 425 0 425 0 0 -425 0 -425 -425 0 -425 0 0 -75 0
-75 500 0 500 0 0 575 0 575 -500 0 -500 0 0 -75z"/>
</g>
</svg>
