<?xml version="1.0" standalone="no"?>
<!DOCTYPE svg PUBLIC "-//W3C//DTD SVG 20010904//EN"
 "http://www.w3.org/TR/2001/REC-SVG-20010904/DTD/svg10.dtd">
<svg version="1.0" xmlns="http://www.w3.org/2000/svg"
 width="1024.000000pt" height="1024.000000pt" viewBox="0 0 1024.000000 1024.000000"
 preserveAspectRatio="xMidYMid meet">
<metadata>
Created by potrace 1.16, written by Peter Selinger 2001-2019
</metadata>
<g transform="translate(0.000000,1024.000000) scale(0.100000,-0.100000)"
fill="#000000" stroke="none">
<path d="M4834 7970 c-545 -57 -1060 -274 -1469 -617 -465 -390 -789 -884
-920 -1403 -58 -230 -65 -296 -39 -358 35 -84 99 -125 195 -126 56 -1 72 3
114 29 64 39 79 68 120 222 116 440 318 789 644 1113 244 243 515 417 832 534
380 140 868 175 1273 90 782 -164 1394 -712 1596 -1429 54 -193 65 -293 65
-585 0 -231 -3 -281 -23 -387 -112 -612 -447 -1135 -912 -1424 -321 -199 -722
-299 -1084 -268 -356 29 -627 125 -865 304 -223 169 -383 396 -471 670 -66
207 -74 267 -74 525 0 254 9 320 71 500 120 353 377 658 689 817 185 94 327
131 539 140 339 14 612 -76 823 -272 138 -127 224 -281 262 -465 19 -88 21
-125 16 -230 -13 -271 -104 -485 -283 -662 -86 -85 -120 -110 -213 -158 -122
-61 -178 -74 -320 -75 -112 0 -133 3 -200 28 -99 36 -197 111 -250 189 -54 82
-74 151 -68 248 9 148 90 267 236 343 133 70 176 126 177 232 1 146 -129 243
-291 216 -261 -42 -473 -282 -540 -612 -25 -124 -16 -333 20 -454 84 -282 302
-502 594 -598 485 -161 1022 54 1344 538 81 121 122 206 168 344 190 567 31
1145 -413 1504 -228 185 -475 293 -767 337 -96 14 -386 14 -492 0 -530 -73
-1052 -439 -1321 -925 -187 -339 -271 -798 -227 -1236 63 -618 410 -1157 939
-1458 193 -109 420 -188 667 -233 172 -30 557 -33 726 -5 620 105 1108 414
1498 952 330 455 498 951 517 1525 13 404 -65 780 -236 1135 -129 268 -270
464 -491 685 -417 418 -896 655 -1505 746 -118 18 -533 27 -651 14z"/>
</g>
</svg>
