<?xml version="1.0" standalone="no"?>
<!DOCTYPE svg PUBLIC "-//W3C//DTD SVG 20010904//EN"
 "http://www.w3.org/TR/2001/REC-SVG-20010904/DTD/svg10.dtd">
<svg version="1.0" xmlns="http://www.w3.org/2000/svg"
 width="1023.000000pt" height="1023.000000pt" viewBox="0 0 1023.000000 1023.000000"
 preserveAspectRatio="xMidYMid meet">
<metadata>
Created by potrace 1.16, written by Peter Selinger 2001-2019
</metadata>
<g transform="translate(0.000000,1023.000000) scale(0.100000,-0.100000)"
fill="#000000" stroke="none">
<path d="M6245 8593 c-162 -5 -531 -57 -695 -99 -52 -13 -147 -35 -210 -49
-63 -14 -135 -34 -160 -45 -25 -10 -92 -30 -149 -44 -57 -14 -109 -30 -115
-35 -6 -5 -42 -20 -81 -34 -127 -45 -200 -73 -232 -90 -18 -9 -38 -17 -45 -17
-7 0 -40 -14 -73 -30 -33 -16 -67 -30 -76 -30 -9 0 -28 -9 -42 -20 -14 -11
-29 -20 -33 -20 -8 0 -230 -105 -254 -121 -8 -5 -33 -18 -55 -29 -22 -11 -80
-43 -130 -70 -49 -27 -103 -57 -120 -66 -16 -9 -51 -28 -76 -42 -25 -15 -61
-35 -79 -46 -19 -10 -55 -34 -82 -52 -26 -19 -52 -34 -56 -34 -5 0 -17 -9 -27
-20 -10 -11 -23 -20 -29 -20 -6 0 -33 -16 -61 -35 -27 -20 -61 -43 -75 -53
-14 -9 -27 -19 -30 -22 -3 -3 -30 -22 -60 -43 -84 -56 -142 -97 -175 -124 -16
-13 -39 -30 -50 -39 -79 -58 -145 -110 -240 -193 -60 -52 -117 -100 -125 -108
-86 -73 -280 -264 -385 -378 -45 -49 -104 -112 -129 -140 -93 -100 -403 -548
-463 -670 -11 -22 -34 -67 -50 -100 -29 -57 -52 -109 -75 -165 -6 -14 -14 -33
-19 -42 -5 -10 -9 -27 -9 -37 0 -11 -4 -22 -9 -25 -5 -3 -11 -18 -14 -33 -5
-27 -37 -160 -57 -233 -28 -103 -46 -273 -44 -415 2 -151 44 -368 87 -450 36
-66 104 -125 164 -141 113 -29 272 61 303 171 12 43 11 59 -13 169 -15 66 -32
155 -38 196 -13 83 -6 316 10 365 6 17 17 57 26 90 9 33 21 78 28 100 39 137
160 376 282 558 95 141 105 156 200 271 28 34 66 81 86 106 91 113 386 397
579 556 19 16 41 35 50 42 29 25 228 177 250 192 13 8 35 24 49 35 14 12 73
52 131 89 58 38 117 77 132 87 15 11 31 19 36 19 5 0 17 9 27 20 10 11 23 20
28 20 6 0 40 19 76 43 92 59 101 65 146 88 22 11 63 33 90 49 28 16 61 34 75
39 14 6 32 15 40 21 8 5 44 23 80 41 36 17 117 56 180 86 63 30 136 66 161 79
26 13 53 24 59 24 7 0 36 11 64 24 103 48 278 114 396 150 41 12 89 29 105 38
17 9 55 21 85 27 30 7 116 30 190 51 156 45 439 100 520 100 31 0 94 5 140 11
133 16 280 17 465 2 241 -20 332 -36 472 -82 240 -80 393 -190 504 -360 57
-87 74 -137 94 -274 19 -122 10 -204 -42 -372 -23 -76 -128 -299 -162 -344
-18 -23 -9 -26 -121 37 -172 95 -460 144 -807 136 -121 -3 -234 -12 -318 -25
-212 -34 -514 -98 -553 -118 -21 -10 -71 -26 -112 -36 -41 -10 -91 -26 -110
-35 -19 -10 -62 -25 -95 -35 -33 -9 -65 -21 -71 -26 -6 -5 -35 -18 -65 -28
-30 -10 -67 -25 -84 -34 -16 -8 -109 -54 -205 -101 -279 -138 -379 -196 -572
-328 -46 -32 -117 -81 -158 -109 -41 -28 -88 -62 -105 -75 -16 -14 -40 -33
-53 -42 -12 -9 -30 -24 -40 -32 -9 -9 -42 -36 -72 -60 -30 -24 -62 -51 -71
-60 -9 -8 -52 -47 -96 -87 -65 -59 -161 -155 -253 -252 -232 -247 -421 -546
-480 -761 -7 -25 -17 -58 -22 -75 -5 -16 -12 -78 -15 -136 -6 -101 -4 -111 28
-210 35 -111 65 -163 132 -232 143 -148 356 -212 677 -203 124 4 384 50 475
86 28 11 87 28 132 40 45 11 97 29 115 39 18 11 51 23 73 26 22 4 55 16 73 26
18 10 54 24 80 30 26 6 61 19 78 29 17 9 48 23 70 30 21 7 46 18 54 25 8 7 34
19 58 26 23 7 47 18 53 26 6 7 16 13 22 13 6 0 69 30 141 66 123 61 150 76
250 136 21 13 53 31 70 41 17 10 48 28 68 40 20 12 67 40 105 61 37 22 70 43
73 46 3 3 32 21 65 39 33 19 72 43 86 55 14 11 35 27 45 33 91 59 163 108 185
126 14 12 36 29 49 37 22 15 123 92 166 128 12 9 32 24 44 32 50 33 192 151
360 299 93 82 365 353 487 486 51 55 95 97 98 93 17 -17 37 -126 42 -233 5
-116 -7 -277 -27 -355 -5 -19 -16 -64 -25 -100 -47 -185 -187 -518 -235 -557
-11 -10 -53 -11 -165 -7 -159 7 -382 -12 -474 -40 -25 -8 -94 -26 -154 -40
-59 -14 -122 -32 -140 -40 -17 -9 -52 -22 -77 -30 -126 -40 -379 -161 -467
-223 -17 -13 -34 -23 -37 -23 -3 0 -26 -15 -52 -32 -25 -18 -53 -37 -62 -43
-9 -5 -29 -19 -43 -30 -15 -11 -39 -29 -55 -40 -333 -236 -544 -526 -544 -749
0 -52 7 -83 30 -137 83 -196 301 -289 610 -259 131 13 425 83 546 130 81 32
92 37 204 88 36 16 76 34 90 41 27 12 32 15 135 80 121 76 150 96 163 109 7 6
17 12 21 12 5 0 20 10 34 22 14 13 38 32 52 43 144 112 402 364 450 438 16 25
20 27 33 13 19 -19 26 -206 10 -276 -50 -225 -68 -276 -146 -430 -35 -69 -80
-156 -100 -195 -31 -61 -36 -79 -36 -145 -1 -67 2 -79 27 -112 43 -55 74 -72
137 -72 44 -1 63 5 95 27 22 15 48 33 59 40 150 98 244 231 336 473 48 129 56
157 85 309 38 201 19 480 -41 615 -35 77 -74 151 -96 179 -10 13 -18 31 -18
40 0 9 28 75 64 146 77 155 93 192 136 310 18 50 36 99 40 110 15 41 29 92 45
165 9 41 20 91 26 110 16 59 37 359 34 475 -6 180 -57 395 -116 485 -25 39
-48 102 -42 118 4 9 18 35 33 57 31 45 98 156 142 230 61 105 137 274 167 370
17 55 35 114 41 130 36 113 31 425 -8 540 -12 33 -28 89 -37 125 -9 35 -25 76
-36 91 -10 15 -19 33 -19 40 0 11 -73 127 -106 169 -66 83 -258 250 -342 298
-74 42 -195 101 -247 121 -33 13 -69 26 -80 31 -41 16 -161 51 -207 60 -27 6
-69 15 -95 20 -55 12 -64 14 -228 34 -119 14 -374 23 -530 19z m615 -2254
c165 -15 280 -52 280 -90 0 -29 -341 -394 -480 -514 -19 -17 -73 -64 -120
-106 -75 -67 -202 -172 -336 -279 -72 -58 -170 -130 -302 -222 -18 -13 -41
-30 -52 -38 -90 -70 -273 -190 -289 -190 -5 0 -14 -7 -21 -16 -8 -8 -27 -22
-44 -30 -17 -8 -49 -25 -71 -39 -22 -13 -53 -31 -70 -39 -16 -8 -34 -18 -38
-23 -23 -23 -488 -258 -533 -269 -16 -4 -34 -10 -39 -15 -11 -8 -97 -41 -230
-89 -44 -15 -96 -35 -115 -43 -39 -17 -390 -90 -518 -108 -121 -17 -219 -5
-276 33 -38 24 -48 39 -61 81 -21 69 -19 112 8 193 61 190 263 445 572 724
169 152 584 460 620 460 7 0 15 6 18 14 3 7 17 16 31 20 13 3 51 23 83 44 32
21 92 55 133 76 41 21 93 48 115 61 22 13 51 29 65 35 14 7 43 20 65 30 22 10
65 29 95 43 78 36 175 75 245 99 33 11 65 24 70 29 6 4 53 19 105 34 52 15
109 33 128 41 18 7 86 25 150 38 353 74 488 83 812 55z m7 -2215 c4 -12 -19
-41 -83 -103 -130 -124 -254 -231 -327 -279 -22 -15 -52 -35 -66 -44 -25 -17
-51 -33 -136 -83 -41 -24 -116 -62 -217 -110 -96 -44 -355 -107 -496 -120 -77
-7 -132 6 -132 30 0 8 45 55 101 107 89 83 128 114 219 176 14 9 27 19 30 22
15 16 118 80 175 109 22 12 47 25 55 30 8 6 47 24 85 41 39 17 88 40 110 51
54 25 168 64 290 98 55 16 114 34 130 41 37 14 190 48 228 49 17 1 30 -5 34
-15z"/>
</g>
</svg>
