<?xml version="1.0" standalone="no"?>
<!DOCTYPE svg PUBLIC "-//W3C//DTD SVG 20010904//EN"
 "http://www.w3.org/TR/2001/REC-SVG-20010904/DTD/svg10.dtd">
<svg version="1.0" xmlns="http://www.w3.org/2000/svg"
 width="1024.000000pt" height="1024.000000pt" viewBox="0 0 1024.000000 1024.000000"
 preserveAspectRatio="xMidYMid meet">
<metadata>
Created by potrace 1.16, written by Peter Selinger 2001-2019
</metadata>
<g transform="translate(0.000000,1024.000000) scale(0.100000,-0.100000)"
fill="#000000" stroke="none">
<path d="M4890 8034 c-176 -16 -432 -71 -588 -126 -403 -140 -737 -428 -916
-788 -81 -161 -149 -369 -180 -548 -21 -120 -20 -177 4 -230 33 -72 31 -72
500 -72 449 0 442 -1 493 59 16 19 31 58 42 108 26 115 80 266 133 368 89 172
247 299 442 355 93 27 328 39 423 21 221 -42 383 -145 496 -317 129 -194 148
-485 46 -701 -74 -158 -156 -246 -475 -512 -531 -443 -670 -637 -719 -1006
-15 -108 -31 -365 -31 -484 0 -86 3 -102 22 -126 42 -54 54 -55 480 -55 354 0
396 2 428 18 59 29 66 55 79 275 13 224 32 312 86 416 76 144 189 252 440 418
456 302 668 536 789 871 54 150 70 259 70 472 0 216 -17 335 -74 511 -185 565
-709 952 -1430 1054 -110 16 -464 28 -560 19z"/>
<path d="M4890 3484 c-202 -53 -367 -213 -429 -418 -24 -78 -29 -229 -10 -318
15 -73 78 -203 128 -265 124 -153 330 -242 531 -229 170 11 288 64 411 186
137 134 193 264 193 450 1 85 -4 119 -23 178 -68 209 -239 364 -461 418 -72
18 -269 17 -340 -2z"/>
</g>
</svg>
