<?xml version="1.0" standalone="no"?>
<!DOCTYPE svg PUBLIC "-//W3C//DTD SVG 20010904//EN"
 "http://www.w3.org/TR/2001/REC-SVG-20010904/DTD/svg10.dtd">
<svg version="1.0" xmlns="http://www.w3.org/2000/svg"
 width="1024.000000pt" height="1024.000000pt" viewBox="0 0 1024.000000 1024.000000"
 preserveAspectRatio="xMidYMid meet">
<metadata>
Created by potrace 1.16, written by Peter Selinger 2001-2019
</metadata>
<g transform="translate(0.000000,1024.000000) scale(0.100000,-0.100000)"
fill="#000000" stroke="none">
<path d="M5039 8437 c-18 -12 -44 -38 -57 -57 l-23 -34 3 -451 3 -450 23 -33
c68 -94 195 -93 266 2 20 27 21 41 24 480 l3 452 -23 34 c-36 53 -83 80 -138
80 -32 0 -58 -7 -81 -23z"/>
<path d="M3060 7701 c-75 -39 -104 -137 -61 -206 34 -57 634 -653 664 -660
122 -31 231 73 198 188 -11 36 -60 90 -324 355 -172 172 -324 320 -339 328
-37 19 -97 18 -138 -5z"/>
<path d="M7045 7706 c-38 -17 -627 -610 -649 -653 -34 -68 -10 -157 54 -200
41 -28 113 -31 151 -5 46 30 638 639 649 667 49 128 -80 247 -205 191z"/>
<path d="M5000 6903 c-228 -23 -369 -61 -545 -148 -399 -196 -675 -553 -762
-983 -27 -132 -24 -442 5 -578 49 -227 158 -477 301 -689 210 -312 304 -526
370 -848 34 -161 54 -211 101 -250 65 -55 89 -57 636 -57 525 0 577 4 635 43
70 48 87 82 124 252 75 351 139 511 315 790 46 72 105 166 133 210 183 290
273 639 247 952 -16 186 -38 281 -103 433 -102 238 -260 438 -475 600 -82 61
-270 159 -373 194 -190 64 -437 97 -609 79z"/>
<path d="M2205 5736 c-83 -37 -114 -151 -61 -230 9 -14 34 -35 56 -46 38 -19
58 -20 495 -20 498 0 494 0 549 59 23 24 30 42 33 83 6 70 -19 115 -77 146
-44 22 -46 22 -505 22 -359 -1 -467 -4 -490 -14z"/>
<path d="M7080 5732 c-108 -54 -108 -216 0 -274 33 -17 61 -18 477 -16 430 3
442 4 470 24 98 73 97 204 -3 261 -39 23 -42 23 -474 23 -394 0 -438 -2 -470
-18z"/>
<path d="M3605 4329 c-38 -21 -656 -644 -676 -681 -22 -44 -24 -77 -5 -121 29
-70 111 -110 178 -88 24 8 132 110 365 344 281 282 333 338 342 373 26 96 -42
184 -140 184 -24 0 -53 -5 -64 -11z"/>
<path d="M6495 4321 c-16 -10 -39 -28 -49 -39 -26 -30 -33 -110 -13 -148 9
-16 166 -178 349 -361 312 -310 336 -331 376 -338 35 -6 52 -2 89 17 85 43
109 140 54 214 -46 63 -633 640 -668 658 -43 21 -101 20 -138 -3z"/>
<path d="M4594 3180 c-55 -8 -87 -30 -109 -76 -30 -63 -6 -135 58 -174 31 -19
54 -20 575 -20 588 0 590 0 628 54 31 44 36 93 15 140 -35 80 -13 77 -604 79
-287 1 -541 0 -563 -3z"/>
<path d="M4542 2730 c-72 -44 -91 -131 -44 -198 45 -63 36 -62 624 -62 487 0
536 2 568 18 74 37 102 131 60 200 -38 63 -33 62 -632 62 -524 0 -544 -1 -576
-20z"/>
<path d="M4749 2312 c-10 -7 -19 -23 -19 -36 0 -38 55 -112 107 -143 48 -28
49 -28 248 -31 215 -4 253 2 317 45 39 26 98 108 98 136 0 44 -10 45 -381 44
-274 -1 -355 -4 -370 -15z"/>
</g>
</svg>
