<?xml version="1.0" standalone="no"?>
<!DOCTYPE svg PUBLIC "-//W3C//DTD SVG 20010904//EN"
 "http://www.w3.org/TR/2001/REC-SVG-20010904/DTD/svg10.dtd">
<svg version="1.0" xmlns="http://www.w3.org/2000/svg"
 width="1024.000000pt" height="1024.000000pt" viewBox="0 0 1024.000000 1024.000000"
 preserveAspectRatio="xMidYMid meet">
<metadata>
Created by potrace 1.16, written by Peter Selinger 2001-2019
</metadata>
<g transform="translate(0.000000,1024.000000) scale(0.100000,-0.100000)"
fill="#000000" stroke="none">
<path d="M4930 8120 c-152 -32 -267 -98 -378 -214 -116 -123 -178 -252 -203
-429 -16 -106 -6 -257 46 -702 102 -878 363 -2546 415 -2659 75 -158 262 -223
447 -154 61 22 132 87 162 147 20 38 75 328 130 686 11 72 41 258 66 415 162
1009 275 1893 275 2147 0 146 -44 305 -116 425 -48 79 -163 194 -240 241 -176
106 -397 142 -604 97z"/>
<path d="M5040 3590 c-299 -28 -565 -267 -624 -562 -77 -378 155 -755 522
-849 92 -23 259 -25 350 -4 254 60 472 277 539 535 22 87 22 254 0 340 -92
351 -416 573 -787 540z"/>
</g>
</svg>
