<?xml version="1.0" standalone="no"?>
<!DOCTYPE svg PUBLIC "-//W3C//DTD SVG 20010904//EN"
 "http://www.w3.org/TR/2001/REC-SVG-20010904/DTD/svg10.dtd">
<svg version="1.0" xmlns="http://www.w3.org/2000/svg"
 width="1023.000000pt" height="1023.000000pt" viewBox="0 0 1023.000000 1023.000000"
 preserveAspectRatio="xMidYMid meet">
<metadata>
Created by potrace 1.16, written by Peter Selinger 2001-2019
</metadata>
<g transform="translate(0.000000,1023.000000) scale(0.100000,-0.100000)"
fill="#000000" stroke="none">
<path d="M5125 8510 c-33 -11 -71 -20 -85 -20 -14 0 -45 -9 -69 -20 -24 -11
-50 -20 -57 -20 -8 0 -61 -22 -118 -50 -95 -46 -259 -157 -332 -226 -55 -53
-143 -173 -194 -267 -44 -81 -110 -215 -116 -237 -4 -14 -13 -34 -20 -45 -8
-11 -14 -31 -14 -45 0 -14 -7 -38 -16 -55 -9 -16 -19 -53 -24 -80 -13 -78 -53
-130 -124 -164 -34 -16 -77 -32 -96 -36 -19 -4 -44 -13 -55 -20 -11 -7 -35
-16 -53 -19 -17 -4 -34 -12 -38 -17 -3 -5 -21 -16 -39 -23 -48 -20 -185 -165
-255 -269 -33 -48 -60 -94 -60 -100 0 -7 -9 -23 -20 -37 -11 -14 -20 -32 -20
-40 0 -8 -9 -28 -20 -45 -11 -16 -20 -38 -20 -48 0 -10 -9 -35 -20 -57 -11
-22 -20 -53 -20 -70 0 -17 -8 -47 -17 -68 -12 -28 -17 -77 -21 -204 -4 -149
-2 -175 17 -237 12 -38 21 -85 21 -105 0 -20 9 -62 19 -93 11 -32 22 -76 26
-97 4 -22 13 -49 21 -60 8 -11 14 -28 14 -37 0 -28 59 -135 98 -178 39 -43 45
-46 287 -120 55 -17 106 -31 112 -31 14 0 19 17 27 94 3 27 10 54 16 61 8 10
33 107 47 186 3 18 -5 38 -29 70 -57 75 -108 168 -115 212 -3 23 -14 60 -24
82 -10 22 -19 63 -19 90 0 28 -5 77 -10 110 -8 42 -7 91 1 165 10 89 18 118
53 190 55 115 77 142 155 193 81 53 225 127 246 127 9 0 33 9 55 20 22 11 50
20 62 20 33 0 85 35 108 72 11 18 52 66 92 106 l73 73 5 113 c3 65 10 119 17
128 7 8 15 34 19 58 7 43 33 99 104 223 51 90 249 297 285 297 6 0 26 8 45 19
19 10 73 29 120 42 115 32 327 35 405 5 146 -57 230 -117 290 -208 15 -24 36
-55 46 -69 10 -15 21 -39 25 -54 4 -15 34 -56 68 -90 46 -47 70 -64 99 -69 44
-8 60 -4 147 36 81 38 223 88 250 88 11 0 37 7 58 16 20 8 66 19 102 24 36 5
90 17 120 26 42 12 104 16 255 17 217 2 221 1 352 -67 117 -61 299 -236 344
-331 10 -22 23 -47 27 -55 30 -53 52 -101 52 -112 0 -8 9 -31 19 -51 11 -21
23 -57 26 -80 4 -23 14 -55 22 -71 12 -24 14 -65 10 -225 -2 -108 -9 -209 -15
-226 -6 -16 -16 -49 -22 -72 -9 -36 -19 -47 -66 -75 -92 -55 -151 -106 -178
-155 -58 -102 -20 -190 162 -375 69 -71 138 -146 152 -167 14 -21 38 -58 54
-81 42 -65 111 -200 123 -245 7 -22 19 -60 29 -85 14 -36 17 -80 17 -225 1
-161 -2 -185 -20 -230 -12 -27 -24 -63 -28 -80 -11 -48 -106 -233 -143 -276
-38 -44 -119 -94 -205 -127 -50 -19 -79 -22 -197 -22 -97 0 -150 4 -180 15
-62 22 -135 18 -220 -10 -124 -43 -210 -123 -210 -198 0 -14 7 -61 15 -104 14
-75 14 -83 -5 -142 -45 -142 -142 -230 -365 -333 -163 -75 -176 -78 -289 -78
-100 0 -111 2 -207 41 -94 38 -108 41 -180 37 -85 -3 -108 -17 -151 -86 -30
-48 -29 -168 2 -239 30 -71 111 -145 208 -191 l77 -37 230 0 c200 0 237 2 285
19 272 94 473 210 632 364 91 88 101 102 163 225 79 157 102 192 134 207 13 6
72 15 130 21 195 19 357 67 491 145 94 54 232 192 289 289 79 133 166 322 177
383 3 20 14 62 24 92 36 111 34 575 -3 646 -8 16 -17 50 -21 75 -4 26 -16 64
-26 85 -11 21 -20 45 -20 54 0 9 -6 24 -14 35 -7 11 -17 30 -21 43 -13 44 -99
189 -196 335 -43 63 -46 81 -25 122 8 16 18 58 22 94 4 36 12 79 19 96 7 16
16 63 20 104 4 41 14 89 21 107 21 49 20 459 -1 511 -8 21 -19 65 -24 98 -9
61 -30 127 -63 201 -10 22 -18 46 -18 53 0 10 -23 59 -52 111 -4 8 -17 33 -28
55 -44 88 -116 190 -189 268 -62 67 -302 237 -333 237 -5 0 -21 9 -35 20 -14
11 -33 20 -42 20 -9 0 -27 9 -41 20 -14 11 -32 20 -40 20 -8 0 -33 9 -55 19
-107 52 -247 75 -450 75 -129 0 -298 -18 -354 -38 -24 -9 -58 -16 -76 -16 -18
0 -62 -9 -97 -20 -41 -13 -91 -20 -144 -20 l-80 0 -126 119 c-70 66 -144 129
-165 141 -59 32 -96 52 -115 62 -10 4 -26 12 -35 17 -68 34 -153 44 -368 47
-196 3 -227 1 -280 -16z"/>
<path d="M4396 5294 c-66 -21 -94 -44 -170 -138 -78 -97 -117 -139 -294 -321
-123 -126 -276 -289 -417 -445 -27 -30 -115 -122 -196 -205 -189 -194 -332
-345 -399 -420 -30 -33 -119 -127 -198 -210 -192 -199 -197 -207 -196 -315 0
-71 5 -93 27 -136 28 -56 74 -100 113 -110 13 -3 46 -1 74 6 46 11 64 26 252
214 420 420 760 768 948 971 107 115 270 286 361 380 373 380 399 419 384 565
-15 147 -131 212 -289 164z"/>
<path d="M5423 4531 c-52 -13 -128 -71 -336 -256 -49 -44 -124 -109 -166 -144
-42 -35 -117 -101 -168 -148 -50 -46 -122 -109 -160 -139 -37 -31 -111 -96
-163 -144 -52 -48 -124 -112 -160 -141 -36 -29 -96 -83 -135 -120 -38 -37
-115 -105 -170 -151 -55 -46 -138 -119 -185 -164 -47 -44 -128 -116 -180 -159
-120 -100 -244 -219 -281 -269 -25 -34 -29 -48 -29 -108 0 -49 6 -80 20 -108
44 -86 125 -150 190 -150 47 0 137 57 230 145 47 45 125 115 175 156 49 40
126 108 170 149 45 41 124 111 176 155 52 43 135 118 184 166 50 48 119 111
155 139 36 28 108 91 160 139 52 48 129 116 170 151 41 35 118 103 170 150 52
47 131 117 175 155 44 38 118 103 165 146 47 42 119 104 160 139 97 80 105 95
91 171 -5 33 -17 69 -26 81 -8 13 -15 29 -15 38 0 21 -56 87 -89 104 -37 19
-90 26 -128 17z"/>
</g>
</svg>
