<?xml version="1.0" standalone="no"?>
<!DOCTYPE svg PUBLIC "-//W3C//DTD SVG 20010904//EN"
 "http://www.w3.org/TR/2001/REC-SVG-20010904/DTD/svg10.dtd">
<svg version="1.0" xmlns="http://www.w3.org/2000/svg"
 width="1024.000000pt" height="1024.000000pt" viewBox="0 0 1024.000000 1024.000000"
 preserveAspectRatio="xMidYMid meet">
<metadata>
Created by potrace 1.16, written by Peter Selinger 2001-2019
</metadata>
<g transform="translate(0.000000,1024.000000) scale(0.100000,-0.100000)"
fill="#000000" stroke="none">
<path d="M4953 8030 c-435 -46 -842 -278 -1103 -631 -105 -141 -178 -289 -226
-459 -15 -52 -28 -97 -30 -99 -2 -2 -35 4 -74 13 -356 80 -734 -37 -1002 -311
-136 -140 -222 -290 -269 -469 -33 -125 -34 -367 -2 -494 12 -47 24 -92 28
-101 4 -11 -10 -23 -57 -45 -290 -136 -546 -429 -652 -746 -53 -157 -70 -269
-70 -468 -1 -197 8 -262 60 -440 99 -335 383 -670 702 -830 324 -162 733 -177
1070 -38 40 17 74 29 76 27 2 -2 22 -43 44 -91 107 -231 278 -404 517 -523
189 -94 346 -129 580 -129 169 1 306 26 451 84 192 76 402 228 510 370 21 28
41 50 44 50 3 0 13 -13 23 -29 29 -50 162 -177 239 -229 159 -108 304 -147
507 -139 151 6 223 23 356 86 254 120 432 345 489 617 8 36 16 67 18 69 2 2
30 -5 63 -16 197 -65 510 -64 708 2 394 130 689 468 783 896 24 110 24 348 0
463 -45 213 -147 404 -305 573 -89 96 -251 208 -371 258 -30 12 -59 26 -63 30
-5 4 2 40 16 80 111 322 63 678 -126 948 -62 87 -176 201 -264 262 -245 169
-584 214 -859 115 -38 -14 -69 -24 -70 -23 0 1 -9 40 -19 87 -30 147 -64 250
-121 368 -172 363 -464 645 -827 798 -240 101 -512 141 -774 114z"/>
</g>
</svg>
