<?xml version="1.0" standalone="no"?>
<!DOCTYPE svg PUBLIC "-//W3C//DTD SVG 20010904//EN"
 "http://www.w3.org/TR/2001/REC-SVG-20010904/DTD/svg10.dtd">
<svg version="1.0" xmlns="http://www.w3.org/2000/svg"
 width="1023.000000pt" height="1533.000000pt" viewBox="0 0 1023.000000 1533.000000"
 preserveAspectRatio="xMidYMid meet">
<metadata>
Created by potrace 1.16, written by Peter Selinger 2001-2019
</metadata>
<g transform="translate(0.000000,1533.000000) scale(0.100000,-0.100000)"
fill="#000000" stroke="none">
<path d="M5010 11402 c-19 -11 -43 -34 -54 -51 -18 -32 -19 -80 -20 -1479 l-1
-1447 23 -33 c30 -41 54 -54 106 -54 53 -1 91 23 119 76 l22 41 3 1408 c2 981
-1 1420 -8 1448 -25 92 -112 134 -190 91z"/>
<path d="M6090 11401 c-74 -39 -68 55 -69 -1222 -1 -1259 -5 -1184 59 -1229
39 -28 118 -27 154 1 59 47 56 -25 56 1221 0 1088 -1 1145 -18 1177 -35 65
-115 88 -182 52z"/>
<path d="M7200 11413 c-8 -3 -27 -15 -43 -25 -60 -42 -57 13 -57 -1207 0
-1005 2 -1122 16 -1165 21 -60 59 -86 127 -86 40 0 53 5 83 33 32 29 36 39 45
112 7 51 9 468 7 1160 -4 1171 -1 1109 -57 1159 -21 19 -94 31 -121 19z"/>
<path d="M3893 11310 c-18 -10 -40 -31 -50 -47 -17 -26 -18 -113 -21 -1853 -2
-1004 0 -1854 3 -1889 6 -52 12 -69 38 -98 58 -62 165 -53 204 19 17 32 18
113 16 1920 -1 1372 -5 1893 -13 1908 -30 55 -119 76 -177 40z"/>
<path d="M2774 11236 c-17 -8 -40 -26 -52 -41 l-22 -28 0 -3155 0 -3155 21
-34 c51 -82 152 -84 206 -4 l23 34 0 3154 c0 2800 -2 3157 -15 3183 -28 54
-97 74 -161 46z"/>
</g>
</svg>
