<?xml version="1.0" standalone="no"?>
<!DOCTYPE svg PUBLIC "-//W3C//DTD SVG 20010904//EN"
 "http://www.w3.org/TR/2001/REC-SVG-20010904/DTD/svg10.dtd">
<svg version="1.0" xmlns="http://www.w3.org/2000/svg"
 width="1024.000000pt" height="1024.000000pt" viewBox="0 0 1024.000000 1024.000000"
 preserveAspectRatio="xMidYMid meet">
<metadata>
Created by potrace 1.16, written by Peter Selinger 2001-2019
</metadata>
<g transform="translate(0.000000,1024.000000) scale(0.100000,-0.100000)"
fill="#000000" stroke="none">
<path d="M3562 8958 c-7 -7 -12 -20 -12 -31 0 -36 -131 -874 -166 -1057 -86
-461 -168 -669 -327 -836 -115 -122 -243 -196 -439 -254 -148 -44 -302 -74
-690 -135 -194 -31 -359 -58 -365 -60 -7 -2 -13 -13 -13 -24 0 -21 -13 -18
305 -67 483 -73 800 -151 977 -240 167 -84 252 -156 338 -287 128 -193 186
-426 285 -1142 84 -602 105 -715 135 -715 28 0 32 18 90 460 56 423 133 843
201 1100 55 209 148 369 273 472 169 139 391 217 881 307 94 18 235 45 315 61
80 16 162 31 183 35 38 6 60 31 38 44 -6 4 -114 24 -239 45 -461 76 -740 137
-903 196 -295 106 -476 322 -573 680 -54 199 -144 701 -211 1168 -41 288 -49
314 -83 280z"/>
<path d="M7226 8209 c-3 -8 -17 -99 -31 -204 -51 -376 -73 -458 -143 -536 -80
-89 -176 -126 -452 -174 -227 -39 -228 -52 -6 -85 390 -56 506 -139 561 -402
16 -75 50 -330 61 -450 5 -57 10 -78 20 -78 8 0 14 7 14 14 0 33 60 456 74
522 55 259 147 328 541 404 116 22 155 34 155 48 0 5 -88 23 -196 41 -279 45
-371 83 -434 179 -45 67 -56 117 -102 432 -38 267 -50 324 -62 289z"/>
<path d="M6346 5458 c-3 -24 -15 -128 -26 -233 -35 -314 -111 -740 -168 -935
-60 -203 -148 -332 -296 -432 -146 -100 -374 -167 -856 -254 -242 -43 -299
-60 -275 -83 6 -5 82 -21 170 -36 280 -47 647 -123 742 -154 283 -92 426 -247
512 -555 42 -148 62 -262 121 -686 28 -201 53 -384 56 -407 7 -51 28 -74 48
-52 12 13 36 156 51 304 31 302 121 806 170 952 37 110 79 178 154 253 142
141 359 217 941 330 248 49 290 62 290 90 0 6 -87 22 -485 91 -393 68 -552
126 -691 252 -183 166 -253 401 -375 1257 -23 162 -45 305 -50 318 -13 35 -27
26 -33 -20z"/>
<path d="M3100 3435 c0 -3 -13 -95 -30 -204 -44 -295 -72 -412 -112 -462 -52
-64 -171 -112 -369 -149 -141 -26 -149 -28 -149 -44 0 -8 34 -16 103 -23 292
-33 404 -86 462 -217 30 -68 41 -123 75 -390 27 -211 33 -246 44 -235 2 2 16
102 31 222 38 318 69 424 143 488 61 54 146 86 320 121 89 18 162 38 162 44 0
6 -57 20 -130 33 -245 42 -324 71 -379 138 -52 63 -66 122 -129 557 -11 72
-22 121 -30 124 -6 2 -12 1 -12 -3z"/>
</g>
</svg>
