<?xml version="1.0" standalone="no"?>
<!DOCTYPE svg PUBLIC "-//W3C//DTD SVG 20010904//EN"
 "http://www.w3.org/TR/2001/REC-SVG-20010904/DTD/svg10.dtd">
<svg version="1.0" xmlns="http://www.w3.org/2000/svg"
 width="1024.000000pt" height="1024.000000pt" viewBox="0 0 1024.000000 1024.000000"
 preserveAspectRatio="xMidYMid meet">
<metadata>
Created by potrace 1.16, written by Peter Selinger 2001-2019
</metadata>
<g transform="translate(0.000000,1024.000000) scale(0.100000,-0.100000)"
fill="#000000" stroke="none">
<path d="M6215 7423 c-112 -149 -476 -626 -677 -888 -85 -110 -159 -200 -166
-200 -6 0 -94 107 -194 237 -624 808 -663 857 -671 842 -5 -8 -78 -285 -163
-616 -84 -331 -156 -603 -159 -606 -5 -5 -192 106 -770 458 -636 387 -710 431
-713 422 -4 -12 295 -656 526 -1134 84 -173 98 -208 84 -212 -26 -8 -741 -146
-1271 -246 -57 -11 -106 -22 -108 -24 -2 -2 99 -56 224 -121 126 -65 284 -148
353 -185 122 -65 201 -107 542 -284 l166 -87 -272 -377 c-543 -752 -595 -827
-582 -830 7 -1 352 110 767 248 414 137 756 250 759 250 3 0 4 -285 2 -634
l-3 -633 532 532 531 533 116 -141 c119 -146 279 -340 579 -700 107 -128 175
-202 179 -194 3 8 54 254 114 546 60 293 111 535 114 538 2 3 132 -64 288
-147 1040 -560 1198 -643 1205 -636 3 3 -53 144 -125 313 -149 353 -334 791
-397 938 -23 55 -42 101 -41 102 2 2 168 34 531 103 149 28 365 71 480 96 116
24 214 44 218 44 27 0 -9 27 -115 85 -112 62 -1000 565 -1005 569 -1 1 30 51
70 111 101 153 759 1172 786 1218 12 20 18 37 12 37 -5 0 -63 -22 -128 -50
-182 -76 -823 -341 -1067 -441 -120 -50 -220 -89 -221 -87 -2 2 -29 158 -60
348 -31 190 -81 492 -111 672 -30 181 -54 332 -54 338 0 24 -21 3 -105 -107z"/>
</g>
</svg>
