<?xml version="1.0" standalone="no"?>
<!DOCTYPE svg PUBLIC "-//W3C//DTD SVG 20010904//EN"
 "http://www.w3.org/TR/2001/REC-SVG-20010904/DTD/svg10.dtd">
<svg version="1.0" xmlns="http://www.w3.org/2000/svg"
 width="1023.000000pt" height="1023.000000pt" viewBox="0 0 1023.000000 1023.000000"
 preserveAspectRatio="xMidYMid meet">
<metadata>
Created by potrace 1.16, written by Peter Selinger 2001-2019
</metadata>
<g transform="translate(0.000000,1023.000000) scale(0.100000,-0.100000)"
fill="#000000" stroke="none">
<path d="M9305 9384 c-33 -19 -67 -37 -75 -40 -41 -16 -217 -108 -231 -120 -8
-8 -22 -14 -30 -14 -8 0 -19 -4 -25 -10 -9 -9 -51 -32 -233 -127 -36 -18 -69
-37 -75 -42 -6 -5 -45 -26 -86 -48 -82 -44 -118 -64 -289 -160 -62 -35 -141
-79 -175 -97 -33 -18 -97 -54 -141 -81 -44 -26 -114 -65 -155 -87 -41 -22 -87
-49 -102 -59 -14 -11 -28 -19 -31 -19 -4 0 -58 -30 -164 -91 -18 -11 -50 -29
-70 -40 -21 -12 -50 -30 -65 -40 -14 -11 -29 -19 -33 -19 -4 0 -19 -8 -33 -18
-15 -11 -56 -35 -92 -54 -36 -19 -105 -59 -155 -88 -49 -29 -110 -64 -135 -78
-121 -68 -129 -73 -265 -152 -49 -29 -108 -62 -130 -75 -46 -25 -101 -57 -147
-84 -18 -10 -78 -44 -133 -76 -55 -31 -115 -66 -132 -76 -42 -24 -62 -36 -268
-154 -93 -53 -198 -112 -232 -131 -34 -19 -86 -48 -115 -65 -85 -50 -121 -71
-153 -89 -16 -9 -61 -34 -100 -56 -38 -23 -99 -57 -135 -76 -85 -46 -143 -78
-155 -88 -5 -4 -39 -23 -75 -42 -36 -20 -83 -46 -105 -58 -22 -13 -56 -32 -77
-41 -20 -10 -76 -43 -125 -72 -48 -30 -113 -67 -143 -84 -30 -17 -84 -47 -120
-68 -36 -21 -80 -46 -99 -57 -19 -11 -55 -36 -79 -56 l-44 -36 28 -23 c16 -13
34 -28 41 -33 7 -6 15 -10 17 -10 3 0 43 -27 88 -60 46 -32 97 -69 113 -80 98
-69 203 -142 219 -153 10 -6 70 -49 133 -94 62 -46 118 -83 122 -83 5 0 11 -3
13 -8 5 -11 85 -72 95 -72 5 0 20 -11 33 -25 13 -14 28 -25 33 -25 5 0 26 -13
47 -30 21 -16 42 -30 47 -30 5 0 20 -11 33 -25 13 -14 29 -25 35 -25 15 0 45
-33 45 -48 0 -6 -64 -66 -142 -133 -79 -67 -156 -133 -173 -148 -16 -14 -57
-49 -90 -76 -33 -28 -73 -62 -90 -76 -16 -15 -138 -120 -271 -235 -133 -115
-278 -240 -324 -279 -46 -38 -90 -77 -99 -86 -9 -8 -45 -40 -81 -69 -36 -30
-85 -73 -110 -95 -94 -82 -122 -106 -405 -350 -159 -136 -292 -251 -295 -254
-3 -3 -32 -28 -65 -56 -33 -27 -62 -52 -65 -55 -3 -3 -32 -27 -65 -55 -52 -44
-101 -86 -139 -120 -6 -6 -49 -42 -96 -80 -47 -38 -87 -72 -90 -75 -3 -3 -61
-53 -130 -110 -69 -58 -127 -107 -130 -110 -3 -3 -43 -37 -90 -75 -47 -38 -87
-72 -90 -75 -18 -19 -152 -129 -183 -150 -20 -14 -37 -28 -37 -31 0 -11 90
-19 112 -9 34 13 1014 73 1136 69 26 -1 131 1 235 3 103 3 189 2 192 -1 2 -4
-86 -95 -196 -202 -110 -106 -244 -238 -297 -292 -53 -54 -349 -352 -657 -661
-649 -652 -845 -853 -845 -865 0 -5 -6 -12 -12 -15 -7 -3 -2 -3 12 0 38 9 372
178 610 309 58 31 128 70 155 85 28 15 66 36 85 47 19 11 71 39 115 63 44 23
85 46 90 50 6 4 48 28 95 52 93 49 184 99 270 145 30 17 81 45 113 62 80 44
159 87 252 139 44 25 112 61 150 82 115 61 183 99 318 177 71 40 130 73 132
73 2 0 27 14 55 30 59 35 154 87 255 140 39 20 87 46 108 58 20 12 54 32 75
44 20 12 66 37 102 56 36 19 70 38 75 42 11 9 61 37 145 82 30 17 84 47 120
68 36 20 79 44 95 52 32 16 92 49 128 72 12 7 47 27 77 43 30 17 72 40 93 52
84 48 115 65 182 101 39 21 95 52 125 69 30 18 63 34 72 37 38 13 28 34 -27
59 -29 14 -58 25 -64 25 -5 0 -22 6 -38 14 -25 13 -46 22 -123 54 -80 34 -127
54 -145 62 -11 5 -42 18 -70 30 -27 12 -59 25 -70 30 -11 5 -42 18 -70 30 -27
12 -59 25 -70 30 -87 39 -116 50 -127 50 -8 0 -18 4 -23 9 -6 5 -35 19 -65 31
-108 44 -125 51 -141 60 -9 5 -35 14 -58 20 -53 14 -55 41 -6 60 19 8 35 16
35 19 0 4 15 13 32 20 18 8 51 27 73 42 42 29 282 171 300 178 5 2 24 15 41
28 17 12 34 23 38 23 5 0 20 8 34 18 15 11 59 36 97 57 39 21 99 56 135 78 36
22 74 45 85 51 48 28 135 80 194 116 34 22 65 40 68 40 2 0 23 13 46 29 23 15
47 30 52 32 9 4 32 17 158 93 18 10 57 32 87 49 30 17 66 37 80 46 14 9 34 21
45 28 11 6 67 40 125 75 58 34 116 69 130 76 14 7 32 19 40 26 8 7 46 30 84
52 38 21 81 46 95 54 82 48 252 151 356 215 66 41 123 74 127 74 4 1 27 15 51
31 25 17 49 30 55 30 5 0 15 6 21 14 7 8 31 24 54 36 80 42 152 83 180 102 28
20 36 38 16 38 -6 0 -28 13 -49 30 -21 16 -40 30 -44 30 -3 0 -25 13 -48 29
-24 16 -85 56 -137 88 -51 32 -104 65 -116 73 -12 8 -73 47 -135 85 -62 39
-124 78 -139 87 -14 9 -36 23 -47 30 -23 14 -206 130 -252 160 -15 10 -36 22
-47 28 -26 13 -59 33 -65 41 -3 3 -41 26 -85 52 -44 26 -87 52 -95 57 -8 6
-22 13 -30 17 -47 21 -90 55 -90 72 0 11 12 29 28 41 15 11 123 114 241 228
207 200 289 280 676 660 99 97 308 301 465 452 157 151 321 311 366 355 72 71
492 483 932 913 195 190 368 362 447 441 69 71 56 79 -40 25z"/>
</g>
</svg>
