<?xml version="1.0" standalone="no"?>
<!DOCTYPE svg PUBLIC "-//W3C//DTD SVG 20010904//EN"
 "http://www.w3.org/TR/2001/REC-SVG-20010904/DTD/svg10.dtd">
<svg version="1.0" xmlns="http://www.w3.org/2000/svg"
 width="1023.000000pt" height="1023.000000pt" viewBox="0 0 1023.000000 1023.000000"
 preserveAspectRatio="xMidYMid meet">
<metadata>
Created by potrace 1.16, written by Peter Selinger 2001-2019
</metadata>
<g transform="translate(0.000000,1023.000000) scale(0.100000,-0.100000)"
fill="#000000" stroke="none">
<path d="M8120 7796 c-19 -13 -46 -27 -59 -31 -14 -4 -45 -20 -70 -35 -26 -15
-57 -31 -71 -35 -14 -5 -41 -18 -60 -30 -19 -12 -91 -50 -160 -84 -149 -74
-150 -75 -175 -89 -11 -7 -27 -15 -35 -18 -8 -3 -22 -10 -30 -15 -8 -5 -42
-23 -75 -39 -33 -17 -82 -44 -110 -60 -27 -16 -57 -29 -66 -29 -9 -1 -22 -8
-29 -16 -7 -8 -20 -15 -30 -15 -10 0 -23 -7 -30 -15 -7 -8 -21 -15 -31 -15 -9
0 -24 -6 -31 -13 -7 -8 -25 -20 -40 -28 -16 -8 -83 -43 -150 -78 -68 -35 -166
-86 -218 -113 -115 -60 -125 -65 -147 -78 -10 -5 -31 -16 -48 -25 -16 -8 -38
-19 -47 -25 -44 -25 -54 -30 -68 -36 -8 -3 -22 -10 -30 -15 -8 -5 -42 -23 -75
-40 -33 -16 -89 -46 -125 -66 -36 -19 -105 -56 -155 -81 -49 -25 -96 -52 -103
-59 -7 -7 -22 -13 -31 -13 -10 0 -24 -7 -31 -15 -7 -8 -18 -15 -26 -15 -7 0
-19 -6 -26 -14 -8 -7 -25 -17 -38 -21 -14 -4 -30 -11 -36 -16 -10 -8 -106 -60
-234 -127 -36 -18 -96 -51 -135 -72 -38 -22 -77 -42 -85 -45 -8 -4 -22 -10
-30 -15 -8 -5 -55 -30 -105 -55 -49 -26 -97 -51 -105 -56 -8 -5 -26 -13 -40
-19 -14 -5 -52 -25 -85 -44 -33 -19 -100 -56 -150 -81 -171 -89 -219 -115
-229 -125 -5 -5 -17 -10 -25 -10 -8 0 -22 -6 -30 -14 -15 -13 -96 -59 -181
-102 -19 -9 -42 -21 -50 -26 -8 -4 -22 -11 -30 -14 -8 -3 -22 -9 -30 -14 -8
-5 -42 -23 -75 -40 -63 -33 -84 -44 -112 -60 -10 -6 -29 -15 -43 -21 -14 -6
-32 -15 -40 -20 -8 -5 -22 -12 -30 -15 -8 -3 -22 -9 -30 -14 -8 -5 -43 -23
-77 -40 -35 -18 -65 -36 -68 -41 -4 -5 -12 -9 -20 -9 -8 0 -30 -11 -50 -24
-20 -14 -64 -39 -98 -56 -34 -17 -69 -35 -77 -40 -8 -5 -22 -11 -30 -15 -8 -3
-33 -17 -55 -30 -22 -13 -80 -44 -130 -70 -49 -25 -106 -56 -125 -67 -19 -11
-60 -34 -90 -50 -30 -16 -62 -33 -70 -38 -8 -5 -22 -11 -30 -14 -8 -4 -33 -17
-55 -29 -22 -13 -76 -43 -120 -67 -44 -24 -93 -52 -110 -62 -16 -10 -44 -25
-62 -33 -17 -8 -34 -19 -38 -25 -3 -5 -14 -10 -24 -10 -10 0 -28 -11 -41 -25
l-23 -25 23 -25 c13 -14 31 -25 41 -25 9 0 22 -7 29 -15 7 -8 21 -15 31 -15
10 0 21 -5 24 -10 8 -12 123 -90 134 -90 4 0 30 -16 57 -35 27 -19 52 -35 56
-35 4 0 24 -12 45 -26 21 -14 48 -30 61 -35 12 -5 22 -13 22 -18 0 -5 10 -13
23 -17 12 -4 40 -19 62 -33 59 -38 77 -49 105 -63 14 -7 41 -25 61 -40 20 -15
44 -28 52 -28 9 0 18 -4 22 -9 3 -6 31 -25 61 -43 31 -18 67 -40 79 -48 43
-27 160 -97 175 -103 8 -4 42 -25 75 -47 33 -22 69 -44 80 -50 11 -6 34 -19
50 -30 17 -11 41 -24 54 -30 13 -6 44 -24 68 -40 24 -17 48 -30 52 -30 4 0 26
-12 47 -28 21 -15 50 -33 64 -40 14 -6 34 -18 45 -24 11 -7 42 -27 70 -43 27
-17 59 -36 70 -43 11 -7 29 -17 41 -23 11 -6 25 -19 32 -29 10 -17 -77 -107
-818 -846 -457 -455 -830 -831 -830 -836 0 -13 36 -9 69 7 17 8 45 22 62 30
17 8 36 15 42 15 7 0 29 9 50 20 20 11 43 20 51 20 7 0 19 7 26 15 7 8 23 15
36 15 13 0 57 16 97 37 39 20 86 42 102 49 62 25 131 56 157 70 14 8 33 14 41
14 8 0 20 7 27 15 7 8 20 15 29 15 9 0 48 16 86 35 39 19 77 35 85 35 8 0 24
7 34 15 11 8 27 15 37 15 9 0 22 7 29 15 7 8 20 15 29 15 9 0 33 9 54 20 20
11 43 20 51 20 7 0 19 7 26 15 7 8 23 15 35 15 12 0 28 7 35 15 7 8 19 15 27
15 8 0 27 6 41 14 15 8 50 24 77 36 28 13 57 26 65 31 8 5 22 12 30 15 8 3 33
14 56 25 23 10 46 19 51 19 6 0 16 7 23 15 7 8 23 15 35 15 12 0 28 7 35 15 7
8 20 15 29 15 13 0 130 52 181 81 8 5 22 12 30 15 30 11 106 46 132 60 14 8
35 14 46 14 11 0 25 7 32 15 7 8 21 15 31 15 9 0 24 7 33 15 8 8 19 15 25 15
6 0 45 16 88 36 73 33 118 53 203 91 19 9 42 20 50 25 8 4 22 11 30 14 8 3 28
12 43 20 16 7 33 14 39 14 11 0 89 34 118 51 8 5 22 12 30 15 30 11 106 46
132 60 14 8 33 14 41 14 8 0 20 7 27 15 7 8 23 15 35 15 12 0 28 7 35 15 7 8
20 15 30 15 10 0 23 7 30 15 7 8 18 15 24 15 6 0 28 9 49 20 20 11 44 20 52
20 8 0 41 13 72 29 57 29 127 61 191 87 17 8 47 21 65 29 17 8 43 19 57 25 14
5 32 14 40 19 45 26 80 41 92 41 8 0 23 6 33 14 19 13 18 16 -20 50 -21 20
-47 36 -56 36 -10 0 -21 5 -25 11 -3 6 -21 17 -38 25 -17 8 -44 23 -61 34 -16
11 -39 24 -50 30 -11 6 -37 20 -57 33 -21 12 -59 34 -85 48 -27 15 -64 36 -83
48 -19 11 -48 27 -65 36 -16 8 -37 19 -45 24 -63 40 -190 111 -198 111 -6 0
-15 6 -19 13 -4 6 -30 23 -58 37 -27 14 -68 36 -90 50 -66 41 -79 48 -110 64
-37 19 -213 121 -355 206 -8 5 -43 23 -77 40 -34 17 -65 39 -68 49 -5 17 64
87 2598 2631 299 300 558 562 575 583 51 60 37 76 -28 33z"/>
</g>
</svg>
