<?xml version="1.0" standalone="no"?>
<!DOCTYPE svg PUBLIC "-//W3C//DTD SVG 20010904//EN"
 "http://www.w3.org/TR/2001/REC-SVG-20010904/DTD/svg10.dtd">
<svg version="1.0" xmlns="http://www.w3.org/2000/svg"
 width="1023.000000pt" height="1023.000000pt" viewBox="0 0 1023.000000 1023.000000"
 preserveAspectRatio="xMidYMid meet">
<metadata>
Created by potrace 1.16, written by Peter Selinger 2001-2019
</metadata>
<g transform="translate(0.000000,1023.000000) scale(0.100000,-0.100000)"
fill="#000000" stroke="none">
<path d="M5060 8342 c-22 -10 -42 -32 -54 -56 -19 -38 -19 -51 -7 -365 6 -179
16 -506 22 -726 13 -577 27 -882 39 -904 22 -42 87 -32 109 16 6 13 11 63 11
111 0 48 4 173 10 277 5 105 14 372 20 595 5 223 15 527 21 675 13 321 10 337
-61 373 -53 27 -65 27 -110 4z"/>
<path d="M3103 7665 c-39 -16 -53 -42 -53 -93 0 -48 2 -50 321 -432 509 -609
945 -1117 970 -1130 45 -25 89 0 89 50 0 22 -38 80 -153 232 -209 279 -689
909 -752 988 -29 36 -100 129 -159 208 -137 181 -183 212 -263 177z"/>
<path d="M7025 7661 c-54 -34 -34 -9 -651 -811 -496 -644 -584 -762 -591 -788
-7 -29 21 -62 54 -62 14 0 43 18 70 43 103 94 1166 1333 1246 1452 73 108 -22
232 -128 166z"/>
<path d="M2056 5945 c-39 -42 -40 -117 -3 -157 26 -28 130 -55 562 -143 274
-56 577 -120 940 -200 411 -90 422 -92 453 -75 37 21 38 75 2 102 -14 10 -111
40 -215 67 -105 27 -242 64 -305 81 -63 18 -241 65 -395 105 -154 39 -427 111
-607 159 -180 47 -345 86 -368 86 -31 0 -47 -6 -64 -25z"/>
<path d="M3935 4694 c-55 -25 -230 -97 -390 -161 -159 -63 -384 -155 -500
-203 -201 -84 -659 -268 -756 -304 -63 -23 -82 -46 -87 -110 -4 -48 -1 -56 25
-86 26 -29 37 -34 79 -34 40 -1 72 10 169 56 66 31 197 92 290 136 412 194
1345 664 1356 683 8 16 7 26 -6 45 -23 36 -65 31 -180 -22z"/>
</g>
</svg>
