<?xml version="1.0" standalone="no"?>
<!DOCTYPE svg PUBLIC "-//W3C//DTD SVG 20010904//EN"
 "http://www.w3.org/TR/2001/REC-SVG-20010904/DTD/svg10.dtd">
<svg version="1.0" xmlns="http://www.w3.org/2000/svg"
 width="1024.000000pt" height="1024.000000pt" viewBox="0 0 1024.000000 1024.000000"
 preserveAspectRatio="xMidYMid meet">
<metadata>
Created by potrace 1.16, written by Peter Selinger 2001-2019
</metadata>
<g transform="translate(0.000000,1024.000000) scale(0.100000,-0.100000)"
fill="#000000" stroke="none">
<path d="M5063 8351 c-58 -36 -67 -61 -68 -185 0 -110 12 -521 41 -1395 8
-252 19 -462 25 -472 23 -43 99 -28 118 24 4 12 11 108 14 212 56 1707 56
1720 37 1759 -33 64 -112 91 -167 57z"/>
<path d="M3103 7675 c-64 -28 -73 -106 -19 -176 85 -112 820 -985 1122 -1333
126 -147 131 -151 169 -151 32 0 42 5 51 24 23 45 55 -2 -550 791 -204 267
-426 558 -493 647 -154 203 -198 234 -280 198z"/>
<path d="M7045 7681 c-33 -14 -110 -104 -301 -351 -573 -744 -893 -1163 -928
-1214 -30 -44 -33 -68 -10 -90 27 -27 61 -19 111 27 103 95 1165 1333 1246
1452 46 67 29 152 -34 174 -37 13 -56 13 -84 2z"/>
<path d="M2056 5949 c-31 -36 -36 -110 -11 -146 24 -34 133 -64 516 -142 189
-39 439 -92 554 -117 914 -198 874 -191 902 -167 53 46 27 102 -60 127 -64 19
-511 138 -832 221 -132 35 -403 106 -603 159 -199 53 -380 96 -401 96 -31 0
-44 -6 -65 -31z"/>
<path d="M7900 5936 c-91 -24 -262 -68 -380 -99 -206 -53 -488 -127 -1037
-274 -139 -38 -262 -76 -273 -85 -23 -20 -27 -77 -8 -96 24 -24 77 -15 798
138 353 75 541 114 886 184 251 52 298 70 320 123 32 76 -19 154 -100 152 -22
0 -115 -20 -206 -43z"/>
<path d="M4040 4743 c-8 -3 -69 -29 -135 -58 -66 -29 -221 -93 -345 -143 -124
-50 -324 -132 -445 -182 -224 -94 -672 -275 -801 -324 -40 -15 -80 -36 -89
-46 -26 -29 -32 -113 -10 -146 22 -34 78 -57 119 -49 55 12 553 249 1178 561
453 226 608 309 613 324 14 45 -34 81 -85 63z"/>
<path d="M6126 4734 c-22 -22 -20 -50 6 -76 37 -37 1485 -746 1730 -848 51
-21 62 -22 98 -11 48 14 80 58 80 111 0 68 -46 105 -200 162 -159 60 -586 232
-750 303 -85 37 -276 116 -425 175 -148 60 -317 129 -374 154 -112 50 -141 55
-165 30z"/>
<path d="M4638 4178 c-9 -7 -85 -141 -168 -298 -84 -157 -217 -404 -295 -550
-78 -146 -174 -328 -212 -405 -39 -77 -104 -206 -146 -286 -76 -149 -102 -226
-87 -263 23 -61 109 -93 168 -62 44 23 72 65 127 191 26 61 94 216 150 345 56
129 170 390 252 580 222 509 293 683 293 713 0 40 -49 61 -82 35z"/>
<path d="M5542 4174 c-30 -21 -28 -39 18 -144 22 -50 96 -225 164 -388 187
-446 535 -1254 552 -1280 42 -64 133 -81 184 -34 65 58 57 117 -42 310 -38 75
-188 369 -333 652 -327 641 -441 859 -462 882 -20 22 -51 23 -81 2z"/>
</g>
</svg>
