<?xml version="1.0" standalone="no"?>
<!DOCTYPE svg PUBLIC "-//W3C//DTD SVG 20010904//EN"
 "http://www.w3.org/TR/2001/REC-SVG-20010904/DTD/svg10.dtd">
<svg version="1.0" xmlns="http://www.w3.org/2000/svg"
 width="1024.000000pt" height="1024.000000pt" viewBox="0 0 1024.000000 1024.000000"
 preserveAspectRatio="xMidYMid meet">
<metadata>
Created by potrace 1.16, written by Peter Selinger 2001-2019
</metadata>
<g transform="translate(0.000000,1024.000000) scale(0.100000,-0.100000)"
fill="#000000" stroke="none">
<path d="M5145 7722 c-40 -25 -35 -19 -170 -237 -429 -694 -559 -928 -742
-1339 -291 -654 -494 -1291 -564 -1761 -93 -634 56 -1174 425 -1541 313 -310
745 -425 1181 -313 643 164 1072 886 970 1631 -47 338 -159 635 -432 1141
-337 625 -483 1007 -550 1437 -28 176 -25 570 5 740 30 169 29 194 -7 231 -34
34 -72 38 -116 11z"/>
</g>
</svg>
