<?xml version="1.0" standalone="no"?>
<!DOCTYPE svg PUBLIC "-//W3C//DTD SVG 20010904//EN"
 "http://www.w3.org/TR/2001/REC-SVG-20010904/DTD/svg10.dtd">
<svg version="1.0" xmlns="http://www.w3.org/2000/svg"
 width="1024.000000pt" height="1024.000000pt" viewBox="0 0 1024.000000 1024.000000"
 preserveAspectRatio="xMidYMid meet">
<metadata>
Created by potrace 1.16, written by Peter Selinger 2001-2019
</metadata>
<g transform="translate(0.000000,1024.000000) scale(0.100000,-0.100000)"
fill="#000000" stroke="none">
<path d="M4423 9038 c3 -7 35 -76 70 -153 109 -237 161 -415 172 -591 4 -49 8
-103 9 -120 7 -71 -15 -302 -40 -411 -56 -253 -150 -454 -362 -776 -160 -241
-232 -380 -291 -552 -69 -204 -92 -339 -98 -571 -4 -157 -2 -228 12 -328 9
-70 14 -130 11 -134 -8 -8 -95 78 -156 153 -215 270 -273 659 -179 1215 16 96
29 179 29 185 0 14 -228 -214 -319 -320 -377 -437 -654 -977 -750 -1462 -84
-419 -64 -809 60 -1190 22 -69 38 -127 35 -130 -16 -16 -221 189 -315 317 -34
45 -77 111 -97 146 -20 35 -38 64 -41 64 -12 0 6 -509 21 -616 87 -616 339
-1146 746 -1567 406 -421 952 -680 1503 -712 l102 -6 -38 23 c-20 13 -78 46
-128 73 -207 114 -438 323 -558 505 -260 396 -336 862 -210 1292 61 210 191
428 347 582 74 72 97 79 81 23 -17 -59 -22 -202 -10 -285 19 -131 77 -279 154
-392 32 -47 165 -190 177 -190 4 0 -3 53 -16 118 -59 304 -58 533 1 759 47
177 107 294 253 490 235 315 326 478 374 668 14 58 21 128 25 255 6 204 -7
317 -58 478 -18 56 -30 104 -27 108 8 7 140 -60 213 -109 398 -268 595 -634
597 -1107 1 -149 -5 -188 -62 -431 -59 -250 -73 -346 -67 -474 7 -152 33 -232
96 -295 38 -38 59 -50 102 -60 99 -22 182 19 215 106 14 38 16 60 8 152 -5 59
-9 175 -8 257 0 142 2 155 33 244 34 101 85 193 138 252 35 38 250 186 259
177 2 -3 -6 -39 -20 -79 -36 -108 -50 -224 -43 -358 9 -184 43 -299 177 -601
113 -255 140 -351 155 -555 12 -171 -31 -460 -97 -642 -154 -426 -527 -789
-990 -964 -49 -18 -87 -34 -85 -36 2 -1 81 9 175 22 186 27 387 75 522 124
206 76 470 225 645 366 95 76 293 273 372 370 158 194 323 480 417 722 257
660 268 1452 30 2090 -86 232 -202 460 -455 893 -349 601 -430 832 -416 1199
5 155 22 233 74 334 13 27 23 51 21 53 -3 2 -33 -13 -68 -34 -85 -49 -253
-216 -318 -317 -90 -137 -145 -313 -158 -506 -8 -121 5 -203 68 -432 42 -153
50 -200 55 -298 7 -140 -8 -204 -63 -267 -49 -58 -85 -74 -161 -74 -120 0
-230 75 -289 200 -87 184 -103 446 -54 877 31 266 25 517 -14 690 -143 619
-600 1138 -1320 1496 -163 81 -182 88 -173 67z"/>
</g>
</svg>
