<?xml version="1.0" standalone="no"?>
<!DOCTYPE svg PUBLIC "-//W3C//DTD SVG 20010904//EN"
 "http://www.w3.org/TR/2001/REC-SVG-20010904/DTD/svg10.dtd">
<svg version="1.0" xmlns="http://www.w3.org/2000/svg"
 width="1023.000000pt" height="1023.000000pt" viewBox="0 0 1023.000000 1023.000000"
 preserveAspectRatio="xMidYMid meet">
<metadata>
Created by potrace 1.16, written by Peter Selinger 2001-2019
</metadata>
<g transform="translate(0.000000,1023.000000) scale(0.100000,-0.100000)"
fill="#000000" stroke="none">
<path d="M5706 8678 c-16 -42 -45 -163 -81 -338 -87 -421 -232 -912 -345
-1170 -143 -328 -292 -525 -457 -607 l-77 -38 -126 1 c-113 1 -137 5 -246 37
-300 89 -692 308 -1250 698 -148 104 -277 188 -287 189 -28 0 -16 -27 81 -185
351 -575 464 -771 643 -1120 203 -397 269 -576 268 -725 0 -171 -83 -247 -320
-294 -237 -48 -530 -57 -1049 -32 -285 14 -370 12 -372 -9 -1 -13 52 -43 305
-177 438 -230 658 -377 849 -568 108 -108 195 -229 235 -325 90 -215 31 -425
-229 -816 -113 -170 -181 -260 -495 -646 -179 -220 -283 -356 -283 -371 0 -7
5 -12 12 -12 11 0 171 87 648 351 338 187 670 336 857 384 290 76 361 -7 379
-440 7 -165 -7 -440 -36 -725 -11 -102 -20 -209 -20 -237 0 -98 25 -70 160
177 168 307 410 661 604 885 90 104 226 299 226 324 0 11 -11 13 -49 8 -60 -7
-95 -24 -183 -89 -125 -92 -363 -391 -516 -648 l-21 -35 1 220 c1 439 -61 644
-220 722 -53 26 -65 28 -177 27 -138 -1 -230 -22 -435 -98 -117 -44 -439 -197
-559 -266 -29 -17 -55 -29 -57 -28 -2 2 31 46 72 98 313 392 460 638 509 855
42 184 28 319 -50 480 -93 194 -326 435 -620 642 -55 38 -115 78 -132 89 -18
10 -33 21 -33 24 0 3 73 3 161 1 335 -7 655 47 808 136 75 44 156 127 184 191
91 203 43 446 -185 936 -83 178 -264 518 -306 574 -27 35 -23 55 5 30 26 -23
200 -121 322 -182 220 -111 452 -197 621 -231 124 -25 310 -17 402 17 228 85
411 286 597 654 122 242 242 585 296 848 5 26 11 16 40 -72 186 -553 476 -915
800 -997 78 -20 245 -19 343 1 158 32 349 122 565 264 64 42 117 73 117 68 0
-5 -11 -35 -25 -68 -76 -180 -169 -493 -200 -675 -20 -118 -30 -291 -18 -335
16 -61 35 -43 71 65 102 308 216 612 389 1045 107 267 199 497 203 513 8 24 6
27 -15 27 -13 0 -43 -15 -67 -33 -421 -322 -548 -412 -707 -501 -250 -142
-479 -192 -633 -138 -300 106 -538 531 -758 1357 -70 264 -90 327 -106 332 -7
2 -19 -15 -28 -39z"/>
</g>
</svg>
