<?xml version="1.0" standalone="no"?>
<!DOCTYPE svg PUBLIC "-//W3C//DTD SVG 20010904//EN"
 "http://www.w3.org/TR/2001/REC-SVG-20010904/DTD/svg10.dtd">
<svg version="1.0" xmlns="http://www.w3.org/2000/svg"
 width="1024.000000pt" height="1024.000000pt" viewBox="0 0 1024.000000 1024.000000"
 preserveAspectRatio="xMidYMid meet">
<metadata>
Created by potrace 1.16, written by Peter Selinger 2001-2019
</metadata>
<g transform="translate(0.000000,1024.000000) scale(0.100000,-0.100000)"
fill="#000000" stroke="none">
<path d="M1960 9610 c0 -3 70 -99 155 -215 85 -115 180 -248 211 -295 32 -47
181 -253 333 -458 152 -206 324 -440 384 -520 196 -268 411 -563 456 -625 25
-34 102 -138 171 -232 69 -93 177 -244 239 -335 121 -176 174 -244 95 -120
-75 117 -251 400 -464 745 -217 352 -356 572 -510 810 -144 223 -226 359 -350
585 -59 107 -139 240 -178 296 -39 55 -107 159 -150 230 l-79 129 -156 5 c-87
3 -157 3 -157 0z"/>
<path d="M2990 9603 c0 -17 371 -742 467 -913 67 -119 391 -766 542 -1085 187
-392 263 -546 267 -543 6 6 -154 416 -311 798 -53 129 -124 305 -157 390 -32
85 -74 191 -93 235 -84 201 -231 573 -319 810 -53 143 -103 275 -111 293 l-15
32 -135 0 c-120 0 -135 -2 -135 -17z"/>
<path d="M5074 9388 c3 -128 11 -460 16 -738 11 -551 29 -1082 36 -1089 2 -2
4 38 4 90 1 52 5 153 10 224 12 166 27 702 36 1288 l7 457 -58 0 -57 0 6 -232z"/>
<path d="M9034 9363 c-581 -623 -934 -1010 -1388 -1517 -99 -111 -247 -270
-328 -355 -82 -85 -204 -215 -271 -290 -67 -75 -196 -217 -287 -316 -91 -99
-172 -189 -180 -200 -8 -11 176 172 410 406 234 234 623 617 865 849 242 233
521 505 620 604 99 100 339 334 533 521 193 186 352 342 352 347 0 4 43 53 96
108 l96 100 -139 0 -140 0 -239 -257z"/>
<path d="M3690 9604 c0 -15 115 -361 220 -659 151 -431 262 -763 371 -1105 50
-157 95 -292 101 -300 8 -12 8 -11 4 4 -4 10 -54 192 -112 405 -58 212 -141
501 -184 641 -43 140 -104 343 -134 450 -31 107 -82 278 -114 380 l-58 185
-47 3 c-26 2 -47 0 -47 -4z"/>
<path d="M6112 9574 c-38 -147 -89 -375 -122 -538 -46 -228 -152 -701 -220
-986 -89 -369 -254 -1139 -246 -1147 5 -5 115 340 186 582 34 116 74 253 90
305 15 52 42 147 59 210 16 63 57 199 91 302 33 103 74 242 91 310 17 68 57
195 89 283 32 88 68 199 79 246 11 47 38 141 60 209 45 136 74 240 68 246 -2
2 -51 7 -110 10 l-105 7 -10 -39z"/>
<path d="M7091 9588 c-12 -31 -305 -712 -378 -878 -33 -74 -66 -151 -73 -170
-18 -47 -342 -782 -436 -989 -165 -361 -41 -137 340 619 143 283 306 609 363
724 57 114 128 251 159 303 45 76 194 390 194 408 0 3 -36 5 -80 5 -74 0 -81
-2 -89 -22z"/>
<path d="M7699 9403 c-70 -115 -187 -307 -261 -428 -74 -121 -161 -267 -193
-325 -128 -232 -164 -294 -298 -510 -77 -124 -161 -259 -187 -300 -86 -136
-209 -339 -466 -767 -330 -551 -360 -609 -154 -298 174 261 546 790 700 995
48 63 115 158 150 210 77 116 188 267 245 335 24 28 75 102 115 165 72 115
248 376 305 454 30 40 104 150 318 471 59 88 114 170 123 183 l16 22 -143 0
-144 0 -126 -207z"/>
<path d="M8828 9573 c-19 -21 -102 -121 -183 -223 -82 -102 -185 -228 -230
-280 -45 -52 -184 -219 -309 -370 -330 -399 -386 -466 -535 -645 -170 -203
-331 -404 -331 -413 0 -9 27 19 146 153 53 61 200 218 324 350 125 132 307
328 405 435 98 107 256 276 350 375 94 99 252 270 352 380 99 110 195 213 212
229 17 17 31 33 31 38 0 4 -44 8 -98 8 l-98 0 -36 -37z"/>
<path d="M4324 9558 c4 -24 54 -263 111 -533 57 -269 107 -508 111 -530 9 -56
25 -81 19 -30 -3 22 -14 114 -25 205 -23 185 -48 346 -111 693 l-42 237 -35 0
-35 0 7 -42z"/>
<path d="M5835 9588 c-22 -59 -182 -1064 -172 -1075 3 -2 8 11 12 29 13 68 57
277 81 388 13 63 38 185 54 270 35 180 79 381 86 392 3 5 -9 8 -26 8 -17 0
-33 -6 -35 -12z"/>
<path d="M1170 9477 c0 -11 123 -156 353 -417 286 -323 351 -394 881 -960 111
-118 386 -399 386 -394 0 3 -66 80 -147 171 -160 179 -319 359 -538 609 -430
491 -935 1026 -935 991z"/>
<path d="M688 9265 l3 -155 72 -57 c101 -81 402 -334 524 -439 193 -168 498
-438 608 -539 105 -95 244 -219 455 -405 377 -332 1019 -912 1248 -1127 72
-69 132 -121 132 -116 0 10 -1198 1206 -1710 1709 -162 159 -393 388 -512 509
-119 121 -290 294 -380 385 -90 91 -225 216 -300 278 -75 62 -138 112 -140
112 -2 0 -2 -70 0 -155z"/>
<path d="M9493 8978 c-33 -29 -102 -92 -154 -139 -52 -47 -159 -141 -239 -209
-80 -69 -250 -219 -379 -335 -502 -450 -946 -843 -1110 -981 -135 -114 -158
-146 -31 -43 58 47 193 157 301 245 367 298 1094 869 1154 905 17 11 141 108
277 216 l247 198 1 98 c0 53 -1 97 -3 97 -2 0 -31 -24 -64 -52z"/>
<path d="M670 8867 l0 -105 68 -53 c37 -29 152 -125 257 -213 104 -89 235
-195 290 -236 55 -42 197 -150 315 -240 118 -90 287 -218 375 -285 178 -134
287 -219 645 -503 135 -107 252 -199 260 -205 32 -21 -273 256 -515 468 -321
281 -890 790 -1002 897 -62 58 -134 123 -160 144 -26 21 -102 84 -168 139 -99
83 -300 248 -352 288 -10 7 -13 -13 -13 -96z"/>
<path d="M9055 7874 c-275 -189 -574 -394 -664 -456 -162 -111 -286 -199 -746
-529 -126 -91 -297 -211 -378 -268 -81 -57 -146 -105 -144 -107 2 -3 67 35
143 84 143 91 422 267 682 430 81 50 194 121 252 156 58 35 209 130 335 211
127 82 274 174 327 206 115 69 666 425 691 447 13 12 17 31 17 94 0 43 -3 78
-7 77 -5 0 -233 -155 -508 -345z"/>
<path d="M670 7997 c0 -149 4 -160 64 -190 28 -15 127 -75 221 -133 93 -59
244 -149 335 -202 91 -52 253 -148 360 -214 235 -142 884 -531 1250 -748 146
-87 388 -230 538 -320 150 -89 275 -161 277 -159 2 2 -99 71 -223 152 -125 82
-308 204 -407 272 -99 69 -400 272 -670 453 -533 357 -938 632 -1025 696 -30
22 -205 140 -387 263 l-333 222 0 -92z"/>
<path d="M9456 7320 c-65 -33 -148 -78 -185 -99 -71 -41 -305 -161 -886 -456
-203 -104 -396 -203 -428 -222 -32 -18 -238 -123 -457 -233 -219 -110 -416
-209 -437 -221 -21 -12 -94 -53 -163 -91 -169 -94 -188 -118 -33 -40 32 16 90
41 128 55 39 14 156 64 260 112 221 101 601 270 970 430 143 62 287 125 320
140 33 15 95 40 138 56 42 16 137 54 210 85 72 31 233 96 357 145 124 48 251
98 282 111 l58 23 0 133 c0 72 -3 132 -8 132 -4 0 -61 -27 -126 -60z"/>
<path d="M686 7173 c-3 -42 -3 -80 1 -84 5 -4 26 -12 48 -19 22 -7 202 -81
400 -165 517 -220 520 -221 855 -358 262 -107 451 -187 833 -353 42 -18 77
-32 77 -30 0 6 -354 195 -430 230 -36 17 -108 53 -160 80 -322 168 -1516 758
-1543 762 -17 3 -41 7 -53 9 -20 4 -22 -1 -28 -72z"/>
<path d="M9560 6510 c-8 -5 -114 -42 -235 -83 -121 -42 -384 -134 -585 -205
-324 -115 -1541 -521 -1613 -538 -15 -3 -26 -8 -24 -11 3 -2 85 14 183 37 99
23 258 59 354 81 96 22 292 69 435 104 143 36 328 78 411 95 83 16 187 41 230
54 43 14 158 44 254 66 305 71 595 142 603 150 4 3 6 63 5 133 -3 109 -5 124
-18 117z"/>
<path d="M670 6376 c0 -81 2 -95 18 -100 62 -18 492 -135 857 -232 237 -63
563 -150 726 -194 163 -44 368 -98 455 -120 172 -43 747 -170 752 -166 1 2
-48 19 -110 39 -782 247 -1016 323 -1089 352 -48 19 -124 44 -170 55 -80 21
-927 294 -1074 346 -103 37 -301 101 -335 109 l-30 7 0 -96z"/>
<path d="M685 5891 c4 -25 8 -47 8 -47 1 -1 90 -14 197 -28 107 -15 269 -38
360 -51 91 -14 259 -39 373 -56 114 -17 213 -29 219 -27 6 2 -72 21 -173 41
-169 35 -355 75 -817 176 l-174 38 7 -46z"/>
<path d="M9145 5749 c-762 -117 -890 -137 -864 -138 23 -1 345 26 1024 84 105
9 210 23 235 29 42 12 45 16 48 49 3 36 2 37 -30 36 -18 -1 -204 -27 -413 -60z"/>
<path d="M1868 5673 c6 -2 18 -2 25 0 6 3 1 5 -13 5 -14 0 -19 -2 -12 -5z"/>
<path d="M675 5381 c-7 -6 -6 -72 1 -97 5 -20 13 -21 262 -28 141 -4 424 -13
627 -21 372 -15 1465 -39 1471 -32 5 5 -711 62 -1286 102 -457 32 -559 40
-923 69 -81 7 -150 10 -152 7z"/>
<path d="M676 5123 c3 -27 7 -49 8 -49 0 -1 98 2 216 7 622 24 1066 41 1458
54 240 8 437 17 439 18 5 5 -1201 17 -1700 17 l-428 0 7 -47z"/>
<path d="M8995 5129 c-187 -5 -692 -12 -1123 -17 -568 -6 -786 -12 -794 -20
-9 -9 0 -12 37 -12 27 0 99 -4 159 -10 97 -8 363 -25 971 -60 94 -6 186 -12
205 -15 36 -5 398 -27 750 -45 107 -5 239 -12 293 -15 l97 -6 0 106 0 105
-127 -2 c-71 -1 -281 -5 -468 -9z"/>
<path d="M7282 4705 c3 -3 102 -28 219 -55 118 -28 252 -61 299 -74 47 -13
146 -38 220 -55 120 -27 788 -197 1340 -340 107 -28 201 -51 208 -51 15 0 17
185 2 195 -12 7 -809 144 -1195 205 -143 23 -447 72 -675 111 -455 76 -425 71
-418 64z"/>
<path d="M1795 4639 c-27 -4 -149 -20 -270 -34 -121 -14 -358 -44 -526 -65
-168 -22 -309 -40 -312 -40 -5 0 1 -59 7 -67 5 -6 474 71 771 127 182 33 357
66 390 71 33 6 61 12 64 15 7 6 -68 3 -124 -7z"/>
<path d="M8231 4645 c5 -4 374 -69 659 -116 69 -11 179 -29 245 -40 66 -12
176 -29 245 -40 213 -32 190 -33 190 6 0 28 -4 34 -27 39 -27 5 -475 60 -918
111 -121 14 -249 30 -285 35 -71 10 -116 13 -109 5z"/>
<path d="M2625 4458 c-242 -71 -552 -162 -690 -203 -251 -74 -517 -149 -740
-210 -66 -18 -207 -58 -313 -89 -106 -31 -195 -56 -197 -56 -3 0 -5 -52 -5
-115 0 -63 1 -115 3 -115 6 0 435 156 587 213 80 30 242 89 360 132 284 103
591 222 880 340 129 53 312 125 405 161 280 108 256 103 -290 -58z"/>
<path d="M6981 4405 c3 -2 38 -18 79 -36 116 -49 431 -194 549 -253 58 -29
117 -57 131 -61 14 -4 108 -46 210 -93 323 -148 420 -191 615 -273 105 -44
233 -101 285 -126 52 -25 158 -71 235 -103 77 -32 212 -92 300 -133 88 -41
169 -78 180 -81 19 -6 20 -2 17 127 l-3 132 -152 49 c-356 115 -1042 352
-1282 443 -66 25 -176 65 -245 89 -69 24 -213 75 -320 114 -273 101 -583 210
-594 210 -5 0 -7 -2 -5 -5z"/>
<path d="M2740 4154 c-102 -47 -273 -126 -380 -174 -107 -48 -276 -125 -375
-170 -99 -45 -229 -102 -290 -127 -60 -25 -186 -79 -280 -121 -93 -41 -235
-102 -315 -134 -80 -33 -211 -89 -292 -126 l-148 -66 0 -88 c0 -48 3 -88 6
-88 3 0 87 42 187 94 731 377 1041 538 1097 571 36 20 175 93 310 161 431 217
690 355 669 354 -2 0 -87 -39 -189 -86z"/>
<path d="M6396 4161 c5 -5 119 -102 254 -216 135 -114 281 -238 325 -276 210
-178 1064 -896 1324 -1112 91 -76 237 -197 324 -270 88 -73 189 -157 225 -187
37 -30 212 -175 389 -322 177 -147 324 -268 327 -268 3 0 6 75 6 168 l0 167
-387 291 c-214 160 -458 341 -543 404 -85 62 -222 164 -305 225 -82 61 -187
137 -232 168 -45 32 -145 106 -222 165 -77 59 -180 133 -228 165 -48 32 -173
121 -278 198 -104 77 -242 175 -305 218 -146 99 -468 333 -582 422 -48 38 -91
69 -95 69 -4 0 -3 -4 3 -9z"/>
<path d="M3495 3955 c-126 -97 -302 -228 -390 -292 -88 -65 -216 -161 -285
-214 -69 -53 -169 -127 -222 -165 -53 -38 -182 -135 -286 -216 -104 -81 -257
-195 -340 -255 -367 -264 -1218 -898 -1286 -958 l-38 -34 3 -118 c2 -65 5
-121 6 -125 4 -8 266 197 378 296 39 34 126 108 195 163 69 56 173 141 232
190 59 48 173 142 253 208 81 66 235 192 343 280 107 88 234 192 281 230 48
39 132 109 187 156 91 80 506 431 735 624 79 66 352 299 448 382 67 58 -4 7
-214 -152z"/>
<path d="M7536 3753 c170 -102 356 -214 414 -248 58 -34 191 -116 295 -181
105 -66 249 -155 320 -199 72 -43 266 -163 433 -267 307 -191 581 -354 585
-347 1 2 1 45 -1 96 l-3 92 -245 125 c-134 69 -333 174 -442 232 -108 58 -258
139 -332 179 -139 74 -400 215 -715 385 -283 153 -601 320 -610 320 -4 0 132
-84 301 -187z"/>
<path d="M3490 3679 c-56 -51 -541 -472 -699 -607 -47 -41 -133 -115 -190
-165 -57 -51 -189 -165 -293 -254 -104 -89 -260 -224 -346 -300 -87 -76 -259
-223 -382 -328 -353 -300 -909 -788 -923 -812 -4 -7 -6 -60 -5 -119 l3 -107
180 168 c99 93 236 220 305 284 68 64 158 148 200 186 188 175 739 698 742
704 2 3 95 94 208 200 113 107 241 229 285 271 333 317 539 512 720 681 199
187 264 250 254 249 -2 -1 -29 -23 -59 -51z"/>
<path d="M3952 3558 c-32 -40 -170 -212 -307 -383 -136 -170 -269 -335 -295
-365 -25 -30 -75 -93 -110 -140 -35 -47 -84 -109 -109 -139 -25 -29 -107 -131
-181 -226 -121 -154 -293 -370 -568 -714 -51 -64 -128 -163 -170 -220 -85
-114 -381 -491 -504 -641 l-79 -95 133 -3 c118 -3 134 -1 146 15 8 10 85 122
172 248 88 127 174 250 191 274 18 24 75 108 127 185 53 78 114 164 137 191
23 28 97 131 165 230 67 99 148 213 179 253 31 41 65 87 76 103 11 17 59 85
108 152 48 67 111 155 140 196 28 41 120 169 202 285 83 116 204 290 269 386
65 96 151 217 190 270 114 150 157 210 152 210 -3 0 -31 -33 -64 -72z"/>
<path d="M6875 3486 c72 -77 706 -716 1410 -1420 l1280 -1281 3 150 3 150 -53
48 c-29 26 -114 101 -188 165 -74 64 -198 173 -275 242 -77 69 -169 150 -205
180 -36 30 -186 165 -334 300 -309 281 -450 408 -556 500 -41 36 -172 153
-290 260 -118 108 -228 205 -244 218 -47 36 -311 278 -456 417 -212 205 -234
221 -95 71z"/>
<path d="M6020 3501 c0 -8 23 -57 51 -110 29 -53 175 -337 326 -631 151 -294
337 -654 413 -800 75 -146 238 -461 360 -700 123 -239 244 -475 269 -525 l47
-90 152 -3 152 -3 -78 128 c-43 71 -111 187 -152 258 -40 72 -169 274 -285
450 -116 176 -238 363 -270 415 -32 52 -80 131 -108 175 -27 44 -116 190 -197
325 -80 135 -198 328 -260 430 -63 102 -183 300 -267 440 -84 140 -153 248
-153 241z"/>
<path d="M2275 3437 c-44 -30 -201 -125 -350 -212 -148 -87 -322 -189 -385
-228 -63 -39 -180 -107 -260 -152 -134 -76 -437 -256 -573 -340 l-57 -35 0
-71 c0 -39 4 -69 8 -67 51 21 1572 1050 1682 1138 45 36 16 21 -65 -33z"/>
<path d="M4617 3343 c-3 -10 -71 -198 -152 -418 -81 -220 -173 -474 -205 -565
-31 -91 -87 -244 -123 -340 -36 -96 -104 -281 -151 -410 -46 -129 -107 -293
-134 -365 -27 -71 -66 -182 -87 -245 -21 -63 -60 -164 -87 -224 -27 -59 -47
-110 -45 -112 2 -2 59 -5 127 -7 l122 -2 33 105 c84 271 99 323 127 435 16 66
65 246 110 400 44 154 114 401 154 550 41 148 88 311 104 363 17 51 60 213 96
360 36 147 79 316 95 376 16 60 28 111 26 113 -3 2 -7 -4 -10 -14z"/>
<path d="M6767 3178 c218 -260 602 -722 823 -993 113 -137 257 -311 320 -385
109 -127 289 -344 495 -594 50 -60 148 -179 218 -263 70 -85 151 -186 180
-224 l51 -69 89 0 89 0 -19 24 c-221 292 -472 583 -893 1036 -184 197 -576
624 -735 800 -71 80 -155 172 -186 205 -30 33 -169 187 -308 343 -139 155
-254 282 -257 282 -2 0 57 -73 133 -162z"/>
<path d="M5107 2860 c-4 -234 -10 -481 -13 -550 -2 -69 -9 -379 -15 -690 -5
-311 -12 -661 -15 -778 l-6 -212 65 0 c64 0 65 0 71 31 9 45 7 352 -4 644 -5
138 -16 459 -24 715 -46 1396 -49 1443 -59 840z"/>
<path d="M5620 3204 c0 -5 11 -58 25 -119 13 -60 56 -256 95 -435 39 -179 87
-386 105 -460 19 -74 50 -214 70 -310 30 -148 229 -1019 268 -1175 l12 -50
113 -3 c61 -1 112 -1 112 1 0 2 -15 48 -34 103 -18 55 -39 131 -45 169 -7 38
-28 110 -46 160 -76 204 -130 365 -227 674 -138 445 -357 1162 -415 1361 -24
81 -33 104 -33 84z"/>
<path d="M3752 2713 c-82 -137 -202 -338 -267 -448 -393 -665 -618 -1043 -822
-1377 l-151 -248 94 0 94 0 100 198 c54 108 122 238 149 287 28 50 125 241
217 425 91 184 183 364 204 400 21 36 102 189 180 340 124 239 257 486 337
628 13 23 22 42 19 42 -2 0 -71 -111 -154 -247z"/>
<path d="M4980 2933 c0 -5 -22 -206 -49 -448 -28 -242 -62 -548 -76 -680 -14
-132 -30 -267 -35 -300 -5 -33 -16 -143 -25 -244 -9 -101 -24 -249 -35 -330
-10 -80 -21 -176 -25 -213 l-7 -68 65 0 65 0 6 72 c3 40 15 246 26 458 11 212
29 520 40 685 11 165 26 440 35 610 8 171 17 345 21 388 3 42 3 77 0 77 -3 0
-6 -3 -6 -7z"/>
<path d="M6029 2820 c16 -47 45 -125 64 -175 20 -49 117 -299 216 -555 99
-256 215 -557 259 -670 78 -200 211 -540 271 -690 l29 -75 81 -3 c45 -2 81 1
81 6 0 12 -77 182 -292 642 -96 206 -190 409 -208 450 -18 41 -60 134 -93 205
-84 184 -192 422 -314 695 -57 129 -109 239 -114 245 -5 5 4 -29 20 -75z"/>
<path d="M3104 2798 c-31 -35 -152 -164 -268 -288 -237 -254 -390 -418 -617
-665 -86 -94 -246 -267 -355 -386 -109 -118 -235 -255 -279 -305 -44 -49 -136
-150 -205 -224 -144 -155 -236 -268 -225 -278 3 -4 44 -9 89 -10 63 -3 91 0
115 12 30 16 168 173 285 325 32 42 80 101 106 131 26 30 90 112 143 182 53
70 174 219 269 331 170 202 510 614 598 727 25 32 127 159 227 284 100 124
181 226 179 226 -2 0 -30 -28 -62 -62z"/>
<path d="M7155 2370 c20 -35 170 -258 280 -415 259 -371 660 -950 777 -1122
l123 -182 83 -1 83 0 -45 58 c-25 31 -104 131 -176 222 -72 91 -219 282 -327
425 -108 143 -287 374 -397 513 -111 139 -243 308 -294 375 -92 120 -124 158
-107 127z"/>
</g>
</svg>
