<?xml version="1.0" standalone="no"?>
<!DOCTYPE svg PUBLIC "-//W3C//DTD SVG 20010904//EN"
 "http://www.w3.org/TR/2001/REC-SVG-20010904/DTD/svg10.dtd">
<svg version="1.0" xmlns="http://www.w3.org/2000/svg"
 width="1024.000000pt" height="1024.000000pt" viewBox="0 0 1024.000000 1024.000000"
 preserveAspectRatio="xMidYMid meet">
<metadata>
Created by potrace 1.16, written by Peter Selinger 2001-2019
</metadata>
<g transform="translate(0.000000,1024.000000) scale(0.100000,-0.100000)"
fill="#000000" stroke="none">
<path d="M7725 8899 c-140 -21 -218 -64 -365 -204 -152 -145 -195 -179 -265
-211 -68 -32 -167 -36 -226 -11 -52 21 -116 82 -161 151 -21 33 -38 52 -38 44
0 -31 34 -126 68 -193 61 -117 147 -191 292 -252 24 -10 24 -11 -20 -23 -99
-27 -227 15 -317 105 -59 59 -61 54 -17 -43 29 -65 128 -166 200 -204 76 -41
157 -59 264 -59 116 -1 214 19 317 64 95 41 157 82 264 173 88 76 188 133 232
134 28 0 27 -1 -26 -49 -93 -86 -145 -213 -168 -414 -16 -144 -26 -176 -64
-214 -52 -52 -82 -48 -361 56 -427 160 -638 213 -924 233 -696 49 -1441 -190
-2383 -765 -60 -36 -130 -74 -155 -83 -147 -53 -185 -78 -337 -224 -49 -48
-135 -122 -190 -166 -219 -173 -423 -408 -509 -587 -84 -173 -115 -298 -123
-495 -14 -337 66 -554 284 -763 284 -274 847 -461 1668 -553 171 -20 364 -33
670 -47 328 -14 381 -27 119 -28 -274 -1 -423 -31 -599 -119 -61 -30 -287
-178 -470 -307 -83 -59 -283 -179 -377 -226 -102 -51 -161 -75 -278 -109 -190
-56 -259 -61 -393 -25 -55 15 -74 16 -105 7 -61 -19 -220 -139 -333 -251 -109
-109 -146 -167 -174 -268 l-13 -48 -1 41 c-3 118 119 288 288 403 31 21 64 48
74 59 18 20 17 20 -30 35 -76 25 -220 61 -458 116 -498 114 -663 151 -673 151
-6 0 -23 5 -38 10 -24 9 -25 12 -11 23 27 19 10 54 -37 76 -89 44 -359 97
-536 107 -136 8 -171 -3 -215 -67 -31 -44 -65 -155 -65 -211 0 -32 -3 -38 -21
-38 -21 0 -22 -2 -13 -72 13 -107 9 -283 -9 -363 -16 -75 -167 -453 -198 -497
-31 -43 -35 -85 -11 -117 21 -28 21 -28 1 -91 -29 -93 -26 -113 21 -151 l41
-33 -7 -56 c-6 -51 -4 -59 17 -79 13 -12 30 -19 39 -16 8 4 27 9 42 12 24 5
28 2 38 -38 19 -73 20 -77 35 -89 10 -9 19 -9 35 0 20 10 28 6 76 -44 82 -84
145 -94 259 -42 60 27 110 86 121 142 5 27 -3 53 -42 136 -57 122 -66 183 -37
249 40 89 215 299 293 352 26 18 68 57 93 87 24 30 66 74 92 98 52 48 44 48
203 11 123 -28 271 -87 519 -207 l222 -107 1 -41 c0 -54 17 -68 70 -59 51 9
109 -23 193 -104 73 -70 118 -135 190 -276 31 -60 82 -141 112 -178 50 -62 55
-73 55 -118 0 -40 5 -55 25 -74 28 -29 49 -31 100 -9 34 14 39 14 56 -1 10
-10 21 -30 24 -46 8 -36 58 -79 93 -79 15 0 41 9 57 20 46 30 78 25 131 -21
41 -36 52 -40 82 -35 19 3 42 12 52 21 21 19 58 19 106 -1 27 -11 52 -14 88
-9 117 15 159 60 154 161 -5 80 -24 107 -108 149 -85 43 -198 147 -240 220
-31 55 -70 186 -70 237 0 51 25 25 32 -34 19 -155 113 -291 260 -381 150 -91
302 -99 458 -24 95 45 225 177 273 277 20 41 44 102 53 135 33 126 28 366 -12
605 -18 104 -31 140 -53 140 -72 0 -733 -128 -881 -170 -62 -18 -65 -23 -66
-102 -1 -62 -34 -296 -50 -351 -14 -48 -23 9 -23 141 1 139 3 151 33 230 l31
82 65 19 c200 60 537 133 760 166 344 51 566 112 1105 308 174 63 437 148 501
161 30 7 32 5 38 -31 12 -66 85 -332 138 -498 62 -199 132 -388 210 -570 82
-191 90 -221 82 -330 -5 -78 -2 -106 20 -197 14 -58 26 -134 26 -169 0 -78
-28 -141 -124 -278 -95 -136 -99 -191 -14 -191 21 0 58 10 81 21 49 25 208
182 256 254 l33 50 -6 -45 c-4 -25 -9 -108 -13 -185 -5 -127 -4 -142 13 -163
l19 -22 32 20 c53 32 113 177 137 328 l12 77 13 -40 c41 -127 144 -246 244
-283 74 -28 85 -28 99 4 10 21 9 31 -4 53 -8 14 -33 55 -54 91 -22 36 -47 82
-57 104 -16 34 -9 30 65 -47 135 -137 286 -198 366 -148 17 11 32 27 32 36 0
8 -33 33 -74 55 -163 89 -271 212 -341 385 -25 60 -65 131 -122 210 -101 143
-215 369 -272 540 -71 215 -134 577 -166 950 -44 515 -65 656 -135 880 -18 58
-38 156 -47 233 -16 125 -16 144 1 330 10 108 22 330 27 492 10 375 14 402
117 740 28 91 57 199 65 240 57 278 10 713 -101 935 -52 106 -164 234 -240
274 -13 7 -21 15 -18 18 10 10 118 -68 173 -124 61 -62 122 -161 157 -253 83
-222 110 -629 57 -862 -11 -48 -51 -185 -89 -305 -133 -417 -136 -580 -16
-1188 100 -508 217 -937 348 -1277 86 -224 269 -635 395 -886 l81 -162 -9 -79
c-14 -131 16 -231 99 -324 42 -48 43 -49 37 -108 -3 -40 -15 -76 -36 -114 -17
-30 -31 -68 -31 -84 0 -40 49 -81 96 -81 79 0 187 119 221 243 9 31 19 57 23
57 3 0 28 -23 55 -51 149 -152 333 -227 426 -172 43 26 45 22 -55 98 -58 44
-71 64 -17 26 15 -11 58 -32 96 -48 92 -37 202 -40 236 -7 13 14 19 29 15 41
-6 19 -15 24 -144 87 -40 20 -99 53 -130 75 -198 135 -448 417 -555 626 -69
135 -130 419 -222 1030 -31 204 -64 411 -75 460 -22 106 -79 274 -122 359 -61
121 -63 135 -99 621 -11 154 -29 347 -39 428 -22 172 -22 169 49 472 52 227
77 374 68 399 -11 27 -208 10 -322 -28 -11 -3 2 5 29 18 67 33 169 49 285 44
154 -7 196 -38 289 -216 75 -143 146 -202 245 -203 60 -1 88 13 158 77 59 54
62 56 104 49 55 -8 128 21 176 71 33 34 35 34 91 28 51 -6 62 -4 93 17 45 31
59 62 86 185 35 165 55 197 149 242 73 36 135 101 192 203 54 96 62 83 23 -38
-37 -115 -34 -128 23 -99 97 51 210 266 243 460 25 148 -5 271 -89 369 -53 61
-85 115 -117 200 -42 112 -72 163 -137 233 -65 70 -130 121 -210 167 -70 41
-241 94 -345 108 -117 15 -295 7 -390 -18 -68 -18 -73 -18 -78 -2 -12 36 -84
137 -134 187 -121 118 -287 174 -446 151z m-1561 -1133 c-113 -56 -177 -106
-236 -183 -89 -118 -116 -253 -84 -414 37 -183 118 -330 266 -483 76 -79 88
-95 60 -81 -55 28 -190 173 -244 264 -92 153 -132 309 -124 480 4 91 9 108 42
175 57 116 177 213 336 272 77 28 68 11 -16 -30z m2111 -3 c-27 -8 -64 -26
-81 -39 -74 -55 -95 -177 -50 -286 27 -66 18 -67 -19 -4 -31 53 -41 126 -25
185 22 81 121 161 200 160 16 0 7 -6 -25 -16z m-904 -543 c-13 -115 -40 -251
-53 -265 -6 -6 -7 -1 -4 15 15 64 37 240 48 390 l13 165 3 -105 c2 -58 -2
-148 -7 -200z m-1117 -952 c-7 -461 1 -792 31 -1263 25 -388 37 -467 136 -925
75 -349 71 -328 60 -310 -19 32 -122 430 -146 564 -27 158 -38 251 -60 541 -9
110 -17 200 -18 201 -15 13 -400 237 -513 300 -519 284 -709 352 -1364 484
-226 46 -287 60 -254 60 22 0 304 -41 384 -56 47 -8 164 -33 261 -55 l176 -39
45 19 c41 17 98 71 98 91 0 5 -7 13 -16 18 -39 22 220 78 411 88 105 6 117 5
255 -31 126 -33 164 -38 292 -43 81 -2 158 -2 171 2 l24 6 7 362 c5 334 11
438 23 438 2 0 1 -204 -3 -452z m-2391 304 c221 -211 466 -406 622 -495 28
-15 39 -25 25 -22 -32 9 -139 68 -212 117 -181 121 -580 488 -532 488 3 0 47
-39 97 -88z m3511 -114 c-22 -24 -87 -94 -143 -156 -57 -62 -106 -110 -109
-108 -3 3 40 54 94 113 152 165 180 193 189 193 5 0 -9 -19 -31 -42z m-2724
-134 c35 -29 272 -157 353 -191 48 -20 86 -37 84 -39 -5 -5 -147 51 -209 82
-77 38 -208 119 -243 149 -29 26 -15 25 15 -1z m-3008 -2831 c-13 -66 -12
-204 2 -248 3 -11 -3 0 -15 25 -29 59 -34 116 -19 182 11 48 36 108 44 108 1
0 -4 -30 -12 -67z m1806 -323 c20 -68 103 -156 172 -182 25 -9 36 -17 25 -17
-31 -1 -119 43 -150 75 -41 43 -76 126 -81 191 -4 64 -4 63 34 -67z"/>
<path d="M3050 4793 c5 -10 34 -79 64 -153 30 -74 95 -227 144 -340 291 -667
342 -777 365 -786 17 -6 173 39 265 78 100 42 270 145 497 303 105 72 237 163
295 201 102 68 105 71 108 110 2 22 -2 52 -7 67 -12 30 4 26 -276 63 -631 82
-1078 220 -1391 429 -37 25 -68 45 -70 45 -2 0 0 -8 6 -17z"/>
</g>
</svg>
