<?xml version="1.0" standalone="no"?>
<!DOCTYPE svg PUBLIC "-//W3C//DTD SVG 20010904//EN"
 "http://www.w3.org/TR/2001/REC-SVG-20010904/DTD/svg10.dtd">
<svg version="1.0" xmlns="http://www.w3.org/2000/svg"
 width="1024.000000pt" height="1536.000000pt" viewBox="0 0 1024.000000 1536.000000"
 preserveAspectRatio="xMidYMid meet">
<metadata>
Created by potrace 1.16, written by Peter Selinger 2001-2019
</metadata>
<g transform="translate(0.000000,1536.000000) scale(0.100000,-0.100000)"
fill="#000000" stroke="none">
<path d="M1345 14386 c-15 -22 -15 -30 0 -88 32 -125 81 -249 169 -427 82
-166 67 -152 -167 160 -72 97 -153 206 -179 243 -79 110 -134 116 -132 15 2
-80 50 -168 264 -479 61 -88 110 -162 110 -166 0 -4 -30 22 -67 57 -100 96
-260 231 -323 272 -62 42 -105 48 -113 17 -9 -34 59 -121 252 -325 98 -104
178 -191 176 -193 -2 -2 -51 28 -109 68 -193 129 -306 177 -322 136 -13 -34
47 -104 201 -235 60 -51 145 -125 189 -165 135 -122 191 -162 272 -196 135
-56 145 -68 279 -320 93 -174 188 -324 468 -735 253 -372 304 -428 502 -550
72 -43 222 -137 335 -209 366 -231 412 -258 602 -353 249 -125 267 -146 308
-361 11 -62 34 -149 50 -192 16 -43 52 -181 80 -306 66 -297 82 -358 137 -542
l46 -154 56 6 c130 14 420 26 616 24 l210 -1 -190 -8 c-594 -24 -819 -43
-1378 -114 -593 -74 -1007 -100 -1497 -92 -540 9 -979 52 -1495 147 -60 11
-116 20 -123 20 -9 0 -1 -23 24 -67 67 -122 111 -179 150 -198 79 -37 491 -99
934 -139 664 -61 1302 -62 2405 -5 262 13 1302 24 1292 13 -4 -5 -214 -12
-465 -16 -251 -4 -475 -11 -496 -16 l-40 -7 -24 -115 c-27 -130 -64 -211 -141
-306 -51 -62 -99 -150 -121 -219 -18 -56 -79 -176 -154 -303 -151 -255 -189
-380 -189 -622 1 -165 25 -288 82 -407 52 -108 103 -176 228 -304 l104 -106
-36 -79 c-112 -242 -220 -574 -295 -904 -43 -188 -38 -178 -66 -122 -34 69
-95 125 -185 172 -108 56 -206 79 -389 91 -326 21 -415 41 -494 110 -40 35
-61 70 -133 216 -115 237 -159 283 -266 283 -115 0 -227 -84 -379 -283 -127
-168 -181 -222 -337 -340 -168 -125 -245 -201 -300 -294 -137 -232 -130 -463
16 -534 77 -37 103 -22 268 147 120 123 149 148 206 173 135 61 263 82 409 67
88 -9 104 -1 124 59 14 40 15 40 70 43 152 8 342 -87 586 -293 112 -94 231
-182 327 -241 215 -131 303 -195 375 -275 99 -109 167 -144 267 -137 55 4 83
13 138 43 183 100 442 369 723 750 116 157 290 427 290 449 0 19 -352 361
-778 756 -67 62 -120 116 -117 118 3 3 20 -8 38 -24 17 -17 122 -111 232 -210
204 -183 310 -283 655 -619 107 -104 272 -256 365 -336 227 -195 220 -181 219
-439 -1 -107 -3 -321 -5 -475 -5 -447 -3 -454 369 -1165 153 -291 316 -704
387 -979 33 -125 33 -180 0 -219 -55 -66 -59 -88 -57 -329 2 -196 4 -228 22
-276 39 -104 137 -184 246 -201 22 -3 80 1 130 9 174 29 244 18 414 -60 63
-30 133 -58 155 -64 155 -42 515 32 747 152 167 86 261 193 262 298 2 109 -90
157 -377 199 -222 33 -281 62 -482 233 -123 104 -129 112 -200 246 -27 52 -63
104 -78 115 -29 22 -101 29 -142 14 -11 -4 -26 -4 -33 1 -7 4 -24 61 -37 127
-27 128 -61 244 -131 449 -86 249 -122 412 -204 915 -23 140 -57 332 -77 425
-65 319 -77 500 -48 700 47 317 47 318 36 384 -15 94 -67 192 -172 321 -131
163 -229 316 -349 545 -176 337 -217 407 -291 502 -27 35 -49 71 -49 81 0 16
89 366 164 648 14 50 28 119 32 153 5 48 10 61 23 61 23 0 39 102 51 325 5 94
18 235 29 315 21 152 96 548 106 558 10 10 247 -17 373 -43 68 -14 246 -66
395 -115 529 -173 943 -287 1363 -373 536 -111 1087 -187 1296 -178 35 1 63
28 48 46 -15 18 -128 47 -432 111 -586 122 -1003 229 -1297 334 -61 21 -249
100 -418 176 -715 317 -1018 438 -1208 479 -44 10 -83 20 -87 24 -5 4 33 112
83 241 137 355 150 395 156 475 8 97 -16 196 -84 358 -62 149 -63 170 -5 186
20 6 48 11 61 11 118 0 482 83 697 159 152 54 514 206 642 270 94 47 162 116
208 212 75 153 199 531 340 1039 102 365 96 349 182 448 42 49 106 138 141
198 36 60 105 174 154 253 49 80 96 159 103 178 13 30 13 33 -2 33 -18 0 -57
-27 -144 -100 -167 -141 -173 -114 -20 94 104 142 133 195 128 233 -7 63 -62
31 -192 -112 -50 -55 -108 -120 -129 -145 -32 -38 -22 -14 68 165 109 216 133
282 121 328 -5 21 -12 27 -34 27 -48 0 -76 -40 -247 -348 -37 -67 -69 -121
-71 -119 -3 2 4 33 15 68 11 35 34 118 50 184 46 181 43 245 -14 245 -38 0
-61 -36 -138 -225 -53 -130 -195 -447 -205 -457 -4 -4 -16 7 -28 25 -11 18
-42 65 -68 105 -69 107 -132 137 -190 91 -32 -26 -33 -46 -1 -109 14 -27 34
-73 46 -102 11 -29 49 -121 85 -204 85 -202 100 -261 84 -334 -17 -76 -164
-404 -262 -585 -45 -82 -98 -179 -117 -215 -19 -36 -56 -116 -82 -178 -26 -62
-55 -125 -64 -139 -23 -35 -82 -58 -211 -82 -60 -11 -168 -37 -238 -56 -253
-69 -382 -90 -471 -75 -27 5 -90 16 -140 25 -114 21 -250 22 -340 2 -105 -23
-297 -96 -318 -121 -18 -20 -18 -18 -14 84 4 112 19 160 59 181 20 11 36 10
138 -7 63 -10 69 4 115 250 14 72 38 178 55 236 39 136 39 196 0 312 -36 108
-37 123 -6 143 49 33 52 154 6 307 -24 79 -167 301 -233 361 -49 45 -176 108
-267 132 -82 22 -304 31 -385 16 -32 -6 -100 -31 -150 -55 -161 -79 -255 -188
-316 -366 -40 -116 -51 -134 -94 -154 -51 -25 -78 -20 -209 35 -166 70 -243
85 -362 70 -51 -6 -148 -25 -216 -42 -90 -22 -156 -32 -246 -36 -132 -6 -145
-14 -78 -47 69 -34 170 -42 297 -23 127 19 332 23 249 5 -25 -5 -99 -25 -165
-43 -188 -52 -225 -59 -310 -59 -107 -1 -161 20 -220 86 -25 28 -45 56 -45 64
0 8 -5 14 -11 14 -23 0 -5 -114 29 -182 29 -60 112 -151 167 -185 19 -11 19
-12 -5 -12 -14 0 -55 10 -92 23 -74 26 -86 20 -35 -17 133 -101 408 -162 613
-137 107 13 216 41 284 74 42 20 48 21 40 7 -14 -26 -82 -85 -132 -115 -99
-58 -218 -81 -344 -66 -43 5 -83 5 -87 1 -11 -11 47 -53 111 -80 29 -12 90
-27 135 -33 250 -33 496 124 677 433 l54 92 14 -84 c20 -124 57 -225 110 -302
124 -181 132 -200 132 -323 0 -141 -47 -254 -126 -300 -41 -24 -52 -26 -127
-22 -69 4 -96 11 -172 45 -160 73 -184 77 -430 79 -301 2 -365 18 -552 142
-116 77 -144 91 -279 142 -202 77 -236 104 -400 315 -120 154 -234 284 -399
455 -67 69 -143 152 -171 185 -59 71 -219 283 -257 340 -65 99 -56 233 50 722
17 83 17 83 -4 104 -30 30 -73 18 -119 -33 -40 -44 -102 -169 -130 -261 -10
-31 -21 -57 -24 -57 -21 0 -145 210 -263 443 -55 109 -114 214 -132 233 -39
41 -77 45 -100 10z m3451 -2968 c78 -53 115 -141 113 -273 -1 -108 -17 -137
-18 -34 -2 139 -36 226 -120 302 -51 46 -39 48 25 5z m1073 -244 c91 -27 177
-130 196 -234 5 -28 -1 -20 -29 35 -43 87 -91 134 -181 180 -75 38 -70 44 14
19z m-1370 -1000 c-18 -20 -56 -47 -84 -60 -27 -13 -42 -19 -31 -12 10 7 46
34 80 60 33 26 63 48 65 48 3 0 -11 -16 -30 -36z m935 -3066 c238 -238 315
-322 163 -181 -148 139 -559 554 -487 492 41 -35 187 -175 324 -311z"/>
</g>
</svg>
