<?xml version="1.0" standalone="no"?>
<!DOCTYPE svg PUBLIC "-//W3C//DTD SVG 20010904//EN"
 "http://www.w3.org/TR/2001/REC-SVG-20010904/DTD/svg10.dtd">
<svg version="1.0" xmlns="http://www.w3.org/2000/svg"
 width="1024.000000pt" height="1024.000000pt" viewBox="0 0 1024.000000 1024.000000"
 preserveAspectRatio="xMidYMid meet">
<metadata>
Created by potrace 1.16, written by Peter Selinger 2001-2019
</metadata>
<g transform="translate(0.000000,1024.000000) scale(0.100000,-0.100000)"
fill="#000000" stroke="none">
<path d="M5655 9673 c-123 -16 -238 -75 -370 -189 -134 -116 -183 -138 -300
-138 -71 0 -101 5 -142 23 -68 30 -97 26 -101 -15 -4 -36 29 -69 109 -110 59
-30 63 -51 12 -59 -95 -15 -108 -20 -111 -42 -5 -34 35 -52 161 -76 106 -19
119 -20 190 -6 41 8 73 11 71 7 -11 -17 -112 -38 -181 -38 -66 0 -73 -2 -73
-20 0 -30 66 -96 123 -124 29 -14 81 -30 116 -36 134 -24 310 39 476 169 273
214 315 239 397 228 22 -3 42 -8 45 -11 3 -3 -6 -32 -20 -63 -36 -83 -77 -240
-77 -298 0 -49 25 -178 55 -284 19 -68 7 -119 -35 -155 -80 -67 -255 -58 -369
19 -69 46 -188 90 -526 194 -705 217 -998 270 -1170 212 -126 -43 -447 -181
-579 -249 -132 -69 -258 -147 -533 -333 -209 -141 -321 -204 -418 -235 -155
-49 -364 -67 -502 -43 -54 10 -67 9 -88 -5 -34 -23 -31 -50 8 -80 37 -28 136
-66 174 -66 49 0 20 -18 -40 -24 -259 -28 -350 -54 -368 -104 -7 -18 -3 -29
17 -49 25 -25 30 -26 102 -20 106 9 286 25 352 33 37 4 52 2 45 -4 -5 -6 -93
-41 -195 -77 -203 -74 -270 -104 -306 -140 -54 -54 -12 -113 68 -100 24 4 133
39 242 76 109 38 201 68 203 66 2 -2 -38 -30 -89 -62 -148 -92 -199 -128 -240
-166 -47 -44 -51 -83 -12 -101 35 -16 95 5 254 92 206 112 334 170 347 157 2
-3 9 -40 14 -81 5 -42 13 -110 18 -152 11 -89 32 -121 75 -110 32 8 47 37 75
145 13 46 38 118 56 160 43 100 53 132 64 214 11 81 27 107 87 150 132 93 515
277 764 367 80 29 204 78 275 110 194 85 219 93 267 88 24 -3 113 -36 198 -73
85 -37 268 -114 405 -171 212 -89 413 -189 401 -201 -1 -2 -41 15 -87 36 -47
22 -104 43 -126 47 -95 15 -216 -81 -381 -301 -99 -132 -150 -228 -190 -355
-49 -156 -78 -226 -139 -328 -82 -141 -255 -399 -307 -460 -64 -75 -83 -104
-87 -132 -4 -23 1 -25 71 -42 41 -10 140 -21 220 -25 109 -5 138 -9 115 -15
-44 -13 -246 -1 -354 22 -52 10 -99 16 -105 13 -6 -4 -41 -33 -78 -64 -36 -31
-120 -97 -185 -147 -153 -116 -232 -194 -297 -295 -76 -117 -104 -177 -134
-286 -24 -89 -26 -111 -27 -312 l0 -216 -30 -45 c-16 -26 -67 -101 -113 -169
-90 -134 -207 -356 -275 -525 -88 -216 -123 -333 -198 -664 -42 -180 -52 -194
-215 -279 -365 -192 -581 -415 -694 -716 -55 -145 -87 -207 -195 -370 -51 -77
-126 -194 -168 -260 -92 -146 -134 -191 -185 -200 -57 -9 -228 -145 -358 -284
-133 -143 -159 -189 -151 -269 12 -119 88 -222 263 -359 82 -65 96 -82 155
-180 82 -139 194 -254 292 -302 95 -46 204 -64 343 -57 178 9 254 50 254 136
0 52 -38 91 -132 135 -104 50 -140 90 -177 201 -35 103 -55 221 -48 274 2 19
19 66 37 104 58 125 51 159 -37 197 -49 21 -52 33 -19 68 13 15 49 64 81 111
108 157 195 256 343 391 80 74 268 253 417 399 148 146 322 315 385 375 208
197 653 647 771 780 356 400 709 864 709 932 0 27 -18 37 -155 88 -221 83
-343 155 -459 271 -123 122 -205 263 -241 410 -25 104 -14 124 13 24 40 -149
146 -321 254 -413 85 -70 141 -105 281 -172 306 -145 722 -259 1570 -430 207
-41 387 -80 400 -85 18 -9 16 -10 -13 -5 -19 2 -98 10 -175 16 -130 11 -148
11 -242 -8 -67 -14 -133 -36 -196 -66 -201 -95 -305 -187 -442 -391 -177 -263
-441 -549 -620 -668 l-99 -67 -13 29 c-16 39 -55 40 -109 4 -363 -244 -507
-385 -490 -480 16 -82 81 -180 216 -324 29 -30 66 -77 84 -105 56 -85 134
-238 146 -285 16 -59 43 -96 90 -120 21 -11 62 -47 92 -81 29 -34 67 -77 84
-97 27 -30 37 -35 71 -34 31 1 53 -7 103 -39 192 -125 293 -135 388 -37 74 78
59 140 -61 257 -101 99 -153 201 -172 341 -42 305 -42 317 16 407 21 35 29 59
29 94 0 26 -5 51 -11 54 -7 5 -4 15 9 29 10 11 38 49 62 84 71 102 287 255
610 431 397 217 676 382 905 536 66 44 183 116 260 160 205 117 294 211 331
350 45 166 -8 267 -277 531 -243 237 -399 354 -759 572 -91 54 -191 115 -224
135 -32 20 -108 57 -170 83 -61 26 -230 100 -376 164 -146 65 -308 133 -360
153 -128 47 -130 48 -90 41 19 -4 105 -27 190 -51 85 -25 185 -54 223 -63 78
-21 59 -35 153 110 66 102 165 205 294 308 52 42 149 128 215 192 154 149 173
163 335 249 221 119 283 182 377 381 79 167 126 260 130 256 2 -1 -16 -50 -39
-107 -39 -94 -43 -112 -43 -189 0 -67 6 -104 29 -173 58 -179 227 -490 426
-788 142 -210 238 -228 448 -83 205 143 529 420 747 639 157 157 162 161 245
194 115 46 199 96 300 181 90 75 177 136 273 190 86 48 118 100 82 130 -29 24
-99 4 -250 -69 -82 -39 -149 -70 -151 -68 -4 3 69 61 326 259 52 40 101 85
109 99 28 50 -11 108 -64 95 -17 -4 -241 -161 -325 -229 -9 -7 -24 -19 -35
-27 -19 -14 -19 -14 -5 5 8 11 46 58 85 104 181 216 198 247 159 285 -38 39
-52 28 -282 -219 -57 -60 -98 -99 -91 -85 7 14 53 90 104 170 136 214 140 224
107 253 -49 45 -68 26 -266 -275 -74 -114 -140 -209 -145 -212 -5 -4 -7 53 -4
138 6 137 5 144 -16 165 -11 11 -25 21 -31 21 -23 0 -49 -42 -60 -97 -6 -32
-25 -98 -40 -148 -41 -128 -60 -234 -60 -330 0 -100 -5 -108 -138 -213 -166
-132 -277 -201 -453 -282 -96 -44 -190 -91 -211 -105 -21 -14 -40 -25 -43 -25
-3 0 -5 35 -5 78 0 145 -51 296 -159 476 -28 46 -51 94 -51 107 0 13 5 68 12
122 20 164 -11 300 -104 459 -72 123 -136 178 -205 178 -43 0 -122 -125 -141
-225 l-10 -50 -1 43 c-1 58 50 188 96 242 42 49 101 79 154 80 35 0 99 -28
210 -93 40 -24 51 -26 75 -17 16 6 40 22 54 35 66 63 123 104 164 120 25 10
46 21 46 26 0 20 63 69 89 69 17 0 38 11 56 30 25 26 29 38 29 88 0 31 -2 78
-4 103 -4 44 -2 49 48 104 87 95 132 208 132 331 0 59 1 62 30 74 17 7 44 28
61 48 29 32 31 40 26 84 -8 67 -44 141 -123 256 -184 266 -295 354 -554 436
-212 68 -275 61 -491 -52 l-127 -66 -68 62 c-132 122 -297 171 -489 145z m601
-860 c-25 -71 -29 -142 -12 -217 9 -38 15 -71 12 -73 -2 -2 -12 17 -22 44 -27
69 -25 183 4 247 26 58 38 57 18 -1z m-447 -532 c67 -94 85 -196 76 -431 -5
-151 -4 -199 9 -260 19 -89 18 -83 7 -75 -6 3 -17 38 -26 78 -12 56 -15 120
-13 287 3 187 1 223 -16 275 -25 82 -42 113 -85 159 l-36 39 32 -22 c18 -12
41 -35 52 -50z m-936 -487 c12 -119 68 -214 151 -256 52 -27 130 -48 179 -48
20 0 37 -4 37 -10 0 -29 -184 4 -255 46 -80 46 -135 160 -135 276 0 74 15 68
23 -8z m-958 -5173 c21 -42 19 -62 -4 -27 -28 42 -45 110 -36 143 7 25 9 21
16 -29 5 -32 15 -71 24 -87z m-2894 -1218 c28 -28 37 -42 24 -37 -52 18 -105
99 -104 159 0 25 3 22 19 -24 11 -33 34 -69 61 -98z"/>
</g>
</svg>
