<?xml version="1.0" standalone="no"?>
<!DOCTYPE svg PUBLIC "-//W3C//DTD SVG 20010904//EN"
 "http://www.w3.org/TR/2001/REC-SVG-20010904/DTD/svg10.dtd">
<svg version="1.0" xmlns="http://www.w3.org/2000/svg"
 width="1024.000000pt" height="1536.000000pt" viewBox="0 0 1024.000000 1536.000000"
 preserveAspectRatio="xMidYMid meet">
<metadata>
Created by potrace 1.16, written by Peter Selinger 2001-2019
</metadata>
<g transform="translate(0.000000,1536.000000) scale(0.100000,-0.100000)"
fill="#000000" stroke="none">
<path d="M5360 14164 c0 -8 9 -22 20 -31 31 -27 24 -42 -27 -66 -43 -19 -64
-22 -193 -22 -167 1 -215 14 -309 86 -29 22 -56 38 -59 35 -9 -10 18 -148 45
-226 43 -126 80 -191 146 -252 l60 -58 -11 -38 c-7 -22 -25 -48 -43 -61 -43
-32 -25 -41 82 -41 111 0 239 -11 239 -20 0 -9 -85 -46 -127 -55 -18 -3 -33
-10 -33 -14 0 -14 106 -60 166 -71 57 -11 66 -10 151 18 106 36 199 79 301
139 41 24 76 42 79 40 10 -10 -21 -96 -65 -182 l-47 -90 0 -140 c1 -112 5
-156 23 -222 35 -131 27 -215 -27 -276 -21 -25 -69 -44 -142 -57 -74 -14 -194
5 -325 50 -67 24 -118 33 -204 40 -63 5 -164 20 -225 35 -73 17 -153 28 -235
31 -165 8 -239 -8 -390 -82 -63 -31 -146 -67 -183 -80 -146 -50 -466 -107
-772 -139 -191 -20 -342 -42 -398 -59 -24 -7 -91 -39 -148 -71 -232 -131 -435
-285 -898 -683 -115 -99 -339 -276 -406 -321 -49 -32 -113 -62 -210 -95 -219
-76 -368 -157 -502 -273 -65 -57 -103 -112 -123 -181 -15 -48 -10 -58 20 -42
11 6 29 10 38 8 13 -3 7 -14 -30 -54 -46 -49 -108 -162 -108 -196 0 -11 8 -18
19 -18 18 0 26 -15 40 -70 6 -22 11 -25 45 -22 28 2 44 -2 60 -17 21 -19 22
-19 87 -1 90 25 115 39 179 106 40 42 78 68 142 99 49 23 88 40 88 38 0 -1
-15 -23 -34 -48 -62 -81 -57 -179 12 -231 41 -32 59 -26 67 23 4 21 9 51 12
66 3 16 26 47 55 75 199 185 221 212 292 349 61 118 76 141 143 203 122 114
259 197 640 389 197 98 422 218 501 266 78 47 161 93 184 101 29 10 122 17
312 24 149 6 424 19 611 29 446 26 522 29 498 20 -11 -4 -83 -13 -159 -19
-183 -15 -201 -24 -268 -119 -122 -173 -307 -494 -441 -761 -64 -127 -104
-184 -228 -322 -119 -132 -167 -206 -202 -307 -17 -51 -45 -98 -106 -177 -150
-197 -225 -396 -236 -624 -14 -296 65 -525 242 -706 69 -70 96 -89 180 -129
188 -91 359 -214 573 -415 316 -297 384 -349 680 -517 111 -63 202 -116 202
-118 0 -2 -69 30 -153 71 -200 96 -250 113 -383 126 -131 14 -265 0 -574 -56
-331 -61 -455 -76 -629 -76 -191 0 -246 10 -266 50 -30 57 -117 88 -330 116
-148 20 -220 15 -279 -20 -87 -51 -116 -123 -116 -285 0 -58 7 -144 15 -191
24 -136 20 -183 -36 -411 -50 -199 -51 -210 -35 -228 27 -30 32 -94 11 -155
-18 -53 -18 -53 5 -84 17 -23 25 -51 30 -114 10 -101 35 -162 98 -236 59 -70
98 -88 146 -68 72 30 106 126 106 301 0 169 21 235 124 381 118 167 148 192
283 233 52 15 78 29 98 52 31 38 30 73 -2 77 -57 8 -12 32 108 58 66 15 128
18 289 18 220 0 268 -5 605 -69 299 -58 604 -99 908 -125 71 -6 219 -26 330
-45 335 -56 511 -56 632 0 153 70 230 230 205 428 -21 169 -85 336 -233 612
-136 252 -291 488 -489 745 -86 111 -108 135 -129 134 -13 -1 -93 -22 -176
-47 -153 -46 -342 -91 -350 -84 -2 3 45 16 104 31 59 15 287 87 505 161 434
146 542 178 583 173 23 -3 35 -18 82 -108 109 -206 237 -379 363 -489 126
-112 216 -170 455 -296 325 -172 672 -402 1045 -692 l75 -59 0 -55 c0 -45 6
-65 35 -113 43 -72 176 -232 224 -268 112 -88 213 -103 325 -47 76 38 117 88
214 257 120 208 238 350 315 378 114 42 130 51 152 94 16 32 19 45 10 55 -9
11 -2 20 38 45 64 39 86 72 78 115 -5 27 2 51 41 129 42 84 46 98 35 118 -11
19 -10 30 4 63 13 29 17 71 18 156 1 112 0 117 -29 164 -41 66 -83 87 -165 83
-75 -4 -101 -19 -150 -88 -120 -171 -156 -215 -215 -263 -95 -79 -161 -110
-337 -161 -85 -26 -160 -46 -166 -46 -5 0 -8 8 -6 18 6 23 -32 82 -53 82 -9 0
-52 -37 -95 -82 l-79 -82 -35 19 c-71 38 -226 178 -470 426 -415 420 -927 971
-1036 1115 -24 33 -55 96 -83 173 -47 129 -65 161 -119 209 -59 52 -189 89
-391 112 -137 16 -653 31 -799 23 l-129 -6 63 84 c74 98 301 329 348 353 17 9
94 38 169 65 161 56 206 78 288 136 108 78 212 197 346 396 135 202 161 204
398 34 162 -116 349 -228 636 -380 277 -147 353 -190 525 -293 205 -124 398
-207 595 -256 33 -8 143 -31 245 -51 342 -66 452 -109 555 -216 85 -87 97 -92
257 -99 122 -4 140 -7 165 -28 39 -31 71 -44 126 -50 37 -3 47 -1 47 10 0 8
34 36 75 63 116 76 116 81 4 329 -41 89 -62 125 -88 145 l-35 26 -190 -3
c-170 -2 -199 0 -261 19 -144 43 -373 164 -710 374 -217 135 -279 167 -456
234 -192 71 -214 82 -320 147 -237 146 -475 327 -679 514 -139 128 -174 154
-305 225 -147 79 -229 139 -280 205 -25 33 -45 60 -43 60 2 0 35 -30 74 -68
38 -37 93 -79 121 -94 47 -26 54 -27 106 -17 51 11 70 23 122 78 6 6 38 33 73
60 34 27 78 69 97 94 19 25 44 48 54 52 11 3 32 20 47 38 15 18 36 34 48 37
12 3 29 23 40 44 19 38 19 40 -3 132 -11 51 -21 104 -21 117 0 13 20 65 45
115 43 87 75 196 90 307 l7 49 20 -47 c20 -46 21 -47 40 -30 39 35 52 75 52
158 0 67 -5 92 -32 155 -18 42 -46 93 -64 114 -32 39 -96 75 -134 76 -16 0
-29 14 -49 55 -20 42 -41 65 -88 99 -87 61 -189 110 -298 143 -87 26 -107 28
-254 27 -88 0 -179 -5 -201 -11 -23 -6 -46 -8 -51 -4 -5 3 -22 41 -37 83 -82
228 -203 291 -583 302 -146 4 -173 2 -173 -10z m17 -1926 c-2 -13 -4 -3 -4 22
0 25 2 35 4 23 2 -13 2 -33 0 -45z m-17 -223 c-12 -168 -9 -395 5 -480 l5 -30
-10 29 c-19 59 -32 223 -26 331 9 150 28 346 34 341 2 -3 -1 -89 -8 -191z
m-272 63 c-37 -174 -112 -319 -224 -433 -78 -79 -177 -136 -274 -156 -67 -14
-201 -6 -255 15 l-40 16 35 -5 c153 -25 263 -12 372 42 166 84 318 295 372
519 20 82 24 94 30 94 2 0 -5 -42 -16 -92z m883 -180 c-44 -20 -143 -49 -149
-43 -2 1 27 13 65 25 37 12 75 26 83 31 8 4 22 8 30 8 8 0 -5 -10 -29 -21z
m98 -224 c-42 -101 -135 -240 -201 -299 -83 -75 -91 -70 -13 8 84 84 156 190
204 300 19 43 36 76 38 73 2 -2 -10 -39 -28 -82z m198 -76 c-25 -66 -64 -148
-71 -148 -2 0 17 49 42 110 49 118 68 143 29 38z m-86 -185 c-12 -20 -14 -14
-5 12 4 9 9 14 11 11 3 -2 0 -13 -6 -23z m-2428 -1299 c40 -9 128 -39 197 -66
69 -27 134 -53 145 -57 10 -4 46 -2 80 5 68 14 317 52 397 60 156 15 223 21
227 18 6 -5 -31 -11 -236 -39 -106 -14 -245 -37 -310 -51 -65 -14 -170 -34
-233 -45 -63 -11 -148 -29 -189 -40 -41 -10 -76 -17 -79 -15 -5 6 138 51 208
65 59 12 88 26 78 36 -12 12 -226 95 -309 119 -96 28 -83 34 24 10z m5682
-160 c52 -26 95 -48 95 -50 0 -9 -111 32 -164 62 -90 50 -41 41 69 -12z
m-5281 -171 c-92 -211 -119 -457 -80 -712 17 -110 15 -145 -3 -64 -25 113 -35
299 -23 425 15 148 30 210 77 311 36 77 60 110 29 40z m-8 -1153 c-36 -11
-179 -27 -311 -36 -102 -6 -336 9 -390 26 -21 6 -8 7 40 2 100 -10 499 -6 570
6 33 5 74 10 90 10 l30 0 -29 -8z m937 -447 c-68 -89 -268 -217 -358 -229 -37
-5 -36 -4 16 15 109 39 252 132 325 211 46 50 54 51 17 3z"/>
<path d="M2798 6745 c-5 -5 -8 -134 -8 -287 l0 -278 195 0 195 0 0 -2090 c0
-1665 -3 -2090 -12 -2090 -7 0 -53 7 -103 14 -268 43 -1406 203 -1749 246
-148 19 -227 17 -366 -8 l-45 -8 4 -134 c1 -74 6 -138 10 -141 3 -3 557 -97
1231 -208 674 -112 1247 -206 1273 -211 34 -5 74 -3 130 9 l82 16 3 52 c3 58
-7 51 122 73 94 16 988 181 1770 326 371 69 709 132 750 139 41 8 198 37 349
64 151 28 292 51 315 51 23 0 111 -9 196 -20 85 -11 174 -20 198 -20 l42 0 -2
178 -3 177 -32 3 -33 3 0 1809 0 1809 133 3 132 3 0 245 0 245 -1040 2 c-572
2 -1231 7 -1465 13 -558 14 -2263 25 -2272 15z m4252 -1902 c0 -747 3 -1548 7
-1780 l6 -423 -29 0 c-15 0 -175 16 -354 35 -179 19 -453 49 -610 65 -157 17
-346 37 -420 45 -194 22 -568 61 -760 81 -159 16 -362 15 -417 -2 -22 -6 -23
-11 -23 -114 0 -118 1 -120 63 -120 17 0 144 -16 282 -35 137 -19 414 -57 615
-85 627 -87 810 -114 802 -121 -4 -4 -65 -16 -137 -28 -71 -11 -233 -38 -360
-60 -126 -22 -498 -85 -825 -140 -327 -56 -768 -130 -979 -166 -212 -36 -390
-64 -397 -61 -36 14 -36 41 -45 2160 -5 1144 -7 2081 -6 2083 2 1 518 4 1148
5 629 2 1329 5 1554 8 226 3 517 6 648 8 l237 2 0 -1357z"/>
</g>
</svg>
