<?xml version="1.0" standalone="no"?>
<!DOCTYPE svg PUBLIC "-//W3C//DTD SVG 20010904//EN"
 "http://www.w3.org/TR/2001/REC-SVG-20010904/DTD/svg10.dtd">
<svg version="1.0" xmlns="http://www.w3.org/2000/svg"
 width="1024.000000pt" height="1536.000000pt" viewBox="0 0 1024.000000 1536.000000"
 preserveAspectRatio="xMidYMid meet">
<metadata>
Created by potrace 1.16, written by Peter Selinger 2001-2019
</metadata>
<g transform="translate(0.000000,1536.000000) scale(0.100000,-0.100000)"
fill="#000000" stroke="none">
<path d="M5435 13715 c-41 -8 -113 -36 -175 -67 -92 -46 -117 -64 -206 -153
-84 -84 -107 -114 -142 -185 -23 -47 -48 -109 -54 -138 -11 -46 -16 -52 -33
-46 -171 57 -292 67 -419 34 -118 -30 -168 -63 -314 -203 -154 -149 -203 -178
-317 -185 -123 -8 -227 34 -390 158 l-80 60 -3 -28 c-4 -40 39 -169 83 -247
20 -37 66 -98 102 -136 53 -56 84 -78 157 -114 50 -25 123 -51 161 -60 l70
-15 -95 4 c-52 2 -126 12 -163 21 -37 10 -71 15 -74 11 -10 -9 44 -62 113
-112 71 -51 172 -100 246 -120 69 -18 215 -18 288 1 180 47 307 142 490 372
95 118 98 121 109 97 6 -14 11 -31 11 -37 0 -23 80 -179 118 -231 20 -28 84
-101 142 -163 137 -145 155 -180 155 -298 -1 -107 -27 -175 -97 -251 -56 -61
-87 -73 -168 -67 -36 3 -110 -2 -165 -10 -184 -29 -338 -90 -515 -205 -47 -30
-179 -103 -295 -161 -147 -74 -222 -118 -254 -148 -48 -46 -50 -60 -6 -43 15
6 30 8 33 6 3 -3 -7 -10 -21 -15 -31 -12 -444 -265 -547 -335 -101 -69 -211
-179 -246 -246 -53 -103 -37 -195 81 -467 116 -266 227 -484 350 -688 168
-279 212 -375 259 -559 19 -72 45 -156 58 -186 33 -73 96 -155 160 -208 53
-45 156 -102 182 -102 27 0 27 -18 -3 -118 -97 -326 -78 -534 67 -766 l63 -99
-35 -81 c-28 -66 -301 -793 -512 -1366 -59 -160 -108 -261 -142 -293 -15 -13
-85 -57 -157 -97 -176 -97 -303 -184 -416 -284 -147 -129 -188 -187 -422 -588
-122 -210 -198 -310 -603 -796 -19 -23 -24 -24 -54 -14 -51 18 -118 14 -221
-12 -234 -60 -471 -202 -530 -317 -53 -104 -9 -245 167 -536 99 -163 140 -251
159 -342 25 -117 53 -199 96 -281 108 -208 421 -513 549 -535 51 -9 109 18
130 60 27 53 17 173 -23 301 -47 145 -67 256 -67 361 0 174 47 377 120 524 56
110 67 154 51 202 -11 34 -54 81 -80 89 -23 7 222 290 370 428 196 183 281
258 504 441 119 97 295 257 435 394 129 126 278 264 330 306 371 295 362 286
617 614 111 143 263 334 338 424 75 91 157 192 183 225 26 34 93 119 150 190
110 137 133 173 115 184 -9 7 -199 138 -492 342 -165 114 -303 223 -385 303
-45 44 -49 50 -16 22 176 -143 356 -270 615 -435 185 -118 310 -208 470 -340
208 -172 209 -172 375 -255 85 -43 185 -97 223 -121 80 -52 422 -308 432 -324
8 -14 -15 -59 -92 -180 -148 -232 -211 -379 -313 -730 -110 -376 -227 -675
-408 -1035 -44 -88 -92 -188 -107 -221 l-27 -62 -53 -4 c-71 -6 -97 -25 -153
-111 -25 -40 -97 -144 -160 -232 -159 -223 -169 -246 -138 -318 31 -71 182
-183 476 -352 327 -188 407 -238 560 -355 161 -124 312 -172 536 -171 270 0
407 82 371 222 -14 58 -104 147 -233 231 -126 82 -163 115 -234 204 -83 105
-150 244 -229 478 -39 115 -78 217 -87 227 -9 11 -28 19 -41 19 -29 0 -29 12
3 102 44 122 159 340 293 557 70 113 145 235 166 271 21 36 98 157 170 270
171 267 230 365 355 595 57 105 148 266 203 358 126 213 140 248 141 357 1
101 -16 159 -80 275 -110 196 -229 340 -642 773 -348 365 -569 576 -877 838
-94 80 -323 243 -400 286 -38 21 -67 38 -62 38 24 0 177 -89 272 -159 61 -44
116 -81 123 -81 22 0 84 148 89 215 3 33 18 107 34 165 39 145 68 305 80 435
10 119 51 374 75 470 17 70 35 113 116 290 134 290 255 631 285 800 26 150 7
339 -52 504 -8 24 -13 46 -11 48 7 7 56 -140 71 -212 19 -91 19 -291 0 -391
-8 -44 -35 -140 -59 -213 l-44 -135 62 -80 c35 -45 116 -160 181 -256 145
-216 236 -326 314 -378 75 -50 122 -59 194 -38 128 37 267 181 596 621 100
134 310 408 336 439 6 7 46 38 90 70 151 110 217 189 251 299 15 49 16 67 7
122 -14 83 -55 170 -102 220 -21 22 -51 64 -66 93 -57 106 -123 162 -192 162
-42 0 -121 -41 -188 -97 -133 -110 -198 -239 -197 -388 1 -44 6 -96 11 -115
21 -69 14 -104 -36 -177 -98 -144 -251 -308 -397 -427 -39 -31 -77 -56 -86
-56 -27 0 -67 50 -106 135 -21 44 -64 127 -97 183 l-59 104 26 48 c14 26 26
59 26 73 0 37 -26 91 -74 155 -24 31 -51 77 -60 102 -10 25 -35 77 -56 115
-21 39 -47 100 -59 137 -29 95 -113 269 -164 341 -51 71 -140 158 -210 206
-127 86 -336 176 -359 153 -6 -6 -10 -50 -11 -99 -1 -92 -14 -81 -16 13 -2
110 45 255 87 268 11 4 44 -6 78 -21 42 -20 74 -28 112 -27 80 0 123 48 197
219 60 139 74 176 79 216 6 43 10 48 71 87 77 49 105 89 105 153 0 40 -7 56
-50 115 -27 38 -66 88 -86 112 l-36 43 29 67 c44 98 56 162 50 256 -3 47 -2
68 3 51 4 -16 8 -59 9 -95 l2 -65 39 45 c158 179 157 428 -2 596 -93 99 -200
144 -341 144 -77 0 -86 3 -196 54 -168 79 -238 96 -406 101 -97 3 -161 0 -210
-10z m-725 -3164 c0 -5 -8 -11 -17 -14 -10 -3 -58 -19 -106 -36 -95 -33 -106
-36 -91 -22 5 5 47 21 93 35 46 15 91 31 100 36 20 12 21 12 21 1z m-227 -113
c61 -338 78 -484 84 -718 7 -305 -18 -454 -103 -606 -19 -34 -43 -87 -54 -119
l-20 -57 30 -38 c66 -83 109 -226 94 -315 -20 -122 -107 -215 -234 -249 -14
-4 0 7 30 24 155 87 212 218 165 378 -36 121 -149 254 -259 306 -28 13 -98 46
-156 73 -58 27 -110 56 -117 64 -46 57 -209 436 -267 622 -30 97 -96 349 -96
368 0 6 195 117 340 192 71 36 79 38 135 32 111 -12 139 -9 270 32 72 23 135
41 141 42 6 1 14 -14 17 -31z m637 -2223 c105 -14 157 -27 435 -110 220 -65
182 -60 -180 25 -207 49 -304 68 -395 80 -47 7 -87 14 -89 16 -10 9 131 3 229
-11z m634 -164 c3 -4 -6 -6 -19 -3 -14 2 -25 6 -25 8 0 8 39 4 44 -5z"/>
</g>
</svg>
