<?xml version="1.0" standalone="no"?>
<!DOCTYPE svg PUBLIC "-//W3C//DTD SVG 20010904//EN"
 "http://www.w3.org/TR/2001/REC-SVG-20010904/DTD/svg10.dtd">
<svg version="1.0" xmlns="http://www.w3.org/2000/svg"
 width="1024.000000pt" height="1024.000000pt" viewBox="0 0 1024.000000 1024.000000"
 preserveAspectRatio="xMidYMid meet">
<metadata>
Created by potrace 1.16, written by Peter Selinger 2001-2019
</metadata>
<g transform="translate(0.000000,1024.000000) scale(0.100000,-0.100000)"
fill="#000000" stroke="none">
<path d="M6902 9679 c-138 -27 -300 -157 -444 -356 -211 -292 -376 -359 -535
-219 l-44 39 7 -29 c16 -68 65 -152 120 -204 l56 -53 -53 7 c-28 4 -69 16 -90
27 -52 26 -49 11 7 -41 101 -93 283 -147 414 -122 78 14 149 50 220 111 79 68
84 70 64 24 -44 -103 -62 -153 -73 -203 -7 -30 -14 -60 -16 -67 -6 -20 -141
40 -137 61 7 37 -25 50 -127 51 -56 1 -137 11 -195 23 -54 12 -158 27 -230 34
-126 11 -144 10 -416 -21 -299 -35 -434 -62 -625 -126 -464 -156 -1457 -626
-1789 -847 -49 -33 -117 -73 -150 -90 -282 -142 -524 -428 -665 -785 -47 -119
-59 -166 -72 -287 -26 -246 63 -494 333 -927 111 -178 161 -262 283 -474 31
-55 108 -167 169 -250 147 -197 214 -302 292 -460 120 -244 121 -298 14 -550
-105 -248 -153 -403 -197 -635 -29 -155 -23 -522 15 -935 35 -372 48 -648 37
-778 -6 -80 -9 -89 -30 -97 -33 -12 -50 -41 -96 -162 -59 -153 -99 -316 -99
-402 0 -129 47 -168 255 -210 89 -18 147 -37 226 -75 150 -71 231 -86 459 -86
203 0 324 14 442 51 131 41 158 102 97 222 -34 69 -59 89 -204 167 -49 27
-119 71 -154 99 -113 91 -257 296 -280 400 -11 50 -17 59 -46 73 -19 9 -37 23
-40 32 -12 29 -5 233 11 340 40 275 90 515 190 916 85 338 134 611 134 746 0
54 1 57 39 83 55 38 160 150 209 222 96 143 151 286 159 416 5 79 3 94 -27
180 -25 71 -33 113 -36 178 l-3 85 9 -74 c15 -112 60 -195 176 -321 146 -158
188 -231 214 -371 8 -45 6 -90 -11 -225 -46 -361 -23 -598 97 -975 81 -256
160 -610 214 -957 26 -168 26 -168 -10 -187 -60 -31 -87 -107 -135 -385 -37
-213 -31 -270 30 -318 61 -48 119 -56 415 -57 275 -2 275 -2 395 -33 175 -46
287 -57 445 -44 305 27 460 94 460 200 0 87 -70 136 -303 211 -70 22 -147 51
-170 62 -123 63 -287 208 -377 334 -60 84 -106 130 -150 150 l-38 17 -8 127
c-6 115 -4 302 15 971 7 278 -2 577 -24 783 l-16 149 45 91 c54 109 168 400
186 476 19 81 9 114 -76 238 -117 171 -115 193 35 387 182 236 410 560 518
736 103 169 144 246 223 430 109 251 160 343 340 615 176 264 249 386 271 448
7 21 20 37 29 37 28 0 114 47 175 94 54 43 60 45 63 27 2 -12 8 -21 13 -21 13
0 87 42 162 92 47 32 58 36 63 23 10 -25 32 -17 78 28 35 36 49 61 75 139 38
113 59 136 180 198 46 24 99 59 117 78 45 47 43 33 -2 -18 -20 -22 -35 -43
-32 -45 3 -3 38 8 78 24 135 55 210 160 230 322 19 156 -13 304 -86 402 -24
32 -49 77 -55 100 -6 23 -15 60 -21 82 -15 59 -141 239 -228 325 -106 106
-204 155 -392 195 -75 16 -77 18 -89 53 -31 97 -109 196 -182 234 -116 59
-222 78 -325 57z m133 -435 c-70 -36 -173 -114 -228 -173 -26 -28 -47 -45 -47
-40 0 17 128 141 185 179 45 31 106 59 130 59 6 0 -12 -11 -40 -25z m-142
-601 c-39 -52 -76 -128 -88 -183 -11 -48 -8 -191 5 -224 14 -39 12 -55 -5 -26
-7 14 -19 56 -25 93 -21 121 18 252 103 344 52 56 56 54 10 -4z m-642 -299
c55 -120 64 -264 25 -416 -44 -174 -119 -289 -344 -529 -162 -172 -253 -286
-346 -431 -52 -82 -55 -88 -37 -98 31 -16 121 -12 205 10 131 33 342 145 479
252 20 16 37 27 37 25 0 -3 -18 -36 -40 -75 -22 -38 -62 -123 -88 -189 -38
-94 -66 -143 -129 -229 -200 -271 -265 -415 -491 -1084 -139 -414 -157 -460
-237 -620 -113 -226 -118 -276 -45 -465 24 -60 58 -149 76 -196 19 -48 36
-113 39 -145 l5 -59 -24 80 c-13 44 -47 137 -75 206 -101 252 -109 324 -52
458 51 120 50 135 -10 211 -76 97 -247 409 -314 576 l-34 84 38 62 c43 71 85
164 130 287 38 105 88 190 207 354 109 149 174 253 280 444 121 218 204 330
419 563 132 143 217 258 271 365 96 195 110 378 41 550 -34 86 -24 93 14 9z
m-1151 -91 c-41 -64 -85 -183 -100 -270 -14 -79 -9 -298 7 -314 7 -7 26 16 57
65 53 86 74 104 26 24 -75 -127 -195 -381 -290 -615 -18 -46 -35 -81 -37 -80
-9 10 97 283 174 446 l53 114 -16 81 c-38 187 7 406 115 554 42 56 48 54 11
-5z m1704 -520 c17 -67 111 -265 153 -323 15 -19 40 -50 57 -69 17 -19 23 -30
14 -25 -26 14 -107 113 -147 179 -39 64 -101 236 -101 279 0 40 5 31 24 -41z
m-294 -123 c-69 -80 -280 -280 -294 -280 -10 1 331 340 342 340 2 0 -19 -27
-48 -60z m-3295 -508 c121 -163 279 -303 445 -392 99 -53 88 -59 -14 -8 -217
109 -421 312 -540 538 -61 116 -58 123 7 16 28 -47 74 -117 102 -154z m1455
-293 c-10 -30 -51 -144 -90 -254 -87 -247 -153 -396 -232 -527 -138 -231 -285
-568 -358 -822 -22 -76 -42 -141 -46 -145 -4 -3 -4 3 -1 14 4 11 18 73 33 138
26 117 26 119 9 190 -78 331 -242 677 -440 922 -77 96 -81 103 -26 46 208
-216 411 -602 477 -910 10 -45 20 -81 24 -81 4 0 12 19 19 43 43 143 206 483
312 648 84 131 83 187 -5 320 l-46 68 73 47 c104 67 223 192 272 286 22 42 41
75 43 74 1 -2 -7 -27 -18 -57z m-1200 -1361 c-207 -44 -343 -88 -457 -148 -40
-20 -73 -35 -73 -31 0 11 134 78 220 110 94 35 279 80 325 79 24 0 20 -2 -15
-10z m1109 -128 c-22 -33 -43 -60 -45 -60 -5 0 21 43 54 88 41 54 35 36 -9
-28z m-722 -513 c-82 -124 -107 -200 -107 -329 0 -145 -41 -282 -119 -396 -44
-66 -78 -97 -44 -41 99 161 134 271 143 439 8 151 19 185 105 316 25 37 45 73
46 79 0 5 3 4 6 -3 2 -7 -11 -36 -30 -65z m1647 -544 c-3 -32 -12 -71 -20 -88
l-13 -30 5 35 c19 126 42 195 28 83z m-1723 -315 c-56 -112 -99 -190 -95 -173
7 39 33 94 116 253 39 73 73 131 76 128 3 -3 -41 -97 -97 -208z m219 71 c-41
-103 -150 -287 -172 -289 -3 0 16 39 44 88 28 48 71 129 97 180 49 99 66 110
31 21z"/>
</g>
</svg>
