<?xml version="1.0" standalone="no"?>
<!DOCTYPE svg PUBLIC "-//W3C//DTD SVG 20010904//EN"
 "http://www.w3.org/TR/2001/REC-SVG-20010904/DTD/svg10.dtd">
<svg version="1.0" xmlns="http://www.w3.org/2000/svg"
 width="1024.000000pt" height="1024.000000pt" viewBox="0 0 1024.000000 1024.000000"
 preserveAspectRatio="xMidYMid meet">
<metadata>
Created by potrace 1.16, written by Peter Selinger 2001-2019
</metadata>
<g transform="translate(0.000000,1024.000000) scale(0.100000,-0.100000)"
fill="#000000" stroke="none">
<path d="M2374 7955 c-7 -29 10 -102 56 -230 17 -49 33 -102 35 -118 l4 -30
-27 25 c-133 120 -256 219 -307 247 -120 64 -92 -20 64 -198 45 -51 81 -96 81
-101 0 -6 -30 2 -67 16 -147 56 -169 63 -203 66 -33 3 -35 2 -33 -27 3 -42 55
-84 188 -151 109 -55 144 -78 133 -89 -3 -3 -68 -10 -143 -15 -76 -5 -142 -13
-147 -18 -14 -14 36 -52 111 -82 39 -16 122 -39 184 -50 197 -37 275 -88 382
-251 36 -55 81 -116 99 -137 22 -24 41 -62 55 -107 11 -38 39 -108 61 -154 76
-157 257 -391 303 -391 11 0 18 -2 16 -5 -8 -7 -266 15 -362 31 -148 24 -215
71 -277 194 -17 34 -37 60 -46 60 -40 0 -71 -164 -44 -236 6 -15 9 -29 6 -31
-7 -7 -378 -46 -1806 -188 -205 -21 -222 -26 -243 -70 -16 -34 -16 -39 -1 -71
30 -62 56 -68 213 -50 75 9 271 29 436 46 273 27 505 50 935 96 85 9 170 20
188 24 30 8 26 3 -42 -61 -72 -67 -133 -160 -120 -181 10 -16 54 -2 175 56
125 60 191 88 195 83 1 -1 -20 -32 -48 -67 -55 -70 -108 -172 -108 -207 0 -53
41 -35 152 66 108 97 106 97 186 69 57 -19 87 -23 197 -23 126 0 132 1 195 32
84 41 151 110 220 226 54 90 56 92 95 95 54 3 406 38 640 62 105 11 278 29
385 40 486 50 584 61 591 66 9 5 294 -210 469 -355 63 -53 171 -150 240 -216
144 -139 189 -174 356 -274 66 -40 161 -103 212 -141 50 -37 130 -89 179 -115
97 -53 241 -182 274 -246 23 -46 14 -83 -34 -142 -19 -23 -64 -89 -100 -147
-36 -58 -96 -146 -134 -196 -117 -156 -387 -493 -400 -498 -7 -3 -97 -10 -200
-16 -239 -13 -296 -26 -342 -76 l-34 -37 6 -81 c4 -44 13 -112 22 -151 8 -38
22 -173 30 -300 22 -335 66 -522 160 -670 63 -99 162 -161 243 -152 90 10 113
72 111 307 -1 114 3 167 20 250 23 110 72 264 115 365 14 33 26 76 26 95 0 44
14 64 128 194 67 76 147 148 290 263 108 87 225 182 260 211 35 30 67 50 74
46 7 -4 8 -3 4 4 -4 7 -2 12 4 12 6 0 13 -6 16 -14 13 -33 63 4 101 74 25 47
25 46 3 -47 -4 -18 -5 -33 0 -33 14 0 119 134 150 191 38 72 88 116 225 199
197 119 303 228 361 373 25 62 29 85 29 172 0 88 -3 107 -28 159 -48 103 -117
172 -256 255 -22 14 -39 26 -37 29 2 2 22 -8 43 -21 21 -14 67 -39 102 -57 75
-38 571 -368 571 -380 0 -5 -57 -41 -127 -81 -329 -186 -451 -318 -568 -620
-21 -52 -57 -134 -81 -184 -52 -108 -202 -349 -272 -438 -49 -62 -52 -63 -119
-76 -245 -48 -409 -127 -472 -227 -58 -91 -48 -186 43 -382 60 -129 80 -191
95 -299 27 -178 104 -315 256 -454 82 -74 131 -109 179 -125 40 -14 47 -14 75
1 56 29 65 53 58 168 -3 56 -18 167 -33 247 -35 192 -31 240 36 435 39 112 51
159 47 187 -6 46 19 88 141 238 270 330 340 403 662 682 80 69 197 179 260
243 63 65 169 158 235 208 145 110 261 224 299 295 36 69 44 149 22 224 -27
93 -347 612 -506 821 -143 187 -367 417 -512 526 l-56 42 -154 -16 c-409 -43
-537 -55 -703 -69 -99 -9 -252 -22 -340 -30 -246 -23 -330 -29 -325 -23 3 3
86 12 185 21 174 16 469 46 645 66 118 14 412 43 900 90 228 22 480 47 560 55
80 8 307 31 505 50 459 45 534 54 567 71 51 26 62 77 29 130 -33 55 -62 58
-303 34 -310 -30 -691 -66 -1118 -105 -206 -19 -448 -42 -537 -50 l-163 -16
-37 28 c-222 170 -353 256 -518 344 -102 54 -133 76 -205 149 -93 93 -108 103
-255 156 -55 20 -192 83 -305 140 -321 163 -548 247 -876 323 -378 88 -562
107 -709 72 -152 -37 -259 -106 -445 -286 -63 -61 -133 -126 -156 -143 -58
-45 -132 -71 -223 -78 l-79 -7 -30 59 c-17 33 -46 75 -66 94 -32 30 -44 35
-99 38 -78 5 -125 -16 -191 -85 l-44 -46 -33 27 c-51 43 -68 34 -119 -70 -25
-49 -60 -113 -78 -141 -42 -66 -159 -170 -174 -155 -19 19 -49 146 -55 232 -4
65 0 112 16 196 25 133 27 182 6 191 -35 13 -77 -52 -130 -202 -56 -158 -91
-129 -236 198 -53 120 -86 180 -125 226 -31 38 -51 39 -60 6z m2389 -623 c50
-23 182 -118 191 -139 3 -7 -21 8 -54 33 -96 73 -180 107 -275 112 -129 7
-235 -30 -314 -110 -54 -53 -81 -95 -111 -173 -20 -51 -24 -79 -24 -185 -1
-87 3 -132 12 -148 8 -13 11 -26 9 -29 -3 -2 -15 22 -27 54 -50 131 0 362 102
479 40 46 96 81 173 111 52 20 74 23 165 20 81 -3 116 -9 153 -25z m-1843
-322 c-6 -11 -13 -20 -16 -20 -2 0 0 9 6 20 6 11 13 20 16 20 2 0 0 -9 -6 -20z
m2250 -282 c71 -55 81 -58 252 -68 262 -16 314 -29 461 -113 l77 -45 -112 -11
c-62 -7 -171 -18 -243 -25 l-130 -13 -35 28 c-19 16 -73 59 -120 96 -120 95
-234 201 -314 291 l-69 77 94 -91 c52 -50 114 -106 139 -126z m-2323 100 c-2
-13 -4 -5 -4 17 -1 22 1 32 4 23 2 -10 2 -28 0 -40z m1020 -30 c-3 -7 -5 -2
-5 12 0 14 2 19 5 13 2 -7 2 -19 0 -25z m-13 -52 c-3 -15 -8 -25 -11 -23 -2 3
-1 17 3 31 3 15 8 25 11 23 2 -3 1 -17 -3 -31z m249 -40 c293 -130 636 -306
637 -327 0 -3 -55 -11 -122 -17 -404 -38 -937 -92 -958 -97 -15 -3 -2 8 30 27
81 47 154 127 194 211 33 69 66 182 66 223 0 46 5 45 153 -20z m3345 -33 c-10
-2 -28 -2 -40 0 -13 2 -5 4 17 4 22 1 32 -1 23 -4z m-98 -10 c-77 -8 -392 -45
-505 -59 -494 -61 -726 -87 -731 -81 -4 4 65 14 431 62 256 35 717 83 785 82
33 0 41 -2 20 -4z m-1037 -330 c-7 -2 -19 -2 -25 0 -7 3 -2 5 12 5 14 0 19 -2
13 -5z m-250 -80 c13 -114 84 -246 186 -349 84 -85 121 -109 272 -182 145 -68
193 -108 274 -222 29 -43 90 -120 135 -171 149 -171 230 -297 216 -334 -3 -9
-21 -25 -41 -36 -38 -23 -42 -36 -21 -77 44 -85 81 -340 67 -462 -5 -45 -14
-87 -21 -94 -9 -8 -10 1 -4 44 18 130 -1 315 -46 446 -48 139 -221 319 -613
638 -59 48 -174 154 -255 235 -81 82 -201 191 -267 243 -125 100 -189 162
-270 263 -41 51 -45 60 -29 63 20 3 368 39 395 41 12 1 18 -11 22 -46z m861
-369 c17 -7 25 -13 17 -14 -23 0 -96 38 -117 62 -16 17 -11 16 25 -7 25 -15
58 -33 75 -41z m163 -65 c47 -32 61 -53 16 -23 -16 10 -48 29 -73 42 -35 19
-39 22 -16 17 16 -3 49 -20 73 -36z m74 -56 c13 -16 12 -17 -3 -4 -10 7 -18
15 -18 17 0 8 8 3 21 -13z m-256 -1102 c3 -5 2 -12 -3 -15 -5 -3 -9 1 -9 9 0
17 3 19 12 6z m35 -155 c5 -33 9 -81 9 -106 -1 -41 -2 -39 -10 20 -8 63 -22
139 -34 190 -4 17 -1 15 9 -9 9 -18 20 -61 26 -95z m-90 -211 c11 -13 10 -14
-4 -9 -9 3 -16 10 -16 15 0 13 6 11 20 -6z m-851 -725 c6 -19 7 -30 2 -25 -5
6 -13 24 -17 40 -9 39 0 30 15 -15z m1030 -230 c0 -19 -28 50 -28 70 0 18 4
12 15 -20 7 -25 14 -47 13 -50z m184 -137 c-7 -2 -19 -2 -25 0 -7 3 -2 5 12 5
14 0 19 -2 13 -5z"/>
</g>
</svg>
