<?xml version="1.0" standalone="no"?>
<!DOCTYPE svg PUBLIC "-//W3C//DTD SVG 20010904//EN"
 "http://www.w3.org/TR/2001/REC-SVG-20010904/DTD/svg10.dtd">
<svg version="1.0" xmlns="http://www.w3.org/2000/svg"
 width="1024.000000pt" height="1024.000000pt" viewBox="0 0 1024.000000 1024.000000"
 preserveAspectRatio="xMidYMid meet">
<metadata>
Created by potrace 1.16, written by Peter Selinger 2001-2019
</metadata>
<g transform="translate(0.000000,1024.000000) scale(0.100000,-0.100000)"
fill="#000000" stroke="none">
<path d="M3765 8983 c-136 -30 -255 -91 -307 -157 -54 -68 -64 -91 -83 -184
-17 -84 -18 -74 12 -299 3 -23 2 -62 -1 -87 -9 -58 -30 -70 -146 -85 -99 -12
-181 -3 -304 34 -181 54 -309 57 -491 10 -121 -31 -236 -51 -331 -60 -39 -3
-113 -15 -165 -26 -52 -11 -145 -29 -208 -39 -230 -40 -332 -127 -518 -441
-107 -180 -180 -334 -214 -454 -39 -139 -56 -172 -110 -215 -79 -62 -190 -174
-216 -217 -31 -53 -41 -144 -23 -209 19 -68 86 -130 205 -189 112 -55 155 -60
225 -26 75 36 160 94 183 125 31 42 34 124 8 216 -49 174 -26 231 199 504 193
233 259 317 297 378 39 63 39 63 77 48 33 -12 505 -60 605 -61 42 0 94 -4 116
-8 32 -7 20 -9 -60 -10 -117 -1 -134 -9 -169 -79 -50 -101 -88 -239 -131 -482
-37 -214 -54 -276 -98 -370 -22 -47 -52 -126 -67 -175 -21 -73 -42 -114 -106
-210 -120 -180 -141 -214 -172 -290 -51 -124 -57 -160 -57 -320 0 -139 2 -156
27 -225 l28 -75 -74 -155 c-84 -175 -105 -238 -187 -569 -74 -298 -106 -369
-216 -479 -43 -43 -130 -116 -193 -163 -127 -95 -197 -164 -231 -230 -12 -24
-37 -104 -55 -177 -33 -129 -88 -281 -141 -385 -66 -131 -218 -324 -310 -394
-112 -86 -182 -185 -183 -261 0 -43 28 -96 83 -158 64 -71 152 -210 230 -360
103 -200 190 -296 300 -330 29 -9 95 -18 147 -21 79 -4 101 -1 130 14 47 25
65 59 56 108 -6 32 -24 55 -97 126 -101 98 -131 152 -150 266 -10 61 -9 85 5
155 21 109 20 130 -6 164 -30 38 -28 82 11 175 68 164 176 305 598 780 51 57
119 142 150 189 43 63 81 103 148 157 109 87 154 137 244 268 38 55 102 132
141 170 159 156 380 453 380 513 0 14 -11 29 -27 40 -26 16 -270 196 -339 250
-53 41 89 -49 201 -128 61 -43 163 -112 228 -155 114 -75 121 -78 200 -87 98
-12 162 -36 297 -113 l101 -57 -98 -102 c-119 -123 -254 -290 -287 -354 -13
-26 -43 -101 -66 -167 -106 -294 -183 -407 -467 -685 -300 -293 -331 -403
-156 -560 32 -28 105 -83 163 -122 127 -85 151 -107 200 -178 97 -142 251
-246 409 -277 105 -21 144 -13 198 42 39 38 43 47 43 91 0 49 0 49 -94 139
-110 105 -162 174 -208 270 -32 68 -33 74 -34 200 0 84 -5 141 -14 161 -13 29
-10 36 50 147 78 145 126 205 260 325 246 221 291 266 380 384 51 68 159 204
240 303 177 217 212 265 244 336 46 97 28 177 -75 337 -205 316 -462 607 -720
813 -85 68 -98 83 -81 91 20 9 100 152 173 309 164 353 236 493 286 551 127
150 167 203 257 337 53 80 96 140 96 134 0 -6 -30 -55 -66 -109 -62 -94 -65
-101 -60 -146 7 -63 57 -181 113 -264 69 -103 303 -392 362 -447 29 -27 80
-62 115 -77 72 -33 256 -83 361 -99 125 -19 378 -41 480 -41 101 -1 112 -11
25 -24 -82 -12 -138 -36 -170 -73 -39 -44 -38 -86 2 -116 26 -19 33 -20 105
-9 112 18 289 20 304 5 7 -7 23 -13 35 -13 12 0 25 6 27 13 4 10 6 10 6 0 1
-16 70 -17 126 -2 22 6 64 15 94 20 84 15 115 37 208 144 18 20 32 25 67 25
65 0 191 26 221 46 56 37 65 107 19 143 -32 25 -119 35 -194 21 -34 -6 -64 -9
-67 -7 -2 3 51 60 119 128 78 79 192 177 312 269 116 89 216 174 259 222 l71
78 99 0 c115 0 285 32 460 86 105 32 147 40 147 30 0 -3 -13 -25 -30 -49 -20
-30 -41 -88 -65 -183 -87 -337 -95 -353 -232 -496 -60 -62 -134 -144 -165
-183 -31 -38 -102 -115 -158 -170 -216 -212 -301 -399 -272 -595 6 -45 19 -93
28 -109 16 -27 15 -29 -28 -97 -25 -38 -68 -99 -96 -136 -102 -135 -196 -342
-273 -602 -21 -71 -45 -136 -53 -144 -20 -20 -44 -19 -226 13 -167 29 -224 29
-420 0 -357 -54 -530 -62 -659 -32 -104 25 -131 38 -194 96 -119 107 -210 120
-283 39 -27 -29 -66 -107 -89 -178 -24 -76 -46 -116 -131 -252 -85 -135 -106
-184 -134 -310 -46 -211 -11 -305 101 -268 31 11 50 28 86 79 78 110 116 151
171 186 49 31 171 78 269 104 32 9 44 18 49 36 9 36 74 63 184 75 117 14 244
3 542 -45 52 -8 202 -26 334 -39 131 -14 290 -34 353 -45 187 -34 240 -26 359
53 89 59 299 281 488 516 92 115 227 313 228 334 1 12 -26 41 -72 79 -41 33
-95 81 -121 106 -26 25 -36 36 -22 25 22 -18 134 -102 536 -399 327 -241 466
-349 502 -387 49 -54 75 -128 123 -353 53 -250 65 -278 200 -485 191 -292 353
-568 381 -647 10 -31 29 -129 40 -217 23 -178 43 -242 91 -300 38 -47 81 -66
146 -66 41 0 73 12 180 64 96 48 162 73 250 94 134 33 283 95 353 146 60 44
119 117 128 158 23 103 -53 173 -146 137 -92 -36 -172 -51 -275 -50 -121 0
-193 17 -239 56 -17 14 -36 25 -42 25 -35 0 -98 45 -134 98 -63 90 -80 130
-178 422 -166 495 -217 644 -236 688 -24 56 -54 172 -74 292 -20 119 -47 177
-117 260 -31 36 -115 156 -187 268 -231 358 -347 520 -460 644 -28 31 -51 58
-51 62 0 13 114 192 196 306 191 264 242 329 351 442 159 165 201 234 223 368
6 38 8 41 13 20 3 -14 17 -74 31 -135 43 -183 191 -461 314 -588 99 -101 302
-211 537 -289 148 -49 166 -59 229 -118 28 -26 62 -53 76 -60 33 -18 146 -14
180 6 28 17 77 87 97 138 18 47 15 126 -6 171 -28 61 -91 116 -132 117 -47 1
-119 -8 -126 -16 -4 -3 -23 -6 -44 -6 -66 0 -222 91 -395 231 -51 41 -112 89
-138 106 -59 41 -79 76 -106 177 -12 45 -44 149 -72 231 -50 148 -51 153 -58
310 -4 88 -13 183 -19 211 -20 86 -67 153 -141 201 -36 23 -85 57 -109 74 -43
31 -43 31 -24 51 32 32 91 47 163 41 56 -4 70 -1 104 20 48 30 135 132 172
200 76 144 74 137 53 190 -25 63 -24 98 5 155 35 70 56 148 57 216 0 52 2 57
11 36 5 -14 7 -56 4 -97 -4 -57 -3 -73 8 -73 34 0 80 89 73 141 -6 46 -55 119
-105 156 -20 15 -73 61 -117 103 -131 123 -290 190 -449 190 -134 0 -232 -37
-337 -127 -28 -23 -57 -43 -65 -43 -8 0 -56 14 -106 30 -178 58 -280 49 -448
-43 -160 -86 -226 -117 -256 -117 -17 0 -55 15 -89 35 -32 20 -59 34 -60 33
-18 -22 -23 -50 -15 -79 11 -37 86 -119 109 -119 35 0 -9 -21 -56 -26 -45 -6
-61 -2 -153 40 -79 36 -105 44 -112 34 -27 -43 26 -144 112 -213 108 -87 184
-115 365 -136 45 -5 117 -20 159 -33 113 -36 171 -21 269 72 54 52 89 98 145
192 26 45 68 84 80 76 5 -3 11 -32 14 -64 3 -47 13 -74 45 -128 50 -82 67
-145 61 -220 -10 -119 -56 -138 -329 -135 -198 2 -218 -1 -335 -55 -77 -35
-217 -80 -319 -103 -89 -19 -374 -104 -470 -140 -80 -30 -136 -48 -197 -66
-154 -43 -354 -242 -602 -598 -120 -171 -155 -210 -239 -259 -98 -56 -177
-107 -204 -131 -13 -11 -25 -18 -29 -15 -3 3 24 30 60 59 35 29 62 57 60 61
-6 9 -52 1 -117 -19 -73 -23 -259 -14 -357 17 -139 44 -621 305 -695 377 -22
21 -40 52 -49 85 -53 185 -69 230 -107 292 -81 135 -89 166 -75 321 12 148
-17 243 -105 339 -27 30 -75 67 -111 86 -35 18 -77 43 -95 56 -37 28 -70 30
-139 9 -71 -22 -77 -18 -14 10 67 29 140 39 201 27 60 -12 91 4 113 58 21 53
83 138 158 217 65 69 67 75 41 176 -17 64 -17 70 0 116 17 48 39 161 52 271 4
30 16 70 26 88 19 33 19 35 1 75 -24 54 -135 158 -205 191 -91 43 -262 86
-336 85 -36 -1 -75 -3 -86 -6z m4475 -2118 c7 -22 18 -46 24 -54 9 -12 8 -13
-3 -7 -24 15 -50 90 -51 151 -2 85 2 91 10 15 3 -36 12 -83 20 -105z m147
-119 c23 0 37 -4 30 -8 -21 -13 -72 -9 -93 8 -19 15 -19 16 1 8 11 -5 39 -8
62 -8z m-5482 -993 c66 -33 117 -64 113 -69 -2 -1 -53 22 -113 52 -61 31 -96
53 -80 49 17 -3 53 -18 80 -32z m2830 -123 c-3 -5 -11 -10 -16 -10 -6 0 -7 5
-4 10 3 6 11 10 16 10 6 0 7 -4 4 -10z m1918 -428 c37 -30 67 -59 67 -64 0
-11 -30 12 -107 82 -69 64 -53 57 40 -18z m2112 -42 c3 -5 2 -10 -4 -10 -5 0
-13 5 -16 10 -3 6 -2 10 4 10 5 0 13 -4 16 -10z"/>
</g>
</svg>
