<?xml version="1.0" standalone="no"?>
<!DOCTYPE svg PUBLIC "-//W3C//DTD SVG 20010904//EN"
 "http://www.w3.org/TR/2001/REC-SVG-20010904/DTD/svg10.dtd">
<svg version="1.0" xmlns="http://www.w3.org/2000/svg"
 width="1024.000000pt" height="1024.000000pt" viewBox="0 0 1024.000000 1024.000000"
 preserveAspectRatio="xMidYMid meet">
<metadata>
Created by potrace 1.16, written by Peter Selinger 2001-2019
</metadata>
<g transform="translate(0.000000,1024.000000) scale(0.100000,-0.100000)"
fill="#000000" stroke="none">
<path d="M4050 9719 c-107 -29 -220 -98 -315 -194 -101 -101 -155 -180 -295
-435 -249 -452 -349 -611 -470 -748 -135 -152 -211 -246 -235 -291 -26 -46
-65 -165 -65 -197 0 -17 3 -16 20 6 11 14 20 30 20 36 0 31 67 137 122 195 81
86 274 269 263 249 -5 -8 -62 -95 -128 -193 -66 -98 -117 -180 -115 -183 3 -2
35 9 72 26 82 36 223 80 257 79 13 0 -14 -13 -61 -28 -170 -56 -312 -130 -490
-256 -36 -26 -139 -96 -230 -157 -190 -127 -201 -135 -182 -147 10 -6 -10 -22
-65 -54 -233 -134 -525 -373 -607 -496 -42 -63 -46 -104 -15 -169 49 -100 350
-302 803 -539 211 -110 199 -114 -22 -7 -159 76 -377 196 -496 271 l-68 44
-29 -33 c-221 -254 -279 -619 -183 -1148 84 -459 244 -825 457 -1044 128 -131
306 -229 482 -266 81 -17 272 -16 370 3 347 67 575 226 886 617 136 171 173
206 265 251 l69 34 290 1 c261 0 297 2 356 20 185 57 300 170 344 341 30 114
15 372 -31 532 -8 29 -13 55 -11 58 3 2 37 -45 77 -104 102 -153 147 -210 185
-233 113 -70 671 42 1140 230 134 53 310 138 358 172 50 36 218 176 280 234
42 40 65 54 86 54 22 0 38 10 59 36 32 39 72 146 72 194 0 26 5 30 53 44 131
38 151 40 239 23 46 -10 104 -17 129 -17 l46 0 -5 -48 c-5 -53 13 -82 49 -82
28 0 59 36 59 68 0 16 -9 38 -20 50 -11 12 -20 23 -20 26 0 4 27 10 141 32 26
5 26 5 16 -36 -9 -33 -9 -46 4 -68 20 -37 71 -42 93 -10 21 29 20 46 -4 93
-11 22 -20 40 -20 41 0 1 28 5 63 9 34 4 72 9 85 11 25 3 26 1 10 -25 -8 -14
-9 -31 -2 -58 8 -33 13 -38 42 -41 18 -2 40 2 48 9 20 17 17 72 -6 101 l-19
25 92 13 c50 7 96 14 102 16 7 3 11 41 11 97 0 50 2 122 5 159 l4 67 -49 50
c-27 28 -59 69 -71 93 -12 24 -30 45 -40 46 -9 2 -43 -4 -74 -13 -97 -29 -91
-29 -91 3 0 16 -8 36 -18 45 -22 20 -73 22 -90 5 -17 -17 -15 -59 3 -85 15
-21 14 -22 -39 -37 -30 -9 -65 -16 -79 -16 -22 0 -25 4 -24 34 2 63 -51 88
-94 45 -21 -21 -22 -40 -4 -96 6 -19 1 -23 -46 -37 -78 -23 -93 -22 -85 10 16
63 -71 105 -108 52 -21 -30 -20 -44 5 -69 17 -17 19 -23 8 -30 -8 -5 -23 -9
-34 -9 -25 0 -72 -28 -110 -67 -24 -23 -54 -36 -150 -61 -183 -48 -180 -48
-208 -21 -51 52 -52 52 -101 30 -25 -12 -65 -21 -89 -21 -54 0 -76 -21 -84
-79 -3 -23 -8 -41 -12 -41 -3 0 -67 -14 -141 -31 -74 -16 -315 -71 -535 -120
-220 -49 -488 -112 -595 -139 -215 -55 -220 -56 -220 -37 0 6 -25 92 -55 190
-30 98 -55 185 -55 193 0 8 11 19 24 24 l24 9 -18 58 c-10 32 -28 85 -40 118
-11 33 -48 155 -81 270 -75 260 -120 360 -189 414 -65 51 -180 113 -368 196
l-153 69 7 30 c3 17 10 35 14 40 5 4 43 -3 87 -18 47 -16 100 -26 135 -26 50
0 59 3 81 30 14 16 28 43 32 59 3 17 22 44 40 60 19 16 37 42 41 56 4 15 13
29 20 32 8 3 14 13 14 23 0 10 7 23 15 30 8 7 15 18 15 25 0 17 31 42 62 50
67 17 70 49 23 225 l-29 105 43 62 c63 93 92 173 99 273 4 59 8 77 13 60 18
-64 -3 -236 -37 -303 -25 -47 -11 -52 29 -11 62 63 89 130 95 233 3 54 0 109
-8 142 -38 166 -157 308 -334 401 -44 22 -106 62 -139 89 -74 60 -182 113
-267 133 -96 23 -285 20 -380 -5z m-1184 -2684 c7 -27 17 -94 21 -148 l8 -99
150 -55 c306 -113 346 -125 420 -125 124 -2 169 18 370 163 204 148 305 189
457 189 163 0 286 -49 388 -154 100 -103 183 -262 235 -453 17 -60 19 -62 44
-57 14 4 79 19 143 35 64 16 127 29 140 28 27 -1 -161 -51 -427 -113 -104 -25
-275 -66 -379 -91 -104 -25 -191 -43 -194 -41 -2 3 20 12 49 20 67 19 483 120
562 136 31 6 57 13 57 14 0 9 -63 184 -88 244 -45 108 -90 178 -157 247 -108
109 -218 155 -371 155 -145 0 -255 -48 -475 -206 -242 -175 -333 -187 -604
-83 -389 150 -476 172 -692 173 -78 1 -145 -3 -150 -8 -10 -10 172 -186 328
-317 236 -200 424 -314 564 -345 39 -8 90 -19 115 -25 25 -6 74 -29 110 -52
75 -48 236 -205 264 -257 13 -25 -7 -8 -66 55 -83 88 -203 187 -263 218 -16 8
-75 24 -130 36 -214 45 -455 200 -770 494 -107 100 -245 245 -253 266 -3 8
227 141 244 141 4 0 17 -9 28 -19 21 -19 22 -19 71 -1 28 10 84 34 125 54 97
46 110 44 126 -19z m4124 -367 c40 -12 100 -46 100 -57 0 -4 -26 5 -57 20 -32
14 -80 29 -106 33 -27 3 -56 10 -65 16 -21 12 77 3 128 -12z m-160 -69 c0 -11
-27 -12 -34 -1 -2 4 4 9 15 9 10 1 19 -2 19 -8z m-201 -345 c-46 -48 -103 -95
-125 -105 -102 -46 -540 -111 -904 -134 l-85 -5 90 24 c119 32 1009 284 1060
300 22 7 42 11 44 9 3 -2 -33 -42 -80 -89z m-2556 -37 c56 -27 146 -101 136
-111 -4 -4 -33 11 -65 34 -32 22 -83 48 -113 57 -71 20 -179 14 -244 -15 -51
-22 -137 -104 -163 -154 -8 -16 -18 -28 -20 -25 -7 7 33 84 63 124 32 41 113
93 172 110 66 19 170 10 234 -20z m-419 -462 c42 -33 63 -57 34 -39 -33 20
-98 74 -90 74 5 0 30 -16 56 -35z m-645 -197 c29 -109 51 -208 49 -220 -3 -22
-47 136 -88 317 -12 50 -23 99 -26 110 -4 15 -3 16 4 5 5 -8 33 -104 61 -212z
m1321 172 c0 -5 -10 -39 -22 -76 -24 -75 -92 -158 -162 -199 -95 -56 -242 -56
-357 -1 -53 25 -115 74 -106 83 3 2 33 -10 66 -27 85 -43 173 -63 242 -57 132
12 253 103 299 226 20 54 40 79 40 51z"/>
<path d="M4965 5087 c-57 -57 -131 -102 -222 -134 -78 -28 -78 -28 -353 -28
-409 -1 -430 -10 -661 -305 -275 -349 -474 -495 -799 -584 -52 -14 -107 -26
-122 -26 -17 0 -31 -8 -38 -19 -14 -28 -13 -126 3 -139 6 -5 53 -22 102 -37
50 -15 92 -29 94 -31 4 -3 -30 -202 -109 -639 -62 -342 -269 -1488 -315 -1743
-38 -211 -40 -233 -24 -264 35 -65 186 -62 216 5 7 14 53 243 103 509 50 265
92 488 94 494 3 7 30 -2 73 -23 82 -41 279 -92 386 -100 l78 -6 -5 -101 c-3
-56 -11 -243 -16 -416 -6 -173 -15 -407 -20 -520 -5 -113 -6 -219 -2 -235 25
-92 206 -102 253 -13 12 22 22 257 44 1026 l8 252 179 0 c200 0 317 11 491 44
66 13 117 19 117 13 0 -5 -49 -58 -109 -116 -141 -138 -164 -183 -206 -395
-16 -79 -21 -126 -15 -141 10 -26 134 -136 181 -160 21 -11 43 -14 68 -10 l36
6 78 -156 c87 -173 123 -218 218 -265 158 -80 410 -98 623 -44 114 29 142 83
94 182 -17 37 -38 56 -117 107 -139 90 -192 152 -252 296 -63 153 -121 449
-104 536 6 31 8 33 49 33 24 0 48 6 54 13 5 6 20 46 32 87 106 359 304 775
620 1300 150 248 202 345 236 435 l18 49 22 -165 c56 -436 94 -562 335 -1129
105 -246 135 -339 201 -610 l23 -95 52 -3 52 -3 5 -42 c20 -160 18 -179 -19
-261 -20 -43 -46 -120 -58 -172 -19 -84 -20 -101 -9 -161 7 -38 17 -112 23
-167 10 -106 18 -130 49 -146 64 -34 342 -64 379 -41 8 5 19 38 26 73 11 58
13 63 36 60 35 -4 89 -34 191 -107 127 -92 222 -118 463 -131 182 -10 398 29
456 82 23 21 24 56 3 117 -20 59 -65 99 -135 119 -30 9 -86 26 -124 37 -111
32 -183 85 -370 275 -241 244 -313 338 -380 501 -52 127 -52 122 -9 140 28 12
35 19 29 32 -33 79 -127 434 -180 678 -67 310 -233 1203 -305 1638 -17 104
-40 213 -51 243 -83 222 -490 362 -1475 508 -132 20 -242 35 -244 35 -3 -1
-23 -20 -45 -42z m146 -283 c552 -150 699 -208 825 -326 109 -102 167 -255
146 -388 l-8 -55 -6 85 c-19 236 -138 378 -410 489 -128 52 -232 85 -663 209
-83 24 -126 42 -98 42 6 0 102 -25 214 -56z m-56 -990 l71 -6 -74 -152 c-112
-229 -171 -386 -222 -586 l-26 -105 -23 150 c-13 83 -43 269 -67 415 -24 145
-42 265 -41 265 1 1 31 9 67 18 65 16 134 16 315 1z m-622 -91 c22 -135 168
-1175 165 -1178 -1 -2 -35 5 -75 15 -110 29 -235 40 -510 47 l-253 6 0 26 c0
14 7 242 15 506 8 264 15 498 15 521 l0 41 203 7 c180 7 403 29 416 41 11 12
19 2 24 -32z m-1004 0 l84 -6 -6 -236 c-4 -130 -10 -381 -13 -558 l-7 -322
-76 -6 c-107 -9 -315 -44 -363 -61 -23 -8 -42 -13 -44 -12 -1 2 45 257 102
568 57 311 107 585 111 609 l6 44 61 -7 c34 -4 99 -10 145 -13z m965 -1322
c170 -30 196 -39 196 -67 0 -49 -51 -70 -252 -103 -163 -27 -326 -41 -477 -41
l-124 0 7 61 c3 34 6 89 6 122 l0 60 263 -6 c204 -4 288 -10 381 -26z m-914
-91 c0 -126 11 -117 -117 -99 -151 20 -316 74 -338 109 -19 31 200 81 438 99
15 1 17 -10 17 -109z"/>
</g>
</svg>
