<?xml version="1.0" standalone="no"?>
<!DOCTYPE svg PUBLIC "-//W3C//DTD SVG 20010904//EN"
 "http://www.w3.org/TR/2001/REC-SVG-20010904/DTD/svg10.dtd">
<svg version="1.0" xmlns="http://www.w3.org/2000/svg"
 width="1024.000000pt" height="1024.000000pt" viewBox="0 0 1024.000000 1024.000000"
 preserveAspectRatio="xMidYMid meet">
<metadata>
Created by potrace 1.16, written by Peter Selinger 2001-2019
</metadata>
<g transform="translate(0.000000,1024.000000) scale(0.100000,-0.100000)"
fill="#000000" stroke="none">
<path d="M4168 9820 c-134 -17 -230 -63 -335 -163 -154 -147 -238 -308 -304
-587 -63 -263 -93 -327 -267 -560 -129 -172 -200 -296 -222 -390 -18 -73 -17
-206 2 -250 l15 -35 12 60 c18 85 63 171 124 238 57 62 83 77 43 24 -40 -52
-84 -156 -104 -247 -36 -157 -171 -486 -260 -635 -46 -76 -52 -108 -23 -139
19 -21 19 -23 -65 -240 -101 -264 -135 -378 -141 -472 -5 -69 -5 -71 28 -109
44 -51 245 -217 337 -279 l72 -50 -31 -13 c-55 -23 -155 -100 -214 -165 -113
-125 -161 -272 -152 -463 9 -176 67 -355 162 -500 35 -52 43 -73 39 -95 -8
-37 21 -86 57 -99 16 -6 49 -40 84 -88 31 -43 94 -114 140 -158 l83 -80 23
-325 c12 -179 23 -422 23 -540 1 -254 0 -259 -124 -576 -143 -366 -181 -567
-220 -1179 -16 -252 -19 -285 -36 -376 -16 -84 -16 -86 6 -134 l22 -48 -36
-111 c-48 -152 -59 -219 -54 -328 7 -143 46 -217 143 -267 138 -70 443 -82
544 -20 70 42 64 103 -29 292 -45 94 -64 146 -80 224 -26 131 -25 151 7 213
24 47 27 63 28 169 2 128 -9 82 165 721 49 179 105 390 125 470 51 205 58 226
145 410 43 91 95 219 115 285 70 233 265 1034 265 1092 0 13 3 23 8 23 14 -1
360 -780 498 -1122 66 -165 78 -202 82 -267 3 -49 11 -85 22 -101 16 -22 17
-36 8 -120 -12 -120 -4 -339 17 -450 9 -47 38 -177 65 -290 62 -263 100 -518
100 -678 0 -86 4 -133 15 -158 14 -33 13 -41 -12 -122 -24 -79 -27 -103 -27
-255 l-1 -169 28 -23 c43 -37 120 -57 249 -62 107 -5 119 -4 156 17 l39 22
123 -36 c168 -49 268 -60 425 -47 153 13 255 35 291 63 22 18 25 27 21 60 -7
54 -39 110 -73 130 -16 9 -74 27 -129 39 -55 11 -116 29 -135 39 -78 40 -240
198 -358 349 -42 53 -43 55 -36 111 7 62 -11 196 -29 219 -8 9 -14 150 -19
435 -6 411 -13 530 -43 826 -8 80 -17 226 -19 325 -3 176 -30 413 -87 785 -59
383 -161 776 -285 1094 -30 76 -53 140 -52 141 2 2 30 10 62 20 140 40 265
134 306 230 28 66 27 129 -4 160 -29 28 -46 27 -163 -11 -152 -51 -277 -13
-335 100 -23 44 -28 120 -10 152 6 12 64 54 129 95 65 40 172 109 238 152
l120 80 125 13 c244 26 503 90 785 193 169 63 208 83 256 134 75 78 247 352
270 428 7 24 6 53 -2 97 -6 35 -10 64 -8 66 33 28 378 240 401 247 48 13 127
10 173 -7 89 -35 111 -28 170 51 21 28 81 98 133 157 110 125 132 137 221 118
98 -21 183 16 221 95 36 74 16 152 -55 214 -32 28 -42 31 -102 31 -51 0 -63 3
-55 13 16 19 -12 75 -42 83 -64 16 -101 -35 -67 -92 l19 -33 -28 -9 c-27 -10
-29 -8 -45 34 -21 54 -53 67 -93 36 -31 -23 -35 -71 -8 -101 16 -17 15 -19 -6
-25 -43 -11 -58 -7 -58 17 0 39 -27 67 -65 67 -60 0 -81 -62 -38 -111 12 -15
11 -17 -11 -23 -13 -3 -31 -9 -40 -12 -12 -5 -16 0 -16 18 0 39 -27 68 -64 68
-19 0 -39 -7 -46 -16 -18 -21 -17 -70 3 -92 15 -17 14 -19 -29 -35 -36 -13
-44 -14 -35 -3 9 11 9 22 -3 50 -18 43 -53 55 -90 31 -33 -22 -37 -78 -6 -97
29 -18 25 -25 -21 -32 -50 -8 -80 -37 -104 -101 -10 -28 -23 -56 -29 -62 -6
-7 -101 -69 -211 -138 -193 -122 -202 -126 -242 -120 -53 8 -78 -6 -92 -48
-14 -42 -34 -56 -331 -239 -464 -286 -617 -381 -726 -454 -60 -41 -114 -74
-120 -74 -5 0 2 8 16 18 14 9 56 41 94 71 64 51 67 55 45 63 -12 5 -30 19 -38
31 -20 29 -121 248 -121 263 0 6 7 17 15 24 8 7 15 19 15 27 0 9 -42 110 -94
227 -52 116 -123 294 -159 396 -81 229 -89 248 -138 325 -69 110 -175 194
-283 224 -22 6 -41 9 -43 7 -2 -1 6 -23 16 -47 11 -24 58 -188 105 -365 46
-176 101 -378 121 -448 65 -234 23 -145 -58 119 -25 83 -78 255 -117 384 -92
304 -135 388 -221 431 -30 16 -39 27 -45 56 -6 34 0 101 10 112 3 3 38 -5 78
-17 98 -28 169 -28 202 2 28 25 66 93 66 119 0 10 9 27 20 38 11 11 20 28 20
38 0 10 7 28 16 40 8 12 14 37 12 54 -3 29 1 35 42 56 25 13 48 29 53 35 12
19 -1 58 -34 105 -44 62 -48 125 -15 224 14 42 26 91 26 110 0 18 5 40 10 48
7 10 10 -15 10 -80 1 -88 2 -94 16 -75 9 11 28 45 42 75 23 48 26 68 27 160 0
96 -2 110 -29 165 -39 79 -113 151 -206 199 -41 22 -102 61 -134 88 -74 61
-137 94 -218 113 -82 19 -226 26 -310 15z m-709 -2970 c38 -275 56 -503 46
-599 l-7 -67 -175 172 -174 172 83 178 c70 149 88 179 108 184 18 4 34 23 55
62 16 32 33 54 37 50 3 -4 16 -72 27 -152z m3100 124 c18 -14 37 -36 43 -48
10 -19 -12 -2 -86 65 -25 22 16 6 43 -17z m-54 -104 c41 -42 37 -55 -5 -17
-35 31 -54 57 -43 57 5 0 27 -18 48 -40z m-1626 -86 c52 -11 35 -19 -42 -20
-177 -4 -296 -85 -536 -364 -64 -74 -136 -154 -161 -178 -59 -56 -146 -99
-243 -117 -82 -16 -334 -21 -307 -6 8 4 73 14 144 21 274 26 345 67 533 304
159 199 269 295 394 341 64 24 153 32 218 19z m1541 -189 l-22 -65 -106 0
c-96 1 -105 2 -88 15 11 8 23 15 28 15 4 0 42 20 84 45 41 25 79 45 84 45 4 0
14 7 21 16 22 27 22 -2 -1 -71z m-1400 -155 c29 -63 64 -130 77 -147 l24 -33
-71 -45 c-110 -72 -165 -98 -190 -90 -55 18 -79 176 -40 263 16 36 138 178
146 170 1 -2 26 -55 54 -118z"/>
</g>
</svg>
