<?xml version="1.0" standalone="no"?>
<!DOCTYPE svg PUBLIC "-//W3C//DTD SVG 20010904//EN"
 "http://www.w3.org/TR/2001/REC-SVG-20010904/DTD/svg10.dtd">
<svg version="1.0" xmlns="http://www.w3.org/2000/svg"
 width="1024.000000pt" height="1024.000000pt" viewBox="0 0 1024.000000 1024.000000"
 preserveAspectRatio="xMidYMid meet">
<metadata>
Created by potrace 1.16, written by Peter Selinger 2001-2019
</metadata>
<g transform="translate(0.000000,1024.000000) scale(0.100000,-0.100000)"
fill="#000000" stroke="none">
<path d="M2515 9765 c41 -106 147 -231 280 -330 74 -56 226 -131 365 -180 185
-66 171 -67 -175 -10 -287 47 -403 58 -572 53 -134 -5 -157 -8 -243 -38 -103
-35 -138 -56 -80 -47 159 26 235 30 338 19 59 -7 141 -21 182 -33 87 -24 232
-80 226 -87 -3 -2 -101 -22 -218 -44 -321 -59 -423 -53 -574 38 -82 49 -130
99 -166 172 -17 34 -33 60 -35 58 -11 -10 21 -126 52 -191 116 -244 384 -462
694 -565 101 -34 81 -38 -85 -15 -359 47 -607 157 -716 315 -28 41 -30 42 -24
15 12 -51 68 -135 130 -192 60 -55 221 -141 334 -178 57 -18 68 -35 22 -35
-69 0 -241 -83 -298 -144 -26 -27 -25 -27 28 7 97 64 158 81 300 81 119 1 129
-1 205 -32 44 -17 114 -51 155 -74 l75 -42 -45 -7 c-25 -4 -85 -8 -133 -8
-152 -2 -282 -37 -373 -103 -45 -32 -62 -60 -21 -34 12 7 47 22 77 32 70 24
275 25 365 2 l60 -16 -30 -11 c-111 -44 -207 -116 -259 -195 -20 -30 -36 -57
-36 -61 0 -4 23 18 50 48 36 39 76 68 138 100 105 54 185 77 301 83 l86 4 -92
-44 c-51 -25 -93 -47 -93 -49 0 -8 78 3 170 23 92 21 431 72 437 67 2 -2 -86
-26 -194 -52 -109 -27 -219 -59 -245 -72 -26 -13 -92 -38 -147 -56 -55 -18
-104 -36 -107 -40 -14 -14 320 -7 416 8 219 35 324 68 545 171 99 47 188 89
198 94 28 16 20 -4 -15 -37 -82 -76 -181 -128 -343 -178 -181 -56 -273 -104
-359 -189 -121 -119 -164 -223 -221 -536 -41 -223 -53 -273 -101 -424 -38
-121 -42 -161 -18 -194 14 -20 13 -31 -5 -125 -25 -123 -55 -309 -72 -434 -19
-146 -1 -229 62 -292 15 -16 107 -84 203 -151 121 -85 176 -129 176 -142 0
-10 -9 -36 -19 -57 -34 -65 -81 -241 -93 -343 -9 -75 -9 -116 0 -174 16 -100
74 -272 119 -353 40 -71 40 -78 8 -251 -9 -47 -22 -155 -30 -240 -45 -466
-119 -972 -156 -1052 -6 -14 -22 -30 -34 -36 -14 -6 -28 -26 -35 -49 -26 -82
-47 -106 -215 -258 -287 -259 -383 -378 -525 -658 -71 -140 -116 -216 -146
-247 -26 -27 -49 -65 -59 -95 -9 -27 -39 -83 -66 -123 -27 -40 -49 -80 -49
-89 0 -9 -13 -37 -30 -62 -36 -58 -85 -164 -183 -396 -100 -241 -120 -309
-115 -392 4 -58 8 -69 36 -94 99 -88 453 -101 606 -22 68 35 82 94 50 217 -9
33 -17 99 -18 146 -1 82 1 88 42 170 62 121 75 140 168 252 54 66 103 140 146
220 61 118 66 124 178 222 183 161 245 222 382 375 77 86 171 178 233 228 187
151 226 207 376 543 23 52 74 163 112 245 39 83 112 247 162 365 l92 214 89
27 c166 49 244 94 381 221 78 72 100 84 143 78 23 -3 171 -92 535 -320 458
-287 564 -359 671 -460 50 -47 112 -102 136 -122 26 -22 55 -57 67 -85 12 -26
33 -57 46 -68 20 -17 30 -51 65 -220 23 -110 54 -231 69 -270 15 -38 102 -211
195 -384 122 -230 176 -342 201 -418 19 -58 41 -116 51 -130 9 -14 29 -65 46
-112 54 -159 53 -151 27 -248 -21 -76 -24 -111 -24 -258 0 -254 11 -268 223
-274 127 -3 136 -2 165 20 30 22 31 22 76 4 150 -58 273 -97 364 -116 203 -43
468 -23 525 39 20 21 22 31 17 65 -15 89 -66 170 -120 193 -19 7 -81 25 -139
39 -165 39 -196 60 -311 220 -32 44 -73 96 -90 116 -51 57 -115 194 -108 229
4 23 -2 38 -27 70 -22 28 -37 62 -46 106 -8 35 -23 82 -34 105 -30 58 -124
318 -154 424 -14 50 -42 169 -61 265 -46 223 -66 293 -169 593 -46 135 -97
289 -112 342 -41 145 -45 152 -418 600 -217 262 -273 323 -549 601 l-248 251
68 34 c57 28 72 41 91 79 24 49 27 77 12 132 -16 55 -39 63 -116 42 -80 -21
-157 -15 -230 21 -92 45 -167 153 -150 217 3 12 21 39 40 59 49 53 329 275
376 299 28 14 114 31 282 55 287 42 379 58 512 91 179 45 234 84 324 232 132
216 177 316 188 421 4 31 14 64 23 75 45 52 471 390 532 422 24 12 52 13 149
8 l120 -7 53 54 c28 30 98 103 155 163 113 118 99 112 202 86 64 -16 105 -5
157 43 81 74 101 143 63 216 -22 45 -67 66 -163 76 -54 6 -57 8 -51 31 4 15 0
34 -10 49 -13 19 -20 23 -39 16 -21 -8 -24 -15 -26 -83 -1 -20 -9 -32 -31 -43
-42 -22 -45 -20 -45 24 0 22 3 34 7 28 5 -8 8 -6 8 5 0 24 -40 49 -68 41 -12
-3 -22 -13 -22 -23 0 -10 -7 -23 -15 -30 -9 -7 -13 -20 -10 -28 3 -8 1 -20 -3
-26 -5 -6 -12 -23 -16 -38 -9 -40 -34 -36 -35 5 0 36 -8 77 -16 85 -10 10 -15
-6 -19 -61 -5 -68 -9 -76 -38 -70 -19 4 -23 11 -24 47 -1 23 -7 52 -13 64 -10
19 -15 20 -32 11 -20 -10 -20 -11 -3 -30 15 -17 15 -19 1 -19 -20 0 -31 -18
-20 -33 5 -7 10 -24 11 -38 3 -21 -4 -29 -33 -43 -20 -10 -42 -15 -49 -13 -7
3 -16 28 -20 56 -8 59 -18 69 -45 42 -33 -33 -44 -60 -30 -77 6 -8 8 -14 5
-14 -4 0 -2 -9 4 -20 9 -17 6 -23 -22 -40 -18 -11 -43 -20 -54 -20 -18 0 -22
7 -27 45 -6 56 -9 60 -37 43 -18 -11 -21 -21 -18 -68 1 -30 0 -60 -4 -65 -3
-6 -9 -27 -13 -47 -4 -20 -21 -53 -39 -72 -17 -19 -162 -122 -321 -229 -318
-213 -327 -217 -435 -197 -73 13 -99 2 -119 -52 -41 -108 -86 -152 -325 -317
-258 -179 -307 -205 -383 -203 -87 1 -219 28 -270 54 -44 23 -45 25 -105 173
-58 147 -60 152 -54 222 6 70 4 75 -43 180 -57 126 -82 206 -121 387 -33 155
-54 213 -111 309 -53 89 -126 162 -206 204 -70 38 -174 67 -204 58 -19 -6 -20
-5 -8 16 7 13 22 31 34 41 12 10 25 31 28 47 5 24 10 28 27 24 23 -6 60 21 60
44 0 18 10 16 40 -7 33 -26 42 -25 70 10 18 21 34 29 58 30 28 0 35 5 48 37
14 33 14 42 0 93 -21 76 -21 136 2 154 9 8 40 33 69 55 96 75 149 234 126 379
-6 37 -14 76 -18 87 -7 20 -7 20 8 0 24 -33 58 -144 66 -220 6 -59 9 -66 16
-41 23 81 -30 292 -98 388 -150 215 -196 265 -307 337 -125 81 -235 110 -460
121 -149 8 -197 14 -319 45 -205 51 -316 65 -508 65 -91 0 -164 -2 -161 -5 8
-8 106 -25 208 -36 52 -5 120 -14 150 -20 65 -12 211 -58 225 -70 15 -15 -192
-10 -290 6 -165 26 -394 102 -494 163 -34 20 -81 57 -106 81 -57 55 -58 40 -2
-35 49 -66 106 -120 169 -161 62 -39 32 -40 -109 -3 -125 32 -265 90 -391 162
-72 41 -188 143 -225 198 -16 24 -16 23 -2 -15z m268 -797 c59 -6 107 -14 107
-17 0 -8 -221 6 -280 18 l-45 9 55 1 c30 1 103 -4 163 -11z m2303 -490 c-9
-32 -32 -71 -55 -98 l-39 -45 49 98 c27 54 50 106 50 115 1 15 2 15 6 0 2 -10
-3 -42 -11 -70z m-444 -875 c44 -59 106 -167 145 -253 65 -141 204 -482 201
-492 -4 -11 -157 293 -233 462 -83 185 -124 271 -146 301 -34 49 -6 32 33 -18z
m-1352 -1150 c0 -9 26 -109 59 -222 59 -208 78 -301 61 -301 -5 0 -49 27 -99
60 -89 60 -131 103 -131 134 0 9 20 84 45 167 25 83 45 160 45 171 0 10 5 16
10 13 6 -3 10 -14 10 -22z m1680 -48 c0 -2 -24 -16 -52 -31 -123 -61 -231
-161 -395 -369 -164 -207 -285 -283 -501 -316 -99 -15 -113 -6 -22 15 144 32
317 125 406 218 23 24 75 91 118 149 93 130 140 179 229 236 80 53 217 114
217 98z m1416 -200 c-31 -41 -120 -95 -155 -95 -18 0 -8 8 35 30 32 16 77 47
98 69 47 48 60 46 22 -4z m-1276 -382 c0 -27 -8 -29 -37 -8 -58 41 -79 133
-52 230 l11 39 39 -118 c21 -66 39 -130 39 -143z"/>
</g>
</svg>
