<?xml version="1.0" standalone="no"?>
<!DOCTYPE svg PUBLIC "-//W3C//DTD SVG 20010904//EN"
 "http://www.w3.org/TR/2001/REC-SVG-20010904/DTD/svg10.dtd">
<svg version="1.0" xmlns="http://www.w3.org/2000/svg"
 width="1024.000000pt" height="1024.000000pt" viewBox="0 0 1024.000000 1024.000000"
 preserveAspectRatio="xMidYMid meet">
<metadata>
Created by potrace 1.16, written by Peter Selinger 2001-2019
</metadata>
<g transform="translate(0.000000,1024.000000) scale(0.100000,-0.100000)"
fill="#000000" stroke="none">
<path d="M4435 9905 c-100 -22 -216 -82 -324 -170 -150 -120 -260 -180 -356
-194 l-50 -8 36 -16 c20 -9 59 -19 88 -23 l52 -7 -43 -29 c-24 -16 -79 -47
-122 -69 -70 -34 -89 -39 -150 -39 -110 0 -186 45 -258 150 -25 37 -22 4 6
-55 21 -46 74 -102 122 -132 15 -9 -9 -10 -106 -6 -139 6 -202 -6 -293 -55
-70 -38 -123 -108 -56 -75 76 38 203 53 284 34 l30 -8 -30 -13 c-191 -83 -337
-170 -394 -235 -48 -55 -73 -113 -78 -180 -5 -69 10 -104 30 -70 25 41 124
132 190 173 71 44 73 42 23 -23 -154 -202 -258 -260 -364 -206 -41 21 -61 41
-86 86 l-17 30 5 -52 c13 -136 132 -252 247 -241 27 3 49 3 49 0 0 -3 -21 -27
-46 -54 -62 -66 -104 -158 -111 -245 -6 -70 10 -178 28 -189 6 -3 7 4 4 18 -9
34 29 128 76 190 21 29 39 56 39 60 0 5 4 8 8 8 5 0 5 -28 0 -62 -9 -74 -5
-109 28 -238 13 -52 24 -114 24 -139 0 -57 -35 -118 -91 -157 l-43 -29 28 -3
c16 -2 41 2 56 8 55 23 159 176 206 305 19 49 23 55 23 30 1 -168 -66 -634
-129 -890 -42 -171 -68 -241 -177 -485 -39 -85 -76 -173 -83 -195 -7 -22 -39
-87 -71 -145 -131 -238 -179 -399 -186 -632 -8 -243 24 -440 105 -630 40 -96
54 -153 142 -583 141 -687 165 -831 156 -928 -17 -189 -11 -172 -96 -285 -221
-294 -337 -626 -434 -1242 -37 -233 -33 -218 -60 -213 -36 7 -63 -13 -80 -59
-9 -24 -36 -142 -61 -264 -24 -122 -54 -242 -65 -268 -47 -110 -79 -291 -82
-456 -2 -94 0 -111 22 -155 21 -42 34 -55 84 -79 51 -26 70 -30 145 -30 91 -1
144 17 192 65 l20 20 20 -25 c44 -56 169 -122 277 -147 212 -48 490 -20 562
55 32 35 37 101 11 142 -28 46 -70 74 -219 149 -92 46 -150 82 -190 120 -76
70 -146 188 -172 290 -25 94 -22 147 16 323 23 106 24 122 13 171 -12 51 -11
59 15 135 186 535 405 1003 643 1376 105 165 124 210 138 320 18 135 35 382
48 713 l12 278 80 -108 c44 -59 151 -197 238 -308 87 -110 196 -256 242 -325
l84 -125 5 -100 c3 -81 -1 -127 -24 -245 -16 -80 -34 -206 -41 -280 -15 -174
-6 -553 20 -840 25 -272 27 -335 12 -388 -7 -26 -11 -106 -10 -215 1 -166 0
-177 -35 -323 -46 -192 -60 -297 -53 -404 8 -144 47 -204 149 -235 67 -20 178
-19 226 1 20 8 51 29 68 45 26 26 32 28 38 14 8 -21 133 -78 216 -99 156 -38
406 -51 524 -26 98 20 141 79 116 155 -15 46 -58 78 -150 110 -126 45 -186 83
-261 163 -38 41 -68 76 -67 78 2 1 23 -2 48 -7 46 -10 1464 -244 2083 -344
186 -30 358 -55 382 -55 63 0 105 38 111 100 9 91 -33 126 -177 146 -57 8
-114 17 -125 19 -17 4 -30 26 -57 92 -20 49 -56 134 -80 191 -39 89 -43 102
-27 102 17 0 467 -59 843 -110 81 -11 176 -20 210 -20 57 0 66 3 91 29 55 58
41 158 -27 186 -18 7 -59 15 -92 19 -163 17 -153 14 -166 54 -11 36 -667 1679
-788 1975 l-60 148 125 362 c69 199 209 603 310 897 102 294 189 539 193 543
5 5 82 40 172 78 220 92 250 108 275 147 28 41 35 120 37 432 3 361 27 344
-426 296 -177 -19 -461 -47 -632 -61 -170 -15 -391 -35 -489 -46 -98 -11 -180
-18 -181 -17 -1 2 -17 31 -35 66 -71 135 -196 201 -424 222 -206 20 -327 60
-436 145 -67 52 -153 96 -285 146 -234 88 -398 175 -488 258 -42 38 -60 79
-141 319 -41 119 -92 269 -114 332 -22 63 -47 160 -56 215 -30 184 -83 305
-180 420 l-44 50 70 70 c66 66 71 69 82 50 6 -11 29 -38 52 -61 58 -57 148
-78 234 -54 43 12 197 165 229 228 12 24 32 48 45 54 31 13 59 53 76 102 12
38 9 153 -6 216 l-6 25 26 -28 25 -27 49 49 c50 50 92 135 107 214 4 20 11 37
16 37 14 0 10 -92 -7 -149 -8 -29 -13 -55 -10 -58 9 -10 96 113 102 145 10 50
-2 131 -26 187 -44 102 -171 276 -285 390 -124 124 -190 168 -308 203 -106 31
-271 38 -372 17z m-135 -3064 c0 -20 154 -212 224 -278 115 -110 277 -184 698
-321 253 -83 281 -88 376 -73 87 13 132 3 203 -44 20 -13 87 -49 148 -80 62
-31 132 -74 157 -97 l44 -41 0 29 c0 63 -72 157 -140 182 -15 6 6 9 64 10 93
2 142 -11 183 -50 33 -30 48 -93 34 -138 -10 -32 -19 -39 -108 -79 -54 -24
-117 -50 -140 -58 -42 -15 -44 -14 -80 14 -62 49 -280 196 -336 227 -49 28
-60 30 -207 37 -136 6 -166 10 -246 37 -128 43 -217 87 -263 130 -21 20 -159
105 -306 187 -254 142 -405 238 -405 257 0 14 84 157 93 158 4 0 7 -4 7 -9z
m-215 -721 c82 -50 394 -215 482 -254 33 -15 69 -26 79 -24 10 2 28 19 41 38
12 19 30 45 40 58 l18 22 165 -79 c91 -43 206 -91 255 -106 191 -57 221 -67
263 -95 l44 -29 -39 -16 c-47 -20 -213 -66 -348 -96 -55 -12 -106 -25 -113
-29 -26 -13 355 -35 608 -35 l255 0 105 36 c58 20 175 62 260 94 249 91 973
336 984 332 5 -2 -58 -27 -140 -57 -82 -29 -228 -82 -324 -117 -341 -126 -428
-157 -660 -237 l-235 -81 -185 2 c-102 1 -250 7 -330 12 -412 30 -564 35 -594
20 -72 -35 -98 -140 -78 -312 14 -113 40 -178 84 -211 28 -20 91 -26 528 -51
l125 -7 34 -87 c18 -47 64 -160 101 -251 37 -91 163 -399 280 -685 l212 -519
-20 -56 c-11 -30 -86 -226 -167 -435 -81 -209 -235 -614 -342 -900 -302 -807
-299 -800 -312 -797 -6 1 -52 5 -100 9 -83 5 -90 4 -111 -17 -18 -18 -21 -29
-16 -59 l6 -36 -23 40 c-87 154 -107 226 -117 420 -5 104 -14 175 -24 204 -23
63 -20 116 24 453 54 403 70 584 76 883 3 165 10 277 21 330 11 57 14 117 11
210 -4 112 -9 144 -38 230 -50 153 -202 535 -315 790 -56 128 -201 406 -279
535 -69 115 -222 341 -338 497 l-31 42 29 43 29 43 3 203 4 203 22 -14 c11 -8
52 -33 91 -57z m2336 -85 c5 -67 0 -93 -22 -98 -16 -4 -19 -2 -13 11 4 9 10
46 12 82 4 64 17 67 23 5z m139 5 c0 -5 -2 -10 -4 -10 -3 0 -8 5 -11 10 -3 6
-1 10 4 10 6 0 11 -4 11 -10z m16 -42 c4 -7 3 -8 -4 -4 -7 4 -12 2 -12 -5 0
-7 -3 -10 -6 -6 -6 5 3 27 11 27 2 0 7 -5 11 -12z m-1056 -250 c52 -11 109
-23 125 -28 l30 -7 -26 -11 c-14 -5 -49 -17 -78 -26 -51 -15 -52 -15 -60 7
-12 29 -39 53 -84 72 -36 15 -54 34 -19 20 9 -4 60 -16 112 -27z m2007 -585
c-3 -10 -61 -173 -130 -363 -68 -190 -170 -475 -226 -635 -107 -307 -120 -340
-125 -334 -2 2 -74 212 -161 466 l-157 462 42 49 c37 43 61 57 223 131 100 45
259 117 352 161 94 43 174 78 179 79 4 1 6 -7 3 -16z m-1334 -289 c326 -7 327
-7 322 -28 -3 -12 -92 -283 -198 -604 -179 -545 -193 -581 -204 -555 -7 15
-43 105 -79 198 -129 334 -374 946 -390 977 l-16 31 118 -6 c66 -4 266 -10
447 -13z m577 -1851 c-94 -252 -174 -466 -178 -475 -5 -13 -38 62 -107 240
-54 141 -129 333 -166 425 l-66 168 180 545 179 546 165 -496 164 -495 -171
-458z m309 115 c49 -130 400 -1018 551 -1396 l157 -394 -41 6 c-22 3 -176 21
-341 41 -165 19 -315 38 -334 42 -33 8 -35 11 -158 293 -68 157 -147 337 -175
400 l-50 115 15 45 c8 25 75 203 149 395 74 193 148 387 164 432 16 46 31 83
34 83 3 0 16 -28 29 -62z m-819 -371 c68 -171 146 -363 172 -426 26 -62 48
-121 48 -130 0 -9 -60 -164 -132 -344 l-133 -329 -35 6 c-19 3 -82 9 -140 12
l-106 7 -27 -32 c-39 -46 -38 -111 1 -151 32 -31 41 -34 222 -50 168 -15 698
-78 733 -88 25 -6 36 -25 106 -195 58 -137 75 -186 63 -183 -10 3 -152 25
-317 50 -165 25 -372 57 -460 71 -453 70 -824 125 -843 125 -12 0 -22 3 -22 6
0 8 141 386 365 979 92 242 213 563 268 712 56 150 104 273 107 273 3 0 61
-141 130 -313z m439 -1061 l100 -238 -42 5 c-23 4 -109 14 -190 24 -94 11
-146 21 -143 27 5 14 141 360 156 400 6 16 12 27 15 25 2 -2 49 -112 104 -243z"/>
</g>
</svg>
