<?xml version="1.0" standalone="no"?>
<!DOCTYPE svg PUBLIC "-//W3C//DTD SVG 20010904//EN"
 "http://www.w3.org/TR/2001/REC-SVG-20010904/DTD/svg10.dtd">
<svg version="1.0" xmlns="http://www.w3.org/2000/svg"
 width="1024.000000pt" height="1024.000000pt" viewBox="0 0 1024.000000 1024.000000"
 preserveAspectRatio="xMidYMid meet">
<metadata>
Created by potrace 1.16, written by Peter Selinger 2001-2019
</metadata>
<g transform="translate(0.000000,1024.000000) scale(0.100000,-0.100000)"
fill="#000000" stroke="none">
<path d="M3558 9203 c-406 -610 -359 -547 -419 -557 -46 -7 -103 -54 -130
-108 -11 -21 -35 -56 -53 -76 -60 -67 -81 -118 -81 -202 0 -44 -6 -85 -14 -99
-23 -41 -31 -82 -20 -102 14 -27 29 -24 85 16 67 48 78 46 103 -21 34 -89 105
-324 197 -646 47 -166 94 -320 105 -342 31 -67 167 -188 488 -437 86 -66 166
-130 179 -140 l23 -20 -21 -28 c-24 -35 -26 -78 -4 -110 21 -30 89 -60 135
-61 43 0 62 -19 84 -79 19 -54 19 -118 0 -151 -8 -14 -14 -28 -15 -32 0 -18
50 -6 88 22 47 34 41 43 72 -97 51 -235 69 -485 51 -702 -18 -209 -36 -295
-81 -388 -25 -51 -40 -97 -40 -120 0 -21 -14 -74 -31 -118 -34 -86 -34 -109
-5 -213 14 -48 14 -63 1 -130 -11 -54 -15 -147 -15 -314 l0 -237 36 -7 c23 -4
58 -1 92 9 31 9 58 14 60 13 2 -2 -34 -25 -79 -51 -225 -133 -476 -384 -608
-610 -47 -82 -54 -80 -12 3 83 164 234 344 448 532 l62 55 -14 75 c-15 81 -18
301 -6 530 4 74 3 140 -2 147 -18 25 -231 47 -627 64 -432 19 -895 -12 -949
-62 -27 -26 -28 -83 -1 -127 19 -32 20 -51 20 -713 l0 -680 -25 -33 c-26 -34
-44 -106 -41 -166 1 -34 3 -36 68 -57 94 -32 205 -49 429 -69 107 -9 197 -20
202 -23 4 -4 6 -229 5 -500 l-3 -492 -74 103 c-251 347 -646 863 -708 926
l-73 72 0 544 0 543 25 77 c31 94 31 104 -1 191 -25 67 -26 80 -31 343 l-5
273 28 41 c24 35 29 51 30 117 2 67 10 98 69 256 36 99 78 206 92 238 23 51
27 55 39 40 12 -17 14 -17 41 3 46 34 92 110 99 166 4 27 13 52 20 55 8 3 69
-4 138 -16 393 -66 896 -80 1006 -28 42 20 39 62 -7 105 -47 45 -195 119 -323
162 -170 57 -594 208 -623 221 -19 8 -37 33 -58 76 -40 83 -68 99 -147 82 -58
-12 -128 -44 -172 -79 -28 -22 -39 -22 -440 21 -261 28 -473 30 -552 6 -128
-39 -108 -124 51 -210 102 -56 350 -135 701 -222 102 -26 191 -52 198 -58 16
-13 8 -54 -18 -82 -25 -28 -34 -63 -20 -80 8 -10 5 -28 -16 -77 -15 -35 -59
-144 -98 -242 l-71 -179 -48 -14 c-40 -12 -53 -22 -77 -59 -36 -57 -45 -111
-30 -173 l11 -48 -126 -264 c-174 -362 -168 -349 -164 -353 2 -1 21 -12 41
-25 l36 -22 16 23 c9 12 16 27 16 32 0 18 203 426 212 426 4 0 8 -98 8 -219 0
-172 -3 -226 -15 -254 -19 -46 -19 -110 0 -173 12 -41 15 -138 15 -579 l0
-529 -30 -31 c-30 -31 -258 -365 -694 -1015 -134 -201 -267 -393 -295 -428
-45 -57 -79 -126 -97 -197 -11 -43 10 -55 91 -55 64 0 77 3 104 25 36 31 55
84 46 131 -5 28 0 45 21 82 45 77 354 542 360 542 3 0 38 -27 77 -61 103 -86
235 -175 325 -217 67 -32 87 -36 153 -37 72 0 82 3 180 52 109 55 255 158 351
249 31 30 61 54 66 54 10 0 123 -151 239 -320 115 -167 110 -141 59 -267 -57
-143 -126 -423 -112 -458 5 -14 20 -16 105 -13 55 1 102 6 105 9 14 14 26 122
26 238 0 131 10 176 28 130 39 -100 47 -112 79 -125 44 -19 157 -18 173 0 17
21 -12 127 -52 191 -17 28 -56 89 -85 138 l-54 87 15 48 c8 26 38 154 67 284
29 131 56 238 60 238 4 0 11 -15 14 -33 15 -68 110 -307 166 -418 35 -69 59
-129 59 -148 0 -44 24 -96 52 -115 14 -9 43 -17 66 -19 34 -2 52 -12 108 -62
113 -101 205 -172 289 -222 44 -26 100 -69 126 -95 39 -42 50 -48 85 -48 22 0
45 5 51 11 8 8 26 7 65 -4 244 -70 585 -73 844 -7 52 14 81 17 88 10 32 -32
139 7 158 58 8 18 37 42 92 75 95 56 165 107 283 208 76 64 91 73 127 74 51 1
104 31 131 73 32 50 55 38 55 -31 1 -45 33 -112 65 -133 30 -20 73 -14 207 26
43 13 80 21 84 18 3 -4 16 -104 28 -222 12 -118 25 -219 30 -223 4 -4 49 -10
100 -11 117 -5 125 2 106 86 -10 45 -67 213 -115 335 -7 16 5 17 169 17 197 0
188 4 200 -81 13 -86 20 -89 225 -89 135 0 181 3 189 13 10 11 0 391 -21 821
-2 39 -1 40 74 85 42 25 109 70 149 100 70 51 75 53 88 35 7 -11 121 -192 254
-404 132 -212 244 -390 249 -397 6 -6 7 -27 4 -47 -8 -42 16 -123 47 -155 19
-21 28 -23 105 -19 57 2 86 7 92 17 5 8 1 37 -11 73 -19 55 -37 85 -112 185
-36 49 -596 946 -843 1353 -137 224 -160 254 -210 271 l-33 11 0 436 c0 361 3
455 17 540 14 90 15 110 2 165 -9 44 -14 156 -16 389 -3 311 -3 327 15 337 11
6 29 38 42 72 13 36 39 80 61 104 70 76 157 100 469 130 163 16 243 36 224 55
-21 21 -127 30 -358 31 -154 0 -233 4 -219 9 39 16 180 39 363 60 222 26 269
50 162 84 -63 20 -123 31 -337 61 -276 39 -375 79 -419 169 -18 36 -18 40 -2
66 22 38 20 67 -4 80 -19 10 -20 21 -20 344 0 295 -2 335 -16 340 -22 8 -72 8
-77 -1 -3 -5 -8 -156 -11 -338 -6 -318 -7 -331 -27 -346 -19 -14 -20 -22 -14
-73 7 -51 5 -60 -19 -95 -56 -80 -143 -107 -537 -170 -124 -20 -215 -44 -234
-63 -26 -25 58 -46 255 -63 76 -7 233 -40 260 -55 8 -4 -94 -10 -225 -12 -229
-4 -295 -12 -295 -37 0 -16 30 -22 215 -42 338 -38 447 -71 510 -158 19 -25
39 -67 45 -92 7 -26 22 -56 36 -68 l24 -21 0 -302 c0 -202 -4 -315 -12 -338
-8 -25 -10 -197 -8 -611 l2 -576 -43 -25 c-24 -15 -54 -37 -66 -50 -12 -13
-109 -176 -216 -363 -215 -377 -219 -385 -228 -385 -16 0 -20 243 -9 485 21
463 15 676 -26 872 -6 31 -5 32 37 43 105 28 200 97 231 166 16 38 16 45 3 90
-8 27 -20 58 -28 68 -11 15 -9 25 12 69 23 46 26 64 26 162 0 100 -2 115 -28
167 l-28 58 25 33 c51 67 28 167 -48 216 -110 69 -321 96 -754 96 -182 0 -332
3 -332 7 0 4 5 10 11 14 17 10 4 83 -26 142 -14 29 -32 73 -40 100 -42 144
-65 488 -46 687 10 102 66 423 76 433 2 2 21 -8 42 -22 20 -14 48 -26 60 -26
l22 0 -21 46 c-23 53 -19 123 9 178 19 37 30 46 63 46 60 0 128 75 116 126 -4
13 -16 33 -28 44 l-22 20 24 17 c107 75 529 408 617 487 73 66 98 124 188 446
150 533 207 710 230 710 7 0 33 -15 57 -33 63 -48 67 -50 83 -37 21 18 18 70
-6 110 -18 29 -21 49 -20 116 l2 81 -45 64 c-25 35 -61 87 -79 114 -45 68 -90
104 -139 111 -40 7 -40 7 -247 321 -113 172 -258 392 -321 489 -63 97 -121
179 -128 182 -8 2 -23 -5 -34 -16 l-21 -21 85 -133 c47 -73 163 -259 258 -412
95 -154 199 -320 231 -371 l58 -91 -21 -64 c-18 -56 -21 -90 -23 -250 l-1
-185 -58 -145 c-61 -151 -195 -441 -298 -642 -44 -88 -70 -127 -101 -152 -55
-45 -361 -197 -406 -202 -20 -2 -60 -9 -90 -14 -30 -6 -58 -10 -63 -10 -5 0 1
18 12 39 29 57 35 110 17 153 -8 19 -44 73 -79 119 -120 158 -147 219 -178
401 -51 296 -154 485 -307 560 -67 33 -69 33 -233 36 -150 3 -170 2 -223 -18
-86 -32 -145 -85 -196 -175 -62 -108 -105 -228 -135 -376 -39 -197 -92 -314
-208 -460 -73 -93 -85 -154 -43 -228 14 -23 25 -45 25 -48 0 -3 -19 -2 -42 1
-24 4 -79 11 -123 16 -87 9 -178 46 -343 139 -134 76 -145 91 -277 381 -119
261 -242 559 -264 640 -9 33 -10 71 -3 140 10 100 4 177 -24 283 l-15 60 52
86 c79 129 315 501 455 717 68 105 124 197 124 205 0 18 -20 39 -37 39 -7 0
-144 -197 -305 -437z m910 -2025 c-71 -66 -90 -154 -48 -225 24 -41 23 -44 -6
-33 -24 9 -74 102 -74 137 0 51 38 99 106 133 56 28 63 24 22 -12z m1364 2
c61 -40 89 -96 77 -149 -9 -41 -46 -111 -58 -111 -4 0 -3 26 3 58 13 78 3 118
-44 180 -22 28 -36 52 -32 52 5 0 29 -14 54 -30z m783 -2643 c144 -19 265 -45
265 -58 0 -6 -4 -7 -10 -4 -19 11 -186 34 -340 46 -230 17 -685 5 -910 -25
-30 -4 -38 -4 -25 2 31 14 201 43 306 52 142 12 577 4 714 -13z m-1186 -636
c181 -39 224 -59 188 -89 -9 -8 -34 -6 -88 8 -257 66 -609 66 -843 0 l-69 -19
-29 20 c-35 25 -74 21 -121 -14 -39 -29 -97 -58 -97 -48 0 4 20 24 45 44 66
56 175 97 175 67 0 -15 51 -12 100 5 36 13 134 31 255 49 17 2 111 3 210 1
133 -3 205 -9 274 -24z m283 -41 c35 -10 108 -78 108 -101 0 -6 -17 1 -37 17
-21 16 -65 43 -98 61 -47 26 -55 33 -35 33 14 0 41 -5 62 -10z m-334 -159
c265 -55 492 -175 694 -370 126 -120 211 -233 287 -380 120 -234 168 -442 158
-691 -8 -210 -48 -354 -154 -562 -186 -366 -523 -645 -898 -743 -196 -52 -471
-58 -656 -16 -458 104 -845 467 -1014 951 -62 179 -78 271 -78 470 -1 156 2
186 25 280 78 312 239 568 481 763 239 193 431 274 762 321 70 10 295 -3 393
-23z m567 -34 c69 -14 752 -16 800 -4 21 6 27 5 20 -2 -35 -35 -530 -64 -720
-42 -95 11 -195 44 -195 63 0 6 8 7 18 3 9 -4 44 -12 77 -18z m181 -142 c67
-21 233 -29 324 -17 41 6 76 10 77 8 2 -2 -53 -40 -123 -85 l-126 -82 -79 76
c-44 41 -94 84 -112 95 -39 24 -27 25 39 5z m1293 -1230 c-8 -26 -12 -92 -10
-187 2 -127 0 -148 -13 -148 -13 0 -136 84 -302 206 l-42 30 38 65 c20 35 72
127 115 204 43 77 110 194 149 260 l71 120 3 -255 c2 -181 -1 -267 -9 -295z
m380 181 l174 -289 -34 -29 c-37 -32 -345 -238 -356 -238 -3 0 -2 35 3 78 4
42 7 109 6 147 -1 39 -4 205 -7 370 l-5 300 22 -25 c13 -14 101 -155 197 -314z
m-4290 45 c12 -8 13 -20 3 -78 -6 -37 -11 -113 -10 -168 1 -103 -41 -380 -81
-530 l-19 -70 -1 428 -1 427 48 0 c26 0 53 -4 61 -9z m-1209 -491 c0 -409 -1
-460 -15 -460 -45 0 -252 133 -359 231 l-66 60 194 288 c218 326 228 340 238
341 4 0 7 -207 8 -460z m233 333 c76 -99 323 -432 340 -460 15 -25 -387 -333
-435 -333 -10 0 -11 884 -1 893 3 4 8 7 9 7 1 0 40 -48 87 -107z m4538 -311
c98 -74 217 -152 256 -168 33 -14 35 -18 29 -47 -20 -93 -36 -215 -42 -319 -4
-65 -10 -118 -14 -118 -12 0 -243 112 -282 137 -29 17 -38 30 -38 51 0 15 -18
63 -40 107 -37 75 -40 86 -40 169 0 89 0 90 46 163 25 40 49 73 53 73 5 0 37
-22 72 -48z m554 -444 c3 -90 5 -199 3 -243 -3 -74 -5 -80 -25 -83 l-23 -3 0
245 c0 235 1 246 19 246 17 0 19 -12 26 -162z m-160 -195 c-6 -119 -9 -133
-25 -133 -10 0 -20 6 -22 13 -11 32 23 409 40 447 10 22 14 -177 7 -327z
m-1005 67 c0 -58 -1 -60 -25 -60 -14 0 -28 6 -31 13 -4 12 42 107 52 107 2 0
4 -27 4 -60z m1010 -309 c0 -22 -5 -43 -12 -47 -15 -10 -48 32 -48 62 0 20 5
24 30 24 28 0 30 -2 30 -39z m158 -3 c-3 -37 -7 -44 -27 -46 -27 -4 -41 12
-41 49 0 33 7 39 42 39 28 0 29 -2 26 -42z"/>
</g>
</svg>
