<?xml version="1.0" standalone="no"?>
<!DOCTYPE svg PUBLIC "-//W3C//DTD SVG 20010904//EN"
 "http://www.w3.org/TR/2001/REC-SVG-20010904/DTD/svg10.dtd">
<svg version="1.0" xmlns="http://www.w3.org/2000/svg"
 width="1024.000000pt" height="1024.000000pt" viewBox="0 0 1024.000000 1024.000000"
 preserveAspectRatio="xMidYMid meet">
<metadata>
Created by potrace 1.16, written by Peter Selinger 2001-2019
</metadata>
<g transform="translate(0.000000,1024.000000) scale(0.100000,-0.100000)"
fill="#000000" stroke="none">
<path d="M3590 9204 c-161 -42 -306 -151 -444 -333 -82 -109 -169 -185 -271
-235 -111 -56 -182 -71 -325 -71 -147 0 -197 17 -263 88 -22 23 -37 35 -34 26
3 -10 11 -36 18 -59 16 -54 84 -129 144 -159 28 -14 73 -26 111 -29 72 -5 98
-22 34 -22 -46 0 -243 -41 -310 -65 -66 -23 -160 -90 -202 -145 -57 -72 -58
-86 -5 -51 109 74 297 141 391 141 l41 -1 -52 -18 c-129 -47 -230 -145 -338
-327 -98 -166 -132 -206 -206 -243 -34 -17 -74 -31 -88 -31 l-26 -1 30 -17
c22 -12 53 -17 115 -17 113 0 165 27 243 125 32 41 28 22 -14 -65 -63 -131
-155 -204 -268 -215 l-66 -5 60 -24 c110 -42 162 -47 241 -22 38 12 74 24 81
27 18 8 -10 -87 -42 -144 -49 -85 -122 -143 -235 -189 -23 -9 -20 -11 33 -23
49 -10 70 -9 134 5 86 19 193 71 240 117 18 18 36 29 39 25 11 -11 -14 -108
-45 -173 -39 -83 -81 -127 -146 -155 -30 -13 -55 -27 -55 -30 0 -10 90 1 145
18 86 26 164 74 217 132 l51 56 -7 -70 c-4 -39 -11 -95 -16 -125 -5 -30 -11
-111 -15 -180 -14 -266 -70 -573 -125 -680 -11 -22 -20 -50 -20 -63 0 -13 -8
-35 -19 -48 -40 -51 -84 -175 -108 -304 -14 -71 -33 -146 -44 -166 -10 -20
-19 -47 -19 -59 0 -12 -15 -49 -34 -83 -19 -34 -45 -100 -58 -147 -20 -75 -23
-108 -23 -275 0 -182 1 -193 28 -268 15 -42 27 -78 27 -80 0 -1 -51 -2 -112
-2 -101 0 -119 -3 -163 -25 -64 -32 -83 -67 -97 -178 -14 -106 -1 -187 35
-219 73 -67 246 -107 596 -137 96 -9 177 -18 180 -22 3 -3 6 -41 7 -85 1 -67
4 -83 22 -102 21 -22 22 -32 22 -201 0 -158 -2 -182 -19 -210 -18 -30 -51
-202 -51 -268 0 -24 -16 -47 -82 -117 -122 -128 -496 -548 -708 -796 -228
-267 -280 -325 -366 -415 -50 -52 -107 -117 -127 -144 -44 -58 -66 -121 -49
-138 13 -13 88 -27 153 -27 104 -2 135 32 177 194 l29 110 487 3 486 2 10 -24
c13 -34 22 -38 109 -40 105 -2 145 -23 162 -85 18 -63 17 -144 -4 -296 -9 -71
-18 -157 -20 -189 l-2 -60 35 -7 c59 -13 193 -13 218 0 18 10 22 20 22 59 0
81 -19 170 -61 280 -48 128 -89 279 -89 327 l0 35 73 0 73 0 -4 -92 c-5 -106
1 -115 74 -136 44 -13 57 -22 239 -167 141 -112 282 -188 395 -211 94 -20 309
-14 387 10 71 22 107 66 100 120 -10 70 -70 143 -182 218 -113 75 -193 155
-231 229 -22 45 -24 58 -18 119 6 62 4 73 -18 113 -36 63 -42 108 -23 162 8
25 15 67 15 93 0 27 5 53 10 58 6 6 21 56 35 111 43 178 103 319 327 766 310
620 398 822 398 908 0 33 8 35 75 17 33 -9 56 -9 85 -1 22 5 40 10 40 9 0 -1
-7 -23 -15 -51 -39 -128 -57 -269 -62 -485 -5 -199 -3 -229 23 -405 24 -162
28 -220 27 -390 l0 -200 -40 -110 c-23 -62 -50 -166 -63 -235 -12 -69 -28
-159 -36 -200 -20 -111 -18 -182 6 -212 17 -22 32 -27 117 -37 54 -7 116 -14
139 -17 23 -3 90 3 150 12 72 10 131 14 174 9 36 -4 94 -10 130 -13 40 -4 64
-11 63 -18 -6 -31 -84 -147 -140 -206 -105 -111 -172 -232 -189 -338 -6 -37
-5 -39 22 -47 16 -4 71 -8 122 -8 118 0 119 1 156 166 27 126 75 240 148 356
l33 52 94 -89 c125 -120 224 -194 302 -227 60 -26 73 -28 214 -28 142 0 153 1
205 27 l55 27 338 6 337 6 0 -38 c0 -21 -7 -78 -16 -128 -24 -136 -7 -282 38
-327 19 -19 28 -20 126 -14 59 3 109 9 114 14 4 4 3 26 -3 49 -5 24 -13 72
-18 107 -5 38 -27 103 -51 158 -48 105 -61 165 -39 179 8 5 31 9 52 9 31 0 44
-6 65 -32 55 -66 84 -88 114 -88 36 0 84 24 112 57 l22 26 81 -47 c59 -35 97
-50 144 -56 95 -14 299 -12 329 3 39 20 168 271 240 467 23 63 45 119 49 123
5 4 38 -38 73 -95 112 -176 127 -209 144 -304 29 -170 114 -259 225 -238 46 9
59 21 59 54 0 48 -21 91 -128 265 -123 200 -176 297 -230 420 -55 126 -58 146
-32 201 21 43 22 50 10 118 -10 57 -10 110 -1 247 15 224 6 692 -15 763 -8 27
-14 61 -14 74 0 42 -51 253 -87 362 -62 185 -193 429 -269 501 -23 22 -36 25
-148 30 -67 3 -128 9 -134 13 -19 12 -16 844 3 916 8 30 15 89 15 130 0 41 -7
100 -15 130 -9 35 -15 102 -15 181 l0 126 40 18 c59 27 66 39 34 64 -15 12
-38 21 -53 21 -36 1 -9 16 44 24 50 9 90 38 82 60 -7 17 -74 51 -119 61 l-28
5 0 580 c0 578 0 580 20 580 58 0 91 91 65 176 -24 78 -22 82 48 111 141 60
522 259 662 345 452 280 651 478 548 545 -48 32 -223 23 -434 -20 -248 -52
-430 -107 -951 -286 -97 -34 -191 -61 -208 -61 -17 0 -48 9 -70 20 -51 26 -72
25 -97 -2 -22 -25 -53 -98 -53 -126 -1 -29 -217 -176 -565 -382 -183 -108
-348 -219 -432 -289 -87 -72 -197 -208 -236 -290 -28 -59 -29 -66 -16 -90 27
-49 129 -38 415 45 275 79 601 206 934 363 164 77 166 77 172 -14 3 -47 10
-56 51 -69 16 -5 17 -37 17 -494 0 -269 -3 -517 -7 -552 l-6 -63 -106 7 c-58
4 -170 11 -248 16 -150 9 -201 23 -269 75 -35 26 -64 96 -64 151 0 20 -12 51
-29 76 -26 39 -29 53 -34 157 -3 63 -10 118 -15 123 -11 11 -33 -125 -31 -187
2 -50 -7 -82 -36 -120 -12 -16 -25 -51 -28 -78 -10 -74 -31 -104 -95 -136 -94
-47 -139 -56 -477 -92 -225 -24 -324 -42 -384 -72 -101 -50 -52 -63 294 -77
159 -6 292 -13 294 -16 2 -2 -94 -4 -215 -4 -201 0 -357 -10 -406 -26 -26 -8
-19 -36 12 -51 40 -19 220 -51 410 -73 346 -39 399 -51 428 -92 7 -10 28 -26
45 -35 44 -22 56 -41 57 -89 0 -42 19 -68 68 -93 22 -12 22 -13 22 -244 0
-177 -4 -242 -15 -272 -19 -54 -19 -227 0 -291 10 -34 15 -96 15 -207 l0 -158
-262 2 c-247 2 -259 3 -193 15 39 7 91 13 116 13 30 1 55 8 70 20 21 17 24 27
22 83 0 34 -9 104 -19 153 -18 94 -23 265 -10 348 6 39 13 52 36 65 34 20 50
50 57 112 15 133 -146 199 -542 221 -264 15 -1000 6 -1185 -15 -239 -26 -432
-83 -459 -134 -23 -43 -13 -67 42 -107 l52 -37 -40 7 c-22 4 -78 13 -125 20
-47 8 -206 35 -355 60 -148 25 -310 53 -360 61 -142 23 -164 31 -171 60 -8 33
2 150 17 193 8 22 10 65 6 121 -6 73 -3 98 13 146 11 31 20 77 20 101 0 42 1
43 33 43 18 0 98 -9 177 -21 172 -25 515 -30 674 -10 54 7 109 10 122 7 l23
-6 -25 -25 c-20 -20 -25 -34 -22 -63 l3 -37 44 3 c24 1 64 11 89 22 51 23 56
24 47 10 -9 -15 27 -12 69 5 25 11 52 13 89 9 42 -5 62 -2 93 13 21 11 55 23
74 27 76 14 140 78 140 141 0 17 -9 48 -19 69 l-19 37 121 58 c871 417 997
484 997 535 0 9 -11 22 -25 28 -21 10 -36 5 -112 -32 -221 -109 -695 -341
-862 -421 -198 -96 -243 -107 -308 -74 -77 38 -186 35 -313 -10 -69 -24 -149
-27 -277 -11 -239 32 -457 82 -580 133 -76 31 -80 47 -28 119 94 132 125 225
125 379 0 106 -1 112 -27 143 -17 20 -49 40 -83 52 -141 50 135 -12 385 -86
364 -108 475 -109 725 -7 135 56 269 135 635 378 176 117 361 235 410 261 l90
48 -41 -41 c-50 -49 -63 -93 -39 -130 25 -38 79 -27 123 27 43 51 55 58 181
91 110 29 142 52 175 124 7 17 24 40 37 52 13 12 43 39 65 60 38 35 43 45 54
114 l12 75 46 25 c78 41 253 171 440 326 212 176 500 418 585 491 34 30 84 65
110 78 64 33 87 58 87 94 0 33 -22 50 -68 50 -21 0 -46 -15 -93 -58 -93 -84
-303 -255 -654 -533 -462 -365 -493 -384 -673 -399 -134 -11 -173 -26 -387
-149 -348 -202 -694 -353 -1075 -470 -207 -64 -288 -77 -378 -61 -196 33 -531
138 -740 231 -64 29 -352 197 -352 205 0 3 12 -2 28 -10 78 -40 217 -87 251
-84 39 3 41 10 25 99 -7 45 9 79 38 79 12 0 57 -9 100 -21 77 -21 78 -21 110
-2 25 14 48 47 91 128 31 59 60 119 63 132 3 12 21 32 40 44 64 39 76 75 52
164 -15 54 -1 133 38 222 33 73 57 219 43 265 -14 51 -10 67 7 23 24 -63 11
-182 -31 -280 -9 -22 -12 -35 -6 -29 7 6 23 42 36 80 41 116 30 256 -29 372
-75 148 -245 277 -424 323 -91 23 -269 25 -352 3z m4098 -3450 c23 -7 23 -9
19 -103 -2 -53 -12 -127 -20 -166 -22 -97 -21 -183 3 -255 19 -57 20 -82 18
-483 l-3 -422 -90 -5 c-61 -4 -103 -12 -130 -25 -36 -18 -64 -20 -256 -23
l-217 -3 -7 51 c-9 68 4 275 21 324 19 54 18 262 -1 296 -11 20 -14 75 -15
261 0 235 0 236 24 258 16 15 26 38 30 71 5 41 13 54 41 76 19 14 37 34 40 45
11 33 54 46 230 69 94 12 193 26 220 30 69 11 67 10 93 4z m-1363 -571 l50 -9
-65 -12 c-249 -45 -1025 -66 -1415 -38 -124 9 -159 14 -130 19 112 19 297 39
435 46 184 11 1053 5 1125 -6z m-2432 -414 c288 -131 447 -223 546 -314 71
-67 104 -130 109 -213 6 -83 -13 -104 -23 -27 -15 124 -74 202 -233 309 -91
60 -335 198 -464 260 -52 26 -68 36 -53 36 3 0 56 -23 118 -51z m2070 -519
c-202 -116 -367 -406 -442 -775 -48 -237 -55 -320 -56 -600 0 -302 11 -398 70
-630 44 -170 67 -239 124 -360 106 -225 237 -367 389 -421 27 -10 31 -13 15
-14 -75 -1 -253 133 -332 249 -134 197 -222 467 -271 831 -72 538 43 1220 260
1540 59 87 113 136 192 174 88 43 123 47 51 6z m1529 -242 c-80 -206 -108
-292 -157 -492 -24 -97 -47 -172 -54 -174 -55 -18 172 716 252 816 26 32 15
-9 -41 -150z m471 120 c45 -50 132 -210 179 -328 231 -592 187 -1627 -95
-2180 -78 -154 -99 -180 -142 -180 -30 0 -41 8 -85 63 -127 158 -244 472 -254
680 -2 40 -11 106 -20 147 -26 122 -31 388 -12 575 18 173 37 268 62 316 13
26 14 39 4 81 -10 39 -10 67 0 126 15 94 45 227 69 307 50 161 151 382 189
413 29 23 73 14 105 -20z m-2359 4 c-19 -13 -102 -155 -148 -253 -26 -53 -67
-170 -93 -260 -25 -90 -50 -167 -55 -170 -32 -21 -54 -329 -43 -614 13 -316 7
-475 -16 -475 -4 0 -13 17 -19 39 -5 21 -17 44 -24 51 -24 19 -28 63 -10 105
14 34 14 51 4 134 -11 99 -8 151 34 501 8 69 20 204 26 300 13 221 37 485 51
572 l11 67 71 4 c146 7 222 6 211 -1z m-2028 -106 c27 -8 75 -21 107 -30 31
-9 57 -21 57 -26 0 -5 -47 -114 -104 -242 -117 -265 -154 -370 -191 -548 -14
-69 -49 -210 -77 -315 -28 -104 -57 -217 -65 -250 -8 -33 -18 -64 -22 -68 -4
-4 -57 47 -117 115 -60 67 -162 181 -228 253 -65 71 -124 144 -131 160 -7 17
-22 80 -33 141 -12 62 -28 129 -36 149 -13 29 -16 77 -16 216 0 179 0 179 24
188 31 12 36 29 36 122 0 93 -15 85 175 94 147 6 284 20 388 39 98 18 174 19
233 2z m3679 -1033 c-20 -220 -16 -423 10 -578 18 -106 18 -108 6 -101 -9 6
-25 84 -41 209 -19 151 -10 420 21 610 20 124 22 61 4 -140z m-4695 -500 c0
-261 -4 -449 -12 -500 l-11 -83 -438 0 -439 0 133 157 c304 361 738 843 759
843 4 0 8 -188 8 -417z m472 83 c129 -155 170 -225 170 -291 0 -81 -76 -327
-110 -359 -22 -19 -97 -31 -145 -22 -37 7 -49 32 -62 131 -4 28 -25 120 -47
205 -47 182 -67 337 -67 510 l-1 125 73 -79 c39 -44 125 -142 189 -220z m3953
-567 c9 -90 25 -221 35 -291 23 -148 24 -164 6 -122 -35 80 -76 357 -76 508 1
146 17 102 35 -95z m-4207 -7 l8 -93 -26 3 c-24 3 -25 4 -22 73 4 75 24 165
29 130 2 -11 7 -62 11 -113z m4562 -7 c30 -147 83 -320 131 -429 22 -48 38
-90 35 -93 -8 -9 -59 80 -94 166 -66 161 -123 402 -107 452 4 11 8 19 10 17 2
-2 13 -52 25 -113z"/>
</g>
</svg>
