<?xml version="1.0" standalone="no"?>
<!DOCTYPE svg PUBLIC "-//W3C//DTD SVG 20010904//EN"
 "http://www.w3.org/TR/2001/REC-SVG-20010904/DTD/svg10.dtd">
<svg version="1.0" xmlns="http://www.w3.org/2000/svg"
 width="1024.000000pt" height="1024.000000pt" viewBox="0 0 1024.000000 1024.000000"
 preserveAspectRatio="xMidYMid meet">
<metadata>
Created by potrace 1.16, written by Peter Selinger 2001-2019
</metadata>
<g transform="translate(0.000000,1024.000000) scale(0.100000,-0.100000)"
fill="#000000" stroke="none">
<path d="M4214 9565 c-88 -19 -140 -49 -214 -124 -99 -100 -150 -195 -268
-507 -27 -71 -59 -153 -71 -181 -24 -62 -15 -68 25 -17 16 20 37 46 47 58 17
21 17 21 7 -9 -6 -16 -15 -39 -20 -50 -13 -27 -110 -285 -110 -293 0 -4 23 16
51 43 l51 50 -17 -40 c-10 -22 -30 -71 -45 -110 -15 -38 -31 -78 -35 -87 -13
-31 9 -19 50 27 48 55 60 57 39 8 -34 -81 -72 -193 -66 -193 4 0 21 9 37 20
39 26 43 25 38 -4 -4 -17 0 -25 14 -29 13 -3 10 -5 -8 -6 -47 -2 -203 -31
-254 -48 -64 -20 -143 -80 -193 -146 -48 -65 -248 -388 -273 -442 -10 -22 -19
-51 -19 -63 0 -13 -28 -76 -63 -140 -144 -268 -287 -569 -308 -647 -27 -105
-21 -195 22 -305 52 -135 212 -329 475 -575 76 -72 140 -135 140 -140 1 -6
-15 -15 -35 -21 -134 -39 -283 -167 -344 -294 -50 -104 -69 -194 -69 -320 0
-234 65 -415 239 -662 41 -58 99 -133 129 -166 30 -33 54 -70 54 -82 0 -25
-31 -201 -70 -403 -20 -99 -41 -174 -64 -225 -39 -87 -158 -361 -216 -497 -72
-168 -218 -684 -386 -1359 -61 -247 -67 -291 -43 -321 4 -6 -15 -71 -43 -145
-93 -252 -151 -484 -133 -536 15 -41 68 -62 185 -75 149 -15 276 -4 343 29 62
32 81 65 97 167 6 39 25 111 42 161 32 91 32 93 19 165 -19 103 -16 126 19
156 19 15 35 44 45 76 15 51 62 179 275 752 60 160 147 394 193 521 89 241
111 292 157 359 147 216 320 644 320 796 0 36 0 36 58 48 174 34 355 184 487
402 55 90 111 231 121 302 4 26 11 46 16 45 13 -5 221 -332 333 -523 198 -339
474 -912 494 -1030 6 -33 22 -132 37 -220 44 -275 72 -377 270 -982 100 -307
143 -450 138 -467 -7 -30 10 -86 38 -122 21 -26 21 -27 3 -98 -10 -39 -20
-125 -22 -192 -5 -108 -3 -124 16 -161 11 -23 30 -44 41 -48 12 -4 58 -5 104
-4 70 3 87 0 117 -18 118 -73 242 -98 494 -98 152 0 201 4 247 18 65 20 98 54
98 102 0 63 -34 94 -192 176 -80 41 -163 88 -182 103 -49 37 -136 155 -181
245 -34 69 -36 77 -25 110 9 29 8 50 -5 111 -56 256 -59 276 -156 915 -76 506
-164 903 -273 1242 -89 274 -101 317 -136 487 -80 387 -176 694 -324 1027 -30
68 -83 203 -119 299 -36 96 -84 220 -106 275 -23 54 -40 104 -40 110 1 5 137
143 303 305 196 192 321 307 357 328 32 18 115 55 185 82 142 53 413 188 508
253 103 70 194 174 235 269 10 24 26 79 35 123 32 144 38 165 67 209 15 24 54
63 86 87 32 23 109 85 171 138 63 53 125 105 139 116 20 16 40 20 106 20 61 0
91 5 117 19 53 29 139 121 210 226 36 52 79 104 97 116 18 12 64 26 110 33 95
15 148 38 188 80 26 28 30 40 33 106 4 62 0 82 -21 128 -29 64 -60 87 -123 95
-42 4 -48 9 -73 51 -39 68 -94 121 -125 121 -39 0 -61 -15 -76 -50 -12 -29
-10 -37 25 -104 38 -74 40 -101 9 -113 -11 -4 -35 14 -77 55 -76 75 -105 87
-153 67 -67 -28 -65 -85 7 -175 19 -24 29 -47 27 -61 -3 -21 -8 -24 -47 -23
-40 1 -48 6 -100 62 -65 71 -98 83 -147 57 -62 -33 -56 -90 22 -192 39 -52 41
-63 14 -88 -17 -16 -25 -17 -59 -7 -34 11 -42 20 -69 77 -39 80 -63 105 -102
105 -72 0 -100 -79 -60 -162 15 -32 20 -62 20 -130 0 -54 6 -102 14 -123 l15
-34 -63 -58 c-68 -64 -265 -223 -366 -296 -36 -26 -128 -99 -205 -162 -397
-327 -526 -424 -653 -490 -52 -27 -55 -27 -88 -12 -46 23 -112 127 -191 302
-54 118 -62 146 -57 177 8 51 -16 118 -78 220 -28 46 -78 135 -111 198 -112
212 -183 294 -316 364 -57 29 -240 93 -336 115 -27 7 -24 9 42 26 67 18 73 22
78 50 4 16 16 56 27 88 11 32 18 73 17 92 -3 29 1 37 31 57 19 13 45 44 58 69
22 45 23 48 7 120 -21 103 -19 121 19 197 70 140 82 226 41 309 -82 163 -353
345 -578 388 -95 18 -161 18 -243 0z m-720 -2445 c106 -392 133 -687 81 -880
-14 -52 -41 -158 -60 -234 -19 -77 -36 -141 -38 -142 -5 -6 -137 198 -207 320
-109 190 -175 335 -175 387 0 50 -7 37 156 281 99 146 152 243 184 336 12 31
22 47 26 40 4 -7 18 -56 33 -108z m3073 -197 c7 -21 -54 -75 -79 -71 -35 5
-29 38 11 65 37 25 61 27 68 6z m-1347 -128 c42 -81 124 -200 212 -310 27 -33
47 -65 46 -71 -2 -6 -58 -58 -126 -115 -160 -135 -171 -144 -177 -138 -11 12
-46 167 -56 252 -13 107 -6 188 27 316 13 51 24 107 24 124 0 38 -1 39 50 -58z"/>
</g>
</svg>
