<?xml version="1.0" standalone="no"?>
<!DOCTYPE svg PUBLIC "-//W3C//DTD SVG 20010904//EN"
 "http://www.w3.org/TR/2001/REC-SVG-20010904/DTD/svg10.dtd">
<svg version="1.0" xmlns="http://www.w3.org/2000/svg"
 width="1024.000000pt" height="1536.000000pt" viewBox="0 0 1024.000000 1536.000000"
 preserveAspectRatio="xMidYMid meet">
<metadata>
Created by potrace 1.16, written by Peter Selinger 2001-2019
</metadata>
<g transform="translate(0.000000,1536.000000) scale(0.100000,-0.100000)"
fill="#000000" stroke="none">
<path d="M5882 13679 c-46 -14 -95 -43 -100 -59 -3 -9 0 -11 14 -6 11 5 58 15
106 24 66 12 93 13 110 4 21 -10 19 -11 -21 -11 -58 -1 -153 -27 -214 -58 -27
-13 -81 -54 -119 -90 -83 -77 -141 -106 -273 -133 -85 -17 -104 -25 -127 -50
-37 -40 -37 -82 -1 -108 l27 -19 -42 -28 c-23 -15 -43 -35 -43 -44 -4 -40 4
-87 17 -102 29 -32 12 -47 -55 -47 -42 -1 -44 -4 -66 -72 -17 -51 -35 -74 -99
-127 -33 -27 -33 -59 -2 -121 29 -57 78 -105 127 -125 119 -49 184 -203 144
-339 -16 -58 -23 -66 -41 -49 -22 22 -137 51 -203 51 -125 0 -229 -45 -341
-147 -56 -51 -151 -119 -205 -146 -16 -8 -106 -42 -200 -76 -185 -68 -257
-105 -323 -165 -23 -21 -45 -36 -48 -33 -10 10 -6 400 6 507 22 204 89 477
137 560 33 57 153 181 198 205 42 23 58 13 91 -61 54 -123 154 -142 309 -56
74 40 88 73 82 193 -5 102 -17 136 -61 181 -33 32 -130 52 -191 38 -45 -10
-49 -7 -66 55 -6 22 -22 52 -36 66 -27 29 -102 55 -129 45 -9 -4 -27 3 -45 18
-52 44 -207 47 -274 6 l-32 -20 -119 54 c-345 155 -436 185 -509 165 -122 -34
-209 -237 -249 -584 -44 -380 -53 -740 -62 -2460 -5 -1164 -9 -1425 -20 -1452
-11 -24 -14 -94 -14 -283 0 -212 3 -256 16 -282 14 -27 16 -58 10 -217 -3
-102 -6 -1406 -6 -2898 l0 -2711 -62 -7 c-369 -39 -639 -122 -708 -217 -127
-176 51 -325 475 -398 229 -40 657 -30 925 22 122 23 271 69 318 98 64 40 91
125 58 188 -20 38 -76 88 -110 99 -28 9 -26 10 50 37 150 54 251 114 339 201
45 44 93 96 107 115 l26 35 7 -60 c21 -179 40 -201 179 -199 56 1 105 8 128
17 42 17 39 10 58 197 6 63 17 153 25 200 17 101 19 227 5 301 -6 31 -41 117
-85 204 -82 164 -102 227 -111 349 -3 45 -16 117 -29 161 -32 111 -34 120 -55
284 -13 95 -20 208 -20 321 0 296 -27 513 -87 705 -29 93 -136 322 -183 389
-25 38 -30 53 -25 78 4 18 2 40 -6 55 -10 19 -10 26 -1 32 25 15 62 76 62 101
0 15 12 49 26 76 53 100 267 409 530 764 149 201 281 382 295 402 13 21 27 38
30 38 7 0 41 -73 224 -480 293 -652 479 -1033 564 -1158 34 -49 118 -150 188
-223 223 -237 343 -392 501 -647 195 -313 532 -938 532 -985 0 -8 -5 -19 -10
-22 -26 -16 -6 -77 55 -166 19 -28 37 -71 44 -107 8 -41 26 -81 57 -128 l46
-69 -6 -225 c-4 -124 -9 -264 -13 -312 -5 -82 -8 -91 -41 -129 -19 -22 -69
-65 -111 -94 -93 -65 -129 -102 -176 -180 -66 -110 -34 -175 92 -191 111 -14
422 15 533 50 84 26 141 58 174 100 46 57 53 72 76 173 24 104 79 253 93 253
6 0 36 -25 68 -55 44 -42 65 -55 88 -55 43 0 116 36 162 80 47 45 48 61 14
203 -13 56 -33 161 -45 232 -28 181 -50 222 -199 377 -91 94 -127 140 -155
196 -20 41 -50 92 -67 114 -31 44 -59 123 -59 169 0 16 -11 45 -25 66 -52 75
-205 415 -255 565 -26 78 -69 219 -122 398 -17 57 -96 208 -158 300 -95 141
-175 236 -347 411 -144 146 -163 170 -161 196 1 21 -8 42 -34 74 -69 86 -116
301 -168 774 -36 330 -93 660 -146 848 -27 95 -34 131 -25 140 17 17 14 41
-20 139 -27 78 -30 98 -24 151 18 160 -2 375 -45 490 -11 30 -52 108 -91 173
-52 87 -81 149 -106 229 -52 167 -90 258 -162 390 -36 66 -76 141 -89 166
l-23 46 21 38 c43 77 35 183 -18 231 l-24 23 33 44 c19 24 72 91 118 148 94
115 187 253 260 384 l48 87 26 -45 c44 -75 231 -462 322 -667 89 -201 205
-431 273 -542 57 -93 127 -189 302 -411 161 -205 236 -308 250 -342 4 -11 34
-52 67 -91 76 -91 116 -156 198 -329 66 -138 68 -141 175 -245 116 -114 184
-200 213 -270 32 -78 42 -93 60 -96 23 -3 47 44 47 94 0 57 -26 136 -76 231
-32 61 -39 81 -26 76 40 -16 214 -55 309 -70 195 -29 281 -17 256 37 -8 19
-32 31 -109 56 -55 18 -133 41 -174 52 l-75 19 55 -4 c277 -23 322 -17 301 37
-10 27 -58 47 -169 68 -27 5 -71 15 -98 22 l-49 12 70 11 c140 20 62 71 -170
111 -167 28 -241 57 -279 107 -45 61 -425 823 -479 962 -88 226 -122 287 -248
438 -69 82 -95 136 -153 314 -117 360 -180 628 -174 734 l3 52 113 -137 c111
-134 160 -181 194 -188 21 -4 21 2 1 49 -20 49 -30 247 -23 456 l5 158 36 -48
c48 -63 73 -116 89 -183 7 -30 17 -66 22 -79 8 -23 9 -23 28 -6 20 18 44 82
55 147 15 90 -33 228 -111 324 -24 30 -44 56 -44 58 0 3 20 -4 45 -15 24 -11
80 -25 123 -31 71 -10 82 -10 118 8 55 27 56 49 1 63 -87 21 -188 140 -276
321 -22 47 -35 78 -28 69 91 -115 111 -139 115 -135 9 10 -31 215 -59 301 -17
50 -50 132 -75 184 -24 51 -44 96 -44 98 0 17 112 -62 158 -112 50 -53 122
-175 122 -205 0 -6 5 -8 10 -5 15 10 12 121 -6 194 -33 132 -97 219 -241 327
-118 89 -167 169 -193 315 -42 235 -109 383 -249 548 -119 139 -387 312 -576
371 -81 25 -195 34 -243 19z m-2482 -288 c47 -27 151 -73 233 -101 117 -42
146 -56 143 -69 -3 -9 -12 -54 -21 -101 -27 -136 -59 -258 -140 -525 -119
-393 -227 -831 -259 -1056 -49 -333 12 -456 252 -506 94 -19 358 -13 467 10
80 18 223 69 260 93 14 9 25 14 25 12 0 -3 -11 -42 -25 -87 -52 -175 -68 -381
-40 -529 14 -73 14 -88 -2 -183 -15 -87 -18 -175 -19 -544 -1 -472 -4 -518
-65 -765 -11 -47 -23 -115 -26 -151 -7 -79 7 -107 73 -145 23 -14 48 -31 54
-39 6 -8 14 -58 16 -112 2 -54 6 -110 9 -125 2 -15 1 -28 -4 -30 -13 -5 -90
-153 -110 -210 -10 -29 -68 -147 -128 -263 -338 -646 -462 -963 -664 -1705
-62 -230 -71 -282 -66 -395 3 -89 8 -110 44 -195 51 -120 149 -417 253 -770
119 -403 237 -871 224 -892 -11 -17 -6 -91 12 -203 27 -165 41 -238 55 -271
22 -56 -30 -226 -138 -454 -46 -95 -66 -125 -122 -180 -63 -63 -70 -67 -156
-90 -105 -27 -149 -61 -161 -125 l-7 -38 -91 6 c-50 4 -106 9 -124 13 l-32 7
5 2926 c3 1609 6 3048 8 3197 1 191 -1 275 -9 285 -14 16 -41 3492 -30 3749
15 329 55 510 131 586 37 37 77 31 175 -25z"/>
</g>
</svg>
