<?xml version="1.0" standalone="no"?>
<!DOCTYPE svg PUBLIC "-//W3C//DTD SVG 20010904//EN"
 "http://www.w3.org/TR/2001/REC-SVG-20010904/DTD/svg10.dtd">
<svg version="1.0" xmlns="http://www.w3.org/2000/svg"
 width="1024.000000pt" height="1536.000000pt" viewBox="0 0 1024.000000 1536.000000"
 preserveAspectRatio="xMidYMid meet">
<metadata>
Created by potrace 1.16, written by Peter Selinger 2001-2019
</metadata>
<g transform="translate(0.000000,1536.000000) scale(0.100000,-0.100000)"
fill="#000000" stroke="none">
<path d="M5105 13813 c-200 -23 -280 -42 -433 -98 -306 -115 -423 -234 -423
-435 0 -112 16 -163 71 -227 16 -17 31 -45 35 -62 10 -48 -12 -141 -49 -201
-53 -85 -79 -172 -66 -219 11 -43 45 -91 64 -91 7 0 20 -6 30 -13 17 -13 17
-15 2 -45 -19 -38 -20 -71 -1 -95 8 -11 11 -32 9 -50 -4 -26 1 -38 25 -64 18
-19 31 -43 31 -58 0 -14 11 -47 25 -74 19 -38 33 -52 65 -65 22 -9 54 -16 70
-16 17 0 30 -5 30 -10 0 -6 11 -15 24 -22 20 -9 32 -7 66 11 48 25 99 27 140
6 34 -17 88 -105 154 -246 l44 -96 -73 -5 c-80 -5 -160 -37 -275 -110 -111
-71 -127 -90 -210 -263 -43 -88 -103 -202 -133 -253 l-56 -94 -25 50 c-64 126
-198 490 -221 598 -13 64 -11 101 22 341 4 30 1 50 -11 67 -16 25 -15 25 40
53 67 33 121 92 130 142 18 92 -59 225 -167 289 -45 27 -88 28 -137 3 -65 -32
-86 -33 -112 -6 -34 36 -86 31 -129 -13 -11 -10 -29 -13 -65 -9 -65 6 -102
-12 -152 -75 -28 -37 -43 -48 -65 -48 -36 0 -76 -40 -118 -119 -18 -34 -59
-92 -91 -128 -32 -36 -72 -92 -89 -123 -37 -70 -43 -74 -108 -90 -133 -31
-207 -158 -139 -237 21 -24 31 -28 73 -27 63 2 189 54 253 105 l49 39 40 -82
c22 -46 47 -112 55 -148 19 -84 29 -389 31 -940 1 -394 3 -447 23 -560 25
-150 63 -303 90 -362 73 -166 226 -192 467 -79 72 34 217 134 286 198 l27 25
11 -34 c19 -58 111 -713 111 -791 0 -18 -9 -67 -19 -108 -49 -185 -66 -308
-77 -564 -6 -135 -9 -157 -35 -217 -32 -73 -35 -105 -17 -171 10 -40 9 -46
-16 -83 -16 -24 -31 -66 -37 -102 -7 -48 -22 -81 -65 -148 -141 -218 -389
-692 -502 -959 -96 -225 -254 -679 -331 -950 -82 -287 -96 -367 -96 -550 1
-152 3 -167 37 -300 46 -174 72 -347 148 -947 32 -260 67 -507 76 -548 9 -41
18 -85 21 -97 3 -13 -4 -34 -18 -54 -34 -48 -39 -160 -10 -231 l21 -53 -20
-80 c-24 -96 -25 -148 -5 -204 14 -42 14 -43 -31 -139 -25 -53 -72 -157 -104
-230 -75 -170 -98 -208 -171 -287 -75 -79 -147 -121 -247 -141 -95 -20 -177
-59 -204 -97 -12 -16 -23 -51 -26 -78 -9 -92 34 -109 309 -130 86 -6 227 -10
315 -7 206 6 228 15 329 150 46 61 184 208 195 208 3 0 6 -49 7 -109 2 -60 7
-121 13 -136 17 -46 67 -59 203 -51 126 6 178 21 197 56 14 26 42 183 65 353
30 232 15 368 -57 537 -41 94 -41 96 -39 204 2 90 -1 119 -19 166 l-21 57 20
79 20 80 -20 85 c-23 95 -26 219 -9 369 6 51 17 147 24 214 8 66 17 175 21
241 12 200 -25 562 -76 750 -12 44 -28 105 -36 135 -12 44 -13 61 -4 87 7 19
10 51 6 76 -6 37 -3 50 23 90 16 26 32 65 36 88 4 22 16 59 27 81 11 22 18 49
16 60 -4 12 5 31 22 51 15 18 55 73 88 122 86 128 281 388 468 623 88 110 161
200 162 199 3 -3 72 -499 103 -742 92 -709 134 -848 316 -1045 138 -149 228
-273 417 -571 310 -492 487 -836 487 -951 0 -62 13 -93 60 -144 46 -50 47 -55
53 -197 5 -99 7 -111 33 -149 55 -79 57 -83 40 -141 -24 -89 -114 -333 -142
-389 -36 -71 -105 -168 -147 -205 -18 -16 -65 -42 -103 -57 -226 -92 -274
-139 -245 -238 22 -73 99 -90 491 -104 205 -7 324 3 367 32 26 17 109 138 143
209 l25 50 7 -48 c12 -88 49 -107 206 -107 137 0 218 15 238 45 25 38 60 401
51 537 -10 169 -29 225 -147 442 -32 60 -43 92 -45 131 -3 66 -10 88 -51 156
-28 46 -34 67 -34 112 0 71 -10 97 -59 150 -44 48 -51 70 -141 432 -93 372
-196 633 -355 895 -120 197 -263 391 -325 440 -21 16 -41 42 -45 57 -3 16 -23
57 -44 93 -21 36 -49 95 -62 131 -23 66 -23 67 -5 107 14 31 17 53 12 94 -7
55 6 178 49 448 43 276 86 591 105 775 16 156 22 186 45 227 20 35 26 59 24
92 -2 36 4 55 39 112 86 143 136 299 148 459 10 118 -33 407 -75 518 -7 18 -7
36 -1 53 17 43 12 63 -39 173 -54 117 -86 204 -156 421 -25 80 -68 195 -96
255 l-49 110 17 68 18 68 -30 57 c-46 88 -37 155 55 397 39 105 94 262 122
350 28 88 66 195 86 237 l36 77 30 -16 c68 -35 202 -26 240 16 16 17 15 18 -8
14 -18 -4 -35 4 -66 33 -43 41 -59 88 -46 139 l6 25 30 -21 c35 -27 114 -36
164 -19 37 12 96 55 96 70 0 5 -16 18 -35 30 -34 21 -65 65 -65 91 0 6 20 -7
45 -30 49 -45 75 -51 103 -23 10 10 24 16 30 14 24 -8 11 5 -35 37 -79 54 -88
72 -88 176 1 88 2 92 43 160 50 83 80 171 92 276 15 131 -8 229 -79 334 -18
27 -20 40 -14 155 8 162 -11 260 -72 385 -56 114 -106 181 -239 324 -181 193
-228 278 -282 515 -49 212 -71 287 -114 386 -114 265 -326 432 -593 469 -73
10 -273 13 -342 4z m1551 -1980 c25 -59 65 -196 62 -213 -5 -22 -42 46 -56
100 -6 25 -14 62 -17 83 -3 21 -9 45 -12 53 -12 32 8 11 23 -23z m80 -563 c17
-115 12 -185 -17 -265 l-19 -50 6 58 c3 32 5 128 5 213 0 86 2 154 5 152 2 -3
11 -51 20 -108z m-2877 -627 c34 -152 52 -277 37 -262 -9 9 -45 156 -51 209
-3 30 -8 65 -11 78 -9 44 14 21 25 -25z"/>
</g>
</svg>
