<?xml version="1.0" standalone="no"?>
<!DOCTYPE svg PUBLIC "-//W3C//DTD SVG 20010904//EN"
 "http://www.w3.org/TR/2001/REC-SVG-20010904/DTD/svg10.dtd">
<svg version="1.0" xmlns="http://www.w3.org/2000/svg"
 width="1024.000000pt" height="1536.000000pt" viewBox="0 0 1024.000000 1536.000000"
 preserveAspectRatio="xMidYMid meet">
<metadata>
Created by potrace 1.16, written by Peter Selinger 2001-2019
</metadata>
<g transform="translate(0.000000,1536.000000) scale(0.100000,-0.100000)"
fill="#000000" stroke="none">
<path d="M2100 14015 c-22 -26 -10 -104 56 -370 12 -49 20 -92 18 -94 -11 -11
-83 75 -165 197 -114 168 -155 212 -197 212 -28 0 -32 -4 -32 -25 0 -47 80
-177 229 -370 127 -166 63 -134 -213 105 -89 77 -146 91 -146 36 0 -46 80
-133 210 -229 41 -30 86 -66 99 -81 l24 -26 -45 0 c-25 0 -90 12 -144 26 -122
33 -150 38 -169 30 -14 -5 -14 -9 -1 -35 27 -52 149 -116 268 -140 66 -14 78
-26 167 -166 32 -49 94 -131 138 -182 87 -99 85 -96 196 -348 224 -507 370
-785 602 -1140 88 -133 152 -246 312 -540 33 -60 75 -134 93 -163 31 -50 35
-62 40 -160 9 -141 29 -181 164 -321 113 -118 146 -162 200 -268 56 -113 83
-206 106 -368 27 -192 63 -418 91 -570 32 -171 32 -468 1 -640 -22 -121 -121
-537 -182 -762 -28 -102 -31 -127 -22 -148 8 -17 20 -25 37 -25 14 0 25 -3 25
-6 0 -4 -22 -91 -50 -193 -126 -470 -134 -565 -135 -1551 0 -799 -2 -830 -50
-1037 -9 -37 -20 -129 -25 -203 -5 -74 -18 -196 -30 -270 -49 -315 -116 -704
-195 -1135 -156 -856 -215 -1190 -215 -1212 0 -35 26 -53 80 -53 27 0 52 -4
55 -10 3 -5 -10 -43 -29 -85 -61 -132 -137 -247 -222 -335 -125 -132 -154
-213 -99 -279 42 -49 103 -66 235 -66 168 0 272 40 415 160 44 37 100 77 125
88 114 51 158 103 180 211 7 32 10 92 8 134 -2 59 0 76 12 82 105 49 109 53
124 94 8 22 27 140 41 261 50 416 147 1181 205 1600 10 77 22 172 26 210 3 39
13 77 20 86 8 9 21 51 30 95 9 43 31 135 49 204 104 382 419 1669 485 1980 40
184 51 222 66 208 3 -4 14 -48 24 -100 20 -101 74 -334 170 -743 88 -377 191
-834 249 -1110 28 -132 69 -294 92 -360 34 -100 42 -140 49 -240 5 -66 31
-289 59 -495 27 -206 77 -598 111 -870 34 -272 69 -561 80 -643 10 -81 24
-154 31 -163 7 -8 28 -22 46 -29 33 -14 34 -16 28 -57 -9 -61 12 -243 33 -292
29 -64 87 -109 180 -140 44 -15 98 -41 119 -58 75 -61 158 -109 222 -129 137
-43 373 -18 437 46 64 64 29 161 -101 275 -54 48 -199 238 -246 324 -38 67
-37 86 1 86 43 0 97 29 110 59 8 21 3 72 -24 241 -64 396 -84 532 -161 1070
-124 879 -135 951 -154 1060 -11 58 -22 146 -25 195 -4 50 -17 155 -31 235
-46 275 -50 352 -36 646 30 642 24 1179 -15 1497 -24 198 -74 444 -130 643 -4
15 1 23 21 32 58 27 57 34 -58 547 -105 465 -110 498 -110 710 0 173 2 191 51
455 28 151 60 344 71 428 27 197 42 255 101 379 55 117 79 153 196 299 138
173 162 227 142 316 -9 39 -8 59 6 110 10 35 25 72 35 83 10 11 64 108 121
215 102 193 176 317 343 582 48 75 124 204 169 285 84 153 346 682 437 883 28
63 68 136 89 162 20 25 67 84 103 130 37 46 83 110 102 143 50 84 70 100 166
124 105 26 180 62 232 113 41 40 46 60 16 66 -9 2 -74 -13 -144 -32 -124 -35
-223 -46 -223 -26 0 5 28 31 61 57 130 102 197 163 228 210 37 56 37 87 1 91
-34 4 -84 -31 -211 -146 -106 -96 -179 -145 -179 -119 0 18 37 94 70 142 15
22 55 93 89 158 49 94 61 127 59 155 -7 83 -64 42 -154 -111 -89 -151 -165
-267 -174 -267 -9 0 0 50 34 185 41 161 52 239 38 270 -10 21 -17 25 -35 19
-56 -17 -96 -106 -128 -282 -15 -82 -30 -134 -52 -175 -28 -53 -71 -97 -94
-97 -19 0 -52 47 -79 110 -54 127 -107 184 -164 178 -37 -4 -36 -30 10 -153
22 -60 50 -154 61 -210 11 -55 29 -131 41 -168 28 -92 21 -132 -46 -265 -107
-213 -220 -385 -429 -654 -159 -205 -205 -275 -244 -370 -146 -361 -543 -858
-968 -1214 -110 -91 -200 -149 -264 -168 -69 -20 -63 -21 -100 16 -39 40 -27
63 29 54 26 -4 46 1 77 18 23 14 43 20 45 15 5 -15 92 51 118 89 24 34 24 34
33 10 8 -23 8 -23 42 14 33 35 54 88 56 138 l1 25 12 -28 12 -28 14 40 c8 25
11 61 7 98 l-6 58 20 -25 21 -25 -5 36 c-3 19 -13 53 -23 75 -10 21 -20 44
-22 49 -3 6 4 3 14 -6 10 -9 33 -19 51 -21 29 -4 34 -1 43 26 9 26 6 36 -25
83 -20 30 -52 72 -73 95 l-37 40 50 -31 c27 -17 60 -31 74 -31 23 0 24 0 6 20
-20 22 -14 40 8 22 7 -6 28 -14 47 -17 l34 -6 -65 68 c-36 37 -76 87 -87 110
-32 61 -68 195 -81 298 -22 169 -48 242 -123 342 -74 101 -178 167 -353 223
-259 83 -451 81 -618 -7 -140 -74 -256 -229 -312 -418 -60 -203 -125 -319
-216 -382 -79 -56 -79 -55 -26 -50 26 3 47 3 45 2 -2 -2 -23 -19 -46 -39 -34
-28 -40 -37 -28 -42 18 -7 83 -1 109 11 12 5 -3 -32 -48 -119 -64 -124 -81
-186 -51 -186 8 0 28 16 44 36 l29 35 -12 -48 c-7 -26 -11 -52 -8 -56 3 -4 20
6 39 23 36 31 50 38 38 18 -10 -16 -33 -127 -34 -162 0 -36 77 -117 91 -95 6
11 13 8 32 -9 l25 -23 9 28 c10 26 11 25 22 -32 7 -33 18 -75 24 -92 14 -43
109 -132 147 -140 17 -3 33 -10 36 -14 3 -5 20 -9 38 -9 18 0 41 -6 51 -14 18
-13 18 -14 -8 -40 -14 -14 -36 -26 -47 -26 -53 0 -191 93 -389 264 -306 263
-577 559 -744 811 -33 50 -95 162 -137 250 -79 161 -107 204 -310 471 -190
249 -279 388 -367 569 -55 114 -58 124 -58 195 0 52 7 93 22 135 12 33 30 101
39 150 9 50 34 139 56 198 53 151 51 179 -15 158 -51 -17 -91 -66 -140 -173
-50 -107 -78 -135 -120 -119 -46 18 -109 121 -122 201 -25 160 -73 300 -117
347 -25 27 -41 29 -58 8z"/>
</g>
</svg>
