<?xml version="1.0" standalone="no"?>
<!DOCTYPE svg PUBLIC "-//W3C//DTD SVG 20010904//EN"
 "http://www.w3.org/TR/2001/REC-SVG-20010904/DTD/svg10.dtd">
<svg version="1.0" xmlns="http://www.w3.org/2000/svg"
 width="1024.000000pt" height="1536.000000pt" viewBox="0 0 1024.000000 1536.000000"
 preserveAspectRatio="xMidYMid meet">
<metadata>
Created by potrace 1.16, written by Peter Selinger 2001-2019
</metadata>
<g transform="translate(0.000000,1536.000000) scale(0.100000,-0.100000)"
fill="#000000" stroke="none">
<path d="M3044 14265 c-12 -9 -32 -12 -56 -8 -30 4 -40 1 -59 -21 -16 -18 -26
-23 -34 -16 -16 13 -63 -4 -71 -24 -4 -11 -14 -13 -35 -9 -34 7 -79 -19 -79
-46 0 -12 -12 -22 -40 -30 -27 -8 -48 -23 -61 -44 -44 -68 -5 -320 80 -519 42
-99 58 -175 81 -388 28 -260 62 -527 86 -670 59 -354 180 -824 313 -1210 45
-129 81 -241 81 -249 0 -7 -22 -40 -50 -73 -28 -33 -50 -63 -50 -68 0 -14 228
-456 307 -595 40 -71 80 -152 88 -179 21 -68 19 -163 -6 -324 -28 -182 -23
-307 26 -542 41 -201 65 -373 65 -464 0 -175 -113 -645 -229 -950 -22 -60 -41
-121 -41 -137 0 -40 40 -82 115 -120 45 -23 64 -39 62 -49 -168 -595 -200
-788 -228 -1370 -11 -236 -7 -1143 5 -1200 3 -14 9 -151 12 -305 4 -180 12
-333 24 -430 63 -499 93 -1087 70 -1390 -15 -206 -62 -522 -96 -650 -40 -153
-40 -152 -10 -184 15 -16 45 -36 66 -46 l38 -17 -84 -108 c-126 -161 -176
-203 -348 -289 -155 -77 -229 -133 -241 -184 -25 -99 88 -175 278 -185 140 -7
222 9 490 99 130 43 245 79 254 79 9 0 25 -7 35 -17 23 -21 59 -19 160 7 99
25 123 46 145 120 18 60 24 232 10 332 l-7 58 37 19 c56 29 65 51 74 185 21
309 38 1468 24 1606 -20 196 -59 463 -74 510 -15 46 -17 65 -8 112 9 50 7 64
-12 118 -22 59 -22 65 -11 218 25 347 55 483 256 1180 81 279 159 554 175 611
28 102 39 130 39 98 0 -49 195 -514 345 -822 269 -552 302 -629 445 -1030 96
-268 114 -306 209 -440 248 -352 333 -493 493 -823 145 -299 197 -429 304
-760 156 -483 205 -625 230 -668 28 -50 80 -74 158 -74 l54 0 7 -93 c8 -108
-7 -241 -33 -300 -11 -23 -40 -70 -66 -103 -93 -123 -110 -206 -56 -268 42
-48 112 -69 220 -69 229 2 426 145 502 366 13 37 28 67 34 67 19 0 63 54 89
113 56 122 44 242 -42 436 l-46 104 26 19 c15 11 38 39 52 62 31 53 34 44
-108 336 -139 285 -231 490 -316 701 -237 593 -287 681 -677 1189 -129 167
-138 183 -130 230 7 45 -4 71 -65 160 -73 103 -101 240 -174 830 -71 576 -122
890 -181 1125 -27 106 -143 518 -162 578 l-19 57 41 18 c75 34 76 38 31 170
-22 63 -41 119 -43 123 -2 4 68 58 155 120 422 301 598 452 654 562 18 35 19
41 4 104 -21 88 -90 324 -176 602 -71 227 -72 231 -34 244 5 2 -5 39 -22 83
-17 43 -70 185 -117 315 -113 311 -191 503 -228 562 -43 68 -118 131 -210 177
-44 22 -86 40 -94 40 -24 0 -24 17 0 61 44 79 59 154 52 249 -4 67 -3 81 6 65
19 -33 22 -220 5 -295 -16 -67 -15 -80 7 -80 21 0 92 82 120 139 70 138 75
337 12 459 -27 53 -12 49 34 -9 54 -68 89 -138 110 -219 l17 -65 8 59 c24 183
-22 306 -171 453 l-93 91 57 -20 c71 -25 177 -21 236 9 l38 20 -41 1 c-51 2
-182 52 -243 92 -147 97 -181 155 -209 352 -32 218 -79 321 -210 462 -154 165
-354 246 -609 246 -246 0 -424 -72 -578 -234 -86 -90 -152 -218 -181 -346 -13
-63 -30 -104 -64 -158 -73 -118 -100 -193 -101 -287 -1 -88 18 -140 74 -200
49 -53 51 -64 44 -220 l-7 -146 -25 23 c-37 35 -79 104 -98 163 -10 34 -35 75
-66 112 -61 71 -137 226 -246 503 -80 204 -86 226 -146 536 -14 73 -60 251
-102 395 -114 397 -174 677 -174 807 0 68 3 80 44 155 76 140 93 239 61 360
-38 148 -119 229 -181 182z m2389 -2149 c42 -73 73 -148 86 -207 15 -65 -10
-42 -35 33 -12 36 -40 104 -62 152 -22 47 -37 86 -33 86 3 0 23 -29 44 -64z
m-1355 -1013 c1 -43 5 -90 8 -105 6 -31 -6 -37 -26 -13 -9 11 -11 36 -6 91 6
63 13 104 20 104 0 0 2 -35 4 -77z m196 -187 c104 -74 116 -103 25 -63 -92 41
-150 105 -149 164 1 13 9 8 31 -19 17 -20 58 -57 93 -82z m880 -164 c9 -26 28
-64 41 -85 14 -20 22 -37 17 -37 -11 0 -57 49 -71 77 -10 20 -16 93 -7 93 3 0
12 -21 20 -48z m306 -78 c0 -8 7 -28 15 -44 16 -32 11 -36 -28 -21 -23 9 -24
12 -14 50 10 38 27 47 27 15z m128 -1501 c17 -33 45 -71 62 -84 17 -13 42 -33
56 -44 14 -11 72 -114 133 -234 l109 -213 -130 -146 c-72 -81 -156 -177 -186
-215 -65 -80 -51 -89 -128 89 -123 289 -161 413 -150 487 10 58 42 149 91 257
24 52 51 120 60 150 9 30 19 62 22 70 3 10 10 3 18 -20 7 -19 26 -63 43 -97z"/>
</g>
</svg>
