<?xml version="1.0" standalone="no"?>
<!DOCTYPE svg PUBLIC "-//W3C//DTD SVG 20010904//EN"
 "http://www.w3.org/TR/2001/REC-SVG-20010904/DTD/svg10.dtd">
<svg version="1.0" xmlns="http://www.w3.org/2000/svg"
 width="1024.000000pt" height="1024.000000pt" viewBox="0 0 1024.000000 1024.000000"
 preserveAspectRatio="xMidYMid meet">
<metadata>
Created by potrace 1.16, written by Peter Selinger 2001-2019
</metadata>
<g transform="translate(0.000000,1024.000000) scale(0.100000,-0.100000)"
fill="#000000" stroke="none">
<path d="M5670 8850 c-340 -27 -520 -88 -656 -224 -77 -77 -132 -175 -173
-309 -38 -125 -229 -1116 -327 -1700 l-19 -108 -100 8 c-154 12 -616 9 -755
-5 -737 -75 -1039 -286 -966 -674 25 -135 170 -530 256 -698 11 -22 20 -41 20
-43 0 -3 -47 -28 -104 -56 -172 -84 -244 -172 -254 -312 -8 -119 37 -203 148
-277 169 -113 534 -196 1455 -330 143 -21 259 -42 259 -48 -1 -5 -7 -79 -14
-164 -15 -181 -9 -213 47 -259 48 -40 108 -54 200 -49 127 8 201 60 221 155 6
26 14 87 18 136 4 48 10 87 14 87 9 0 20 -256 20 -461 0 -141 -2 -162 -20
-191 -13 -22 -20 -51 -20 -88 0 -97 -21 -285 -33 -292 -6 -4 -34 -10 -62 -14
-93 -12 -279 -62 -455 -122 -572 -195 -1163 -404 -1247 -442 -126 -57 -173
-117 -173 -223 0 -38 -4 -59 -12 -61 -152 -44 -229 -129 -231 -254 -1 -151
122 -264 286 -264 129 0 239 74 271 183 20 66 20 92 0 160 -12 42 -28 65 -69
105 l-54 51 22 20 c34 31 51 38 207 81 328 91 990 256 998 248 2 -2 -19 -17
-47 -34 -63 -39 -381 -295 -444 -357 -83 -83 -106 -160 -73 -240 l14 -34 -43
-14 c-170 -58 -242 -235 -158 -388 49 -91 153 -149 264 -149 120 0 243 88 275
195 32 112 -7 238 -91 296 -88 62 -82 49 -54 104 23 48 30 52 279 193 401 227
633 353 638 347 3 -2 8 -53 12 -112 8 -137 26 -170 115 -213 72 -35 175 -23
243 27 54 40 64 72 70 220 3 73 8 133 11 133 11 0 404 -202 663 -341 141 -76
288 -154 326 -173 70 -35 112 -78 111 -113 0 -10 -20 -31 -47 -48 -30 -19 -59
-49 -78 -83 -111 -185 25 -410 248 -412 160 -1 291 118 292 265 1 118 -51 197
-162 247 -51 23 -62 32 -57 46 31 78 9 155 -68 229 -54 53 -319 259 -444 346
-40 28 -72 52 -70 53 3 3 387 -97 607 -157 271 -74 424 -126 446 -150 18 -20
18 -21 -25 -57 -141 -117 -113 -347 53 -430 87 -44 197 -46 281 -6 49 23 121
105 134 150 44 159 -37 292 -199 328 -24 5 -25 9 -25 70 0 91 -33 138 -135
188 -175 86 -1448 524 -1665 573 -66 15 -131 30 -145 34 -25 8 -25 8 -36 185
-9 155 -13 180 -32 206 -22 29 -22 36 -22 369 l0 341 23 5 c12 3 137 30 277
60 957 209 1284 333 1449 552 136 181 157 373 97 913 -13 124 -26 268 -28 320
-3 95 -3 95 22 98 14 1 48 7 77 13 89 18 134 91 119 192 -15 98 -67 137 -186
137 -56 0 -70 3 -70 15 0 35 42 421 61 560 31 230 87 589 124 800 107 599 105
778 -12 915 -99 115 -246 169 -558 206 -155 18 -878 27 -1055 14z m-1326
-2595 c60 -8 111 -17 113 -19 3 -2 -1 -48 -8 -101 -18 -150 -7 -402 25 -550
14 -66 37 -156 50 -200 14 -43 23 -81 21 -83 -5 -5 -151 -22 -610 -72 -203
-22 -426 -46 -495 -55 -69 -8 -132 -15 -141 -15 -27 0 -213 467 -254 637 -66
274 139 425 645 473 131 12 522 3 654 -15z m2406 4 c-396 -40 -573 -107 -686
-262 -108 -146 -118 -350 -30 -603 167 -479 246 -728 246 -773 0 -36 -23 14
-70 152 -27 81 -86 234 -129 340 -177 429 -202 573 -135 776 84 252 338 379
759 379 l130 -1 -85 -8z"/>
</g>
</svg>
