<?xml version="1.0" standalone="no"?>
<!DOCTYPE svg PUBLIC "-//W3C//DTD SVG 20010904//EN"
 "http://www.w3.org/TR/2001/REC-SVG-20010904/DTD/svg10.dtd">
<svg version="1.0" xmlns="http://www.w3.org/2000/svg"
 width="1024.000000pt" height="1024.000000pt" viewBox="0 0 1024.000000 1024.000000"
 preserveAspectRatio="xMidYMid meet">
<metadata>
Created by potrace 1.16, written by Peter Selinger 2001-2019
</metadata>
<g transform="translate(0.000000,1024.000000) scale(0.100000,-0.100000)"
fill="#000000" stroke="none">
<path d="M5665 9383 c-52 -7 -184 -43 -238 -64 -78 -31 -209 -122 -268 -187
-28 -31 -64 -84 -79 -117 -47 -100 -50 -185 -4 -100 19 35 43 50 29 18 -5 -10
-10 -65 -12 -123 l-4 -105 23 26 c13 14 28 35 35 45 10 16 12 6 12 -57 1 -41
10 -115 21 -165 26 -116 25 -146 -5 -234 -16 -48 -25 -95 -25 -138 l0 -65 60
-59 c64 -65 66 -68 49 -117 -9 -26 -8 -39 4 -64 9 -18 23 -58 32 -90 14 -52
20 -60 52 -74 32 -13 50 -13 136 -2 l100 13 23 -27 c58 -68 40 -154 -49 -242
-74 -71 -140 -108 -306 -169 -151 -56 -197 -82 -251 -143 -62 -71 -80 -106
-183 -358 -101 -247 -322 -753 -392 -900 -32 -68 -64 -114 -128 -185 -47 -52
-99 -105 -117 -118 -33 -25 -145 -169 -154 -200 -12 -38 -48 -43 -306 -42
-265 0 -381 -10 -433 -36 -124 -63 -150 -173 -102 -438 14 -82 22 -152 18
-157 -4 -4 -66 -22 -138 -39 -280 -69 -341 -100 -384 -199 -33 -78 -39 -138
-66 -696 -31 -644 -57 -1025 -87 -1268 -21 -178 -21 -178 -1 -205 11 -15 44
-37 74 -49 60 -23 79 -48 79 -103 0 -106 -203 -386 -375 -517 -82 -62 -143
-89 -260 -113 -175 -36 -219 -55 -290 -124 -62 -61 -95 -125 -82 -159 5 -15
74 -41 202 -79 72 -21 100 -23 280 -23 222 0 281 9 471 70 114 37 232 53 300
41 l38 -8 -75 -48 c-42 -26 -85 -60 -97 -75 -30 -38 -30 -107 -1 -136 57 -57
210 -89 428 -89 263 0 459 53 541 146 l32 37 122 1 c109 1 125 3 159 24 61 38
90 85 95 150 2 32 -8 157 -22 280 -14 122 -26 233 -26 246 0 27 -28 20 375 95
143 27 287 52 319 55 l60 7 -123 -83 c-231 -154 -310 -249 -317 -377 -3 -51
-11 -83 -33 -124 -16 -31 -35 -82 -41 -113 -30 -145 54 -264 187 -264 173 0
238 187 135 390 -44 85 -43 112 5 162 76 80 611 398 670 398 19 0 20 -8 25
-125 7 -143 17 -168 75 -184 49 -14 137 -14 186 0 60 16 74 49 82 198 4 69 9
129 11 133 7 10 201 -76 529 -234 409 -197 445 -219 445 -260 0 -10 -17 -42
-39 -71 -54 -73 -72 -111 -78 -172 -6 -60 9 -115 44 -163 74 -99 262 -105 350
-10 86 92 65 266 -43 354 -44 36 -44 37 -44 103 0 79 -22 131 -75 182 -39 38
-176 124 -327 204 -49 26 -88 48 -88 49 0 4 397 -89 535 -125 241 -63 252 -75
195 -219 -35 -90 -39 -163 -11 -218 39 -75 104 -112 197 -112 134 0 220 112
192 246 -11 51 -75 124 -135 156 -32 17 -33 18 -33 85 0 131 -43 165 -321 257
-190 64 -922 284 -1145 346 l-151 42 -6 121 c-4 75 -14 150 -26 195 -15 55
-21 109 -23 210 l-2 137 64 6 c36 4 164 10 285 14 236 7 287 15 323 48 48 44
23 88 -65 117 -83 27 -113 56 -113 110 0 49 38 96 88 109 48 13 183 35 416 67
209 29 334 59 399 97 111 65 183 163 207 282 18 86 8 224 -51 683 -55 432 -69
646 -50 758 13 74 29 139 207 864 63 256 122 517 131 580 20 144 10 256 -46
522 -52 240 -75 399 -67 462 4 28 25 113 47 190 60 201 46 272 -59 313 -65 25
-280 23 -557 -6 -313 -31 -292 -27 -299 -61 -8 -40 -42 -91 -120 -180 -114
-130 -126 -179 -71 -299 58 -123 173 -215 433 -344 166 -82 230 -133 271 -216
39 -76 52 -148 50 -262 -3 -202 -50 -443 -214 -1099 -67 -272 -126 -513 -130
-535 -3 -22 -13 -50 -21 -62 -17 -27 -62 -31 -71 -6 -4 9 20 98 55 202 111
336 250 876 296 1151 42 254 45 478 9 562 -25 56 -81 104 -163 140 -297 134
-396 188 -484 268 -37 35 -67 75 -91 122 -30 61 -35 80 -35 142 0 147 49 258
149 340 89 73 103 104 112 236 3 58 16 148 28 200 41 172 26 360 -37 485 -33
67 -132 167 -198 202 -41 21 -49 29 -36 34 26 10 -73 53 -192 83 -85 23 -117
26 -240 25 -77 -1 -154 -4 -171 -6z m595 -1730 c0 -7 -49 -76 -108 -155 -209
-276 -339 -472 -452 -681 -36 -68 -55 -95 -61 -85 -4 7 -6 22 -3 33 2 11 8
103 13 205 l8 185 38 63 c39 64 54 70 93 39 7 -5 15 -8 17 -5 11 11 -9 39 -52
74 -38 31 -54 38 -91 38 -40 1 -48 -3 -75 -37 -26 -32 -31 -45 -28 -80 9 -112
6 -130 -58 -292 -35 -88 -86 -226 -114 -307 -28 -82 -52 -146 -54 -144 -5 5
56 390 84 521 45 217 99 355 159 406 42 37 127 71 235 94 264 58 325 78 392
129 40 31 56 31 57 -1z m-1760 -2338 c27 -14 60 -51 60 -67 0 -15 -29 -8 -76
17 -59 31 -77 31 -139 -3 -39 -21 -58 -41 -87 -92 -21 -36 -44 -85 -51 -109
-15 -56 -37 -66 -37 -18 0 95 71 213 155 259 57 32 129 37 175 13z m504 -89
c13 -29 30 -73 36 -97 7 -24 32 -97 57 -162 24 -65 43 -120 41 -121 -1 -2 -18
1 -36 6 -64 17 -136 159 -164 324 -13 79 -8 104 21 104 15 0 27 -15 45 -54z
m-1021 -142 c32 -6 37 -10 37 -33 0 -14 14 -64 30 -111 16 -46 28 -85 26 -87
-6 -6 -568 -74 -573 -69 -8 8 19 270 28 280 17 19 364 34 452 20z m2572 -74
c106 -15 149 -36 153 -75 4 -30 59 -313 106 -543 14 -67 34 -170 45 -228 17
-95 17 -104 2 -100 -9 3 -77 24 -151 47 -74 23 -136 42 -138 44 -2 1 17 14 42
29 65 38 99 86 104 149 2 29 -8 124 -22 212 -14 88 -30 198 -36 245 -16 118
-30 146 -77 159 -51 14 -482 21 -606 11 -177 -15 -256 -58 -273 -146 -12 -63
4 -212 41 -389 56 -263 85 -418 84 -440 -2 -39 -77 212 -113 378 -58 266 -72
376 -56 453 15 73 74 138 141 158 44 14 207 39 314 50 68 7 356 -2 440 -14z
m-2234 -226 c-21 -27 -28 -64 -12 -64 5 0 11 -9 14 -20 4 -15 0 -20 -13 -20
-39 0 -42 79 -4 117 32 32 43 23 15 -13z m-812 -965 c118 -33 121 -35 121
-127 0 -47 6 -95 17 -124 16 -45 16 -60 -5 -300 -23 -259 -75 -692 -114 -943
-12 -77 -21 -159 -21 -183 0 -53 26 -91 74 -107 47 -16 48 -43 5 -129 -19 -39
-46 -96 -59 -126 -38 -89 -220 -290 -262 -290 -3 0 -5 68 -5 151 0 145 -1 154
-35 255 -42 124 -47 208 -16 264 11 19 27 49 35 67 16 32 37 185 56 398 6 66
24 228 41 360 35 279 69 657 69 766 0 69 4 89 19 89 2 0 39 -9 80 -21z m1020
-277 c44 -146 110 -206 324 -292 255 -102 267 -108 287 -155 23 -55 70 -77
173 -83 l77 -5 0 -81 c0 -44 -8 -110 -16 -146 -9 -37 -19 -135 -23 -230 l-6
-164 -35 -10 c-19 -5 -150 -45 -290 -89 -494 -154 -775 -235 -784 -226 -6 6
71 483 99 610 75 343 165 838 165 908 0 17 2 31 4 31 2 0 13 -30 25 -68z"/>
</g>
</svg>
