<?xml version="1.0" standalone="no"?>
<!DOCTYPE svg PUBLIC "-//W3C//DTD SVG 20010904//EN"
 "http://www.w3.org/TR/2001/REC-SVG-20010904/DTD/svg10.dtd">
<svg version="1.0" xmlns="http://www.w3.org/2000/svg"
 width="1024.000000pt" height="1024.000000pt" viewBox="0 0 1024.000000 1024.000000"
 preserveAspectRatio="xMidYMid meet">
<metadata>
Created by potrace 1.16, written by Peter Selinger 2001-2019
</metadata>
<g transform="translate(0.000000,1024.000000) scale(0.100000,-0.100000)"
fill="#000000" stroke="none">
<path d="M3733 8690 c-70 -42 -66 31 -66 -1130 0 -1126 -2 -1076 49 -1121 43
-37 73 -39 706 -39 l619 0 -2 -150 -3 -150 -862 0 c-681 0 -863 3 -867 13 -4
10 -6 10 -6 0 -1 -7 -13 -13 -27 -13 -24 0 -23 3 27 48 29 26 57 46 62 44 5
-1 6 2 2 8 -3 5 -1 10 4 10 7 0 11 35 11 95 l0 96 -117 -95 c-207 -165 -325
-243 -311 -207 2 5 50 43 108 84 58 41 154 115 213 163 l109 89 1 97 c1 63 -1
94 -8 89 -5 -5 -55 -44 -110 -88 -121 -96 -226 -173 -237 -173 -23 0 7 28 158
146 92 71 172 134 180 140 8 7 14 44 16 115 l3 104 -120 -96 c-185 -148 -428
-310 -442 -295 -13 13 11 35 98 91 95 60 271 183 389 272 l65 48 3 72 c4 109
-11 117 -253 127 -567 24 -901 36 -1036 36 l-155 0 -185 -108 c-395 -231 -429
-254 -429 -292 0 -17 6 -20 38 -20 21 0 297 -14 613 -31 316 -17 612 -29 659
-27 74 4 96 9 171 45 111 52 244 136 406 256 124 92 153 109 153 88 0 -23
-342 -273 -489 -357 -145 -83 -186 -89 -465 -75 -429 22 -930 51 -1010 57 -72
6 -79 5 -73 -10 4 -10 7 -37 7 -61 0 -42 2 -44 33 -49 17 -3 187 -12 377 -21
615 -27 974 -46 982 -51 13 -8 9 -31 -5 -37 -7 -3 -136 1 -287 9 -814 41
-1067 55 -1084 61 -15 4 -18 2 -13 -12 4 -9 7 -45 7 -80 l0 -63 178 -7 c283
-11 336 -17 340 -38 4 -18 -4 -19 -150 -12 -84 4 -201 10 -260 14 l-108 6 0
-91 0 -91 68 -1 c123 -3 326 -13 380 -18 38 -4 52 -10 52 -21 0 -14 -19 -15
-167 -9 -93 3 -206 9 -253 12 l-85 6 3 -90 3 -90 72 -6 c40 -3 153 -9 252 -13
150 -7 180 -11 180 -23 0 -13 -23 -15 -165 -11 -91 1 -204 6 -253 10 l-87 7
-1 -56 c-1 -30 -4 -65 -7 -77 -4 -12 -137 -190 -297 -395 -159 -205 -298 -389
-307 -408 -13 -24 -18 -57 -18 -113 0 -83 15 -128 49 -147 11 -5 85 -10 165
-10 l146 0 0 -1255 0 -1255 -96 -228 c-53 -125 -113 -268 -134 -318 -54 -129
-58 -153 -26 -191 18 -22 42 -35 77 -43 68 -16 199 -9 233 13 19 13 82 129
221 407 l195 390 0 1240 0 1240 1218 0 1219 0 6 98 c12 171 50 275 139 368 60
64 125 104 167 104 17 0 31 -2 31 -5 0 -2 -33 -37 -73 -77 -84 -84 -120 -146
-147 -254 -19 -74 -20 -94 -10 -458 25 -969 34 -1184 55 -1251 l13 -45 -31
-16 c-45 -23 -85 -63 -110 -109 -19 -35 -22 -56 -22 -175 0 -163 13 -194 94
-229 48 -20 63 -21 500 -21 l451 0 0 -354 0 -354 -27 -6 c-50 -10 -463 -84
-678 -121 -255 -44 -283 -51 -314 -78 -44 -41 -51 -74 -51 -255 0 -159 1 -171
23 -202 37 -57 80 -75 172 -75 92 0 138 18 176 68 20 27 25 46 27 123 l4 91
56 7 c32 4 177 27 325 51 147 25 272 45 277 45 6 0 10 -64 10 -162 0 -137 3
-170 19 -204 47 -104 175 -134 275 -64 66 45 76 79 76 270 0 146 2 160 18 160
9 0 134 -20 277 -45 143 -24 283 -48 310 -52 l50 -8 5 -85 c4 -49 13 -98 22
-115 37 -69 173 -105 263 -70 72 27 95 66 102 172 2 48 1 137 -5 196 -9 103
-11 110 -42 141 -39 42 -49 44 -390 107 -433 79 -599 109 -605 109 -3 0 -5
160 -5 355 l0 355 449 0 c307 0 459 4 482 11 47 16 97 66 109 109 15 54 12
210 -5 266 -18 57 -52 100 -112 139 -24 15 -43 31 -43 35 0 4 7 27 15 50 12
33 18 157 30 574 20 725 20 1085 -1 1157 -26 88 -72 164 -139 228 -35 34 -59
63 -55 66 19 12 93 -15 135 -50 57 -47 99 -107 132 -192 22 -57 27 -89 31
-195 l4 -128 933 0 933 0 7 -31 c4 -17 6 -587 4 -1267 l-4 -1237 147 -348 c80
-191 153 -359 162 -372 9 -13 33 -29 53 -34 49 -14 177 -14 225 -1 50 14 81
55 73 96 -3 18 -62 171 -130 341 l-125 310 0 1272 0 1271 123 0 c143 0 177 13
197 76 15 45 8 130 -15 174 -9 17 -118 165 -243 328 -485 636 -532 699 -579
757 -84 105 46 95 -1285 95 l-1168 0 0 150 0 149 613 3 c591 3 613 4 646 23
19 11 43 33 55 48 l21 28 0 1059 c0 1049 0 1059 -20 1086 -11 15 -36 35 -55
45 -33 18 -97 19 -1640 19 -1574 0 -1606 0 -1637 -20z m3127 -1055 l0 -845
-1480 0 -1480 0 0 845 0 845 1480 0 1480 0 0 -845z m-4271 -1416 c154 -28 228
-68 250 -136 12 -37 17 -41 65 -52 155 -35 278 -172 293 -324 17 -189 -98
-359 -288 -427 -51 -17 -54 -21 -61 -59 -9 -55 -35 -96 -78 -126 -97 -67 -220
-96 -405 -96 -202 -1 -372 44 -430 113 -45 53 -47 78 -43 523 3 368 5 424 20
450 44 81 143 125 328 145 85 10 266 4 349 -11z m2782 -343 c1164 -1 1419 -4
1432 -15 9 -7 87 -123 172 -258 173 -270 178 -284 115 -316 -33 -17 -126 -17
-1740 -16 -938 0 -1727 4 -1754 9 -93 14 -111 77 -50 170 146 219 297 429 312
434 9 2 35 2 57 -1 22 -4 677 -7 1456 -7z m2400 -101 c144 -38 283 -136 334
-238 34 -69 35 -159 2 -208 -54 -80 -176 -127 -302 -115 -156 14 -370 95 -455
172 -147 133 -105 322 85 383 33 11 71 22 85 25 44 8 186 -2 251 -19z"/>
<path d="M2205 6159 c-158 -23 -228 -67 -240 -150 -3 -24 -5 -221 -3 -438 l3
-393 33 -28 c60 -50 158 -74 324 -78 166 -5 275 12 366 55 64 30 85 60 92 131
l5 54 75 27 c96 34 139 61 190 118 43 50 80 146 80 212 0 144 -118 271 -282
304 l-63 13 -6 44 c-4 31 -14 49 -34 66 -73 58 -351 90 -540 63z m646 -294
c154 -55 191 -278 63 -384 -35 -28 -107 -56 -122 -47 -9 5 -15 423 -6 437 7
12 14 12 65 -6z"/>
<path d="M3908 5793 c-24 -28 -40 -62 -33 -73 7 -12 145 -13 161 -2 18 13 44
56 44 74 0 16 -10 18 -78 18 -63 0 -82 -4 -94 -17z"/>
<path d="M4137 5799 c-18 -10 -47 -60 -47 -79 0 -7 28 -10 81 -8 74 3 84 5
100 28 10 14 19 34 21 45 3 18 -3 20 -67 22 -38 2 -78 -2 -88 -8z"/>
<path d="M4367 5803 c-17 -3 -32 -15 -42 -33 -28 -55 -23 -60 65 -60 l80 0 21
41 c17 34 18 43 7 50 -13 9 -79 10 -131 2z"/>
<path d="M4540 5768 c-33 -55 -29 -58 70 -58 88 0 91 1 100 26 23 59 18 64
-70 64 -80 0 -80 0 -100 -32z"/>
<path d="M4761 5769 c-20 -58 -19 -59 78 -59 l89 0 6 31 c12 60 13 59 -78 59
l-84 0 -11 -31z"/>
<path d="M4986 5792 c-2 -4 -7 -24 -11 -44 l-7 -36 75 -7 c107 -10 111 -9 115
48 l3 47 -85 0 c-47 0 -87 -3 -90 -8z"/>
<path d="M5204 5786 c-3 -8 -4 -29 -2 -48 l3 -33 93 -3 92 -3 0 45 c0 53 -6
56 -106 56 -55 0 -76 -4 -80 -14z"/>
<path d="M5434 5787 c-3 -8 -4 -30 -2 -49 l3 -33 93 -3 93 -3 -7 38 c-3 21
-10 42 -15 47 -4 5 -42 11 -83 14 -62 4 -77 2 -82 -11z"/>
<path d="M5649 5786 c-3 -3 -3 -22 -1 -41 5 -45 27 -55 122 -55 76 0 83 6 65
60 l-12 35 -84 3 c-47 1 -87 0 -90 -2z"/>
<path d="M5875 5758 c14 -66 18 -68 111 -68 84 0 85 0 79 23 -22 70 -24 72
-113 75 l-84 3 7 -33z"/>
<path d="M6085 5780 c-4 -6 2 -27 12 -48 l18 -37 83 -3 c45 -2 82 1 82 6 0 24
-24 74 -40 82 -25 13 -147 13 -155 0z"/>
<path d="M6290 5773 c0 -5 11 -26 23 -48 l23 -40 82 -3 c54 -2 82 1 82 8 0 6
-9 29 -20 50 l-20 40 -85 0 c-47 0 -85 -3 -85 -7z"/>
<path d="M6510 5770 c0 -6 9 -29 20 -50 l20 -40 100 0 c61 0 100 4 100 10 0 6
-11 28 -25 50 l-25 40 -95 0 c-59 0 -95 -4 -95 -10z"/>
<path d="M3822 5668 c-20 -27 -43 -79 -37 -88 9 -15 128 -12 147 3 23 19 48
59 48 79 0 16 -10 18 -74 18 -47 0 -77 -5 -84 -12z"/>
<path d="M4035 5672 c-18 -12 -56 -83 -50 -93 4 -5 40 -9 80 -9 l74 0 26 37
c43 64 37 73 -47 73 -40 0 -78 -4 -83 -8z"/>
<path d="M4243 5668 c-21 -26 -44 -79 -38 -88 3 -6 46 -10 95 -10 83 0 91 2
105 24 9 13 17 37 18 52 l2 29 -86 3 c-61 2 -89 -1 -96 -10z"/>
<path d="M4467 5629 c-9 -23 -14 -46 -11 -50 3 -5 45 -9 94 -9 98 0 100 2 115
68 l7 32 -95 0 -94 0 -16 -41z"/>
<path d="M4710 5644 c-6 -14 -10 -36 -10 -49 0 -21 6 -25 46 -31 46 -7 130 -1
141 9 3 3 8 26 10 52 l6 45 -92 0 c-89 0 -92 -1 -101 -26z"/>
<path d="M4957 5663 c-3 -4 -8 -27 -11 -49 -7 -37 -5 -42 16 -48 13 -3 53 -6
89 -6 78 0 92 11 87 67 l-3 38 -87 3 c-47 1 -88 -1 -91 -5z"/>
<path d="M5193 5654 c-3 -9 -6 -32 -7 -52 l-1 -37 103 -3 103 -3 -3 53 -3 53
-93 3 c-78 2 -93 0 -99 -14z"/>
<path d="M5440 5616 c0 -25 3 -47 8 -50 8 -4 148 -10 190 -7 18 1 22 7 22 35
0 65 -2 66 -116 66 l-104 0 0 -44z"/>
<path d="M5700 5625 c0 -61 26 -76 123 -73 l82 3 -3 40 c-5 60 -13 65 -113 65
l-89 0 0 -35z"/>
<path d="M5944 5619 c10 -65 17 -69 118 -69 l90 0 -6 25 c-18 73 -21 75 -88
76 -35 0 -76 3 -92 5 -29 5 -29 5 -22 -37z"/>
<path d="M6166 5628 c21 -70 29 -75 106 -80 92 -6 101 -3 93 31 -16 64 -28 71
-121 71 -84 0 -85 0 -78 -22z"/>
<path d="M6385 5640 c-8 -13 31 -86 50 -94 29 -11 395 -7 395 4 0 6 -11 28
-24 49 l-24 38 -123 6 c-172 10 -267 9 -274 -3z"/>
<path d="M3716 5500 c-28 -71 -24 -78 47 -85 34 -3 147 -5 251 -3 188 3 189 3
207 28 10 14 22 39 25 56 5 27 3 32 -18 37 -12 4 -129 7 -259 7 l-237 0 -16
-40z"/>
<path d="M4295 5495 c-32 -75 -29 -79 55 -87 131 -11 157 3 163 87 l2 30 -103
3 -103 3 -14 -36z"/>
<path d="M4571 5511 c-6 -10 -13 -36 -17 -58 -6 -40 -6 -40 30 -46 55 -9 154
-3 166 9 14 14 32 92 25 105 -4 5 -49 9 -100 9 -82 0 -96 -2 -104 -19z"/>
<path d="M4833 5518 c-6 -7 -13 -34 -16 -59 -6 -43 -4 -47 16 -52 19 -5 922
-12 953 -8 15 1 6 91 -10 107 -18 18 -929 30 -943 12z"/>
<path d="M5842 5511 c-11 -7 -11 -17 1 -57 17 -58 26 -62 146 -63 l83 -1 -7
36 c-14 77 -17 80 -92 87 -89 9 -115 8 -131 -2z"/>
<path d="M6100 5490 c0 -38 28 -89 52 -95 13 -3 57 -5 98 -3 84 3 85 6 52 78
l-17 35 -93 3 c-87 3 -92 2 -92 -18z"/>
<path d="M6344 5495 c-3 -8 5 -34 18 -57 l23 -43 93 -3 c57 -2 92 1 92 7 0 31
-35 94 -57 102 -41 15 -163 11 -169 -6z"/>
<path d="M6580 5488 c0 -7 11 -31 23 -53 l23 -40 148 -3 148 -3 -7 28 c-3 15
-15 39 -26 55 l-20 28 -145 0 c-109 0 -144 -3 -144 -12z"/>
<path d="M7485 5716 c-130 -41 -179 -114 -138 -207 42 -94 180 -173 376 -214
254 -55 406 60 307 231 -49 87 -144 149 -284 186 -80 21 -202 23 -261 4z"/>
<path d="M3339 6163 c-13 -16 -12 -17 4 -4 9 7 17 15 17 17 0 8 -8 3 -21 -13z"/>
</g>
</svg>
