<?xml version="1.0" standalone="no"?>
<!DOCTYPE svg PUBLIC "-//W3C//DTD SVG 20010904//EN"
 "http://www.w3.org/TR/2001/REC-SVG-20010904/DTD/svg10.dtd">
<svg version="1.0" xmlns="http://www.w3.org/2000/svg"
 width="1024.000000pt" height="1024.000000pt" viewBox="0 0 1024.000000 1024.000000"
 preserveAspectRatio="xMidYMid meet">
<metadata>
Created by potrace 1.16, written by Peter Selinger 2001-2019
</metadata>
<g transform="translate(0.000000,1024.000000) scale(0.100000,-0.100000)"
fill="#000000" stroke="none">
<path d="M4244 8496 c-17 -8 -40 -26 -52 -41 l-22 -28 0 -904 c0 -1008 -4
-945 70 -983 38 -19 58 -20 621 -20 l582 0 -7 -77 c-4 -43 -10 -88 -13 -101
l-5 -22 -839 2 c-462 2 -839 1 -839 -2 0 -3 42 -17 93 -33 50 -15 178 -55 282
-90 204 -67 203 -66 191 -131 -14 -72 25 -62 -560 -141 -593 -79 -930 -125
-993 -135 -73 -12 -64 -15 -370 123 -114 52 -259 116 -322 143 -64 27 -119 57
-126 68 -10 16 -45 165 -45 192 0 2 -39 4 -88 4 -67 0 -93 -4 -112 -17 -23
-16 -208 -164 -582 -467 -166 -134 -164 -130 -156 -264 5 -67 8 -78 32 -99
l27 -23 3790 0 3789 0 0 -1690 c0 -1216 3 -1696 11 -1713 17 -38 51 -47 175
-47 114 0 116 0 145 29 l29 29 0 1696 0 1696 135 0 c135 0 135 0 167 29 31 28
33 33 36 110 2 45 1 92 -2 105 -4 16 -127 121 -377 322 l-372 299 -68 3 c-38
3 -69 6 -69 9 0 5 53 263 110 533 23 107 47 226 55 264 22 113 -1 144 -108
152 -34 2 -195 13 -357 24 -162 11 -322 22 -354 24 -78 6 -111 -11 -127 -62
-6 -22 -55 -241 -108 -488 l-97 -449 -732 -3 -732 -2 -4 22 c-3 13 -8 58 -11
101 l-6 77 583 0 c650 0 628 -2 675 69 l23 34 0 894 c0 1002 5 934 -72 974
-36 18 -80 19 -1450 19 -1160 -1 -1419 -3 -1444 -14z m2781 -178 c3 -13 4
-354 3 -758 l-3 -735 -1335 0 -1335 0 -3 745 c-1 410 0 751 3 758 3 9 280 12
1334 12 l1331 0 5 -22z m1112 -1172 c150 -12 275 -25 277 -27 2 -2 -31 -173
-75 -379 -43 -206 -86 -414 -96 -462 -15 -80 -19 -88 -39 -88 -35 0 -657 60
-661 64 -2 2 5 41 16 87 11 46 54 244 96 439 41 195 80 365 85 377 8 19 14 21
67 16 32 -2 181 -15 330 -27z m-1579 -980 c20 -7 168 -213 185 -258 14 -40
-10 -43 -392 -49 -201 -4 -618 -7 -926 -7 -782 -1 -935 7 -935 48 0 11 130
203 157 232 l26 28 221 2 c616 8 1645 10 1664 4z m627 -38 c91 -23 186 -96
201 -154 22 -89 -106 -134 -282 -101 -201 38 -282 122 -204 210 27 31 54 43
135 61 25 5 97 -3 150 -16z"/>
<path d="M6198 6112 c-49 -3 -60 -16 -36 -40 23 -23 108 -13 108 13 0 22 -23
30 -72 27z"/>
<path d="M6294 6105 c-11 -26 7 -35 72 -35 65 0 80 10 52 38 -18 18 -117 16
-124 -3z"/>
<path d="M6447 6114 c-3 -4 -2 -15 4 -25 7 -15 21 -19 58 -19 55 0 64 6 50 31
-7 15 -21 19 -58 19 -26 0 -51 -3 -54 -6z"/>
<path d="M4671 6091 c-14 -25 2 -31 78 -31 43 0 62 5 74 18 10 10 17 22 17 25
0 4 -36 7 -80 7 -68 0 -81 -3 -89 -19z"/>
<path d="M4862 6098 c-27 -27 -13 -38 48 -38 48 0 61 4 69 19 6 10 7 21 4 25
-11 11 -109 6 -121 -6z"/>
<path d="M5010 6090 c-17 -31 -4 -40 55 -40 45 0 55 3 60 20 10 31 -2 40 -55
40 -39 0 -52 -4 -60 -20z"/>
<path d="M5183 6103 c-22 -4 -37 -28 -27 -44 3 -5 29 -9 58 -9 49 0 54 2 58
24 6 32 -23 42 -89 29z"/>
<path d="M5294 6095 c-13 -32 4 -45 55 -45 42 0 51 3 56 21 9 27 -4 35 -61 37
-32 2 -46 -2 -50 -13z"/>
<path d="M5434 6095 c-13 -32 4 -45 55 -45 41 0 51 4 56 20 10 31 -2 40 -56
40 -35 0 -51 -4 -55 -15z"/>
<path d="M5574 6096 c-14 -36 3 -47 63 -44 54 3 58 5 58 28 0 23 -4 25 -58 28
-44 2 -59 0 -63 -12z"/>
<path d="M5722 6083 c3 -27 5 -28 58 -28 52 0 55 1 55 25 0 23 -4 25 -58 28
l-58 3 3 -28z"/>
<path d="M5864 6096 c-13 -34 2 -43 63 -38 67 5 71 7 57 30 -15 24 -112 30
-120 8z"/>
<path d="M6000 6097 c0 -25 24 -37 78 -37 50 0 53 2 50 23 -3 20 -9 22 -65 25
-48 2 -63 0 -63 -11z"/>
<path d="M6118 6042 c-62 -3 -63 -4 -48 -33 9 -15 22 -19 70 -19 62 0 74 10
48 41 -9 10 -30 13 -70 11z"/>
<path d="M6224 6035 c-11 -28 16 -45 72 -45 30 0 54 2 54 5 0 2 -5 16 -12 30
-10 22 -17 25 -60 25 -34 0 -50 -4 -54 -15z"/>
<path d="M6360 6042 c0 -4 7 -18 17 -31 16 -23 19 -24 121 -17 58 3 107 8 110
10 2 3 1 14 -3 25 -6 20 -14 21 -126 21 -65 0 -119 -3 -119 -8z"/>
<path d="M4632 6028 c-31 -31 -14 -38 86 -38 97 0 122 8 122 37 0 18 -190 19
-208 1z"/>
<path d="M4861 6018 c-8 -22 -5 -23 57 -31 52 -7 68 -6 80 6 30 31 8 47 -63
47 -59 0 -67 -2 -74 -22z"/>
<path d="M5045 6024 c-25 -26 -12 -39 42 -42 45 -3 52 0 58 19 5 14 2 25 -6
30 -23 14 -76 10 -94 -7z"/>
<path d="M5180 6026 c-5 -5 -10 -18 -10 -28 0 -15 9 -18 60 -18 49 0 61 3 70
20 6 11 8 25 5 31 -8 13 -111 9 -125 -5z"/>
<path d="M5335 6022 c-14 -36 -6 -42 54 -42 51 0 61 3 66 20 3 11 4 24 0 30
-9 14 -114 8 -120 -8z"/>
<path d="M5488 6029 c-5 -4 -8 -15 -6 -25 3 -15 14 -20 59 -22 60 -3 85 11 73
42 -5 14 -17 16 -61 14 -30 -2 -59 -6 -65 -9z"/>
<path d="M5647 6034 c-4 -4 -7 -18 -7 -31 0 -22 4 -23 61 -23 60 0 60 0 57 28
-3 25 -7 27 -53 30 -28 2 -54 0 -58 -4z"/>
<path d="M5789 6013 c8 -32 40 -41 83 -24 20 7 25 15 21 30 -5 18 -13 21 -58
21 -53 0 -53 0 -46 -27z"/>
<path d="M5910 6027 c0 -31 24 -44 78 -39 48 4 53 6 50 26 -3 18 -10 21 -65
24 -48 2 -63 0 -63 -11z"/>
<path d="M4572 5946 c-6 -13 -8 -27 -5 -30 4 -3 41 -6 84 -6 67 0 80 3 89 19
19 37 12 41 -73 41 -79 0 -84 -1 -95 -24z"/>
<path d="M4780 5948 c-11 -12 -20 -25 -20 -30 0 -4 34 -8 75 -8 64 0 76 3 85
20 17 31 4 40 -60 40 -48 0 -63 -4 -80 -22z"/>
<path d="M4960 5948 c-11 -12 -19 -27 -17 -33 2 -5 31 -11 65 -13 58 -3 63 -1
74 23 15 33 0 45 -59 45 -31 0 -48 -6 -63 -22z"/>
<path d="M5238 5962 c-106 -2 -117 -4 -123 -22 -3 -11 -3 -24 0 -30 7 -11 772
-14 813 -4 24 7 32 53 10 56 -22 3 -578 3 -700 0z"/>
<path d="M6018 5963 c-50 -4 -58 -15 -35 -47 10 -14 25 -17 72 -14 57 3 60 4
57 27 -1 14 -3 26 -5 27 -8 6 -49 10 -89 7z"/>
<path d="M6177 5963 c-35 -4 -38 -7 -35 -31 3 -30 20 -35 101 -25 50 6 59 20
31 47 -15 16 -22 16 -97 9z"/>
<path d="M6307 5963 c-3 -5 -1 -18 4 -30 8 -21 15 -23 79 -23 72 0 79 5 60 41
-9 16 -22 19 -75 19 -35 0 -66 -3 -68 -7z"/>
<path d="M6487 5963 c-3 -5 -1 -18 4 -30 8 -21 15 -23 87 -23 43 0 81 3 85 6
3 3 1 17 -5 30 -10 22 -17 24 -89 24 -43 0 -80 -3 -82 -7z"/>
<path d="M6990 6099 c-71 -21 -103 -84 -63 -124 61 -62 298 -98 388 -61 28 12
35 20 35 43 0 37 -57 94 -125 124 -57 26 -179 35 -235 18z"/>
<path d="M2645 7444 c-302 -18 -625 -37 -717 -42 -192 -10 -208 -17 -208 -83
0 -20 15 -111 34 -201 19 -89 62 -300 95 -468 66 -331 101 -495 110 -508 3 -5
37 -21 75 -36 38 -15 200 -86 359 -158 l291 -130 186 26 c102 14 316 44 475
65 160 22 427 59 595 81 168 23 311 47 318 52 6 6 12 23 12 39 0 31 -8 33
-582 214 -125 39 -149 49 -153 68 -3 12 -25 117 -50 232 -94 434 -178 811
-186 833 -9 22 -64 53 -91 51 -7 -1 -260 -16 -563 -35z m631 -540 c51 -230 93
-429 93 -441 1 -13 -5 -23 -11 -23 -7 0 -98 -9 -203 -20 -104 -11 -352 -36
-550 -55 -198 -20 -398 -40 -445 -45 -47 -4 -88 -5 -92 -1 -4 4 -49 213 -100
464 -79 391 -90 460 -78 467 8 6 47 10 85 10 64 0 758 38 1065 59 69 4 129 7
135 6 5 -1 51 -190 101 -421z"/>
<path d="M1299 5283 c0 -43 -1 -282 -2 -531 l-2 -452 1273 0 1272 0 0 530 0
530 -1270 0 -1270 0 -1 -77z m1575 -269 c30 -11 38 -41 22 -78 -26 -63 -44
-66 -337 -66 l-261 0 -34 34 c-40 40 -44 78 -12 100 19 14 66 16 314 16 161 0
300 -3 308 -6z"/>
<path d="M1297 3938 c2 -161 3 -395 3 -520 l0 -228 1270 0 1270 0 -2 518 -3
517 -1270 3 -1270 2 2 -292z m1598 -68 c15 -17 16 -24 5 -50 -7 -17 -24 -40
-38 -50 -23 -19 -41 -20 -296 -20 -197 1 -275 4 -286 13 -47 37 -64 98 -32
116 10 7 134 11 323 11 292 0 307 -1 324 -20z"/>
<path d="M1300 3118 c-4 -253 -1 -1068 4 -1076 4 -7 27 -12 51 -12 40 0 45 -3
62 -37 16 -34 23 -39 63 -43 25 -3 67 -3 93 -2 43 4 50 8 73 43 l24 39 893 0
892 0 20 -37 c23 -43 49 -51 151 -45 64 4 70 8 88 65 4 13 17 17 54 17 30 0
54 6 61 14 8 9 10 160 9 542 l-3 529 -1267 3 c-698 1 -1268 1 -1268 0z m1601
-372 c9 -18 7 -30 -5 -54 -30 -59 -47 -62 -337 -62 l-261 0 -34 34 c-35 35
-44 72 -22 94 9 9 96 12 330 12 l318 0 11 -24z"/>
</g>
</svg>
