<?xml version="1.0" standalone="no"?>
<!DOCTYPE svg PUBLIC "-//W3C//DTD SVG 20010904//EN"
 "http://www.w3.org/TR/2001/REC-SVG-20010904/DTD/svg10.dtd">
<svg version="1.0" xmlns="http://www.w3.org/2000/svg"
 width="1024.000000pt" height="1024.000000pt" viewBox="0 0 1024.000000 1024.000000"
 preserveAspectRatio="xMidYMid meet">
<metadata>
Created by potrace 1.16, written by Peter Selinger 2001-2019
</metadata>
<g transform="translate(0.000000,1024.000000) scale(0.100000,-0.100000)"
fill="#000000" stroke="none">
<path d="M1476 7044 c-32 -10 -64 -31 -96 -63 -87 -87 -80 85 -80 -1995 0
-1313 3 -1852 11 -1881 19 -69 63 -120 131 -154 l61 -31 3622 0 3621 0 52 26
c29 14 67 44 86 66 71 82 66 -68 66 1972 0 1224 -4 1853 -10 1878 -18 62 -71
128 -130 162 l-55 31 -3615 2 c-3184 1 -3621 0 -3664 -13z m759 -440 c25 -27
25 -29 25 -211 l0 -185 -30 -29 -30 -30 -201 3 c-259 4 -239 -17 -239 240 0
256 -19 238 250 238 l201 0 24 -26z m670 20 c37 -15 45 -56 45 -239 l0 -177
-29 -29 -29 -29 -187 0 c-193 0 -234 7 -249 45 -11 29 -7 363 5 389 6 13 21
29 33 34 23 11 383 16 411 6z m710 -19 c25 -24 25 -26 25 -204 0 -192 -6 -221
-47 -240 -15 -7 -96 -11 -214 -11 -255 0 -239 -15 -239 229 0 189 6 221 44
239 12 6 103 11 214 11 192 1 193 1 217 -24z m686 -4 l29 -29 0 -182 0 -182
-30 -29 -30 -30 -201 3 c-259 4 -239 -17 -239 240 0 255 -18 238 245 238 l197
0 29 -29z m689 9 c29 -29 32 -53 28 -240 l-3 -172 -29 -24 c-28 -25 -29 -25
-222 -22 -255 4 -238 -12 -242 220 -4 190 -1 209 30 238 20 19 35 20 220 20
184 0 199 -1 218 -20z m711 -6 c24 -25 24 -28 24 -216 l0 -190 -28 -24 c-28
-24 -31 -24 -231 -24 -191 0 -205 1 -230 21 l-26 20 0 195 c0 263 -20 244 258
244 l209 0 24 -26z m684 0 c25 -27 25 -29 25 -211 l0 -185 -29 -29 -29 -29
-190 0 c-176 0 -191 1 -216 21 l-26 20 0 195 c0 262 -18 244 245 244 l196 0
24 -26z m680 20 c37 -15 45 -56 45 -233 0 -182 -6 -211 -47 -230 -25 -12 -370
-16 -411 -5 -44 12 -52 49 -52 234 0 173 8 220 42 233 19 8 403 8 423 1z m706
-7 c34 -26 39 -54 39 -232 l0 -177 -29 -29 -29 -29 -202 0 c-268 0 -250 -16
-250 229 0 189 6 221 44 239 31 16 407 15 427 -1z m686 -11 l28 -24 0 -192 0
-192 -28 -24 c-28 -24 -32 -24 -218 -24 -256 0 -239 -17 -239 240 l0 191 26
24 c27 25 29 25 215 25 184 0 188 0 216 -24z m-5916 -696 c41 -22 49 -60 49
-230 l0 -162 -29 -29 -29 -29 -362 0 -361 0 -24 25 c-25 24 -25 26 -25 202 1
184 3 197 45 221 26 15 708 17 736 2z m694 -14 c32 -32 37 -68 33 -238 -3
-139 -4 -148 -27 -172 l-24 -26 -192 0 c-179 0 -194 1 -219 21 l-26 20 0 175
c0 178 8 224 42 237 7 3 98 6 201 6 185 1 188 1 212 -23z m696 -5 l29 -29 0
-175 c0 -240 20 -221 -244 -225 l-206 -3 -25 25 c-25 25 -25 26 -25 206 l0
181 26 24 c27 25 29 25 221 25 l195 0 29 -29z m688 14 c16 -8 31 -22 35 -30 3
-9 6 -95 6 -191 0 -240 18 -224 -255 -224 -272 0 -255 -15 -255 220 0 173 5
201 39 227 25 19 393 18 430 -2z m712 -14 l29 -29 0 -177 c0 -240 17 -225
-248 -225 -186 0 -201 1 -226 21 l-26 20 0 185 c0 251 -17 234 245 234 l197 0
29 -29z m690 0 l29 -29 0 -177 c0 -241 17 -225 -250 -225 -267 0 -250 -16
-250 225 l0 177 29 29 29 29 192 0 192 0 29 -29z m678 14 c16 -8 31 -25 35
-37 3 -13 6 -99 6 -191 0 -231 16 -217 -250 -217 -267 0 -250 -16 -250 225 l0
177 29 29 29 29 187 0 c143 0 192 -3 214 -15z m738 -9 l28 -24 3 -181 3 -181
-25 -25 -25 -25 -221 0 -221 0 -24 25 c-25 24 -25 27 -25 200 l0 177 29 29 29
29 211 0 c207 0 210 0 238 -24z m1020 0 l28 -24 3 -167 c4 -182 -3 -215 -44
-234 -17 -7 -137 -11 -380 -11 l-355 0 -24 25 c-25 24 -25 27 -25 194 0 178 6
211 44 229 13 7 152 11 373 11 l352 1 28 -24z m-5717 -671 c43 -22 52 -71 48
-258 l-3 -159 -28 -24 -28 -24 -458 0 c-437 0 -460 1 -482 19 -23 19 -24 24
-27 206 -3 201 1 225 51 245 12 5 219 9 460 9 372 1 442 -1 467 -14z m736 -18
c23 -28 24 -32 24 -211 0 -252 23 -231 -260 -231 -283 0 -260 -20 -260 229 0
194 5 216 54 236 11 5 110 8 219 7 l199 -2 24 -28z m694 18 c44 -23 52 -66 48
-253 l-3 -164 -28 -24 c-28 -24 -31 -24 -225 -24 -108 0 -207 3 -220 6 -44 12
-52 49 -52 236 0 186 5 209 54 228 11 5 106 9 209 9 149 1 194 -2 217 -14z
m692 -13 c22 -22 23 -30 26 -207 l3 -185 -30 -30 -29 -30 -187 0 c-251 0 -235
-16 -235 237 1 200 3 213 51 232 14 6 101 9 201 8 170 -2 178 -3 200 -25z
m710 0 c22 -22 23 -28 23 -213 l0 -191 -29 -24 -28 -25 -210 3 c-269 4 -248
-16 -248 232 0 194 5 216 54 236 11 5 110 8 218 7 191 -2 198 -3 220 -25z
m663 18 c48 -18 57 -63 53 -253 l-3 -169 -28 -24 c-28 -24 -31 -24 -223 -24
-261 0 -244 -17 -244 235 l0 187 29 29 29 29 181 0 c99 0 191 -4 206 -10z
m701 -23 c23 -27 24 -32 24 -211 l0 -183 -26 -27 -27 -26 -183 0 c-115 0 -192
4 -208 11 -42 19 -48 52 -44 242 3 154 5 177 22 195 25 29 37 30 239 28 l179
-1 24 -28z m673 18 c16 -8 34 -28 40 -46 14 -41 14 -326 1 -366 -17 -48 -42
-53 -250 -53 -185 0 -189 0 -217 24 l-28 24 -3 159 c-5 183 5 235 46 257 39
22 371 22 411 1z m853 -13 c22 -22 23 -28 23 -213 l0 -191 -28 -24 -28 -24
-265 0 -265 0 -24 25 c-24 23 -25 30 -27 162 -2 225 -1 234 33 266 l30 28 264
-3 c260 -3 265 -3 287 -26z m-6221 -701 l29 -29 0 -182 c0 -247 19 -230 -255
-230 -274 0 -255 -18 -255 235 l0 186 26 24 c27 25 29 25 226 25 l200 0 29
-29z m684 4 c24 -23 25 -30 27 -172 3 -214 2 -224 -28 -250 -24 -22 -32 -23
-220 -23 -260 0 -244 -15 -244 224 0 184 6 216 44 234 12 6 101 11 209 11 187
1 188 1 212 -24z m684 10 c16 -8 31 -25 35 -37 3 -13 6 -101 6 -196 0 -237 17
-222 -250 -222 -268 0 -250 -17 -250 235 0 251 -17 235 240 235 148 0 197 -3
219 -15z m698 -9 l28 -24 3 -169 c4 -189 -6 -237 -51 -248 -13 -4 -110 -5
-216 -3 -249 4 -231 -14 -231 230 l0 180 29 29 29 29 191 0 c186 0 190 0 218
-24z m704 -5 l29 -29 0 -171 c0 -182 -6 -211 -47 -230 -15 -7 -97 -11 -219
-11 -260 0 -244 -15 -244 224 0 184 6 216 44 234 12 6 103 11 214 11 l194 1
29 -29z m674 23 c37 -15 45 -56 45 -239 0 -240 17 -225 -250 -225 -268 0 -250
-17 -250 235 0 252 -17 235 244 235 107 0 202 -3 211 -6z m716 -23 l29 -29 0
-182 c0 -247 19 -230 -255 -230 -273 0 -255 -16 -255 225 0 179 8 225 42 238
7 3 102 6 211 6 l199 1 29 -29z m673 18 c42 -19 48 -52 44 -244 -4 -232 16
-215 -250 -215 -265 0 -248 -16 -248 230 0 189 5 214 43 230 33 13 381 12 411
-1z m1383 -13 l28 -24 3 -168 c4 -183 1 -205 -28 -234 -19 -19 -36 -20 -554
-20 -524 0 -534 0 -560 21 l-26 20 0 190 c0 188 0 190 25 214 l24 25 530 0
530 0 28 -24z m-6226 -699 c34 -26 39 -54 39 -227 l0 -172 -29 -29 -29 -29
-202 0 c-268 0 -250 -17 -250 233 l0 184 26 27 27 26 201 0 c142 -1 206 -4
217 -13z m694 -12 c25 -24 25 -26 25 -208 0 -171 -1 -186 -21 -211 l-20 -26
-200 0 c-266 0 -249 -15 -249 225 0 179 8 225 42 238 7 3 100 6 206 6 192 1
193 1 217 -24z m3476 -4 l29 -29 0 -172 c0 -178 -8 -219 -45 -234 -9 -3 -730
-6 -1601 -6 l-1585 0 -24 25 c-25 24 -25 26 -25 210 l0 186 26 24 27 25 1584
0 1585 0 29 -29z m694 4 c25 -24 25 -26 25 -208 0 -171 -1 -186 -21 -211 l-20
-26 -205 0 c-273 0 -254 -17 -254 235 0 252 -18 235 250 235 200 0 201 0 225
-25z m670 19 c37 -15 45 -56 45 -239 0 -240 17 -225 -248 -225 -267 0 -256
-11 -250 265 l3 157 28 24 c28 24 32 24 217 24 103 0 196 -3 205 -6z m696 -23
l29 -29 0 -172 c0 -178 -8 -219 -45 -234 -9 -3 -102 -6 -206 -6 -254 0 -239
-14 -239 225 0 178 5 206 39 232 11 9 72 12 204 13 l189 0 29 -29z"/>
</g>
</svg>
