<?xml version="1.0" standalone="no"?>
<!DOCTYPE svg PUBLIC "-//W3C//DTD SVG 20010904//EN"
 "http://www.w3.org/TR/2001/REC-SVG-20010904/DTD/svg10.dtd">
<svg version="1.0" xmlns="http://www.w3.org/2000/svg"
 width="1024.000000pt" height="1024.000000pt" viewBox="0 0 1024.000000 1024.000000"
 preserveAspectRatio="xMidYMid meet">
<metadata>
Created by potrace 1.16, written by Peter Selinger 2001-2019
</metadata>
<g transform="translate(0.000000,1024.000000) scale(0.100000,-0.100000)"
fill="#000000" stroke="none">
<path d="M6650 8863 c-468 -150 -1319 -415 -1965 -613 l-330 -101 -115 120
c-96 99 -122 121 -158 131 -31 8 -222 10 -680 7 -555 -3 -644 -6 -692 -20
-199 -60 -331 -195 -369 -375 -7 -33 -11 -195 -11 -438 l0 -384 2793 2 2792 3
3 163 c1 90 -2 180 -8 200 -13 49 -67 101 -116 112 -22 5 -707 9 -1523 10
l-1485 0 -52 48 c-28 26 -52 49 -53 52 -1 3 533 218 1186 479 851 340 1195
482 1219 503 91 80 50 210 -65 207 -28 -1 -170 -41 -371 -106z"/>
<path d="M2330 6866 c0 -171 0 -175 28 -227 23 -45 37 -59 82 -81 61 -31 -116
-11 1745 -197 852 -85 831 -82 913 -155 71 -65 85 -113 90 -328 l5 -188 -1339
0 c-904 0 -1351 -4 -1377 -11 -21 -5 -54 -24 -74 -42 -52 -46 -73 -98 -73
-184 l0 -73 2795 0 2795 0 -2 828 -3 827 -2792 3 -2793 2 0 -174z m4507 -130
l28 -24 0 -200 c0 -198 0 -201 -24 -226 l-24 -26 -497 0 -497 0 -24 26 c-23
25 -24 30 -27 220 l-3 194 30 30 29 30 491 0 490 0 28 -24z m417 -110 c72 -30
97 -107 56 -174 -60 -98 -196 -62 -207 55 -6 56 19 96 71 119 39 17 40 17 80
0z m350 0 c49 -20 76 -60 76 -113 0 -38 -5 -50 -34 -79 -39 -39 -86 -45 -137
-18 -31 16 -59 66 -59 106 0 35 37 88 73 103 40 18 41 18 81 1z"/>
<path d="M2330 4575 l0 -665 2793 2 2792 3 3 128 3 127 270 0 c164 0 287 4
314 11 63 16 111 65 125 131 22 95 -17 175 -103 217 -41 20 -60 21 -325 21
l-282 0 0 345 0 345 -2795 0 -2795 0 0 -665z"/>
<path d="M2330 3290 l0 -480 2793 2 2792 3 3 478 2 477 -2795 0 -2795 0 0
-480z"/>
<path d="M2330 2208 c0 -521 0 -516 76 -574 34 -27 45 -29 136 -32 l98 -4 0
-108 c0 -120 7 -149 46 -185 l27 -25 239 0 238 0 38 34 37 34 3 126 4 126
1849 0 1849 0 0 -115 c0 -126 10 -159 54 -189 22 -14 59 -16 261 -16 202 0
239 2 261 16 44 30 54 63 54 189 l0 115 90 0 c141 0 200 41 220 152 6 32 9
231 8 483 l-3 430 -2792 3 -2793 2 0 -462z"/>
</g>
</svg>
