<?xml version="1.0" standalone="no"?>
<!DOCTYPE svg PUBLIC "-//W3C//DTD SVG 20010904//EN"
 "http://www.w3.org/TR/2001/REC-SVG-20010904/DTD/svg10.dtd">
<svg version="1.0" xmlns="http://www.w3.org/2000/svg"
 width="1024.000000pt" height="1024.000000pt" viewBox="0 0 1024.000000 1024.000000"
 preserveAspectRatio="xMidYMid meet">
<metadata>
Created by potrace 1.16, written by Peter Selinger 2001-2019
</metadata>
<g transform="translate(0.000000,1024.000000) scale(0.100000,-0.100000)"
fill="#000000" stroke="none">
<path d="M3395 9323 c-83 -10 -179 -39 -260 -78 -215 -104 -358 -287 -406
-521 -19 -90 -19 -195 -16 -3646 2 -3404 3 -3556 21 -3613 69 -226 204 -389
405 -490 151 -76 -18 -70 1946 -73 1248 -2 1779 0 1824 8 322 55 584 328 631
656 8 58 10 1035 8 3604 -3 3395 -4 3527 -22 3590 -77 270 -262 454 -546 542
l-75 23 -1740 1 c-957 1 -1753 -1 -1770 -3z m3556 -380 c86 -42 177 -138 211
-220 l23 -58 3 -3515 c1 -2368 -1 -3531 -8 -3563 -27 -127 -120 -244 -237
-300 l-68 -32 -1751 0 -1750 0 -67 34 c-83 42 -148 110 -190 199 l-32 67 0
3565 0 3565 27 57 c29 63 101 146 155 179 19 12 60 30 91 40 54 17 139 18
1792 16 l1735 -2 66 -32z"/>
<path d="M5080 8851 c-79 -25 -127 -72 -150 -144 -27 -85 22 -197 102 -236 84
-40 196 -23 255 41 84 89 62 253 -42 313 -46 27 -124 40 -165 26z"/>
</g>
</svg>
