<?xml version="1.0" standalone="no"?>
<!DOCTYPE svg PUBLIC "-//W3C//DTD SVG 20010904//EN"
 "http://www.w3.org/TR/2001/REC-SVG-20010904/DTD/svg10.dtd">
<svg version="1.0" xmlns="http://www.w3.org/2000/svg"
 width="1024.000000pt" height="1024.000000pt" viewBox="0 0 1024.000000 1024.000000"
 preserveAspectRatio="xMidYMid meet">
<metadata>
Created by potrace 1.16, written by Peter Selinger 2001-2019
</metadata>
<g transform="translate(0.000000,1024.000000) scale(0.100000,-0.100000)"
fill="#000000" stroke="none">
<path d="M4617 6831 l-24 -30 -44 16 c-66 24 -207 29 -264 10 -72 -25 -164
-97 -266 -209 -380 -417 -734 -588 -1218 -588 -295 0 -555 66 -1046 267 -345
142 -337 139 -371 124 -37 -15 -82 -76 -136 -182 -123 -240 -197 -516 -229
-854 -27 -276 15 -690 96 -959 23 -79 24 -90 27 -506 3 -386 5 -428 21 -462
10 -20 30 -41 45 -47 19 -8 311 -11 1023 -9 934 3 998 4 1016 21 38 33 45 83
50 350 l6 259 51 -7 c81 -11 342 -64 447 -90 160 -41 340 -98 869 -275 513
-172 624 -204 836 -241 309 -54 892 -29 1554 67 595 85 1240 206 1855 345 262
60 275 67 275 147 0 49 -34 163 -64 217 -18 30 -25 63 -29 135 -12 178 -68
310 -181 424 -148 151 -356 224 -796 280 -107 13 -296 34 -420 45 -124 12
-265 25 -314 31 -50 5 -92 8 -94 5 -19 -18 -50 -285 -64 -546 -8 -159 -8 -266
0 -405 6 -105 12 -196 14 -204 2 -10 -16 -17 -64 -25 l-68 -12 -7 36 c-4 20
-7 137 -7 261 1 246 15 396 66 695 17 99 31 186 32 194 1 10 -23 20 -79 33
-358 80 -579 158 -779 276 l-70 42 -51 -104 c-87 -179 -184 -281 -340 -356
-146 -71 -220 -84 -460 -84 -180 -1 -245 4 -455 32 -332 43 -533 56 -698 42
-446 -36 -667 -211 -782 -618 -21 -75 -25 -83 -44 -78 -12 2 -38 8 -58 11 -44
8 -45 3 9 160 114 333 327 536 649 620 117 30 225 38 459 32 228 -6 375 -21
670 -68 203 -33 431 -33 535 -1 145 46 243 115 319 225 67 98 91 236 55 314
-10 20 -58 68 -115 116 -78 66 -97 86 -93 102 19 65 17 86 -12 117 -26 27 -34
29 -78 25 l-49 -4 -113 100 c-107 95 -112 101 -98 121 24 35 17 75 -20 112
-40 40 -72 43 -110 13 l-27 -22 -37 35 c-20 19 -77 67 -125 107 -68 56 -86 76
-77 86 24 29 29 72 10 102 -33 55 -125 71 -145 25 -5 -12 -14 -21 -20 -20 -5
2 -49 30 -97 63 -77 53 -87 64 -88 90 0 38 -22 70 -60 90 -44 23 -75 19 -103
-14z"/>
</g>
</svg>
