<?xml version="1.0" standalone="no"?>
<!DOCTYPE svg PUBLIC "-//W3C//DTD SVG 20010904//EN"
 "http://www.w3.org/TR/2001/REC-SVG-20010904/DTD/svg10.dtd">
<svg version="1.0" xmlns="http://www.w3.org/2000/svg"
 width="1024.000000pt" height="1024.000000pt" viewBox="0 0 1024.000000 1024.000000"
 preserveAspectRatio="xMidYMid meet">
<metadata>
Created by potrace 1.16, written by Peter Selinger 2001-2019
</metadata>
<g transform="translate(0.000000,1024.000000) scale(0.100000,-0.100000)"
fill="#000000" stroke="none">
<path d="M2905 8846 c-128 -32 -255 -128 -309 -233 -60 -120 -56 134 -56
-3425 0 -2359 3 -3272 11 -3310 35 -167 173 -309 343 -354 42 -11 418 -14
2216 -14 2372 0 2219 -4 2334 58 65 35 165 134 193 193 57 115 53 -125 51
3445 l-3 3279 -24 64 c-47 126 -163 240 -291 286 -54 20 -92 20 -2235 22
-1711 1 -2191 -1 -2230 -11z m4303 -636 c67 -41 62 195 60 -2901 l-3 -2811
-37 -34 -38 -34 -2067 0 c-1663 1 -2073 3 -2091 14 -13 7 -32 26 -43 42 -19
28 -19 78 -19 2837 0 3068 -4 2838 56 2886 l27 21 2061 0 c2050 0 2061 0 2094
-20z m-2000 -6049 c139 -72 168 -247 60 -352 -88 -84 -240 -76 -316 17 -92
111 -58 269 73 337 43 23 137 22 183 -2z"/>
</g>
</svg>
