<?xml version="1.0" standalone="no"?>
<!DOCTYPE svg PUBLIC "-//W3C//DTD SVG 20010904//EN"
 "http://www.w3.org/TR/2001/REC-SVG-20010904/DTD/svg10.dtd">
<svg version="1.0" xmlns="http://www.w3.org/2000/svg"
 width="1024.000000pt" height="1024.000000pt" viewBox="0 0 1024.000000 1024.000000"
 preserveAspectRatio="xMidYMid meet">
<metadata>
Created by potrace 1.16, written by Peter Selinger 2001-2019
</metadata>
<g transform="translate(0.000000,1024.000000) scale(0.100000,-0.100000)"
fill="#000000" stroke="none">
<path d="M3880 7918 c-18 -13 -41 -34 -52 -48 -17 -24 -18 -77 -18 -1349 -1
-1467 -7 -1342 67 -1398 l36 -28 815 -3 814 -2 -5 -23 c-4 -12 -18 -98 -32
-192 -14 -93 -28 -178 -31 -187 -5 -17 -27 -18 -269 -18 -169 0 -273 -4 -288
-11 -30 -13 -57 -59 -57 -94 0 -16 12 -38 29 -56 l29 -29 1040 0 1040 0 31 26
c40 33 43 89 7 131 l-24 28 -286 3 c-258 3 -285 4 -290 20 -6 18 -56 368 -56
390 0 9 167 12 803 12 l802 0 40 23 c22 13 49 40 62 62 l23 40 0 1305 0 1305
-23 39 c-12 21 -38 47 -57 57 -33 18 -107 19 -2076 19 l-2041 0 -33 -22z
m3990 -1313 l0 -1085 -1905 0 -1905 0 0 1085 0 1085 1905 0 1905 0 0 -1085z"/>
<path d="M1565 5810 c-53 -17 -707 -414 -728 -442 -19 -25 -19 -28 -4 -52 21
-31 30 -32 462 -46 340 -11 574 -20 1100 -41 246 -10 285 -9 317 4 34 14 213
144 533 384 131 98 153 126 121 152 -17 14 -111 18 -911 31 -324 6 -651 12
-725 15 -74 2 -148 0 -165 -5z"/>
<path d="M3053 5395 c-276 -206 -318 -235 -360 -241 -52 -8 -212 -4 -1098 26
-782 27 -753 27 -777 2 -27 -26 -26 -71 0 -92 17 -14 59 -18 264 -24 134 -4
466 -16 738 -26 272 -11 547 -20 610 -20 119 0 147 -7 137 -33 -15 -40 -51
-41 -902 -17 -738 20 -818 21 -839 7 -47 -31 -41 -98 10 -117 14 -6 98 -11
187 -11 217 -2 456 -13 437 -21 -17 -7 -518 -59 -563 -58 -94 1 -143 -90 -73
-135 12 -8 84 -24 160 -35 130 -19 166 -32 166 -59 0 -7 -52 -11 -155 -11
-152 0 -156 -1 -180 -25 -32 -31 -31 -56 1 -95 l27 -31 -27 -28 c-33 -34 -33
-56 0 -86 l27 -25 277 0 278 0 6 -26 c4 -16 2 -32 -4 -38 -8 -7 -98 -11 -284
-11 -250 0 -275 -2 -294 -18 -39 -35 -31 -91 18 -117 11 -6 157 -13 342 -17
303 -6 324 -5 338 12 11 14 16 61 21 209 6 207 15 244 67 299 56 60 139 89
322 113 221 29 573 3 697 -51 28 -13 81 -51 117 -84 88 -82 100 -81 202 10
340 308 477 437 490 460 29 56 9 109 -41 109 -15 0 -64 -34 -137 -95 -206
-175 -273 -230 -290 -244 -15 -11 -22 -11 -43 3 -14 9 -25 20 -25 24 0 5 100
91 222 193 305 253 328 276 328 320 0 40 -24 69 -57 69 -21 0 -89 -50 -397
-294 -88 -69 -165 -126 -172 -126 -7 0 -19 3 -28 6 -33 13 -15 42 62 100 42
32 137 105 211 163 366 290 384 306 384 355 0 35 -30 66 -62 66 -18 0 -121
-72 -338 -235z m-1673 -835 c28 -17 -4 -31 -66 -28 -47 2 -59 7 -62 21 -3 15
5 17 55 17 32 0 65 -5 73 -10z"/>
<path d="M3335 4771 c-22 -16 -111 -99 -198 -183 -169 -165 -181 -185 -135
-228 44 -41 71 -29 187 83 254 244 274 270 255 326 -14 39 -59 40 -109 2z"/>
<path d="M1906 4559 c-158 -23 -243 -68 -279 -147 -22 -46 -22 -55 -22 -567
l0 -520 23 -38 c61 -97 212 -152 452 -164 207 -10 461 41 552 110 67 51 83 87
85 192 l2 90 70 6 c171 16 295 155 323 362 36 267 -89 449 -325 473 l-63 6
-13 46 c-24 92 -102 135 -276 152 -120 11 -447 11 -529 -1z m899 -370 c25 -7
56 -27 81 -54 51 -52 69 -118 61 -212 -14 -141 -96 -243 -197 -243 l-30 0 0
260 0 260 23 0 c12 0 40 -5 62 -11z"/>
<path d="M4039 4367 c-39 -26 -45 -36 -216 -327 -194 -333 -206 -355 -198
-389 6 -29 34 -60 72 -80 16 -8 605 -11 2198 -11 2390 0 2227 -4 2260 61 29
56 36 41 -268 564 -38 66 -81 133 -96 149 -55 60 70 56 -1904 56 l-1814 0 -34
-23z m240 -144 c-43 -57 -52 -63 -101 -63 -26 0 -48 3 -48 7 0 3 11 21 26 40
23 30 29 33 81 33 51 0 54 -1 42 -17z m246 -15 c-35 -41 -47 -46 -115 -47
l-54 -1 39 40 c37 38 42 40 98 40 l59 0 -27 -32z m305 27 c0 -2 -14 -20 -31
-40 -32 -36 -32 -36 -110 -34 -44 1 -79 3 -79 5 0 2 17 19 38 39 35 33 41 34
110 35 39 0 72 -2 72 -5z m270 -2 c0 -5 -9 -23 -20 -40 -19 -33 -21 -33 -95
-33 -41 0 -75 3 -75 7 0 4 14 22 32 40 29 30 37 33 95 33 35 0 63 -3 63 -7z
m280 -7 c0 -8 -4 -26 -10 -40 -9 -25 -12 -26 -95 -26 -47 0 -85 2 -85 5 0 3
10 21 23 40 22 34 23 35 95 35 56 0 72 -3 72 -14z m290 5 c0 -5 -3 -23 -6 -40
l-6 -31 -84 0 c-46 0 -84 4 -84 9 0 4 5 22 11 40 l11 31 79 0 c43 0 79 -4 79
-9z m270 -17 c20 -52 17 -54 -75 -54 -92 0 -94 2 -79 58 6 20 12 22 75 22 65
0 70 -2 79 -26z m275 -11 l25 -38 -76 -3 c-43 -2 -81 1 -85 5 -5 5 -12 23 -15
41 l-6 32 65 0 c65 0 67 -1 92 -37z m272 5 c18 -18 33 -36 33 -40 0 -5 -34 -8
-76 -6 -77 3 -77 3 -101 41 l-23 37 67 0 c62 0 70 -2 100 -32z m288 -8 l39
-40 -75 0 c-74 0 -75 0 -114 40 l-39 40 75 0 c74 0 75 0 114 -40z m302 8 c18
-18 33 -36 33 -40 0 -4 -33 -8 -73 -8 -72 0 -73 1 -112 40 l-39 40 79 0 c75 0
81 -1 112 -32z m288 -8 l39 -40 -65 0 c-62 0 -67 2 -109 40 l-44 40 70 0 c68
0 71 -1 109 -40z m259 7 c15 -19 26 -37 26 -40 0 -4 -24 -7 -53 -7 -49 0 -56
3 -92 40 l-39 40 66 0 c64 0 68 -1 92 -33z m-3294 -177 l-55 -49 -133 -1 -132
0 17 28 c46 73 41 72 207 72 l151 0 -55 -50z m315 0 l-49 -50 -85 0 -85 0 49
50 49 50 85 0 85 0 -49 -50z m325 4 c-18 -25 -37 -47 -44 -50 -7 -3 -50 -4
-95 -2 l-83 3 45 48 45 47 81 0 82 0 -31 -46z m340 41 c0 -2 -10 -25 -22 -50
l-22 -45 -98 0 -98 0 36 50 36 50 84 0 c46 0 84 -2 84 -5z m326 -26 c-3 -17
-6 -40 -6 -50 0 -17 -9 -19 -115 -19 -63 0 -115 2 -115 5 0 8 31 68 42 83 7 8
41 12 105 12 l96 0 -7 -31z m351 -19 l10 -50 -125 0 -124 0 6 31 c3 17 6 40 6
50 0 17 9 19 109 19 l108 0 10 -50z m327 0 l27 -50 -109 0 -109 0 -7 28 c-3
15 -8 37 -12 50 -6 22 -5 22 88 22 l95 0 27 -50z m309 0 l37 -50 -89 0 c-84 0
-90 1 -105 25 -9 14 -23 36 -32 50 l-16 25 84 0 84 0 37 -50z m304 8 c24 -23
43 -46 43 -50 0 -5 -39 -7 -86 -6 l-86 3 -35 48 -35 47 78 0 78 0 43 -42z
m322 -7 c23 -27 41 -50 41 -52 0 -2 -38 -3 -84 -1 l-84 3 -42 50 -41 49 84 0
85 0 41 -49z m476 2 l37 -48 -153 -3 -153 -3 -50 51 -51 50 167 0 167 0 36
-47z m-3595 -198 l-64 -65 -93 0 c-51 0 -93 2 -93 6 0 3 18 32 40 65 l41 59
117 0 116 0 -64 -65z m330 0 l-64 -65 -90 0 -90 0 64 65 64 65 90 0 90 0 -64
-65z m400 59 c0 -3 -21 -32 -46 -65 l-45 -59 -112 0 -111 0 64 65 64 65 93 0
c51 0 93 -3 93 -6z m350 2 c0 -3 -16 -32 -36 -65 l-36 -61 -110 0 c-85 0 -108
3 -102 13 4 6 25 36 47 65 l39 52 99 0 c55 0 99 -2 99 -4z m1215 -57 c19 -33
35 -62 35 -65 0 -2 -265 -4 -589 -4 l-590 0 37 65 36 65 517 0 518 0 36 -61z
m341 -6 l45 -63 -100 0 -100 0 -34 53 c-18 28 -37 58 -41 65 -6 10 12 12 89
10 l97 -3 44 -62z m333 4 l54 -62 -94 -3 c-92 -3 -94 -2 -114 25 -11 15 -35
45 -54 66 l-33 37 93 0 94 0 54 -63z m334 -2 l59 -65 -89 0 -89 0 -35 38 c-19
20 -45 49 -58 65 l-24 27 89 0 89 -1 58 -64z m435 -2 l43 -63 -133 1 -133 1
-59 64 -60 65 149 -3 149 -3 44 -62z"/>
<path d="M8592 4245 c-126 -28 -212 -93 -226 -169 -32 -172 240 -421 549 -502
130 -35 300 -39 387 -10 70 23 133 74 149 123 26 80 -8 200 -83 296 -43 54
-167 151 -239 187 -150 76 -388 109 -537 75z"/>
</g>
</svg>
