<?xml version="1.0" standalone="no"?>
<!DOCTYPE svg PUBLIC "-//W3C//DTD SVG 20010904//EN"
 "http://www.w3.org/TR/2001/REC-SVG-20010904/DTD/svg10.dtd">
<svg version="1.0" xmlns="http://www.w3.org/2000/svg"
 width="1024.000000pt" height="1024.000000pt" viewBox="0 0 1024.000000 1024.000000"
 preserveAspectRatio="xMidYMid meet">
<metadata>
Created by potrace 1.16, written by Peter Selinger 2001-2019
</metadata>
<g transform="translate(0.000000,1024.000000) scale(0.100000,-0.100000)"
fill="#000000" stroke="none">
<path d="M1186 7065 c-14 -15 -16 -38 -14 -168 l3 -152 1520 -7 c836 -4 1797
-11 2135 -16 338 -4 1275 -8 2082 -7 l1468 0 0 -2051 c0 -1974 1 -2052 18
-2067 27 -24 293 -25 316 -1 14 14 16 216 16 2070 l0 2054 140 0 c187 0 180
-7 180 178 0 120 -2 141 -17 154 -16 14 -442 16 -3924 22 -3630 7 -3908 6
-3923 -9z"/>
<path d="M1435 6628 c-3 -7 -4 -272 -3 -588 l3 -575 1420 0 1420 0 0 585 0
585 -1418 3 c-1134 2 -1419 0 -1422 -10z m1784 -342 c33 -30 28 -81 -10 -117
l-31 -29 -315 0 c-278 0 -318 2 -344 17 -53 32 -62 106 -15 139 18 12 71 14
357 12 315 -3 338 -4 358 -22z"/>
<path d="M1436 5363 c-3 -3 -6 -269 -6 -590 l0 -583 1425 0 1425 0 -2 588 -3
587 -1416 2 c-779 1 -1419 -1 -1423 -4z m1778 -344 c45 -35 33 -105 -24 -134
-24 -12 -82 -15 -341 -15 l-311 0 -34 34 c-41 41 -44 77 -9 111 l24 25 334 0
c323 0 335 -1 361 -21z"/>
<path d="M1437 4083 c-4 -3 -7 -331 -7 -728 0 -547 3 -724 12 -733 7 -7 39
-12 75 -12 l63 0 0 -34 c0 -63 4 -66 95 -66 110 0 115 2 115 56 l0 44 1059 0
1060 0 3 -47 3 -48 94 -3 c105 -3 111 0 111 61 l0 37 69 0 c46 0 72 5 80 14 8
9 10 211 9 737 l-3 724 -1416 3 c-778 1 -1419 -1 -1422 -5z m1777 -324 c29
-23 36 -73 14 -101 -39 -47 -45 -48 -361 -48 -354 0 -377 5 -393 88 -5 25 -1
36 19 56 l26 26 334 0 c323 0 335 -1 361 -21z"/>
</g>
</svg>
