<?xml version="1.0" standalone="no"?>
<!DOCTYPE svg PUBLIC "-//W3C//DTD SVG 20010904//EN"
 "http://www.w3.org/TR/2001/REC-SVG-20010904/DTD/svg10.dtd">
<svg version="1.0" xmlns="http://www.w3.org/2000/svg"
 width="1024.000000pt" height="1024.000000pt" viewBox="0 0 1024.000000 1024.000000"
 preserveAspectRatio="xMidYMid meet">
<metadata>
Created by potrace 1.16, written by Peter Selinger 2001-2019
</metadata>
<g transform="translate(0.000000,1024.000000) scale(0.100000,-0.100000)"
fill="#000000" stroke="none">
<path d="M1765 8331 c-46 -21 -69 -44 -84 -84 -8 -20 -11 -704 -11 -2254 l0
-2227 26 -39 c15 -23 42 -46 67 -58 41 -18 86 -19 1305 -19 l1262 0 -5 -22
c-6 -25 -95 -617 -95 -630 0 -4 -102 -8 -228 -8 -201 0 -231 -2 -261 -18 -93
-50 -93 -194 0 -244 32 -17 95 -18 1379 -18 1261 0 1347 1 1379 18 53 27 76
65 76 127 0 43 -5 59 -25 80 -49 53 -61 55 -310 55 -147 0 -230 4 -230 10 0
12 -87 575 -96 618 l-6 32 1268 0 c1225 0 1270 1 1311 19 26 12 52 35 70 62
l28 43 3 2205 c2 1513 0 2217 -8 2242 -14 51 -47 88 -94 110 -40 18 -151 19
-3361 19 -3200 0 -3321 -1 -3360 -19z m6385 -2141 l0 -1730 -3030 0 -3030 0 0
1730 0 1730 3030 0 3030 0 0 -1730z"/>
<path d="M5081 2532 l-2924 -2 -71 -73 c-153 -156 -389 -423 -402 -454 -8 -18
-14 -43 -14 -55 0 -33 35 -85 72 -108 33 -20 58 -20 3371 -20 3098 0 3342 1
3374 17 67 31 92 114 56 180 -23 41 -428 489 -451 498 -9 4 -33 10 -52 14 -19
3 -1351 5 -2959 3z"/>
</g>
</svg>
