<?xml version="1.0" standalone="no"?>
<!DOCTYPE svg PUBLIC "-//W3C//DTD SVG 20010904//EN"
 "http://www.w3.org/TR/2001/REC-SVG-20010904/DTD/svg10.dtd">
<svg version="1.0" xmlns="http://www.w3.org/2000/svg"
 width="1024.000000pt" height="1024.000000pt" viewBox="0 0 1024.000000 1024.000000"
 preserveAspectRatio="xMidYMid meet">
<metadata>
Created by potrace 1.16, written by Peter Selinger 2001-2019
</metadata>
<g transform="translate(0.000000,1024.000000) scale(0.100000,-0.100000)"
fill="#000000" stroke="none">
<path d="M4584 7936 c-47 -21 -108 -80 -127 -123 -15 -35 -68 -236 -228 -863
-33 -129 -82 -320 -109 -425 -373 -1451 -411 -1606 -408 -1654 l2 -45 -124
-52 c-221 -91 -1004 -424 -1849 -785 -375 -160 -528 -230 -538 -246 -56 -85
-21 -217 64 -251 36 -15 548 -200 913 -332 157 -56 371 -133 475 -171 447
-162 463 -169 1180 -434 233 -87 658 -243 900 -330 50 -18 214 -79 365 -135
525 -195 607 -222 685 -223 45 -1 89 5 125 17 52 18 419 259 972 639 299 205
873 597 1018 696 229 155 257 178 274 224 8 23 18 67 21 98 6 51 10 59 43 80
20 13 44 38 53 54 10 17 65 217 123 445 57 228 134 530 170 670 60 237 112
444 377 1490 55 217 132 518 170 668 40 158 69 293 69 322 0 59 -21 114 -56
151 -53 55 15 46 -1329 189 -154 17 -316 34 -360 40 -44 5 -267 30 -495 55
-391 42 -547 60 -1090 120 -124 14 -326 36 -450 50 -124 13 -330 36 -458 50
-262 28 -333 30 -378 11z m321 -370 c529 -63 742 -89 880 -106 196 -24 575
-70 870 -105 121 -14 326 -39 455 -55 129 -16 372 -46 540 -65 801 -95 1035
-126 1056 -140 43 -28 40 -54 -61 -446 -52 -206 -196 -772 -320 -1259 -314
-1239 -301 -1192 -327 -1212 -13 -10 -31 -18 -42 -18 -10 0 -262 60 -560 134
-297 74 -653 162 -791 196 -137 34 -540 133 -895 221 -355 88 -728 180 -830
205 -501 122 -717 176 -742 185 -57 23 -56 33 47 429 163 621 309 1188 415
1605 56 220 107 406 113 414 11 13 44 29 62 30 6 1 64 -6 130 -13z m-866
-4112 c295 -97 555 -182 578 -190 41 -15 57 -32 45 -51 -7 -11 -371 -222 -459
-267 -29 -14 -60 -26 -70 -26 -10 0 -113 32 -228 71 -116 39 -363 123 -550
186 -187 63 -355 122 -373 130 -67 32 -49 47 228 190 140 72 263 132 274 132
10 1 260 -78 555 -175z"/>
</g>
</svg>
