<?xml version="1.0" standalone="no"?>
<!DOCTYPE svg PUBLIC "-//W3C//DTD SVG 20010904//EN"
 "http://www.w3.org/TR/2001/REC-SVG-20010904/DTD/svg10.dtd">
<svg version="1.0" xmlns="http://www.w3.org/2000/svg"
 width="1024.000000pt" height="1024.000000pt" viewBox="0 0 1024.000000 1024.000000"
 preserveAspectRatio="xMidYMid meet">
<metadata>
Created by potrace 1.16, written by Peter Selinger 2001-2019
</metadata>
<g transform="translate(0.000000,1024.000000) scale(0.100000,-0.100000)"
fill="#000000" stroke="none">
<path d="M2128 7690 c-80 -24 -169 -114 -193 -193 -13 -44 -15 -292 -15 -1935
0 -1395 3 -1895 12 -1923 6 -21 19 -46 29 -55 20 -18 75 44 -564 -627 -138
-144 -205 -223 -219 -255 -25 -56 -26 -131 -3 -190 21 -52 99 -124 153 -140
30 -9 923 -12 3799 -12 l3759 0 52 26 c122 61 175 210 116 326 -9 18 -78 96
-153 173 -113 116 -445 462 -604 632 l-39 41 21 23 c12 13 26 39 32 59 7 23 9
663 7 1935 l-3 1900 -21 46 c-31 67 -78 114 -146 149 l-61 30 -2966 -1 c-1631
0 -2978 -4 -2993 -9z m5753 -409 l29 -29 0 -1617 0 -1617 -28 -28 c-26 -25
-37 -28 -123 -34 -141 -10 -5361 -2 -5382 8 -10 5 -25 23 -35 40 -16 29 -17
140 -20 1581 -2 853 0 1578 3 1612 5 48 12 68 32 87 l26 26 2734 0 2735 0 29
-29z m-1914 -4453 c32 -30 31 -81 -2 -113 l-24 -25 -824 0 -824 0 -20 23 c-11
12 -23 30 -26 40 -8 22 9 68 30 85 13 9 197 12 842 12 l825 0 23 -22z"/>
</g>
</svg>
