<?xml version="1.0" standalone="no"?>
<!DOCTYPE svg PUBLIC "-//W3C//DTD SVG 20010904//EN"
 "http://www.w3.org/TR/2001/REC-SVG-20010904/DTD/svg10.dtd">
<svg version="1.0" xmlns="http://www.w3.org/2000/svg"
 width="1024.000000pt" height="1024.000000pt" viewBox="0 0 1024.000000 1024.000000"
 preserveAspectRatio="xMidYMid meet">
<metadata>
Created by potrace 1.16, written by Peter Selinger 2001-2019
</metadata>
<g transform="translate(0.000000,1024.000000) scale(0.100000,-0.100000)"
fill="#000000" stroke="none">
<path d="M4972 9470 c-120 -32 -206 -83 -302 -179 -132 -132 -190 -274 -190
-462 0 -74 -16 -120 -47 -135 -10 -5 -133 -11 -273 -14 -252 -5 -256 -5 -313
-32 -40 -19 -82 -52 -132 -103 l-74 -75 -489 0 c-428 0 -495 -2 -538 -17 -106
-35 -183 -112 -215 -214 -18 -59 -19 -160 -19 -3434 0 -3350 0 -3373 20 -3438
25 -82 85 -151 167 -192 l58 -30 2500 0 2500 0 55 26 c72 34 136 97 168 167
l27 57 0 3410 0 3410 -22 47 c-26 55 -84 122 -133 153 -87 54 -94 55 -627 55
l-494 0 -74 75 c-50 51 -92 84 -132 103 -57 27 -61 27 -311 32 l-254 5 -23 27
c-20 23 -24 42 -30 135 -11 175 -35 248 -122 371 -82 116 -236 218 -388 257
-80 20 -204 18 -293 -5z m270 -416 c111 -78 124 -231 27 -318 -50 -46 -76 -56
-143 -56 -77 0 -132 32 -174 101 -30 49 -33 60 -30 116 5 77 41 135 108 171
64 34 152 28 212 -14z m-1650 -1238 c3 -116 14 -140 78 -184 l33 -22 1428 2
1428 3 32 30 c47 45 59 82 59 185 l0 91 284 -3 284 -3 26 -24 26 -24 0 -3023
0 -3023 -24 -28 -24 -28 -2081 -3 c-2270 -2 -2139 -6 -2161 53 -7 17 -10 1063
-10 3026 0 3313 -5 3048 63 3068 17 5 150 10 294 10 l261 1 4 -104z"/>
</g>
</svg>
