<?xml version="1.0" standalone="no"?>
<!DOCTYPE svg PUBLIC "-//W3C//DTD SVG 20010904//EN"
 "http://www.w3.org/TR/2001/REC-SVG-20010904/DTD/svg10.dtd">
<svg version="1.0" xmlns="http://www.w3.org/2000/svg"
 width="1024.000000pt" height="1024.000000pt" viewBox="0 0 1024.000000 1024.000000"
 preserveAspectRatio="xMidYMid meet">
<metadata>
Created by potrace 1.16, written by Peter Selinger 2001-2019
</metadata>
<g transform="translate(0.000000,1024.000000) scale(0.100000,-0.100000)"
fill="#000000" stroke="none">
<path d="M8105 7688 c-62 -35 -315 -293 -701 -713 -312 -340 -686 -784 -1274
-1515 -348 -433 -437 -537 -590 -690 -349 -350 -703 -557 -1059 -621 -164 -30
-421 -23 -562 14 -115 30 -223 79 -332 148 -76 49 -81 51 -116 40 -20 -5 -83
-44 -141 -85 -258 -185 -526 -307 -1225 -561 -468 -171 -598 -245 -633 -364
-36 -119 11 -222 124 -276 160 -76 658 -167 1174 -215 485 -44 1359 -70 1800
-52 400 17 511 36 685 117 178 83 295 192 505 471 608 808 854 1098 1153 1361
338 297 624 452 835 453 135 0 187 -56 217 -234 45 -263 84 -1103 85 -1813 0
-144 4 -273 10 -287 18 -48 54 -61 166 -61 89 0 106 3 131 21 l28 21 2 214 c5
490 34 1137 63 1424 42 404 92 626 250 1110 77 237 93 292 115 420 18 106 21
325 5 439 -44 313 -203 664 -474 1046 -136 192 -177 224 -241 188z"/>
</g>
</svg>
