<?xml version="1.0" standalone="no"?>
<!DOCTYPE svg PUBLIC "-//W3C//DTD SVG 20010904//EN"
 "http://www.w3.org/TR/2001/REC-SVG-20010904/DTD/svg10.dtd">
<svg version="1.0" xmlns="http://www.w3.org/2000/svg"
 width="1024.000000pt" height="1024.000000pt" viewBox="0 0 1024.000000 1024.000000"
 preserveAspectRatio="xMidYMid meet">
<metadata>
Created by potrace 1.16, written by Peter Selinger 2001-2019
</metadata>
<g transform="translate(0.000000,1024.000000) scale(0.100000,-0.100000)"
fill="#000000" stroke="none">
<path d="M4400 8183 c-14 -2 -54 -13 -90 -25 -215 -69 -385 -218 -480 -420
-61 -131 -70 -197 -70 -502 l0 -265 -868 -3 -867 -3 -67 -33 c-76 -37 -125
-88 -166 -172 l-27 -55 0 -695 0 -695 24 -65 c33 -88 129 -186 216 -221 l60
-24 1215 -3 1215 -2 0 127 c1 111 4 135 23 178 28 60 62 98 122 133 l45 27
430 0 430 0 51 -27 c110 -58 144 -132 144 -315 l0 -123 1218 2 1217 3 65 31
c134 64 219 176 239 314 14 97 6 1314 -9 1365 -29 97 -100 177 -199 224 l-56
26 -867 3 -866 2 -5 293 c-5 322 -9 351 -72 483 -74 154 -202 282 -360 359
-177 87 -154 85 -934 84 -377 -1 -697 -4 -711 -6z m1451 -456 c67 -32 142
-109 172 -175 21 -44 22 -64 25 -314 l3 -268 -930 0 -931 0 0 248 c0 276 6
314 63 398 17 26 54 63 81 81 93 64 74 62 801 60 l660 -2 56 -28z"/>
<path d="M4718 5282 c-57 -35 -59 -50 -56 -416 3 -322 4 -336 24 -363 39 -52
42 -53 432 -53 303 0 368 2 392 15 61 31 60 26 60 410 0 384 1 379 -60 410
-24 13 -90 15 -397 15 -329 -1 -371 -2 -395 -18z"/>
<path d="M8437 5054 c-63 -70 -135 -119 -216 -144 -61 -19 -96 -20 -1272 -20
l-1209 0 0 -190 c0 -222 -11 -268 -82 -337 -86 -84 -79 -83 -543 -83 -459 0
-450 -1 -533 74 -72 66 -83 107 -85 337 l-1 199 -1206 0 c-989 0 -1214 3
-1256 14 -81 21 -150 64 -215 134 l-59 63 2 -1283 3 -1283 26 -56 c34 -72 96
-134 168 -168 l56 -26 3105 0 3105 0 60 28 c76 35 146 110 177 185 l23 57 1
1278 c1 702 1 1277 0 1277 0 0 -23 -25 -49 -56z"/>
</g>
</svg>
