<?xml version="1.0" standalone="no"?>
<!DOCTYPE svg PUBLIC "-//W3C//DTD SVG 20010904//EN"
 "http://www.w3.org/TR/2001/REC-SVG-20010904/DTD/svg10.dtd">
<svg version="1.0" xmlns="http://www.w3.org/2000/svg"
 width="1024.000000pt" height="1024.000000pt" viewBox="0 0 1024.000000 1024.000000"
 preserveAspectRatio="xMidYMid meet">
<metadata>
Created by potrace 1.16, written by Peter Selinger 2001-2019
</metadata>
<g transform="translate(0.000000,1024.000000) scale(0.100000,-0.100000)"
fill="#000000" stroke="none">
<path d="M4855 8640 c-395 -80 -732 -352 -945 -762 -190 -366 -281 -815 -322
-1590 l-12 -227 -481 -3 c-446 -3 -482 -4 -515 -22 -72 -38 -122 -103 -134
-176 -3 -19 -15 -145 -26 -280 -11 -135 -36 -423 -55 -640 -75 -861 -188
-2177 -212 -2480 -18 -229 -13 -289 31 -385 51 -111 181 -212 305 -235 74 -14
5157 -14 5232 0 135 25 264 124 322 247 56 121 58 95 -113 1858 -76 791 -105
1094 -150 1590 -17 182 -35 346 -41 365 -17 52 -54 96 -107 127 l-47 28 -476
3 -476 3 -7 153 c-7 176 -28 409 -56 641 -85 687 -247 1093 -559 1406 -212
211 -447 338 -710 384 -116 21 -332 18 -446 -5z m488 -304 c172 -51 322 -143
459 -283 260 -267 411 -681 482 -1323 17 -152 46 -541 46 -622 l0 -48 -1225 0
-1225 0 0 43 c0 23 7 148 15 277 59 918 208 1398 532 1711 151 146 293 221
499 264 107 23 306 13 417 -19z m-1773 -2541 l0 -85 158 0 157 0 2 81 c0 44 3
83 6 85 8 9 60 -22 87 -51 l25 -27 3 -371 c4 -498 22 -468 -277 -467 -105 0
-200 4 -213 9 -13 5 -32 19 -43 31 -19 21 -20 38 -23 404 -2 368 -2 382 18
414 17 28 66 60 93 62 4 0 7 -38 7 -85z m2760 0 l0 -85 160 0 160 0 0 85 c0
95 5 100 61 62 59 -40 59 -38 59 -440 0 -403 -1 -412 -58 -441 -29 -15 -85
-18 -306 -17 l-118 1 -40 39 -39 39 3 379 c3 360 4 379 23 405 18 23 67 56 88
57 4 1 7 -37 7 -84z"/>
<path d="M3570 5340 l0 -300 158 0 157 0 -2 297 -3 298 -155 3 -155 3 0 -301z"/>
<path d="M6330 5340 l0 -300 160 0 160 0 0 300 0 300 -160 0 -160 0 0 -300z"/>
</g>
</svg>
