<?xml version="1.0" standalone="no"?>
<!DOCTYPE svg PUBLIC "-//W3C//DTD SVG 20010904//EN"
 "http://www.w3.org/TR/2001/REC-SVG-20010904/DTD/svg10.dtd">
<svg version="1.0" xmlns="http://www.w3.org/2000/svg"
 width="1024.000000pt" height="1024.000000pt" viewBox="0 0 1024.000000 1024.000000"
 preserveAspectRatio="xMidYMid meet">
<metadata>
Created by potrace 1.16, written by Peter Selinger 2001-2019
</metadata>
<g transform="translate(0.000000,1024.000000) scale(0.100000,-0.100000)"
fill="#000000" stroke="none">
<path d="M7605 8155 c-29 -10 -73 -48 -162 -141 -117 -121 -124 -126 -155
-120 -151 28 -158 26 -276 -87 -52 -51 -158 -159 -235 -242 -77 -82 -233 -247
-346 -365 -197 -206 -438 -461 -861 -910 -301 -319 -677 -717 -755 -800 -40
-41 -118 -124 -175 -185 -57 -60 -188 -198 -290 -306 -366 -384 -517 -603
-690 -994 -100 -228 -118 -286 -100 -339 31 -94 89 -90 313 22 178 89 471 271
597 371 72 57 381 375 980 1011 101 107 288 305 415 440 127 135 262 279 300
320 38 41 119 127 180 190 61 63 196 207 300 320 239 258 736 784 782 828 l35
34 23 -22 c74 -70 26 -164 -216 -426 -423 -455 -546 -589 -556 -608 -7 -11
-12 -44 -13 -73 0 -44 5 -58 31 -87 20 -23 43 -38 67 -42 64 -12 105 21 304
239 101 111 216 237 257 282 364 393 412 454 462 580 20 52 23 78 24 185 0
114 -3 130 -26 180 -46 98 -117 160 -183 160 -17 0 -26 5 -26 16 0 9 51 69
114 133 63 65 120 131 129 147 41 82 27 173 -37 239 -59 62 -130 78 -211 50z"/>
<path d="M3001 7924 c-134 -36 -260 -130 -340 -253 -60 -94 -80 -157 -91 -289
-6 -71 -10 -1043 -10 -2472 0 -2621 -5 -2425 71 -2578 95 -193 283 -328 504
-362 48 -7 684 -10 2055 -8 l1985 3 36 24 c102 69 114 191 28 273 -21 20 -51
39 -66 42 l-28 6 3 302 3 301 46 61 c25 34 55 81 67 106 l21 45 2 1495 3 1495
-143 -146 c-161 -165 -211 -198 -319 -206 -107 -8 -191 34 -268 136 -16 21
-30 30 -40 27 -8 -4 -155 -153 -325 -333 -171 -180 -456 -481 -635 -668 -179
-188 -402 -424 -497 -526 -94 -101 -236 -247 -315 -325 -128 -126 -165 -155
-351 -278 -321 -212 -606 -357 -729 -372 -115 -13 -212 33 -262 126 -22 41
-29 69 -33 134 -7 107 5 147 117 388 111 237 174 355 248 467 153 229 244 334
808 926 105 110 235 248 290 306 315 339 655 701 765 814 69 71 202 211 295
311 342 366 582 621 684 729 182 192 260 282 260 299 0 15 -147 16 -1892 15
-1618 0 -1901 -2 -1947 -15z m3839 -5013 c6 -12 10 -129 10 -310 l0 -291
-1872 2 -1873 3 -47 22 c-61 28 -124 86 -150 137 -29 57 -35 160 -13 227 35
110 100 174 212 209 56 18 132 19 1890 19 1802 1 1832 1 1843 -18z"/>
</g>
</svg>
