<?xml version="1.0" standalone="no"?>
<!DOCTYPE svg PUBLIC "-//W3C//DTD SVG 20010904//EN"
 "http://www.w3.org/TR/2001/REC-SVG-20010904/DTD/svg10.dtd">
<svg version="1.0" xmlns="http://www.w3.org/2000/svg"
 width="1024.000000pt" height="1024.000000pt" viewBox="0 0 1024.000000 1024.000000"
 preserveAspectRatio="xMidYMid meet">
<metadata>
Created by potrace 1.16, written by Peter Selinger 2001-2019
</metadata>
<g transform="translate(0.000000,1024.000000) scale(0.100000,-0.100000)"
fill="#000000" stroke="none">
<path d="M1576 8685 c-53 -19 -105 -73 -116 -121 -14 -60 -13 -4099 1 -4149
14 -51 73 -110 124 -124 27 -7 209 -11 553 -11 l512 0 0 -1237 0 -1238 -176
-90 c-97 -49 -182 -99 -190 -110 -39 -54 9 -145 76 -145 21 0 94 33 213 96
541 288 493 259 508 296 17 42 -15 100 -62 112 -33 8 -45 5 -103 -27 -37 -21
-70 -37 -74 -37 -4 0 -7 536 -7 1190 l0 1190 2278 0 2277 0 0 -1190 c0 -654
-2 -1190 -5 -1190 -3 0 -37 16 -75 35 -94 47 -129 46 -155 -6 -21 -40 -18 -76
8 -102 20 -21 254 -148 561 -306 65 -34 129 -61 143 -61 41 0 80 27 93 65 21
64 5 79 -197 185 l-183 95 0 1238 0 1237 518 0 c480 0 520 2 557 19 50 22 91
69 105 119 7 25 10 707 10 2087 0 1992 -1 2051 -19 2092 -12 26 -35 52 -62 70
l-43 28 -3515 2 c-2994 2 -3522 0 -3555 -12z m6996 -192 c17 -15 18 -91 18
-1997 0 -1090 -4 -1986 -8 -1992 -4 -6 -17 -16 -29 -23 -16 -8 -885 -11 -3446
-11 l-3424 0 -27 21 -26 20 0 1984 0 1984 22 15 c20 14 365 16 3462 16 3186 0
3441 -1 3458 -17z"/>
</g>
</svg>
