<?xml version="1.0" standalone="no"?>
<!DOCTYPE svg PUBLIC "-//W3C//DTD SVG 20010904//EN"
 "http://www.w3.org/TR/2001/REC-SVG-20010904/DTD/svg10.dtd">
<svg version="1.0" xmlns="http://www.w3.org/2000/svg"
 width="1024.000000pt" height="1024.000000pt" viewBox="0 0 1024.000000 1024.000000"
 preserveAspectRatio="xMidYMid meet">
<metadata>
Created by potrace 1.16, written by Peter Selinger 2001-2019
</metadata>
<g transform="translate(0.000000,1024.000000) scale(0.100000,-0.100000)"
fill="#000000" stroke="none">
<path d="M5016 8744 c-99 -36 -140 -83 -156 -180 -6 -33 -13 -69 -15 -80 -5
-22 -66 -65 -205 -145 -103 -58 -179 -140 -234 -250 -89 -176 -96 -257 -96
-1099 l0 -685 -26 -55 c-66 -142 -71 -222 -15 -272 17 -15 42 -30 56 -34 102
-25 209 90 235 253 6 33 10 371 10 768 0 407 4 748 10 800 14 123 44 218 81
258 l30 32 -6 -245 c-3 -135 -10 -400 -16 -590 -27 -848 -31 -1626 -14 -2350
3 -118 10 -420 15 -670 24 -1060 34 -1311 66 -1560 44 -349 156 -775 257 -976
13 -27 28 -71 32 -99 13 -90 84 -147 144 -115 30 16 61 69 61 105 0 17 12 57
26 90 111 258 222 703 263 1055 28 239 51 989 72 2345 13 809 2 2149 -22 2700
-16 387 -47 508 -166 657 -26 32 -31 48 -35 116 -7 91 -31 148 -80 185 -71 53
-190 71 -272 41z"/>
</g>
</svg>
