<?xml version="1.0" standalone="no"?>
<!DOCTYPE svg PUBLIC "-//W3C//DTD SVG 20010904//EN"
 "http://www.w3.org/TR/2001/REC-SVG-20010904/DTD/svg10.dtd">
<svg version="1.0" xmlns="http://www.w3.org/2000/svg"
 width="1024.000000pt" height="1024.000000pt" viewBox="0 0 1024.000000 1024.000000"
 preserveAspectRatio="xMidYMid meet">
<metadata>
Created by potrace 1.16, written by Peter Selinger 2001-2019
</metadata>
<g transform="translate(0.000000,1024.000000) scale(0.100000,-0.100000)"
fill="#000000" stroke="none">
<path d="M4697 8325 c-338 -46 -671 -189 -937 -402 -88 -71 -257 -241 -325
-328 -240 -307 -376 -669 -415 -1108 -5 -62 -11 -232 -12 -380 l-3 -267 1008
0 1007 0 0 293 0 292 -36 35 c-20 19 -48 57 -63 85 l-26 50 0 355 c0 402 -1
397 84 492 l41 46 0 426 0 426 -112 -1 c-62 -1 -157 -7 -211 -14z"/>
<path d="M5220 7914 l0 -426 40 -45 c21 -25 49 -66 62 -91 22 -46 23 -57 26
-362 2 -209 0 -335 -8 -375 -13 -68 -44 -126 -89 -169 l-31 -30 0 -288 0 -288
1010 0 1010 0 0 265 c0 511 -61 836 -214 1150 -224 456 -656 829 -1148 989
-170 56 -413 96 -580 96 l-78 0 0 -426z"/>
<path d="M3003 4733 c3 -912 4 -953 25 -1073 28 -165 46 -242 89 -375 225
-698 736 -1194 1406 -1366 182 -47 287 -60 514 -66 248 -6 378 4 573 43 852
174 1460 839 1606 1759 16 98 18 217 21 1068 l4 957 -2121 0 -2121 0 4 -947z"/>
</g>
</svg>
