<?xml version="1.0" standalone="no"?>
<!DOCTYPE svg PUBLIC "-//W3C//DTD SVG 20010904//EN"
 "http://www.w3.org/TR/2001/REC-SVG-20010904/DTD/svg10.dtd">
<svg version="1.0" xmlns="http://www.w3.org/2000/svg"
 width="1024.000000pt" height="1024.000000pt" viewBox="0 0 1024.000000 1024.000000"
 preserveAspectRatio="xMidYMid meet">
<metadata>
Created by potrace 1.16, written by Peter Selinger 2001-2019
</metadata>
<g transform="translate(0.000000,1024.000000) scale(0.100000,-0.100000)"
fill="#000000" stroke="none">
<path d="M1612 8479 c-48 -10 -108 -53 -139 -101 l-28 -42 -3 -2474 c-1 -1707
1 -2486 8 -2513 15 -53 64 -107 125 -135 l50 -24 1328 0 c1055 0 1327 -3 1327
-12 0 -48 -106 -717 -119 -749 -5 -15 -86 -78 -217 -169 -115 -80 -223 -159
-240 -176 -42 -39 -52 -89 -29 -138 34 -71 -71 -66 1440 -66 1245 0 1370 1
1401 16 61 29 81 101 45 159 -10 18 -104 91 -227 178 -115 81 -216 152 -225
159 -35 29 -38 42 -104 493 -20 132 -38 255 -41 272 l-6 33 1338 2 1339 3 40
22 c47 25 86 65 109 110 15 29 16 250 16 2513 0 2421 0 2482 -19 2518 -22 43
-63 83 -108 106 -30 15 -318 17 -3530 19 -1924 2 -3513 0 -3531 -4z m6684
-513 l34 -34 0 -1816 c0 -1997 4 -1858 -60 -1891 -26 -13 -380 -15 -3150 -15
-3431 0 -3165 -5 -3203 59 -16 27 -17 151 -17 1846 l0 1817 34 34 34 34 3147
0 3147 0 34 -34z m-3098 -4126 c71 -43 93 -135 49 -201 -29 -43 -60 -59 -116
-59 -144 0 -193 184 -69 260 18 11 49 20 68 20 19 0 50 -9 68 -20z"/>
</g>
</svg>
