<?xml version="1.0" standalone="no"?>
<!DOCTYPE svg PUBLIC "-//W3C//DTD SVG 20010904//EN"
 "http://www.w3.org/TR/2001/REC-SVG-20010904/DTD/svg10.dtd">
<svg version="1.0" xmlns="http://www.w3.org/2000/svg"
 width="1024.000000pt" height="1024.000000pt" viewBox="0 0 1024.000000 1024.000000"
 preserveAspectRatio="xMidYMid meet">
<metadata>
Created by potrace 1.16, written by Peter Selinger 2001-2019
</metadata>
<g transform="translate(0.000000,1024.000000) scale(0.100000,-0.100000)"
fill="#000000" stroke="none">
<path d="M4855 8403 c-570 -48 -1057 -214 -1515 -518 -318 -210 -634 -514
-850 -815 -569 -793 -751 -1776 -500 -2704 216 -801 746 -1518 1427 -1932 428
-260 926 -426 1428 -475 238 -23 626 0 879 52 555 115 1103 402 1549 810 48
45 87 85 85 90 -4 11 -433 444 -1471 1485 l-819 821 41 624 c23 343 50 759 61
924 11 165 38 566 60 890 21 325 42 624 45 666 l5 76 -37 7 c-38 6 -313 6
-388 -1z"/>
<path d="M5487 7989 c-16 -217 -33 -448 -38 -514 -13 -173 -36 -489 -69 -985
-17 -239 -37 -527 -45 -640 -8 -113 -19 -274 -24 -359 l-10 -154 842 -851
c463 -468 967 -977 1120 -1131 l278 -280 40 45 c67 75 233 299 296 400 223
355 375 762 444 1195 30 188 37 577 14 775 -43 372 -130 695 -271 1003 -180
393 -406 713 -715 1011 -383 369 -817 629 -1286 771 -133 41 -374 91 -478 101
l-70 6 -28 -393z"/>
</g>
</svg>
