<?xml version="1.0" standalone="no"?>
<!DOCTYPE svg PUBLIC "-//W3C//DTD SVG 20010904//EN"
 "http://www.w3.org/TR/2001/REC-SVG-20010904/DTD/svg10.dtd">
<svg version="1.0" xmlns="http://www.w3.org/2000/svg"
 width="1024.000000pt" height="1024.000000pt" viewBox="0 0 1024.000000 1024.000000"
 preserveAspectRatio="xMidYMid meet">
<metadata>
Created by potrace 1.16, written by Peter Selinger 2001-2019
</metadata>
<g transform="translate(0.000000,1024.000000) scale(0.100000,-0.100000)"
fill="#000000" stroke="none">
<path d="M4965 8585 c-176 -29 -331 -93 -480 -200 -202 -144 -299 -290 -373
-563 -24 -90 -26 -112 -26 -297 1 -307 35 -547 154 -1086 135 -609 178 -875
201 -1251 9 -150 10 -239 1 -375 -19 -289 -37 -366 -158 -648 -39 -93 -77
-190 -84 -214 -16 -61 -14 -152 5 -198 18 -43 61 -92 84 -95 9 -1 -225 -5
-519 -8 l-535 -5 -50 -25 c-59 -29 -135 -102 -163 -156 -43 -84 -44 -108 -45
-634 0 -553 -1 -542 59 -589 l27 -21 2051 0 c1989 0 2052 1 2082 19 66 40 65
33 62 614 l-3 522 -33 67 c-41 83 -98 143 -170 176 l-57 27 -521 3 -521 3 37
37 c56 56 73 139 49 241 -5 24 -41 118 -79 208 -155 365 -165 418 -165 868 1
459 23 624 180 1325 135 608 163 789 172 1117 6 244 2 283 -49 443 -100 312
-265 491 -579 625 -172 74 -373 99 -554 70z"/>
<path d="M3300 2031 c-19 -10 -45 -33 -57 -51 -20 -29 -23 -46 -23 -130 0 -84
3 -102 23 -131 12 -19 38 -42 57 -51 33 -17 141 -18 1820 -18 1680 0 1787 1
1819 18 65 32 76 60 76 182 0 122 -11 150 -76 182 -32 17 -139 18 -1819 18
-1718 0 -1787 -1 -1820 -19z"/>
</g>
</svg>
