<?xml version="1.0" standalone="no"?>
<!DOCTYPE svg PUBLIC "-//W3C//DTD SVG 20010904//EN"
 "http://www.w3.org/TR/2001/REC-SVG-20010904/DTD/svg10.dtd">
<svg version="1.0" xmlns="http://www.w3.org/2000/svg"
 width="1024.000000pt" height="1024.000000pt" viewBox="0 0 1024.000000 1024.000000"
 preserveAspectRatio="xMidYMid meet">
<metadata>
Created by potrace 1.16, written by Peter Selinger 2001-2019
</metadata>
<g transform="translate(0.000000,1024.000000) scale(0.100000,-0.100000)"
fill="#000000" stroke="none">
<path d="M4442 8164 c-28 -14 -64 -42 -80 -62 -66 -85 -1162 -1734 -1162
-1748 0 -9 13 -29 30 -44 35 -32 -4 -22 740 -205 305 -75 926 -229 1380 -342
873 -216 976 -242 1982 -487 350 -85 653 -164 675 -175 21 -12 50 -31 65 -42
18 -15 34 -20 51 -15 25 6 18 -7 415 746 80 151 244 462 365 690 121 228 236
443 254 478 52 100 42 196 -27 250 -34 26 -94 43 -330 91 -107 22 -334 70
-505 106 -170 36 -375 80 -455 96 -80 17 -311 66 -515 109 -203 43 -509 109
-680 145 -170 36 -434 92 -585 125 -1145 247 -1451 310 -1512 310 -38 0 -69
-8 -106 -26z"/>
<path d="M3080 6173 c-23 -12 -91 -87 -195 -214 -208 -254 -804 -981 -922
-1123 -327 -396 -496 -607 -520 -651 l-28 -50 -3 -230 c-2 -142 1 -244 7 -265
14 -47 73 -116 120 -139 20 -11 63 -27 96 -36 33 -10 211 -61 395 -115 379
-110 898 -261 1290 -375 146 -42 373 -108 505 -147 132 -38 362 -105 510 -148
447 -129 1462 -425 1753 -512 301 -89 370 -100 449 -74 100 33 130 71 399 503
64 103 214 343 332 533 118 190 271 435 340 545 133 211 245 391 321 515 l46
75 9 320 c8 299 8 324 -9 359 -29 61 -71 81 -280 131 -215 51 -538 130 -1150
281 -231 56 -541 132 -690 169 -731 179 -1035 253 -1810 445 -462 115 -860
211 -885 215 -33 4 -54 1 -80 -12z m1653 -617 c1562 -390 2056 -512 2372 -586
121 -29 230 -58 243 -66 12 -8 22 -24 22 -38 0 -14 -128 -217 -318 -502 -175
-263 -367 -555 -427 -649 -135 -208 -168 -245 -220 -245 -38 0 -157 33 -875
240 -512 148 -1056 302 -1431 405 -642 177 -844 236 -879 260 -19 12 -69 56
-110 97 -86 84 -61 74 -440 178 -283 78 -309 91 -296 145 4 14 62 91 129 172
67 82 261 318 431 526 169 207 317 384 329 392 12 8 36 15 54 15 18 0 655
-155 1416 -344z"/>
<path d="M3449 5599 c-15 -6 -80 -77 -160 -176 -74 -91 -180 -223 -236 -292
-84 -102 -103 -131 -103 -158 0 -23 7 -37 23 -47 12 -8 231 -67 487 -131 497
-125 531 -130 588 -88 27 19 376 457 432 542 59 87 39 107 -163 157 -84 20
-300 75 -481 121 -180 45 -336 83 -345 82 -9 0 -28 -5 -42 -10z"/>
<path d="M4885 4443 c-33 -8 -65 -44 -65 -74 0 -35 33 -54 135 -80 39 -10 358
-92 710 -183 352 -91 657 -166 678 -166 45 0 87 36 87 74 0 39 -42 60 -200
101 -534 137 -1255 319 -1300 328 -14 2 -34 2 -45 0z"/>
<path d="M5002 4085 c-42 -18 -51 -61 -20 -92 26 -25 45 -31 513 -157 530
-142 665 -176 693 -176 40 0 96 40 100 71 6 53 54 38 -843 265 -418 106 -406
104 -443 89z"/>
</g>
</svg>
