<?xml version="1.0" standalone="no"?>
<!DOCTYPE svg PUBLIC "-//W3C//DTD SVG 20010904//EN"
 "http://www.w3.org/TR/2001/REC-SVG-20010904/DTD/svg10.dtd">
<svg version="1.0" xmlns="http://www.w3.org/2000/svg"
 width="1024.000000pt" height="1024.000000pt" viewBox="0 0 1024.000000 1024.000000"
 preserveAspectRatio="xMidYMid meet">
<metadata>
Created by potrace 1.16, written by Peter Selinger 2001-2019
</metadata>
<g transform="translate(0.000000,1024.000000) scale(0.100000,-0.100000)"
fill="#000000" stroke="none">
<path d="M2635 7461 c-46 -12 -72 -28 -99 -64 -21 -28 -237 -574 -531 -1347
-34 -91 -153 -402 -264 -692 -178 -466 -201 -534 -201 -585 0 -90 43 -148 130
-177 35 -12 2130 -366 2162 -366 4 0 47 -40 95 -88 194 -196 391 -280 628
-269 137 6 241 38 366 114 49 29 101 53 116 53 19 0 2241 -368 2583 -428 52
-9 62 -30 31 -61 -35 -35 94 -53 -1391 194 -491 81 -1060 174 -1170 191 -29 4
-52 -3 -120 -40 -215 -113 -440 -141 -670 -85 -167 41 -302 119 -436 251 l-81
80 -444 74 c-1493 249 -1642 275 -1712 305 -38 16 -73 27 -77 24 -14 -8 -39
-95 -51 -175 -28 -187 39 -385 147 -430 26 -10 211 -45 649 -120 349 -60 659
-114 1550 -270 281 -50 575 -101 655 -115 80 -14 352 -61 605 -106 253 -44
638 -111 855 -149 217 -37 618 -107 890 -155 272 -48 547 -96 610 -107 170
-29 249 -13 293 61 9 16 76 267 148 558 72 290 231 935 355 1432 l224 904 0
111 c0 123 -16 495 -26 594 -7 81 -23 97 -100 106 -64 7 -600 81 -1089 151
-170 24 -411 58 -535 75 -124 17 -335 46 -470 65 -135 19 -362 50 -505 70
-143 19 -420 58 -615 85 -195 27 -472 66 -615 85 -143 19 -370 51 -505 70
-481 69 -1246 174 -1300 179 -30 2 -68 1 -85 -3z"/>
</g>
</svg>
