<?xml version="1.0" standalone="no"?>
<!DOCTYPE svg PUBLIC "-//W3C//DTD SVG 20010904//EN"
 "http://www.w3.org/TR/2001/REC-SVG-20010904/DTD/svg10.dtd">
<svg version="1.0" xmlns="http://www.w3.org/2000/svg"
 width="1024.000000pt" height="1024.000000pt" viewBox="0 0 1024.000000 1024.000000"
 preserveAspectRatio="xMidYMid meet">
<metadata>
Created by potrace 1.16, written by Peter Selinger 2001-2019
</metadata>
<g transform="translate(0.000000,1024.000000) scale(0.100000,-0.100000)"
fill="#000000" stroke="none">
<path d="M3367 8299 c-155 -38 -304 -133 -429 -274 -86 -97 -140 -184 -245
-391 -181 -356 -331 -736 -534 -1344 -169 -510 -278 -898 -483 -1715 -216
-863 -230 -935 -223 -1095 8 -169 49 -273 146 -371 117 -116 209 -141 696
-190 309 -30 414 -20 560 53 73 37 175 133 220 208 69 113 130 315 201 660 35
169 39 333 11 425 -25 80 -34 310 -18 442 28 228 142 687 256 1028 117 355
234 593 344 706 60 61 100 79 178 79 92 0 187 57 227 137 9 17 36 103 62 190
25 87 87 295 137 463 83 278 91 312 90 385 -1 141 -68 281 -187 391 -122 114
-226 150 -606 210 -184 29 -296 30 -403 3z"/>
<path d="M4865 7953 c-95 -39 -129 -85 -170 -233 -15 -52 -65 -225 -112 -385
-46 -159 -110 -378 -140 -485 -30 -107 -66 -217 -80 -243 -55 -109 -136 -165
-277 -192 -95 -18 -141 -49 -208 -137 -56 -74 -141 -237 -193 -368 -125 -318
-278 -902 -316 -1203 -16 -131 -6 -364 20 -482 12 -49 21 -114 21 -143 0 -65
-47 -310 -105 -542 -54 -216 -75 -282 -127 -389 -77 -161 -235 -286 -428 -338
-127 -35 -511 -18 -845 37 -152 26 -256 72 -341 154 -32 31 -60 56 -62 56 -13
0 -56 -124 -63 -182 -25 -203 71 -383 251 -469 96 -46 95 -46 328 -69 194 -19
751 -76 1232 -125 242 -25 588 -62 1570 -170 736 -80 1945 -207 2238 -236 279
-26 549 94 707 315 78 110 16 -93 620 2023 l464 1621 11 569 c14 660 10 1209
-9 1266 -7 21 -28 56 -48 78 -61 67 -24 62 -878 114 -225 14 -552 34 -725 45
-173 11 -533 34 -800 50 -1455 91 -1465 91 -1535 63z m680 -508 c182 -14 542
-41 800 -60 441 -33 1118 -84 1585 -120 113 -8 215 -15 228 -15 15 0 22 -6 22
-19 0 -17 -45 -226 -171 -796 -28 -126 -53 -232 -54 -235 -4 -6 -129 3 -1570
115 -539 42 -1111 86 -1272 98 -161 13 -294 25 -297 28 -4 3 56 238 131 523
l138 516 65 -5 c36 -3 214 -17 395 -30z m-558 -1673 c65 -34 96 -82 101 -156
3 -52 0 -71 -22 -113 -49 -98 -150 -153 -279 -153 -77 0 -154 27 -189 66 -107
121 -23 315 162 375 47 16 181 4 227 -19z m878 -79 c76 -40 105 -88 105 -176
0 -100 -84 -199 -198 -233 -72 -22 -168 -18 -227 10 -58 27 -78 47 -100 99
-51 121 38 267 195 318 46 15 181 4 225 -18z m854 -48 c94 -33 140 -95 141
-188 1 -169 -200 -296 -383 -243 -65 19 -124 65 -143 113 -20 47 -17 127 5
171 65 126 245 195 380 147z m811 -195 c144 -23 200 -58 200 -127 0 -94 -66
-153 -180 -161 -132 -9 -310 34 -350 85 -51 65 1 174 98 203 39 12 156 12 232
0z m-2765 -394 c179 -83 155 -306 -43 -403 -50 -24 -69 -28 -147 -28 -74 0
-98 4 -132 22 -166 89 -123 329 72 408 82 34 180 34 250 1z m826 -51 c19 -3
56 -18 82 -35 88 -55 111 -157 60 -259 -57 -116 -227 -181 -364 -139 -50 14
-118 72 -135 115 -43 103 19 239 133 293 48 23 131 40 168 34 11 -2 36 -5 56
-9z m908 -71 c63 -18 125 -72 142 -121 29 -88 -16 -201 -105 -260 -89 -60
-211 -74 -301 -34 -89 39 -125 90 -125 176 0 172 201 295 389 239z m921 -200
c99 -23 137 -68 118 -141 -26 -106 -140 -151 -313 -124 -165 25 -235 66 -235
136 0 65 38 115 107 141 47 18 226 11 323 -12z m-2890 -389 c79 -40 112 -91
111 -172 -2 -170 -218 -299 -399 -239 -91 31 -152 126 -137 216 15 87 98 171
201 204 63 20 176 16 224 -9z m887 -73 c128 -66 134 -226 12 -336 -63 -58
-121 -80 -209 -80 -90 0 -156 27 -197 81 -32 41 -42 129 -23 188 23 69 101
137 190 166 47 16 181 4 227 -19z m834 -54 c90 -26 157 -121 144 -204 -25
-166 -249 -275 -411 -200 -72 33 -107 82 -112 156 -10 142 116 258 282 259 32
1 76 -4 97 -11z m924 -184 c128 -27 174 -67 161 -137 -23 -121 -144 -168 -343
-133 -115 20 -166 40 -198 78 -42 49 -25 136 35 180 54 39 191 44 345 12z
m-2910 -401 c92 -48 124 -123 93 -225 -16 -53 -80 -124 -142 -155 -61 -31
-181 -43 -240 -23 -105 34 -151 136 -112 248 29 80 85 131 184 169 52 19 166
12 217 -14z m856 -65 c53 -15 115 -70 129 -114 7 -20 10 -61 8 -90 -15 -179
-274 -296 -436 -197 -163 99 -92 340 118 404 39 11 139 10 181 -3z m943 -78
c83 -40 125 -115 112 -203 -27 -177 -276 -284 -447 -190 -180 97 -105 356 118
413 58 14 164 4 217 -20z m942 -185 c65 -19 114 -61 114 -99 0 -61 -40 -117
-105 -147 -51 -24 -195 -25 -303 -3 -127 26 -163 55 -164 128 -2 113 98 160
309 144 51 -3 118 -14 149 -23z"/>
</g>
</svg>
