<?xml version="1.0" standalone="no"?>
<!DOCTYPE svg PUBLIC "-//W3C//DTD SVG 20010904//EN"
 "http://www.w3.org/TR/2001/REC-SVG-20010904/DTD/svg10.dtd">
<svg version="1.0" xmlns="http://www.w3.org/2000/svg"
 width="1024.000000pt" height="1024.000000pt" viewBox="0 0 1024.000000 1024.000000"
 preserveAspectRatio="xMidYMid meet">
<metadata>
Created by potrace 1.16, written by Peter Selinger 2001-2019
</metadata>
<g transform="translate(0.000000,1024.000000) scale(0.100000,-0.100000)"
fill="#000000" stroke="none">
<path d="M2625 8561 c-90 -22 -172 -87 -212 -169 l-28 -57 0 -3220 0 -3220 28
-57 c32 -64 80 -111 146 -142 l46 -21 2465 0 2465 0 67 32 c109 51 181 140
208 255 5 24 10 114 10 201 l0 157 98 0 c114 0 165 19 203 71 l24 34 3 880 c1
484 0 890 -3 902 -6 26 -59 88 -89 106 -16 9 -189 13 -671 18 -725 6 -699 3
-860 79 -246 115 -397 328 -435 613 -22 160 18 353 101 494 19 32 77 101 129
154 103 103 185 154 325 200 70 23 73 24 725 29 697 5 673 4 728 54 50 45 52
56 52 355 0 173 -4 290 -11 308 -14 38 -57 83 -96 99 -20 9 -69 14 -128 14
l-95 0 0 169 0 169 98 4 c112 4 158 21 200 76 l27 35 3 292 3 291 -31 43 c-45
61 -94 81 -207 81 l-91 0 -4 188 c-3 160 -7 194 -25 239 -41 104 -121 184
-223 226 l-55 22 -2430 2 c-1337 0 -2443 -2 -2460 -6z"/>
<path d="M6695 5740 c-167 -44 -276 -121 -373 -262 -68 -100 -103 -216 -103
-352 -1 -108 13 -187 48 -270 77 -185 230 -315 429 -366 73 -19 112 -20 691
-20 662 0 654 -1 711 53 53 49 52 38 52 586 0 337 -4 519 -11 538 -15 40 -48
73 -94 94 -38 17 -78 19 -660 18 -572 0 -625 -2 -690 -19z m240 -399 c157 -71
195 -279 72 -399 -96 -94 -227 -96 -326 -6 -128 115 -102 322 51 398 63 32
143 35 203 7z"/>
</g>
</svg>
