<?xml version="1.0" standalone="no"?>
<!DOCTYPE svg PUBLIC "-//W3C//DTD SVG 20010904//EN"
 "http://www.w3.org/TR/2001/REC-SVG-20010904/DTD/svg10.dtd">
<svg version="1.0" xmlns="http://www.w3.org/2000/svg"
 width="1024.000000pt" height="1024.000000pt" viewBox="0 0 1024.000000 1024.000000"
 preserveAspectRatio="xMidYMid meet">
<metadata>
Created by potrace 1.16, written by Peter Selinger 2001-2019
</metadata>
<g transform="translate(0.000000,1024.000000) scale(0.100000,-0.100000)"
fill="#000000" stroke="none">
<path d="M2047 7888 c-36 -49 -329 -548 -335 -571 -9 -35 23 -47 130 -47 l98
0 0 -2222 c0 -2146 1 -2224 19 -2264 11 -24 33 -50 53 -62 l35 -22 2892 -1
c1590 0 2900 -3 2911 -6 18 -5 20 -14 20 -107 0 -94 2 -104 23 -124 13 -12 29
-22 36 -22 22 0 93 41 235 137 348 236 373 256 360 297 -9 27 2 20 -296 206
-201 125 -265 160 -291 160 -55 0 -67 -22 -67 -128 l0 -92 -2810 0 -2810 0 0
2125 0 2125 91 0 c100 0 129 10 129 43 0 13 -57 117 -126 232 -69 116 -141
237 -159 270 -63 112 -96 129 -138 73z"/>
<path d="M7995 7514 c-110 -30 -275 -74 -366 -98 -91 -24 -176 -49 -188 -56
-35 -18 -61 -70 -60 -120 1 -63 6 -73 81 -148 l66 -67 -225 -250 c-124 -137
-352 -392 -507 -565 -154 -173 -402 -450 -551 -614 -148 -165 -294 -326 -322
-358 -29 -32 -54 -59 -57 -61 -4 -2 -221 198 -734 677 -189 177 -360 331 -380
343 -90 55 -117 37 -459 -315 -324 -334 -693 -720 -923 -967 -51 -55 -260
-277 -464 -493 -204 -217 -379 -408 -388 -425 -33 -58 -20 -122 43 -213 40
-59 101 -89 162 -78 49 8 70 27 442 424 132 140 328 347 435 460 107 113 392
413 633 668 241 254 443 462 449 462 13 0 44 -29 368 -340 800 -766 769 -740
844 -726 45 9 80 44 347 346 187 212 1424 1604 1540 1734 l37 41 69 -66 c70
-68 111 -87 155 -74 30 9 57 33 73 65 22 43 195 738 195 784 0 36 -5 48 -26
65 -15 12 -41 21 -58 20 -17 0 -121 -25 -231 -55z"/>
</g>
</svg>
