<?xml version="1.0" standalone="no"?>
<!DOCTYPE svg PUBLIC "-//W3C//DTD SVG 20010904//EN"
 "http://www.w3.org/TR/2001/REC-SVG-20010904/DTD/svg10.dtd">
<svg version="1.0" xmlns="http://www.w3.org/2000/svg"
 width="1024.000000pt" height="1024.000000pt" viewBox="0 0 1024.000000 1024.000000"
 preserveAspectRatio="xMidYMid meet">
<metadata>
Created by potrace 1.16, written by Peter Selinger 2001-2019
</metadata>
<g transform="translate(0.000000,1024.000000) scale(0.100000,-0.100000)"
fill="#000000" stroke="none">
<path d="M5950 8965 c-341 -78 -2148 -478 -2580 -571 -140 -30 -271 -60 -290
-66 -51 -16 -97 -54 -123 -101 l-22 -42 3 -3240 c3 -3606 -4 -3291 72 -3378
22 -25 57 -52 79 -60 35 -14 324 -81 831 -192 91 -20 239 -54 330 -75 245 -57
253 -58 279 -24 l22 28 -3 3385 -3 3386 -95 13 c-397 53 -1025 144 -1030 148
-3 3 4 12 14 20 16 11 63 14 219 14 180 0 233 -4 540 -45 187 -25 343 -48 348
-50 4 -3 63 11 131 31 68 19 247 72 398 116 151 43 475 138 720 210 245 72
458 133 473 136 44 7 62 44 62 132 0 158 -80 250 -215 249 -30 0 -102 -11
-160 -24z m-2241 -1755 c237 -38 435 -70 440 -70 5 0 17 -7 25 -16 14 -13 16
-59 16 -343 0 -370 0 -369 -66 -358 -477 79 -858 148 -870 158 -12 9 -14 67
-14 343 0 324 3 356 31 356 3 0 200 -31 438 -70z m108 -4115 c108 -53 217
-188 259 -322 38 -124 25 -292 -31 -403 -59 -117 -151 -174 -281 -175 -73 0
-87 3 -156 38 -194 95 -295 336 -244 579 30 139 97 237 199 288 56 28 69 31
129 27 46 -3 85 -13 125 -32z"/>
<path d="M3622 2980 c-55 -13 -106 -54 -137 -111 -28 -50 -30 -62 -30 -154 0
-88 3 -107 27 -157 56 -121 162 -200 268 -201 61 0 101 17 141 60 54 57 64 90
64 203 0 94 -3 111 -28 164 -15 33 -43 78 -61 101 -60 72 -166 114 -244 95z"/>
<path d="M7060 8724 c-272 -75 -362 -101 -810 -234 -256 -76 -703 -209 -995
-295 -291 -86 -538 -158 -548 -161 -18 -6 -18 -126 -11 -3397 4 -1866 8 -3394
10 -3396 2 -2 220 118 486 267 535 299 959 532 1603 883 385 209 436 240 490
294 106 106 95 -244 95 3077 0 2581 -2 2912 -15 2938 -36 69 -117 76 -305 24z"/>
</g>
</svg>
