<?xml version="1.0" standalone="no"?>
<!DOCTYPE svg PUBLIC "-//W3C//DTD SVG 20010904//EN"
 "http://www.w3.org/TR/2001/REC-SVG-20010904/DTD/svg10.dtd">
<svg version="1.0" xmlns="http://www.w3.org/2000/svg"
 width="1024.000000pt" height="1024.000000pt" viewBox="0 0 1024.000000 1024.000000"
 preserveAspectRatio="xMidYMid meet">
<metadata>
Created by potrace 1.16, written by Peter Selinger 2001-2019
</metadata>
<g transform="translate(0.000000,1024.000000) scale(0.100000,-0.100000)"
fill="#000000" stroke="none">
<path d="M2437 8436 c-21 -8 -47 -22 -59 -33 -51 -46 -48 152 -48 -3081 l0
-3009 23 -33 c12 -18 38 -41 57 -51 33 -18 116 -19 2366 -19 2560 0 2373 -5
2427 60 15 17 29 45 32 63 3 18 4 1378 3 3024 l-3 2992 -21 27 c-11 15 -33 37
-48 48 l-27 21 -2332 2 c-1948 2 -2338 0 -2370 -11z m2493 -871 c63 -32 60 12
60 -950 0 -950 2 -912 -54 -949 -23 -15 -106 -16 -925 -16 l-901 0 -32 29 -33
29 -3 889 c-2 668 1 895 10 917 6 15 25 37 42 47 30 18 68 19 919 19 774 0
892 -2 917 -15z m1602 -2532 c34 -32 37 -85 8 -123 l-19 -25 -1711 -3 -1711
-2 -30 29 c-38 38 -40 91 -4 126 l24 25 1707 0 1708 0 28 -27z m2 -664 c33
-26 35 -75 5 -113 l-20 -26 -1715 0 -1715 0 -24 25 c-16 15 -25 36 -25 55 0
19 9 40 25 55 l24 25 1709 0 1709 0 27 -21z m5 -615 c30 -38 28 -94 -5 -125
l-26 -24 -1596 -3 c-878 -2 -1648 0 -1711 4 -102 5 -117 9 -138 30 -29 29 -31
82 -2 118 l20 26 1719 0 1719 0 20 -26z m-643 -637 c33 -39 31 -81 -5 -118
l-29 -29 -1380 0 -1380 0 -31 26 c-52 44 -37 123 29 147 8 3 635 5 1393 4
l1379 -2 24 -28z"/>
<path d="M4345 7245 l-25 -24 0 -606 c0 -592 0 -605 20 -625 18 -18 33 -20
168 -20 117 0 152 3 170 16 l22 15 0 610 0 610 -25 24 c-23 24 -29 25 -165 25
-136 0 -142 -1 -165 -25z"/>
<path d="M3847 6822 c-15 -16 -17 -62 -18 -416 -1 -364 1 -399 17 -417 15 -17
32 -19 165 -19 208 0 189 -43 189 432 0 376 -3 409 -34 430 -6 4 -77 8 -157 8
-128 0 -148 -2 -162 -18z"/>
<path d="M3361 6474 c-20 -25 -21 -39 -21 -243 0 -180 3 -220 16 -239 14 -21
22 -22 160 -22 199 0 184 -21 184 265 0 285 14 265 -179 265 -139 0 -140 0
-160 -26z"/>
<path d="M7398 5138 l-3 -2883 -23 -47 c-32 -64 -107 -130 -172 -151 -48 -16
-214 -17 -2192 -17 l-2140 0 3 -85 c4 -83 5 -86 42 -122 l37 -38 2438 0 2439
0 36 28 c24 18 40 41 47 66 7 26 9 991 8 3034 l-3 2996 -21 27 c-50 67 -55 69
-285 72 l-209 3 -2 -2883z"/>
</g>
</svg>
