<?xml version="1.0" standalone="no"?>
<!DOCTYPE svg PUBLIC "-//W3C//DTD SVG 20010904//EN"
 "http://www.w3.org/TR/2001/REC-SVG-20010904/DTD/svg10.dtd">
<svg version="1.0" xmlns="http://www.w3.org/2000/svg"
 width="1024.000000pt" height="1024.000000pt" viewBox="0 0 1024.000000 1024.000000"
 preserveAspectRatio="xMidYMid meet">
<metadata>
Created by potrace 1.16, written by Peter Selinger 2001-2019
</metadata>
<g transform="translate(0.000000,1024.000000) scale(0.100000,-0.100000)"
fill="#000000" stroke="none">
<path d="M2062 7961 c-13 -8 -274 -501 -287 -540 -3 -10 3 -28 13 -42 16 -19
30 -23 88 -25 l69 -3 5 -2461 5 -2462 24 -19 c23 -19 85 -19 3057 -19 l3034 0
0 -98 c0 -107 11 -132 59 -132 25 0 39 9 299 193 195 138 221 163 205 200 -12
27 -465 348 -499 355 -15 3 -32 -3 -44 -13 -17 -16 -20 -31 -20 -117 l0 -98
-2910 0 -2910 0 0 2338 0 2337 58 -3 c47 -3 62 0 85 19 22 17 27 27 22 46 -7
31 -261 511 -283 536 -16 18 -48 22 -70 8z"/>
<path d="M6674 7870 c-12 -5 -29 -19 -38 -32 -15 -20 -16 -239 -16 -2479 l0
-2456 25 -27 24 -26 446 0 446 0 24 25 25 24 0 2460 0 2460 -24 28 -24 28
-434 2 c-238 1 -443 -2 -454 -7z"/>
<path d="M5229 6641 l-29 -30 2 -1861 3 -1862 24 -19 c22 -18 45 -19 483 -19
l459 0 25 25 24 24 -2 1861 -3 1862 -28 24 -28 24 -450 0 -451 0 -29 -29z"/>
<path d="M3920 5647 c-13 -7 -30 -24 -37 -37 -10 -20 -13 -310 -13 -1363 l0
-1339 29 -29 29 -29 450 0 c428 0 451 1 473 19 l24 19 3 1355 2 1356 -24 28
-24 28 -444 3 c-343 1 -449 -1 -468 -11z"/>
<path d="M2565 4648 c-47 -25 -45 6 -45 -899 l0 -858 26 -20 c26 -21 37 -21
476 -21 l450 0 29 29 29 29 0 837 c0 908 2 877 -55 903 -35 16 -881 17 -910 0z"/>
</g>
</svg>
