<?xml version="1.0" standalone="no"?>
<!DOCTYPE svg PUBLIC "-//W3C//DTD SVG 20010904//EN"
 "http://www.w3.org/TR/2001/REC-SVG-20010904/DTD/svg10.dtd">
<svg version="1.0" xmlns="http://www.w3.org/2000/svg"
 width="1024.000000pt" height="1024.000000pt" viewBox="0 0 1024.000000 1024.000000"
 preserveAspectRatio="xMidYMid meet">
<metadata>
Created by potrace 1.16, written by Peter Selinger 2001-2019
</metadata>
<g transform="translate(0.000000,1024.000000) scale(0.100000,-0.100000)"
fill="#000000" stroke="none">
<path d="M5210 7144 c-203 -68 -728 -234 -960 -304 -610 -184 -1297 -361
-2011 -520 -274 -61 -299 -68 -299 -79 0 -14 199 -122 375 -204 361 -166 716
-295 2103 -760 34 -12 62 -25 62 -30 0 -4 -8 -6 -17 -3 -10 3 -117 26 -238 51
-257 54 -545 125 -770 190 -220 63 -709 228 -949 319 -162 62 -208 76 -255 76
-56 0 -294 -26 -319 -35 -25 -9 16 -61 143 -180 l126 -119 -132 -132 c-81 -82
-128 -137 -124 -144 23 -37 294 -131 1160 -402 347 -108 369 -121 165 -98
-194 22 -498 85 -820 171 -128 33 -186 44 -227 40 -19 -2 -216 -135 -250 -170
-41 -41 -41 -58 0 -107 18 -21 82 -99 141 -172 91 -114 105 -136 94 -149 -7
-8 -80 -73 -163 -143 -82 -69 -156 -134 -164 -143 -12 -15 -7 -20 50 -46 119
-54 1194 -432 2254 -793 259 -88 535 -182 615 -209 228 -78 273 -89 316 -77
20 5 233 87 473 182 240 95 553 219 696 276 143 56 357 141 475 187 118 47
431 170 695 275 656 259 825 329 825 343 0 3 -54 67 -120 142 -67 76 -123 148
-127 161 -4 18 12 41 83 118 128 139 174 194 174 208 0 6 -56 60 -125 119 -69
59 -125 112 -125 116 0 5 19 42 42 82 53 91 87 176 88 213 0 28 -1 29 -43 23
-24 -3 -97 -29 -163 -57 -262 -113 -468 -191 -634 -240 -141 -42 -332 -88
-322 -78 6 6 64 34 129 62 431 191 523 236 703 344 178 107 259 169 390 299
91 91 112 116 99 123 -25 14 -306 61 -404 67 l-90 6 -215 -93 c-634 -271
-1243 -473 -2025 -669 -464 -117 -457 -109 50 59 1347 445 1991 704 2509 1008
110 65 126 77 112 88 -9 6 -83 28 -164 48 -453 113 -1170 307 -1476 401 -252
77 -863 281 -1076 360 -73 27 -140 45 -164 45 -23 0 -102 -21 -176 -46z m-995
-2364 c196 -41 539 -119 744 -170 91 -22 179 -40 197 -40 17 0 85 14 150 30
66 17 243 60 394 95 151 36 282 68 290 71 10 3 12 2 5 -4 -18 -18 -511 -208
-768 -297 l-138 -48 -162 58 c-89 32 -274 100 -412 150 -439 163 -550 208
-475 191 14 -3 93 -19 175 -36z m3385 -356 c0 -9 -318 -159 -445 -209 -149
-59 -496 -174 -630 -210 -120 -32 -458 -105 -482 -105 -36 1 82 45 487 182
442 150 992 332 1025 341 30 7 45 8 45 1z m-4290 -253 c173 -49 423 -122 555
-161 390 -117 885 -257 955 -270 62 -12 74 -11 240 24 96 20 202 43 235 50 58
14 88 14 49 0 -10 -4 -122 -48 -249 -97 -126 -49 -248 -92 -270 -94 -114 -13
-1363 407 -1810 607 -22 10 -47 20 -55 23 -9 3 -4 6 10 6 14 1 167 -39 340
-88z"/>
</g>
</svg>
