<?xml version="1.0" standalone="no"?>
<!DOCTYPE svg PUBLIC "-//W3C//DTD SVG 20010904//EN"
 "http://www.w3.org/TR/2001/REC-SVG-20010904/DTD/svg10.dtd">
<svg version="1.0" xmlns="http://www.w3.org/2000/svg"
 width="1024.000000pt" height="1024.000000pt" viewBox="0 0 1024.000000 1024.000000"
 preserveAspectRatio="xMidYMid meet">
<metadata>
Created by potrace 1.16, written by Peter Selinger 2001-2019
</metadata>
<g transform="translate(0.000000,1024.000000) scale(0.100000,-0.100000)"
fill="#000000" stroke="none">
<path d="M5350 9129 c-94 -38 -1804 -456 -2524 -617 -44 -9 -81 -22 -83 -28
-9 -27 308 -207 598 -338 308 -139 1191 -483 1317 -513 12 -3 22 -9 22 -14 0
-5 -10 -7 -22 -4 -13 2 -52 9 -88 15 -218 36 -716 204 -1349 455 -135 54 -254
95 -273 95 -18 0 -65 -9 -103 -19 -39 -10 -91 -22 -117 -26 -30 -4 -48 -11
-48 -19 0 -15 116 -86 303 -187 64 -35 117 -66 117 -70 0 -3 -55 -24 -122 -46
-67 -21 -126 -47 -132 -55 -7 -13 3 -43 42 -126 29 -60 52 -116 52 -125 0 -18
-51 -47 -149 -84 -66 -25 -91 -39 -91 -53 0 -17 598 -262 890 -365 52 -18 133
-48 180 -65 47 -17 98 -36 113 -42 50 -18 20 -20 -40 -3 -74 22 -650 164 -810
201 -68 15 -125 25 -129 22 -3 -3 0 -26 7 -49 50 -183 18 -253 -160 -347 -95
-51 -96 -62 -9 -104 72 -36 463 -143 928 -253 534 -126 712 -169 840 -202 74
-20 145 -38 158 -40 26 -6 31 -23 5 -18 -10 2 -54 9 -98 15 -189 27 -1080 212
-1420 296 -33 8 -93 20 -133 28 l-73 14 7 -97 c4 -66 3 -104 -5 -119 -6 -12
-55 -56 -107 -98 -53 -42 -92 -80 -87 -85 9 -9 191 -92 341 -154 l93 -39 -155
-22 c-209 -30 -227 -37 -169 -68 l28 -14 -35 -6 c-19 -3 -66 -11 -104 -16 -38
-6 -74 -14 -79 -17 -13 -8 282 -153 500 -246 221 -95 404 -167 742 -293 145
-55 256 -100 248 -102 -18 -4 -236 50 -439 108 -136 40 -355 112 -625 208
l-143 51 0 -52 c-1 -81 -17 -104 -125 -187 -55 -42 -101 -83 -103 -91 -3 -19
287 -140 618 -259 314 -112 503 -168 865 -254 83 -19 233 -55 335 -80 102 -24
194 -47 205 -49 48 -11 -49 -6 -146 8 -324 46 -468 69 -589 92 -164 31 -551
139 -832 234 -115 38 -215 69 -224 69 -41 0 -204 -103 -204 -128 0 -4 35 -20
79 -35 43 -16 88 -35 99 -43 13 -9 30 -46 47 -99 17 -55 32 -88 45 -95 58 -31
591 -201 1070 -341 351 -103 614 -188 606 -197 -12 -11 -538 113 -882 209
-400 111 -747 204 -812 218 -52 11 -55 10 -90 -18 -48 -38 -117 -109 -111
-115 2 -2 36 -19 74 -39 39 -19 81 -44 94 -54 24 -20 24 -22 13 -75 -14 -60
-33 -83 -134 -158 -84 -62 -81 -81 20 -104 42 -10 172 -45 287 -78 586 -165
779 -217 1135 -309 142 -36 151 -41 75 -34 -94 9 -1263 252 -1412 294 -41 11
-45 5 -28 -45 8 -21 14 -53 15 -71 0 -36 0 -36 -129 -116 -47 -29 -84 -56 -83
-61 0 -5 25 -18 54 -31 123 -50 560 -259 551 -262 -6 -2 -52 8 -103 22 -51 14
-136 36 -190 49 l-97 23 1 -121 c2 -184 -6 -196 -206 -312 -37 -21 -68 -42
-68 -45 0 -4 10 -9 23 -11 12 -3 150 -44 307 -91 157 -47 440 -129 630 -182
190 -53 365 -102 390 -110 25 -7 78 -23 118 -35 75 -22 96 -37 40 -27 -18 3
-87 15 -153 26 -66 12 -160 30 -210 41 -220 48 -919 189 -922 186 -2 -1 4 -46
13 -98 12 -74 13 -103 5 -134 -15 -52 -23 -61 -113 -127 -42 -31 -79 -61 -82
-65 -3 -5 39 -36 94 -68 55 -32 100 -61 100 -64 0 -3 -36 -25 -81 -49 -44 -25
-84 -50 -89 -56 -7 -8 17 -15 88 -24 146 -19 436 -75 622 -121 309 -76 889
-263 1474 -475 198 -71 277 -96 300 -92 17 3 128 43 246 90 330 131 872 333
995 370 28 8 115 36 195 61 192 62 437 129 607 167 76 17 146 37 155 46 9 8
24 35 32 59 14 40 14 46 0 51 -49 19 -373 -25 -652 -88 -51 -12 -95 -19 -97
-17 -3 2 95 34 218 71 533 162 610 186 618 198 9 15 -18 86 -61 159 -45 76
-70 137 -70 170 0 22 8 33 43 53 54 32 89 66 84 80 -2 6 -28 21 -58 32 -63 24
-89 63 -89 135 0 58 15 78 84 115 33 17 56 37 56 46 0 28 -51 109 -68 109 -17
0 -84 -12 -487 -89 -115 -22 -223 -43 -240 -46 -35 -6 -23 8 20 23 73 25 620
234 634 241 28 16 172 365 174 423 l2 41 -70 23 c-38 13 -76 32 -82 41 -17 23
-16 96 2 163 20 74 19 79 -7 73 -13 -3 -151 -60 -308 -125 -414 -174 -632
-258 -840 -326 -242 -79 -353 -112 -359 -107 -2 3 7 9 20 14 190 72 1563 698
1635 746 15 10 21 21 18 33 -4 9 -56 65 -116 124 -94 92 -109 111 -106 135 2
19 12 32 31 41 37 18 57 60 73 161 8 47 14 89 14 94 0 13 -27 8 -182 -37 -84
-24 -196 -53 -248 -65 -52 -12 -104 -24 -115 -27 l-20 -5 20 16 c11 9 141 77
288 151 148 74 277 139 288 144 18 10 16 14 -20 68 -83 124 -100 228 -56 358
14 41 25 79 25 84 0 10 5 11 -445 -125 -269 -81 -735 -206 -762 -205 -15 1
110 50 395 155 588 218 892 342 892 365 0 9 -9 43 -20 74 l-20 58 25 42 c36
61 33 72 -20 80 -25 3 -55 10 -65 16 -33 18 -25 68 20 138 92 143 92 151 -1
181 -127 41 -155 39 -324 -17 -424 -142 -693 -227 -901 -287 -224 -65 -523
-139 -531 -132 -4 5 250 97 637 232 695 242 1190 425 1190 440 0 6 -30 40 -66
75 l-66 65 5 60 c9 94 52 220 93 264 56 63 52 70 -83 142 -46 24 -57 26 -95
18 -58 -13 -1605 -512 -1894 -611 l-92 -32 -116 47 c-64 26 -124 47 -134 48
-9 1 -2 5 16 9 18 4 68 3 111 -2 l78 -10 254 76 c520 158 1141 358 1529 494
118 41 234 82 258 90 54 18 66 38 85 132 27 131 31 194 14 208 -16 14 -100 0
-411 -69 -98 -22 -180 -38 -183 -36 -2 2 52 25 120 50 68 26 213 84 322 129
167 70 203 88 226 118 49 63 47 73 -20 104 -88 40 -90 69 -16 166 66 87 70 96
41 115 -46 31 -181 85 -210 85 -16 0 -325 -99 -685 -220 -362 -121 -737 -240
-836 -265 -199 -51 -578 -135 -583 -130 -2 2 81 30 185 64 775 248 1502 507
1967 699 147 60 186 87 186 125 0 21 -8 25 -77 41 -854 198 -1153 292 -1796
565 -131 56 -248 101 -260 100 -12 0 -33 -5 -47 -10z m726 -1758 c-3 -5 -23
-12 -43 -16 -21 -4 -177 -53 -348 -110 -170 -57 -364 -120 -430 -141 -66 -20
-147 -45 -180 -55 -117 -38 -100 -41 -495 94 -468 161 -580 201 -580 208 0 10
602 -118 856 -182 l121 -31 314 71 c173 39 371 84 440 100 138 32 221 50 289
61 25 4 49 8 53 9 5 0 6 -3 3 -8z m-1852 -1772 c183 -26 315 -53 701 -141 176
-40 343 -72 370 -72 31 0 204 40 461 107 422 110 553 141 561 133 3 -2 -24
-14 -59 -25 -34 -11 -196 -65 -358 -121 -162 -56 -377 -128 -478 -161 l-183
-60 -62 20 c-34 11 -109 33 -167 50 -58 16 -253 72 -435 125 -181 52 -370 107
-420 121 -49 13 -112 32 -140 40 l-50 14 60 -5 c33 -3 123 -14 199 -25z m1905
-964 c-5 -4 -63 -25 -379 -137 -63 -23 -177 -60 -252 -83 -130 -40 -138 -41
-168 -27 -17 8 -27 18 -23 22 4 4 91 31 193 59 102 28 277 78 390 110 187 54
251 69 239 56z m496 -455 c-11 -5 -103 -43 -205 -85 -102 -43 -374 -156 -605
-252 l-420 -174 -141 45 c-77 25 -150 46 -162 46 -12 0 -22 4 -22 9 0 5 60 8
133 7 l132 -1 530 177 c292 97 580 190 640 206 110 30 158 39 120 22z m-306
-1134 c-23 -22 -1106 -486 -1135 -486 -10 0 -73 16 -139 35 -66 20 -253 75
-415 122 -162 47 -371 107 -465 135 -93 27 -172 51 -175 55 -3 3 4 3 15 0 11
-3 43 -9 70 -12 160 -21 402 -65 715 -132 l355 -75 60 20 c128 44 323 104 630
197 176 54 354 108 395 120 74 23 97 29 89 21z m161 -793 c-30 -15 -131 -65
-225 -111 -184 -90 -396 -188 -674 -312 -97 -43 -197 -88 -222 -100 l-46 -23
-59 21 c-33 11 -113 42 -179 67 -66 26 -157 59 -203 74 -46 15 -81 29 -78 32
3 3 79 -7 168 -22 90 -16 197 -31 239 -35 l75 -7 355 128 c362 130 629 224
778 275 46 16 86 32 89 35 3 3 12 5 21 5 9 -1 -9 -13 -39 -27z"/>
</g>
</svg>
