<?xml version="1.0" standalone="no"?>
<!DOCTYPE svg PUBLIC "-//W3C//DTD SVG 20010904//EN"
 "http://www.w3.org/TR/2001/REC-SVG-20010904/DTD/svg10.dtd">
<svg version="1.0" xmlns="http://www.w3.org/2000/svg"
 width="1024.000000pt" height="1024.000000pt" viewBox="0 0 1024.000000 1024.000000"
 preserveAspectRatio="xMidYMid meet">
<metadata>
Created by potrace 1.16, written by Peter Selinger 2001-2019
</metadata>
<g transform="translate(0.000000,1024.000000) scale(0.100000,-0.100000)"
fill="#000000" stroke="none">
<path d="M4465 9116 c-38 -17 -60 -42 -73 -86 -6 -19 -34 -307 -62 -640 -97
-1172 -97 -1173 -121 -1190 -42 -30 -69 -64 -79 -98 -5 -20 -13 -161 -16 -314
l-7 -278 -60 -51 c-135 -118 -289 -321 -376 -496 -148 -297 -191 -664 -121
-1020 60 -302 207 -564 449 -795 l109 -105 4 -279 c5 -311 9 -337 70 -374 18
-11 36 -21 40 -22 3 -2 27 -286 52 -633 75 -1020 105 -1427 111 -1470 8 -59
39 -103 88 -125 40 -19 71 -20 595 -20 477 0 558 2 590 15 48 21 79 51 91 89
9 26 37 342 81 891 48 614 100 1248 102 1250 2 1 19 11 39 23 63 38 69 68 76
376 l6 270 112 111 c236 233 375 468 450 758 l33 132 40 7 c100 17 171 85 193
185 30 131 -57 258 -192 281 l-43 7 -22 105 c-62 295 -256 619 -505 840 l-66
59 -6 286 c-5 208 -11 295 -21 319 -12 29 -51 69 -76 78 -5 2 -20 143 -34 313
-69 830 -126 1483 -132 1512 -3 17 -22 46 -41 65 l-34 33 -607 2 c-489 2 -613
0 -637 -11z m830 -2317 c613 -82 1135 -591 1252 -1222 28 -146 25 -430 -5
-571 -113 -528 -502 -965 -1002 -1126 -166 -54 -310 -73 -500 -67 -303 10
-542 87 -795 254 -118 79 -296 252 -374 363 -268 382 -342 901 -191 1351 78
235 200 431 379 609 333 332 758 473 1236 409z"/>
<path d="M4912 6680 c-461 -58 -851 -339 -1067 -770 -201 -401 -187 -912 37
-1304 191 -334 548 -587 930 -661 376 -72 798 23 1099 249 172 130 351 347
432 526 91 202 122 348 122 585 0 186 -5 226 -51 389 -132 471 -556 864 -1042
966 -112 24 -348 34 -460 20z"/>
</g>
</svg>
