<?xml version="1.0" standalone="no"?>
<!DOCTYPE svg PUBLIC "-//W3C//DTD SVG 20010904//EN"
 "http://www.w3.org/TR/2001/REC-SVG-20010904/DTD/svg10.dtd">
<svg version="1.0" xmlns="http://www.w3.org/2000/svg"
 width="1024.000000pt" height="1024.000000pt" viewBox="0 0 1024.000000 1024.000000"
 preserveAspectRatio="xMidYMid meet">
<metadata>
Created by potrace 1.16, written by Peter Selinger 2001-2019
</metadata>
<g transform="translate(0.000000,1024.000000) scale(0.100000,-0.100000)"
fill="#000000" stroke="none">
<path d="M3033 8355 c-98 -21 -189 -72 -264 -145 -72 -71 -109 -128 -148 -229
l-26 -66 -3 -2765 c-2 -2729 -2 -2766 18 -2843 25 -99 68 -175 144 -255 71
-74 144 -121 241 -153 l70 -24 2223 -3 c2185 -2 2224 -2 2267 17 92 41 112
143 41 208 -20 18 -45 33 -56 33 -20 0 -20 6 -20 330 l0 330 25 6 c29 7 82 64
90 97 3 12 4 1224 3 2692 l-3 2670 -23 38 c-13 21 -38 45 -55 55 -30 16 -170
17 -2247 19 -1837 1 -2226 -1 -2277 -12z m4267 -5903 l0 -312 -2097 2 -2098 3
-47 22 c-117 54 -182 155 -182 283 -1 123 58 219 169 278 44 23 65 27 175 32
69 3 1015 5 2103 5 l1977 0 0 -313z"/>
</g>
</svg>
