<?xml version="1.0" standalone="no"?>
<!DOCTYPE svg PUBLIC "-//W3C//DTD SVG 20010904//EN"
 "http://www.w3.org/TR/2001/REC-SVG-20010904/DTD/svg10.dtd">
<svg version="1.0" xmlns="http://www.w3.org/2000/svg"
 width="1024.000000pt" height="1024.000000pt" viewBox="0 0 1024.000000 1024.000000"
 preserveAspectRatio="xMidYMid meet">
<metadata>
Created by potrace 1.16, written by Peter Selinger 2001-2019
</metadata>
<g transform="translate(0.000000,1024.000000) scale(0.100000,-0.100000)"
fill="#000000" stroke="none">
<path d="M3835 6205 c-76 -17 -115 -32 -381 -153 -121 -55 -336 -152 -479
-217 -529 -238 -1519 -686 -1712 -775 -87 -40 -130 -75 -144 -118 -8 -25 -10
-79 -6 -175 7 -153 18 -187 72 -218 17 -10 237 -67 490 -128 552 -133 1494
-360 1805 -435 210 -51 1176 -283 1445 -347 148 -35 248 -59 990 -239 704
-170 652 -159 747 -160 94 0 164 14 243 50 36 16 247 166 535 381 625 467
1066 796 1274 949 261 192 317 240 344 290 23 44 24 50 19 207 -6 178 -13 204
-69 247 -60 45 -134 65 -415 111 -153 25 -402 66 -553 91 -151 25 -423 69
-605 99 -181 30 -508 84 -725 119 -217 36 -602 99 -855 141 -253 42 -568 93
-700 115 -132 21 -393 64 -580 95 -561 93 -615 98 -740 70z m2550 -2679 c171
-39 203 -50 211 -71 16 -40 -49 -57 -126 -35 -19 6 -90 22 -158 35 -67 14
-136 32 -152 40 -28 14 -39 43 -23 58 14 15 106 5 248 -27z"/>
</g>
</svg>
