<?xml version="1.0" standalone="no"?>
<!DOCTYPE svg PUBLIC "-//W3C//DTD SVG 20010904//EN"
 "http://www.w3.org/TR/2001/REC-SVG-20010904/DTD/svg10.dtd">
<svg version="1.0" xmlns="http://www.w3.org/2000/svg"
 width="1024.000000pt" height="1024.000000pt" viewBox="0 0 1024.000000 1024.000000"
 preserveAspectRatio="xMidYMid meet">
<metadata>
Created by potrace 1.16, written by Peter Selinger 2001-2019
</metadata>
<g transform="translate(0.000000,1024.000000) scale(0.100000,-0.100000)"
fill="#000000" stroke="none">
<path d="M2880 7684 c-25 -2 -130 -11 -235 -20 -190 -15 -551 -64 -624 -84
-23 -6 -52 -24 -70 -45 l-31 -36 0 -2183 0 -2183 23 -34 c14 -22 38 -39 64
-49 39 -13 58 -12 235 13 407 58 445 61 793 61 287 0 352 -3 498 -23 510 -68
899 -206 1354 -478 171 -103 192 -113 237 -113 40 0 85 23 246 127 496 320
1032 475 1691 490 298 7 496 -8 1040 -78 116 -15 166 -5 199 41 l21 29 -1
2192 c0 2409 5 2221 -60 2254 -55 28 -407 79 -740 106 -523 43 -1118 -44
-1595 -233 -290 -115 -645 -342 -712 -456 l-28 -47 -5 -2013 c-5 -1979 -5
-2014 -24 -2028 -30 -21 -62 -17 -85 12 l-21 27 0 1994 c0 1777 -2 1998 -15
2031 -20 47 -43 72 -135 142 -127 97 -228 158 -405 245 -364 180 -783 286
-1280 324 -187 15 -284 19 -335 15z"/>
</g>
</svg>
