<?xml version="1.0" standalone="no"?>
<!DOCTYPE svg PUBLIC "-//W3C//DTD SVG 20010904//EN"
 "http://www.w3.org/TR/2001/REC-SVG-20010904/DTD/svg10.dtd">
<svg version="1.0" xmlns="http://www.w3.org/2000/svg"
 width="1024.000000pt" height="1536.000000pt" viewBox="0 0 1024.000000 1536.000000"
 preserveAspectRatio="xMidYMid meet">
<metadata>
Created by potrace 1.16, written by Peter Selinger 2001-2019
</metadata>
<g transform="translate(0.000000,1536.000000) scale(0.100000,-0.100000)"
fill="#000000" stroke="none">
<path d="M4990 14880 c-125 -16 -250 -66 -385 -154 -119 -77 -134 -84 -217
-96 -120 -18 -141 -34 -93 -72 l25 -19 -26 -35 c-28 -36 -48 -43 -58 -19 -3 8
-11 15 -17 15 -8 0 -10 -16 -6 -52 6 -59 69 -188 112 -228 29 -27 31 -52 9
-128 -21 -71 -14 -181 21 -333 19 -81 25 -136 25 -226 0 -65 5 -149 10 -188 5
-38 10 -117 11 -175 l2 -106 -39 -58 c-21 -32 -53 -81 -71 -110 -48 -76 -63
-94 -70 -78 -3 8 -18 28 -34 45 -38 43 -129 166 -129 176 0 4 -14 20 -30 36
-37 35 -37 41 -4 49 32 8 84 46 84 61 0 6 14 24 30 40 17 16 30 33 30 38 0 5
11 22 25 39 14 16 25 40 25 53 0 24 23 55 41 55 22 0 99 191 99 246 0 95 -161
48 -254 -73 -21 -28 -58 -64 -81 -81 -29 -21 -47 -42 -55 -69 -14 -43 -131
-171 -197 -216 -75 -50 -123 -153 -158 -337 -19 -101 -70 -306 -91 -371 -17
-53 -28 -59 -115 -59 -100 0 -126 -30 -211 -240 -23 -58 -113 -249 -201 -425
-333 -670 -410 -873 -411 -1080 -1 -95 2 -116 21 -151 29 -55 103 -118 161
-139 61 -22 231 -31 315 -16 141 24 499 160 779 294 l157 75 6 -52 c11 -85 -2
-1101 -14 -1201 -23 -173 -81 -603 -95 -701 -56 -381 -102 -857 -112 -1149 -8
-220 -10 -213 84 -241 31 -10 60 -20 64 -23 15 -13 108 -1073 153 -1750 14
-212 30 -428 35 -480 5 -53 16 -172 25 -266 9 -93 32 -305 51 -470 58 -500 97
-1230 98 -1840 1 -458 -1 -489 -55 -804 -27 -163 -28 -176 -12 -193 14 -15 14
-22 4 -45 -22 -48 -118 -177 -187 -252 -122 -132 -220 -189 -401 -235 -176
-45 -254 -91 -297 -177 -48 -97 -29 -183 47 -208 109 -36 398 -71 583 -71 205
0 385 41 539 124 115 61 206 86 230 63 22 -22 112 -31 255 -24 132 7 190 19
216 48 27 30 35 134 28 376 -7 227 -6 233 14 250 25 22 26 43 47 728 42 1419
42 1648 3 2085 -17 186 -21 316 -22 625 -1 467 25 1637 35 1580 4 -22 24 -128
43 -235 173 -945 376 -2188 456 -2785 17 -126 44 -327 60 -445 51 -377 82
-641 130 -1120 40 -404 60 -573 66 -580 3 -3 26 -4 51 -3 l46 2 -6 -97 c-4
-54 -17 -167 -28 -252 -28 -199 -31 -373 -7 -416 57 -104 241 -174 458 -175
245 -1 413 71 470 203 34 79 31 200 -8 338 -48 166 -123 452 -120 454 2 1 15
7 31 14 33 14 32 -35 7 502 -67 1433 -90 1752 -161 2295 -83 631 -87 689 -99
1450 -9 581 -19 878 -40 1245 -5 91 -12 228 -15 305 -3 77 -8 160 -11 185 l-5
45 43 15 43 15 -3 140 -4 140 31 18 c18 10 45 44 67 82 19 36 42 65 50 65 8 0
31 -7 51 -15 19 -8 39 -15 44 -15 15 0 111 198 401 830 231 504 279 625 318
810 22 108 27 301 10 440 -23 183 -114 538 -335 1305 -48 165 -109 380 -136
477 -105 382 -151 426 -669 638 -305 125 -380 165 -496 266 -53 46 -102 84
-109 84 -7 0 -22 -8 -34 -17 -25 -22 -202 -331 -237 -417 -15 -34 -81 -171
-149 -306 -108 -215 -309 -641 -329 -694 -3 -10 -8 -17 -9 -15 -6 7 12 579 18
602 17 59 58 167 64 167 4 0 31 -20 60 -45 29 -25 57 -45 62 -45 5 0 9 14 9
32 0 68 -172 337 -238 372 l-25 13 29 7 c59 15 212 79 326 138 132 68 228 142
289 223 l41 55 -12 85 c-22 153 -1 255 78 386 91 152 189 397 223 554 18 90
16 314 -5 410 -27 122 -85 234 -164 314 -37 38 -91 81 -121 95 -29 15 -83 52
-118 81 -180 148 -480 228 -733 195z m-1075 -1951 c16 -16 -60 -10 -81 6 -17
14 -15 14 26 9 25 -4 49 -10 55 -15z m613 -81 c26 -87 112 -246 153 -282 48
-44 81 -46 176 -10 37 14 75 28 84 30 13 5 18 -8 26 -73 6 -43 17 -95 26 -115
13 -32 22 -39 62 -49 l47 -12 -41 -36 c-26 -23 -55 -65 -80 -116 -44 -91 -78
-191 -68 -202 4 -3 20 6 35 20 45 43 46 33 17 -133 -23 -127 -189 -786 -193
-766 -6 28 17 432 33 596 20 192 71 507 96 584 10 33 22 84 25 112 6 48 4 53
-18 68 -32 21 -95 9 -183 -35 -33 -17 -163 -71 -290 -120 -126 -50 -250 -102
-275 -117 -90 -52 -207 -182 -295 -327 -53 -89 -42 -44 22 85 48 99 56 123 56
170 -1 31 -8 72 -16 93 l-16 37 42 23 c23 13 65 37 92 52 179 100 373 322 437
500 12 36 25 65 28 65 3 0 11 -19 18 -42z m-531 17 c3 -9 3 -19 -1 -22 -7 -7
-36 16 -36 28 0 15 30 10 37 -6z m126 -129 c17 -26 13 -36 -13 -36 -14 0 -40
37 -40 55 0 16 40 1 53 -19z m-588 -356 c53 -76 171 -142 257 -144 55 -1 63
-17 19 -36 -87 -35 -235 13 -299 98 -34 47 -48 83 -38 107 9 26 32 17 61 -25z
m3193 -2097 c74 -251 112 -387 128 -460 17 -80 17 -83 -3 -145 -15 -45 -21
-91 -21 -161 -1 -58 -7 -120 -17 -153 -21 -73 -130 -297 -156 -320 -27 -24
-35 -10 -43 75 -4 36 -14 120 -23 186 -25 191 -15 357 41 660 26 138 49 283
53 323 3 39 9 72 12 72 3 0 16 -35 29 -77z m-91 -2109 c125 -105 164 -146 161
-168 -5 -34 -36 -30 -106 16 -105 68 -213 182 -197 208 3 5 19 10 35 10 20 0
50 -18 107 -66z"/>
</g>
</svg>
