<?xml version="1.0" standalone="no"?>
<!DOCTYPE svg PUBLIC "-//W3C//DTD SVG 20010904//EN"
 "http://www.w3.org/TR/2001/REC-SVG-20010904/DTD/svg10.dtd">
<svg version="1.0" xmlns="http://www.w3.org/2000/svg"
 width="1024.000000pt" height="1536.000000pt" viewBox="0 0 1024.000000 1536.000000"
 preserveAspectRatio="xMidYMid meet">
<metadata>
Created by potrace 1.16, written by Peter Selinger 2001-2019
</metadata>
<g transform="translate(0.000000,1536.000000) scale(0.100000,-0.100000)"
fill="#000000" stroke="none">
<path d="M4960 14675 c-145 -29 -271 -87 -386 -178 -132 -105 -204 -219 -251
-394 -22 -84 -26 -121 -28 -258 -1 -130 -5 -172 -22 -225 -27 -85 -44 -198
-42 -280 1 -36 -1 -117 -6 -180 -13 -192 24 -394 102 -549 28 -56 39 -89 33
-96 -18 -21 -104 -63 -290 -140 -359 -149 -509 -240 -698 -420 -304 -290 -499
-663 -682 -1305 -194 -684 -307 -1442 -380 -2560 -24 -366 -24 -384 -5 -403 8
-9 33 -18 56 -22 l42 -7 -6 -47 c-4 -25 -14 -98 -23 -161 -10 -69 -17 -184
-17 -285 -1 -145 2 -182 21 -248 26 -95 70 -184 124 -252 110 -139 323 -255
413 -225 72 24 80 71 35 205 -29 87 -41 197 -21 209 4 3 26 -34 49 -82 31 -67
44 -112 57 -197 22 -148 87 -522 200 -1160 151 -844 235 -1414 300 -2030 8
-82 20 -193 25 -245 51 -476 72 -1035 50 -1335 -7 -99 -16 -190 -21 -203 -14
-38 -108 -130 -170 -168 -32 -19 -112 -55 -178 -79 -202 -74 -272 -120 -333
-214 -22 -35 -28 -57 -28 -100 0 -50 3 -57 40 -92 47 -45 174 -90 309 -109
106 -16 404 -8 520 14 188 35 363 95 495 171 44 25 81 45 83 45 2 0 3 -11 3
-25 0 -45 39 -60 154 -57 186 3 413 58 468 112 28 28 28 30 28 152 0 178 15
302 40 336 18 24 22 56 35 247 47 723 96 1958 111 2798 4 202 10 364 14 360
28 -35 274 -1190 379 -1783 83 -467 157 -921 236 -1455 26 -172 41 -247 54
-265 22 -31 61 -51 112 -57 l39 -6 0 -116 c0 -64 -5 -190 -11 -281 -11 -146
-10 -172 5 -221 48 -166 261 -269 556 -269 178 0 303 26 430 90 130 66 183
144 182 270 0 59 -57 482 -76 562 -3 13 6 23 30 34 19 9 40 26 45 37 12 22 42
408 59 757 5 124 13 452 16 730 7 514 0 796 -33 1459 -16 326 -16 358 0 610
19 290 32 591 42 971 4 135 10 248 13 251 4 4 36 16 72 29 84 28 138 58 230
128 170 130 266 312 299 569 5 43 13 167 17 276 5 172 8 199 23 203 84 25 94
46 135 290 70 420 86 636 86 1205 0 608 -29 995 -111 1459 -88 505 -277 1020
-477 1300 -83 117 -230 271 -336 354 -221 171 -383 252 -771 386 -233 80 -252
89 -310 135 -43 34 -168 115 -179 115 -3 0 -6 -6 -6 -13 0 -43 -126 -266 -387
-682 -256 -409 -542 -907 -579 -1005 l-13 -35 0 40 c-2 99 20 581 30 677 l12
107 33 11 c54 18 94 62 94 104 0 41 -44 135 -86 185 -14 17 -25 33 -23 34 2 1
64 22 137 46 342 113 642 316 743 503 31 58 33 69 32 143 l-2 80 39 27 c47 33
100 102 139 183 86 179 79 438 -15 526 -21 20 -24 31 -24 93 0 91 -24 251 -51
341 -38 129 -94 221 -189 315 -47 47 -112 100 -144 119 -82 49 -219 98 -321
116 -105 18 -305 18 -395 0z m-340 -2406 c36 -25 95 -58 133 -73 37 -16 67
-33 67 -38 0 -11 -29 -39 -94 -92 -85 -69 -98 -138 -31 -177 38 -23 39 -34 8
-134 -17 -54 -144 -372 -188 -470 -41 -90 -94 -239 -121 -340 l-24 -90 4 390
c5 481 31 770 92 1025 24 99 20 95 57 68 17 -14 61 -45 97 -69z m-1910 -4632
c96 -9 135 -16 134 -24 -1 -7 -2 -18 -2 -24 -2 -8 -36 -10 -124 -5 -165 10
-242 23 -264 47 -17 19 -15 19 52 18 38 0 130 -6 204 -12z m4738 -87 c155 -11
300 -23 322 -26 63 -10 42 -29 -36 -32 -77 -4 -452 15 -558 28 -73 9 -102 24
-76 40 20 13 27 13 348 -10z"/>
</g>
</svg>
