<?xml version="1.0" standalone="no"?>
<!DOCTYPE svg PUBLIC "-//W3C//DTD SVG 20010904//EN"
 "http://www.w3.org/TR/2001/REC-SVG-20010904/DTD/svg10.dtd">
<svg version="1.0" xmlns="http://www.w3.org/2000/svg"
 width="1024.000000pt" height="1024.000000pt" viewBox="0 0 1024.000000 1024.000000"
 preserveAspectRatio="xMidYMid meet">
<metadata>
Created by potrace 1.16, written by Peter Selinger 2001-2019
</metadata>
<g transform="translate(0.000000,1024.000000) scale(0.100000,-0.100000)"
fill="#000000" stroke="none">
<path d="M4982 9920 c-179 -47 -333 -173 -407 -332 -14 -29 -25 -63 -25 -76 0
-19 2 -21 20 -10 10 7 21 10 24 7 9 -9 -24 -177 -44 -230 -11 -27 -20 -65 -20
-83 0 -18 25 -99 56 -180 l56 -147 -13 -108 c-10 -92 -10 -121 4 -202 9 -52
19 -119 23 -149 3 -30 13 -67 20 -82 8 -15 14 -29 14 -32 0 -12 -61 -36 -131
-52 -40 -9 -107 -31 -149 -49 -41 -17 -99 -40 -128 -49 -112 -38 -140 -82
-221 -355 -33 -112 -62 -206 -64 -207 -2 -2 -14 19 -27 46 -29 61 -40 65 -163
56 -240 -17 -348 -30 -359 -43 -9 -11 12 -60 97 -233 l109 -220 -31 -32 c-48
-51 -59 -106 -32 -163 8 -17 1 -38 -38 -105 -79 -141 -92 -183 -93 -284 0
-159 52 -306 140 -400 65 -69 118 -91 220 -91 87 0 157 28 232 95 l45 39 -3
-97 c-1 -53 -5 -119 -9 -147 -12 -86 -46 -265 -55 -289 -4 -12 -4 -29 1 -38 6
-10 2 -67 -11 -155 -18 -129 -44 -386 -70 -718 -7 -77 -9 -168 -5 -202 6 -54
11 -66 38 -89 17 -15 41 -31 52 -36 20 -9 21 -15 17 -119 -7 -166 48 -738 108
-1134 35 -228 97 -784 110 -985 13 -191 12 -413 -1 -525 -5 -49 -19 -180 -30
-290 -12 -110 -23 -221 -26 -246 -4 -32 0 -56 11 -78 16 -30 16 -34 -6 -77
-44 -89 -115 -137 -338 -229 -218 -90 -255 -115 -280 -190 -19 -58 -10 -77 47
-108 75 -40 168 -57 321 -57 181 0 346 37 554 124 101 42 119 44 161 14 38
-27 51 -26 195 17 170 52 162 43 162 181 0 66 6 145 15 183 32 143 90 593 111
864 13 174 15 274 8 562 -11 506 -9 751 10 1000 9 121 19 240 23 265 l6 45 29
-90 c16 -49 77 -254 135 -455 79 -273 113 -413 138 -555 155 -891 152 -869
166 -1275 6 -179 15 -341 20 -361 5 -20 23 -53 39 -74 33 -42 37 -72 15 -114
-24 -47 -75 -279 -75 -343 0 -43 6 -70 20 -93 18 -29 28 -34 84 -44 36 -6 127
-14 203 -17 123 -6 147 -4 220 16 46 12 120 41 165 64 l83 41 3 60 c2 43 -8
107 -34 222 l-37 161 21 69 c39 123 53 251 52 488 -1 862 -8 1380 -18 1460
-16 124 -21 1575 -6 1575 24 0 136 63 150 85 13 20 14 45 5 182 -6 87 -15 195
-21 238 -5 44 -26 231 -45 415 -20 184 -47 411 -60 503 -14 93 -25 173 -25
178 0 5 11 7 24 3 31 -8 110 33 160 83 85 85 136 247 203 648 l38 230 0 410
c0 349 -3 424 -18 504 -20 105 -55 181 -102 217 -54 41 -167 91 -290 128 -369
113 -461 147 -558 204 -116 69 -174 133 -212 234 -31 85 -33 118 -5 118 25 0
44 29 75 118 20 57 25 91 25 167 0 88 -2 98 -25 120 -13 14 -29 25 -35 25 -16
0 -12 17 13 46 24 27 24 29 10 98 -45 228 -75 299 -152 369 -27 24 -100 69
-163 101 -170 85 -299 104 -446 66z m233 -734 c19 -8 35 -19 35 -25 0 -25
-226 -116 -273 -109 -33 5 -33 41 1 79 54 60 163 86 237 55z m465 4 c0 -5 -8
-10 -18 -10 -10 0 -27 -7 -38 -15 -23 -17 -38 -19 -28 -4 6 10 61 38 77 39 4
0 7 -4 7 -10z m-955 -86 c19 -9 45 -31 59 -49 23 -30 24 -34 9 -46 -23 -19
-105 -16 -138 5 -42 27 -48 57 -19 84 30 26 45 27 89 6z m407 -455 c61 -31
108 -84 108 -123 0 -61 -11 -96 -30 -96 -39 0 -50 11 -50 52 0 34 -7 47 -40
80 -30 31 -45 39 -62 35 -13 -3 -66 -9 -118 -13 -116 -8 -132 -19 -150 -105
-8 -34 -18 -59 -25 -59 -7 0 -25 14 -40 32 -21 24 -25 38 -21 61 8 39 41 83
89 118 33 24 50 29 101 30 34 0 79 4 101 9 49 10 88 4 137 -21z m548 -91 c0
-29 -19 -62 -154 -261 -68 -101 -144 -225 -168 -277 -185 -390 -253 -530 -260
-530 -13 0 -9 78 8 191 11 71 14 131 9 190 l-6 87 36 36 c39 40 51 43 79 21
18 -14 96 -22 96 -10 0 2 -20 35 -44 72 l-44 68 161 161 c89 88 182 188 206
221 33 45 48 59 62 56 11 -3 19 -14 19 -25z m-770 -503 c7 -19 17 -25 42 -26
37 0 86 -17 56 -18 -19 -1 -22 -11 -37 -93 -6 -31 -19 -75 -30 -97 -22 -43
-40 -88 -78 -201 -21 -63 -26 -100 -30 -228 -3 -85 -9 -150 -14 -145 -4 4 -15
35 -23 68 -20 76 -20 246 -1 385 20 136 84 380 100 380 3 0 10 -11 15 -25z
m96 -107 c-7 -44 -62 -185 -76 -193 -4 -3 5 26 21 64 16 37 34 91 40 120 13
61 24 68 15 9z m-916 -555 c17 -21 45 -67 62 -103 37 -78 35 -75 50 -63 7 5
42 22 77 37 100 42 155 38 341 -23 l155 -50 123 -141 c100 -113 128 -140 143
-135 26 9 67 -19 80 -52 19 -52 31 -288 20 -395 -13 -118 -25 -138 -82 -138
-47 0 -63 24 -54 79 7 42 15 37 -93 66 -75 21 -123 48 -195 108 -84 71 -79 70
-131 47 -37 -17 -50 -19 -68 -9 -31 16 -98 80 -98 94 0 7 -18 37 -40 68 -22
30 -40 60 -40 64 0 11 -48 58 -53 52 -2 -2 -15 -24 -29 -49 -25 -43 -145 -200
-154 -200 -17 0 5 37 56 95 33 37 72 92 86 122 24 48 26 60 18 105 -8 46 -12
53 -39 60 -38 11 -90 80 -116 156 -10 31 -22 64 -26 72 -3 8 -5 21 -4 29 1 7
-2 10 -7 7 -6 -4 -8 3 -4 16 3 11 1 19 -4 16 -5 -4 -9 4 -10 15 -1 12 -5 37
-9 55 -10 43 6 41 45 -5z m155 -383 c3 -6 -1 -7 -9 -4 -18 7 -21 14 -7 14 6 0
13 -4 16 -10z m-608 -312 c-3 -7 -5 -2 -5 12 0 14 2 19 5 13 2 -7 2 -19 0 -25z
m69 -69 c14 -41 41 -94 60 -118 19 -24 34 -48 34 -53 0 -29 -109 37 -129 78
-13 29 -25 159 -17 181 7 16 8 16 16 2 5 -9 21 -49 36 -90z m345 -46 c-14 -53
-82 -155 -112 -170 -37 -18 -82 -24 -99 -13 -13 9 -11 13 9 28 13 9 65 59 114
110 49 51 92 91 94 88 2 -2 0 -22 -6 -43z"/>
<path d="M4355 7261 c-47 -12 -148 -66 -174 -95 l-24 -26 24 -26 c20 -22 30
-25 63 -20 21 4 51 13 67 21 59 31 63 17 14 -55 -43 -64 -45 -103 -9 -141 l27
-28 29 44 c16 25 47 58 68 75 43 34 156 90 183 90 29 0 19 -18 -15 -25 -18 -4
-46 -19 -63 -34 -16 -15 -48 -40 -70 -56 -65 -46 -105 -88 -105 -109 0 -12 15
-42 33 -67 l33 -47 16 28 c22 38 115 110 141 110 18 -1 16 -3 -9 -14 -52 -23
-113 -85 -126 -127 -11 -38 -10 -41 23 -75 44 -47 67 -55 101 -38 52 27 81 18
157 -46 107 -89 132 -100 221 -92 l74 7 14 45 c8 25 16 100 19 166 6 119 5
122 -18 140 -36 29 -115 109 -205 209 l-82 91 -154 52 c-150 51 -191 58 -253
43z"/>
<path d="M5048 6343 c12 -2 30 -2 40 0 9 3 -1 5 -23 4 -22 0 -30 -2 -17 -4z"/>
</g>
</svg>
