<?xml version="1.0" standalone="no"?>
<!DOCTYPE svg PUBLIC "-//W3C//DTD SVG 20010904//EN"
 "http://www.w3.org/TR/2001/REC-SVG-20010904/DTD/svg10.dtd">
<svg version="1.0" xmlns="http://www.w3.org/2000/svg"
 width="1024.000000pt" height="1536.000000pt" viewBox="0 0 1024.000000 1536.000000"
 preserveAspectRatio="xMidYMid meet">
<metadata>
Created by potrace 1.16, written by Peter Selinger 2001-2019
</metadata>
<g transform="translate(0.000000,1536.000000) scale(0.100000,-0.100000)"
fill="#000000" stroke="none">
<path d="M4605 14760 c-183 -29 -370 -136 -564 -324 -215 -209 -305 -359 -341
-576 -21 -125 -10 -300 19 -300 5 0 10 52 12 115 5 129 24 179 24 62 1 -90 22
-189 49 -230 25 -36 54 -51 41 -21 -12 30 -19 220 -8 227 6 4 13 -18 17 -54 6
-62 58 -283 78 -332 6 -15 35 -49 65 -76 52 -45 56 -51 75 -132 12 -52 20
-115 19 -165 -1 -64 3 -86 16 -103 18 -23 75 -40 128 -41 25 0 43 -13 97 -72
36 -40 88 -100 116 -134 100 -121 148 -139 250 -92 26 12 52 23 57 25 6 3 -6
-9 -25 -26 -41 -36 -183 -111 -330 -174 -250 -107 -280 -125 -326 -199 -90
-142 -186 -520 -186 -728 0 -85 -5 -118 -24 -170 -38 -107 -54 -190 -54 -290
0 -91 -2 -101 -45 -203 -25 -59 -48 -127 -52 -152 -3 -25 -8 -45 -10 -45 -3 0
-18 11 -35 25 -16 14 -38 25 -49 25 -19 0 -19 1 2 30 14 19 24 49 27 84 4 52
3 56 -32 90 -20 20 -36 44 -36 54 0 30 -36 78 -69 92 -29 12 -31 16 -31 62 0
44 -4 54 -34 84 -19 19 -43 34 -55 34 -11 0 -26 10 -33 22 -29 50 -165 247
-230 334 -85 113 -87 114 -288 114 -157 0 -190 -9 -190 -53 0 -12 46 -97 102
-189 l101 -168 -41 -36 c-35 -30 -42 -42 -42 -72 0 -48 30 -95 80 -127 22 -14
40 -26 40 -28 0 -1 -7 -24 -15 -50 -13 -43 -13 -52 1 -88 9 -22 27 -48 40 -58
21 -17 22 -21 11 -50 -10 -27 -9 -37 8 -69 11 -20 37 -48 58 -61 25 -16 37
-32 37 -47 0 -31 41 -77 87 -98 l39 -17 -4 -121 c-5 -124 13 -349 30 -381 12
-24 293 -210 403 -267 50 -26 124 -58 165 -71 41 -13 76 -24 77 -24 2 -1 -4
-37 -12 -81 -101 -556 -105 -586 -87 -598 5 -3 -4 -78 -19 -168 -56 -335 -118
-781 -150 -1085 -11 -100 -11 -114 4 -137 18 -27 66 -41 117 -34 35 5 34 11
15 -112 -58 -354 -156 -1123 -200 -1565 -32 -321 -33 -334 -41 -435 -3 -47 -8
-96 -10 -110 -2 -14 -7 -108 -11 -210 -8 -257 -5 -268 196 -680 87 -179 186
-392 219 -475 153 -383 323 -889 492 -1465 120 -413 119 -409 140 -420 14 -7
37 -8 71 -2 36 7 49 6 45 -2 -2 -6 -29 -65 -59 -131 -29 -66 -71 -160 -93
-209 -23 -54 -53 -103 -74 -124 -19 -19 -102 -67 -189 -109 -176 -87 -218
-122 -251 -209 -41 -106 -26 -150 59 -178 88 -29 192 -38 366 -33 190 5 272
22 397 80 99 46 156 97 294 262 76 91 123 139 133 137 88 -20 138 -7 211 55
l33 27 -8 -25 c-21 -70 -71 -135 -235 -302 -96 -98 -190 -202 -208 -230 -55
-88 -77 -194 -51 -251 14 -31 49 -48 159 -78 74 -20 107 -23 260 -23 158 1
184 3 272 27 185 52 294 125 378 256 45 69 45 70 97 75 100 10 140 54 154 171
20 159 22 269 5 357 -20 107 -20 109 3 109 10 0 24 6 30 14 26 31 119 812 170
1426 41 484 33 806 -34 1445 -40 388 -49 566 -36 786 16 261 72 977 124 1563
l42 480 150 61 c180 73 231 99 239 120 8 22 -127 964 -175 1219 -17 89 -18
114 -8 132 10 19 3 66 -41 286 -28 145 -54 272 -57 284 -4 21 -3 21 59 7 157
-33 247 56 332 327 46 147 90 358 111 530 22 175 30 540 16 705 -7 94 -7 163
1 256 10 107 9 151 -5 281 -44 408 -105 617 -215 739 -58 65 -95 86 -284 158
-218 85 -366 150 -560 247 l-166 84 -149 153 c-81 85 -159 159 -171 166 -13 7
-35 10 -48 7 -20 -5 -24 -2 -29 21 -6 29 -32 117 -42 143 -5 11 0 10 21 -4 15
-10 30 -16 32 -13 3 2 0 46 -6 98 -8 70 -8 138 2 264 16 215 14 319 -6 427
-28 146 -74 254 -175 405 -113 169 -263 282 -436 328 -72 20 -248 27 -330 15z
m1041 -1785 c7 -19 14 -45 14 -58 0 -44 -40 -176 -86 -283 -72 -170 -253 -524
-267 -523 -6 0 -37 29 -67 65 -57 66 -122 114 -157 114 -11 0 -41 -14 -67 -31
-46 -31 -48 -31 -61 -12 -8 11 -33 44 -56 72 l-41 53 -19 -28 c-38 -59 -54
-217 -35 -348 l6 -41 -61 0 c-56 0 -63 -3 -90 -33 -36 -40 -37 -75 -4 -118 33
-43 32 -54 -6 -54 -21 0 -40 -10 -61 -30 -27 -28 -30 -36 -25 -78 2 -26 8 -55
12 -64 5 -14 2 -18 -12 -18 -37 0 -57 -36 -58 -103 -1 -34 -7 -72 -13 -84 -15
-27 -15 -98 -1 -126 6 -12 20 -31 30 -43 19 -20 19 -26 -21 -310 -58 -415 -90
-629 -186 -1249 -98 -636 -107 -691 -116 -700 -7 -7 -126 33 -133 45 -2 3 18
134 45 291 69 403 110 668 200 1291 108 741 137 891 226 1162 33 101 132 356
152 392 7 13 15 6 40 -37 36 -64 67 -104 58 -76 -3 10 -9 59 -12 110 -5 76 -2
117 21 242 15 83 30 156 34 163 5 9 20 -11 45 -58 42 -80 91 -140 113 -140 46
0 178 104 354 280 143 142 222 249 246 329 8 31 17 59 20 64 9 16 25 5 39 -28z
m-426 -853 c19 -16 45 -34 57 -41 22 -11 22 -12 -36 -129 -31 -65 -63 -133
-69 -151 -6 -18 -15 -31 -19 -29 -22 9 -162 124 -160 131 4 13 180 247 186
247 4 0 22 -13 41 -28z m70 -532 c39 -77 57 -169 50 -250 -1 -14 -6 -1 -11 28
-14 85 -55 197 -99 268 -22 36 -40 69 -40 72 0 19 76 -72 100 -118z m226 -502
c10 -12 14 -18 7 -15 -6 4 -35 -14 -65 -42 -43 -39 -68 -76 -115 -168 -60
-116 -113 -255 -113 -297 -1 -19 -3 -18 -30 12 -17 18 -30 44 -30 58 0 62 84
260 156 370 62 94 147 131 190 82z m-513 -265 c20 -8 37 -20 37 -25 0 -6 -13
-103 -30 -217 -79 -549 -112 -1019 -109 -1531 l1 -185 -97 -3 -97 -3 6 83 c4
46 11 166 16 268 29 536 96 1414 126 1647 l5 43 52 -31 c29 -16 69 -37 90 -46z
m-1392 -300 c26 -127 -12 -328 -82 -429 -35 -52 -55 -64 -105 -64 -68 0 -145
106 -168 230 l-7 35 16 -35 c62 -135 208 -148 281 -24 44 75 65 258 37 331 -3
7 0 13 5 13 6 0 16 -26 23 -57z m1414 -4233 c26 -151 73 -499 100 -730 14
-124 30 -259 35 -300 6 -41 26 -203 45 -360 20 -157 53 -375 75 -485 49 -255
46 -239 70 -450 38 -354 53 -652 53 -1065 0 -296 -4 -434 -17 -550 -9 -85 -16
-158 -16 -162 0 -5 -4 -8 -10 -8 -6 0 -10 48 -10 125 0 143 -2 151 -122 635
-93 378 -186 733 -229 875 -101 334 -245 725 -300 814 l-40 64 15 66 c20 88 8
145 -44 220 -23 33 -40 68 -40 85 0 27 130 467 235 796 18 58 63 202 100 320
78 255 77 253 82 220 2 -14 10 -63 18 -110z"/>
</g>
</svg>
