<?xml version="1.0" standalone="no"?>
<!DOCTYPE svg PUBLIC "-//W3C//DTD SVG 20010904//EN"
 "http://www.w3.org/TR/2001/REC-SVG-20010904/DTD/svg10.dtd">
<svg version="1.0" xmlns="http://www.w3.org/2000/svg"
 width="1024.000000pt" height="1536.000000pt" viewBox="0 0 1024.000000 1536.000000"
 preserveAspectRatio="xMidYMid meet">
<metadata>
Created by potrace 1.16, written by Peter Selinger 2001-2019
</metadata>
<g transform="translate(0.000000,1536.000000) scale(0.100000,-0.100000)"
fill="#000000" stroke="none">
<path d="M5160 14753 c-284 -20 -552 -141 -659 -297 -36 -52 -61 -134 -61
-202 0 -46 -5 -59 -44 -111 -23 -32 -51 -80 -61 -106 -19 -52 -26 -166 -12
-228 7 -34 5 -37 -23 -49 -16 -7 -46 -30 -65 -51 -30 -33 -35 -46 -35 -87 0
-51 8 -65 88 -158 23 -27 44 -53 45 -58 1 -6 -34 -11 -78 -13 -135 -4 -136 -5
-217 -95 -40 -45 -88 -95 -107 -112 -19 -17 -75 -72 -125 -121 -143 -142 -191
-254 -211 -500 -4 -44 -20 -120 -35 -170 -16 -49 -36 -117 -45 -150 -32 -114
-54 -153 -92 -166 -19 -6 -44 -9 -55 -6 -33 9 -84 -18 -111 -58 -13 -20 -64
-129 -113 -243 -48 -114 -152 -358 -232 -542 -227 -528 -259 -631 -249 -809 5
-113 30 -188 83 -249 141 -165 368 -186 673 -63 259 105 299 119 340 126 l44
7 -6 -228 c-10 -368 -31 -563 -143 -1351 -39 -275 -43 -359 -18 -378 16 -11
15 -34 -5 -318 -30 -433 -59 -861 -67 -1009 l-6 -126 25 -16 c14 -10 76 -26
138 -37 62 -10 115 -21 117 -24 3 -2 13 -109 23 -237 25 -322 87 -942 164
-1648 54 -497 93 -857 120 -1110 3 -25 14 -139 25 -255 11 -115 27 -271 35
-345 8 -74 26 -247 40 -385 14 -137 35 -318 46 -402 l21 -151 -21 -149 c-50
-353 -76 -640 -67 -734 l7 -66 -57 -56 c-74 -75 -147 -108 -327 -151 -184 -44
-237 -67 -286 -122 -64 -73 -80 -206 -32 -258 24 -26 89 -48 216 -73 71 -14
139 -18 320 -18 200 0 245 3 344 23 138 28 245 61 365 113 105 46 134 48 166
14 19 -20 33 -25 74 -25 65 1 394 64 408 78 19 19 26 106 27 295 1 163 3 181
21 204 19 24 20 41 20 265 0 230 -13 1264 -25 1878 -8 469 -15 1386 -10 1370
3 -8 14 -78 25 -155 10 -77 44 -300 75 -495 74 -474 109 -701 155 -1030 22
-151 58 -401 80 -555 83 -577 130 -943 149 -1160 6 -72 17 -128 31 -160 13
-30 19 -61 16 -77 -8 -41 -59 -142 -130 -261 -72 -121 -105 -198 -115 -272 -8
-62 5 -154 25 -176 25 -28 106 -58 205 -75 127 -22 425 -14 549 15 207 47 284
102 305 216 4 22 16 46 27 53 42 30 51 75 53 273 1 102 4 190 7 195 4 5 9 28
13 52 3 23 17 63 30 90 23 43 25 65 34 257 5 116 8 597 7 1070 -4 977 -10
1109 -81 1765 -48 436 -53 615 -35 1170 5 162 14 502 20 755 8 331 15 463 23
471 7 6 44 21 83 33 115 34 109 6 94 399 l-12 337 44 65 c27 40 54 68 69 71
113 31 110 29 175 126 76 114 177 294 371 663 214 405 388 757 407 820 18 62
21 166 5 260 -38 237 -362 1393 -540 1924 -112 335 -148 407 -225 452 -61 36
-195 91 -510 209 -367 138 -395 153 -603 342 -94 86 -125 102 -159 84 -35 -19
-156 -231 -356 -626 -120 -236 -137 -264 -168 -279 -12 -6 -35 -36 -50 -66
-127 -262 -167 -342 -232 -455 -40 -71 -78 -131 -83 -132 -25 -9 -43 383 -22
501 10 59 12 62 57 86 62 33 92 79 83 122 -12 52 -40 98 -94 155 l-50 53 42 0
c23 0 61 10 84 21 113 58 334 229 502 389 60 58 129 121 152 138 51 40 84 118
87 207 4 83 4 85 20 85 25 0 61 58 136 215 89 187 104 243 97 352 -5 73 -3 91
23 166 39 110 54 219 47 342 -7 122 -26 196 -76 300 -68 142 -158 239 -309
334 -29 18 -61 46 -72 61 -66 92 -267 180 -480 208 -89 13 -237 20 -300 15z
m-695 -1069 c88 -30 160 -131 108 -151 -9 -4 -55 3 -102 15 -47 11 -115 26
-150 31 -75 12 -98 29 -82 59 15 28 89 62 137 62 22 0 62 -7 89 -16z m900 -31
c34 -18 85 -64 85 -77 0 -2 -73 -6 -162 -9 -90 -4 -203 -11 -253 -15 -99 -10
-145 -1 -145 27 0 58 147 102 325 98 89 -2 118 -7 150 -24z m-1000 -530 c-4
-16 -9 -109 -10 -208 l-4 -180 -37 -62 c-20 -35 -43 -63 -50 -63 -7 0 -26 -12
-43 -26 -19 -16 -37 -23 -48 -20 -10 4 -42 46 -71 95 -29 49 -62 97 -72 106
-11 10 -20 26 -20 35 0 9 -7 25 -15 36 -21 27 -19 31 23 53 20 11 65 48 98 84
34 36 76 72 93 81 17 9 56 34 87 56 68 47 79 49 69 13z m502 -350 c109 -58
176 -120 171 -158 -4 -24 -31 -25 -218 -6 -69 7 -182 15 -251 17 -147 6 -190
14 -168 32 52 45 67 56 89 66 14 6 51 28 82 50 71 47 124 67 163 59 17 -3 76
-30 132 -60z m-411 -285 c3 -13 11 -29 16 -35 6 -7 10 -66 9 -132 -2 -91 2
-127 13 -149 9 -17 18 -48 22 -71 6 -36 4 -41 -17 -50 -96 -39 -200 -89 -252
-119 -86 -50 -203 -171 -250 -257 l-38 -70 6 50 c3 28 8 95 11 150 8 141 42
209 161 325 49 47 115 107 147 134 47 39 66 65 93 122 18 40 33 79 33 86 0 15
19 38 31 38 4 0 11 -10 15 -22z m578 -560 c-4 -7 -27 -35 -50 -63 -51 -62 -84
-122 -84 -155 0 -14 11 -60 25 -102 l24 -77 -43 -128 c-24 -70 -66 -188 -94
-262 l-50 -135 -7 57 c-10 75 11 459 30 566 24 135 85 278 129 299 32 16 129
15 120 0z m2060 -2218 c29 -123 34 -189 19 -260 -12 -59 -42 -149 -60 -180 -7
-14 -26 -50 -41 -80 -33 -67 -31 -64 -37 -59 -6 7 20 239 50 449 13 96 25 195
25 220 0 66 14 38 44 -90z"/>
</g>
</svg>
