<?xml version="1.0" standalone="no"?>
<!DOCTYPE svg PUBLIC "-//W3C//DTD SVG 20010904//EN"
 "http://www.w3.org/TR/2001/REC-SVG-20010904/DTD/svg10.dtd">
<svg version="1.0" xmlns="http://www.w3.org/2000/svg"
 width="1024.000000pt" height="1536.000000pt" viewBox="0 0 1024.000000 1536.000000"
 preserveAspectRatio="xMidYMid meet">
<metadata>
Created by potrace 1.16, written by Peter Selinger 2001-2019
</metadata>
<g transform="translate(0.000000,1536.000000) scale(0.100000,-0.100000)"
fill="#000000" stroke="none">
<path d="M4830 14770 c-173 -45 -379 -178 -503 -326 -96 -113 -134 -207 -144
-350 -7 -114 8 -223 51 -359 l33 -104 -28 -57 c-35 -69 -35 -85 -4 -246 27
-143 49 -195 100 -235 19 -15 35 -34 35 -41 0 -8 21 -66 46 -130 48 -123 102
-230 166 -324 21 -31 38 -61 38 -66 0 -15 -113 -118 -171 -155 -80 -51 -210
-114 -424 -207 -274 -118 -357 -163 -410 -222 -75 -83 -111 -186 -169 -483
-131 -665 -219 -1500 -296 -2805 -11 -190 -29 -493 -41 -673 -17 -268 -18
-331 -8 -343 11 -13 28 -15 89 -10 41 3 150 9 243 12 l167 7 0 -36 0 -35 -173
-4 c-215 -4 -227 -9 -227 -94 0 -31 -9 -102 -21 -157 -26 -126 -22 -290 9
-377 65 -185 182 -334 313 -400 72 -37 116 -44 180 -31 28 6 53 10 55 8 4 -4
30 -316 49 -597 20 -282 70 -915 90 -1120 89 -939 128 -1907 106 -2637 -8
-236 -16 -466 -20 -513 l-6 -85 -89 -120 c-178 -238 -245 -293 -505 -406 -74
-32 -145 -69 -159 -81 -36 -33 -52 -79 -52 -148 0 -50 4 -65 23 -84 90 -90
556 -102 789 -21 40 14 125 56 188 94 142 85 143 86 206 100 44 11 59 10 98
-3 59 -20 180 -21 282 -1 94 18 171 42 180 57 26 42 18 350 -12 455 -13 47
-13 56 1 83 17 33 26 120 50 505 57 920 60 1066 57 2260 -3 1019 11 2176 27
2347 l7 73 8 -80 c8 -81 81 -591 155 -1090 22 -148 56 -378 76 -510 35 -238
121 -845 150 -1065 58 -436 139 -1194 180 -1680 38 -454 66 -737 76 -762 6
-15 19 -34 28 -42 16 -14 17 -33 13 -174 -3 -114 0 -182 11 -247 12 -68 14
-107 7 -160 -24 -184 -3 -282 76 -355 198 -182 667 -146 783 61 49 87 39 194
-38 375 -59 140 -93 254 -115 383 l-16 94 28 32 29 32 6 251 c4 137 12 387 19
554 20 532 16 1268 -10 1683 -57 933 -68 1225 -77 1940 -3 264 -8 506 -11 537
l-6 57 49 -6 c65 -7 130 25 223 113 187 177 265 411 216 651 -9 44 -16 107
-16 141 l0 61 -42 12 c-70 19 -235 46 -356 59 -91 10 -112 15 -108 27 4 8 6
21 6 30 0 13 13 14 93 8 125 -9 273 -31 385 -56 88 -21 96 -21 128 -6 19 10
36 26 39 39 6 28 40 604 56 958 15 329 15 1299 0 1640 -43 997 -101 1481 -202
1686 -71 144 -130 184 -479 324 -481 193 -735 335 -817 456 -22 32 -23 34 -8
101 26 118 37 156 67 236 27 69 32 77 56 77 38 1 102 32 134 66 59 63 114 246
106 352 -2 35 -14 78 -31 112 -25 49 -26 57 -15 94 8 26 13 108 13 221 0 171
-2 184 -28 260 -42 119 -100 209 -205 317 -146 150 -303 245 -469 282 -102 23
-286 21 -383 -4z m701 -2380 c-67 -200 -143 -423 -371 -1095 -62 -181 -115
-333 -119 -337 -3 -4 -7 109 -8 250 -1 141 -7 341 -13 443 l-12 185 41 59 c23
32 41 63 41 69 0 5 9 19 20 31 l20 21 -36 54 c-36 56 -90 109 -111 110 -35 1
-13 22 68 64 173 90 358 214 481 321 36 32 64 50 66 43 1 -7 -29 -105 -67
-218z m-732 -91 c42 -42 85 -82 96 -88 15 -9 17 -14 6 -18 -34 -14 -120 -95
-158 -149 -41 -57 -61 -103 -25 -56 l19 24 22 -64 c12 -34 27 -76 33 -93 8
-25 0 -74 -46 -272 -67 -291 -126 -574 -127 -611 l-1 -27 -8 27 c-4 15 -16 96
-26 180 -28 232 -26 629 5 843 12 88 25 236 28 329 l6 168 50 -58 c28 -33 85
-93 126 -135z m1522 -2692 c14 -235 21 -701 10 -717 -5 -8 -13 -11 -17 -7 -10
10 -18 864 -8 854 4 -4 11 -63 15 -130z m-2627 -2539 c8 -123 7 -210 -3 -226
-13 -21 -20 7 -27 112 -7 95 1 206 15 206 5 0 11 -41 15 -92z"/>
</g>
</svg>
