<?xml version="1.0" standalone="no"?>
<!DOCTYPE svg PUBLIC "-//W3C//DTD SVG 20010904//EN"
 "http://www.w3.org/TR/2001/REC-SVG-20010904/DTD/svg10.dtd">
<svg version="1.0" xmlns="http://www.w3.org/2000/svg"
 width="1024.000000pt" height="1536.000000pt" viewBox="0 0 1024.000000 1536.000000"
 preserveAspectRatio="xMidYMid meet">
<metadata>
Created by potrace 1.16, written by Peter Selinger 2001-2019
</metadata>
<g transform="translate(0.000000,1536.000000) scale(0.100000,-0.100000)"
fill="#000000" stroke="none">
<path d="M4835 15014 c-33 -7 -76 -13 -95 -14 -76 -1 -295 -78 -318 -112 -10
-13 -50 -56 -91 -94 -91 -85 -231 -292 -285 -423 -21 -49 -53 -107 -71 -128
-27 -32 -33 -49 -38 -108 -7 -69 -53 -225 -74 -246 -10 -10 -8 -164 3 -198 7
-21 31 4 39 40 9 42 23 45 43 8 9 -18 30 -46 46 -63 31 -34 66 -99 85 -158 7
-20 27 -50 44 -65 18 -16 40 -46 50 -68 10 -22 36 -52 58 -68 49 -34 61 -64
60 -149 -2 -88 25 -221 56 -279 38 -72 106 -101 136 -58 11 14 23 20 43 17 23
-2 34 -13 55 -55 38 -75 65 -109 105 -134 20 -12 67 -52 105 -90 39 -38 83
-72 102 -78 17 -5 46 -15 63 -22 28 -11 37 -9 100 24 38 19 88 37 112 40 49 6
52 -3 27 -81 -14 -43 -20 -49 -65 -65 -26 -9 -77 -38 -112 -64 -79 -60 -256
-230 -273 -264 -24 -46 -46 -158 -60 -309 -8 -87 -64 -461 -75 -505 -32 -127
-80 -348 -80 -370 0 -14 -4 -25 -9 -25 -5 0 -61 62 -124 138 -140 168 -234
248 -344 290 -120 46 -222 65 -318 60 -84 -4 -118 -18 -109 -43 3 -7 1 -16 -4
-19 -6 -3 -8 -15 -5 -25 4 -18 70 -47 144 -65 29 -8 84 -34 104 -50 l20 -17
-20 5 c-28 7 -171 45 -227 60 -77 21 -224 170 -345 348 -108 161 -128 173
-328 202 -146 21 -171 21 -189 -5 -27 -39 17 -110 161 -262 115 -121 214 -242
206 -251 -4 -3 -14 -6 -24 -6 -9 0 -27 -8 -39 -18 -17 -14 -21 -24 -15 -41 9
-30 71 -99 110 -122 27 -17 30 -24 30 -70 0 -48 2 -53 35 -70 27 -15 43 -37
72 -97 52 -107 131 -216 184 -255 25 -17 68 -50 97 -73 29 -23 61 -44 72 -48
11 -3 41 -25 68 -49 l47 -42 3 -215 c2 -178 5 -220 19 -245 21 -39 54 -68 103
-92 22 -10 69 -35 105 -55 100 -56 234 -100 308 -102 58 -1 63 -3 57 -21 -3
-11 -10 -56 -16 -100 -6 -44 -27 -174 -46 -290 -19 -115 -37 -228 -40 -250 -4
-37 -3 -39 11 -21 9 11 18 17 20 15 3 -3 -3 -45 -13 -94 -11 -50 -29 -151 -40
-225 -73 -476 -145 -930 -162 -1019 -27 -151 -26 -168 21 -239 39 -59 40 -61
30 -108 -17 -73 -137 -721 -240 -1289 -46 -251 -100 -600 -115 -740 -3 -33
-20 -163 -37 -290 -43 -328 -43 -328 71 -595 97 -228 161 -375 218 -503 63
-143 330 -911 403 -1161 78 -267 127 -548 165 -949 6 -60 10 -69 31 -77 13 -5
24 -16 24 -24 0 -30 -140 -223 -227 -313 -121 -126 -167 -146 -483 -208 -107
-22 -166 -45 -239 -95 -109 -73 -172 -163 -159 -226 8 -43 104 -83 263 -109
120 -20 484 -20 620 0 210 30 272 53 596 219 191 98 249 120 263 97 10 -16
-86 -113 -186 -187 -54 -40 -157 -103 -230 -141 -193 -99 -288 -202 -288 -313
0 -36 4 -41 38 -58 98 -49 266 -66 601 -59 146 3 294 10 329 16 161 29 304 95
394 182 l47 46 102 8 c120 8 190 25 281 67 117 54 112 37 104 325 -3 136 -9
278 -12 314 l-6 66 54 7 55 7 6 87 c22 299 69 1151 76 1387 13 423 6 1006 -14
1135 -8 58 -38 278 -65 490 -27 212 -63 453 -80 535 l-31 150 16 280 c8 154
20 350 25 435 6 85 15 229 20 320 30 466 37 543 60 595 18 38 25 80 32 180 4
71 14 166 21 209 l12 80 90 36 c128 52 213 97 225 120 8 15 6 67 -10 202 -20
176 -49 484 -90 948 -22 244 -37 380 -75 678 -34 264 -35 251 29 336 54 72 88
144 125 271 57 197 219 888 301 1285 28 135 58 274 66 310 24 100 29 366 10
546 -29 269 -80 410 -190 520 -60 59 -102 90 -421 312 -234 163 -285 208 -346
307 -28 46 -66 101 -84 122 -32 37 -32 37 -73 25 -46 -14 -59 -29 -159 -179
-40 -59 -143 -213 -229 -342 -86 -129 -182 -280 -214 -335 -31 -56 -81 -141
-109 -190 -67 -115 -180 -349 -215 -446 -15 -41 -31 -84 -36 -95 -19 -45 -10
18 15 99 13 44 36 135 49 201 47 229 57 252 116 290 22 14 40 34 42 47 5 31
-23 86 -66 127 -20 19 -36 44 -36 55 0 47 89 158 202 253 43 35 142 133 220
216 78 84 156 161 173 173 16 11 56 38 88 58 40 27 57 45 57 60 0 24 -28 73
-74 131 -51 64 -57 91 -71 325 -2 36 -7 103 -10 150 -3 47 -7 153 -10 235 -8
237 -35 361 -112 524 -75 159 -224 305 -409 399 -119 61 -299 97 -409 83 -39
-4 -71 -5 -73 0 -5 12 -34 10 -107 -7z m309 -2854 c-8 -47 -36 -152 -64 -235
-27 -82 -65 -215 -85 -295 -51 -205 -55 -217 -49 -145 6 66 69 319 109 435 14
41 35 111 46 155 24 97 50 178 55 173 2 -2 -4 -42 -12 -88z m-531 -1542 c-6
-7 -37 -87 -68 -178 -80 -228 -121 -317 -141 -297 -4 4 -9 31 -12 60 -3 43 2
69 31 143 49 127 72 170 130 242 33 40 54 59 60 53 7 -7 6 -15 0 -23z m-467
-390 c-75 -167 -78 -169 -136 -126 -17 12 -49 24 -72 27 -66 9 -56 26 25 37
86 13 139 46 180 112 43 69 44 41 3 -50z m1098 -4509 c13 -85 45 -274 70 -420
25 -146 53 -335 61 -420 45 -451 123 -878 184 -998 31 -60 50 -174 76 -451 37
-408 47 -621 43 -915 -4 -240 -7 -279 -27 -350 -12 -44 -26 -83 -30 -88 -13
-13 -109 348 -157 588 -25 127 -72 349 -104 495 -32 146 -75 341 -95 435 -39
180 -97 358 -150 466 -34 66 -76 185 -114 316 -14 46 -38 95 -66 135 -115 160
-131 197 -122 272 2 23 47 151 99 286 52 135 141 372 198 526 58 155 106 281
107 280 2 -1 14 -72 27 -157z"/>
</g>
</svg>
