<?xml version="1.0" standalone="no"?>
<!DOCTYPE svg PUBLIC "-//W3C//DTD SVG 20010904//EN"
 "http://www.w3.org/TR/2001/REC-SVG-20010904/DTD/svg10.dtd">
<svg version="1.0" xmlns="http://www.w3.org/2000/svg"
 width="1024.000000pt" height="1536.000000pt" viewBox="0 0 1024.000000 1536.000000"
 preserveAspectRatio="xMidYMid meet">
<metadata>
Created by potrace 1.16, written by Peter Selinger 2001-2019
</metadata>
<g transform="translate(0.000000,1536.000000) scale(0.100000,-0.100000)"
fill="#000000" stroke="none">
<path d="M5013 14490 c-101 -11 -265 -64 -403 -132 -87 -43 -118 -65 -180
-128 -95 -95 -142 -181 -181 -338 -36 -141 -41 -262 -14 -362 12 -48 15 -84
11 -135 -19 -208 -18 -248 4 -344 18 -83 20 -112 14 -240 -7 -164 6 -246 50
-304 13 -18 34 -52 46 -76 12 -24 43 -65 70 -92 l48 -48 -152 -80 c-83 -44
-214 -110 -291 -147 -400 -190 -423 -202 -454 -245 -36 -49 -61 -122 -100
-294 -185 -808 -381 -1894 -500 -2785 -106 -784 -155 -1223 -141 -1249 5 -11
29 -26 51 -32 40 -12 40 -13 34 -48 -4 -20 -11 -74 -15 -121 -4 -47 -16 -114
-25 -150 -25 -97 -17 -200 28 -332 40 -118 83 -210 131 -277 36 -51 220 -185
277 -202 34 -11 44 -9 86 13 98 50 143 153 87 197 -15 12 -33 21 -40 21 -18 0
-18 -1 5 51 29 65 43 194 39 353 -2 78 1 211 5 296 4 85 4 161 -1 168 -12 17
-85 28 -307 47 -222 19 -242 22 -227 37 6 6 62 13 124 16 171 7 380 -22 430
-60 21 -16 49 -246 52 -428 3 -149 11 -167 91 -200 30 -12 56 -29 59 -39 3 -9
10 -101 15 -206 41 -729 70 -1120 141 -1875 11 -113 29 -313 40 -445 12 -132
30 -337 40 -455 101 -1133 107 -1373 49 -1940 -15 -152 -17 -200 -8 -217 10
-18 6 -33 -31 -100 -127 -234 -272 -356 -517 -433 -186 -59 -253 -116 -253
-218 0 -50 3 -58 38 -92 43 -43 71 -51 291 -81 337 -45 478 -16 771 160 82 50
159 93 172 96 16 4 38 -4 73 -27 46 -31 55 -33 130 -32 64 1 97 7 169 34 154
57 190 106 212 289 7 64 14 147 14 186 0 63 2 71 26 90 25 20 27 30 35 126 40
528 43 2335 4 2674 -2 22 -7 92 -10 155 -3 63 -8 138 -11 165 -2 28 7 228 21
445 14 217 28 466 32 553 3 86 9 157 13 157 14 0 126 -598 210 -1125 39 -247
120 -830 140 -1015 6 -52 22 -189 35 -305 13 -115 38 -345 54 -510 29 -290 44
-460 96 -1100 26 -323 21 -304 86 -346 24 -16 24 -17 24 -190 0 -96 -3 -248
-5 -339 l-5 -165 30 -60 c58 -113 161 -165 345 -172 181 -8 300 29 400 123
106 100 121 228 60 539 -18 94 -35 202 -37 242 l-5 71 36 17 c20 10 41 25 46
34 12 23 37 398 51 766 13 343 7 1163 -11 1435 -6 91 -26 356 -45 590 -54 666
-58 774 -46 1067 6 142 13 391 16 553 4 162 8 304 10 316 3 14 31 35 83 63
166 89 301 212 375 341 14 25 43 95 64 155 l38 110 -2 173 c0 95 -4 184 -7
197 -5 21 -3 25 16 25 26 0 87 16 105 28 9 5 20 87 33 246 11 131 29 322 41
424 97 893 119 1225 107 1563 -15 417 -98 1133 -198 1709 -45 259 -57 310
-101 450 -66 205 -107 240 -409 355 -292 112 -606 255 -727 332 -88 56 -182
150 -208 209 -70 154 -100 284 -79 339 4 9 23 24 43 35 153 77 237 354 158
517 -24 50 -25 60 -20 170 6 146 -14 271 -57 360 -23 45 -63 94 -153 186 -67
68 -143 138 -169 156 -131 88 -369 134 -585 111z m-372 -851 c70 -24 88 -63
47 -106 -24 -26 -85 -31 -178 -13 -30 6 -78 11 -107 11 -48 2 -53 4 -53 25 0
32 38 72 85 90 44 16 147 12 206 -7z m759 -2 c38 -19 66 -51 75 -88 l6 -24
-103 0 c-57 0 -133 -4 -169 -9 -80 -10 -115 -3 -124 25 -8 23 15 63 44 79 75
40 207 48 271 17z m-578 -697 c42 -12 53 -12 95 3 27 9 69 17 94 17 94 0 243
-101 294 -200 l17 -32 -64 4 c-34 2 -115 17 -178 32 -111 27 -116 29 -115 54
0 33 -28 41 -55 17 -17 -15 -24 -16 -50 -5 -43 18 -80 8 -220 -60 -68 -33
-132 -60 -142 -60 -14 0 -18 8 -18 35 0 77 54 144 154 192 56 26 105 27 188 3z
m928 -308 c0 -78 -230 -611 -364 -846 -37 -64 -85 -155 -107 -201 -30 -65
-201 -489 -232 -575 -3 -8 -6 164 -6 383 l-1 397 23 11 c46 21 62 58 62 139
-1 86 -33 167 -72 185 -28 12 -30 25 -3 25 45 0 212 63 288 109 169 101 322
241 377 344 18 34 35 48 35 29z m-985 -477 c55 -15 102 -29 104 -31 2 -2 -8
-13 -22 -24 -36 -29 -78 -123 -84 -191 -5 -47 -2 -64 16 -92 11 -19 21 -45 21
-58 0 -13 -30 -136 -65 -274 -36 -137 -77 -299 -93 -359 l-27 -109 -10 594
c-6 327 -9 597 -7 601 1 4 17 -1 35 -12 18 -10 77 -31 132 -45z m1850 -3062
c-4 -73 -10 -133 -14 -133 -3 0 -3 62 0 137 8 161 9 175 16 149 3 -11 2 -80
-2 -153z m184 -1668 c94 -14 225 -41 319 -66 31 -9 42 -17 42 -31 0 -16 -5
-19 -27 -14 -16 2 -55 8 -88 11 -57 6 -236 39 -373 68 -35 7 -63 16 -62 20 0
4 0 12 0 17 0 14 74 12 189 -5z m-3530 -652 c1 -34 5 -73 11 -87 5 -15 6 -26
1 -26 -22 0 -45 126 -35 184 7 37 8 39 15 16 4 -14 7 -53 8 -87z"/>
</g>
</svg>
