<?xml version="1.0" standalone="no"?>
<!DOCTYPE svg PUBLIC "-//W3C//DTD SVG 20010904//EN"
 "http://www.w3.org/TR/2001/REC-SVG-20010904/DTD/svg10.dtd">
<svg version="1.0" xmlns="http://www.w3.org/2000/svg"
 width="1024.000000pt" height="1536.000000pt" viewBox="0 0 1024.000000 1536.000000"
 preserveAspectRatio="xMidYMid meet">
<metadata>
Created by potrace 1.16, written by Peter Selinger 2001-2019
</metadata>
<g transform="translate(0.000000,1536.000000) scale(0.100000,-0.100000)"
fill="#000000" stroke="none">
<path d="M5286 14689 c-122 -16 -312 -72 -411 -121 -62 -31 -184 -115 -251
-174 -80 -70 -131 -150 -214 -338 -38 -85 -91 -197 -119 -249 -28 -52 -51
-101 -51 -111 0 -9 9 -44 21 -78 35 -104 10 -148 -83 -148 -32 0 -73 -6 -91
-13 -38 -17 -215 -157 -272 -216 -22 -23 -74 -60 -115 -82 -142 -74 -230 -173
-290 -325 -28 -69 -96 -331 -129 -495 l-12 -55 -73 -11 c-90 -13 -119 -32
-228 -158 -133 -152 -269 -370 -439 -700 -252 -491 -349 -757 -349 -955 0
-160 41 -261 148 -362 119 -112 306 -188 555 -224 61 -9 113 -17 114 -18 1 -1
-25 -85 -58 -186 -186 -570 -287 -991 -333 -1385 -37 -319 -41 -428 -41 -1025
l1 -596 27 -47 c47 -79 181 -164 313 -197 l52 -13 27 -136 c45 -228 102 -475
166 -710 63 -234 72 -266 238 -826 106 -358 138 -499 196 -865 79 -490 126
-767 176 -1040 l52 -285 -26 -67 c-34 -84 -58 -226 -93 -539 -25 -235 -26
-248 -10 -280 l17 -34 -89 -86 c-110 -108 -204 -156 -384 -200 -202 -49 -207
-51 -252 -80 -75 -50 -165 -198 -166 -271 0 -50 33 -87 117 -130 155 -81 314
-116 563 -125 280 -9 449 17 696 110 163 61 191 66 211 37 23 -33 71 -49 165
-56 153 -11 480 31 560 72 57 30 60 44 66 302 4 209 7 240 23 262 22 30 29 88
64 552 48 643 50 724 49 1583 -1 451 1 811 3 800 3 -11 92 -284 199 -607 207
-622 217 -661 350 -1292 46 -220 47 -231 36 -300 -13 -79 -6 -177 28 -376 11
-63 24 -158 30 -210 15 -144 28 -186 62 -215 16 -14 36 -25 44 -25 36 0 -6
-171 -62 -252 -16 -22 -56 -60 -91 -85 -34 -24 -73 -57 -87 -73 -42 -51 -68
-135 -73 -245 -5 -98 -5 -101 21 -132 35 -41 147 -88 267 -110 114 -22 352
-23 484 -4 278 41 533 163 629 300 23 31 43 47 75 58 60 20 114 55 136 89 16
26 18 44 12 220 -6 182 -5 192 12 197 39 10 49 47 61 207 14 194 21 1180 10
1480 -9 243 -30 474 -60 666 -27 171 -95 502 -130 641 l-31 117 16 240 c49
767 76 1079 130 1523 14 112 25 205 25 208 0 3 9 5 20 5 34 0 126 39 149 64
22 23 22 29 21 266 0 193 2 246 13 259 13 15 132 221 349 606 319 565 475 925
540 1246 21 103 23 140 22 384 0 245 -3 286 -28 440 -75 466 -183 861 -351
1285 -74 188 -219 484 -287 585 -140 211 -371 374 -963 680 l-249 129 -134
131 -135 131 0 69 c-1 54 8 103 40 215 114 397 133 489 133 654 0 390 -117
670 -372 891 -132 115 -314 198 -502 230 -96 16 -288 18 -400 4z m-1004 -1466
c-66 -138 -76 -183 -57 -254 45 -164 46 -257 3 -350 -26 -56 -104 -143 -138
-154 -43 -14 -242 165 -288 258 -36 72 -30 83 73 140 103 58 234 180 280 262
15 28 49 73 75 100 26 28 57 65 70 83 41 61 33 23 -18 -85z m2052 -725 c-9
-18 -65 -87 -124 -153 -95 -105 -401 -471 -641 -767 -102 -125 -190 -220 -200
-216 -5 2 -47 38 -93 81 -69 63 -94 94 -132 165 -25 48 -55 99 -65 114 l-18
26 142 69 c223 109 739 436 1055 668 48 35 88 60 90 55 2 -5 -4 -23 -14 -42z
m-1940 -273 c25 -51 97 -124 151 -153 17 -9 11 -12 -40 -27 -188 -51 -340
-115 -457 -190 -77 -51 -164 -95 -186 -95 -12 0 -42 57 -42 80 0 5 28 24 61
41 161 81 291 183 418 326 36 40 65 73 67 73 1 0 14 -25 28 -55z m-1072 -180
c43 -34 129 -90 190 -125 178 -100 185 -104 167 -108 -24 -4 -176 54 -244 93
-33 20 -83 46 -111 59 -51 24 -101 85 -119 144 -6 22 -5 23 17 11 12 -6 58
-40 100 -74z m1503 -222 c44 -15 73 -28 65 -31 -82 -25 -168 -91 -201 -154
-20 -40 -26 -113 -9 -123 34 -21 -2 -104 -129 -299 -173 -267 -302 -509 -361
-677 -15 -46 -29 -79 -29 -73 -1 6 23 107 53 225 92 360 187 619 353 950 l102
205 38 2 c21 0 74 -11 118 -25z m400 -420 c62 -58 94 -96 90 -104 -5 -6 -60
-80 -124 -163 -121 -157 -335 -469 -391 -568 -17 -32 -33 -58 -35 -58 -4 0 -3
10 31 235 45 300 112 557 161 616 30 35 155 139 164 136 3 -1 50 -43 104 -94z
m1616 -3779 c163 -49 363 -202 469 -361 65 -97 66 -153 4 -153 -17 0 -35 18
-69 69 -52 77 -134 158 -310 308 -128 108 -175 153 -159 153 6 0 35 -7 65 -16z"/>
</g>
</svg>
