<?xml version="1.0" standalone="no"?>
<!DOCTYPE svg PUBLIC "-//W3C//DTD SVG 20010904//EN"
 "http://www.w3.org/TR/2001/REC-SVG-20010904/DTD/svg10.dtd">
<svg version="1.0" xmlns="http://www.w3.org/2000/svg"
 width="1024.000000pt" height="1536.000000pt" viewBox="0 0 1024.000000 1536.000000"
 preserveAspectRatio="xMidYMid meet">
<metadata>
Created by potrace 1.16, written by Peter Selinger 2001-2019
</metadata>
<g transform="translate(0.000000,1536.000000) scale(0.100000,-0.100000)"
fill="#000000" stroke="none">
<path d="M4690 14524 c-214 -46 -489 -184 -686 -345 -126 -103 -181 -181 -248
-351 -49 -126 -27 -226 65 -297 l44 -34 5 -161 c5 -149 8 -166 33 -221 16 -33
51 -83 79 -112 l51 -52 -8 -138 c-5 -76 -9 -159 -9 -184 -1 -86 41 -127 144
-138 l55 -6 18 -70 c22 -84 47 -124 99 -156 23 -15 38 -32 38 -44 1 -32 26
-93 54 -134 28 -40 109 -91 144 -91 20 0 72 -35 72 -50 0 -4 -48 -75 -106
-156 -165 -232 -202 -297 -456 -806 -131 -263 -240 -478 -242 -478 -3 0 -14
20 -25 44 -52 119 -218 306 -317 358 -108 58 -219 70 -394 43 l-95 -14 -23 27
c-13 15 -79 110 -147 212 -181 272 -181 272 -401 278 -182 5 -194 1 -194 -64
0 -57 22 -98 107 -204 38 -47 111 -140 162 -207 77 -102 91 -125 82 -141 -17
-32 -24 -116 -12 -159 8 -28 25 -53 51 -76 38 -32 40 -36 34 -78 -8 -56 13
-109 55 -140 23 -17 31 -31 31 -54 0 -78 55 -169 178 -297 47 -49 115 -108
149 -131 l62 -41 31 -130 c40 -171 64 -243 100 -300 34 -53 107 -104 163 -113
20 -3 40 -9 43 -14 2 -4 -4 -68 -15 -141 -94 -629 -135 -1177 -135 -1808 -1
-451 9 -586 48 -663 26 -51 54 -67 127 -67 69 0 143 35 194 91 38 43 38 43 55
-41 6 -30 22 -74 35 -98 24 -43 24 -46 15 -165 -5 -67 -14 -203 -20 -302 -5
-99 -12 -220 -15 -270 -47 -820 -54 -1309 -25 -1647 8 -100 6 -149 -15 -355
-13 -131 -29 -317 -36 -413 -13 -198 -7 -524 12 -616 l12 -61 -59 -74 c-128
-161 -158 -227 -233 -507 -67 -250 -81 -287 -135 -344 -52 -53 -249 -199 -316
-233 -81 -41 -152 -55 -355 -70 -375 -28 -383 -30 -459 -145 -72 -108 -86
-187 -43 -228 68 -64 484 -176 800 -217 241 -31 418 -17 652 50 203 58 249 59
263 2 6 -25 18 -37 54 -55 42 -21 64 -24 245 -29 227 -6 429 8 482 35 21 10
43 33 55 57 19 37 21 58 21 241 0 226 0 228 71 245 23 6 49 18 58 28 14 15 95
255 260 771 201 629 394 1340 456 1683 7 37 16 69 20 72 4 2 33 -55 65 -128
324 -739 467 -1053 586 -1289 86 -171 91 -184 94 -252 7 -169 82 -548 144
-729 l20 -56 -26 -38 c-48 -71 -165 -204 -207 -235 -79 -59 -175 -95 -363
-137 -213 -47 -266 -70 -317 -139 -77 -105 -98 -198 -53 -240 92 -86 676 -183
1022 -169 234 10 390 49 587 148 104 52 143 59 183 33 14 -9 42 -20 62 -25 85
-19 467 62 510 109 35 37 48 122 34 218 -6 44 -11 127 -11 185 -1 57 -7 133
-15 169 -18 83 -18 90 0 90 20 0 35 32 35 77 0 71 -195 1625 -236 1872 -74
453 -194 820 -361 1107 -23 39 -33 75 -47 174 -10 69 -29 157 -42 197 l-23 72
24 178 c32 240 49 526 41 702 l-6 144 49 122 c27 67 64 176 81 241 34 134 73
219 110 246 14 10 68 30 120 44 123 33 175 63 202 119 l21 43 -27 259 c-72
686 -92 843 -152 1178 -60 340 -97 506 -229 1014 -47 181 -54 219 -45 250 5
20 11 101 14 181 4 91 15 197 31 285 51 279 70 680 44 941 -44 448 -230 890
-530 1264 -120 150 -313 345 -464 470 -137 113 -227 203 -285 285 -29 41 -42
51 -69 53 -32 3 -44 -7 -235 -200 -111 -112 -255 -261 -321 -333 -114 -124
-395 -458 -501 -595 -221 -285 -312 -417 -352 -509 l-23 -56 6 45 c7 56 59
158 138 275 65 96 97 167 97 216 0 39 19 66 181 256 154 180 353 395 608 658
266 275 279 296 223 353 -26 27 -28 35 -31 117 -1 48 -15 149 -31 224 -15 75
-31 165 -35 201 -4 36 -16 88 -26 115 -10 28 -30 91 -44 140 -36 123 -114 264
-192 343 -74 75 -149 113 -280 141 -50 11 -113 31 -140 44 -26 14 -72 30 -101
36 -72 15 -292 13 -372 -5z m-3 -2710 c-9 -9 -28 6 -21 18 4 6 10 6 17 -1 6
-6 8 -13 4 -17z m-1428 -979 c30 -8 59 -19 65 -26 8 -9 7 -11 -5 -7 -8 3 -67
12 -130 19 -84 10 -106 15 -84 20 50 11 97 10 154 -6z m656 -538 c-20 -42 -51
-123 -70 -179 -34 -104 -85 -350 -85 -414 0 -21 -4 -33 -10 -29 -13 8 -13 183
1 279 12 90 48 215 79 277 23 45 109 153 116 146 2 -2 -12 -38 -31 -80z m-592
-579 c20 -25 37 -49 37 -53 0 -14 -70 58 -86 87 -17 33 -18 49 -1 27 7 -8 29
-36 50 -61z"/>
</g>
</svg>
