<?xml version="1.0" standalone="no"?>
<!DOCTYPE svg PUBLIC "-//W3C//DTD SVG 20010904//EN"
 "http://www.w3.org/TR/2001/REC-SVG-20010904/DTD/svg10.dtd">
<svg version="1.0" xmlns="http://www.w3.org/2000/svg"
 width="1024.000000pt" height="1024.000000pt" viewBox="0 0 1024.000000 1024.000000"
 preserveAspectRatio="xMidYMid meet">
<metadata>
Created by potrace 1.16, written by Peter Selinger 2001-2019
</metadata>
<g transform="translate(0.000000,1024.000000) scale(0.100000,-0.100000)"
fill="#000000" stroke="none">
<path d="M3900 9757 c-81 -28 -212 -105 -291 -172 -147 -124 -244 -315 -265
-524 -4 -38 0 -127 11 -231 21 -193 15 -256 -34 -365 l-28 -62 35 -24 c19 -13
96 -88 171 -167 75 -78 152 -153 171 -166 60 -40 87 -74 103 -132 15 -53 15
-57 -5 -96 -23 -43 -22 -57 11 -258 13 -77 24 -392 12 -360 -5 14 -14 68 -21
120 -51 403 -194 702 -479 999 l-80 84 -28 -34 c-105 -127 -195 -204 -392
-334 -76 -49 -170 -122 -215 -166 -169 -162 -198 -248 -321 -964 -30 -176 -72
-417 -95 -535 -88 -473 -152 -838 -190 -1095 -72 -486 -130 -997 -130 -1147 0
-63 15 -70 150 -72 108 -1 140 -11 140 -42 0 -31 -44 -39 -235 -42 l-190 -4
-2 194 c-8 638 -117 1595 -299 2600 -28 160 -36 183 -72 221 -60 63 -197 55
-247 -15 -40 -58 -39 -76 29 -439 212 -1137 301 -1855 312 -2539 3 -184 10
-341 16 -361 8 -27 5 -107 -11 -320 -42 -568 -92 -1209 -111 -1443 -26 -304
-80 -1011 -80 -1042 0 -24 1 -24 104 -24 l104 0 6 27 c2 16 8 64 11 108 3 44
12 148 20 230 33 351 48 520 95 1065 63 725 108 1237 116 1318 l7 62 1116 -2
1116 -3 21 -370 c12 -203 27 -453 33 -555 6 -102 24 -421 41 -710 16 -289 37
-640 45 -780 8 -140 15 -285 15 -322 l0 -68 110 0 111 0 -6 48 c-3 26 -17 277
-30 557 -25 505 -46 911 -65 1260 -10 186 -38 747 -42 870 l-3 70 65 8 c36 4
76 15 88 23 35 23 52 74 52 154 l0 70 62 0 c56 0 290 -19 295 -24 2 -1 -6 -56
-16 -122 -29 -178 -59 -398 -81 -599 -41 -374 -120 -1325 -119 -1425 1 -30 2
-86 3 -125 0 -53 -8 -104 -38 -210 -36 -130 -39 -152 -43 -305 -5 -185 0 -203
57 -233 31 -16 57 -18 210 -15 187 4 200 7 276 64 45 35 69 30 123 -24 71 -71
93 -75 388 -69 201 4 264 9 333 25 82 20 187 56 202 70 9 9 -26 122 -49 159
l-17 28 30 -26 c47 -43 135 -94 194 -115 48 -17 83 -19 280 -18 220 1 263 5
523 50 21 4 41 13 44 21 8 21 -46 122 -88 164 -47 47 -108 79 -151 79 -40 0
-164 31 -235 58 -68 26 -164 80 -233 132 -50 37 -254 231 -248 235 2 1 28 7
58 14 88 19 85 11 56 157 -83 422 -138 792 -281 1909 -72 558 -92 660 -147
769 -53 103 -143 178 -271 224 -104 38 -174 52 -442 92 -247 36 -664 119 -785
155 -132 39 -201 77 -264 146 -108 117 -173 292 -183 492 -3 64 -3 117 2 117
4 0 35 -8 69 -17 52 -16 102 -18 357 -17 l296 2 -1 -97 c0 -53 3 -112 7 -132
l7 -36 668 -6 c367 -4 1242 -7 1945 -7 l1277 0 0 -2185 0 -2185 -465 0 -465 0
0 -115 0 -115 810 0 810 0 0 115 0 115 -200 0 -200 0 0 2185 0 2185 197 2 197
3 -1 160 -2 160 -784 3 -785 2 44 101 c24 55 130 303 235 552 105 249 249 589
320 756 71 167 127 306 125 308 -12 13 -122 51 -128 45 -4 -4 -51 -113 -105
-242 -55 -129 -207 -488 -338 -797 l-240 -562 -411 -1 c-226 0 -427 -3 -445
-6 -30 -5 -28 -2 19 21 64 33 67 52 14 109 -21 23 -54 70 -72 104 -40 75 -100
133 -161 155 -94 34 -277 80 -334 84 -52 4 -264 -20 -490 -57 -67 -11 -108
-36 -113 -69 -2 -12 7 -55 19 -94 18 -54 24 -97 24 -172 l1 -100 174 -5 c168
-5 174 -6 150 -22 -14 -9 -59 -31 -102 -47 -71 -29 -85 -31 -203 -31 l-127 0
6 33 c4 17 9 84 13 148 5 114 -8 237 -37 341 -13 45 -11 45 -250 53 -339 11
-662 37 -706 57 -50 23 -163 200 -235 368 -43 101 -102 276 -140 418 -17 64
-51 176 -75 247 -24 72 -44 143 -44 158 0 33 -15 102 -37 174 -16 49 -16 57 0
125 27 112 40 129 116 144 58 12 69 11 119 -6 64 -23 92 -24 141 -6 24 8 38
22 45 42 5 16 27 54 48 85 23 35 38 68 38 86 0 40 19 54 77 57 27 2 60 10 75
20 54 35 84 146 74 272 -5 67 -3 84 10 95 39 32 57 91 58 189 2 124 24 173 94
212 79 44 80 47 48 143 -54 167 -177 302 -351 385 -392 188 -456 205 -595 157z
m2310 -3848 l55 -24 -45 -7 c-73 -11 -338 -9 -318 2 15 9 107 39 163 54 35 8
89 -1 145 -25z m-860 -3929 c17 -113 45 -267 61 -343 16 -76 29 -150 29 -166
0 -15 -12 -60 -26 -101 -21 -62 -23 -77 -13 -102 18 -44 6 -43 -37 3 -81 88
-171 177 -234 232 l-65 56 35 -4 c19 -2 65 -6 101 -9 l65 -5 17 252 c10 139
18 293 18 342 1 123 11 91 49 -155z"/>
</g>
</svg>
