<?xml version="1.0" standalone="no"?>
<!DOCTYPE svg PUBLIC "-//W3C//DTD SVG 20010904//EN"
 "http://www.w3.org/TR/2001/REC-SVG-20010904/DTD/svg10.dtd">
<svg version="1.0" xmlns="http://www.w3.org/2000/svg"
 width="1024.000000pt" height="1024.000000pt" viewBox="0 0 1024.000000 1024.000000"
 preserveAspectRatio="xMidYMid meet">
<metadata>
Created by potrace 1.16, written by Peter Selinger 2001-2019
</metadata>
<g transform="translate(0.000000,1024.000000) scale(0.100000,-0.100000)"
fill="#000000" stroke="none">
<path d="M5815 9885 c-5 -2 -22 -6 -37 -9 -16 -4 -25 -11 -23 -19 4 -9 -25
-12 -122 -12 -114 0 -137 -3 -210 -28 -46 -16 -83 -31 -83 -34 0 -3 28 -3 63
0 l62 7 -88 -39 c-85 -38 -243 -137 -269 -168 -11 -14 -9 -14 19 0 53 28 52
19 -2 -14 -59 -37 -79 -55 -50 -46 11 4 -36 -47 -105 -112 -69 -66 -122 -122
-118 -126 3 -3 29 6 58 20 29 14 53 25 55 23 2 -2 -39 -62 -90 -133 -52 -72
-94 -133 -94 -137 -1 -5 8 -8 19 -8 11 0 18 -5 16 -12 -3 -7 -7 -25 -10 -40
-10 -42 19 -36 52 12 15 21 30 39 34 40 3 0 4 -36 1 -80 -5 -60 -3 -80 7 -80
8 0 10 -8 6 -24 -4 -16 -1 -26 9 -30 8 -3 15 -17 15 -32 0 -40 24 -23 28 19 2
20 6 37 10 37 4 0 21 -44 39 -98 50 -155 74 -212 86 -212 14 0 87 -65 87 -77
-1 -4 -7 -35 -15 -68 -20 -84 -20 -219 1 -239 18 -19 68 -21 113 -5 29 10 35
9 62 -17 16 -15 29 -32 29 -37 0 -4 59 -67 132 -140 116 -116 129 -132 113
-142 -11 -5 -41 -30 -68 -55 -63 -58 -114 -158 -167 -331 -23 -75 -78 -214
-127 -319 -99 -215 -119 -267 -129 -337 -5 -45 -13 -59 -60 -106 -30 -30 -54
-64 -54 -75 0 -36 -11 -52 -36 -52 -29 0 -64 -33 -64 -60 0 -11 -4 -20 -10
-20 -5 0 -35 -16 -66 -36 -175 -112 -557 -190 -757 -155 -32 6 -94 8 -136 4
l-78 -6 -37 -101 c-20 -56 -42 -108 -48 -116 -12 -18 -18 -37 82 245 42 121
81 230 85 243 5 19 1 25 -30 38 -54 22 -66 16 -86 -46 -11 -30 -30 -87 -44
-126 l-26 -71 -65 -6 c-76 -6 -105 -26 -137 -97 -11 -25 -39 -66 -63 -92 -51
-54 -55 -79 -17 -114 25 -23 25 -25 9 -43 -20 -22 -15 -71 10 -92 8 -6 14 -26
14 -44 0 -39 34 -71 85 -81 l33 -6 7 -93 c6 -71 10 -92 20 -88 17 6 25 26 35
88 15 88 35 160 43 149 3 -6 0 -37 -8 -69 -9 -32 -13 -60 -11 -62 3 -3 86 3
184 12 l180 17 153 -32 c169 -35 202 -36 418 -4 l103 16 127 -32 c69 -18 130
-35 135 -38 11 -7 -78 -24 -714 -142 -553 -103 -610 -111 -610 -86 0 9 8 16
17 16 30 0 4 14 -32 16 -18 2 -134 31 -257 65 -123 34 -240 66 -262 72 -25 7
-34 12 -25 17 32 17 282 70 379 80 58 6 106 13 108 14 1 2 -1 16 -4 33 -4 22
-14 33 -39 42 -43 15 -85 64 -85 98 0 53 -17 59 -147 51 -125 -7 -467 -26
-1063 -58 -201 -11 -565 -31 -810 -45 -245 -13 -523 -28 -618 -33 -94 -5 -175
-12 -178 -15 -4 -3 -3 -53 1 -110 l7 -104 91 -14 92 -14 6 -250 c4 -137 7
-1109 8 -2160 l1 -1909 37 -20 c42 -21 107 -23 208 -5 l60 10 1 1960 c1 1078
4 1962 7 1965 2 2 206 -39 453 -91 247 -53 652 -139 899 -191 248 -52 483
-101 523 -110 l72 -15 0 -1520 0 -1520 46 -19 c53 -23 67 -24 167 -9 l74 11 6
981 c12 1692 17 2007 36 2007 16 0 443 -87 470 -96 10 -3 -10 -29 -62 -78 -88
-84 -120 -142 -138 -251 -12 -74 -10 -92 51 -495 63 -425 113 -1225 109 -1747
-1 -143 2 -207 10 -217 18 -21 120 -56 207 -70 l79 -13 -63 -62 c-49 -47 -62
-65 -57 -81 5 -16 3 -19 -10 -14 -11 5 -32 -9 -66 -42 -27 -26 -49 -53 -49
-59 -1 -5 -21 -25 -46 -43 -25 -19 -43 -39 -41 -46 3 -7 -4 -13 -16 -13 -27
-2 -69 -34 -81 -59 -16 -36 -193 -101 -435 -160 -124 -31 -233 -62 -243 -71
-9 -8 -19 -26 -22 -39 -4 -14 -11 -22 -17 -19 -23 15 -39 -18 -39 -81 0 -56 3
-65 25 -80 46 -30 161 -62 320 -90 363 -62 634 -22 892 131 l94 57 52 -36 c29
-20 61 -36 72 -36 11 0 72 14 135 30 63 16 116 28 118 26 1 -2 -37 -41 -85
-86 -93 -87 -183 -152 -298 -214 -90 -49 -105 -63 -105 -99 0 -21 -4 -28 -14
-24 -25 10 -36 -16 -36 -89 l0 -71 58 -26 c96 -43 176 -58 342 -64 187 -6 310
10 458 60 164 56 243 111 287 200 29 60 55 80 90 71 25 -6 159 33 227 67 50
25 76 99 60 170 -8 35 -8 72 -1 135 9 69 8 105 -5 183 -8 53 -18 116 -21 141
l-7 45 44 16 c33 12 44 22 46 40 1 13 11 62 22 109 11 47 40 198 65 335 25
138 77 408 115 600 104 528 150 809 150 915 0 28 2 50 4 50 3 0 117 -25 253
-55 259 -57 509 -105 546 -105 12 0 27 -4 32 -8 11 -8 5 -1246 -7 -1257 -4 -4
-60 -11 -125 -16 -265 -21 -558 -69 -666 -109 -73 -27 -87 -48 -87 -126 0
-117 3 -113 -132 -180 -66 -32 -125 -65 -131 -73 -7 -8 -16 -39 -22 -69 -9
-52 -12 -56 -43 -64 -18 -5 -36 -16 -39 -24 -3 -8 2 -55 11 -103 9 -49 16
-107 16 -130 0 -52 24 -77 82 -86 88 -13 175 29 216 105 23 44 24 62 10 154
-3 18 46 36 432 163 239 79 450 146 468 149 l32 6 0 -610 0 -611 73 -22 c67
-20 78 -21 162 -9 50 7 91 13 92 14 1 1 5 268 9 594 4 326 9 592 11 592 4 0
553 -441 592 -476 12 -11 10 -17 -12 -44 -63 -75 -60 -196 6 -269 63 -69 201
-92 287 -49 94 48 135 164 92 261 -11 25 -32 53 -46 62 -24 16 -26 22 -26 99
l0 82 -82 80 c-46 43 -143 133 -215 198 -73 65 -133 121 -133 123 0 2 8 -1 18
-6 9 -5 121 -19 247 -31 127 -12 311 -34 410 -49 203 -30 210 -34 156 -97 -27
-30 -31 -42 -31 -92 0 -208 275 -303 393 -136 54 77 44 171 -24 236 l-39 37 0
84 c0 137 37 122 -725 296 -496 113 -646 141 -758 141 l-58 0 6 543 c3 298 8
588 11 644 l6 102 31 5 c18 3 50 7 72 11 314 43 832 121 945 140 315 55 344
77 338 260 -3 115 -11 131 -80 166 -37 19 -38 21 -38 77 0 92 53 751 65 808 4
18 14 22 62 27 111 11 116 26 178 530 19 159 57 447 85 640 127 905 120 843
104 898 -49 163 -224 209 -865 228 -140 4 -256 6 -258 5 -2 -2 4 -61 12 -131
34 -270 62 -582 72 -823 6 -142 -10 -452 -25 -480 -8 -14 -1 -43 30 -121 22
-57 40 -105 40 -108 -1 -3 -24 41 -51 99 -47 97 -50 107 -38 135 18 43 24 548
9 740 -23 302 -93 871 -125 1020 -8 39 -24 120 -35 180 -26 141 -79 252 -154
322 -84 80 -286 174 -696 324 -107 39 -213 81 -235 94 -22 13 -69 56 -105 95
-61 70 -90 89 -155 104 -28 7 -27 5 23 -41 48 -45 52 -53 52 -94 0 -25 -34
-184 -76 -354 -138 -565 -155 -652 -204 -1034 -16 -129 -31 -236 -33 -238 -2
-2 -7 45 -10 104 -3 60 -13 146 -22 193 -8 47 -20 163 -26 257 l-12 173 28 75
27 75 46 -40 c26 -21 48 -37 51 -34 3 2 -6 12 -20 21 -44 30 -120 116 -145
165 l-24 48 -54 0 c-30 0 -61 3 -70 6 -9 4 -20 -4 -29 -23 -24 -46 -75 -318
-63 -330 7 -7 12 7 28 82 l12 60 8 -70 c4 -38 12 -176 17 -305 8 -201 29 -413
47 -485 4 -16 3 -17 -5 -5 -13 22 -78 289 -95 395 -8 50 -19 160 -25 245 -30
414 -39 586 -32 593 11 11 28 -13 33 -43 2 -16 21 -37 57 -62 50 -35 60 -38
122 -38 l68 0 53 87 c29 48 79 128 111 178 32 49 77 128 100 175 55 112 57
179 9 289 -28 64 -31 79 -22 105 6 17 18 110 27 208 14 145 20 177 32 173 14
-5 13 9 -5 113 -5 28 -4 31 11 25 16 -6 17 -2 11 27 -3 19 -13 87 -22 152 -8
65 -22 137 -30 160 -24 70 -84 169 -130 214 -41 41 -168 114 -199 114 -8 0
-22 11 -30 24 -16 25 -108 68 -180 85 -48 11 -146 21 -160 16z m45 -1970 c-7
-9 -15 -13 -19 -10 -3 3 1 10 9 15 21 14 24 12 10 -5z m-36 -26 c-10 -17 -96
-69 -113 -69 -8 0 8 11 36 25 28 15 57 33 63 40 15 17 24 20 14 4z m-4 -1456
c10 -27 59 -165 109 -307 51 -143 94 -263 96 -267 8 -11 114 11 147 31 18 11
50 20 71 20 31 0 46 -8 85 -44 51 -48 118 -152 147 -230 17 -44 27 -177 15
-189 -3 -3 -71 2 -152 10 l-146 16 -103 -28 c-88 -24 -131 -29 -284 -35 -164
-7 -345 -30 -456 -60 -30 -8 -340 -63 -579 -102 -54 -9 -89 -7 -210 11 -80 12
-300 42 -490 67 -189 25 -347 47 -349 50 -2 2 16 4 42 4 25 0 297 47 604 105
307 58 572 108 588 111 l30 5 -29 -23 c-65 -51 -81 -67 -75 -73 10 -9 132 80
339 249 69 56 71 59 51 73 -20 14 -29 57 -13 67 4 2 41 6 82 8 l74 3 132 177
c137 183 203 287 232 363 9 24 18 42 21 40 2 -3 12 -26 21 -52z m-1521 -197
c38 -20 78 -81 107 -166 22 -61 25 -83 19 -134 -7 -56 -12 -65 -55 -108 -42
-41 -53 -47 -106 -53 l-59 -6 58 32 c111 62 135 158 72 297 -29 64 -91 132
-123 132 -14 0 -15 2 -2 10 22 14 57 12 89 -4z m-371 -295 c-7 -12 -16 -21
-21 -21 -4 0 0 11 10 24 22 29 30 27 11 -3z m212 -84 c-14 -7 -47 -26 -75 -42
-63 -36 -54 -24 16 20 30 19 61 35 69 35 8 0 4 -6 -10 -13z m-309 -28 c-26
-16 -39 -18 -55 -10 -19 9 -18 10 11 10 17 1 35 6 38 11 3 6 14 10 23 10 10 0
4 -8 -17 -21z m35 -78 c-10 -10 -27 -21 -38 -24 -16 -4 -12 1 13 23 37 31 53
32 25 1z m-654 -212 c62 -17 115 -34 118 -37 3 -2 -26 -2 -65 1 -115 11 -276
67 -190 67 13 0 75 -14 137 -31z m287 -80 c123 -33 151 -44 151 -59 0 -20 -68
-9 -205 31 -186 54 -194 57 -121 58 37 1 103 -11 175 -30z m3934 -224 c171
-42 316 -80 320 -84 9 -9 -2 -234 -13 -252 -6 -9 -32 -9 -119 3 l-111 15 -1
-451 c-1 -248 -5 -550 -8 -671 -6 -180 -8 -125 -9 300 -1 286 1 591 5 679 l6
158 56 -6 c31 -4 81 -9 112 -13 l56 -6 8 113 c5 84 4 115 -5 120 -7 4 -134 38
-284 75 -246 62 -354 92 -333 94 4 1 148 -33 320 -74z m791 -190 c14 -44 39
-144 57 -222 l33 -143 104 0 105 0 -7 -56 c-3 -31 -18 -221 -31 -422 -14 -201
-26 -367 -28 -368 -2 -2 -45 4 -96 14 -91 18 -111 29 -111 64 0 15 10 16 89
11 l89 -6 -19 93 c-11 51 -26 145 -34 209 -21 163 -50 315 -101 541 -40 175
-79 339 -91 380 -4 13 -4 13 6 0 6 -8 22 -51 35 -95z m-1944 -459 c0 -2 -39
-17 -87 -35 -688 -243 -785 -280 -858 -326 -107 -68 -163 -159 -194 -317 -11
-51 -19 -79 -20 -61 -2 65 29 186 61 241 42 69 125 145 197 181 97 48 457 182
731 272 139 45 170 54 170 45z m-1260 -850 l95 -22 -2 -185 c-3 -362 -82
-1292 -164 -1943 l-22 -170 29 -23 c16 -12 52 -28 81 -34 78 -18 81 -22 48
-66 -15 -21 -52 -61 -82 -90 -29 -28 -52 -55 -51 -60 4 -10 -62 -93 -73 -93
-5 0 -3 11 3 25 9 20 9 34 0 58 -6 18 -11 90 -12 161 0 118 -2 133 -26 180
-14 28 -41 88 -59 132 l-33 82 39 15 39 15 0 159 c-1 87 -5 514 -10 948 -8
766 -9 792 -29 838 -12 27 -21 54 -21 61 0 15 66 33 120 34 19 1 78 -9 130
-22z m1707 -182 c-3 -3 -12 -4 -19 -1 -8 3 -5 6 6 6 11 1 17 -2 13 -5z m-100
-20 c-3 -3 -12 -4 -19 -1 -8 3 -5 6 6 6 11 1 17 -2 13 -5z"/>
<path d="M5267 5883 c-15 -14 -6 -34 23 -52 l30 -18 -61 -44 c-34 -24 -91 -69
-128 -99 -36 -30 -110 -86 -164 -125 -56 -40 -97 -76 -97 -86 0 -22 40 -32 95
-23 27 4 45 2 49 -5 10 -16 59 -13 156 9 46 10 86 17 88 15 3 -2 -7 -7 -22
-11 -32 -8 -34 -30 -3 -38 44 -12 124 -6 261 20 130 25 146 26 217 14 122 -19
231 -15 350 13 66 16 140 26 202 28 l97 3 20 54 21 55 -22 51 c-51 124 -155
235 -208 220 -68 -18 -115 -23 -216 -23 -133 -1 -447 24 -495 38 -38 12 -183
15 -193 4z m143 -102 c0 -5 8 -11 18 -14 12 -3 8 -6 -13 -11 -16 -4 -48 -14
-70 -21 l-40 -14 39 34 c38 34 66 45 66 26z m195 -190 c-10 -8 -97 -32 -112
-30 -9 1 96 37 112 38 6 1 6 -2 0 -8z"/>
</g>
</svg>
