<?xml version="1.0" standalone="no"?>
<!DOCTYPE svg PUBLIC "-//W3C//DTD SVG 20010904//EN"
 "http://www.w3.org/TR/2001/REC-SVG-20010904/DTD/svg10.dtd">
<svg version="1.0" xmlns="http://www.w3.org/2000/svg"
 width="1024.000000pt" height="1536.000000pt" viewBox="0 0 1024.000000 1536.000000"
 preserveAspectRatio="xMidYMid meet">
<metadata>
Created by potrace 1.16, written by Peter Selinger 2001-2019
</metadata>
<g transform="translate(0.000000,1536.000000) scale(0.100000,-0.100000)"
fill="#000000" stroke="none">
<path d="M5545 14439 c-130 -22 -257 -95 -267 -154 -2 -16 2 -19 20 -17 12 2
22 0 22 -5 0 -5 -28 -56 -63 -113 -206 -342 -223 -365 -295 -399 -48 -22 -53
-23 -89 -9 -26 11 -62 43 -113 103 -91 106 -309 291 -359 305 -20 5 -52 10
-71 10 -19 0 -100 9 -178 21 -120 17 -152 19 -190 9 -64 -16 -105 -50 -126
-103 -12 -33 -27 -49 -59 -67 -39 -22 -56 -25 -227 -30 -210 -7 -237 -14 -309
-83 -58 -56 -156 -188 -191 -257 -50 -98 -63 -162 -58 -274 6 -122 29 -176
107 -248 46 -43 51 -51 50 -90 -1 -98 -36 -141 -129 -158 -45 -8 -61 -17 -88
-47 -19 -21 -101 -171 -184 -333 -82 -162 -198 -380 -257 -485 -228 -402 -279
-508 -301 -620 -39 -202 116 -394 351 -436 59 -10 135 -11 403 -1 324 12 778
36 965 51 62 4 94 3 96 -4 2 -5 11 -260 20 -565 20 -629 17 -694 -39 -1050
-90 -568 -107 -678 -126 -855 -11 -104 -43 -382 -72 -617 l-52 -428 24 -25
c13 -14 46 -33 73 -43 27 -9 52 -23 54 -30 3 -7 -6 -106 -21 -220 -14 -114
-42 -337 -61 -497 -78 -640 -155 -1262 -160 -1298 -23 -163 -56 -694 -65
-1049 -21 -836 -87 -2131 -130 -2553 -24 -232 -24 -224 -5 -245 17 -19 15 -23
-97 -162 -141 -175 -259 -295 -328 -332 -30 -16 -124 -46 -225 -71 -96 -24
-198 -55 -227 -70 -135 -67 -200 -197 -131 -261 82 -76 508 -129 731 -90 118
21 184 43 341 116 172 79 179 80 240 26 27 -24 64 -47 81 -51 42 -9 150 2 294
31 65 13 132 24 148 24 86 0 103 92 93 502 -7 282 -7 288 13 305 18 16 28 82
101 673 179 1441 202 1667 217 2090 6 165 4 208 -10 271 l-17 76 55 224 c158
647 274 1100 372 1459 25 91 57 210 71 265 14 55 28 106 33 113 4 8 10 -30 14
-85 4 -54 22 -197 41 -318 66 -419 104 -691 115 -820 6 -71 26 -245 45 -385
19 -140 41 -318 50 -395 15 -134 52 -412 115 -855 58 -409 157 -1166 185
-1410 9 -74 29 -241 44 -370 16 -129 35 -307 41 -395 7 -88 17 -166 23 -172 5
-7 29 -13 53 -13 l44 0 0 -47 c-1 -89 -19 -248 -46 -409 -34 -202 -38 -393
-11 -471 50 -142 220 -233 436 -233 154 0 274 37 351 106 58 53 80 106 87 212
6 103 -8 191 -71 432 -24 91 -55 217 -69 280 -14 63 -28 123 -32 133 -5 13 -2
17 14 17 11 0 36 8 56 17 26 12 35 23 36 42 2 67 -2 269 -11 491 -12 299 -26
731 -40 1185 -6 187 -15 406 -20 486 -11 169 -70 650 -101 819 -20 108 -21
136 -15 460 7 357 22 921 31 1140 2 69 8 353 11 633 l7 507 59 22 c77 28 108
52 108 86 0 14 -25 188 -56 386 -31 199 -57 379 -58 401 l-1 40 84 13 c114 17
179 54 282 157 45 46 88 94 96 107 41 75 -23 234 -151 371 -42 45 -46 47 -97
47 -47 0 -65 7 -139 50 -47 28 -96 53 -110 56 -50 10 -55 18 -68 110 -23 164
-9 244 118 644 78 249 192 584 248 729 l36 94 276 -279 c152 -154 299 -307
328 -342 l52 -63 -20 -27 c-11 -15 -59 -77 -107 -138 -49 -60 -182 -231 -298
-379 -147 -189 -226 -282 -267 -313 -85 -66 -92 -115 -18 -125 52 -7 95 -45
157 -141 80 -123 87 -146 87 -283 1 -107 3 -125 22 -150 32 -43 79 -43 135 -1
53 40 270 291 939 1087 297 353 321 395 301 508 -32 173 -336 648 -745 1163
-59 74 -136 179 -172 232 -40 59 -91 120 -131 155 -83 73 -140 153 -201 284
-93 198 -176 242 -625 334 -331 67 -440 110 -494 195 -20 32 -43 64 -100 142
-52 70 -21 121 204 336 184 176 262 266 321 374 121 219 154 499 81 694 -83
222 -387 472 -698 574 -139 45 -294 60 -416 39z m-2020 -638 c-45 -20 -86 -60
-118 -114 -12 -20 -62 -96 -111 -168 -55 -81 -94 -150 -102 -178 l-11 -46 -22
35 c-26 44 -27 84 -1 117 13 17 20 41 20 71 0 69 68 183 145 244 39 31 125 57
185 57 l55 1 -40 -19z m1302 -243 c6 -7 13 -30 16 -51 5 -32 2 -41 -23 -65
-33 -31 -53 -115 -90 -367 -32 -222 -32 -221 210 -355 158 -87 180 -119 180
-257 0 -102 -14 -134 -80 -182 -97 -70 -238 -92 -565 -90 -291 3 -287 4 -450
-102 -128 -83 -179 -105 -410 -173 -309 -91 -360 -104 -363 -97 -3 8 136 416
205 604 35 95 36 99 20 132 -24 50 -56 62 -187 67 -132 5 -192 27 -268 97 -46
42 -50 64 -14 69 16 3 25 -5 35 -30 19 -43 51 -72 108 -97 38 -17 65 -21 145
-19 115 2 150 -10 222 -72 52 -47 217 -132 300 -156 81 -24 172 -15 225 22 51
37 67 60 346 518 267 435 274 447 352 533 33 36 59 69 59 74 0 13 16 11 27 -3z
m1183 -1272 c0 -32 -37 -136 -55 -156 -9 -10 -38 -70 -65 -135 -50 -117 -147
-292 -176 -316 -17 -14 -6 -25 -131 121 -112 130 -115 133 -187 159 -33 12
-64 25 -68 27 -20 13 17 33 70 39 62 7 97 23 97 43 0 8 65 47 144 88 135 69
304 174 318 197 9 15 53 -40 53 -67z m-820 -111 c26 -13 30 -21 30 -55 0 -34
-4 -42 -26 -52 -33 -15 -48 -46 -65 -131 -9 -46 -10 -70 -2 -78 9 -9 -127
-444 -257 -824 l-31 -90 6 70 c3 39 22 150 41 247 35 179 50 241 144 593 28
105 63 237 77 294 27 102 28 103 40 73 7 -17 26 -38 43 -47z m275 -392 c28 -9
62 -24 77 -34 38 -27 88 -107 88 -142 0 -20 6 -30 20 -34 25 -7 25 -8 1 -41
-71 -102 -343 -633 -363 -709 -6 -24 -15 -43 -20 -43 -6 0 -8 6 -5 14 10 25
27 284 37 551 8 222 24 386 46 453 4 15 35 11 119 -15z"/>
</g>
</svg>
