<?xml version="1.0" standalone="no"?>
<!DOCTYPE svg PUBLIC "-//W3C//DTD SVG 20010904//EN"
 "http://www.w3.org/TR/2001/REC-SVG-20010904/DTD/svg10.dtd">
<svg version="1.0" xmlns="http://www.w3.org/2000/svg"
 width="1024.000000pt" height="1536.000000pt" viewBox="0 0 1024.000000 1536.000000"
 preserveAspectRatio="xMidYMid meet">
<metadata>
Created by potrace 1.16, written by Peter Selinger 2001-2019
</metadata>
<g transform="translate(0.000000,1536.000000) scale(0.100000,-0.100000)"
fill="#000000" stroke="none">
<path d="M4914 14670 c-11 -4 -60 -16 -108 -25 -129 -24 -180 -50 -273 -141
-44 -43 -83 -90 -86 -103 -3 -13 1 -54 9 -89 14 -62 14 -71 -6 -156 -12 -50
-26 -113 -32 -141 -6 -27 -22 -91 -35 -141 -17 -68 -22 -105 -17 -150 5 -52 2
-67 -24 -124 -20 -44 -32 -90 -37 -143 l-7 -78 -62 62 c-71 72 -215 169 -295
201 -74 28 -187 36 -229 14 -36 -19 -95 -93 -182 -231 -34 -55 -64 -101 -65
-103 -2 -2 -18 4 -36 14 -28 14 -42 15 -98 5 -36 -6 -91 -15 -121 -20 -103
-17 -111 -23 -205 -155 -34 -47 -59 -94 -62 -115 -3 -20 -12 -48 -19 -62 -7
-14 -18 -62 -24 -107 -14 -102 -2 -173 42 -260 37 -72 38 -72 -52 -98 -116
-35 -263 -131 -296 -196 -23 -45 -83 -256 -144 -508 -29 -118 -75 -300 -103
-405 -49 -182 -51 -196 -52 -320 0 -116 3 -136 24 -182 52 -117 156 -172 336
-180 127 -6 154 -2 525 89 328 79 580 138 595 138 13 0 36 -183 55 -424 13
-168 13 -606 0 -737 -28 -280 -113 -617 -212 -837 -19 -44 -17 -62 8 -62 18 0
18 -9 -5 -105 -78 -326 -214 -1111 -228 -1311 -6 -90 -6 -90 25 -125 17 -19
53 -50 81 -69 38 -27 49 -39 46 -55 -9 -38 -150 -1159 -199 -1590 -58 -497
-103 -1046 -92 -1123 11 -81 63 -177 298 -553 517 -824 773 -1281 1023 -1824
106 -232 133 -275 171 -275 30 0 30 -2 -1 -148 -31 -146 -59 -235 -91 -289
-13 -23 -24 -49 -24 -59 0 -88 -76 -175 -234 -268 -66 -39 -134 -88 -159 -115
-50 -54 -95 -142 -103 -205 -6 -40 -4 -48 23 -74 41 -42 118 -56 258 -49 314
17 597 161 736 373 23 36 44 63 46 60 2 -2 -15 -36 -39 -76 -63 -106 -162
-207 -286 -291 -128 -88 -185 -138 -218 -195 -57 -97 -51 -160 17 -194 48 -25
206 -50 311 -50 129 0 376 20 503 40 168 28 245 66 320 160 37 46 65 72 83 76
151 33 215 62 255 116 19 25 20 44 21 312 l1 285 35 3 c34 3 35 4 47 63 43
212 146 1016 168 1309 43 559 37 1012 -20 1641 -30 331 -34 423 -40 925 -7
633 -21 1093 -40 1375 -10 151 -12 236 -5 287 5 40 10 122 10 181 0 77 4 109
13 111 6 3 39 12 72 22 82 24 132 50 151 79 14 21 15 46 10 172 -4 81 -11 288
-16 459 -11 350 -10 362 57 469 20 33 52 89 70 124 69 132 37 207 -157 363
-69 56 -72 60 -40 53 60 -13 162 -72 247 -145 89 -76 101 -99 83 -154 -22 -68
30 -121 168 -172 59 -22 77 -25 97 -16 13 6 52 53 86 104 34 51 74 107 89 123
35 39 49 64 225 405 151 293 210 398 346 627 144 239 182 344 183 493 0 113
-16 173 -80 308 -104 220 -346 593 -573 883 -125 161 -174 240 -201 324 -7 22
-32 76 -55 120 -23 44 -53 114 -65 155 -79 268 -191 346 -675 470 -422 109
-532 168 -684 371 -92 121 -105 195 -48 270 48 62 182 295 232 403 23 50 55
136 71 191 24 86 28 118 28 230 1 207 -49 352 -168 497 -108 130 -262 212
-478 252 -95 18 -363 29 -394 16z m-995 -1094 c117 -59 310 -223 368 -314 19
-30 33 -55 31 -57 -2 -2 -51 1 -108 6 -58 6 -208 11 -335 12 -220 2 -233 1
-287 -21 -34 -14 -76 -42 -102 -67 -42 -43 -114 -168 -154 -270 -11 -27 -54
-121 -96 -209 -42 -87 -76 -162 -76 -166 0 -4 19 -13 43 -20 55 -16 178 -79
248 -127 65 -45 197 -155 198 -165 1 -9 -74 19 -109 41 -14 9 -49 35 -77 58
-77 61 -184 110 -271 122 -41 5 -76 12 -79 14 -12 13 125 342 230 552 154 309
271 502 362 601 l44 47 60 -6 c34 -3 80 -16 110 -31z m480 -243 c1 -55 -6 -83
-20 -83 -11 0 -12 103 -2 151 7 33 7 33 14 9 4 -14 7 -48 8 -77z m-25 -441
c31 -60 68 -95 130 -123 53 -23 177 -48 244 -49 l42 0 0 -74 0 -73 -95 -46
c-124 -60 -203 -84 -355 -107 -156 -24 -236 -48 -324 -100 -124 -73 -181 -127
-300 -286 -98 -130 -146 -180 -216 -228 -12 -8 -13 -8 -2 4 45 51 -28 35 -184
-39 l-126 -61 7 37 c4 20 24 94 45 163 22 69 50 168 63 219 13 50 28 96 34
102 7 7 33 -3 79 -27 38 -20 83 -44 99 -53 17 -8 62 -17 101 -19 107 -6 123 6
188 137 30 59 112 195 183 302 71 107 176 270 233 363 l104 170 13 -82 c7 -45
24 -104 37 -130z m1234 -101 c12 -21 22 -50 22 -64 0 -57 -134 -426 -180 -495
-16 -24 -39 -68 -51 -98 -13 -30 -26 -54 -30 -54 -4 0 -54 46 -111 103 -81 79
-113 118 -142 176 -32 61 -37 77 -27 97 12 27 65 63 166 112 109 54 226 135
273 190 23 28 42 55 42 61 0 22 17 10 38 -28z m-760 -319 l26 -34 -41 -39
c-24 -23 -44 -35 -48 -29 -7 12 12 146 23 164 4 7 8 3 10 -9 3 -11 16 -35 30
-53z m-1968 -105 c0 -47 20 -69 115 -132 47 -31 83 -60 80 -65 -8 -13 -82 -23
-178 -24 -83 -1 -88 0 -83 19 15 57 36 156 41 198 7 52 25 55 25 4z m1920
-225 c11 -203 15 -182 -66 -391 -25 -62 -56 -155 -69 -207 -26 -99 -59 -321
-71 -467 -4 -53 -10 -85 -16 -79 -16 16 -21 252 -9 409 22 284 63 481 150 715
27 73 52 150 56 171 4 21 9 36 11 34 3 -2 9 -85 14 -185z m333 46 c30 -15 207
-158 207 -166 0 -4 -15 -56 -34 -117 -19 -60 -44 -144 -56 -185 -23 -75 -54
-153 -150 -375 -39 -90 -57 -147 -71 -229 -10 -60 -20 -111 -23 -113 -8 -9 5
921 14 987 8 57 71 210 86 210 3 0 15 -5 27 -12z m1918 -1885 c25 -36 28 -47
23 -86 -5 -36 -2 -53 17 -86 l23 -41 -22 -47 c-12 -27 -31 -82 -43 -123 -33
-116 -60 -162 -382 -630 -58 -85 -127 -186 -154 -224 -26 -37 -52 -78 -57 -90
-8 -19 -9 -18 -17 14 -41 177 -53 547 -25 744 22 149 41 228 153 624 l97 343
179 -178 c98 -98 192 -197 208 -220z m-1996 -4558 c48 -291 122 -732 166 -978
183 -1037 197 -1149 206 -1637 3 -173 4 -324 2 -335 -3 -14 -33 32 -96 145
-165 299 -213 390 -464 883 -267 525 -310 598 -400 693 -59 61 -59 61 -44 90
21 41 19 62 -16 156 -17 46 -33 97 -36 115 -5 33 33 155 388 1245 82 252 149
461 150 465 2 14 57 -307 144 -842z"/>
</g>
</svg>
