<?xml version="1.0" standalone="no"?>
<!DOCTYPE svg PUBLIC "-//W3C//DTD SVG 20010904//EN"
 "http://www.w3.org/TR/2001/REC-SVG-20010904/DTD/svg10.dtd">
<svg version="1.0" xmlns="http://www.w3.org/2000/svg"
 width="1024.000000pt" height="1536.000000pt" viewBox="0 0 1024.000000 1536.000000"
 preserveAspectRatio="xMidYMid meet">
<metadata>
Created by potrace 1.16, written by Peter Selinger 2001-2019
</metadata>
<g transform="translate(0.000000,1536.000000) scale(0.100000,-0.100000)"
fill="#000000" stroke="none">
<path d="M4773 15000 c-79 -21 -264 -93 -297 -116 -11 -8 -25 -14 -30 -14 -15
0 54 58 97 80 46 25 48 33 5 18 -54 -18 -133 -66 -171 -103 -46 -45 -61 -92
-54 -171 6 -62 6 -62 -30 -89 -35 -28 -72 -93 -73 -129 0 -15 6 -12 24 15 14
19 32 44 41 57 25 35 27 22 6 -39 -10 -30 -21 -92 -25 -139 -4 -47 -17 -115
-28 -152 -21 -65 -21 -69 -5 -127 9 -34 17 -70 17 -81 0 -31 -38 -100 -82
-148 -74 -81 -76 -125 -5 -164 45 -25 54 -43 77 -158 6 -30 15 -75 20 -100 6
-25 14 -96 20 -158 5 -62 14 -122 21 -133 20 -39 73 -52 183 -44 56 3 109 9
118 11 28 8 48 -37 69 -158 45 -247 64 -285 142 -275 51 7 203 83 317 159 109
73 347 263 359 287 5 9 11 67 15 130 7 115 11 129 66 231 50 94 145 297 185
400 98 246 96 446 -5 658 -32 66 -56 99 -127 171 -55 56 -108 99 -143 116 -30
15 -74 41 -98 57 -96 66 -307 108 -474 94 -51 -4 -78 -3 -78 4 0 5 10 10 23
10 12 0 29 5 37 10 25 16 -36 11 -117 -10z m-393 -170 c-6 -11 -13 -20 -16
-20 -2 0 0 9 6 20 6 11 13 20 16 20 2 0 0 -9 -6 -20z"/>
<path d="M5564 13133 c9 -40 -16 -104 -86 -224 -30 -52 -98 -179 -150 -284
-52 -104 -111 -220 -131 -258 l-36 -67 -40 52 c-82 107 -208 244 -247 265 -48
28 -140 31 -185 7 -34 -17 -59 -66 -59 -114 0 -16 -4 -30 -9 -30 -5 0 -12 -8
-16 -17 -5 -15 -4 -16 6 -5 18 17 29 15 28 -5 0 -12 -21 -28 -62 -47 -34 -15
-88 -44 -119 -62 -31 -19 -76 -41 -100 -49 -24 -9 -71 -27 -105 -42 -58 -25
-62 -29 -73 -72 -22 -90 -233 -478 -296 -546 -13 -14 -28 -24 -33 -20 -5 3
-13 -19 -16 -48 -14 -114 57 -281 145 -342 45 -31 112 -40 154 -21 17 8 17 7
3 -20 -8 -16 -25 -38 -37 -49 -12 -11 -37 -48 -57 -82 -19 -35 -38 -63 -43
-63 -39 0 -174 234 -205 355 -23 87 -30 186 -16 227 15 44 59 88 70 70 20 -33
215 317 330 594 5 12 33 31 67 45 79 33 309 149 295 149 -7 0 -4 15 9 39 41
82 90 314 75 360 -6 20 -8 19 -35 -17 -43 -59 -87 -91 -242 -175 -155 -83
-205 -106 -373 -174 -60 -24 -124 -55 -142 -69 -47 -36 -103 -137 -171 -309
-62 -158 -82 -224 -82 -273 0 -19 -14 -49 -40 -83 -22 -29 -43 -69 -46 -89
-10 -60 -24 -96 -57 -146 -17 -27 -34 -51 -38 -54 -23 -17 -101 -167 -112
-215 -10 -46 -23 -68 -61 -109 -55 -59 -215 -302 -258 -393 -47 -99 -55 -178
-34 -341 23 -192 32 -230 66 -289 34 -60 72 -91 154 -129 95 -43 144 -35 333
61 226 113 256 148 297 347 3 14 17 39 30 55 13 15 37 55 55 87 l31 59 1 -44
c11 -487 -14 -734 -116 -1143 -31 -120 -58 -223 -61 -228 -3 -5 4 -16 15 -25
13 -9 20 -21 17 -31 -18 -55 -141 -852 -186 -1195 -29 -226 -14 -265 125 -318
75 -28 68 -10 85 -219 6 -74 26 -274 45 -445 19 -170 50 -463 70 -650 53 -519
64 -625 86 -815 10 -96 26 -278 34 -405 8 -126 23 -311 34 -410 19 -165 66
-630 107 -1050 20 -204 15 -500 -11 -645 -24 -140 -23 -334 4 -510 l23 -145
-42 -120 c-40 -117 -98 -352 -105 -429 -6 -57 -5 -57 -213 -269 -151 -154
-272 -217 -511 -266 -153 -32 -199 -51 -253 -108 -61 -62 -105 -183 -80 -219
37 -57 347 -104 682 -104 308 1 366 17 572 162 29 21 78 47 110 58 l56 20 49
-28 c43 -24 61 -27 159 -30 117 -4 203 5 294 32 85 25 84 24 92 128 15 200 20
394 10 435 -8 33 -7 44 6 57 13 13 17 60 23 278 8 271 35 779 70 1303 28 424
34 700 20 890 -7 88 -16 261 -21 385 -4 124 -14 250 -20 280 -12 54 -7 252 30
1118 6 123 10 247 10 274 0 28 2 49 5 47 2 -3 38 -205 80 -449 41 -245 88
-521 104 -615 42 -242 117 -608 141 -690 11 -38 31 -149 45 -245 13 -96 29
-200 34 -230 6 -30 15 -107 21 -170 5 -63 15 -167 21 -230 6 -63 22 -223 37
-355 31 -290 35 -564 9 -715 -24 -142 -47 -346 -47 -426 0 -38 9 -142 19 -230
11 -87 25 -213 31 -279 12 -135 17 -161 38 -193 12 -18 13 -33 4 -80 -6 -31
-14 -82 -17 -112 -13 -112 -37 -228 -70 -330 -104 -328 -79 -459 102 -531 52
-21 74 -23 213 -23 279 1 417 54 498 192 61 106 38 357 -83 879 -4 16 1 23 15
28 11 3 24 14 29 23 9 17 23 168 57 602 8 113 21 257 29 320 31 258 44 379 50
450 25 325 33 971 15 1245 -11 169 -41 410 -70 577 -88 493 -114 668 -135 903
-25 276 -29 600 -11 1000 9 199 16 370 16 381 0 14 11 24 38 33 103 36 183 82
207 121 16 26 34 40 54 45 39 8 63 43 89 125 11 36 32 98 47 139 24 68 27 88
31 270 2 108 0 218 -4 246 -8 54 -12 57 -107 90 -27 9 -70 25 -95 34 -91 35
-230 64 -275 58 -24 -4 -47 -2 -50 2 -3 5 7 24 22 42 l27 32 86 -7 c165 -12
345 -71 402 -132 20 -21 28 -42 30 -76 l3 -48 30 16 c18 9 42 13 60 10 58 -11
57 -15 105 359 18 142 39 275 44 284 3 5 8 41 11 81 2 40 16 136 29 214 48
267 57 321 81 486 25 169 49 364 59 480 3 36 8 94 11 130 10 109 -79 844 -140
1155 -14 72 -40 180 -57 240 -27 96 -31 128 -34 250 -1 92 -7 157 -18 190 -8
28 -38 130 -65 227 -130 456 -176 520 -446 624 -33 13 -195 79 -360 148 -342
142 -355 151 -462 312 -63 94 -90 117 -79 67z m-495 -778 c91 -108 89 -89 20
-226 -109 -218 -237 -521 -325 -769 -39 -111 -41 -98 -14 105 11 83 20 174 20
203 0 32 8 68 19 91 11 20 23 66 27 102 3 35 18 100 32 144 29 92 30 121 7
165 -18 35 -14 44 27 64 34 17 35 51 1 82 l-28 26 59 54 c33 30 63 54 67 54 5
0 44 -43 88 -95z m-481 -120 c-60 -31 -147 -59 -156 -51 -6 6 132 69 168 76
59 13 57 10 -12 -25z m146 -142 c8 -9 -196 -62 -239 -62 -26 0 -27 1 -12 10
18 11 130 43 177 52 42 7 66 7 74 0z m-69 -214 c-49 -10 -103 -18 -120 -16
-40 3 115 35 170 35 29 0 16 -5 -50 -19z m-206 -315 c-73 -127 -120 -169 -287
-253 -58 -30 -65 -19 -10 15 23 15 71 45 105 66 70 44 120 97 184 193 23 36
45 63 47 60 3 -2 -15 -39 -39 -81z m1933 -1279 c17 -71 39 -148 50 -169 18
-36 19 -45 8 -117 -11 -69 -10 -87 5 -144 19 -71 20 -59 -35 -505 -10 -79 -16
-151 -13 -160 4 -13 4 -13 -6 0 -6 8 -11 25 -11 38 0 13 -12 74 -26 135 -63
275 -84 501 -65 713 11 134 34 302 48 354 5 22 7 23 10 5 2 -11 18 -78 35
-150z m-140 -2292 c-6 -10 -36 -49 -67 -88 -31 -38 -75 -100 -97 -137 -37 -63
-41 -76 -54 -191 -7 -67 -23 -154 -35 -192 -12 -39 -25 -95 -29 -125 l-7 -55
-2 46 c0 25 10 83 24 130 15 49 29 130 35 196 10 124 15 138 97 258 86 125
171 226 135 158z m-67 -550 c-9 -93 -26 -184 -42 -238 -20 -65 -87 -197 -108
-215 -8 -7 3 19 26 59 47 82 85 192 94 272 8 75 26 179 31 179 2 0 2 -26 -1
-57z m112 -345 c-3 -8 -6 -5 -6 6 -1 11 2 17 5 13 3 -3 4 -12 1 -19z m-2288
-5686 c0 -24 -1 -25 -9 -7 -12 28 -12 47 0 40 6 -3 10 -18 9 -33z m1791 -266
c0 -2 -8 -10 -17 -17 -16 -13 -17 -12 -4 4 13 16 21 21 21 13z m88 -543 c-10
-2 -26 -2 -35 0 -10 3 -2 5 17 5 19 0 27 -2 18 -5z"/>
</g>
</svg>
