<?xml version="1.0" standalone="no"?>
<!DOCTYPE svg PUBLIC "-//W3C//DTD SVG 20010904//EN"
 "http://www.w3.org/TR/2001/REC-SVG-20010904/DTD/svg10.dtd">
<svg version="1.0" xmlns="http://www.w3.org/2000/svg"
 width="1024.000000pt" height="1024.000000pt" viewBox="0 0 1024.000000 1024.000000"
 preserveAspectRatio="xMidYMid meet">
<metadata>
Created by potrace 1.16, written by Peter Selinger 2001-2019
</metadata>
<g transform="translate(0.000000,1024.000000) scale(0.100000,-0.100000)"
fill="#000000" stroke="none">
<path d="M4870 10064 c-30 -7 -91 -33 -135 -58 -44 -25 -92 -52 -107 -60 -56
-30 -128 -200 -128 -301 0 -61 12 -75 34 -43 21 30 20 23 -10 -98 l-26 -104
27 -32 c25 -30 27 -38 22 -95 -3 -38 -13 -75 -25 -95 -76 -119 -77 -148 -8
-190 l43 -26 13 -93 c7 -55 21 -109 33 -129 11 -19 25 -55 31 -80 l11 -45 125
-5 125 -5 9 -111 9 -112 40 -5 c32 -4 51 0 92 22 118 63 223 131 333 213 64
48 118 86 120 83 9 -8 -42 -124 -123 -278 -212 -403 -322 -632 -401 -841 -19
-50 -37 -92 -40 -95 -4 -5 0 48 17 234 17 176 76 445 99 445 4 0 17 -12 28
-27 16 -22 23 -25 33 -16 14 14 7 33 -58 159 -35 67 -47 82 -70 87 -16 3 -35
0 -43 -7 -32 -27 -44 -30 -36 -10 5 13 -2 10 -26 -12 -49 -46 -134 -97 -272
-163 -130 -62 -192 -109 -231 -175 -37 -64 -51 -117 -89 -335 -31 -173 -40
-208 -62 -234 -42 -49 -73 -121 -100 -229 -14 -57 -29 -119 -34 -138 -5 -19
-23 -50 -39 -68 -55 -60 -79 -96 -92 -142 -9 -31 -27 -57 -56 -83 -24 -22 -85
-91 -137 -155 -107 -133 -283 -335 -493 -564 -100 -110 -159 -165 -194 -184
-36 -20 -52 -35 -56 -55 -9 -44 -180 -146 -301 -179 -73 -19 -115 -67 -166
-188 -79 -188 -81 -217 -24 -294 47 -62 190 -133 268 -133 66 0 156 41 200 92
25 27 28 37 20 62 -5 17 -11 35 -14 40 -4 5 19 24 50 41 31 18 83 55 117 82
84 68 100 75 131 54 14 -9 35 -16 47 -16 36 0 437 412 946 970 72 80 140 156
151 169 l19 25 11 -80 c41 -293 40 -441 -4 -707 -23 -140 -26 -172 -15 -189
10 -15 11 -62 6 -197 -7 -172 5 -458 26 -605 5 -38 19 -86 31 -107 21 -38 85
-89 111 -89 9 0 22 29 36 78 39 134 41 135 37 12 -3 -101 -8 -126 -39 -210
-132 -357 -346 -845 -471 -1070 -120 -216 -156 -311 -197 -516 -50 -252 -334
-910 -542 -1256 -102 -170 -249 -393 -335 -508 -73 -97 -78 -120 -28 -120 30
-1 108 -38 102 -49 -15 -24 -83 -34 -198 -27 -102 5 -120 4 -125 -10 -3 -8 -1
-20 6 -27 20 -20 12 -24 -70 -37 -138 -22 -211 -10 -452 71 -216 72 -286 87
-352 75 -44 -9 -85 -46 -85 -78 0 -33 82 -128 200 -233 199 -177 362 -274 580
-345 100 -33 155 -45 307 -66 32 -5 32 -5 13 -24 -23 -23 -36 -68 -24 -80 5
-4 62 -22 127 -39 65 -17 158 -47 207 -67 49 -19 94 -33 99 -30 5 4 42 87 80
186 72 182 111 319 111 390 0 21 5 51 10 65 8 22 15 26 33 21 12 -3 48 -9 80
-13 68 -7 78 0 141 97 52 80 274 462 386 665 206 369 530 1089 546 1211 8 60
56 158 183 374 54 91 110 188 126 215 30 53 194 315 205 328 11 12 106 -154
238 -418 222 -442 258 -503 431 -733 363 -484 713 -1054 866 -1412 91 -214 99
-225 157 -241 l39 -10 -40 -44 c-23 -25 -41 -48 -41 -52 0 -5 -4 -36 -9 -70
-20 -137 -71 -163 -455 -237 -86 -17 -134 -46 -167 -100 -41 -68 -18 -115 74
-145 220 -74 515 -68 731 13 86 32 233 106 288 144 26 18 51 32 56 32 5 0 14
-18 21 -40 14 -47 27 -49 80 -16 21 13 88 49 150 80 61 31 120 65 131 76 27
27 26 85 -5 223 -29 130 -68 216 -129 284 -55 62 -71 93 -84 171 -9 51 -27 90
-91 197 -88 146 -203 364 -403 760 -148 294 -153 303 -236 405 -32 41 -90 122
-127 179 -37 58 -92 136 -123 174 -78 95 -89 113 -96 160 -6 34 -20 54 -95
126 l-87 86 -33 115 c-42 145 -153 492 -277 865 -79 240 -96 301 -98 357 -1
60 2 69 27 96 19 20 45 33 80 40 77 15 163 50 199 80 60 51 71 123 43 288 -39
227 -109 556 -136 639 -35 111 -36 125 -9 100 20 -18 20 -17 20 8 0 15 -20 98
-45 185 -89 315 -92 364 -41 671 19 113 37 231 41 261 11 95 13 95 63 -1 26
-49 73 -124 104 -167 103 -140 165 -236 186 -292 28 -71 43 -122 222 -743 83
-286 159 -538 169 -562 12 -26 34 -53 55 -67 31 -20 36 -28 36 -64 0 -22 -11
-78 -25 -125 -30 -101 -31 -150 -6 -291 14 -81 17 -125 11 -185 -4 -43 -6 -92
-3 -108 l5 -31 -174 -53 c-191 -59 -293 -106 -338 -158 -30 -34 -34 -46 -30
-93 6 -86 223 -775 315 -1001 69 -169 160 -343 195 -373 65 -54 124 -40 644
149 429 156 997 385 1186 478 l85 42 -1 40 c0 22 -21 94 -47 160 -132 344
-179 475 -187 526 -9 51 -72 268 -170 579 -54 170 -56 173 -139 168 -51 -4
-110 -21 -256 -76 -104 -40 -194 -72 -198 -72 -5 0 -66 59 -137 131 -141 144
-169 189 -232 372 -31 92 -48 125 -48 96 0 -25 -34 -49 -91 -65 -52 -14 -328
-30 -317 -18 3 3 32 12 65 20 32 9 121 35 198 59 77 24 143 43 146 42 13 -5
39 27 39 48 0 46 -45 192 -258 836 -139 421 -235 695 -261 748 -23 46 -80 166
-127 268 -46 102 -120 255 -164 341 -44 85 -80 162 -80 169 0 19 -38 93 -65
125 -13 15 -46 96 -74 181 -84 252 -139 346 -235 402 -23 13 -102 42 -177 64
-75 22 -158 50 -184 61 -103 44 -203 133 -298 266 l-37 51 11 109 c11 105 14
114 80 249 101 205 120 267 126 405 4 88 1 131 -11 180 -48 188 -188 332 -381
393 -58 18 -94 22 -210 22 -87 0 -153 -5 -174 -12 -28 -11 -36 -11 -45 1 -9
11 -20 12 -66 0z m-20 -2005 c-50 -182 -134 -626 -123 -655 3 -8 -1 -14 -8
-14 -9 0 -11 40 -6 188 9 248 35 390 90 497 21 39 68 98 73 92 2 -2 -10 -50
-26 -108z m-1649 -2371 c59 -56 104 -111 117 -138 25 -55 43 -128 32 -135 -5
-3 -34 34 -66 82 -32 49 -86 120 -119 158 -94 109 -115 136 -115 146 0 21 60
-24 151 -113z m4461 -1155 c8 -10 18 -33 21 -50 10 -51 -20 -43 -34 10 -6 23
-13 45 -16 50 -9 15 14 6 29 -10z m-116 -50 c4 -16 13 -40 20 -54 12 -23 11
-27 -14 -41 -31 -18 -264 -98 -286 -98 -8 0 -20 16 -27 37 -15 47 -1 58 89 68
80 8 104 20 157 74 21 23 43 41 47 41 4 0 11 -12 14 -27z m-411 -69 c-8 -16
-15 -23 -15 -16 0 17 20 55 26 49 2 -2 -2 -17 -11 -33z m-21 -119 c5 -29 4
-36 -3 -25 -6 8 -11 28 -11 44 0 39 6 31 14 -19z"/>
</g>
</svg>
