<?xml version="1.0" standalone="no"?>
<!DOCTYPE svg PUBLIC "-//W3C//DTD SVG 20010904//EN"
 "http://www.w3.org/TR/2001/REC-SVG-20010904/DTD/svg10.dtd">
<svg version="1.0" xmlns="http://www.w3.org/2000/svg"
 width="1024.000000pt" height="1536.000000pt" viewBox="0 0 1024.000000 1536.000000"
 preserveAspectRatio="xMidYMid meet">
<metadata>
Created by potrace 1.16, written by Peter Selinger 2001-2019
</metadata>
<g transform="translate(0.000000,1536.000000) scale(0.100000,-0.100000)"
fill="#000000" stroke="none">
<path d="M6336 14209 c-14 -11 -26 -27 -26 -34 0 -8 -4 -16 -9 -19 -5 -3 -159
-24 -342 -46 -411 -50 -1140 -142 -1389 -175 -513 -68 -883 -117 -955 -126
-44 -5 -122 -17 -174 -25 -64 -10 -123 -13 -185 -8 -84 6 -93 4 -118 -15 -30
-24 -48 -75 -41 -115 7 -34 48 -74 81 -78 l27 -3 6 -220 c3 -121 6 -730 7
-1353 2 -1083 2 -1133 -15 -1124 -10 5 -74 26 -143 46 -69 21 -162 51 -207 68
-83 31 -146 78 -141 106 2 9 21 25 43 36 51 27 78 69 100 153 9 37 35 128 58
202 l40 134 -6 151 c-6 144 -5 155 20 244 l27 93 -18 144 c-17 134 -17 148 -2
185 9 22 16 54 16 71 0 150 -265 308 -545 326 -144 9 -221 -7 -360 -76 -66
-33 -131 -63 -145 -66 -63 -18 -151 -118 -215 -246 -68 -134 -80 -247 -45
-420 36 -178 103 -332 186 -429 51 -59 58 -82 52 -150 -9 -96 -96 -231 -208
-323 -59 -49 -194 -114 -355 -172 -315 -112 -411 -159 -440 -215 -20 -39 -96
-251 -136 -380 -120 -386 -221 -793 -308 -1240 -57 -293 -66 -364 -52 -398 22
-53 345 -354 659 -616 90 -75 131 -115 127 -125 -5 -17 -35 -326 -55 -561 -7
-74 -15 -171 -20 -215 -11 -121 -8 -204 10 -215 8 -5 39 -12 68 -16 l54 -7 -7
-81 c-3 -44 -17 -238 -30 -431 -26 -366 -65 -805 -91 -1035 -11 -95 -24 -160
-46 -220 -135 -376 -280 -1081 -352 -1710 -22 -190 -64 -661 -72 -812 -6 -112
-5 -130 11 -154 15 -24 16 -35 6 -98 -17 -103 -27 -286 -21 -404 6 -123 15
-136 82 -120 50 11 53 7 62 -75 17 -168 143 -280 383 -339 120 -30 354 -32
426 -5 54 21 67 40 67 95 0 98 -62 228 -182 383 -122 155 -154 225 -172 375
-5 44 -2 59 22 105 16 30 33 74 40 99 18 72 59 327 91 570 76 566 162 933 360
1533 138 417 306 982 416 1392 37 138 70 259 74 270 18 46 54 -891 50 -1320
-7 -942 7 -1293 96 -2375 21 -251 24 -268 53 -323 25 -46 25 -49 9 -82 -15
-33 -15 -45 4 -197 12 -90 28 -173 36 -186 8 -13 31 -31 51 -39 42 -18 253
-63 293 -63 16 0 47 17 79 42 46 37 59 42 104 42 44 1 73 -10 216 -81 122 -61
185 -86 242 -98 134 -26 287 -17 448 27 141 38 188 76 177 144 -14 84 -85 134
-339 235 -94 38 -193 83 -219 100 -57 36 -153 144 -197 221 -48 83 -162 517
-181 688 -39 340 -18 1297 54 2490 41 682 53 922 60 1193 l7 257 27 6 c58 15
81 33 81 67 0 17 -18 192 -40 387 -60 542 -66 616 -51 642 9 19 9 36 -3 88 -8
36 -20 108 -26 160 -6 52 -16 125 -21 162 -5 37 -9 72 -9 77 0 8 447 11 1484
11 l1484 0 1 -582 c1 -321 4 -1370 8 -2332 5 -1546 4 -1750 -9 -1760 -40 -29
-49 -94 -23 -166 8 -24 13 -51 10 -61 -3 -9 -31 -33 -63 -52 -55 -33 -225
-140 -692 -436 -124 -79 -281 -179 -350 -222 -466 -293 -469 -295 -454 -354 8
-30 44 -58 78 -58 13 1 134 70 272 155 137 86 311 194 386 240 l138 85 342
-99 c213 -61 345 -103 351 -113 27 -49 121 -55 154 -9 15 21 66 38 323 114
168 50 317 95 331 101 25 10 56 -7 397 -215 445 -271 450 -273 490 -257 37 16
59 62 46 99 -7 18 -67 62 -229 164 -121 76 -272 172 -335 212 -63 41 -236 151
-385 246 -148 95 -344 220 -434 278 l-163 106 8 41 c4 22 8 68 8 102 1 51 -3
66 -21 85 l-23 24 0 2332 0 2332 1591 2 1591 3 19 24 c24 29 26 116 4 148 -9
13 -33 28 -55 34 l-40 12 -2 681 c-6 1368 -6 4032 -1 4063 4 26 11 32 38 37
40 8 64 34 75 82 10 45 -8 97 -38 113 -12 6 -66 11 -122 11 -63 0 -259 20
-528 55 -486 62 -1065 134 -1612 200 -648 78 -874 106 -897 111 -13 2 -23 11
-23 20 0 23 -46 64 -73 64 -13 0 -36 -9 -51 -21z m-35 -141 c2 -13 3 -85 1
-160 l-4 -138 -1246 1 c-1412 1 -1348 -6 -672 80 217 27 553 70 745 95 193 24
409 51 480 60 72 8 249 30 395 48 146 19 272 34 281 35 10 1 18 -8 20 -21z
m624 -38 c707 -86 918 -112 1425 -175 289 -36 548 -69 575 -74 29 -5 -474 -9
-1212 -10 l-1263 -1 0 156 0 157 73 -7 c39 -3 221 -24 402 -46z m2486 -2687
c1 -1176 3 -2210 5 -2298 2 -88 0 -166 -4 -172 -6 -10 -590 -13 -2779 -15
-1524 -2 -2769 0 -2767 4 2 3 19 10 37 14 56 12 911 335 976 368 40 21 44 40
31 143 -15 118 -14 117 -44 97 -21 -13 -31 -14 -62 -4 -29 10 -40 22 -59 64
-13 28 -26 65 -30 81 -5 27 -4 28 7 11 33 -49 76 -90 106 -103 30 -12 38 -11
105 15 39 16 126 46 192 67 145 45 183 63 230 112 48 49 70 94 86 172 9 50 21
73 55 114 48 56 60 94 51 168 l-6 49 477 397 c262 218 539 448 615 511 75 62
137 118 137 123 0 22 -22 49 -40 49 -11 0 -151 -106 -312 -236 -161 -129 -358
-288 -438 -352 -80 -64 -233 -188 -340 -276 -107 -87 -211 -166 -230 -174 -24
-10 -73 -16 -155 -16 -257 -3 -339 -69 -521 -421 l-36 -70 5 48 c3 34 0 52
-10 62 -19 20 -15 21 -97 -24 -68 -37 -234 -106 -543 -224 l-141 -54 -30 43
c-17 23 -49 53 -72 66 -32 18 -49 38 -75 88 -83 164 -159 369 -236 635 -22 77
-59 192 -82 255 l-41 115 -3 1353 -3 1352 3020 0 3020 0 1 -2137z m-7391 -124
c0 -18 101 -117 157 -155 30 -20 92 -52 136 -71 45 -18 90 -38 100 -44 12 -6
23 -7 30 -1 7 6 37 13 67 17 30 4 79 13 108 20 l52 13 0 -31 c0 -18 9 -74 20
-126 11 -52 20 -121 21 -155 0 -34 6 -99 14 -146 34 -206 39 -284 26 -359 -7
-40 -17 -69 -21 -64 -4 4 -13 48 -19 98 -7 49 -25 155 -41 236 -44 221 -45
242 -24 278 17 29 17 33 1 83 -25 79 -66 124 -122 132 -75 12 -94 -4 -122
-104 -19 -65 -22 -89 -14 -102 6 -10 11 -23 11 -29 0 -7 7 -17 16 -24 14 -10
18 -52 26 -283 5 -151 6 -294 1 -324 l-8 -53 -34 100 c-68 198 -120 324 -224
532 -99 200 -153 335 -177 446 -11 49 -4 127 11 127 5 0 9 -5 9 -11z m-770
-2001 c0 -29 17 -148 55 -378 7 -47 11 -87 9 -89 -3 -3 -40 30 -82 72 l-78 78
38 152 c20 83 37 162 38 175 0 12 5 22 10 22 6 0 10 -14 10 -32z m2283 -265
l88 -103 -130 0 -131 0 0 156 0 156 42 -54 c23 -29 82 -99 131 -155z m-1807
-783 c-53 -60 -105 -160 -113 -219 -8 -55 -29 -48 -25 8 4 63 39 127 110 203
74 79 98 85 28 8z m4560 -5227 c-2 -3 -123 35 -269 82 l-266 87 112 68 c62 37
182 111 267 163 l155 96 3 -246 c1 -135 0 -248 -2 -250z m451 335 l265 -163
-263 -87 c-145 -48 -267 -87 -271 -87 -5 -1 -8 112 -8 249 0 138 3 250 6 250
4 0 126 -73 271 -162z"/>
</g>
</svg>
