<?xml version="1.0" standalone="no"?>
<!DOCTYPE svg PUBLIC "-//W3C//DTD SVG 20010904//EN"
 "http://www.w3.org/TR/2001/REC-SVG-20010904/DTD/svg10.dtd">
<svg version="1.0" xmlns="http://www.w3.org/2000/svg"
 width="1024.000000pt" height="1536.000000pt" viewBox="0 0 1024.000000 1536.000000"
 preserveAspectRatio="xMidYMid meet">
<metadata>
Created by potrace 1.16, written by Peter Selinger 2001-2019
</metadata>
<g transform="translate(0.000000,1536.000000) scale(0.100000,-0.100000)"
fill="#000000" stroke="none">
<path d="M2385 13110 c-208 -32 -426 -146 -523 -272 -95 -126 -127 -226 -125
-403 1 -215 46 -384 144 -546 39 -66 41 -72 37 -136 -5 -94 -49 -185 -130
-270 -112 -117 -255 -197 -528 -298 -284 -104 -301 -114 -347 -200 -55 -101
-204 -580 -297 -950 -89 -355 -196 -885 -196 -969 0 -16 9 -43 19 -60 11 -17
113 -121 228 -230 114 -110 281 -271 370 -357 l162 -157 -39 -414 c-22 -227
-40 -431 -40 -454 0 -48 14 -63 81 -88 53 -19 60 -34 53 -105 -3 -25 -29 -347
-60 -716 -69 -843 -74 -879 -170 -1215 -166 -575 -279 -1214 -359 -2020 -31
-315 -45 -524 -45 -673 0 -117 0 -118 28 -145 l29 -27 -13 -165 c-20 -250 -15
-265 91 -291 62 -15 67 -19 104 -82 78 -138 239 -224 451 -242 146 -13 331 31
360 86 30 54 -24 191 -156 399 -36 58 -84 139 -106 180 l-40 75 6 95 c24 351
137 1093 236 1549 89 415 158 665 304 1111 126 383 307 999 382 1300 l28 115
7 -65 c4 -36 13 -191 20 -345 13 -289 15 -633 9 -1680 -4 -706 12 -1046 85
-1815 33 -346 35 -357 68 -369 21 -8 22 -13 22 -169 0 -148 2 -163 20 -182 29
-28 118 -43 280 -44 l139 -1 24 43 c15 27 30 42 43 42 11 0 89 -29 172 -64
255 -107 314 -120 527 -119 125 0 170 4 233 21 98 27 125 40 150 74 18 24 19
32 8 68 -27 91 -107 143 -321 210 -74 23 -153 51 -175 63 -183 93 -290 280
-359 630 -33 165 -43 250 -57 484 -14 239 -2 613 66 1918 21 405 51 1023 75
1530 25 526 23 510 59 525 16 6 39 22 51 35 20 22 22 31 16 97 -3 40 -13 159
-21 263 -9 105 -42 489 -75 855 -32 366 -60 709 -62 763 -3 90 -2 97 12 75 45
-68 140 -190 189 -242 121 -127 174 -129 483 -26 247 83 766 312 841 370 33
26 41 63 32 161 -6 70 -9 79 -25 74 -9 -3 -35 -6 -55 -7 -79 -3 -125 99 -125
275 l0 107 -57 -26 c-235 -106 -735 -314 -753 -314 -12 0 -20 10 -24 33 -6 29
-23 55 -109 161 -20 24 -67 145 -157 403 -253 727 -251 723 -338 767 -26 13
-114 47 -197 76 -199 69 -304 119 -338 159 -41 49 -36 58 34 63 56 4 65 8 95
40 38 42 63 115 101 298 23 108 27 151 28 320 1 135 6 205 15 229 9 24 11 59
6 120 -6 79 -34 213 -50 240 -4 6 -2 11 4 11 6 0 22 11 35 25 21 20 25 34 25
82 -1 185 -196 330 -455 339 -55 1 -127 -1 -160 -6z m-430 -1525 c56 -105 358
-321 512 -365 58 -17 88 -7 144 51 36 37 49 45 49 32 0 -10 13 -72 29 -138 16
-66 34 -153 40 -194 19 -125 41 -401 40 -506 l-1 -100 -32 125 c-19 69 -50
188 -71 265 -25 97 -39 173 -44 250 -7 114 -18 147 -51 165 -83 44 -164 -52
-130 -155 10 -30 14 -132 16 -410 1 -262 -1 -360 -8 -335 -35 122 -118 364
-160 470 -59 146 -97 222 -207 420 -103 183 -141 282 -150 383 -4 42 -4 77 -1
77 3 0 14 -16 25 -35z m-656 -2147 c13 -98 33 -249 46 -335 13 -87 22 -159 21
-160 -2 -2 -47 53 -102 122 -65 82 -98 133 -97 148 0 12 22 103 47 202 25 99
46 189 46 199 0 12 3 16 9 11 5 -6 18 -90 30 -187z m367 -1040 c-47 -72 -84
-173 -93 -259 -5 -48 -9 -59 -22 -57 -59 11 12 234 105 331 25 26 46 47 48 47
3 0 -15 -28 -38 -62z"/>
<path d="M6484 11388 c-304 -246 -952 -779 -1052 -864 l-72 -62 -143 -4 c-117
-4 -152 -9 -199 -28 -116 -46 -237 -175 -274 -293 -42 -135 -24 -289 41 -354
37 -37 66 -41 120 -18 20 8 82 25 140 39 127 31 212 72 271 132 45 44 94 132
94 167 0 11 14 59 31 108 30 86 35 144 16 189 -6 16 -9 14 427 385 804 684
887 757 884 779 -2 11 -10 22 -19 24 -9 2 -125 -86 -265 -200z"/>
</g>
</svg>
