<?xml version="1.0" standalone="no"?>
<!DOCTYPE svg PUBLIC "-//W3C//DTD SVG 20010904//EN"
 "http://www.w3.org/TR/2001/REC-SVG-20010904/DTD/svg10.dtd">
<svg version="1.0" xmlns="http://www.w3.org/2000/svg"
 width="1024.000000pt" height="1536.000000pt" viewBox="0 0 1024.000000 1536.000000"
 preserveAspectRatio="xMidYMid meet">
<metadata>
Created by potrace 1.16, written by Peter Selinger 2001-2019
</metadata>
<g transform="translate(0.000000,1536.000000) scale(0.100000,-0.100000)"
fill="#000000" stroke="none">
<path d="M4877 14645 c-131 -27 -214 -65 -367 -170 -131 -91 -188 -141 -246
-216 -53 -69 -125 -216 -150 -309 -25 -90 -26 -331 -2 -410 16 -53 16 -57 -2
-110 -11 -30 -19 -79 -20 -109 0 -58 24 -164 45 -197 11 -17 10 -34 -5 -111
-54 -263 -51 -544 9 -716 l20 -57 -22 -21 c-54 -51 -247 -125 -567 -219 -275
-80 -268 -76 -530 -340 -124 -125 -257 -253 -296 -283 -65 -51 -238 -167 -248
-167 -10 0 -75 340 -100 530 -9 63 -20 192 -25 287 -10 205 -18 224 -101 264
l-54 26 75 44 c99 58 167 128 211 220 148 306 158 331 158 409 0 61 -27 109
-72 133 -34 17 -38 23 -38 58 0 46 -22 104 -52 136 -49 52 -260 98 -453 98
-164 0 -191 -10 -270 -97 -79 -87 -130 -220 -154 -405 -13 -97 -31 -414 -31
-548 l0 -100 -50 -28 c-58 -31 -101 -92 -128 -177 -26 -83 -23 -339 6 -545 39
-276 73 -513 103 -730 55 -397 80 -503 140 -596 94 -147 230 -197 479 -178
186 14 361 61 950 252 l195 63 3 -176 c8 -456 -48 -1047 -142 -1503 -49 -238
-50 -250 -21 -285 23 -28 24 -31 15 -123 -69 -733 -110 -1211 -113 -1316 -2
-78 -1 -83 28 -113 21 -22 51 -37 102 -52 40 -12 73 -25 73 -30 0 -6 13 -143
30 -306 16 -164 46 -466 65 -672 39 -407 76 -782 100 -1010 46 -426 116 -1205
141 -1555 23 -320 24 -991 1 -1255 -13 -162 -14 -188 -1 -208 9 -13 24 -22 39
-22 14 0 25 -3 25 -6 0 -9 -157 -181 -250 -274 -93 -94 -162 -135 -315 -190
-194 -70 -285 -133 -331 -225 -20 -43 -25 -65 -21 -96 11 -83 54 -112 240
-159 167 -42 271 -53 432 -47 215 8 294 34 615 201 77 40 87 43 105 30 66 -47
76 -49 210 -48 136 1 328 29 405 60 60 24 63 47 50 344 l-12 249 26 53 c24 50
26 68 40 363 42 836 51 1290 36 1866 -11 438 -10 528 4 799 41 753 77 1319 92
1439 9 75 5 87 129 -364 207 -758 385 -1485 511 -2085 148 -709 276 -1407 343
-1882 17 -114 37 -221 46 -237 8 -17 29 -38 45 -46 39 -20 39 -25 -5 -333 -58
-405 -57 -429 18 -486 41 -32 178 -69 320 -86 119 -15 407 -8 519 14 123 23
273 75 300 103 45 48 30 146 -117 758 l-14 60 26 21 26 21 -7 379 c-20 1142
-38 1438 -161 2699 -16 167 -47 595 -70 960 -8 132 -19 413 -25 625 -5 212
-12 426 -15 476 l-6 91 43 12 c113 34 158 77 158 150 0 26 -23 220 -50 431
-28 212 -66 504 -85 650 -19 146 -38 286 -41 313 -6 42 -4 50 19 71 30 28 30
29 -13 236 -43 203 -60 332 -70 543 -10 223 1 498 30 756 22 185 59 443 66
450 2 2 131 -49 286 -114 631 -264 846 -326 1028 -298 197 31 324 157 380 378
25 96 65 404 80 610 33 463 41 1010 15 1123 -28 119 -75 179 -152 189 l-40 5
-32 197 c-17 108 -36 241 -41 296 -34 338 -67 513 -114 602 -16 32 -60 75 -93
92 -47 24 -145 13 -324 -38 -219 -63 -255 -75 -296 -107 -40 -30 -58 -64 -67
-125 -6 -40 -10 -46 -38 -55 -53 -15 -73 -54 -73 -137 1 -99 36 -202 94 -280
25 -33 74 -105 109 -161 77 -123 108 -155 191 -200 l64 -34 -42 -27 c-61 -38
-71 -70 -71 -223 0 -71 -5 -187 -10 -258 -11 -132 -55 -462 -63 -470 -9 -9
-331 351 -479 534 -110 136 -189 175 -527 262 -369 94 -534 150 -636 215 -27
18 -89 66 -136 108 l-87 76 9 43 c4 24 8 68 9 98 0 54 1 56 44 83 58 37 173
159 215 230 102 173 118 339 42 444 l-27 38 4 147 c5 173 -8 277 -49 402 -78
234 -249 420 -496 538 -206 99 -483 141 -676 103z m537 -1024 c50 -32 106
-145 62 -128 -8 3 -42 11 -75 18 -73 14 -154 8 -304 -23 -98 -20 -109 -21
-123 -6 -14 13 -14 22 -5 51 15 45 22 50 101 75 108 36 142 41 226 38 63 -2
88 -7 118 -25z m-869 -11 c61 -30 125 -86 125 -111 0 -28 -45 -24 -137 12 -99
39 -218 50 -277 25 -22 -9 -41 -14 -44 -11 -10 10 62 77 103 97 56 26 162 21
230 -12z m136 -378 c-11 -38 -30 -80 -41 -93 l-19 -24 9 35 c14 50 62 161 68
156 2 -3 -5 -36 -17 -74z m-83 -358 c7 -15 31 -33 59 -46 43 -19 54 -20 123
-9 144 22 237 12 336 -35 111 -53 229 -196 203 -247 -16 -29 -71 -18 -245 47
-244 93 -341 99 -499 32 -203 -87 -295 -108 -295 -67 0 27 55 127 98 180 32
40 188 171 203 171 3 0 11 -12 17 -26z m1008 -685 c-35 -94 -78 -184 -231
-490 -169 -336 -284 -586 -382 -829 -41 -102 -77 -187 -80 -190 -9 -8 5 627
16 734 17 159 16 158 131 115 44 -16 87 -29 95 -29 18 0 17 3 -62 169 -34 74
-63 135 -63 137 0 1 25 12 55 23 166 62 367 214 495 374 24 31 46 55 47 53 2
-2 -7 -32 -21 -67z m-3982 -67 c49 -49 318 -27 544 45 45 14 85 23 88 20 15
-14 -11 -65 -52 -104 -94 -90 -269 -152 -456 -160 l-117 -6 -32 32 -32 32 6
99 c6 109 17 146 28 91 4 -18 14 -40 23 -49z m6887 -85 c1 -107 -33 -125 -201
-108 -184 20 -365 92 -435 174 -33 38 -46 77 -26 77 5 0 65 -15 133 -34 215
-59 422 -73 467 -32 12 11 21 29 21 41 0 12 3 25 7 29 12 11 33 -82 34 -147z
m-4077 -100 c66 -53 128 -93 169 -108 20 -7 37 -17 37 -22 0 -5 -29 -59 -65
-119 -36 -61 -65 -112 -65 -115 0 -2 31 -1 68 2 52 6 70 4 79 -7 9 -11 -19
-108 -130 -446 -77 -238 -144 -432 -148 -432 -15 0 -22 334 -15 750 6 407 11
530 24 530 3 0 23 -15 46 -33z"/>
</g>
</svg>
