<?xml version="1.0" standalone="no"?>
<!DOCTYPE svg PUBLIC "-//W3C//DTD SVG 20010904//EN"
 "http://www.w3.org/TR/2001/REC-SVG-20010904/DTD/svg10.dtd">
<svg version="1.0" xmlns="http://www.w3.org/2000/svg"
 width="1024.000000pt" height="1536.000000pt" viewBox="0 0 1024.000000 1536.000000"
 preserveAspectRatio="xMidYMid meet">
<metadata>
Created by potrace 1.16, written by Peter Selinger 2001-2019
</metadata>
<g transform="translate(0.000000,1536.000000) scale(0.100000,-0.100000)"
fill="#000000" stroke="none">
<path d="M5074 14419 c-358 -34 -660 -217 -815 -494 -67 -120 -79 -175 -89
-400 -11 -240 -15 -261 -84 -469 -67 -199 -86 -303 -86 -466 0 -156 17 -235
75 -357 25 -53 44 -97 43 -98 -2 -1 -133 -35 -293 -74 -529 -131 -755 -222
-1130 -456 l-120 -75 -7 47 c-3 27 -9 212 -13 413 -4 201 -11 383 -17 405 -7
28 -26 55 -65 92 -30 29 -52 57 -48 63 3 5 32 28 65 50 78 53 130 117 184 225
59 117 126 317 126 376 0 81 -25 143 -77 188 -25 23 -49 41 -54 41 -4 0 -13
27 -20 60 -21 108 -90 189 -179 209 -61 14 -416 14 -482 0 -131 -28 -262 -130
-322 -251 -62 -123 -71 -186 -71 -508 0 -157 3 -300 7 -317 7 -30 5 -34 -25
-46 -85 -36 -124 -103 -147 -252 -6 -44 -27 -159 -45 -255 -99 -517 -128 -773
-129 -1155 -1 -322 5 -366 66 -494 41 -86 140 -187 228 -231 218 -110 515
-164 911 -164 171 0 246 -3 243 -10 -8 -25 -105 -350 -138 -461 -254 -873
-373 -1610 -402 -2493 l-7 -210 26 -44 c44 -75 107 -125 262 -208 44 -23 85
-47 92 -54 8 -7 17 -100 28 -276 32 -536 76 -958 195 -1840 126 -942 300
-2347 300 -2429 0 -26 -78 -114 -160 -180 -85 -69 -195 -130 -350 -191 -58
-23 -125 -54 -150 -70 -182 -117 -235 -321 -105 -410 59 -40 126 -66 247 -92
90 -20 132 -22 338 -23 209 0 247 3 345 24 171 36 305 85 489 177 168 84 185
89 186 48 0 -26 49 -64 82 -64 46 0 273 43 452 87 175 42 200 58 191 120 -9
61 -33 477 -28 486 2 4 13 7 24 7 11 0 33 12 48 27 l27 28 13 340 c6 187 14
383 17 435 2 52 9 219 14 370 19 521 52 1217 65 1360 3 30 12 179 21 330 9
151 19 320 23 375 l7 100 28 -60 c238 -512 688 -1938 976 -3095 38 -154 76
-293 84 -309 28 -53 74 -81 202 -125 18 -7 24 -105 24 -376 -1 -337 14 -395
129 -504 59 -54 124 -87 237 -118 70 -19 105 -22 309 -22 187 -1 246 2 315 17
175 38 274 84 352 164 58 59 89 127 96 209 6 85 -9 163 -74 371 -30 98 -67
225 -81 283 l-25 105 23 15 c13 8 37 28 53 43 l29 29 -7 261 c-8 295 -30 889
-46 1227 -9 197 -25 440 -60 925 -6 72 -14 306 -20 520 -10 430 -18 671 -26
845 -25 541 -33 764 -28 771 3 5 12 9 19 9 38 0 152 57 193 96 l45 44 -7 115
c-24 425 -105 1122 -182 1573 -89 524 -124 834 -124 1115 0 176 1 189 18 182
122 -48 349 -105 507 -126 135 -19 430 -17 542 4 369 68 568 267 623 622 28
177 6 611 -45 931 -40 247 -115 663 -131 728 -28 108 -77 180 -155 228 -25 16
-26 22 -33 135 -13 217 -71 629 -103 728 -56 176 -180 294 -340 325 -86 17
-350 8 -421 -14 -89 -29 -159 -110 -177 -209 -6 -30 -15 -42 -44 -56 -48 -26
-86 -67 -110 -121 -17 -40 -19 -66 -17 -220 1 -146 5 -181 20 -212 22 -46 83
-102 128 -118 31 -12 36 -18 52 -82 24 -92 77 -196 130 -255 l44 -48 -38 -41
c-29 -32 -39 -52 -44 -90 -6 -56 -21 -403 -17 -421 5 -29 -16 -9 -36 35 -98
208 -431 461 -784 598 -103 40 -136 50 -384 122 -297 87 -304 90 -352 158 -46
64 -103 169 -103 190 0 7 28 28 63 46 82 43 175 137 214 216 45 90 57 158 48
272 -11 135 -11 154 9 260 28 147 19 324 -23 450 -55 164 -143 288 -271 380
-33 25 -87 77 -119 116 -141 171 -343 269 -610 294 -117 11 -138 11 -257 -1z
m-3449 -1928 c10 -33 80 -88 141 -111 92 -34 159 -43 284 -37 156 8 263 39
316 92 14 14 28 24 30 22 2 -2 5 -23 6 -46 1 -33 -4 -47 -27 -71 -64 -66 -195
-101 -380 -102 -283 0 -429 86 -401 237 8 39 21 46 31 16z m4115 -588 c0 -14
-176 -240 -335 -428 -220 -260 -302 -365 -393 -503 -67 -101 -187 -324 -220
-407 -22 -55 -4 390 23 593 6 38 12 46 59 76 35 22 57 45 66 67 7 19 15 36 17
38 2 3 23 -17 46 -43 25 -29 49 -47 58 -45 14 3 11 15 -17 74 -18 39 -49 105
-69 148 -23 50 -44 81 -58 87 -12 5 -81 16 -152 25 -147 18 -167 15 -209 -37
-85 -104 -174 -228 -167 -232 7 -5 37 12 89 50 l22 16 0 -56 c0 -32 5 -66 10
-77 9 -15 -4 -50 -68 -181 -87 -178 -140 -316 -184 -478 l-29 -105 6 200 c12
396 40 752 81 1005 25 157 16 146 77 100 75 -57 191 -115 283 -142 66 -19 102
-23 224 -22 223 0 319 28 625 182 201 101 215 108 215 95z m2909 -87 c25 -99
7 -157 -63 -211 -110 -84 -365 -109 -565 -55 -132 36 -206 95 -199 159 l3 31
50 -35 c124 -87 437 -105 600 -35 80 34 144 113 145 178 0 36 16 18 29 -32z"/>
</g>
</svg>
