<?xml version="1.0" standalone="no"?>
<!DOCTYPE svg PUBLIC "-//W3C//DTD SVG 20010904//EN"
 "http://www.w3.org/TR/2001/REC-SVG-20010904/DTD/svg10.dtd">
<svg version="1.0" xmlns="http://www.w3.org/2000/svg"
 width="1024.000000pt" height="1536.000000pt" viewBox="0 0 1024.000000 1536.000000"
 preserveAspectRatio="xMidYMid meet">
<metadata>
Created by potrace 1.16, written by Peter Selinger 2001-2019
</metadata>
<g transform="translate(0.000000,1536.000000) scale(0.100000,-0.100000)"
fill="#000000" stroke="none">
<path d="M4955 14379 c-259 -27 -506 -159 -522 -278 -5 -37 -13 -46 -74 -92
-111 -82 -141 -127 -119 -183 9 -23 6 -38 -17 -89 -23 -50 -28 -77 -28 -138 0
-65 4 -81 27 -116 16 -24 27 -56 28 -75 0 -18 -2 -184 -5 -368 -6 -381 -1
-453 51 -650 40 -153 132 -406 165 -452 32 -44 74 -58 179 -58 l90 0 0 -34 c0
-122 92 -182 265 -174 87 4 100 7 187 50 51 26 169 95 263 153 93 58 174 104
180 102 32 -12 -28 -153 -116 -272 -254 -344 -559 -903 -630 -1155 -7 -25 -16
-49 -21 -55 -10 -12 -9 425 2 541 8 86 28 135 87 217 29 39 40 47 67 47 18 0
41 -7 52 -15 52 -39 59 6 14 96 -38 74 -89 132 -149 167 -38 22 -60 27 -136
30 -114 5 -161 -10 -186 -58 -24 -44 -24 -83 1 -162 28 -88 25 -111 -20 -224
-80 -195 -130 -383 -175 -657 -12 -76 -26 -141 -29 -144 -9 -10 -7 293 4 486
21 349 76 575 211 860 33 68 59 127 59 130 0 3 -181 6 -403 6 l-402 0 -55 -27
c-30 -15 -93 -59 -139 -98 -175 -148 -333 -194 -787 -225 l-91 -7 -17 124
c-20 144 -43 432 -54 670 -6 152 -9 170 -28 189 -27 26 -39 20 -92 -47 -79
-100 -191 -147 -352 -148 -152 -1 -220 31 -259 120 -21 46 -39 54 -65 28 -39
-39 -41 -52 -44 -379 -6 -556 34 -992 115 -1249 65 -207 103 -235 414 -296
348 -70 641 -100 967 -100 l182 0 0 -209 c0 -468 -39 -959 -115 -1456 -35
-227 -89 -595 -125 -840 -17 -115 -42 -288 -56 -384 -29 -202 -36 -182 88
-262 58 -37 78 -55 74 -67 -20 -69 -114 -692 -160 -1057 -95 -759 -133 -1248
-122 -1590 5 -177 36 -805 51 -1050 10 -163 35 -825 41 -1095 7 -268 11 -299
48 -329 14 -11 6 -24 -59 -101 -86 -102 -201 -211 -265 -252 -60 -38 -181 -84
-320 -120 -155 -41 -247 -85 -302 -147 -95 -105 -93 -267 3 -317 113 -58 265
-84 494 -84 360 0 530 49 710 206 91 79 110 81 148 18 l28 -47 77 6 c103 8
391 65 419 82 41 27 48 73 47 325 -1 177 -5 254 -18 310 -21 99 -20 109 9 120
45 17 42 -9 80 665 42 758 54 1643 26 1920 -8 77 -15 151 -14 165 0 14 104
387 231 830 127 443 236 825 242 850 l12 44 133 -399 c73 -220 244 -701 380
-1070 278 -752 344 -940 450 -1270 162 -507 277 -941 409 -1550 42 -192 81
-363 88 -378 6 -16 27 -36 49 -48 22 -11 39 -23 39 -27 0 -22 -54 -205 -86
-289 -60 -162 -119 -272 -187 -350 -119 -136 -163 -242 -155 -374 6 -109 49
-152 174 -174 105 -19 372 -19 497 0 180 27 299 78 396 169 58 55 92 113 121
209 18 59 22 63 69 85 158 72 179 259 76 674 l-35 141 20 34 c11 19 20 46 20
59 0 35 -83 700 -126 1014 -95 689 -155 1035 -230 1335 -54 217 -86 314 -164
501 l-60 142 -74 453 c-91 547 -131 815 -191 1264 -24 187 -47 354 -50 371 -5
30 -3 33 82 83 49 29 99 60 111 70 l24 18 -36 244 c-20 134 -77 525 -126 869
-49 344 -96 668 -104 720 l-14 95 103 470 c57 259 109 495 115 527 l11 56 112
-53 c298 -140 609 -260 807 -312 113 -29 158 -36 276 -40 174 -7 252 11 326
76 112 99 184 347 268 922 81 554 114 920 91 982 -12 32 -48 66 -87 83 l-31
13 -11 148 c-57 729 -66 814 -103 921 -55 158 -125 212 -306 233 -108 12 -251
-3 -313 -34 -34 -16 -48 -30 -56 -56 -8 -24 -22 -40 -50 -54 -21 -10 -56 -35
-76 -55 -36 -34 -38 -39 -38 -98 0 -61 -1 -63 -35 -84 -43 -27 -65 -66 -65
-118 0 -84 47 -163 115 -193 53 -24 56 -27 94 -126 56 -147 79 -191 124 -240
25 -26 61 -76 81 -109 19 -34 64 -87 98 -119 104 -96 222 -140 428 -160 86 -8
98 -15 81 -51 l-12 -27 -112 6 c-229 14 -331 52 -436 163 -71 77 -95 88 -124
56 -31 -34 -75 -261 -127 -662 -17 -129 -32 -239 -33 -243 -1 -4 -49 45 -107
110 -58 64 -182 201 -277 304 -94 103 -187 211 -207 241 -88 139 -186 179
-516 213 -197 20 -229 28 -304 83 -77 55 -242 217 -263 257 -27 51 -32 93 -17
144 16 54 44 83 130 135 108 64 154 129 213 305 18 51 47 123 65 160 105 209
127 473 60 701 -43 148 -162 317 -271 387 -34 21 -67 55 -94 95 -98 144 -226
237 -386 279 -92 24 -358 34 -508 18z"/>
<path d="M2605 13693 c-16 -2 -97 -15 -180 -29 -167 -28 -214 -48 -258 -111
-82 -119 -104 -233 -113 -593 -6 -245 -9 -274 -35 -367 -25 -92 12 -179 94
-222 41 -20 62 -24 135 -24 106 0 180 21 259 72 72 46 120 102 167 191 33 63
43 73 113 116 97 58 142 97 197 167 78 101 119 229 119 372 0 106 -22 161 -78
198 -27 17 -35 29 -35 52 -1 39 -23 101 -47 127 -38 43 -90 58 -203 56 -58 0
-118 -3 -135 -5z"/>
</g>
</svg>
