<?xml version="1.0" standalone="no"?>
<!DOCTYPE svg PUBLIC "-//W3C//DTD SVG 20010904//EN"
 "http://www.w3.org/TR/2001/REC-SVG-20010904/DTD/svg10.dtd">
<svg version="1.0" xmlns="http://www.w3.org/2000/svg"
 width="1024.000000pt" height="1536.000000pt" viewBox="0 0 1024.000000 1536.000000"
 preserveAspectRatio="xMidYMid meet">
<metadata>
Created by potrace 1.16, written by Peter Selinger 2001-2019
</metadata>
<g transform="translate(0.000000,1536.000000) scale(0.100000,-0.100000)"
fill="#000000" stroke="none">
<path d="M5318 14814 c-183 -39 -297 -130 -406 -324 -17 -31 -52 -75 -77 -99
-26 -24 -60 -70 -76 -103 -38 -75 -89 -227 -89 -265 0 -17 -22 -68 -50 -119
-53 -95 -61 -134 -34 -173 15 -21 23 -23 63 -18 26 3 73 -1 106 -9 44 -10 90
-13 173 -8 l112 7 0 -59 c0 -86 -8 -93 -63 -51 -69 52 -166 70 -233 42 -26
-11 -40 -27 -57 -62 -20 -44 -22 -63 -22 -243 0 -168 3 -201 18 -235 24 -51
23 -99 -3 -205 -41 -175 -24 -243 78 -300 59 -33 66 -41 127 -145 35 -60 63
-111 61 -112 -1 -2 -63 -21 -137 -42 -284 -83 -457 -170 -575 -290 -28 -28
-78 -97 -111 -153 -115 -195 -590 -1148 -608 -1221 -9 -34 -15 -34 -51 4 -105
113 -592 539 -614 539 -6 0 -10 -34 -10 -77 0 -43 -7 -108 -15 -145 -42 -201
-229 -447 -322 -423 -31 7 -123 98 -123 121 0 12 4 14 13 7 6 -6 37 -20 67
-31 48 -17 60 -18 86 -7 67 28 169 185 212 325 60 198 26 444 -89 645 -88 154
-329 485 -365 502 -110 53 -151 -94 -72 -259 19 -40 54 -102 76 -137 46 -71
50 -86 25 -96 -18 -6 -94 30 -533 255 -242 124 -302 146 -346 130 -36 -14 -44
-26 -44 -68 0 -46 33 -73 203 -167 135 -74 238 -142 252 -166 9 -14 -10 -4
-147 77 -213 126 -328 174 -415 174 -53 0 -83 -26 -83 -71 0 -48 40 -77 237
-169 200 -94 346 -170 339 -177 -2 -2 -82 32 -178 76 -187 86 -281 121 -326
121 -59 0 -83 -70 -38 -115 25 -24 136 -84 241 -128 122 -52 260 -120 248
-124 -7 -2 -72 21 -145 52 -73 31 -148 59 -165 62 -41 7 -63 -10 -63 -47 0
-35 33 -64 137 -121 146 -79 347 -202 566 -345 l217 -143 0 -125 c0 -180 13
-211 133 -317 314 -277 790 -630 950 -704 192 -89 339 -65 496 81 66 61 141
158 191 247 18 32 34 57 35 55 2 -2 -4 -64 -11 -138 -30 -280 -104 -1023 -123
-1230 -19 -198 -35 -386 -76 -862 -8 -97 -15 -208 -15 -245 0 -78 10 -93 87
-132 23 -11 44 -29 46 -38 3 -10 8 -65 12 -123 5 -94 19 -261 71 -845 14 -167
65 -697 85 -885 5 -52 23 -225 40 -385 161 -1546 170 -1637 194 -2055 23 -388
29 -790 16 -980 -14 -201 -38 -420 -52 -479 -16 -69 -92 -177 -203 -286 -123
-122 -181 -153 -364 -194 -71 -16 -150 -39 -176 -52 -61 -28 -102 -83 -111
-148 -22 -161 126 -223 535 -225 334 -1 543 46 744 168 94 57 117 59 151 7 31
-46 61 -61 125 -61 54 0 361 54 402 71 48 20 51 45 46 352 l-6 282 29 25 29
25 8 350 c4 193 7 665 6 1050 0 714 -10 991 -51 1500 -18 226 -19 405 -4 843
6 166 14 464 18 662 3 198 7 359 9 357 6 -5 73 -276 94 -377 12 -58 33 -159
46 -225 75 -361 231 -1267 349 -2025 13 -85 70 -445 125 -800 55 -355 125
-802 155 -995 76 -487 76 -488 92 -506 7 -9 31 -21 53 -28 l40 -12 0 -102 c0
-102 -12 -184 -49 -352 -23 -102 -27 -199 -9 -257 18 -62 91 -136 172 -174
109 -52 195 -67 350 -61 195 8 318 50 424 143 79 69 96 110 96 219 -1 77 -10
130 -67 358 -37 147 -67 271 -67 275 0 4 14 15 30 24 l30 17 0 123 c0 68 -4
256 -10 418 -35 1033 -73 1532 -176 2350 -66 516 -73 593 -84 930 -5 184 -17
549 -25 810 -9 261 -22 625 -30 808 -8 183 -15 359 -15 391 l0 59 65 40 c43
27 66 49 71 66 7 29 -5 189 -46 581 -28 282 -37 364 -99 915 -43 383 -52 534
-49 820 l3 255 32 -96 c17 -53 49 -134 69 -180 95 -211 179 -312 309 -375 78
-37 83 -38 213 -42 78 -3 159 0 195 7 203 39 396 142 511 273 42 48 146 236
146 265 0 6 49 22 113 36 579 131 592 135 622 181 10 15 14 33 10 46 -12 38
-42 45 -190 44 -138 -1 -139 -1 -75 11 36 7 130 18 210 25 80 7 156 17 170 22
73 28 94 95 38 124 -27 14 -50 16 -138 10 -58 -3 -130 -9 -160 -12 -103 -12
-44 5 110 32 258 43 336 81 313 150 -13 38 -61 56 -133 48 -44 -4 -277 -47
-374 -69 -10 -2 -15 0 -10 4 5 5 50 18 99 30 95 23 206 61 255 86 57 29 77 87
41 119 -37 34 -77 30 -326 -34 -203 -52 -255 -62 -335 -63 -123 -3 -230 4
-230 14 0 4 19 18 43 32 67 39 181 156 211 215 39 77 44 139 15 176 -20 26
-27 28 -71 24 -35 -4 -63 -15 -96 -39 -99 -70 -261 -179 -348 -232 -50 -31
-109 -76 -130 -99 -90 -97 -180 -258 -230 -408 -25 -76 -28 -100 -28 -220 -1
-121 1 -140 22 -185 42 -92 113 -146 214 -165 47 -9 108 -5 193 15 30 7 30 7
-8 -19 -92 -65 -198 -74 -295 -26 -132 67 -202 200 -202 386 0 109 28 216 92
347 l53 108 -39 71 c-36 66 -40 80 -62 257 -33 254 -90 602 -120 740 -65 289
-148 432 -315 541 -141 92 -465 236 -729 325 l-125 41 -81 120 c-45 65 -108
155 -140 198 -63 86 -62 83 -43 172 13 56 20 66 96 140 66 65 89 95 118 156
73 160 86 333 32 436 l-27 52 25 50 c35 70 48 177 35 287 -17 136 -65 227
-160 299 -27 21 -65 60 -84 88 -118 171 -301 277 -555 320 -119 20 -359 20
-453 0z m373 -1060 c34 -20 79 -87 67 -99 -3 -4 -41 -1 -82 6 -95 15 -210 7
-296 -20 -63 -20 -65 -20 -84 -2 -16 16 -17 24 -7 54 9 27 18 36 44 41 18 3
64 15 102 26 90 26 206 23 256 -6z m-676 -341 c-3 -16 -12 -73 -20 -128 -22
-137 -31 -164 -61 -171 -14 -4 -27 -4 -30 -2 -2 3 9 47 25 99 16 52 37 124 46
162 11 42 22 67 31 67 9 0 12 -9 9 -27z m280 -353 c108 -29 236 -79 258 -100
18 -16 77 -175 77 -205 0 -12 -15 -13 -82 -9 -46 4 -105 12 -133 20 -27 7 -87
18 -132 23 -66 7 -88 14 -113 35 -18 14 -35 26 -38 26 -4 0 -25 -14 -46 -30
-30 -23 -50 -30 -83 -30 -52 0 -96 -17 -139 -53 -18 -15 -44 -27 -59 -27 -27
0 -28 1 -22 48 3 26 25 102 49 167 l43 120 36 0 c20 0 45 7 55 16 11 10 28 19
39 22 42 12 212 -2 290 -23z m957 -340 c-2 -15 -26 -67 -53 -116 -131 -239
-516 -1016 -650 -1313 l-74 -165 -7 105 c-3 57 -8 209 -10 336 l-3 233 51 52
c52 54 84 117 84 165 0 43 -35 103 -105 180 l-65 71 32 7 c149 32 404 138 527
219 81 54 211 187 242 248 18 36 23 40 29 24 3 -10 4 -31 2 -46z m-967 -464
c39 -1 44 -28 9 -46 -37 -20 -101 -114 -119 -173 -17 -56 -9 -111 26 -180 27
-51 22 -95 -22 -197 -18 -41 -74 -201 -125 -355 -51 -154 -93 -266 -93 -250
-1 204 92 971 144 1194 6 23 8 24 78 16 40 -4 85 -8 102 -9z"/>
</g>
</svg>
