<?xml version="1.0" standalone="no"?>
<!DOCTYPE svg PUBLIC "-//W3C//DTD SVG 20010904//EN"
 "http://www.w3.org/TR/2001/REC-SVG-20010904/DTD/svg10.dtd">
<svg version="1.0" xmlns="http://www.w3.org/2000/svg"
 width="1024.000000pt" height="1536.000000pt" viewBox="0 0 1024.000000 1536.000000"
 preserveAspectRatio="xMidYMid meet">
<metadata>
Created by potrace 1.16, written by Peter Selinger 2001-2019
</metadata>
<g transform="translate(0.000000,1536.000000) scale(0.100000,-0.100000)"
fill="#000000" stroke="none">
<path d="M5460 14505 c-8 -2 -55 -9 -105 -15 -139 -19 -275 -64 -453 -151
-176 -86 -219 -119 -271 -211 -68 -119 -43 -272 30 -180 l22 27 -5 -30 c-3
-16 -20 -84 -37 -149 -42 -158 -44 -236 -8 -338 15 -42 27 -87 27 -100 0 -13
-16 -70 -35 -128 -56 -164 -58 -310 -6 -310 11 0 23 5 26 10 26 41 54 -42 134
-402 27 -116 50 -155 115 -187 42 -21 62 -24 137 -23 l87 1 27 -54 c14 -30 38
-64 53 -77 25 -22 27 -27 21 -83 -3 -33 -20 -95 -38 -138 -37 -89 -43 -167
-17 -196 22 -24 21 -35 -15 -143 -63 -190 -133 -499 -177 -778 -15 -97 -25
289 -12 469 19 264 58 455 142 700 l50 144 -18 33 c-10 19 -21 34 -24 34 -3 0
-25 -16 -50 -36 -66 -52 -183 -105 -373 -168 -219 -73 -313 -121 -397 -206
-71 -71 -112 -146 -256 -470 -38 -85 -125 -270 -195 -410 -114 -232 -129 -256
-160 -270 -42 -19 -68 -63 -89 -153 l-17 -71 -54 49 c-30 27 -182 176 -339
331 -283 279 -362 354 -374 354 -3 0 -6 -30 -6 -67 -1 -77 -12 -139 -37 -198
-27 -64 -153 -268 -172 -280 -5 -3 -43 11 -84 31 -42 20 -84 34 -94 32 -25 -4
-58 -75 -85 -181 -17 -66 -20 -91 -12 -105 24 -39 724 -623 969 -809 166 -126
304 -193 398 -193 141 0 316 123 488 345 41 51 75 92 77 90 6 -5 -18 -481 -28
-580 -15 -131 -47 -318 -86 -495 -40 -182 -43 -246 -13 -284 l21 -26 -21 -168
c-29 -231 -87 -804 -101 -995 -14 -182 -13 -183 69 -236 57 -37 52 -16 71
-291 6 -85 26 -311 45 -503 86 -853 190 -2044 240 -2732 8 -115 19 -262 25
-325 34 -415 38 -666 12 -732 -39 -97 -134 -724 -113 -738 47 -28 -130 -262
-287 -379 -99 -73 -197 -116 -345 -151 -73 -17 -151 -42 -175 -56 -68 -40
-108 -144 -78 -203 30 -58 171 -90 421 -98 297 -9 463 26 682 143 186 99 202
106 213 99 5 -3 19 -24 30 -45 17 -34 28 -42 75 -55 45 -14 67 -14 137 -5 95
13 211 49 283 88 71 39 75 55 62 278 -10 177 -10 181 11 210 31 42 42 185 114
1429 14 249 22 492 21 705 0 321 -3 375 -48 820 -23 220 -29 493 -16 689 6 96
14 271 18 389 3 117 10 208 14 200 4 -7 28 -123 54 -258 25 -135 66 -351 91
-480 209 -1093 230 -1212 304 -1675 58 -368 151 -1165 191 -1639 23 -270 29
-293 81 -303 15 -3 28 -11 28 -17 0 -6 -9 -69 -20 -141 -22 -142 -36 -207 -74
-333 -51 -167 -54 -309 -7 -372 43 -60 102 -84 248 -101 218 -26 469 52 590
183 73 80 74 103 38 521 -22 252 -24 290 -11 310 22 35 37 406 43 1081 7 770
-10 1290 -53 1616 -15 117 -24 172 -68 450 -50 306 -55 347 -65 475 -21 254
-48 1155 -54 1749 l-2 159 78 31 c43 17 90 41 104 54 25 23 26 24 19 125 -16
230 -61 628 -176 1552 -46 376 -54 496 -40 685 21 301 23 330 27 326 2 -2 15
-45 29 -97 45 -168 149 -359 236 -433 100 -86 193 -119 316 -114 148 5 242 66
352 228 117 173 157 343 104 445 -19 36 -19 35 21 35 75 0 133 59 120 121 -4
16 -24 50 -46 76 -21 26 -39 51 -39 54 0 4 39 12 88 19 104 15 145 30 166 63
13 18 14 31 7 50 -14 35 -42 51 -134 76 -139 38 -217 91 -217 148 0 15 22 47
61 89 74 79 109 150 109 220 0 60 -20 84 -68 84 -24 0 -47 -14 -99 -60 -38
-33 -129 -105 -204 -159 -180 -133 -238 -192 -289 -298 -51 -105 -114 -294
-136 -405 -15 -79 -15 -88 0 -141 29 -99 110 -167 200 -167 24 0 84 14 133 30
92 32 164 38 181 18 8 -10 -1 -13 -39 -15 -27 -1 -81 -14 -119 -27 -102 -37
-185 -43 -242 -19 -57 26 -113 83 -134 139 -14 36 -16 66 -11 162 6 136 16
169 102 344 66 135 150 254 248 355 l61 62 -13 138 c-42 470 -86 777 -125 872
-85 209 -248 329 -634 465 -288 102 -396 158 -497 260 -38 39 -88 99 -110 133
-22 35 -43 62 -47 60 -32 -10 -237 -343 -343 -556 -36 -73 -105 -194 -152
-269 -139 -219 -249 -463 -283 -627 -27 -127 -28 -102 -11 334 l9 223 30 32
c55 56 64 119 38 264 -7 40 -12 89 -12 108 1 33 4 36 60 59 32 13 95 47 140
76 44 29 149 94 232 146 196 121 233 172 270 367 19 98 44 171 117 336 112
255 142 390 135 591 -8 195 -57 332 -174 486 -153 199 -375 312 -647 327 -51
3 -99 3 -107 1z"/>
<path d="M2483 12115 c-12 -8 -29 -35 -39 -60 -20 -53 -15 -169 11 -294 19
-93 19 -121 -1 -121 -8 0 -47 7 -87 16 -102 22 -254 100 -378 193 -193 144
-328 208 -385 183 -19 -9 -24 -19 -24 -51 0 -47 18 -64 143 -140 84 -50 235
-175 275 -226 25 -32 19 -55 -6 -26 -53 62 -253 211 -362 270 -144 77 -239 74
-240 -7 0 -34 41 -70 155 -136 170 -100 351 -223 341 -233 -3 -3 -47 22 -98
55 -305 195 -389 231 -396 169 -5 -39 38 -108 96 -153 26 -21 51 -41 56 -46 5
-4 4 -14 -4 -22 -36 -44 32 -111 281 -277 364 -243 741 -479 765 -479 6 0 20
19 32 43 12 23 40 71 62 107 67 110 80 155 80 283 0 127 -12 238 -41 377 -31
152 -136 540 -154 566 -18 27 -50 31 -82 9z"/>
</g>
</svg>
