<?xml version="1.0" standalone="no"?>
<!DOCTYPE svg PUBLIC "-//W3C//DTD SVG 20010904//EN"
 "http://www.w3.org/TR/2001/REC-SVG-20010904/DTD/svg10.dtd">
<svg version="1.0" xmlns="http://www.w3.org/2000/svg"
 width="1024.000000pt" height="1536.000000pt" viewBox="0 0 1024.000000 1536.000000"
 preserveAspectRatio="xMidYMid meet">
<metadata>
Created by potrace 1.16, written by Peter Selinger 2001-2019
</metadata>
<g transform="translate(0.000000,1536.000000) scale(0.100000,-0.100000)"
fill="#000000" stroke="none">
<path d="M5639 14245 c-223 -42 -417 -157 -552 -325 -64 -80 -163 -258 -187
-335 -7 -22 -21 -55 -32 -73 -22 -36 -22 -74 3 -209 l13 -72 -63 -130 c-84
-175 -105 -274 -98 -456 8 -198 46 -347 123 -481 24 -43 41 -81 37 -85 -5 -3
-35 -16 -68 -28 -151 -55 -396 -207 -518 -321 -101 -94 -146 -157 -346 -483
-222 -361 -241 -389 -322 -472 -38 -40 -75 -88 -84 -112 -10 -24 -21 -43 -26
-43 -5 0 -48 30 -96 68 -216 167 -487 350 -582 393 l-41 18 0 -104 c0 -175
-43 -276 -212 -498 -132 -174 -155 -181 -261 -87 -38 33 -74 60 -82 60 -16 0
-45 -115 -52 -210 -5 -60 -3 -68 22 -98 36 -43 634 -501 795 -609 215 -144
406 -222 539 -223 l44 0 -7 -42 c-4 -24 -33 -167 -65 -318 -32 -151 -69 -328
-81 -393 l-23 -118 23 -31 c20 -27 22 -38 16 -87 -15 -120 -46 -422 -56 -541
-31 -359 -40 -482 -50 -655 -11 -184 -11 -192 10 -244 11 -30 30 -65 41 -80
27 -34 136 -112 224 -161 l73 -40 11 -98 c7 -53 14 -108 16 -122 2 -14 16
-108 30 -210 86 -628 276 -1613 345 -1794 5 -14 23 -126 40 -248 17 -123 60
-423 95 -668 36 -245 67 -476 71 -515 3 -40 -1 -138 -10 -230 -22 -217 -96
-807 -102 -817 -10 -15 -141 -116 -205 -158 -41 -26 -104 -53 -179 -76 -203
-62 -200 -61 -275 -139 -74 -77 -145 -198 -145 -247 0 -39 34 -65 120 -92 338
-107 697 -112 990 -16 36 12 129 48 207 81 160 67 203 73 229 33 22 -33 64
-54 108 -54 51 0 354 75 419 104 83 37 87 48 87 272 l0 187 30 52 c22 39 34
78 45 151 36 245 79 707 121 1284 24 330 25 864 1 1155 -10 121 -17 256 -15
299 l3 79 44 -124 c24 -68 75 -198 114 -289 119 -281 147 -357 172 -458 25
-102 83 -443 110 -647 26 -200 154 -1128 181 -1315 13 -96 34 -204 46 -239 13
-41 18 -77 15 -103 -8 -60 -100 -196 -215 -319 -59 -63 -111 -128 -122 -153
-23 -55 -41 -140 -42 -207 -1 -49 1 -55 35 -84 109 -95 523 -133 807 -75 193
39 311 94 390 181 38 41 59 54 126 78 196 70 199 76 189 310 -8 179 -4 201 46
262 15 18 23 49 30 105 20 179 40 545 51 968 16 604 2 945 -72 1721 -26 267
-28 382 -12 590 7 88 32 430 57 760 24 330 49 649 55 710 13 127 15 130 125
205 95 65 108 80 113 143 11 133 -115 1265 -193 1731 -19 115 -35 210 -35 212
0 1 17 8 38 14 89 29 198 96 268 165 117 115 181 236 230 434 59 242 58 575
-1 976 -59 394 -201 892 -311 1088 -84 149 -250 325 -420 445 -169 120 -475
292 -649 364 -80 33 -91 40 -96 66 -7 33 -56 122 -67 122 -4 0 -13 9 -20 21
-12 18 -10 26 12 57 41 60 45 84 44 229 -1 92 5 177 18 253 23 145 24 398 1
513 -70 345 -320 591 -692 682 -137 34 -347 43 -466 20z m735 -2082 c-40 -54
-324 -389 -485 -573 -158 -181 -382 -457 -442 -544 -23 -34 -70 -113 -104
-176 l-63 -115 0 70 c0 122 19 246 58 369 36 116 38 121 109 198 80 87 93 121
73 185 -7 21 -24 50 -38 66 -16 16 -22 31 -16 36 5 5 61 27 124 51 149 55 341
150 460 229 119 79 328 230 336 243 3 5 8 7 11 4 3 -2 -8 -22 -23 -43z m-1164
-410 c17 -23 30 -48 30 -55 0 -7 -25 -32 -55 -55 -80 -62 -90 -87 -74 -186
l13 -80 -35 -66 c-20 -36 -68 -119 -107 -183 -81 -132 -142 -265 -203 -439
-23 -66 -43 -118 -45 -116 -7 7 66 357 111 539 91 363 140 507 228 661 l50 88
29 -33 c15 -18 42 -52 58 -75z m2199 -835 c5 -13 12 -88 15 -168 12 -250 24
-424 31 -441 3 -10 2 -20 -4 -24 -6 -3 -15 4 -20 17 -18 48 -43 237 -50 386
-6 119 -11 156 -23 169 -68 67 -228 -159 -228 -322 0 -73 -11 -92 -90 -145
-73 -49 -145 -131 -187 -213 -18 -34 -33 -66 -33 -72 -1 -22 -50 -64 -86 -74
-21 -6 -71 -25 -111 -43 -94 -43 -93 -57 10 -108 44 -22 88 -40 98 -40 11 0
19 -4 19 -10 0 -15 -135 -12 -173 3 -18 8 -49 17 -69 21 -38 7 -49 20 -25 29
6 3 1 6 -13 6 -14 1 -39 -9 -57 -21 -101 -74 -144 -111 -140 -121 5 -17 75
-55 125 -68 101 -27 16 -38 -138 -18 -100 12 -124 8 -147 -28 -17 -26 -17 -26
21 -59 71 -61 191 -101 491 -163 l140 -29 -90 -1 c-119 -1 -315 31 -401 65
-132 52 -245 145 -224 184 10 19 215 179 380 297 47 34 101 64 120 68 42 8
110 46 168 92 43 35 125 141 192 248 19 31 63 87 98 125 54 60 64 77 72 122
19 116 42 171 109 255 70 87 200 135 220 81z m66 -805 c17 -39 17 -256 1 -333
-39 -184 -148 -330 -302 -406 -76 -38 -80 -39 -184 -38 -59 0 -115 6 -126 12
-16 9 -8 11 41 12 136 1 263 51 358 140 73 68 122 146 156 244 20 59 24 97 29
229 4 149 10 179 27 140z"/>
<path d="M2335 12050 c-11 -4 -31 -19 -44 -34 -22 -24 -24 -31 -18 -103 3 -43
19 -127 37 -188 47 -166 41 -215 -27 -215 -60 0 -271 104 -571 283 -157 92
-189 107 -237 107 -27 0 -44 -8 -67 -30 -27 -27 -30 -36 -25 -71 6 -48 23 -68
91 -110 115 -72 303 -198 319 -214 10 -10 16 -19 14 -21 -8 -9 -136 52 -323
153 -109 59 -203 103 -218 103 -44 0 -86 -49 -86 -101 0 -66 49 -105 299 -234
117 -60 205 -111 197 -113 -9 -2 -98 24 -200 57 -101 34 -195 61 -209 61 -64
0 -107 -54 -91 -114 11 -44 61 -72 247 -136 98 -34 201 -72 230 -86 l52 -24
-105 6 c-58 3 -112 7 -121 10 -29 8 -103 -14 -121 -37 -48 -59 0 -116 124
-148 245 -63 442 -141 698 -277 187 -99 229 -110 297 -76 90 47 200 210 234
352 18 70 17 285 0 365 -20 95 -260 807 -278 827 -17 19 -63 23 -98 8z"/>
</g>
</svg>
