<?xml version="1.0" standalone="no"?>
<!DOCTYPE svg PUBLIC "-//W3C//DTD SVG 20010904//EN"
 "http://www.w3.org/TR/2001/REC-SVG-20010904/DTD/svg10.dtd">
<svg version="1.0" xmlns="http://www.w3.org/2000/svg"
 width="1024.000000pt" height="1536.000000pt" viewBox="0 0 1024.000000 1536.000000"
 preserveAspectRatio="xMidYMid meet">
<metadata>
Created by potrace 1.16, written by Peter Selinger 2001-2019
</metadata>
<g transform="translate(0.000000,1536.000000) scale(0.100000,-0.100000)"
fill="#000000" stroke="none">
<path d="M4930 14759 c-24 -11 -59 -31 -77 -45 -17 -13 -45 -24 -61 -24 -16 0
-32 -3 -36 -7 -9 -10 -78 -33 -98 -33 -31 0 -84 -91 -125 -215 -65 -194 -72
-223 -64 -253 4 -15 4 -40 0 -57 -6 -20 -2 -64 12 -135 18 -88 21 -143 21
-339 0 -263 -3 -241 92 -556 78 -260 88 -285 132 -324 20 -19 38 -48 45 -73
16 -62 82 -198 112 -234 31 -37 32 -49 12 -129 -10 -37 -12 -62 -6 -68 6 -6 5
-23 -4 -46 -63 -172 -183 -620 -244 -911 -7 -35 -8 -22 -5 60 12 261 54 573
109 807 14 58 27 146 30 196 3 51 8 109 11 130 3 20 3 37 -1 37 -3 0 -34 -19
-67 -41 -126 -86 -332 -173 -600 -254 -180 -55 -255 -92 -309 -154 -38 -42
-280 -515 -295 -576 -8 -33 -99 -140 -172 -203 -34 -30 -62 -51 -62 -47 0 3
-9 66 -20 138 -11 73 -29 218 -40 322 -11 105 -25 226 -30 269 -21 169 -14
225 49 373 45 107 75 260 76 378 0 86 -3 106 -24 145 -42 81 -82 121 -148 152
-35 17 -65 33 -67 37 -2 3 -14 83 -26 176 -34 271 -74 421 -120 445 -35 19
-78 12 -96 -15 -19 -30 -16 -147 9 -280 8 -44 18 -132 22 -195 l7 -116 -51
-32 c-93 -61 -204 -179 -245 -264 -65 -131 -62 -233 19 -554 19 -76 35 -150
35 -163 0 -13 -20 -56 -44 -95 -61 -98 -117 -212 -131 -268 -13 -49 -7 -157
14 -235 42 -156 53 -244 61 -518 11 -338 35 -561 77 -715 75 -271 273 -347
577 -220 93 39 187 111 392 301 93 86 197 179 230 207 l62 51 7 -277 c15 -540
-9 -766 -138 -1322 -35 -150 -39 -174 -28 -202 6 -16 6 -41 1 -64 -5 -22 -25
-167 -45 -324 -57 -462 -84 -678 -100 -790 -21 -156 -20 -185 11 -209 14 -11
45 -23 68 -26 24 -4 48 -10 54 -14 8 -5 9 -70 2 -246 -17 -421 -6 -1055 25
-1585 36 -610 43 -1285 20 -2065 -17 -573 -29 -804 -51 -950 -8 -55 -21 -145
-29 -200 -8 -55 -26 -199 -40 -321 -26 -235 -65 -512 -88 -631 -13 -64 -22
-81 -79 -155 -103 -132 -200 -230 -266 -269 -60 -35 -190 -82 -372 -134 -116
-33 -199 -76 -245 -126 -60 -67 -66 -150 -13 -206 53 -56 279 -96 553 -96 330
-1 483 37 685 168 106 69 98 68 140 24 36 -38 38 -39 111 -39 128 1 382 55
413 89 25 27 38 150 41 371 3 219 4 225 160 1170 146 884 174 1152 184 1755 4
242 11 446 15 454 5 7 10 93 12 190 3 165 17 309 63 666 11 83 31 260 46 395
14 135 34 319 45 410 11 91 29 252 42 357 12 106 23 191 25 189 10 -9 287
-1085 502 -1946 167 -667 306 -1260 330 -1410 6 -36 20 -114 31 -175 33 -182
88 -537 115 -750 35 -272 101 -734 127 -880 22 -130 35 -162 70 -167 22 -3 23
-8 32 -138 9 -144 -2 -313 -29 -450 -18 -93 -20 -233 -5 -291 8 -31 28 -60 64
-95 69 -70 170 -103 336 -111 263 -13 464 66 543 212 19 34 22 56 21 145 0 65
-6 126 -16 160 -9 30 -36 125 -61 210 -44 150 -87 358 -87 418 0 17 6 32 15
36 23 8 22 69 -16 1021 -9 233 -38 694 -54 850 -53 524 -93 756 -215 1247 -60
243 -64 268 -140 898 -11 91 -31 257 -45 370 -60 493 -126 1120 -155 1455 -15
187 -23 168 71 187 44 9 92 24 105 33 44 29 46 6 -21 380 -13 77 -25 168 -25
201 l0 62 56 51 c30 28 59 51 64 51 5 0 41 -16 81 -35 85 -40 102 -42 136 -15
17 13 33 17 53 13 29 -5 30 -4 138 213 60 121 140 270 176 333 231 394 329
578 461 866 122 265 155 347 155 388 0 38 -52 225 -105 377 -59 169 -248 563
-576 1200 -4 8 -14 44 -22 80 -17 74 -127 361 -182 474 -43 87 -92 147 -148
183 -22 14 -144 60 -271 103 -453 153 -633 240 -779 379 -72 68 -123 136 -141
188 -15 43 -15 43 35 263 25 108 39 140 82 190 61 70 127 253 127 354 0 36 8
85 20 118 44 126 37 239 -26 401 -41 105 -141 264 -218 345 -50 53 -117 87
-235 118 -29 8 -85 28 -122 45 -64 28 -77 30 -172 27 -65 -1 -110 2 -124 10
-31 17 -72 14 -123 -9z m705 -2106 c-19 -65 -52 -134 -135 -278 -89 -157 -129
-233 -124 -237 2 -2 -9 -40 -25 -84 -112 -305 -185 -511 -232 -649 l-54 -160
-7 90 c-6 93 -7 585 0 758 l3 97 40 0 c33 0 39 3 40 23 4 56 -4 124 -17 149
-8 15 -14 29 -14 32 0 2 39 25 87 51 107 57 202 128 330 250 l98 93 13 -39
c12 -33 11 -47 -3 -96z m-2555 -799 c-226 -123 -366 -181 -387 -161 -5 5 17
117 23 117 2 0 15 -5 29 -12 19 -8 38 -8 82 1 111 25 234 61 271 81 20 10 44
19 52 19 8 1 -23 -20 -70 -45z m3585 -1266 c22 -45 55 -107 73 -137 19 -31 52
-90 74 -131 22 -41 43 -79 47 -85 4 -5 13 -30 20 -55 7 -25 27 -64 44 -87 22
-32 31 -55 32 -90 1 -27 5 -56 10 -66 4 -11 1 -33 -8 -55 -9 -20 -46 -109 -82
-197 -91 -219 -149 -339 -197 -409 -49 -71 -118 -212 -118 -240 0 -17 -5 -16
-35 14 -99 96 -195 393 -195 605 0 162 18 226 264 952 12 35 23 63 26 63 4 0
24 -37 45 -82z"/>
</g>
</svg>
