<?xml version="1.0" standalone="no"?>
<!DOCTYPE svg PUBLIC "-//W3C//DTD SVG 20010904//EN"
 "http://www.w3.org/TR/2001/REC-SVG-20010904/DTD/svg10.dtd">
<svg version="1.0" xmlns="http://www.w3.org/2000/svg"
 width="1024.000000pt" height="1536.000000pt" viewBox="0 0 1024.000000 1536.000000"
 preserveAspectRatio="xMidYMid meet">
<metadata>
Created by potrace 1.16, written by Peter Selinger 2001-2019
</metadata>
<g transform="translate(0.000000,1536.000000) scale(0.100000,-0.100000)"
fill="#000000" stroke="none">
<path d="M6083 14935 c-124 -38 -222 -130 -572 -534 -51 -59 -55 -62 -88 -56
-30 5 -38 2 -66 -28 -18 -18 -50 -66 -72 -106 -40 -74 -171 -293 -350 -586
-362 -595 -585 -1073 -800 -1720 -109 -326 -161 -526 -185 -713 -5 -40 -26
-119 -45 -175 -108 -311 -238 -772 -331 -1172 -25 -109 -104 -362 -250 -795
-338 -1008 -417 -1256 -410 -1294 7 -35 45 -75 118 -125 27 -18 50 -42 52 -54
3 -12 7 -157 10 -322 8 -417 46 -962 102 -1425 54 -457 208 -1569 249 -1805
18 -107 52 -539 65 -845 18 -428 10 -1289 -16 -1712 l-7 -107 33 -20 c18 -11
51 -23 72 -26 45 -8 46 -15 17 -106 -20 -60 -29 -72 -168 -207 -252 -246 -338
-306 -539 -373 -67 -22 -143 -55 -169 -72 -63 -43 -113 -117 -113 -169 0 -35
3 -40 36 -54 61 -25 237 -44 469 -50 195 -6 231 -4 315 14 89 18 204 58 328
113 l52 23 64 -33 64 -32 172 3 c149 3 173 5 184 20 16 21 31 210 30 373 0
110 -3 130 -36 235 -58 181 -78 261 -78 306 0 41 1 42 45 53 24 6 49 19 54 29
52 98 73 2073 25 2352 -3 19 -20 96 -37 170 -26 116 -31 156 -31 280 -1 104
-6 169 -20 230 -19 83 -19 98 -1 770 11 377 19 832 19 1012 1 180 4 324 7 320
4 -4 19 -47 34 -97 73 -243 322 -877 543 -1385 28 -63 106 -266 175 -450 156
-418 150 -405 235 -531 77 -113 407 -755 562 -1094 51 -110 190 -441 310 -735
119 -295 227 -554 239 -578 23 -45 49 -58 104 -49 54 8 82 -14 100 -80 43
-154 45 -325 7 -475 -10 -43 -26 -117 -34 -165 -21 -121 -66 -208 -162 -313
-89 -98 -124 -164 -124 -233 0 -88 47 -110 265 -122 61 -3 169 -1 240 5 116 9
137 13 195 42 88 45 163 120 178 178 10 39 32 270 32 336 0 15 6 24 15 24 33
0 96 42 130 86 52 69 60 111 39 198 -45 191 -75 261 -181 439 -35 59 -80 142
-100 184 -34 73 -35 78 -17 88 31 17 74 63 74 78 0 42 -248 751 -420 1202 -51
132 -125 326 -164 430 -73 191 -107 267 -131 295 -7 8 -43 69 -80 134 -36 66
-99 167 -139 225 -214 312 -208 301 -201 331 6 29 -39 132 -111 250 -42 69
-69 169 -89 335 -65 526 -108 818 -190 1270 -115 637 -165 938 -165 991 0 15
14 27 50 44 33 15 53 32 56 46 3 12 -8 88 -25 168 -28 133 -102 578 -132 799
-11 82 -11 91 12 156 l23 70 -18 133 -19 134 21 47 c20 45 315 485 411 612 25
33 69 86 99 119 29 32 93 118 141 190 49 72 120 169 158 216 155 188 203 279
413 785 236 567 330 825 366 1000 9 44 27 106 41 138 24 58 124 411 222 782
27 105 77 294 111 420 73 276 79 314 55 351 -16 25 -16 34 -5 93 7 37 10 89 6
116 -10 74 -9 92 4 180 15 98 7 310 -14 380 -28 91 -106 168 -185 180 -46 8
-85 26 -138 66 -34 25 -79 41 -243 83 l-201 52 66 23 c113 40 175 100 175 169
0 49 -14 52 -97 20 -54 -21 -100 -31 -162 -35 -79 -5 -98 -2 -235 36 -161 44
-244 51 -323 26z m227 -521 c69 -26 167 -64 219 -85 122 -51 191 -68 289 -73
104 -5 161 -30 199 -87 24 -36 29 -55 31 -123 3 -68 0 -92 -23 -151 -31 -84
-67 -148 -110 -196 -25 -28 -34 -50 -40 -90 -11 -86 -39 -198 -110 -439 -80
-271 -217 -639 -241 -647 -5 -1 -31 32 -59 74 -165 255 -310 400 -483 485 -59
29 -76 32 -144 31 -61 -1 -78 2 -78 13 0 27 -60 15 -115 -21 -52 -35 -228
-210 -261 -260 -23 -35 -12 -59 23 -50 21 5 24 4 16 -7 -5 -7 -30 -38 -55 -70
-25 -31 -70 -104 -99 -163 -65 -129 -95 -165 -138 -165 -25 0 -34 -6 -41 -26
-13 -34 -13 -90 1 -115 9 -17 2 -33 -40 -97 -65 -99 -93 -178 -93 -263 -1 -88
26 -144 109 -225 35 -34 63 -65 63 -70 0 -11 -112 -124 -123 -124 -4 0 -19 10
-32 23 -21 19 -27 40 -44 168 -10 81 -27 163 -37 184 -17 36 -17 38 5 88 65
150 149 406 221 672 61 224 84 276 194 435 29 41 106 165 171 275 260 438 326
543 388 613 41 46 47 58 47 98 0 25 -7 58 -15 74 -15 29 -14 31 31 102 26 40
67 99 91 130 43 56 125 128 146 128 6 0 67 -21 137 -46z m-273 -3026 l-56
-103 -53 -1 c-29 -1 -65 -7 -80 -13 -15 -6 -37 -7 -48 -3 l-21 8 21 19 c27 25
272 193 283 194 5 1 -16 -45 -46 -101z m-973 -123 c-4 -37 -12 -68 -18 -70 -6
-2 -29 -9 -52 -14 -39 -11 -43 -15 -99 -123 -85 -166 -127 -237 -239 -401 -56
-82 -119 -177 -141 -212 -21 -35 -41 -63 -42 -61 -2 2 17 57 42 122 150 388
168 428 226 484 23 22 45 40 48 40 10 0 97 109 150 188 37 55 117 129 128 118
2 -2 1 -34 -3 -71z m636 -63 c0 -17 -217 -201 -350 -297 -62 -44 -266 -273
-384 -429 l-38 -50 7 40 c28 158 94 371 113 367 6 -2 29 -5 51 -9 40 -6 41 -5
56 29 8 20 15 61 15 90 0 30 3 69 6 86 8 37 28 48 179 90 55 16 134 43 175 60
72 29 170 42 170 23z m-1720 -2817 c0 -46 -10 -54 -39 -36 -11 7 -10 15 8 45
13 20 25 36 27 36 2 0 4 -20 4 -45z"/>
</g>
</svg>
