<?xml version="1.0" standalone="no"?>
<!DOCTYPE svg PUBLIC "-//W3C//DTD SVG 20010904//EN"
 "http://www.w3.org/TR/2001/REC-SVG-20010904/DTD/svg10.dtd">
<svg version="1.0" xmlns="http://www.w3.org/2000/svg"
 width="1024.000000pt" height="1536.000000pt" viewBox="0 0 1024.000000 1536.000000"
 preserveAspectRatio="xMidYMid meet">
<metadata>
Created by potrace 1.16, written by Peter Selinger 2001-2019
</metadata>
<g transform="translate(0.000000,1536.000000) scale(0.100000,-0.100000)"
fill="#000000" stroke="none">
<path d="M5497 14083 c-3 -5 -14 -78 -26 -163 -27 -194 -34 -226 -48 -223 -7
2 -129 8 -273 15 -275 12 -503 4 -779 -28 -858 -99 -1601 -476 -2334 -1183
-93 -89 -112 -112 -90 -107 171 39 266 49 468 49 165 0 240 -4 350 -21 214
-33 437 -101 640 -197 l79 -37 123 11 c340 30 869 -18 1258 -115 132 -33 324
-94 330 -105 6 -8 -17 -172 -71 -509 -14 -91 -30 -194 -35 -230 -5 -35 -21
-133 -34 -217 -26 -161 -83 -535 -135 -893 -68 -463 -77 -512 -93 -522 -9 -5
-18 -23 -21 -41 -3 -17 -10 -69 -17 -114 l-11 -83 -33 0 c-42 0 -69 -30 -68
-76 1 -25 -4 -37 -15 -41 -29 -10 -52 -35 -52 -57 0 -12 -11 -52 -24 -91 -23
-67 -46 -172 -46 -208 0 -9 11 -19 25 -23 35 -9 31 -22 -9 -29 -49 -10 -73 1
-103 45 -37 57 -42 147 -14 219 33 82 10 151 -49 151 -39 0 -74 -32 -101 -92
-19 -44 -23 -70 -23 -153 0 -119 18 -170 87 -239 61 -61 124 -80 250 -78 l99
2 55 -60 c30 -32 64 -62 74 -65 25 -8 24 -25 -1 -25 -18 0 -20 -7 -20 -60 0
-68 16 -150 33 -174 7 -9 53 -28 102 -40 155 -41 385 -131 385 -151 0 -7 -20
-152 -45 -321 -25 -170 -45 -317 -45 -326 0 -10 7 -18 15 -18 18 0 19 -26 5
-120 -9 -62 -34 -364 -60 -712 -14 -184 -10 -200 60 -236 33 -17 56 -22 88
-19 23 3 44 1 47 -2 2 -4 22 -92 45 -197 l40 -189 -49 -145 c-217 -644 -328
-1034 -430 -1515 -154 -725 -256 -1040 -519 -1600 -73 -156 -108 -223 -201
-388 -19 -32 -32 -59 -30 -61 13 -11 69 -35 97 -41 17 -3 32 -10 32 -15 0 -8
-88 -41 -165 -61 -28 -7 -71 -29 -97 -50 -54 -42 -152 -91 -219 -109 -63 -18
-185 -14 -324 10 -211 35 -310 23 -343 -43 -11 -22 -10 -31 2 -56 38 -73 461
-301 683 -367 77 -23 111 -27 269 -31 l182 -5 36 -43 c44 -53 92 -70 235 -85
145 -14 164 -13 201 13 28 19 38 38 72 142 35 104 41 136 45 236 3 69 1 137
-6 169 -6 29 -10 55 -7 57 2 2 42 -4 88 -13 46 -10 91 -15 98 -12 24 9 274
677 471 1258 119 351 218 704 284 1020 31 148 73 319 84 338 5 9 14 -2 26 -35
10 -26 33 -79 52 -116 23 -47 37 -93 45 -150 14 -106 38 -154 86 -174 20 -8
50 -13 67 -10 30 5 34 0 132 -136 349 -491 617 -933 870 -1440 63 -125 117
-227 121 -227 4 1 36 7 72 15 36 8 68 14 71 15 7 0 -137 -365 -165 -418 -17
-33 -16 -33 -199 -82 -126 -33 -199 -78 -233 -142 -27 -53 -13 -93 41 -112 11
-4 142 -7 290 -7 342 1 350 3 450 110 178 189 270 281 288 287 12 4 30 -2 48
-15 15 -12 34 -21 42 -21 19 0 214 134 260 178 21 20 37 46 37 58 0 24 -48
140 -99 243 -37 73 -105 149 -173 195 l-47 32 51 22 c41 17 50 25 45 41 -5 22
-194 350 -395 686 -173 290 -336 542 -469 726 -18 26 -33 49 -33 53 0 3 21 6
48 6 26 0 124 7 217 15 94 9 300 27 459 40 158 14 296 30 306 35 10 5 30 24
45 42 32 37 32 14 -11 483 -14 149 -29 315 -34 370 -55 618 -56 623 -97 661
-33 30 -57 31 -357 3 -125 -12 -232 -17 -236 -12 -5 4 -29 67 -55 138 -26 72
-62 167 -81 213 -31 74 -34 92 -34 180 0 86 -11 217 -25 308 l-5 32 -128 5
c-130 5 -226 24 -272 55 -39 26 -6 26 107 2 170 -36 352 -58 370 -45 13 9 26
76 54 276 21 145 60 422 87 614 63 440 76 570 69 659 -15 171 -112 563 -231
934 -41 128 -68 230 -76 292 -26 207 -70 386 -113 463 -26 46 -49 61 -192 122
-60 26 -184 86 -273 133 -152 78 -170 91 -247 170 l-83 84 -28 -17 c-16 -9
-41 -37 -56 -63 -15 -26 -62 -99 -103 -162 -101 -154 -230 -411 -299 -595 -31
-82 -63 -163 -72 -180 l-15 -30 7 30 c3 17 18 130 33 252 24 200 29 225 51
248 l24 25 -27 28 c-30 32 -47 72 -47 112 0 22 9 36 38 57 20 15 58 46 83 68
26 23 84 67 130 98 46 31 109 74 139 95 l55 38 1 125 1 124 61 180 c73 214 90
310 74 421 -23 166 -122 295 -285 373 -109 52 -172 65 -292 64 -157 -3 -320
-55 -461 -149 -95 -63 -113 -117 -58 -175 l24 -25 -24 -70 c-13 -38 -30 -95
-36 -126 -12 -54 -12 -60 12 -107 l25 -51 -21 -37 c-32 -58 -76 -171 -76 -196
0 -32 10 -42 63 -65 39 -17 47 -25 47 -47 0 -33 18 -111 35 -150 7 -16 15 -56
19 -89 8 -77 18 -93 67 -108 32 -9 58 -9 118 0 42 7 85 13 96 14 16 2 22 -6
33 -42 21 -73 31 -113 37 -154 4 -26 12 -40 26 -43 28 -8 24 -33 -6 -33 -36 0
-57 -75 -60 -215 -2 -102 -6 -124 -57 -295 -31 -102 -59 -200 -63 -218 -4 -18
-8 -32 -10 -30 -6 5 30 273 65 493 22 139 35 285 26 285 -3 0 -34 -19 -69 -42
-34 -22 -84 -55 -112 -73 -196 -125 -247 -161 -256 -177 -35 -66 -79 -405
-100 -763 -6 -115 -14 -213 -18 -217 -4 -4 -29 4 -55 17 -27 14 -55 25 -62 25
-19 0 -31 -28 -37 -90 -3 -30 -15 -84 -27 -120 -21 -62 -69 -181 -75 -189 -2
-1 -14 6 -26 18 -13 12 -29 21 -36 21 -7 0 -13 5 -13 11 0 5 5 7 10 4 6 -3 10
-1 10 4 0 6 6 11 14 11 26 0 75 91 108 200 5 19 13 40 16 45 26 41 40 359 21
442 -19 80 -27 94 -69 111 -22 9 -40 22 -40 28 0 6 7 55 15 109 13 89 13 101
-1 116 -14 16 -10 56 46 451 143 1007 283 1895 301 1913 15 15 371 19 534 6
441 -36 748 -105 1195 -266 69 -25 80 -27 135 -16 337 61 818 10 1115 -118 50
-22 118 -58 152 -81 34 -22 65 -39 70 -38 4 2 -25 68 -65 148 -117 232 -272
475 -460 723 -491 647 -1149 1062 -2032 1281 -108 27 -389 86 -408 86 -2 0 8
86 20 192 13 105 22 197 19 205 -6 14 -71 19 -79 6z m1534 -5720 c17 -63 42
-130 55 -149 22 -32 23 -37 10 -72 -10 -24 -16 -101 -20 -227 -4 -157 -39
-511 -50 -523 -2 -2 -9 43 -15 100 -7 57 -21 175 -31 263 -40 334 -44 424 -26
626 9 102 16 194 17 205 0 10 7 -10 14 -45 8 -35 28 -115 46 -178z m-276
-2359 c-19 -82 -42 -177 -51 -211 l-16 -63 -59 0 -58 0 -7 36 c-5 28 0 50 22
99 16 35 67 147 114 249 l85 185 3 -74 c2 -56 -5 -106 -33 -221z m574 19 c43
-162 53 -198 61 -214 6 -10 7 -20 3 -22 -14 -9 -492 -41 -499 -35 -6 6 24 248
32 257 1 2 23 -5 47 -14 43 -16 48 -16 121 4 42 12 93 21 114 21 20 0 51 9 67
19 41 27 43 26 54 -16z"/>
</g>
</svg>
