<?xml version="1.0" standalone="no"?>
<!DOCTYPE svg PUBLIC "-//W3C//DTD SVG 20010904//EN"
 "http://www.w3.org/TR/2001/REC-SVG-20010904/DTD/svg10.dtd">
<svg version="1.0" xmlns="http://www.w3.org/2000/svg"
 width="1024.000000pt" height="1536.000000pt" viewBox="0 0 1024.000000 1536.000000"
 preserveAspectRatio="xMidYMid meet">
<metadata>
Created by potrace 1.16, written by Peter Selinger 2001-2019
</metadata>
<g transform="translate(0.000000,1536.000000) scale(0.100000,-0.100000)"
fill="#000000" stroke="none">
<path d="M5312 14750 c-218 -30 -388 -109 -530 -244 -72 -67 -102 -147 -67
-176 13 -11 13 -16 -1 -42 -19 -37 -15 -88 9 -102 15 -9 21 -7 32 8 8 11 17
18 19 15 2 -2 -3 -40 -11 -84 -17 -90 -23 -389 -9 -420 5 -11 10 -83 12 -160
3 -153 24 -284 73 -450 16 -55 37 -136 46 -180 26 -121 65 -154 228 -189 26
-6 27 -9 27 -65 0 -62 -8 -78 -79 -154 -52 -56 -127 -104 -291 -188 -128 -66
-318 -139 -360 -139 -9 0 -24 16 -35 36 -11 20 -39 54 -63 75 -123 108 -222
144 -278 100 -15 -11 -34 -21 -44 -21 -27 0 -68 -37 -93 -83 -18 -34 -22 -58
-21 -127 0 -90 28 -187 93 -324 49 -104 81 -198 94 -281 15 -87 9 -140 -17
-181 l-18 -26 -15 24 c-26 38 -44 48 -90 48 -38 0 -45 3 -54 28 -7 19 -7 38 0
62 15 50 31 201 31 297 0 197 -99 476 -196 550 -38 28 -84 34 -108 13 -20 -16
-21 -81 -2 -154 8 -30 17 -76 21 -103 l6 -48 -20 43 c-52 109 -243 367 -331
446 -23 21 -67 50 -98 64 -46 21 -58 23 -75 13 -15 -10 -22 -9 -36 3 -34 31
-131 10 -131 -28 0 -8 -10 -11 -30 -8 -24 3 -36 -2 -60 -28 -53 -57 -52 -135
4 -218 31 -46 34 -57 38 -151 5 -98 6 -103 62 -213 62 -125 221 -360 388 -573
l110 -140 -8 -55 c-17 -128 1 -496 36 -753 43 -311 110 -486 222 -581 66 -57
104 -71 188 -71 63 0 85 5 134 29 68 33 171 132 212 203 21 35 29 42 36 30 18
-33 8 -447 -17 -702 -3 -27 -16 -165 -30 -305 -59 -585 -97 -931 -146 -1314
-23 -178 -28 -245 -20 -262 6 -15 29 -29 61 -41 49 -17 51 -20 46 -48 -10 -55
-97 -907 -150 -1470 -49 -515 -56 -615 -56 -861 0 -240 0 -243 68 -429 20 -55
176 -379 348 -720 373 -741 478 -972 626 -1374 81 -223 113 -266 189 -259 21
2 39 2 39 0 0 -7 -44 -132 -80 -229 -77 -205 -138 -294 -287 -423 -48 -42
-109 -102 -136 -135 -100 -124 -154 -288 -110 -332 22 -22 118 -43 194 -43 94
0 268 29 394 66 27 8 -84 -105 -158 -161 -32 -24 -94 -66 -139 -92 -130 -77
-217 -198 -235 -328 -5 -38 -2 -45 30 -78 30 -29 51 -39 129 -58 128 -31 367
-32 508 -2 205 44 413 156 545 292 45 47 51 49 58 21 3 -12 14 -20 26 -20 32
0 268 128 292 158 21 26 21 33 15 252 -3 124 -11 250 -16 280 -8 47 -7 57 9
75 24 26 37 73 55 210 36 266 91 949 116 1440 14 265 13 1263 -2 1603 -9 221
-9 327 1 485 13 220 46 653 61 812 27 288 79 914 91 1095 6 96 14 178 17 182
4 3 43 16 87 28 177 49 182 60 145 310 -11 74 -34 241 -51 370 -16 129 -55
387 -85 573 l-54 338 27 23 27 24 -32 223 c-18 123 -36 259 -41 303 -12 101 3
317 24 354 18 32 58 143 212 592 268 783 261 758 299 980 39 228 44 348 19
445 -37 144 -132 270 -255 337 -36 20 -153 71 -260 113 -107 42 -227 90 -266
106 -86 37 -222 138 -287 213 -27 31 -56 56 -66 56 -14 0 -22 12 -30 44 -36
143 16 316 159 525 57 83 123 228 161 351 28 94 32 118 32 230 1 117 -1 130
-32 212 -47 126 -135 253 -271 389 -104 106 -124 121 -210 163 -52 25 -133 54
-180 65 -100 23 -269 33 -358 21z m687 -2082 c-7 -13 -71 -108 -144 -213 -214
-307 -266 -398 -409 -719 -37 -81 -79 -171 -93 -200 l-26 -51 -8 30 c-19 66
-21 258 -5 360 17 110 54 245 68 245 18 0 88 -51 109 -79 12 -17 28 -27 35
-24 29 11 13 48 -44 103 -32 30 -73 78 -92 106 -43 66 -79 88 -133 81 -22 -3
-48 -14 -58 -24 -16 -16 -90 -129 -151 -230 -32 -54 -11 -60 40 -11 29 27 42
36 38 23 -47 -131 -94 -275 -127 -390 l-40 -140 6 116 c9 210 41 361 134 629
49 143 50 145 61 112 15 -40 60 -66 113 -64 39 2 213 64 352 125 160 71 310
161 359 216 25 27 30 27 15 -1z m-2081 -1408 c7 -87 -100 -249 -224 -341 -29
-21 -60 -39 -68 -39 -31 0 -58 82 -49 146 5 42 6 43 27 29 48 -34 139 -5 195
61 40 49 91 146 91 174 0 41 25 14 28 -30z m936 -47 c12 -79 7 -112 -35 -194
-47 -95 -105 -182 -148 -223 -33 -32 -72 -31 -91 3 -14 28 1 62 53 119 24 26
61 70 82 97 39 51 115 198 115 222 0 29 18 10 24 -24z m446 -4913 c36 -427 39
-478 55 -840 8 -195 22 -456 30 -580 8 -124 21 -351 30 -505 8 -154 17 -310
19 -347 3 -38 3 -68 1 -68 -2 0 -13 30 -26 68 -46 141 -196 495 -383 907 -45
100 -45 100 -31 145 8 25 26 131 40 235 27 207 101 649 141 840 34 166 85 397
92 415 8 21 8 14 32 -270z"/>
</g>
</svg>
