<?xml version="1.0" standalone="no"?>
<!DOCTYPE svg PUBLIC "-//W3C//DTD SVG 20010904//EN"
 "http://www.w3.org/TR/2001/REC-SVG-20010904/DTD/svg10.dtd">
<svg version="1.0" xmlns="http://www.w3.org/2000/svg"
 width="1024.000000pt" height="1536.000000pt" viewBox="0 0 1024.000000 1536.000000"
 preserveAspectRatio="xMidYMid meet">
<metadata>
Created by potrace 1.16, written by Peter Selinger 2001-2019
</metadata>
<g transform="translate(0.000000,1536.000000) scale(0.100000,-0.100000)"
fill="#000000" stroke="none">
<path d="M4925 15206 c-296 -78 -572 -247 -688 -423 -90 -139 -101 -213 -67
-475 18 -146 20 -188 12 -259 -6 -46 -9 -85 -8 -87 2 -1 35 4 74 13 65 15 76
15 134 0 71 -18 148 -59 148 -79 0 -10 -24 -16 -87 -20 -99 -8 -130 -1 -210
44 -30 17 -57 29 -59 27 -3 -2 5 -25 16 -51 61 -143 71 -280 41 -566 -34 -329
-26 -296 -88 -345 -73 -57 -220 -140 -373 -210 -305 -139 -409 -219 -499 -379
-58 -103 -139 -312 -194 -506 l-44 -155 316 -58 c174 -32 321 -64 328 -70 18
-18 386 -761 423 -855 38 -96 94 -165 167 -204 52 -29 132 -43 326 -58 145
-11 167 -20 387 -166 91 -60 193 -120 227 -133 85 -32 136 -81 157 -151 32
-108 48 -284 44 -490 -3 -187 -5 -198 -32 -265 -43 -105 -41 -104 -102 -28
-66 84 -73 104 -44 133 102 102 134 474 55 647 -18 40 -35 59 -77 86 -256 166
-340 218 -385 241 -72 36 -168 48 -290 36 -54 -5 -132 -10 -173 -10 l-74 0
-51 53 c-27 30 -74 98 -104 153 -30 54 -63 115 -74 134 -11 19 -58 107 -105
195 -159 300 -276 511 -319 576 -27 41 -35 44 -290 98 -151 33 -290 66 -313
75 -8 3 -238 48 -510 101 -272 52 -535 104 -585 115 -110 24 -102 24 -114 2
-18 -33 63 -232 214 -531 102 -201 192 -354 320 -542 53 -78 95 -142 93 -143
-2 -1 -29 -10 -61 -21 -117 -38 -162 -121 -115 -214 23 -47 23 -48 5 -77 -27
-44 -21 -221 10 -284 13 -25 29 -91 38 -150 31 -212 78 -345 172 -487 82 -125
194 -213 317 -248 91 -27 243 -17 366 23 52 17 95 30 95 29 1 -1 -22 -168 -51
-372 -29 -203 -50 -383 -47 -400 7 -34 30 -65 50 -65 17 0 17 16 -12 -373 -45
-604 -58 -1014 -35 -1099 15 -52 50 -90 109 -118 33 -15 53 -31 56 -44 19 -87
126 -907 174 -1326 11 -96 27 -233 36 -305 82 -684 170 -1846 195 -2575 7
-198 6 -355 -1 -515 -6 -126 -13 -308 -14 -404 l-3 -174 -77 -114 c-169 -250
-247 -314 -479 -393 -179 -60 -257 -98 -313 -152 -84 -82 -134 -225 -101 -288
37 -69 344 -120 727 -120 392 0 580 50 725 192 38 38 76 68 84 68 9 0 43 -11
77 -25 35 -13 93 -27 131 -31 152 -13 434 67 492 141 26 33 29 55 52 475 27
483 37 621 63 930 19 229 22 331 21 750 0 329 -6 572 -17 757 -24 388 -21 745
8 1048 2 28 9 106 15 175 13 156 80 803 83 807 2 1 9 -35 16 -80 15 -98 72
-322 176 -697 97 -347 151 -566 221 -884 30 -138 93 -408 140 -601 395 -1640
384 -1591 409 -1832 20 -196 39 -294 66 -343 23 -40 23 -40 5 -97 -37 -118
-138 -286 -251 -418 -102 -119 -141 -178 -170 -261 -28 -79 -32 -152 -10 -194
38 -74 305 -145 590 -156 246 -11 487 36 634 123 77 46 161 135 187 197 12 30
28 49 45 57 38 15 78 60 90 100 6 19 13 159 16 312 5 260 7 277 24 277 10 0
23 9 29 20 13 25 14 821 0 1135 -39 920 -116 1474 -316 2295 -99 405 -96 383
-84 585 5 99 17 347 25 550 28 692 42 946 54 956 3 4 38 17 76 29 130 42 223
98 250 150 17 33 11 134 -30 528 -14 131 -34 325 -45 432 -24 229 -58 500 -69
552 -8 33 -6 38 22 58 28 22 29 25 24 79 -4 31 -29 156 -57 278 -27 122 -50
226 -50 232 0 6 8 11 18 11 45 0 184 44 267 84 349 171 446 397 446 1041 0
453 -28 740 -131 1380 -21 132 -48 308 -60 390 -57 401 -112 533 -273 652 -36
26 -303 165 -632 330 -569 283 -570 284 -583 322 -16 48 -55 85 -177 169 -62
42 -99 74 -97 83 2 7 25 97 52 199 26 102 51 205 54 230 8 62 -7 147 -42 226
-29 66 -29 67 -15 128 32 135 35 167 23 235 -19 107 -59 172 -189 301 -276
274 -474 370 -761 369 -98 0 -144 -5 -215 -23z m195 -1176 c66 -15 143 -52
128 -62 -7 -4 -82 -31 -166 -59 -152 -51 -154 -51 -215 -40 -104 20 -102 19
-76 48 33 34 80 61 163 94 78 31 99 33 166 19z m-147 -673 c31 -21 76 -60 101
-87 42 -44 116 -151 116 -165 0 -9 -200 27 -500 91 -16 4 -84 -16 -190 -54
-190 -68 -237 -81 -224 -61 19 33 116 140 202 223 l94 91 173 0 173 0 55 -38z
m993 -58 c-20 -100 -395 -908 -530 -1141 -30 -53 -115 -210 -189 -349 -74
-140 -160 -301 -192 -359 l-57 -105 8 130 c4 72 8 245 10 386 l2 256 40 79
c22 44 63 120 91 169 49 86 63 123 41 110 -5 -3 -10 -2 -10 4 0 5 35 28 78 51
111 57 229 156 331 276 78 91 355 476 368 511 10 25 16 13 9 -18z m-1284 -795
c22 -6 55 -110 64 -198 9 -88 -6 -160 -92 -436 -41 -129 -88 -291 -106 -360
l-33 -125 -5 75 c-8 107 -6 375 4 744 l9 318 71 -6 c39 -4 79 -9 88 -12z
m-722 -2487 c0 -43 5 -53 43 -95 24 -26 69 -81 99 -122 69 -93 145 -167 266
-258 179 -134 295 -174 512 -176 74 0 176 2 225 6 53 4 79 3 63 -1 -15 -5 -88
-14 -162 -20 -154 -13 -281 -3 -380 31 -213 71 -421 219 -513 365 -27 42 -76
107 -110 145 -45 50 -64 79 -68 106 -3 20 -8 49 -10 64 -4 26 -3 27 15 16 15
-10 20 -24 20 -61z m-600 -195 l115 -17 -85 -12 c-183 -25 -261 -67 -340 -183
-59 -87 -148 -123 -251 -101 -56 12 -145 48 -137 56 2 2 33 0 69 -6 73 -12
159 0 221 32 47 24 153 123 208 194 48 63 37 61 200 37z"/>
<path d="M5241 12431 c66 -113 131 -211 141 -211 5 0 -7 24 -27 53 l-38 52 35
-32 c53 -51 53 -39 -1 30 -58 73 -132 146 -110 108z"/>
<path d="M4670 12440 c-24 -24 -70 -116 -70 -140 0 -8 23 23 50 69 52 85 59
110 20 71z"/>
</g>
</svg>
