<?xml version="1.0" standalone="no"?>
<!DOCTYPE svg PUBLIC "-//W3C//DTD SVG 20010904//EN"
 "http://www.w3.org/TR/2001/REC-SVG-20010904/DTD/svg10.dtd">
<svg version="1.0" xmlns="http://www.w3.org/2000/svg"
 width="1024.000000pt" height="1536.000000pt" viewBox="0 0 1024.000000 1536.000000"
 preserveAspectRatio="xMidYMid meet">
<metadata>
Created by potrace 1.16, written by Peter Selinger 2001-2019
</metadata>
<g transform="translate(0.000000,1536.000000) scale(0.100000,-0.100000)"
fill="#000000" stroke="none">
<path d="M4710 14530 c-280 -70 -556 -280 -661 -505 l-32 -67 7 -196 c9 -254
30 -417 58 -456 14 -20 18 -31 10 -34 -7 -2 -12 -19 -12 -37 0 -19 -4 -37 -10
-40 -18 -11 -11 -24 17 -31 43 -11 91 -47 97 -74 3 -14 9 -86 12 -160 4 -74
11 -145 15 -158 5 -13 27 -30 54 -42 45 -19 45 -20 45 -69 0 -47 17 -81 41
-81 5 0 14 -11 19 -25 5 -14 32 -39 60 -56 29 -18 52 -40 55 -52 2 -12 11 -60
19 -106 9 -46 24 -99 36 -118 11 -19 20 -36 20 -37 0 -2 -44 -40 -98 -84 -165
-135 -248 -234 -327 -391 -44 -88 -266 -751 -291 -868 l-17 -81 154 -162 c85
-89 162 -166 172 -172 14 -7 17 -16 12 -35 -4 -16 0 -34 10 -49 15 -23 20 -24
80 -18 55 6 68 4 100 -16 45 -28 40 -34 -18 -20 -62 16 -231 -2 -286 -29 -26
-13 -51 -55 -60 -101 l-9 -45 -1 57 c-1 50 3 61 30 92 17 19 48 43 69 52 44
20 56 51 32 86 -9 13 -61 70 -117 128 -55 58 -132 139 -171 180 -769 820 -874
929 -922 957 -39 23 -49 25 -115 19 -91 -9 -356 -45 -702 -96 -148 -22 -283
-41 -300 -42 -20 -2 -31 -9 -33 -22 -3 -13 120 -142 447 -470 439 -439 451
-453 428 -465 -30 -16 -77 -87 -79 -121 -4 -71 14 -113 60 -142 20 -13 40 -26
46 -30 6 -4 3 -15 -9 -28 -15 -17 -20 -37 -20 -84 0 -54 4 -66 32 -101 17 -22
38 -59 46 -82 8 -23 38 -68 66 -100 28 -32 70 -83 94 -113 51 -66 95 -90 163
-90 l51 0 6 -118 c7 -145 24 -245 48 -293 21 -41 70 -86 103 -95 12 -3 136 3
275 13 l253 19 -6 -66 c-21 -210 -56 -588 -56 -607 0 -17 6 -23 23 -23 13 0
29 6 36 13 10 10 11 -5 7 -78 -4 -49 -13 -304 -22 -565 -8 -261 -19 -569 -23
-683 -6 -131 -6 -221 1 -243 11 -41 40 -74 66 -74 10 0 65 27 121 61 76 45
106 58 111 49 4 -7 13 -38 19 -69 66 -353 211 -1089 246 -1246 24 -110 60
-272 79 -360 19 -88 47 -234 62 -325 14 -91 55 -270 90 -400 111 -414 139
-538 199 -885 60 -346 168 -730 272 -972 l40 -91 -34 -118 c-52 -182 -93 -447
-93 -604 l0 -58 -67 -48 c-105 -75 -333 -168 -549 -224 -64 -16 -123 -30 -131
-30 -24 0 -116 -48 -149 -77 -22 -21 -35 -47 -48 -97 -15 -62 -15 -70 -1 -92
32 -50 123 -80 290 -95 143 -14 443 -6 597 15 202 28 528 114 721 191 13 5 17
2 17 -13 0 -40 45 -62 126 -62 41 0 74 -4 74 -8 0 -4 -13 -29 -29 -54 -35 -54
-92 -91 -292 -186 -160 -76 -206 -111 -250 -186 -39 -68 -39 -123 -2 -160 37
-37 76 -52 199 -76 201 -39 656 -23 850 30 92 24 110 34 283 157 71 51 132 93
135 93 3 0 6 -10 6 -21 0 -20 4 -21 44 -17 108 13 219 102 250 202 17 52 18
80 13 227 -5 130 -4 173 7 195 11 24 12 78 5 299 -10 320 1 519 56 972 44 363
57 873 30 1169 -16 178 -32 268 -70 412 -33 122 -63 449 -71 787 -6 227 -5
248 19 395 47 276 92 659 137 1155 30 329 13 289 123 303 105 13 176 35 195
59 18 25 16 65 -28 506 -21 221 -46 481 -55 577 -20 220 -26 263 -80 540 -61
308 -94 517 -102 633 -6 95 -5 98 19 125 78 82 214 337 267 497 84 257 139
723 128 1085 -14 453 -116 866 -272 1100 -100 151 -231 233 -695 437 -118 52
-239 108 -268 125 -112 64 -230 175 -318 300 -28 40 -94 72 -134 66 -28 -4
-30 2 -67 207 -26 150 -26 150 -9 250 22 135 21 152 -18 253 -96 248 -260 499
-397 607 -86 67 -191 120 -268 135 -90 17 -325 11 -411 -10z m1204 -1539 c22
-47 45 3 -222 -466 -212 -371 -328 -565 -341 -565 -3 0 -39 33 -78 73 -68 70
-123 144 -123 168 0 7 119 132 264 278 410 413 478 496 460 553 -11 37 20 6
40 -41z m-963 -939 c-11 -21 -32 -81 -46 -133 -18 -60 -68 -177 -140 -324 -62
-126 -123 -258 -135 -293 -13 -34 -24 -61 -26 -59 -7 7 114 444 164 592 75
222 76 225 115 225 17 1 43 7 57 15 14 8 26 14 28 15 1 0 -6 -17 -17 -38z
m288 -35 c25 -23 59 -52 75 -63 l29 -21 -88 -159 c-130 -235 -199 -362 -234
-429 -32 -60 -32 -60 -26 -20 4 22 22 105 41 185 19 80 39 184 45 233 6 63 17
103 38 145 16 31 37 83 47 115 10 31 20 57 22 57 3 0 26 -19 51 -43z m-1208
-1863 c-6 -28 -9 -32 -10 -14 -1 30 11 79 16 64 2 -6 -1 -28 -6 -50z m1183
-154 c20 -33 21 -51 21 -302 0 -165 -4 -270 -10 -276 -6 -6 -35 -4 -74 5 l-63
15 31 26 c37 32 43 61 61 287 12 145 9 205 -16 269 -13 33 28 14 50 -24z
m-1536 -25 c154 12 250 15 297 10 l70 -8 -180 -19 c-99 -10 -229 -21 -289 -25
l-109 -8 -23 -115 c-52 -255 -53 -258 -79 -264 -50 -13 -125 44 -125 93 0 6
27 13 61 17 55 6 62 10 85 43 15 22 24 50 24 73 0 20 4 48 10 63 7 19 6 35 -5
62 -8 19 -15 48 -15 64 0 29 0 29 25 13 24 -16 41 -16 253 1z"/>
</g>
</svg>
