<?xml version="1.0" standalone="no"?>
<!DOCTYPE svg PUBLIC "-//W3C//DTD SVG 20010904//EN"
 "http://www.w3.org/TR/2001/REC-SVG-20010904/DTD/svg10.dtd">
<svg version="1.0" xmlns="http://www.w3.org/2000/svg"
 width="1024.000000pt" height="1536.000000pt" viewBox="0 0 1024.000000 1536.000000"
 preserveAspectRatio="xMidYMid meet">
<metadata>
Created by potrace 1.16, written by Peter Selinger 2001-2019
</metadata>
<g transform="translate(0.000000,1536.000000) scale(0.100000,-0.100000)"
fill="#000000" stroke="none">
<path d="M4445 14510 c-27 -5 -88 -24 -135 -44 -47 -20 -91 -36 -98 -36 -7 0
-36 -12 -64 -26 -139 -71 -283 -277 -335 -480 -26 -100 -24 -540 3 -699 26
-153 24 -273 -5 -350 -41 -107 -40 -125 15 -202 103 -146 265 -287 402 -349
55 -26 72 -38 72 -54 0 -11 5 -28 11 -38 9 -14 4 -24 -25 -55 -62 -66 -46
-149 46 -240 l53 -52 0 -203 c0 -111 -3 -194 -7 -185 -4 10 -28 72 -54 138
-25 66 -66 157 -90 202 -25 47 -39 85 -34 88 21 13 8 37 -61 112 -80 87 -163
212 -361 537 -42 71 -83 144 -90 162 -14 39 -19 41 -34 16 -26 -41 -177 -223
-212 -254 -59 -53 -208 -142 -435 -259 -236 -122 -303 -168 -352 -242 -66
-102 -70 -127 -70 -557 0 -422 9 -550 66 -895 40 -242 81 -424 145 -648 121
-418 228 -605 335 -583 25 5 29 2 29 -18 0 -31 -28 -332 -36 -378 -4 -29 -1
-41 16 -58 21 -21 22 -28 16 -114 -8 -105 -78 -831 -102 -1049 -8 -81 -13
-161 -9 -177 7 -33 30 -50 69 -50 14 0 27 -4 30 -8 12 -20 114 -818 140 -1097
50 -538 60 -862 45 -1522 -14 -620 -10 -755 40 -1248 17 -159 37 -355 45 -435
8 -80 24 -242 36 -360 33 -334 88 -834 106 -948 19 -124 36 -178 70 -213 23
-24 24 -30 15 -70 -24 -101 -7 -335 30 -419 44 -100 133 -149 210 -116 12 5
26 -9 58 -63 52 -89 97 -125 191 -156 111 -36 198 -48 365 -48 220 0 385 36
415 92 18 35 11 86 -21 152 -26 51 -63 95 -191 222 -184 184 -217 225 -288
365 l-53 103 24 25 c21 22 24 35 23 97 0 40 -14 180 -32 312 -166 1273 -180
1475 -137 1935 22 238 109 1017 150 1355 17 138 100 875 117 1043 7 61 16 112
20 112 4 0 8 -6 8 -14 0 -7 32 -101 71 -207 313 -851 441 -1338 709 -2699 103
-522 214 -988 328 -1385 67 -232 166 -534 189 -579 12 -24 13 -36 3 -73 -14
-47 -10 -109 14 -238 9 -44 15 -106 16 -138 0 -107 30 -143 145 -173 63 -17
297 -17 345 -1 31 11 35 16 33 45 -1 29 1 32 20 26 12 -3 69 -33 127 -65 192
-108 375 -150 655 -150 240 0 404 37 461 104 22 26 25 38 21 74 -11 96 -100
162 -323 239 -155 54 -291 116 -354 163 -19 14 -93 80 -163 145 -126 118 -170
172 -149 185 6 3 13 18 17 31 4 17 -73 342 -229 960 -276 1101 -314 1267 -381
1701 -13 90 -29 184 -35 209 -88 407 -188 1023 -250 1535 -66 545 -101 788
-155 1057 -34 169 -42 224 -33 227 29 9 78 70 78 96 0 23 -84 495 -95 535 -2
8 -20 107 -39 220 -20 113 -47 260 -61 328 -22 110 -23 125 -10 139 8 8 15 18
15 23 0 5 -20 111 -45 237 -25 125 -45 232 -45 238 0 8 14 9 48 2 41 -9 79 -4
262 31 246 48 305 56 523 76 104 9 165 19 181 29 29 19 78 133 148 348 l53
159 53 0 53 0 113 113 c61 61 119 128 129 149 11 23 17 61 17 103 0 54 5 75
27 113 39 65 38 145 -1 220 l-27 54 25 38 c67 102 307 371 545 612 102 103
183 189 180 191 -10 10 -268 69 -439 101 -241 45 -450 76 -523 76 -54 0 -60
-3 -104 -42 -50 -47 -238 -258 -464 -523 -80 -93 -221 -259 -314 -369 -94
-109 -222 -258 -285 -331 -195 -223 -375 -435 -378 -445 -2 -6 98 -10 270 -10
150 0 400 -5 555 -11 199 -8 292 -8 313 -1 29 11 30 10 19 -11 -7 -12 -22 -35
-35 -52 -45 -60 -40 -95 20 -130 11 -6 15 -16 11 -27 -14 -37 -53 -30 -138 24
-37 24 -55 45 -76 87 l-26 56 -265 6 c-146 4 -372 7 -503 8 -265 1 -270 3
-226 65 31 43 268 322 378 444 46 51 82 95 80 96 -4 4 -234 -18 -304 -29 -22
-3 -69 -25 -105 -49 -36 -24 -130 -76 -210 -116 -206 -103 -194 -86 -187 -251
3 -75 14 -180 23 -234 17 -95 17 -98 -1 -111 -28 -21 -33 -18 -44 24 -30 115
-53 472 -32 510 7 14 79 56 201 117 104 52 214 110 243 129 52 33 60 35 198
46 258 21 253 20 263 60 7 29 -3 77 -52 265 -34 127 -84 340 -112 475 -83 400
-116 486 -230 600 -55 55 -89 77 -220 144 -193 98 -208 109 -232 163 -10 23
-23 43 -28 43 -5 0 12 21 38 48 29 29 56 70 71 107 35 87 55 111 124 147 90
48 99 70 94 230 -4 138 -4 137 59 214 51 63 83 146 91 233 5 59 9 69 40 94 41
35 59 69 68 127 41 280 -369 812 -685 888 -67 16 -178 22 -235 12z m142 -2266
c44 -82 107 -246 123 -320 30 -135 53 -605 30 -619 -6 -4 -10 8 -10 29 0 48
-41 224 -87 369 -29 93 -35 122 -26 136 19 30 14 146 -8 206 -24 64 -108 196
-138 217 -21 15 -20 15 17 40 20 14 42 25 47 24 6 -1 29 -38 52 -82z"/>
</g>
</svg>
