<?xml version="1.0" standalone="no"?>
<!DOCTYPE svg PUBLIC "-//W3C//DTD SVG 20010904//EN"
 "http://www.w3.org/TR/2001/REC-SVG-20010904/DTD/svg10.dtd">
<svg version="1.0" xmlns="http://www.w3.org/2000/svg"
 width="1024.000000pt" height="1536.000000pt" viewBox="0 0 1024.000000 1536.000000"
 preserveAspectRatio="xMidYMid meet">
<metadata>
Created by potrace 1.16, written by Peter Selinger 2001-2019
</metadata>
<g transform="translate(0.000000,1536.000000) scale(0.100000,-0.100000)"
fill="#000000" stroke="none">
<path d="M4882 14159 c-165 -29 -391 -177 -504 -329 -47 -63 -208 -354 -224
-405 -23 -72 -28 -195 -14 -332 15 -147 38 -215 90 -268 l41 -41 -17 -81 c-15
-74 -15 -83 0 -112 37 -70 270 -254 861 -681 192 -139 195 -142 195 -171 0
-31 -27 -110 -69 -201 -30 -65 -39 -108 -23 -108 4 0 17 23 29 50 12 28 25 50
30 50 16 0 124 -92 142 -121 11 -18 24 -77 34 -152 9 -67 42 -222 72 -345 30
-122 55 -225 55 -229 0 -4 -30 46 -68 112 -76 136 -341 539 -452 690 -238 324
-612 778 -837 1018 l-46 49 -21 -21 c-12 -12 -50 -65 -86 -119 l-65 -97 -117
-62 c-156 -83 -418 -247 -537 -336 -52 -40 -147 -119 -211 -178 -208 -190
-307 -360 -395 -676 -18 -67 -51 -162 -73 -210 -22 -49 -63 -143 -90 -209
-187 -450 -357 -1213 -516 -2309 -114 -781 -109 -744 -93 -769 9 -13 37 -36
64 -51 26 -15 49 -29 51 -30 1 -1 -9 -22 -23 -46 -25 -47 -45 -107 -90 -272
-14 -54 -36 -117 -47 -140 -18 -32 -22 -57 -21 -121 1 -105 18 -155 86 -258
66 -99 83 -116 134 -133 25 -8 47 -26 66 -54 35 -51 79 -75 124 -68 31 5 36 2
60 -36 14 -23 33 -47 42 -54 26 -20 78 -15 101 9 23 25 48 100 57 170 l6 47
29 -24 c37 -31 90 -33 118 -5 27 27 45 99 75 297 35 241 31 397 -14 516 -9 24
-8 28 20 43 17 8 37 30 45 49 15 36 62 302 114 650 57 380 151 847 167 831 3
-3 0 -42 -6 -88 -6 -46 -16 -139 -21 -208 -6 -69 -38 -341 -70 -605 -33 -264
-69 -586 -80 -715 -11 -129 -23 -263 -26 -297 -11 -101 15 -124 215 -192 l104
-36 51 -100 c28 -55 79 -140 112 -190 93 -137 90 -118 40 -231 -53 -121 -146
-407 -221 -684 -31 -113 -69 -232 -84 -265 -36 -77 -114 -181 -297 -392 -225
-261 -266 -328 -593 -983 -158 -316 -332 -672 -388 -790 -56 -118 -131 -277
-167 -353 -36 -76 -66 -144 -66 -151 0 -8 10 -20 22 -28 22 -14 21 -15 -44
-90 -37 -42 -78 -94 -92 -115 -32 -49 -76 -181 -76 -228 0 -22 -14 -63 -36
-105 -48 -90 -55 -153 -23 -194 26 -32 486 -266 525 -266 17 0 31 12 48 38 35
56 50 66 78 51 28 -14 90 -63 188 -149 254 -221 334 -250 685 -251 243 -1 454
29 550 78 41 21 46 32 39 78 -13 89 -35 147 -75 190 -48 52 -109 79 -236 105
-54 11 -144 36 -200 55 -56 19 -108 35 -116 35 -10 0 -16 16 -20 55 -5 54 -58
185 -104 257 -12 21 -23 39 -23 41 0 2 22 2 49 -1 34 -3 51 0 57 9 5 8 29 75
55 149 75 220 127 342 251 590 121 243 319 584 461 794 75 111 482 657 713
956 53 69 121 160 151 203 l55 78 70 -148 c80 -170 285 -612 379 -818 160
-352 364 -736 634 -1190 287 -484 340 -578 495 -880 56 -110 107 -205 112
-211 8 -11 76 4 138 30 13 5 15 -8 17 -86 1 -113 35 -230 87 -303 19 -26 38
-64 41 -84 16 -96 84 -171 155 -171 75 0 327 61 423 102 49 21 54 30 59 98 l3
35 85 11 c319 42 560 150 850 383 191 153 313 286 354 385 23 55 20 69 -16 90
-18 11 -49 34 -69 51 -52 46 -118 69 -176 61 -26 -3 -103 -33 -173 -65 -176
-82 -208 -92 -353 -103 -123 -9 -128 -9 -145 12 -17 21 -140 69 -177 70 -15 0
-7 11 33 46 31 27 52 54 52 66 0 18 -53 91 -271 368 -143 183 -324 470 -444
705 -141 277 -239 530 -300 775 -14 58 -43 159 -64 225 -36 110 -39 133 -46
275 -11 264 -38 367 -200 775 -48 121 -127 330 -175 465 -48 135 -97 269 -109
299 -20 53 -20 55 -2 80 10 14 36 68 57 118 36 90 39 94 101 134 70 46 137
116 168 176 10 21 20 40 21 41 2 2 23 -10 47 -27 78 -54 164 -51 220 7 62 65
84 167 141 662 42 363 56 545 64 863 l7 238 140 -178 c223 -282 380 -468 416
-494 30 -21 45 -24 127 -24 l94 0 48 -61 c27 -34 85 -97 130 -140 45 -44 91
-97 102 -119 11 -22 36 -61 54 -87 l34 -46 -32 -43 c-18 -23 -46 -47 -63 -52
-52 -17 -84 -46 -91 -82 -10 -56 2 -82 49 -106 23 -12 53 -30 66 -40 31 -24
78 -24 132 1 24 11 64 20 89 20 86 0 222 105 283 218 37 69 60 181 52 257 -9
84 -52 237 -91 323 -37 82 -107 161 -241 274 -83 69 -83 69 -83 117 0 53 0 54
-131 236 -296 417 -647 924 -696 1007 -50 84 -146 183 -187 194 -22 5 -24 12
-28 82 -6 92 -37 161 -145 323 -95 141 -109 170 -137 293 -35 148 -93 293
-313 786 -124 276 -151 331 -192 387 -51 70 -260 251 -324 281 -58 27 -58 27
-37 44 12 10 28 18 36 18 7 0 48 33 91 73 43 39 97 87 120 105 62 49 98 129
96 212 -2 57 2 70 28 110 39 58 46 88 27 119 -13 24 -12 29 6 54 19 25 19 32
7 95 -6 37 -13 73 -14 81 -1 8 15 19 37 27 67 24 101 65 90 109 -4 15 -46 76
-94 137 -101 126 -111 150 -79 184 14 14 26 45 31 77 5 28 11 67 15 85 4 25
-1 41 -21 71 -15 21 -52 95 -82 165 -66 151 -107 223 -169 294 -155 175 -389
269 -690 277 -77 2 -164 0 -193 -6z m688 -2359 c0 -6 37 -83 81 -173 279 -557
470 -1091 529 -1471 26 -176 24 -192 -9 -71 -123 440 -276 835 -471 1210 -83
161 -88 174 -92 245 -6 91 -30 142 -93 198 l-46 40 43 15 c53 19 58 20 58 7z
m2161 -3531 c16 -11 29 -23 29 -27 0 -4 -24 -7 -53 -8 -60 -1 -122 -27 -193
-80 -84 -63 -121 -121 -132 -212 l-7 -57 -23 36 c-26 43 -37 89 -28 123 3 14
32 53 64 87 122 133 268 192 343 138z"/>
</g>
</svg>
