<?xml version="1.0" standalone="no"?>
<!DOCTYPE svg PUBLIC "-//W3C//DTD SVG 20010904//EN"
 "http://www.w3.org/TR/2001/REC-SVG-20010904/DTD/svg10.dtd">
<svg version="1.0" xmlns="http://www.w3.org/2000/svg"
 width="1024.000000pt" height="1536.000000pt" viewBox="0 0 1024.000000 1536.000000"
 preserveAspectRatio="xMidYMid meet">
<metadata>
Created by potrace 1.16, written by Peter Selinger 2001-2019
</metadata>
<g transform="translate(0.000000,1536.000000) scale(0.100000,-0.100000)"
fill="#000000" stroke="none">
<path d="M4815 14459 c-154 -22 -351 -98 -450 -174 -54 -41 -66 -56 -105 -121
-14 -23 -46 -70 -72 -103 -82 -107 -112 -219 -102 -376 6 -96 5 -103 -20 -154
-36 -70 -33 -119 9 -141 17 -8 33 -18 36 -23 3 -4 -3 -53 -13 -110 -20 -107
-19 -198 4 -322 8 -48 7 -83 -6 -170 -9 -61 -16 -133 -16 -160 1 -108 44 -239
107 -321 l24 -32 -73 -40 c-91 -49 -218 -106 -372 -166 -320 -125 -415 -213
-461 -431 -51 -242 -134 -568 -196 -773 -123 -409 -310 -909 -346 -927 -27
-14 -788 -1530 -805 -1603 -9 -41 -9 -61 0 -84 10 -28 8 -33 -60 -111 -182
-211 -260 -364 -279 -550 -16 -155 19 -294 91 -364 35 -34 37 -35 83 -38 15
-1 35 -9 45 -17 9 -8 38 -33 65 -55 44 -38 106 -63 155 -63 11 0 35 11 55 24
31 21 41 23 69 15 50 -14 67 -11 93 16 39 38 35 118 -11 220 -45 100 -51 125
-33 139 38 29 140 196 230 379 33 66 47 86 59 81 8 -4 31 -9 50 -11 58 -6 89
23 185 174 228 358 726 1211 809 1383 l41 85 3 -95 c7 -199 -31 -462 -113
-786 -51 -201 -54 -234 -26 -234 36 0 39 -19 25 -180 -25 -308 -44 -689 -44
-903 0 -249 1 -254 87 -343 81 -85 241 -163 367 -180 45 -7 45 -7 61 -63 90
-325 200 -622 312 -846 41 -81 48 -33 -60 -425 -62 -225 -267 -974 -418 -1530
-212 -780 -241 -855 -561 -1417 -121 -214 -138 -254 -138 -325 0 -40 5 -53 25
-72 l26 -24 -58 -60 c-48 -50 -68 -63 -118 -78 -34 -10 -93 -18 -135 -18 -65
0 -89 6 -175 41 -133 54 -190 66 -304 65 -119 -1 -193 -25 -256 -86 -76 -73
-82 -173 -16 -256 38 -48 257 -212 387 -290 197 -117 374 -180 560 -199 53 -6
98 -12 100 -14 3 -2 0 -16 -6 -31 -17 -47 -12 -99 15 -138 37 -55 139 -100
322 -142 318 -74 432 -67 478 31 42 89 145 499 145 579 0 34 28 73 53 74 5 0
23 10 40 22 44 31 125 209 320 698 233 584 398 1028 617 1655 67 193 126 353
129 358 4 4 18 -12 31 -35 66 -121 217 -364 328 -528 328 -487 364 -545 493
-795 101 -198 155 -335 169 -435 15 -103 34 -130 94 -130 14 0 26 -5 26 -12 0
-23 -72 -255 -100 -321 -42 -98 -113 -202 -162 -237 -24 -18 -86 -56 -138 -85
-159 -89 -260 -217 -264 -334 -3 -99 43 -128 222 -142 373 -28 421 -25 597 33
212 71 292 134 420 332 92 142 115 170 128 157 21 -21 82 -11 150 24 214 110
292 233 266 423 -19 146 -70 284 -146 400 -33 48 -34 55 -23 82 16 39 9 92
-31 216 -36 115 -221 600 -286 754 -75 175 -223 464 -340 665 -142 244 -405
664 -432 691 -12 12 -34 59 -50 105 -32 94 -157 406 -206 514 l-31 70 158 319
c182 365 286 592 348 756 23 63 47 120 52 126 4 6 23 14 42 17 61 10 184 68
230 108 29 26 49 54 56 77 14 51 12 196 -5 472 -28 452 -52 665 -120 1075 -65
389 -75 478 -82 689 -5 168 9 512 24 556 3 8 13 -9 22 -40 49 -152 183 -467
222 -521 16 -23 21 -47 23 -102 2 -40 21 -179 44 -309 23 -131 48 -302 56
-380 9 -79 23 -213 31 -298 16 -146 78 -539 91 -574 4 -10 18 -16 35 -16 18 0
32 -6 36 -16 3 -8 -19 -67 -50 -132 -96 -203 -106 -271 -69 -502 11 -69 23
-151 27 -182 10 -91 62 -150 101 -117 28 23 104 192 104 232 0 9 4 17 9 17 16
0 -1 -82 -31 -152 -49 -117 -33 -199 47 -240 62 -32 123 -27 237 20 118 49
166 81 244 164 156 167 193 361 140 730 -14 92 -29 175 -35 186 -8 16 -6 21
15 31 49 22 66 113 44 246 -19 120 -40 323 -50 485 -6 91 -19 233 -30 315 -11
83 -31 265 -44 405 -43 451 -131 798 -401 1585 -59 171 -133 387 -165 482 -74
215 -135 365 -213 518 -52 104 -71 131 -142 201 -106 106 -187 146 -440 218
-285 82 -550 171 -640 215 -135 66 -232 151 -307 271 -66 106 -65 104 -8 167
140 153 226 342 245 540 9 84 -7 168 -37 200 -14 15 -18 28 -13 40 4 10 11 51
16 92 28 242 -140 506 -413 647 -116 60 -183 82 -298 99 -104 16 -164 17 -255
4z m-478 -277 c-20 -20 -37 -31 -37 -24 0 18 59 76 67 68 4 -4 -10 -23 -30
-44z m687 -669 c71 -50 64 -57 -88 -82 -162 -27 -359 -50 -366 -44 -8 8 61 60
125 94 141 76 251 87 329 32z m-375 -651 c63 -18 126 -63 158 -111 47 -69 39
-71 -164 -39 -160 26 -279 27 -342 4 -24 -9 -46 -14 -48 -12 -19 19 52 108
109 137 92 47 179 53 287 21z m886 -304 c-9 -58 -50 -196 -87 -288 -34 -88
-259 -550 -267 -550 -3 0 -48 36 -99 80 -50 44 -138 106 -195 139 -56 33 -109
65 -117 70 -11 6 1 13 45 25 169 48 342 143 474 263 65 59 214 237 234 280 15
34 20 28 12 -19z m-1077 -476 c41 -28 131 -61 191 -69 l53 -8 -56 -39 c-59
-41 -226 -210 -226 -229 0 -6 26 14 58 46 32 31 60 57 63 57 4 0 12 -28 18
-62 7 -35 19 -85 26 -112 14 -46 13 -50 -10 -90 -61 -105 -195 -582 -195 -695
0 -22 -4 -42 -9 -45 -23 -15 -18 431 9 689 24 233 31 316 37 442 3 73 8 133
11 133 2 0 16 -8 30 -18z m524 -229 c2 -5 42 -43 91 -87 48 -43 87 -84 87 -90
0 -6 -39 -94 -86 -196 -47 -102 -124 -273 -171 -380 -47 -107 -86 -197 -88
-198 -2 -2 -4 110 -4 250 0 139 -5 280 -10 313 -21 117 -19 122 76 265 84 124
97 140 105 123z"/>
</g>
</svg>
