<?xml version="1.0" standalone="no"?>
<!DOCTYPE svg PUBLIC "-//W3C//DTD SVG 20010904//EN"
 "http://www.w3.org/TR/2001/REC-SVG-20010904/DTD/svg10.dtd">
<svg version="1.0" xmlns="http://www.w3.org/2000/svg"
 width="1024.000000pt" height="1536.000000pt" viewBox="0 0 1024.000000 1536.000000"
 preserveAspectRatio="xMidYMid meet">
<metadata>
Created by potrace 1.16, written by Peter Selinger 2001-2019
</metadata>
<g transform="translate(0.000000,1536.000000) scale(0.100000,-0.100000)"
fill="#000000" stroke="none">
<path d="M4976 14429 c-234 -23 -398 -99 -551 -254 -226 -229 -300 -511 -223
-850 37 -161 151 -445 207 -515 15 -19 34 -52 42 -74 14 -38 14 -39 -19 -66
-18 -15 -48 -30 -65 -33 -22 -3 -58 -29 -117 -86 -73 -70 -105 -91 -230 -155
-80 -41 -275 -144 -435 -230 -326 -175 -353 -197 -438 -344 -137 -237 -204
-404 -231 -572 -10 -56 -26 -110 -46 -150 -19 -37 -44 -116 -61 -192 -16 -72
-51 -198 -79 -281 -193 -592 -308 -1184 -394 -2037 -23 -222 -54 -586 -72
-827 -7 -101 0 -123 42 -123 34 0 36 -11 14 -82 -60 -194 -74 -278 -74 -438
-1 -181 7 -206 92 -305 28 -33 71 -85 95 -115 31 -39 66 -68 127 -103 47 -27
108 -66 135 -87 66 -49 88 -60 124 -60 72 0 87 63 51 206 -21 85 -26 164 -10
164 6 0 10 -24 10 -53 0 -62 21 -100 53 -95 32 4 81 110 119 253 27 105 31
137 32 260 1 113 -4 160 -22 243 -24 106 -23 124 1 103 28 -23 39 14 48 163
35 594 118 1177 234 1651 25 99 53 207 64 240 l19 59 7 -73 c20 -199 -40 -776
-96 -925 -17 -48 -19 -62 -9 -86 9 -23 8 -47 -9 -132 -67 -334 -184 -1237
-168 -1298 9 -36 48 -53 291 -124 l208 -61 23 -70 c29 -91 90 -242 154 -381
28 -61 51 -116 51 -122 0 -6 -50 -169 -111 -362 -61 -194 -126 -413 -145 -488
-32 -127 -37 -139 -74 -174 -47 -45 -94 -133 -115 -215 -8 -32 -27 -75 -43
-95 -15 -20 -72 -97 -128 -170 -274 -361 -355 -491 -552 -883 -157 -313 -297
-581 -529 -1014 -95 -179 -173 -333 -173 -342 0 -9 7 -22 15 -29 12 -10 9 -18
-28 -54 -75 -74 -204 -295 -281 -486 -30 -74 -32 -90 -10 -136 18 -37 246
-234 316 -271 45 -25 106 -30 156 -12 76 26 176 -42 297 -201 122 -160 210
-222 381 -266 128 -32 365 -47 536 -34 148 11 210 24 255 52 31 18 33 23 27
56 -10 61 -44 159 -67 194 -34 49 -95 85 -230 134 -148 53 -255 105 -285 137
-13 13 -26 42 -29 63 -3 21 -15 50 -25 63 -26 34 -55 103 -73 172 -19 71 -19
99 -2 99 25 0 45 34 105 180 247 597 318 723 922 1630 251 377 489 739 530
805 41 66 76 122 78 125 8 10 41 -47 80 -140 56 -134 111 -294 188 -554 263
-885 405 -1259 781 -2061 88 -187 193 -418 233 -514 83 -195 105 -233 140
-241 27 -6 22 5 135 -308 92 -254 117 -307 154 -326 79 -42 298 -5 533 89 9 4
26 22 37 41 l20 34 102 0 c249 0 510 98 829 312 176 119 365 290 406 369 13
26 12 30 -26 78 -22 28 -59 63 -82 79 -38 24 -50 27 -127 26 -71 -1 -109 -8
-217 -41 -223 -70 -350 -78 -513 -33 -96 27 -231 89 -231 106 0 8 5 14 10 14
6 0 10 5 10 10 0 6 -17 10 -37 11 -21 0 -56 4 -78 8 l-40 8 60 28 c78 36 95
52 95 87 0 42 -16 68 -205 338 -382 546 -352 498 -390 617 -74 235 -304 980
-314 1019 -6 22 -25 117 -41 210 -116 647 -256 1204 -512 2038 -38 125 -68
238 -65 250 9 43 170 571 176 578 4 4 64 -4 135 -17 70 -14 166 -26 213 -28
137 -3 127 -51 119 553 -4 278 -11 584 -15 680 -8 171 -7 175 14 195 12 12 24
29 28 38 4 10 -7 106 -23 215 -39 268 -84 723 -70 721 10 -1 615 -921 778
-1183 89 -143 176 -273 192 -288 18 -17 42 -28 58 -28 40 0 99 19 118 37 20
20 29 8 44 -60 15 -72 61 -154 134 -242 82 -98 146 -217 131 -241 -6 -10 -33
-23 -60 -30 -31 -7 -58 -22 -73 -40 -21 -24 -24 -35 -20 -83 4 -43 10 -59 31
-75 55 -45 103 -68 137 -68 111 0 135 7 231 65 97 58 137 98 194 193 41 68 49
111 36 194 -6 36 -15 111 -20 168 -15 145 -45 200 -153 280 -62 46 -75 60
-120 141 -25 44 -31 68 -32 120 -2 74 -11 93 -195 431 -56 102 -185 352 -287
556 -147 294 -198 386 -245 444 -33 39 -62 84 -65 98 -23 109 -46 152 -153
283 -86 104 -105 150 -126 304 -21 159 -79 390 -180 719 -109 358 -224 713
-247 768 -26 61 -88 118 -179 164 -177 89 -459 253 -459 266 0 5 7 8 15 8 21
0 109 45 176 91 46 31 63 51 94 111 36 71 98 236 114 308 5 19 14 48 20 63 6
16 11 44 11 63 0 27 5 36 25 44 56 21 50 131 -13 240 -46 79 -53 127 -30 201
9 31 16 39 35 39 36 0 63 -52 64 -125 l0 -60 20 45 c24 54 19 101 -16 136 -13
13 -35 24 -49 24 -27 0 -54 34 -36 45 17 10 11 40 -19 106 -17 35 -37 105 -45
154 -18 105 -57 190 -126 276 -39 48 -51 74 -64 131 -9 39 -25 86 -36 104 -78
125 -445 222 -734 193z m-221 -2026 c88 -67 225 -179 304 -248 79 -70 156
-134 170 -143 14 -9 28 -17 30 -19 2 -2 -23 -31 -56 -65 -62 -66 -107 -134
-118 -181 -7 -27 -7 -28 33 -21 l39 6 12 -48 c6 -27 20 -119 30 -204 23 -181
40 -715 22 -690 -6 8 -11 23 -11 32 0 35 -170 528 -230 668 -34 80 -148 318
-254 530 -181 363 -236 491 -236 551 0 42 11 41 59 -4 25 -23 118 -97 206
-164z m682 -365 c64 -107 128 -347 158 -598 18 -148 31 -646 15 -530 -38 258
-90 479 -165 700 -25 74 -45 138 -45 142 0 4 9 8 19 8 11 0 23 5 26 10 12 19
-38 104 -95 163 l-56 57 49 50 c27 28 52 50 56 50 4 0 21 -24 38 -52z m2203
-3857 c19 -36 12 -41 -52 -41 -118 -1 -206 -33 -288 -107 -27 -24 -59 -59 -70
-78 -24 -39 -34 -38 -44 1 -22 88 227 241 396 243 37 1 50 -3 58 -18z"/>
</g>
</svg>
