<?xml version="1.0" standalone="no"?>
<!DOCTYPE svg PUBLIC "-//W3C//DTD SVG 20010904//EN"
 "http://www.w3.org/TR/2001/REC-SVG-20010904/DTD/svg10.dtd">
<svg version="1.0" xmlns="http://www.w3.org/2000/svg"
 width="1024.000000pt" height="1536.000000pt" viewBox="0 0 1024.000000 1536.000000"
 preserveAspectRatio="xMidYMid meet">
<metadata>
Created by potrace 1.16, written by Peter Selinger 2001-2019
</metadata>
<g transform="translate(0.000000,1536.000000) scale(0.100000,-0.100000)"
fill="#000000" stroke="none">
<path d="M4945 14599 c-116 -17 -198 -51 -262 -110 -23 -21 -71 -52 -107 -68
-84 -38 -162 -115 -204 -201 -18 -36 -46 -119 -64 -185 -31 -113 -33 -130 -33
-285 l0 -165 54 -125 c29 -69 75 -191 101 -271 27 -81 67 -186 89 -235 36 -76
41 -94 35 -131 -14 -95 49 -168 394 -456 116 -98 212 -184 212 -191 0 -8 -8
-34 -19 -58 -28 -66 -45 -151 -37 -192 4 -19 18 -49 31 -65 l25 -29 -1 -403
c-1 -378 -2 -400 -16 -344 -91 371 -266 819 -516 1324 -125 253 -144 281 -191
281 -39 0 -61 -15 -151 -99 -82 -78 -150 -115 -391 -215 -416 -173 -514 -224
-591 -311 -27 -30 -64 -84 -82 -121 -42 -84 -123 -332 -205 -624 -35 -124
-107 -362 -160 -530 -276 -862 -344 -1214 -521 -2670 -8 -63 -17 -136 -21
-162 -9 -61 11 -93 66 -108 27 -7 44 -19 49 -33 14 -35 44 -56 97 -67 72 -16
473 -24 506 -11 35 13 36 17 103 426 110 675 173 1013 226 1230 47 188 167
581 175 572 14 -13 23 -343 14 -495 -12 -204 -54 -471 -110 -693 -9 -34 -9
-53 -1 -67 8 -15 6 -42 -9 -108 -39 -181 -150 -907 -184 -1202 -24 -203 -14
-217 208 -287 77 -25 164 -50 192 -57 l52 -12 38 -96 c20 -52 64 -149 96 -214
l60 -119 -22 -116 c-48 -255 -140 -714 -170 -846 -32 -141 -55 -199 -155 -385
-25 -47 -56 -114 -70 -150 -17 -44 -48 -93 -96 -150 -89 -108 -153 -214 -229
-379 -62 -134 -216 -504 -297 -711 -229 -588 -397 -1010 -473 -1190 -122 -287
-132 -315 -125 -353 5 -28 -2 -42 -60 -117 -144 -185 -176 -250 -230 -457 -39
-152 -37 -160 68 -240 34 -26 90 -72 124 -103 117 -103 164 -113 250 -54 l53
36 43 -25 c51 -30 95 -77 173 -184 74 -101 140 -170 186 -194 77 -39 265 -76
478 -93 132 -10 457 29 491 60 38 35 16 125 -51 206 -38 46 -117 84 -202 98
-81 12 -121 29 -173 70 -22 18 -61 43 -88 56 -39 20 -47 29 -47 52 0 15 -7 49
-15 77 -17 55 -21 74 -36 159 -5 32 -23 100 -39 151 -17 50 -30 95 -30 99 0 4
14 12 30 18 38 13 60 55 95 179 49 174 176 548 232 687 85 206 442 902 798
1557 120 220 275 531 321 642 20 49 38 90 39 92 9 9 147 -290 212 -459 44
-116 75 -221 178 -604 96 -359 228 -742 460 -1336 187 -480 449 -1104 481
-1146 23 -31 92 -43 148 -24 21 7 40 9 44 5 4 -4 7 -104 7 -223 1 -210 2 -220
29 -297 40 -117 102 -240 132 -264 50 -39 216 -25 408 35 151 46 206 87 162
119 -13 10 -8 13 30 19 26 3 86 6 135 6 142 0 295 42 469 130 79 40 432 242
515 295 71 46 161 129 181 167 20 39 17 87 -7 123 -62 89 -156 99 -352 36 -67
-22 -150 -47 -183 -55 -70 -18 -207 -21 -274 -5 -81 18 -236 69 -256 84 -18
14 -17 14 14 15 36 0 55 26 31 41 -32 20 -130 52 -212 69 -48 10 -91 21 -95
25 -9 9 36 42 76 56 17 6 32 17 32 24 0 8 -49 114 -109 237 -164 335 -422 966
-563 1378 -170 499 -225 702 -257 950 -55 428 -84 555 -221 975 -38 116 -116
365 -175 555 -144 468 -212 679 -230 714 -9 18 -12 33 -6 40 10 13 63 177 82
256 7 30 14 56 15 58 1 2 25 -12 54 -32 62 -43 105 -56 186 -56 46 0 68 5 85
19 24 19 24 23 27 219 2 110 -1 440 -7 733 -9 518 -9 534 10 547 21 15 22 0
-17 282 -33 238 -44 384 -44 585 l0 169 47 -64 c81 -113 512 -628 801 -960
192 -219 400 -439 437 -462 35 -21 94 -24 120 -4 17 12 17 17 5 59 -25 92 21
217 115 312 74 73 150 109 231 108 74 -1 75 6 9 77 -80 86 -347 416 -755 933
-90 115 -195 237 -232 273 -47 44 -68 71 -68 88 0 42 -28 106 -95 215 l-64
106 -11 118 c-17 195 -51 333 -153 617 -60 168 -82 255 -123 479 -69 386 -117
463 -379 610 -214 121 -275 169 -323 254 -21 37 -21 40 -6 73 30 62 62 77 177
78 85 1 110 5 150 25 61 30 96 80 107 157 4 33 24 98 44 146 25 61 36 102 36
138 0 65 16 94 80 149 50 42 52 45 46 83 -4 22 -25 83 -47 136 -78 184 -79
197 -32 286 24 45 25 53 15 93 -7 24 -12 58 -12 76 0 17 -11 66 -24 107 -13
41 -26 97 -29 123 l-5 48 22 -20 c36 -34 78 -23 104 26 42 79 -50 208 -263
368 -188 142 -344 186 -645 184 -74 -1 -162 -5 -195 -10z m449 -2594 c48 -214
116 -767 116 -949 0 -76 -7 -52 -20 64 -13 124 -56 392 -75 470 -33 130 -44
222 -32 275 9 44 7 67 -13 156 -30 137 -34 178 -19 214 12 28 13 24 20 -65 4
-52 14 -126 23 -165z"/>
<path d="M7560 8523 c-8 -3 -43 -23 -76 -44 -104 -67 -184 -180 -187 -266 -2
-42 1 -46 69 -111 39 -37 89 -94 112 -127 24 -35 71 -82 112 -114 108 -82 113
-106 45 -197 -48 -63 -56 -101 -27 -127 26 -23 124 -55 196 -62 56 -6 72 -4
113 16 63 30 152 115 205 197 36 55 43 75 46 126 5 73 -26 175 -91 301 -52
102 -168 220 -327 333 -113 81 -142 92 -190 75z"/>
<path d="M2445 7687 c-8 -13 -38 -89 -66 -170 -61 -178 -69 -253 -45 -436 9
-69 22 -131 28 -138 6 -7 21 -13 34 -13 20 0 31 -14 63 -77 42 -84 100 -150
140 -160 52 -13 114 -44 152 -77 87 -74 209 -69 209 9 0 13 -14 59 -31 102
-24 59 -33 99 -37 166 -3 61 -1 87 7 87 6 0 11 -10 11 -22 0 -42 37 -197 50
-213 28 -34 80 -14 108 40 33 64 44 393 18 550 -21 131 -66 328 -79 343 -8 10
-37 12 -126 7 -79 -5 -160 -2 -254 9 -174 20 -164 20 -182 -7z"/>
</g>
</svg>
