<?xml version="1.0" standalone="no"?>
<!DOCTYPE svg PUBLIC "-//W3C//DTD SVG 20010904//EN"
 "http://www.w3.org/TR/2001/REC-SVG-20010904/DTD/svg10.dtd">
<svg version="1.0" xmlns="http://www.w3.org/2000/svg"
 width="1024.000000pt" height="1536.000000pt" viewBox="0 0 1024.000000 1536.000000"
 preserveAspectRatio="xMidYMid meet">
<metadata>
Created by potrace 1.16, written by Peter Selinger 2001-2019
</metadata>
<g transform="translate(0.000000,1536.000000) scale(0.100000,-0.100000)"
fill="#000000" stroke="none">
<path d="M3195 14991 c-190 -65 -339 -155 -446 -268 -146 -155 -176 -314 -92
-491 20 -42 63 -94 165 -198 162 -166 192 -217 192 -324 0 -99 -26 -142 -179
-300 -169 -173 -199 -229 -200 -365 0 -148 38 -201 254 -347 58 -40 111 -79
118 -87 8 -10 12 -12 13 -4 0 7 -36 47 -80 89 -105 101 -136 161 -134 259 3
137 61 227 256 401 72 65 150 144 174 176 87 119 108 239 60 344 -29 62 -120
163 -211 232 -128 97 -191 161 -226 224 -32 59 -34 69 -34 158 0 86 3 101 31
160 61 127 201 252 376 335 51 24 89 44 83 44 -5 0 -59 -17 -120 -38z"/>
<path d="M5383 14389 c-332 -32 -622 -234 -742 -515 -53 -126 -65 -186 -66
-349 0 -96 -5 -158 -12 -171 -18 -31 4 -154 27 -154 10 0 3 -148 -11 -238 -9
-56 -9 -91 1 -160 13 -91 5 -162 -25 -235 -61 -149 10 -461 142 -623 l33 -41
-63 -6 c-77 -7 -133 -27 -347 -124 -184 -84 -258 -127 -287 -169 -30 -43 -94
-173 -153 -313 -28 -69 -66 -154 -84 -190 -18 -36 -45 -116 -61 -178 -16 -67
-34 -118 -45 -128 -21 -19 -22 -18 -40 82 -13 78 -5 116 55 238 66 132 79 194
72 345 -6 158 -38 283 -107 420 -59 117 -63 109 75 129 62 9 84 16 97 34 47
60 -6 127 -101 127 l-52 0 26 37 c30 45 31 57 5 83 -28 28 -58 25 -112 -9
l-46 -29 10 32 c8 26 6 42 -10 79 -38 87 -105 87 -142 1 -11 -25 -20 -54 -20
-65 0 -19 -24 -26 -34 -10 -3 5 -23 7 -44 4 -29 -4 -45 1 -77 23 -58 40 -125
63 -203 70 -70 7 -112 -4 -112 -29 0 -28 59 -83 102 -96 24 -7 63 -23 88 -36
25 -14 75 -39 113 -57 37 -17 67 -35 67 -40 0 -4 -9 -12 -19 -18 -27 -14 -56
-65 -95 -163 -18 -46 -46 -104 -63 -128 -89 -130 -123 -245 -130 -444 -4 -114
-1 -163 16 -261 12 -67 21 -131 21 -142 0 -13 -21 -41 -50 -68 -92 -86 -149
-242 -150 -405 0 -42 -11 -134 -24 -205 -41 -217 -49 -311 -43 -502 4 -156 8
-191 35 -296 78 -297 183 -396 422 -396 159 0 316 59 482 182 l78 58 0 -80 c0
-174 -57 -520 -131 -792 -53 -195 -58 -242 -31 -271 l21 -22 -19 -150 c-39
-297 -75 -750 -96 -1197 l-7 -147 26 -23 c13 -13 59 -36 101 -52 l77 -29 -6
-56 c-4 -31 -11 -81 -15 -111 -18 -105 -104 -852 -134 -1160 -19 -188 -61
-618 -81 -830 -8 -85 -22 -252 -30 -370 -24 -321 -41 -464 -80 -690 -19 -113
-60 -378 -90 -589 -62 -430 -71 -475 -115 -581 -85 -202 -320 -867 -320 -903
0 -4 9 -7 20 -7 11 0 20 -3 20 -6 0 -12 -192 -243 -233 -281 -91 -84 -215
-131 -403 -152 -209 -24 -332 -67 -394 -137 -41 -47 -93 -155 -84 -177 9 -24
57 -50 166 -91 257 -95 593 -137 845 -106 143 18 232 46 380 121 155 77 182
82 198 34 15 -45 24 -56 62 -72 92 -38 440 -35 600 5 63 16 69 20 88 57 16 34
20 65 22 215 3 168 15 246 34 235 4 -3 11 7 15 22 3 15 14 62 24 103 10 41 26
113 35 160 39 197 205 831 382 1455 132 468 178 669 203 895 19 167 32 233 62
310 27 65 31 91 38 225 l8 150 67 190 c37 105 129 370 205 590 205 593 200
580 200 515 0 -114 103 -661 245 -1305 104 -471 160 -743 174 -850 6 -44 15
-183 21 -310 12 -247 32 -468 55 -605 23 -133 19 -296 -10 -439 -59 -288 -60
-554 -4 -803 18 -81 25 -98 41 -98 27 0 23 -21 -38 -195 -73 -207 -87 -235
-120 -235 -14 0 -23 -4 -19 -10 3 -5 12 -7 19 -4 8 3 -4 -31 -27 -77 -34 -69
-41 -94 -44 -158 -6 -103 13 -140 82 -163 172 -57 538 -49 780 16 132 36 256
83 290 110 l30 24 0 332 c0 326 0 332 21 349 13 10 24 35 29 62 3 24 17 103
31 174 82 439 133 1073 159 1955 7 209 -5 566 -27 810 -10 112 -9 181 5 410
28 451 36 623 62 1330 14 371 25 685 25 697 0 19 5 23 33 23 17 0 56 11 85 25
60 28 77 58 68 120 -4 22 -7 135 -7 251 -1 192 1 215 19 258 l21 46 59 0 c74
0 84 10 149 150 27 58 142 267 255 465 378 662 476 847 546 1025 53 135 63
185 63 291 -1 198 -131 701 -356 1374 -125 376 -352 985 -391 1052 -14 24 -42
54 -62 68 -31 20 -318 137 -917 374 -193 76 -197 79 -308 226 -104 138 -147
210 -147 247 0 27 40 134 100 266 64 142 77 221 61 373 -7 68 -10 142 -7 164
19 135 18 242 -3 359 -36 200 -116 331 -255 418 -28 17 -81 60 -118 95 -36 35
-91 75 -120 88 -76 35 -203 64 -322 75 -114 11 -138 10 -253 -1z m157 -1155
c-60 -18 -398 -40 -411 -27 -7 7 26 13 93 17 57 4 145 13 197 20 52 6 111 10
130 7 l36 -4 -45 -13z m-721 -17 c29 -12 24 -13 -64 -13 -69 1 -95 4 -95 14 0
17 118 16 159 -1z m416 -567 c64 -32 249 -186 248 -205 0 -5 -15 -18 -34 -28
-45 -23 -84 -17 -240 33 -138 44 -179 48 -267 25 -169 -43 -181 -44 -187 -24
-13 39 7 88 50 128 121 111 294 140 430 71z m992 -382 c-34 -109 -112 -267
-224 -453 -50 -83 -116 -202 -148 -265 -31 -63 -71 -135 -89 -160 -17 -25 -32
-47 -33 -49 -1 -2 -18 10 -38 28 -33 29 -55 39 -55 25 0 -3 14 -26 32 -52 l32
-46 -33 -60 c-123 -229 -309 -616 -405 -841 l-25 -60 0 90 c-1 148 18 613 29
741 20 232 17 221 52 228 39 8 104 74 113 115 11 52 -20 125 -71 167 -24 20
-44 40 -44 43 0 4 37 18 81 31 162 47 403 183 568 322 79 66 237 238 254 276
7 14 14 19 20 13 6 -6 0 -40 -16 -93z m-1222 -530 c44 -11 84 -23 88 -27 4 -4
-17 -59 -48 -122 -30 -63 -55 -119 -55 -125 0 -6 9 -19 21 -30 17 -16 22 -16
29 -4 18 27 11 -93 -9 -166 -10 -38 -48 -175 -84 -304 -56 -203 -131 -510
-166 -675 -7 -37 -9 52 -6 335 5 468 20 633 87 988 26 139 33 162 47 157 9 -4
52 -16 96 -27z m-1975 -1031 c0 -30 33 -82 65 -103 45 -29 100 -21 245 35 74
28 150 59 169 67 l35 15 -26 -33 c-14 -18 -65 -63 -114 -100 -163 -124 -254
-158 -323 -121 -68 36 -91 100 -76 218 6 52 25 69 25 22z m4343 -1228 c71
-136 75 -147 59 -162 -16 -17 -17 -32 -13 -147 1 -24 -13 -64 -48 -130 -42
-81 -72 -153 -130 -305 -19 -52 -5 442 19 635 11 91 20 190 20 220 0 30 4 50
8 45 5 -6 43 -76 85 -156z m-217 -1846 c21 -32 49 -83 61 -115 21 -51 22 -61
11 -102 l-12 -44 -22 86 c-27 109 -55 170 -116 250 -27 35 -48 66 -48 70 1 13
87 -86 126 -145z m-2999 -6685 c-3 -8 -6 -5 -6 6 -1 11 2 17 5 13 3 -3 4 -12
1 -19z"/>
</g>
</svg>
