<?xml version="1.0" standalone="no"?>
<!DOCTYPE svg PUBLIC "-//W3C//DTD SVG 20010904//EN"
 "http://www.w3.org/TR/2001/REC-SVG-20010904/DTD/svg10.dtd">
<svg version="1.0" xmlns="http://www.w3.org/2000/svg"
 width="1024.000000pt" height="1536.000000pt" viewBox="0 0 1024.000000 1536.000000"
 preserveAspectRatio="xMidYMid meet">
<metadata>
Created by potrace 1.16, written by Peter Selinger 2001-2019
</metadata>
<g transform="translate(0.000000,1536.000000) scale(0.100000,-0.100000)"
fill="#000000" stroke="none">
<path d="M5157 14575 c-220 -44 -473 -173 -625 -319 -118 -112 -129 -170 -56
-284 l46 -73 -11 -93 c-6 -52 -11 -131 -11 -176 l0 -81 44 -42 c59 -58 64 -79
31 -129 -23 -35 -85 -196 -102 -263 -2 -12 5 -32 17 -48 19 -23 29 -27 76 -27
59 0 60 -2 43 -60 -10 -34 -9 -42 10 -68 15 -22 19 -38 15 -60 -7 -33 4 -58
48 -113 26 -33 29 -42 23 -81 -8 -50 11 -107 47 -146 53 -55 215 -69 333 -27
39 14 70 25 71 25 1 0 4 -37 8 -82 8 -93 32 -158 78 -205 l31 -32 -25 -21
c-34 -26 -83 -105 -99 -157 -11 -39 -10 -46 16 -100 15 -32 30 -77 33 -100 4
-37 0 -47 -32 -84 -52 -61 -67 -110 -132 -432 l-59 -288 -3 203 c-7 422 40
806 129 1066 26 75 24 81 -13 45 -53 -50 -274 -181 -543 -323 -83 -43 -134
-78 -166 -111 -95 -99 -161 -268 -273 -695 -35 -131 -65 -233 -68 -228 -3 5
-15 52 -28 104 -39 166 -60 230 -75 230 -8 0 -12 -6 -9 -13 2 -7 -1 -20 -8
-29 -29 -36 -210 -178 -260 -202 -61 -30 -160 -43 -201 -27 -27 11 -28 14 -22
54 9 54 40 137 61 163 14 18 15 17 10 -21 -16 -117 130 -113 289 8 106 80 107
82 109 195 1 93 3 101 33 148 84 127 113 217 113 355 0 60 6 113 15 139 28 79
13 170 -33 202 -18 12 -21 26 -22 99 -1 46 3 98 8 116 7 22 7 36 -1 47 -15 18
-79 36 -134 36 -48 0 -53 8 -22 36 34 30 48 73 37 106 -13 35 -46 37 -77 4
l-23 -24 -33 36 c-28 31 -35 34 -49 23 -11 -9 -16 -30 -16 -65 0 -38 -6 -58
-23 -79 -20 -26 -31 -29 -142 -42 -66 -7 -146 -23 -178 -35 -51 -19 -57 -24
-57 -50 0 -43 22 -50 120 -39 47 5 91 11 98 14 10 4 11 -1 7 -16 -5 -14 -2
-25 6 -30 11 -7 9 -12 -8 -24 -15 -10 -23 -26 -23 -44 0 -19 -7 -31 -22 -38
-17 -8 -25 -23 -33 -74 -7 -35 -27 -126 -44 -202 -32 -134 -33 -142 -22 -232
7 -60 24 -130 47 -192 48 -131 60 -170 68 -219 7 -37 5 -41 -19 -52 -15 -7
-56 -38 -91 -69 -99 -88 -99 -63 -9 -546 41 -227 96 -522 121 -657 25 -135 56
-283 71 -330 24 -81 29 -88 111 -172 128 -132 178 -149 309 -106 56 18 78 32
128 82 56 57 212 264 248 332 16 29 16 29 17 -41 0 -38 -7 -225 -16 -415 l-15
-345 -45 -149 c-49 -168 -52 -186 -25 -193 17 -4 17 -9 6 -58 -7 -30 -16 -82
-20 -117 -18 -173 -50 -401 -95 -663 -64 -379 -66 -404 -46 -442 8 -17 29 -42
46 -56 l30 -26 -34 -183 c-169 -897 -308 -1704 -476 -2773 -181 -1151 -293
-1777 -429 -2393 -41 -186 -42 -211 -8 -233 30 -20 -136 -170 -338 -304 -218
-145 -241 -155 -381 -166 -314 -25 -333 -32 -386 -139 -20 -41 -37 -83 -37
-92 -4 -88 473 -208 822 -208 131 0 194 15 279 67 66 39 169 83 195 83 11 0
34 -26 58 -63 l40 -62 110 -3 c123 -3 246 10 332 36 l58 18 24 89 c20 77 24
115 25 265 0 115 -3 184 -11 202 -12 27 -11 27 41 42 29 9 60 24 68 33 17 19
30 78 73 328 25 145 170 893 199 1025 7 36 63 281 124 545 136 589 162 723
162 823 0 50 7 97 19 132 10 30 22 93 26 140 5 56 21 127 47 210 23 69 164
555 314 1080 150 525 273 950 273 944 1 -6 14 -148 31 -315 16 -167 32 -333
35 -369 3 -36 25 -270 50 -520 140 -1431 169 -1811 195 -2555 10 -298 30
-1168 30 -1332 0 -82 3 -95 23 -119 l23 -27 -43 -64 c-24 -36 -85 -135 -136
-220 -78 -133 -102 -165 -162 -217 -38 -34 -106 -97 -151 -142 -87 -85 -97
-104 -126 -247 -12 -57 -12 -60 11 -78 69 -56 369 -76 649 -44 259 31 348 67
413 168 l40 62 67 11 c90 15 171 51 182 80 41 107 51 367 20 504 -11 47 -20
90 -20 95 0 6 16 19 36 30 19 10 46 32 60 48 l24 29 0 1356 c0 995 -4 1396
-13 1502 -26 306 -6 774 113 2675 17 274 12 256 74 283 29 13 66 35 83 50 29
27 30 31 37 149 3 67 3 166 0 219 -7 93 -6 97 12 89 87 -36 85 -38 264 355
238 525 423 969 526 1265 44 127 48 148 48 225 -2 196 -74 499 -274 1155 -27
88 -67 228 -89 310 -22 83 -81 276 -132 430 -98 300 -113 330 -197 388 -22 16
-221 99 -443 185 -366 143 -411 163 -479 213 -41 31 -86 68 -99 83 -14 14 -32
26 -41 26 -22 0 -136 -197 -215 -370 -88 -193 -356 -828 -417 -990 -31 -80
-58 -152 -62 -160 -3 -8 -4 8 -1 35 17 154 26 401 20 551 l-7 171 55 84 c30
46 63 93 74 104 20 20 20 20 -8 76 -15 30 -43 76 -63 102 l-35 46 42 34 c23
19 114 86 202 149 178 128 259 197 279 237 10 20 11 56 4 164 -10 154 -15 133
72 297 16 30 41 89 54 130 14 41 45 132 70 203 61 172 78 257 78 402 0 138
-15 212 -66 334 -108 257 -296 401 -571 441 -97 13 -297 11 -378 -5z m-1243
-2094 c19 -7 19 -8 -1 -22 -12 -8 -31 -32 -43 -52 -19 -32 -22 -48 -17 -94 6
-54 5 -55 -18 -49 -71 18 -71 19 -70 90 1 43 8 78 21 101 17 32 22 35 64 34
25 0 54 -4 64 -8z m2948 -2276 c76 -181 76 -181 81 -267 3 -59 11 -90 32 -132
l28 -56 -20 -23 c-13 -13 -35 -76 -58 -162 -33 -123 -134 -419 -141 -412 -6 6
-44 323 -54 453 -11 135 -10 148 24 412 20 149 36 286 36 304 0 47 11 29 72
-117z m-289 -2056 c45 -23 287 -187 287 -195 0 -2 -16 -26 -36 -53 l-37 -49
-41 47 c-22 25 -77 89 -120 141 -44 52 -86 103 -94 113 -20 22 -10 22 41 -4z"/>
<path d="M3294 14044 c-84 -45 -207 -129 -251 -172 -52 -51 -82 -109 -90 -171
-12 -101 36 -167 223 -307 126 -94 167 -138 184 -198 13 -47 9 -61 -58 -211
-49 -111 -66 -188 -56 -252 l8 -48 8 55 c12 78 46 146 112 220 105 119 127
195 88 298 -25 66 -64 120 -166 229 -130 141 -155 208 -117 317 23 67 84 163
137 219 20 21 34 40 32 43 -3 2 -27 -8 -54 -22z"/>
</g>
</svg>
