<?xml version="1.0" standalone="no"?>
<!DOCTYPE svg PUBLIC "-//W3C//DTD SVG 20010904//EN"
 "http://www.w3.org/TR/2001/REC-SVG-20010904/DTD/svg10.dtd">
<svg version="1.0" xmlns="http://www.w3.org/2000/svg"
 width="1024.000000pt" height="1536.000000pt" viewBox="0 0 1024.000000 1536.000000"
 preserveAspectRatio="xMidYMid meet">
<metadata>
Created by potrace 1.16, written by Peter Selinger 2001-2019
</metadata>
<g transform="translate(0.000000,1536.000000) scale(0.100000,-0.100000)"
fill="#000000" stroke="none">
<path d="M2323 15175 c0 -22 2 -30 4 -17 2 12 2 30 0 40 -3 9 -5 -1 -4 -23z"/>
<path d="M5042 14609 c-29 -5 -65 -16 -80 -24 l-27 -14 30 -1 c52 0 13 -15
-130 -49 -172 -40 -256 -71 -318 -116 -68 -51 -134 -147 -151 -220 l-7 -30 25
30 c30 36 34 25 5 -16 -35 -49 -99 -195 -109 -250 -10 -54 1 -129 20 -129 14
0 37 39 49 85 6 22 18 51 26 65 l15 25 -7 -30 c-8 -30 -9 -177 -2 -315 5 -94
-10 -137 -68 -203 -58 -65 -73 -101 -73 -180 0 -56 3 -66 28 -89 15 -14 36
-28 47 -32 23 -7 25 -24 25 -187 0 -71 3 -91 19 -110 15 -19 18 -34 14 -69 -7
-63 10 -119 53 -168 65 -77 169 -110 284 -91 36 5 84 13 107 16 l41 5 73 -223
c40 -123 76 -228 81 -234 20 -22 171 73 473 298 178 132 220 169 241 209 19
36 18 57 -6 126 l-20 57 133 255 c188 359 196 373 214 358 19 -15 29 0 43 65
23 106 11 248 -37 452 -34 147 -69 211 -161 294 -58 52 -80 81 -106 136 -56
117 -141 195 -289 266 -61 28 -130 42 -97 18 11 -8 8 -9 -15 -5 -65 13 -241
36 -265 35 -14 -1 -49 -5 -78 -10z"/>
<path d="M2982 14520 c0 -14 2 -19 5 -12 2 6 2 18 0 25 -3 6 -5 1 -5 -13z"/>
<path d="M2899 14343 c-13 -16 -12 -17 4 -4 9 7 17 15 17 17 0 8 -8 3 -21 -13z"/>
<path d="M2684 14238 l-29 -33 33 29 c17 17 32 31 32 33 0 8 -8 1 -36 -29z"/>
<path d="M2779 14223 c-13 -16 -12 -17 4 -4 16 13 21 21 13 21 -2 0 -10 -8
-17 -17z"/>
<path d="M2624 14178 l-19 -23 23 19 c12 11 22 21 22 23 0 8 -8 2 -26 -19z"/>
<path d="M2704 14158 l-19 -23 23 19 c21 18 27 26 19 26 -2 0 -12 -10 -23 -22z"/>
<path d="M2645 13890 c10 -11 20 -20 23 -20 3 0 -3 9 -13 20 -10 11 -20 20
-23 20 -3 0 3 -9 13 -20z"/>
<path d="M3010 13605 c19 -19 36 -35 39 -35 3 0 -10 16 -29 35 -19 19 -36 35
-39 35 -3 0 10 -16 29 -35z"/>
<path d="M3132 13420 c0 -19 2 -27 5 -17 2 9 2 25 0 35 -3 9 -5 1 -5 -18z"/>
<path d="M3732 13124 c-13 -9 -34 -33 -48 -55 -23 -36 -27 -39 -72 -39 -53 0
-130 17 -247 55 -98 31 -183 42 -213 26 -24 -13 -30 -53 -9 -68 23 -18 142
-60 222 -78 96 -22 169 -56 191 -90 15 -23 14 -29 -6 -90 -29 -88 -73 -143
-143 -181 -32 -16 -54 -34 -50 -38 5 -4 4 -6 -2 -5 -17 6 -69 -17 -102 -45
-24 -20 -35 -40 -44 -84 -14 -69 -7 -250 16 -401 15 -96 15 -110 1 -168 -32
-126 -54 -170 -103 -205 -63 -46 -88 -95 -102 -203 -21 -162 -91 -665 -128
-915 -32 -221 -35 -260 -31 -400 4 -132 9 -167 31 -235 41 -126 114 -213 206
-244 102 -34 272 8 408 100 65 44 186 153 378 341 88 86 161 155 163 153 5 -5
30 -191 52 -400 33 -300 30 -332 -73 -735 -47 -184 -97 -378 -111 -430 -33
-123 -33 -140 -1 -140 14 0 25 -4 25 -10 0 -10 -214 -1241 -226 -1296 -6 -31
-5 -32 84 -77 49 -26 94 -53 100 -60 14 -17 24 -107 57 -532 86 -1112 110
-1480 130 -1975 14 -323 22 -347 208 -603 236 -326 466 -638 504 -685 29 -37
42 -61 39 -75 -3 -12 -8 -56 -11 -97 -3 -41 -14 -160 -25 -265 -11 -104 -31
-302 -45 -440 -53 -523 -66 -649 -100 -947 -19 -168 -37 -324 -41 -346 -6 -39
-5 -40 25 -47 18 -4 31 -11 29 -16 -6 -16 -302 -330 -418 -442 -142 -138 -213
-178 -418 -236 -225 -63 -293 -102 -344 -198 -33 -62 -54 -141 -41 -154 5 -5
41 -18 79 -29 64 -19 100 -20 541 -20 l473 0 137 74 c76 40 165 90 199 109
l61 36 42 -21 c76 -38 254 -18 373 41 52 26 54 28 85 112 47 127 55 190 43
370 -10 158 -18 230 -27 263 -4 16 -1 17 35 11 22 -3 42 -2 45 3 4 4 36 186
72 403 36 217 70 419 76 449 l11 54 48 -101 c55 -116 113 -209 142 -224 14 -7
36 -6 81 5 34 8 78 18 98 21 l36 7 6 -119 c4 -65 16 -194 27 -288 27 -233 27
-245 -15 -319 -19 -35 -35 -71 -35 -82 -1 -30 -64 -109 -123 -152 -77 -57
-153 -145 -191 -221 -35 -68 -63 -148 -55 -155 3 -3 53 -10 113 -16 195 -20
381 18 567 117 251 132 319 247 395 676 l28 157 74 -2 74 -3 83 145 c46 80 94
166 106 193 l23 47 -34 73 c-144 312 -157 329 -319 442 -58 41 -113 85 -122
97 -35 51 -327 517 -553 883 -48 77 -120 208 -161 290 l-75 150 -10 150 c-5
83 -14 229 -21 325 -17 268 -16 277 34 540 25 135 98 529 161 875 64 347 156
853 206 1125 51 272 96 520 101 550 l10 55 157 30 157 30 -2 212 -2 211 27
-14 c61 -32 59 -34 192 244 366 765 686 1448 712 1521 30 84 26 173 -16 321
-19 69 -71 253 -114 410 -44 157 -128 456 -187 665 -69 245 -121 451 -145 580
-43 222 -58 275 -102 355 -49 87 -78 120 -163 183 -86 64 -365 207 -585 300
-74 32 -147 65 -161 75 -15 9 -88 74 -163 145 -75 70 -140 127 -146 127 -21 0
-98 -151 -308 -610 -44 -96 -104 -224 -132 -285 -141 -297 -243 -580 -324
-895 l-45 -175 -1 72 c-1 232 35 763 67 996 l16 117 29 0 c17 0 44 12 64 28
27 21 34 34 34 62 0 94 -91 151 -218 135 -47 -6 -63 -13 -94 -45 -34 -34 -38
-43 -38 -89 0 -44 3 -51 20 -51 31 0 26 -34 -40 -228 -88 -263 -136 -467 -211
-902 -36 -208 -39 -220 -33 -115 2 44 9 177 14 295 13 267 35 505 55 601 37
175 121 459 168 569 9 20 17 58 19 85 3 47 2 50 -23 53 -15 2 -64 -16 -120
-43 -52 -25 -152 -64 -224 -86 -400 -124 -487 -198 -550 -463 -24 -101 -30
-114 -114 -240 -49 -73 -108 -154 -131 -181 l-43 -49 7 69 c4 39 16 116 27
173 32 172 21 320 -25 338 -12 5 -9 14 14 51 16 25 41 76 55 112 14 37 46 102
71 146 70 120 71 123 125 277 85 242 100 291 106 355 7 79 -3 84 -89 47 -104
-45 -168 -30 -168 41 0 60 20 93 86 145 74 59 96 93 73 116 -8 8 -55 25 -103
38 -48 13 -92 28 -98 34 -8 8 -6 22 6 52 9 22 16 43 16 45 0 11 -37 4 -58 -11z
m81 -620 c30 -7 32 -14 15 -61 -12 -32 -28 -45 -28 -22 0 6 -14 31 -31 56 -29
44 -29 45 -7 39 13 -4 35 -9 51 -12z m-200 -1001 c-80 -95 -218 -139 -339
-107 -33 8 -64 20 -71 27 -14 15 -29 127 -17 127 5 0 43 -9 84 -20 41 -11 102
-20 135 -20 66 0 171 22 213 44 41 22 39 0 -5 -51z m3035 -1439 c94 -260 124
-374 123 -459 -1 -62 3 -90 19 -120 l20 -39 -30 -46 c-17 -26 -39 -76 -51
-111 -11 -35 -46 -111 -77 -169 -31 -58 -73 -136 -93 -175 l-38 -70 -11 30
c-21 56 -59 209 -76 309 -23 139 -15 285 24 436 16 63 54 216 83 339 35 147
56 217 61 205 4 -11 25 -69 46 -130z m-301 -2094 c164 -100 246 -208 217 -284
-5 -12 -16 0 -43 45 -36 62 -166 204 -231 252 -53 41 -18 32 57 -13z"/>
</g>
</svg>
