<?xml version="1.0" standalone="no"?>
<!DOCTYPE svg PUBLIC "-//W3C//DTD SVG 20010904//EN"
 "http://www.w3.org/TR/2001/REC-SVG-20010904/DTD/svg10.dtd">
<svg version="1.0" xmlns="http://www.w3.org/2000/svg"
 width="1024.000000pt" height="1536.000000pt" viewBox="0 0 1024.000000 1536.000000"
 preserveAspectRatio="xMidYMid meet">
<metadata>
Created by potrace 1.16, written by Peter Selinger 2001-2019
</metadata>
<g transform="translate(0.000000,1536.000000) scale(0.100000,-0.100000)"
fill="#000000" stroke="none">
<path d="M4772 14569 c-224 -29 -408 -131 -479 -266 -30 -57 -53 -139 -53
-189 0 -14 -20 -51 -48 -87 -55 -73 -94 -155 -124 -264 -17 -65 -22 -111 -24
-272 l-2 -194 -36 -76 c-19 -42 -47 -116 -62 -166 -26 -84 -28 -102 -28 -280
0 -150 3 -205 17 -260 22 -87 83 -213 137 -284 23 -29 40 -54 38 -55 -2 -2
-41 -20 -88 -41 -258 -117 -533 -273 -684 -388 -158 -120 -400 -372 -520 -540
l-41 -59 -6 89 c-4 48 -8 156 -8 238 -2 210 -12 278 -50 330 l-30 42 75 74
c92 90 192 220 240 313 51 96 58 179 20 236 -14 22 -37 47 -50 56 -23 14 -25
22 -24 93 0 123 -32 180 -125 223 -46 20 -67 23 -182 23 -92 0 -149 -6 -195
-18 -208 -56 -367 -198 -426 -384 -30 -94 -29 -367 2 -578 6 -40 6 -41 -53
-82 -67 -47 -138 -120 -155 -161 -15 -33 -20 -750 -8 -1007 32 -661 99 -886
301 -1016 82 -52 158 -71 289 -72 169 -1 322 39 453 121 22 13 41 22 43 20 2
-2 -3 -31 -11 -65 -33 -140 -86 -494 -124 -823 -56 -485 -71 -755 -78 -1412
-7 -652 -12 -604 74 -655 26 -15 81 -39 123 -54 l75 -27 26 -208 c48 -375 100
-636 299 -1524 61 -272 125 -548 141 -613 33 -131 33 -136 54 -479 9 -135 26
-365 40 -510 34 -375 48 -695 43 -979 l-5 -246 -31 -44 c-36 -52 -109 -124
-170 -167 -56 -40 -153 -76 -274 -101 -171 -36 -257 -78 -331 -161 -70 -77
-106 -196 -77 -250 30 -55 397 -120 679 -120 236 1 415 32 678 118 l173 56 42
-24 c41 -23 51 -24 213 -24 174 1 358 22 421 49 30 12 33 17 41 82 4 37 7 179
7 315 l-1 248 39 10 c48 13 53 27 62 150 4 52 11 158 16 235 36 512 48 1115
30 1465 -23 452 -25 531 -19 789 4 141 8 324 10 408 2 84 7 149 10 145 3 -4
20 -47 38 -97 63 -171 295 -743 365 -900 18 -39 47 -160 86 -350 32 -159 75
-364 95 -455 54 -249 127 -601 217 -1045 44 -220 87 -413 96 -430 19 -38 38
-52 81 -60 31 -6 33 -8 27 -37 -7 -36 -53 -147 -124 -303 -28 -60 -58 -139
-67 -175 -21 -81 -16 -170 11 -208 60 -82 307 -136 614 -135 341 1 555 70 647
207 54 80 56 98 43 425 l-12 296 23 15 c13 8 32 22 43 32 21 16 21 21 18 655
-4 914 -18 1156 -98 1641 -19 119 -40 267 -45 327 -13 159 -11 546 6 1055 8
245 15 479 15 521 l0 75 83 2 c238 4 456 135 559 335 69 136 78 396 17 522
l-14 30 -140 7 c-188 9 -310 24 -432 53 -115 27 -173 49 -173 64 0 14 -3 14
110 -5 220 -35 317 -45 535 -51 217 -5 231 -5 247 13 21 25 31 114 63 579 79
1169 56 1570 -134 2317 -71 278 -145 520 -232 754 -54 147 -175 436 -209 504
-69 135 -202 283 -332 368 -137 89 -471 248 -758 359 -163 64 -177 72 -258
156 -83 86 -111 140 -112 212 0 47 3 52 37 75 61 41 159 138 192 189 50 77 73
155 74 251 2 95 -8 130 -60 202 l-34 47 17 58 c39 132 15 368 -51 517 -34 76
-114 193 -166 240 -22 21 -50 55 -64 76 -56 89 -243 221 -398 281 -221 85
-500 119 -735 88z m1172 -2216 c13 -25 12 -30 -12 -68 -29 -47 -93 -129 -217
-280 -325 -393 -769 -1001 -1032 -1411 -12 -18 -12 -17 -8 6 5 28 39 418 55
640 l11 145 102 103 c56 56 107 102 113 102 5 0 54 -41 107 -91 53 -50 97 -87
97 -82 0 14 -89 144 -145 213 -30 36 -86 96 -124 135 -39 38 -71 72 -71 76 0
4 30 10 68 14 89 9 266 49 374 85 217 73 490 248 618 397 19 23 38 42 42 42 4
1 14 -11 22 -26z m-1568 -386 c39 -20 100 -45 135 -57 35 -12 67 -25 72 -29 4
-4 -17 -24 -48 -45 -67 -47 -225 -210 -283 -294 -24 -34 -40 -62 -36 -62 4 0
43 34 86 76 46 44 84 72 89 67 5 -5 17 -55 26 -111 l18 -103 -24 -42 c-147
-262 -218 -410 -313 -652 l-39 -100 6 150 c3 83 8 170 10 195 2 25 7 86 10
135 25 375 97 813 151 916 l15 30 27 -19 c15 -11 59 -36 98 -55z m-2326 -251
c12 -14 43 -32 69 -41 62 -22 243 -31 323 -16 66 13 165 46 184 62 19 16 26
-21 9 -47 -21 -32 -120 -81 -214 -105 -101 -27 -264 -30 -343 -6 -88 27 -123
90 -82 152 20 31 25 31 54 1z"/>
</g>
</svg>
