<?xml version="1.0" standalone="no"?>
<!DOCTYPE svg PUBLIC "-//W3C//DTD SVG 20010904//EN"
 "http://www.w3.org/TR/2001/REC-SVG-20010904/DTD/svg10.dtd">
<svg version="1.0" xmlns="http://www.w3.org/2000/svg"
 width="1024.000000pt" height="1536.000000pt" viewBox="0 0 1024.000000 1536.000000"
 preserveAspectRatio="xMidYMid meet">
<metadata>
Created by potrace 1.16, written by Peter Selinger 2001-2019
</metadata>
<g transform="translate(0.000000,1536.000000) scale(0.100000,-0.100000)"
fill="#000000" stroke="none">
<path d="M4952 14640 c-162 -23 -325 -89 -490 -200 -116 -77 -166 -128 -246
-248 -127 -191 -160 -292 -160 -487 0 -104 4 -147 23 -216 l23 -87 -21 -40
c-59 -116 -41 -344 39 -480 19 -32 20 -45 14 -225 -6 -170 -4 -203 14 -290 23
-108 59 -195 121 -286 23 -33 41 -62 41 -64 0 -3 -24 -15 -52 -27 -29 -12
-123 -55 -208 -95 -85 -40 -186 -85 -225 -100 -178 -70 -290 -148 -348 -243
-67 -108 -225 -508 -344 -865 l-76 -228 -27 50 c-15 27 -58 93 -95 146 l-68
98 13 71 c6 39 25 124 41 189 83 331 92 412 59 485 -24 54 -89 87 -155 79
l-43 -4 -17 56 c-19 65 -58 125 -98 155 -44 32 -170 29 -256 -6 -141 -59 -326
-191 -379 -270 -26 -41 -27 -45 -26 -182 1 -174 35 -352 118 -620 l56 -178
-34 -57 c-54 -89 -75 -137 -92 -202 -14 -55 -14 -68 0 -137 48 -234 274 -636
527 -933 113 -134 198 -207 298 -257 67 -33 80 -36 160 -36 120 0 230 39 336
119 l48 37 -7 -44 c-30 -214 -79 -711 -81 -833 -2 -82 -10 -220 -19 -305 -38
-380 -61 -703 -61 -875 0 -149 9 -165 122 -222 43 -21 80 -39 82 -40 3 -2 10
-55 61 -498 85 -727 223 -2021 249 -2325 66 -775 91 -1231 91 -1693 0 -252 2
-304 16 -332 l16 -34 -53 -78 c-87 -130 -124 -176 -184 -231 -72 -66 -85 -73
-218 -111 -130 -38 -175 -59 -234 -114 -66 -61 -97 -127 -98 -209 0 -81 19
-112 89 -146 66 -32 156 -50 311 -63 312 -25 620 28 901 156 74 34 78 35 97
18 41 -37 300 -10 451 47 33 13 75 37 95 56 l36 33 -2 163 c-1 121 -8 200 -26
308 l-24 145 28 26 c16 15 29 35 29 46 0 10 7 212 16 448 13 334 16 675 15
1530 -1 605 1 1251 5 1435 l7 335 24 -145 c13 -80 53 -305 88 -500 292 -1623
390 -2283 450 -3040 25 -321 25 -320 46 -341 10 -10 26 -19 34 -19 8 0 15 -7
15 -15 0 -28 -111 -288 -168 -395 -103 -192 -129 -250 -141 -311 -12 -59 -10
-76 11 -132 24 -62 180 -104 419 -114 178 -7 309 6 439 43 157 46 248 99 317
188 18 24 51 62 72 84 59 61 65 99 67 387 1 217 3 255 19 290 16 37 18 98 19
940 1 926 -3 1070 -44 1620 -52 688 -54 1154 -10 2223 l10 243 34 30 c65 57
65 54 32 639 -8 140 -18 338 -22 440 -6 178 -6 187 15 228 31 62 35 119 17
273 -35 298 -78 1050 -61 1067 3 3 5 -8 5 -24 0 -16 7 -74 15 -129 68 -444
110 -945 136 -1605 14 -359 13 -356 55 -398 l34 -34 -19 -36 c-35 -69 -70
-187 -85 -287 -25 -162 -47 -370 -48 -463 -2 -97 10 -133 55 -166 26 -19 30
-19 69 -6 29 11 46 25 59 50 l19 35 1 -35 c2 -59 -1 -73 -32 -135 -16 -34 -29
-77 -29 -98 0 -185 439 -46 636 201 62 79 129 220 155 327 22 94 22 130 3 471
l-6 110 40 12 c44 13 88 58 98 99 9 33 -14 1342 -26 1548 -30 501 -72 821
-180 1371 -108 552 -292 1240 -383 1434 -33 71 -98 146 -164 191 -105 73 -430
219 -784 354 -216 82 -238 94 -292 157 -70 83 -195 255 -202 279 -4 12 -2 48
5 80 12 57 15 61 70 94 160 97 247 271 238 480 -5 110 -33 193 -82 238 -25 23
-25 24 -9 68 25 68 29 269 9 363 -33 146 -117 268 -224 326 -47 26 -63 41 -92
93 -19 34 -65 92 -101 128 -83 84 -228 159 -364 189 -103 23 -344 34 -443 20z
m437 -1115 c30 -15 41 -33 41 -65 0 -15 -12 -21 -57 -30 -32 -6 -116 -26 -188
-45 -182 -47 -210 -50 -240 -31 -32 21 -33 60 -2 80 12 9 58 27 102 42 196 64
290 77 344 49z m-853 -70 c126 -26 144 -35 144 -71 0 -32 -40 -48 -99 -39
-100 15 -291 71 -291 86 0 17 64 49 97 49 18 0 85 -11 149 -25z m557 -666
c183 -92 299 -195 301 -267 1 -37 1 -37 -43 -40 -59 -4 -214 30 -356 78 -64
22 -133 40 -155 40 -23 0 -87 -18 -147 -41 -138 -53 -273 -99 -290 -99 -21 0
-15 62 12 116 30 61 68 98 165 163 l75 50 35 -33 c46 -44 71 -56 116 -56 53 0
118 34 162 86 20 24 38 43 40 44 1 0 39 -19 85 -41z m764 -493 c-15 -104 -128
-335 -326 -666 -77 -129 -144 -242 -149 -250 -7 -11 -21 -1 -68 45 -62 64
-216 245 -222 264 -2 6 6 11 19 11 34 0 156 63 234 121 140 105 424 407 480
512 16 30 21 34 28 21 5 -9 7 -35 4 -58z m-1216 -539 c56 -19 104 -38 106 -43
5 -14 -205 -225 -244 -247 l-33 -18 0 191 0 192 34 -21 c18 -12 80 -36 137
-54z m45 -307 l24 -71 -84 -257 c-46 -141 -98 -309 -116 -372 -45 -162 -50
-169 -45 -65 2 50 4 237 4 417 l1 327 93 48 c50 27 94 48 96 46 2 -1 14 -34
27 -73z m549 -6 c79 -52 125 -89 125 -101 0 -3 -47 -96 -104 -207 -87 -168
-217 -427 -264 -526 -13 -27 -12 7 9 509 l11 254 61 68 c34 37 66 65 72 61 5
-3 46 -29 90 -58z m-2475 -900 c34 -89 -38 -199 -196 -300 -70 -45 -255 -134
-265 -128 -10 6 -66 143 -74 183 l-7 33 30 -22 c27 -20 39 -22 90 -17 117 10
325 143 377 241 23 43 32 45 45 10z"/>
</g>
</svg>
