<?xml version="1.0" standalone="no"?>
<!DOCTYPE svg PUBLIC "-//W3C//DTD SVG 20010904//EN"
 "http://www.w3.org/TR/2001/REC-SVG-20010904/DTD/svg10.dtd">
<svg version="1.0" xmlns="http://www.w3.org/2000/svg"
 width="1024.000000pt" height="1536.000000pt" viewBox="0 0 1024.000000 1536.000000"
 preserveAspectRatio="xMidYMid meet">
<metadata>
Created by potrace 1.16, written by Peter Selinger 2001-2019
</metadata>
<g transform="translate(0.000000,1536.000000) scale(0.100000,-0.100000)"
fill="#000000" stroke="none">
<path d="M5200 14593 c-184 -14 -349 -58 -505 -134 -191 -94 -303 -202 -351
-337 -42 -120 -26 -265 37 -337 l31 -34 -16 -77 c-21 -102 -20 -198 4 -330 35
-194 35 -174 -11 -281 -54 -128 -69 -178 -69 -236 0 -76 22 -107 76 -107 26 0
33 -5 38 -27 3 -16 19 -93 36 -173 38 -182 52 -224 100 -299 84 -129 242 -194
356 -146 34 14 35 14 45 -13 19 -51 91 -187 117 -221 24 -32 24 -34 6 -44 -98
-54 -181 -261 -140 -349 16 -34 16 -36 -17 -109 -72 -157 -159 -469 -197 -699
-21 -124 -30 -124 -24 0 23 525 60 766 165 1084 27 82 49 152 49 154 0 9 -116
-9 -175 -27 -33 -11 -94 -33 -136 -49 -42 -17 -157 -59 -255 -93 -319 -110
-359 -136 -496 -326 -157 -218 -573 -721 -585 -709 -5 5 -40 157 -78 336 -14
63 -40 207 -60 320 -42 245 -62 296 -133 337 -26 15 -49 28 -51 29 -2 2 36 45
84 96 194 206 305 409 305 556 0 69 -21 104 -74 123 -33 12 -34 13 -38 85 -6
84 -43 171 -86 201 -39 26 -209 22 -363 -10 -137 -29 -180 -48 -235 -102 -129
-130 -160 -481 -83 -945 26 -153 52 -227 86 -243 54 -24 203 26 326 110 77 53
99 51 105 -6 6 -62 -100 -140 -267 -198 -71 -24 -113 -33 -163 -33 -79 0 -79
0 -97 105 -16 96 -22 103 -59 76 -44 -31 -130 -133 -147 -175 -20 -48 -19 -64
14 -201 16 -66 46 -201 66 -300 88 -433 256 -1016 337 -1167 40 -76 107 -151
165 -185 55 -32 163 -42 244 -23 177 43 599 257 781 396 31 24 59 44 62 44 10
0 6 -587 -4 -740 -14 -190 -32 -333 -81 -625 -58 -344 -55 -312 -29 -340 l23
-24 -22 -193 c-11 -106 -26 -247 -31 -313 -6 -66 -15 -167 -20 -225 -5 -58
-17 -214 -26 -348 -19 -277 -18 -285 52 -339 83 -63 79 -53 98 -238 10 -94 19
-180 21 -192 2 -13 11 -96 19 -185 39 -394 77 -781 101 -1008 14 -135 36 -355
50 -490 38 -366 72 -846 86 -1195 14 -373 6 -1163 -16 -1535 -8 -140 -15 -265
-15 -277 0 -17 8 -25 33 -31 24 -7 31 -13 29 -28 -6 -35 -61 -110 -130 -176
-124 -120 -241 -181 -457 -238 -207 -55 -297 -116 -331 -222 -16 -53 -16 -57
2 -94 34 -70 141 -108 394 -139 254 -31 412 -14 627 66 208 77 326 118 345
119 9 0 20 -9 23 -21 17 -52 165 -64 346 -29 124 24 187 53 213 98 18 32 18
45 8 285 -8 163 -8 253 -2 255 5 2 19 11 29 20 19 16 21 38 31 302 6 157 15
398 20 535 29 736 32 965 24 1460 -15 896 -8 2142 12 2122 2 -2 26 -97 53
-213 52 -221 156 -591 266 -946 143 -462 251 -905 320 -1318 33 -198 101 -674
120 -845 8 -77 24 -210 35 -295 11 -85 29 -240 40 -345 32 -292 57 -477 69
-507 10 -27 56 -58 86 -58 8 0 15 -4 15 -9 0 -5 -23 -121 -51 -257 -94 -467
-97 -496 -41 -545 60 -54 204 -92 392 -104 247 -16 551 61 603 152 21 36 27
-3 -94 557 -22 99 -39 185 -39 193 0 7 11 13 26 13 15 0 38 12 56 31 l31 31
-6 411 c-9 518 -34 1055 -82 1748 -8 116 -32 321 -55 470 -22 145 -49 320 -60
389 -57 381 -156 1309 -176 1668 -9 154 9 166 24 16 14 -143 20 -149 127 -138
74 7 120 8 218 3 27 -1 59 9 105 32 124 64 192 180 246 422 26 116 27 122 18
323 -5 112 -12 207 -16 211 -9 9 -507 28 -539 19 -15 -3 -45 -23 -67 -42 l-40
-36 0 81 c0 63 3 83 15 87 8 3 99 -6 202 -21 203 -28 421 -42 496 -31 84 13
80 -9 95 545 16 596 10 1312 -12 1571 -41 478 -105 995 -182 1475 -113 710
-126 772 -177 851 -28 45 -92 101 -144 128 -56 28 -610 266 -759 325 l-141 56
-132 138 c-73 75 -139 137 -146 137 -7 0 -15 -6 -18 -12 -3 -7 -26 -65 -52
-128 -46 -116 -122 -265 -200 -395 -23 -38 -62 -108 -85 -155 -24 -47 -76
-143 -116 -215 -39 -71 -95 -177 -123 -233 -54 -107 -218 -486 -242 -557 -7
-22 -17 -44 -22 -50 -12 -13 -1 593 13 710 9 72 15 95 35 115 78 82 82 250 8
364 -14 21 -21 41 -16 45 40 30 195 127 268 168 432 244 446 253 470 317 10
28 16 86 18 181 3 161 9 176 108 305 146 189 232 370 276 580 32 156 34 396 4
511 -20 80 -72 190 -114 247 -61 81 -296 317 -357 357 -178 118 -419 169 -700
148z m1652 -5165 c15 -68 39 -184 54 -258 l28 -135 -1 -430 c0 -236 -5 -500
-11 -585 -6 -85 -14 -207 -18 -270 -3 -63 -10 -133 -14 -155 l-8 -40 -1 35
c-1 48 -50 419 -65 502 -12 62 -11 70 6 95 17 24 19 40 14 113 -3 47 -17 157
-31 245 -35 221 -41 425 -21 650 9 99 20 219 23 268 3 48 9 87 12 87 3 0 18
-55 33 -122z"/>
</g>
</svg>
