<?xml version="1.0" standalone="no"?>
<!DOCTYPE svg PUBLIC "-//W3C//DTD SVG 20010904//EN"
 "http://www.w3.org/TR/2001/REC-SVG-20010904/DTD/svg10.dtd">
<svg version="1.0" xmlns="http://www.w3.org/2000/svg"
 width="1024.000000pt" height="1536.000000pt" viewBox="0 0 1024.000000 1536.000000"
 preserveAspectRatio="xMidYMid meet">
<metadata>
Created by potrace 1.16, written by Peter Selinger 2001-2019
</metadata>
<g transform="translate(0.000000,1536.000000) scale(0.100000,-0.100000)"
fill="#000000" stroke="none">
<path d="M5762 15019 c-124 -19 -322 -97 -432 -172 -66 -45 -207 -166 -267
-230 -134 -141 -211 -328 -234 -564 -5 -59 -17 -134 -25 -166 -27 -104 6 -202
84 -245 36 -20 42 -28 42 -57 0 -47 -26 -179 -55 -275 -14 -46 -25 -89 -25
-96 0 -8 28 -21 62 -32 l62 -18 21 -84 c25 -98 76 -205 111 -233 14 -10 31
-31 38 -45 19 -38 76 -210 76 -231 0 -9 5 -22 12 -29 14 -14 18 -10 -62 -57
-205 -118 -349 -270 -475 -500 -21 -38 -90 -149 -153 -245 -115 -175 -286
-459 -335 -557 -25 -48 -30 -52 -69 -57 -24 -2 -110 -12 -193 -21 -82 -10
-177 -26 -210 -38 -124 -41 -278 -167 -344 -279 -55 -95 -95 -222 -96 -306 0
-79 8 -92 56 -92 28 0 53 22 67 60 8 21 10 17 16 -28 5 -36 12 -55 26 -62 31
-17 65 -11 90 15 27 29 40 32 40 10 0 -17 56 -55 81 -55 8 0 44 19 79 41 59
39 166 89 190 89 5 0 10 -7 10 -15 0 -8 -6 -15 -14 -15 -36 0 -182 -66 -207
-93 l-27 -29 -347 41 c-192 23 -350 43 -352 45 -2 2 -29 73 -59 157 -30 85
-111 305 -179 489 -69 184 -172 468 -230 630 -58 162 -116 322 -129 355 l-24
60 -158 17 c-88 10 -328 38 -534 62 -206 25 -420 50 -475 56 -55 6 -113 13
-128 16 -27 6 -28 4 -22 -17 16 -53 150 -391 265 -669 67 -162 184 -464 261
-670 123 -328 236 -620 243 -627 2 -2 95 -18 208 -37 117 -19 216 -41 230 -50
13 -8 45 -40 71 -71 26 -30 69 -69 95 -86 26 -17 90 -74 142 -125 76 -75 103
-95 135 -102 30 -6 41 -13 43 -30 3 -16 10 -22 30 -22 15 0 55 -12 88 -27 61
-26 62 -27 105 -116 24 -50 63 -116 86 -148 47 -64 139 -170 160 -182 7 -4 40
1 76 12 63 19 156 35 281 47 l69 7 -7 -49 c-45 -316 -58 -650 -58 -1428 0
-561 3 -691 14 -702 25 -25 303 -161 355 -175 31 -7 55 -19 57 -28 20 -71 76
-410 71 -430 -3 -15 -10 -143 -15 -286 -20 -611 -32 -849 -50 -995 -62 -503
-72 -650 -60 -870 11 -176 10 -194 -14 -370 -61 -448 -77 -573 -111 -865 -75
-651 -81 -686 -113 -741 -79 -133 -111 -199 -144 -295 -20 -57 -68 -177 -107
-266 -39 -89 -71 -165 -71 -170 -1 -8 -231 -153 -244 -153 -4 0 -35 -13 -70
-30 -131 -61 -176 -68 -656 -110 -201 -17 -244 -43 -262 -156 -8 -53 -16 -73
-34 -87 -33 -26 -31 -66 4 -99 40 -38 95 -63 223 -102 63 -19 179 -54 259 -79
197 -61 278 -77 444 -84 166 -7 227 2 400 57 120 38 373 100 407 100 12 0 30
-22 51 -62 18 -34 45 -70 59 -81 44 -32 168 -42 358 -29 182 13 268 28 356 64
l58 23 -2 88 c-1 49 -7 137 -13 195 -17 177 -16 207 7 209 11 1 55 5 98 8 75
7 77 7 77 33 0 56 67 319 254 1006 225 822 281 1106 361 1823 28 260 44 354
90 561 30 137 55 258 55 267 0 10 2 16 5 13 3 -2 36 -112 74 -244 126 -433
322 -1033 405 -1234 21 -51 30 -98 41 -220 8 -85 29 -283 47 -440 l31 -285
-17 -195 c-25 -284 -35 -452 -36 -566 0 -69 -10 -152 -30 -261 -17 -88 -41
-230 -54 -314 l-24 -154 -95 -92 c-99 -95 -175 -152 -263 -196 -29 -14 -99
-58 -158 -97 -132 -89 -171 -138 -169 -217 1 -40 -2 -53 -13 -53 -45 0 -71
-82 -36 -113 48 -44 273 -111 460 -138 128 -18 395 -6 587 26 185 30 235 44
327 92 75 39 183 145 218 212 l20 40 37 -16 c28 -11 63 -14 143 -11 l107 3 82
50 c46 28 94 63 108 80 l25 29 -2 201 c-2 110 -2 207 -2 216 2 11 18 19 54 25
l52 9 22 220 c13 121 34 330 48 465 116 1130 110 1644 -35 2785 -34 268 -34
337 0 580 45 317 91 804 91 961 0 53 14 129 55 294 30 122 62 265 71 319 10
62 21 100 31 108 9 7 46 24 82 37 36 14 118 45 181 69 l115 43 -2 145 c-4 283
-33 574 -114 1159 -67 484 -138 836 -211 1057 l-40 122 41 97 c23 53 53 135
67 183 24 81 34 138 83 441 11 69 40 195 66 280 58 197 170 642 190 757 38
214 30 380 -30 598 -69 251 -141 390 -273 527 -144 150 -367 308 -672 478
-190 106 -209 123 -335 312 -58 87 -97 136 -125 154 -23 16 -40 35 -40 46 0
10 -7 29 -16 43 -13 21 -14 45 -6 191 8 139 7 204 -8 380 -10 116 -24 230 -30
253 -24 89 -117 266 -182 346 -132 162 -296 300 -438 369 l-85 41 -140 2 c-77
1 -168 -3 -203 -8z m1106 -1773 c-33 -62 -197 -263 -427 -521 -409 -459 -585
-648 -589 -634 -2 8 -22 64 -44 124 -23 61 -51 142 -63 182 l-23 72 51 17 c29
9 84 31 122 49 83 38 376 210 449 264 98 72 331 289 420 389 69 77 93 99 103
91 10 -9 10 -16 1 -33z m-1368 -775 c0 -5 -11 -34 -25 -65 -20 -44 -25 -74
-26 -139 -3 -185 -2 -184 -111 -300 -122 -132 -267 -369 -359 -590 -17 -42
-34 -76 -36 -73 -5 5 70 207 132 356 69 163 240 499 307 602 31 48 62 106 68
129 18 64 29 89 40 89 5 0 10 -4 10 -9z m322 -338 l27 -67 -112 -125 c-62 -69
-155 -174 -206 -233 -52 -60 -96 -108 -98 -108 -18 0 58 194 145 363 49 98 62
114 131 172 42 35 79 64 82 65 3 0 17 -30 31 -67z m-912 -1344 c-38 -53 -64
-124 -101 -274 -29 -118 -53 -343 -41 -387 5 -20 2 -21 -38 -15 -24 3 -52 15
-63 26 -20 20 -21 24 -8 121 20 162 89 382 156 496 19 32 36 46 67 57 61 22
61 21 28 -24z m-1238 -265 c-41 -41 -77 -73 -78 -71 -9 8 80 128 108 146 62
39 46 0 -30 -75z m-162 -602 c-1 -138 -57 -298 -135 -389 -38 -45 -61 -52
-109 -33 -26 9 -84 86 -73 96 3 4 29 1 57 -6 65 -16 85 -10 141 42 61 57 90
132 97 255 5 94 22 121 22 35z"/>
</g>
</svg>
