<?xml version="1.0" standalone="no"?>
<!DOCTYPE svg PUBLIC "-//W3C//DTD SVG 20010904//EN"
 "http://www.w3.org/TR/2001/REC-SVG-20010904/DTD/svg10.dtd">
<svg version="1.0" xmlns="http://www.w3.org/2000/svg"
 width="1024.000000pt" height="1024.000000pt" viewBox="0 0 1024.000000 1024.000000"
 preserveAspectRatio="xMidYMid meet">
<metadata>
Created by potrace 1.16, written by Peter Selinger 2001-2019
</metadata>
<g transform="translate(0.000000,1024.000000) scale(0.100000,-0.100000)"
fill="#000000" stroke="none">
<path d="M5317 10110 c-88 -22 -406 -178 -482 -236 -41 -32 -100 -100 -147
-173 -35 -52 -10 -134 49 -164 59 -31 60 -34 82 -237 8 -81 20 -111 51 -133
23 -16 26 -47 15 -177 -8 -94 10 -135 71 -165 49 -23 78 -56 130 -145 109
-190 129 -205 213 -167 62 29 79 26 121 -19 l31 -35 -24 -19 c-23 -18 -24 -23
-15 -61 6 -22 17 -43 25 -46 11 -4 7 -13 -16 -37 -16 -17 -49 -71 -71 -119
-43 -92 -49 -128 -9 -58 12 23 27 41 32 41 17 0 0 -117 -36 -236 -53 -177
-121 -517 -150 -749 -9 -67 -6 124 3 267 17 250 38 402 85 598 55 226 73 288
91 318 17 26 12 29 -11 6 -8 -9 -93 -49 -188 -88 -212 -89 -221 -94 -280 -146
-69 -61 -83 -96 -102 -250 -9 -74 -23 -182 -31 -240 -25 -178 -42 -338 -54
-505 -6 -88 -15 -164 -20 -169 -6 -6 -63 1 -143 17 -73 14 -144 23 -158 20
-45 -11 -236 -132 -261 -165 -14 -18 -33 -49 -43 -68 -10 -19 -37 -56 -61 -82
-43 -46 -59 -80 -52 -115 5 -27 73 -29 138 -3 36 14 71 20 114 18 65 -2 87 6
147 53 42 33 53 35 102 14 20 -8 57 -15 82 -15 38 0 45 -3 45 -20 0 -11 15
-36 32 -54 28 -30 58 -43 206 -90 96 -31 182 -56 193 -56 36 0 67 78 89 220 6
41 14 77 17 80 11 10 -15 -321 -27 -340 -6 -9 -53 2 -181 44 -310 100 -493
124 -819 109 -107 -5 -196 -8 -198 -7 -1 0 -16 55 -33 120 -23 90 -314 1123
-345 1227 -3 10 -20 27 -37 38 -31 18 -56 19 -559 19 -453 0 -528 -2 -528 -14
0 -8 23 -79 51 -158 28 -79 129 -367 224 -640 96 -273 183 -514 194 -536 11
-22 34 -50 50 -61 37 -26 136 -49 225 -52 63 -2 71 -5 95 -32 46 -53 61 -64
104 -77 26 -7 63 -32 98 -65 46 -44 65 -55 113 -65 32 -6 72 -20 90 -31 18
-10 68 -28 112 -39 73 -19 129 -46 126 -63 -3 -18 31 -93 58 -127 46 -58 99
-75 213 -66 94 7 114 11 320 65 115 30 191 39 200 24 3 -5 -4 -51 -14 -103
-11 -52 -21 -135 -24 -185 -4 -78 -63 -453 -136 -863 -26 -142 -22 -160 41
-192 44 -22 45 -29 30 -108 -46 -246 -125 -1370 -125 -1772 1 -119 8 -272 18
-365 22 -206 47 -709 47 -939 0 -98 -7 -299 -16 -445 -9 -146 -14 -285 -11
-308 4 -41 1 -47 -58 -115 -167 -196 -267 -250 -533 -293 -140 -23 -212 -69
-212 -136 0 -38 30 -55 110 -62 36 -4 102 -17 148 -31 217 -66 438 -58 636 21
89 35 90 35 160 23 39 -7 146 -14 237 -17 158 -5 167 -5 187 15 29 29 37 138
22 313 -14 163 -14 147 -1 369 6 91 15 262 21 380 6 118 17 346 25 505 19 368
19 527 0 640 -11 68 -12 100 -3 132 12 48 7 132 -13 240 -12 69 -12 76 23 230
20 87 44 199 53 248 31 171 44 231 90 420 26 105 54 225 63 267 9 43 19 78 22
78 3 0 14 -55 23 -123 10 -67 60 -336 112 -597 51 -261 114 -580 139 -708 26
-128 67 -326 93 -440 l47 -207 -1 -280 c0 -217 -4 -300 -17 -367 -18 -95 -50
-345 -62 -475 -4 -58 -3 -92 6 -113 11 -27 8 -37 -35 -127 -41 -84 -61 -111
-155 -207 -108 -112 -125 -135 -140 -188 -10 -34 4 -83 28 -95 18 -8 592 -16
627 -8 11 2 28 17 37 33 16 27 23 29 92 35 94 7 133 28 143 77 11 50 7 263 -6
340 -12 71 -15 64 50 110 20 14 22 31 35 195 22 300 44 856 44 1104 0 267 -12
462 -40 636 -11 66 -24 201 -30 300 -6 99 -17 234 -25 300 -10 91 -12 229 -8
575 4 401 7 464 24 529 17 66 35 212 42 330 l2 44 70 19 c79 22 133 53 141 83
2 11 -29 220 -70 464 -42 244 -73 447 -71 451 3 4 -2 34 -11 66 -23 89 -44
258 -44 365 l0 96 57 34 c43 25 66 48 89 86 79 132 237 735 278 1058 9 66 22
156 31 200 23 123 29 268 16 405 -10 110 -15 134 -46 197 -58 117 -157 193
-393 298 -241 107 -365 184 -433 268 -24 28 -48 55 -54 59 -5 4 -18 -19 -30
-55 -41 -122 -179 -398 -300 -602 -86 -145 -145 -273 -202 -440 -22 -64 -23
-66 -18 -25 3 25 8 133 12 241 l6 196 39 42 c22 22 42 41 45 41 3 0 23 -14 44
-31 21 -17 39 -27 39 -21 0 16 -81 126 -132 179 l-51 51 68 49 c158 112 290
230 389 346 l49 58 -26 27 c-35 37 -35 69 2 264 80 418 81 618 4 759 -51 94
-206 220 -322 262 -83 30 -242 33 -344 7z m-947 -3304 c0 -39 -42 -79 -124
-119 -42 -20 -79 -37 -83 -37 -15 0 47 55 120 106 42 30 77 59 77 64 0 6 2 10
5 10 3 0 5 -11 5 -24z m-202 -536 c24 -48 28 -106 9 -131 -34 -45 -127 -61
-227 -38 -43 9 -157 75 -147 85 2 2 35 -10 73 -28 87 -41 176 -49 234 -23 22
10 42 27 46 37 8 25 -3 84 -23 121 -12 23 -12 28 -1 25 7 -2 23 -24 36 -48z"/>
</g>
</svg>
