<?xml version="1.0" standalone="no"?>
<!DOCTYPE svg PUBLIC "-//W3C//DTD SVG 20010904//EN"
 "http://www.w3.org/TR/2001/REC-SVG-20010904/DTD/svg10.dtd">
<svg version="1.0" xmlns="http://www.w3.org/2000/svg"
 width="1024.000000pt" height="1536.000000pt" viewBox="0 0 1024.000000 1536.000000"
 preserveAspectRatio="xMidYMid meet">
<metadata>
Created by potrace 1.16, written by Peter Selinger 2001-2019
</metadata>
<g transform="translate(0.000000,1536.000000) scale(0.100000,-0.100000)"
fill="#000000" stroke="none">
<path d="M4715 15113 c-86 -12 -200 -48 -285 -90 -161 -79 -271 -211 -287
-344 -4 -36 -14 -64 -31 -84 -77 -93 -91 -193 -41 -307 30 -69 31 -71 24 -187
-7 -107 -6 -122 14 -162 11 -24 26 -51 33 -60 9 -13 9 -39 -2 -117 -17 -128
-7 -183 57 -312 38 -78 47 -109 53 -173 4 -42 10 -80 13 -84 4 -3 -21 -35 -53
-71 -33 -36 -75 -95 -94 -132 -19 -39 -53 -85 -80 -110 -63 -58 -90 -107 -116
-210 -18 -67 -21 -100 -15 -155 3 -38 8 -95 10 -125 4 -53 3 -53 -6 -16 -5 22
-11 41 -13 43 -9 9 -149 -72 -171 -99 -62 -73 -102 -183 -111 -303 -4 -55 -18
-114 -44 -190 -21 -60 -46 -137 -56 -170 -9 -33 -27 -81 -40 -107 -13 -26 -24
-54 -24 -61 0 -8 -25 -62 -55 -121 -30 -59 -71 -153 -90 -209 -28 -81 -50
-122 -105 -197 -38 -52 -87 -121 -109 -153 -102 -149 -116 -312 -45 -528 31
-97 81 -179 147 -247 133 -135 299 -151 423 -39 53 47 137 97 163 97 12 0 79
-29 149 -64 183 -91 170 -92 164 1 -6 121 22 306 59 377 17 32 28 65 25 72 -3
9 2 14 14 14 11 0 20 -1 20 -3 0 -2 -14 -43 -30 -92 -59 -175 -71 -311 -40
-450 5 -22 8 -41 6 -42 -1 -2 -73 22 -160 52 -86 30 -160 55 -164 55 -4 0 -18
-39 -31 -88 -37 -135 -117 -399 -182 -598 -32 -100 -59 -191 -59 -202 0 -11
13 -31 30 -44 l30 -23 -19 -100 c-58 -298 -161 -1218 -161 -1428 l0 -58 40
-17 c45 -19 44 -12 30 -162 -54 -593 -98 -1399 -127 -2326 -8 -288 2 -340 98
-459 64 -81 481 -921 676 -1365 101 -230 118 -264 196 -380 68 -102 82 -137
112 -276 41 -195 98 -341 148 -381 20 -15 24 -27 23 -63 -1 -25 -7 -55 -14
-67 -7 -12 -12 -37 -12 -56 0 -25 -6 -39 -24 -50 -14 -10 -38 -51 -62 -108
-27 -62 -60 -117 -104 -173 -36 -44 -88 -110 -115 -146 -80 -104 -52 -88 -347
-194 -219 -78 -301 -127 -353 -210 -23 -38 -23 -100 0 -126 47 -52 257 -86
459 -75 346 19 621 73 696 137 15 13 -1 -2 -34 -32 -158 -143 -261 -256 -301
-330 -36 -69 -40 -82 -40 -152 0 -74 1 -78 34 -112 121 -125 572 -107 856 33
165 82 256 169 328 312 25 50 37 65 48 59 27 -14 128 -20 177 -9 96 20 133 98
131 279 0 52 4 116 9 143 11 54 1 179 -23 278 -24 102 -21 115 22 130 71 22
113 44 113 57 0 7 16 153 35 325 19 171 53 492 75 712 23 220 50 492 62 605
25 241 30 693 10 930 -50 591 -63 929 -52 1366 19 759 39 1100 102 1680 l11
111 85 6 c95 6 135 26 140 70 9 71 -149 1358 -187 1528 -7 30 -5 40 10 53 12
10 19 29 19 50 0 34 -35 206 -70 346 -10 41 -26 138 -35 215 -14 128 -14 147
0 208 8 37 20 79 26 94 6 16 28 97 50 181 27 106 63 209 118 340 165 391 267
674 315 872 74 309 93 729 41 934 -54 210 -168 307 -540 455 -352 141 -484
227 -681 442 l-60 66 4 -53 c6 -71 -23 -131 -175 -359 -174 -262 -285 -463
-418 -755 -45 -97 -94 -184 -101 -178 -1 2 6 78 16 168 11 91 20 197 20 236
l0 72 45 11 c50 13 54 24 35 111 -18 78 -30 99 -66 112 -21 7 -34 18 -32 27 2
8 40 37 86 63 261 150 467 331 556 489 29 51 27 68 -15 141 l-39 66 34 50 c35
53 135 282 193 442 147 406 68 793 -210 1028 -192 163 -518 259 -762 225z
m-231 -2132 c10 -15 -22 -20 -34 -5 -10 11 -9 14 8 14 12 0 23 -4 26 -9z m329
-303 l35 -88 -36 0 c-47 0 -51 -3 -96 -74 l-37 -58 25 -27 c14 -15 26 -32 26
-38 0 -6 -18 -49 -40 -95 -22 -45 -55 -143 -75 -217 -19 -74 -44 -154 -55
-179 -11 -24 -20 -53 -20 -63 0 -11 -4 -19 -9 -19 -10 0 -7 38 14 175 8 50 21
155 30 235 32 287 39 320 94 428 33 66 52 118 56 154 10 84 16 87 34 18 10
-36 34 -104 54 -152z m-923 -878 c28 -75 75 -132 135 -162 53 -27 101 -27 153
0 l43 22 -7 -22 c-22 -74 -93 -178 -120 -178 -56 0 -199 134 -240 224 -49 107
-53 242 -10 341 l21 50 6 -120 c3 -66 12 -136 19 -155z m367 -342 c-2 -13 -4
-5 -4 17 -1 22 1 32 4 23 2 -10 2 -28 0 -40z m1500 -140 c-3 -8 -6 -5 -6 6 -1
11 2 17 5 13 3 -3 4 -12 1 -19z m-10 -40 c-3 -8 -6 -5 -6 6 -1 11 2 17 5 13 3
-3 4 -12 1 -19z m-10 -40 c-3 -8 -6 -5 -6 6 -1 11 2 17 5 13 3 -3 4 -12 1 -19z
m-163 -435 c-26 -38 -53 -75 -60 -84 -8 -8 -20 -33 -28 -55 -12 -32 -15 -35
-15 -14 -1 14 8 40 19 58 23 38 120 162 126 162 3 0 -16 -30 -42 -67z m-1549
-6 c-26 -64 -20 -128 19 -186 35 -51 22 -57 -20 -9 -50 55 -53 107 -14 195 24
54 37 53 15 0z m255 -1758 c-7 -39 -14 -68 -17 -65 -3 2 1 40 8 82 7 43 14 73
17 66 2 -7 -2 -44 -8 -83z m-23 -101 c-3 -8 -6 -5 -6 6 -1 11 2 17 5 13 3 -3
4 -12 1 -19z m624 -2598 c43 -236 128 -796 179 -1190 57 -441 134 -935 160
-1030 6 -19 10 -105 10 -190 0 -141 23 -481 36 -521 2 -9 -2 -85 -11 -169 -8
-84 -15 -156 -15 -159 -1 -3 -16 46 -35 109 -100 344 -373 1031 -512 1289 -25
47 -69 121 -99 165 -48 71 -53 84 -48 118 11 65 -3 102 -61 167 -30 34 -55 65
-55 69 0 4 22 88 49 187 27 99 98 367 156 595 59 228 123 457 142 510 19 52
42 118 51 147 21 64 24 56 53 -97z m326 -3582 c-2 -13 -4 -5 -4 17 -1 22 1 32
4 23 2 -10 2 -28 0 -40z m-22 -309 c-8 -151 -19 -308 -24 -349 -6 -41 -17
-160 -26 -265 -18 -212 -27 -273 -32 -238 -3 12 5 113 17 225 32 317 39 399
50 613 10 196 19 299 26 292 2 -2 -3 -127 -11 -278z m-95 -970 c-18 -43 -24
-28 -8 23 8 27 14 36 16 25 2 -10 -2 -32 -8 -48z m-172 -310 c-48 -69 -121
-158 -131 -159 -4 0 14 26 40 58 25 31 62 81 81 110 18 30 36 51 40 48 3 -4
-10 -29 -30 -57z"/>
</g>
</svg>
