<?xml version="1.0" standalone="no"?>
<!DOCTYPE svg PUBLIC "-//W3C//DTD SVG 20010904//EN"
 "http://www.w3.org/TR/2001/REC-SVG-20010904/DTD/svg10.dtd">
<svg version="1.0" xmlns="http://www.w3.org/2000/svg"
 width="1024.000000pt" height="1536.000000pt" viewBox="0 0 1024.000000 1536.000000"
 preserveAspectRatio="xMidYMid meet">
<metadata>
Created by potrace 1.16, written by Peter Selinger 2001-2019
</metadata>
<g transform="translate(0.000000,1536.000000) scale(0.100000,-0.100000)"
fill="#000000" stroke="none">
<path d="M5170 14764 c-216 -46 -378 -127 -518 -259 -153 -142 -217 -259 -298
-544 -20 -69 -45 -101 -80 -101 -29 0 -54 -35 -54 -76 0 -42 48 -106 110 -146
27 -18 50 -38 50 -45 0 -6 -22 -44 -48 -85 -55 -84 -68 -113 -79 -183 -12 -72
-4 -105 35 -131 18 -13 38 -24 44 -26 6 -2 -4 -26 -24 -53 -50 -71 -55 -83
-84 -192 -21 -81 -30 -102 -55 -121 -16 -13 -29 -27 -29 -32 0 -4 24 -8 53 -9
30 0 73 -5 97 -10 23 -5 57 -7 75 -4 30 5 35 2 50 -27 14 -26 17 -58 16 -151
-2 -162 13 -188 135 -235 l76 -29 -94 -43 c-51 -24 -178 -76 -283 -116 -245
-94 -324 -134 -388 -199 -116 -116 -208 -234 -257 -331 -26 -51 -42 -70 -59
-73 -34 -5 -56 -19 -68 -45 -6 -13 -23 -49 -38 -81 -15 -32 -29 -56 -32 -54
-2 3 3 31 12 62 12 41 15 75 11 119 l-6 61 41 43 c23 23 73 58 114 78 105 51
165 112 188 192 14 49 28 72 68 111 27 26 50 56 50 65 1 9 3 21 4 26 1 6 3 30
4 55 l1 45 41 0 c57 0 108 26 115 59 3 14 8 34 10 43 6 19 -27 88 -50 107 -22
18 -20 44 4 66 11 10 28 43 36 72 13 45 14 63 4 103 -6 26 -21 57 -32 67 -28
25 -97 22 -136 -5 -41 -30 -73 -28 -113 8 -74 65 -117 65 -467 -1 -64 -13
-122 -62 -122 -103 0 -22 -8 -30 -42 -45 -51 -22 -63 -35 -112 -121 -20 -36
-45 -78 -56 -95 -10 -16 -41 -120 -69 -230 -28 -110 -58 -229 -68 -264 l-18
-63 -64 -23 c-76 -28 -162 -106 -245 -225 -44 -62 -256 -422 -256 -435 0 -2
-23 -43 -51 -92 -78 -135 -146 -273 -165 -339 -19 -64 -20 -105 -13 -529 5
-237 5 -241 31 -291 58 -110 191 -202 324 -224 65 -11 180 0 279 25 145 38
652 262 832 368 l61 35 7 -91 c12 -163 -13 -574 -55 -897 -24 -180 -27 -195
-74 -355 -19 -66 -43 -164 -52 -217 -19 -107 -14 -128 32 -128 13 0 24 -4 24
-9 0 -6 -16 -117 -35 -248 -81 -540 -125 -875 -146 -1120 l-13 -143 24 -25
c33 -35 118 -81 189 -102 70 -21 63 3 81 -253 6 -85 22 -270 35 -410 47 -488
55 -561 95 -895 54 -447 60 -500 80 -715 12 -118 32 -327 46 -465 81 -818 96
-1003 98 -1220 l1 -190 -43 -125 c-52 -150 -61 -227 -37 -320 41 -161 41 -145
-3 -276 -58 -176 -68 -220 -56 -253 10 -26 5 -34 -80 -137 -72 -86 -102 -114
-143 -134 -28 -14 -60 -32 -70 -41 -42 -38 -144 -70 -358 -115 -240 -50 -314
-90 -380 -209 -50 -89 -60 -127 -41 -163 20 -39 52 -58 137 -82 171 -47 338
-65 604 -64 378 1 487 24 767 161 83 40 151 73 153 73 2 0 8 -13 13 -29 14
-41 61 -62 151 -68 143 -10 497 48 564 92 31 20 33 32 48 295 8 142 16 220 24
230 17 21 23 61 40 315 8 121 28 416 45 655 16 239 37 545 47 680 13 194 16
341 13 705 -9 1099 -2 1564 21 1522 5 -9 32 -119 60 -244 28 -125 100 -424
160 -663 185 -733 290 -1212 357 -1630 74 -456 91 -637 86 -896 -5 -198 -5
-202 31 -385 20 -101 41 -199 46 -217 13 -38 39 -54 82 -50 29 2 32 0 29 -22
-6 -58 -75 -251 -104 -292 -17 -23 -56 -70 -88 -103 -68 -71 -95 -118 -110
-194 -6 -31 -18 -70 -26 -88 -20 -43 -17 -102 5 -140 76 -124 431 -163 751
-83 288 73 450 189 450 323 0 32 3 37 23 37 12 0 46 14 75 31 77 44 83 63 89
293 4 127 10 200 19 217 17 33 32 353 39 839 3 206 8 456 11 555 6 219 -12
802 -31 1009 -23 245 -78 665 -95 726 -26 93 -57 655 -75 1370 -8 311 -17 653
-21 761 l-7 196 44 7 c69 11 146 36 169 54 l21 17 -36 265 c-36 269 -85 689
-85 725 0 15 2 17 9 6 19 -30 72 -4 156 77 45 42 101 92 124 111 25 19 40 39
37 47 -3 8 35 52 96 111 55 54 135 139 177 189 420 501 475 569 593 740 144
209 146 223 73 538 -153 651 -389 1381 -539 1660 -14 27 -26 62 -26 78 0 52
-39 206 -79 310 -136 356 -205 458 -337 503 -32 11 -79 34 -104 51 -25 16 -79
44 -120 62 -430 182 -563 243 -745 336 -182 93 -196 105 -265 223 -34 57 -77
116 -100 136 l-41 35 9 83 c7 67 18 101 49 164 94 186 133 351 133 557 0 309
-68 527 -224 725 -129 162 -302 265 -494 293 -97 14 -326 11 -402 -6z m-25
-973 c39 -18 135 -106 135 -123 0 -5 -15 -1 -32 9 -54 29 -205 24 -288 -9 -94
-38 -135 -47 -172 -39 -50 12 -76 29 -93 61 l-15 29 33 -5 c22 -4 62 6 132 31
197 73 230 78 300 46z m-405 -671 c73 -36 118 -78 161 -151 50 -83 86 -115
145 -130 81 -21 63 -37 -51 -46 -52 -4 -80 -1 -109 11 -48 20 -57 20 -50 1 5
-11 -1 -15 -22 -15 -20 0 -25 3 -16 9 13 8 -60 32 -140 48 -15 3 -33 11 -39
19 -6 8 -24 14 -39 14 -39 0 -90 20 -90 35 0 7 -6 15 -14 18 -20 8 -28 64 -14
111 6 22 12 47 12 55 1 7 17 19 36 26 48 18 152 32 170 23 8 -3 35 -16 60 -28z
m1300 -361 c0 -22 -115 -206 -348 -556 -131 -197 -251 -379 -266 -405 -15 -27
-30 -48 -33 -48 -8 0 -25 20 -130 151 -56 69 -122 144 -147 166 l-46 40 74 33
c224 97 640 385 816 564 64 65 80 76 80 55z m-1144 -619 c21 -13 41 -25 43
-27 3 -2 -16 -25 -41 -51 -59 -60 -202 -302 -179 -302 4 0 23 22 44 48 20 27
46 57 58 68 l21 19 -7 -100 c-8 -108 -19 -147 -106 -355 -28 -69 -65 -163 -81
-210 -24 -72 -28 -78 -24 -40 3 25 10 95 16 155 6 61 22 173 36 250 15 77 27
149 28 160 1 11 14 58 29 105 29 93 57 249 57 319 l0 43 33 -29 c18 -16 51
-40 73 -53z m404 -362 c29 -35 56 -65 61 -66 11 -4 -28 -77 -138 -261 -41 -69
-104 -181 -140 -250 -45 -87 -63 -115 -59 -90 9 52 26 320 26 421 0 143 13
184 80 251 79 79 100 78 170 -5z m-2515 -337 c65 -119 174 -141 365 -77 40 14
91 39 112 57 22 17 41 29 43 27 9 -8 -35 -67 -69 -93 -66 -50 -276 -130 -410
-155 -34 -7 -42 -5 -62 17 -70 76 -91 264 -44 398 l25 70 5 -95 c5 -80 11
-104 35 -149z m4445 -1687 c0 -8 14 -48 32 -90 30 -71 31 -78 18 -112 -8 -20
-15 -71 -15 -113 -1 -66 -5 -82 -27 -110 -41 -55 -190 -220 -194 -217 -5 6 24
128 92 382 35 131 64 252 64 268 0 26 2 29 15 18 8 -7 15 -19 15 -26z"/>
</g>
</svg>
