<?xml version="1.0" standalone="no"?>
<!DOCTYPE svg PUBLIC "-//W3C//DTD SVG 20010904//EN"
 "http://www.w3.org/TR/2001/REC-SVG-20010904/DTD/svg10.dtd">
<svg version="1.0" xmlns="http://www.w3.org/2000/svg"
 width="1024.000000pt" height="1024.000000pt" viewBox="0 0 1024.000000 1024.000000"
 preserveAspectRatio="xMidYMid meet">
<metadata>
Created by potrace 1.16, written by Peter Selinger 2001-2019
</metadata>
<g transform="translate(0.000000,1024.000000) scale(0.100000,-0.100000)"
fill="#000000" stroke="none">
<path d="M4714 9856 c-77 -18 -119 -39 -228 -117 -162 -116 -205 -189 -214
-366 -6 -122 7 -179 49 -219 26 -25 32 -27 50 -16 15 10 20 10 24 0 2 -7 18
-56 35 -108 17 -52 65 -159 106 -238 58 -111 72 -146 64 -160 -5 -9 -14 -36
-20 -60 -9 -34 -19 -47 -53 -68 -92 -57 -120 -80 -148 -121 -45 -65 -62 -161
-56 -310 l6 -121 -28 -12 c-61 -25 -99 -80 -172 -250 -178 -416 -289 -698
-300 -771 -20 -133 7 -241 81 -322 90 -99 195 -134 363 -121 84 6 94 5 110
-14 18 -19 18 -26 -3 -188 -11 -93 -25 -194 -31 -224 -5 -30 -20 -156 -34
-280 -13 -124 -37 -330 -52 -459 l-27 -234 39 -33 39 -33 -28 -173 c-92 -558
-164 -1205 -169 -1508 l-2 -125 222 -445 c261 -523 418 -881 578 -1314 10 -27
26 -57 36 -67 25 -25 24 -44 -11 -138 -43 -118 -73 -172 -131 -235 -43 -47
-72 -67 -175 -117 -68 -33 -132 -72 -143 -86 -44 -55 -35 -125 21 -166 43 -32
172 -35 273 -8 124 34 208 84 303 177 90 89 105 85 41 -12 -39 -61 -69 -92
-178 -182 -88 -74 -114 -155 -67 -209 l24 -28 144 1 c79 0 175 6 213 12 92 16
196 53 204 72 3 8 45 52 93 98 79 75 90 82 127 82 52 0 97 37 112 93 12 45 5
218 -12 296 -8 38 -7 45 10 57 10 8 24 35 30 61 13 57 33 310 60 743 39 620
44 788 31 1025 -22 413 -24 1024 -5 1405 10 190 20 426 24 524 l6 179 25 8
c14 3 44 12 67 18 24 7 47 20 52 30 7 13 3 62 -14 162 -121 729 -158 1009
-158 1189 -1 141 1 150 47 325 49 189 112 393 202 660 99 291 109 337 109 521
l0 160 -38 76 c-53 108 -97 144 -307 245 -211 102 -337 184 -457 296 -49 46
-96 86 -103 89 -17 5 -2 122 37 293 30 131 33 266 8 352 -23 79 -86 200 -131
252 -50 58 -142 116 -223 142 -86 27 -262 34 -347 15z m709 -1213 c23 -46 11
-73 -129 -300 -52 -83 -94 -158 -94 -166 0 -8 -12 -36 -26 -63 -15 -27 -48
-90 -74 -141 l-47 -91 -6 71 c-5 71 -5 73 40 147 42 68 44 77 34 106 -6 17
-11 45 -11 62 0 34 -13 42 -28 17 -13 -24 -44 -8 -36 19 13 47 57 96 146 169
51 41 120 103 153 136 33 34 61 61 62 61 1 0 9 -12 16 -27z m-750 -135 c17
-13 47 -31 67 -41 l35 -18 -45 6 c-67 10 -120 25 -120 35 0 17 12 40 22 40 5
0 24 -10 41 -22z m266 -99 c40 -39 50 -53 40 -60 -8 -5 -16 -3 -21 4 -5 7 -8
3 -8 -12 0 -20 -3 -22 -12 -13 -22 22 -35 13 -42 -28 -6 -37 -8 -40 -26 -30
-14 7 -20 7 -20 0 0 -15 -16 -12 -35 6 -23 23 -11 85 27 139 18 25 34 45 37
45 3 0 30 -23 60 -51z m-23 -347 c4 -34 -2 -82 -20 -167 -15 -66 -29 -124 -31
-130 -11 -23 5 274 16 328 15 64 23 57 35 -31z m-642 -274 c9 -39 61 -95 101
-108 38 -13 98 -1 152 30 30 17 43 17 43 -2 0 -4 -16 -26 -36 -48 -38 -42
-102 -68 -133 -54 -9 4 -23 8 -32 9 -64 8 -148 131 -134 200 2 11 4 24 4 30 1
15 27 -28 35 -57z m196 -1035 c-24 -131 -34 -158 -44 -126 -4 12 7 76 24 143
16 68 31 126 31 129 1 3 3 -2 6 -11 2 -9 -5 -70 -17 -135z m626 -2331 c57
-382 106 -731 118 -847 38 -349 66 -861 66 -1190 l0 -160 -64 155 c-82 202
-205 484 -323 742 l-95 207 22 103 c32 149 190 825 237 1010 10 37 20 65 23
62 3 -3 10 -40 16 -82z"/>
</g>
</svg>
