<?xml version="1.0" standalone="no"?>
<!DOCTYPE svg PUBLIC "-//W3C//DTD SVG 20010904//EN"
 "http://www.w3.org/TR/2001/REC-SVG-20010904/DTD/svg10.dtd">
<svg version="1.0" xmlns="http://www.w3.org/2000/svg"
 width="1024.000000pt" height="1024.000000pt" viewBox="0 0 1024.000000 1024.000000"
 preserveAspectRatio="xMidYMid meet">
<metadata>
Created by potrace 1.16, written by Peter Selinger 2001-2019
</metadata>
<g transform="translate(0.000000,1024.000000) scale(0.100000,-0.100000)"
fill="#000000" stroke="none">
<path d="M3925 9403 c-162 -17 -259 -34 -297 -51 -24 -12 -64 -30 -90 -41 -32
-13 -54 -31 -72 -59 -13 -22 -46 -57 -73 -78 -76 -62 -83 -80 -25 -69 l37 7
-41 -44 c-78 -82 -92 -108 -108 -201 -26 -147 -16 -447 15 -447 5 0 9 5 9 10
0 6 4 10 9 10 5 0 11 -23 15 -50 4 -32 14 -57 27 -68 11 -9 24 -34 30 -55 14
-51 30 -37 23 21 -4 41 -3 44 8 28 7 -11 41 -54 76 -97 34 -43 68 -91 75 -106
11 -26 12 -21 15 50 3 76 3 77 29 77 27 0 208 -83 218 -101 13 -20 9 -2130 -4
-2495 -14 -381 -12 -404 29 -404 17 0 20 -7 20 -46 0 -38 4 -47 21 -51 17 -5
20 -11 15 -37 -3 -17 -13 -98 -21 -181 -17 -163 -12 -231 27 -370 37 -135 38
-136 210 -229 l88 -48 30 22 c46 32 40 63 -22 123 l-53 51 40 8 c21 5 42 12
45 17 8 14 4 593 -4 624 -7 22 -5 27 8 27 14 0 16 6 10 34 l-6 35 43 3 43 3 2
45 c3 42 14 548 30 1308 l7 313 59 -112 c32 -61 64 -119 71 -129 27 -39 -3
-363 -98 -1074 -9 -65 -15 -139 -13 -164 3 -41 8 -50 48 -80 l45 -35 -3 -71
c-2 -39 -16 -260 -32 -491 -83 -1183 -82 -1143 -31 -1765 6 -74 18 -223 27
-330 9 -112 18 -383 21 -638 l6 -444 23 -10 c13 -6 24 -14 24 -18 0 -4 -25
-24 -55 -44 -30 -21 -79 -69 -110 -107 -90 -112 -161 -164 -263 -195 -109 -33
-238 -88 -265 -111 -30 -27 -57 -92 -57 -140 0 -41 1 -42 53 -61 29 -11 108
-29 176 -41 264 -45 386 -23 634 114 l69 37 33 -18 c31 -16 41 -17 97 -5 35 7
93 21 130 32 75 22 69 13 108 163 11 44 20 94 20 111 0 45 -35 176 -60 225
l-21 41 34 14 35 14 7 373 c4 205 4 591 1 858 -7 479 -7 524 -4 638 1 31 -1
84 -3 117 -2 33 2 112 9 175 6 63 17 165 23 225 6 61 42 265 80 455 80 401 94
461 102 440 12 -31 39 -499 53 -915 7 -236 21 -486 29 -555 52 -433 75 -822
82 -1403 6 -522 6 -528 27 -539 12 -6 23 -12 25 -14 2 -2 -17 -26 -42 -54 -25
-28 -62 -79 -81 -114 -33 -59 -86 -125 -163 -203 -17 -18 -62 -52 -100 -76
-119 -77 -161 -145 -150 -251 9 -92 59 -105 344 -88 146 9 195 15 251 35 89
31 168 84 218 145 37 47 41 49 81 44 33 -3 51 1 85 22 84 50 88 57 104 158 23
152 18 192 -45 346 l-21 52 40 16 c26 10 42 24 45 38 25 119 40 1881 17 2037
-15 99 9 420 118 1564 11 115 20 219 20 231 0 17 14 27 63 49 92 41 100 50 92
110 -41 320 -88 614 -174 1090 -16 88 -37 243 -45 345 -21 244 -80 714 -106
843 -35 171 -80 338 -111 414 -55 131 -141 235 -254 305 -76 47 -320 136 -585
213 -73 21 -177 61 -249 96 -109 54 -131 61 -183 61 -32 0 -65 -5 -73 -12 -16
-13 -38 21 -132 210 -127 251 -325 386 -538 363z m761 -658 c20 -15 38 -41 44
-63 29 -96 22 -417 -16 -772 -8 -74 -17 -168 -21 -208 -7 -83 -18 -100 -27
-43 -3 22 -20 79 -37 128 -26 75 -30 102 -29 179 l1 92 -32 25 -32 25 46 140
c80 243 103 416 65 490 -20 39 -7 41 38 7z m-248 -795 c28 -44 32 -65 50 -217
29 -241 23 -239 -52 23 -73 256 -70 244 -48 244 12 0 31 -19 50 -50z m-342
-3271 c7 -41 20 -94 29 -118 8 -24 13 -46 10 -49 -10 -10 -58 32 -71 63 -21
50 -29 138 -15 164 20 37 34 19 47 -60z"/>
</g>
</svg>
