<?xml version="1.0" standalone="no"?>
<!DOCTYPE svg PUBLIC "-//W3C//DTD SVG 20010904//EN"
 "http://www.w3.org/TR/2001/REC-SVG-20010904/DTD/svg10.dtd">
<svg version="1.0" xmlns="http://www.w3.org/2000/svg"
 width="1024.000000pt" height="1536.000000pt" viewBox="0 0 1024.000000 1536.000000"
 preserveAspectRatio="xMidYMid meet">
<metadata>
Created by potrace 1.16, written by Peter Selinger 2001-2019
</metadata>
<g transform="translate(0.000000,1536.000000) scale(0.100000,-0.100000)"
fill="#000000" stroke="none">
<path d="M5125 14739 c-170 -18 -408 -111 -543 -214 -69 -52 -85 -78 -69 -112
7 -17 4 -28 -16 -55 -42 -55 -85 -150 -103 -224 -13 -55 -15 -102 -11 -233 4
-139 2 -175 -14 -245 -35 -146 -52 -335 -46 -516 7 -188 24 -280 67 -364 l30
-58 -62 -60 c-34 -33 -80 -69 -102 -80 -21 -11 -136 -44 -255 -73 -311 -77
-479 -138 -546 -196 -121 -106 -416 -494 -570 -749 -359 -593 -506 -1292 -328
-1556 85 -125 236 -236 388 -284 22 -7 43 -16 48 -19 4 -4 0 -27 -8 -52 -49
-136 -133 -529 -165 -767 -16 -120 -16 -139 -3 -153 12 -15 12 -34 -1 -150
-24 -201 -45 -525 -52 -789 -6 -213 -5 -238 11 -270 37 -74 133 -148 242 -186
61 -22 53 6 83 -264 72 -633 165 -1210 351 -2180 86 -446 86 -448 93 -620 13
-312 72 -1034 108 -1335 28 -230 30 -514 5 -735 -23 -205 -45 -363 -58 -429
-10 -47 -9 -55 5 -63 9 -5 16 -15 16 -22 0 -24 -101 -161 -172 -233 -86 -87
-138 -116 -275 -154 -128 -36 -183 -63 -250 -123 -64 -58 -103 -133 -103 -197
0 -67 25 -88 150 -128 234 -72 653 -54 889 39 30 11 110 48 178 80 68 33 128
60 134 60 5 0 24 -10 40 -22 29 -22 39 -23 217 -22 158 1 199 4 266 23 43 11
85 26 92 32 27 22 34 87 34 297 0 202 1 214 19 219 25 6 25 4 66 339 20 159
44 345 55 414 19 126 51 400 71 605 6 61 14 517 18 1015 5 498 11 912 14 920
3 8 13 195 22 415 10 220 20 412 24 426 9 39 407 -1576 451 -1831 47 -278 114
-740 170 -1180 33 -261 71 -549 84 -640 14 -91 32 -241 41 -335 10 -101 23
-186 33 -209 18 -42 58 -66 112 -66 19 0 30 -5 30 -14 0 -56 -29 -196 -70
-338 -71 -246 -74 -324 -17 -409 53 -80 220 -129 442 -129 296 0 475 72 542
219 22 46 22 217 0 386 -9 66 -19 163 -22 216 l-7 95 41 18 c68 31 82 54 91
148 37 376 60 867 67 1458 8 636 -4 876 -68 1400 l-32 255 12 220 c7 121 16
276 21 345 10 125 16 235 45 810 12 233 24 360 50 540 47 319 64 468 72 643
l6 148 58 31 c76 40 145 114 155 163 13 71 -25 561 -72 910 -62 471 -113 741
-230 1226 -58 243 -63 279 -38 300 70 58 225 449 274 688 37 183 50 328 50
545 1 478 -81 742 -299 969 -156 162 -337 260 -708 383 -106 35 -211 73 -235
85 -23 12 -67 49 -98 83 -30 33 -69 74 -86 91 -42 39 -53 85 -43 164 9 62 17
78 84 167 18 23 42 73 55 113 20 62 22 85 18 179 -3 62 -12 127 -22 155 -15
41 -15 54 -5 85 16 48 15 293 -1 364 -27 116 -81 193 -181 254 -46 29 -59 44
-78 89 -55 132 -234 226 -486 255 -49 5 -94 9 -100 9 -5 -1 -46 -5 -90 -10z
m765 -1934 c0 -2 -73 -96 -163 -207 -419 -521 -792 -1046 -870 -1228 -9 -19
-16 -30 -16 -24 -1 17 66 481 87 601 16 91 20 104 47 124 17 12 47 38 69 58
21 20 40 32 42 26 2 -5 15 -28 29 -50 45 -74 26 -18 -39 108 l-63 126 116 37
c64 21 175 67 246 103 119 60 407 243 480 305 32 27 35 29 35 21z m-1257 -335
c39 -33 99 -74 132 -92 58 -31 59 -32 32 -39 -16 -4 -45 -20 -65 -35 -55 -42
-162 -146 -162 -158 0 -5 18 8 40 29 28 28 40 34 40 22 0 -9 11 -50 24 -92
l24 -76 -35 -77 c-95 -208 -183 -474 -218 -662 -20 -110 -24 -124 -29 -119 -3
2 -10 113 -17 246 -17 351 7 775 62 1090 l22 121 39 -49 c21 -27 71 -76 111
-109z m-375 -1702 c-88 -133 -148 -308 -148 -434 0 -50 -3 -63 -17 -68 -10 -3
-23 -8 -29 -11 -7 -4 -13 15 -16 53 -16 166 -103 245 -327 295 l-100 23 52 56
c29 30 76 75 105 98 l53 43 127 -6 c70 -3 161 -2 202 2 41 4 89 9 107 10 l32
1 -41 -62z m382 -866 l45 -16 -50 -13 c-77 -20 -82 -18 -77 23 3 28 8 34 21
29 9 -4 36 -14 61 -23z"/>
</g>
</svg>
