<?xml version="1.0" standalone="no"?>
<!DOCTYPE svg PUBLIC "-//W3C//DTD SVG 20010904//EN"
 "http://www.w3.org/TR/2001/REC-SVG-20010904/DTD/svg10.dtd">
<svg version="1.0" xmlns="http://www.w3.org/2000/svg"
 width="1024.000000pt" height="1536.000000pt" viewBox="0 0 1024.000000 1536.000000"
 preserveAspectRatio="xMidYMid meet">
<metadata>
Created by potrace 1.16, written by Peter Selinger 2001-2019
</metadata>
<g transform="translate(0.000000,1536.000000) scale(0.100000,-0.100000)"
fill="#000000" stroke="none">
<path d="M5120 14813 c-139 -18 -265 -73 -397 -172 -258 -194 -315 -368 -237
-717 l25 -111 -33 -53 c-31 -50 -33 -59 -32 -139 1 -141 65 -267 160 -315 20
-9 34 -26 39 -43 8 -35 158 -431 188 -498 35 -79 110 -188 171 -247 l55 -55
-89 -82 -90 -83 18 -26 c10 -15 34 -54 52 -88 l33 -61 -26 -69 c-83 -219 -175
-568 -200 -761 -5 -37 -17 -39 -17 -2 0 19 -5 113 -10 209 -15 251 14 926 50
1170 14 96 13 112 -7 75 -29 -54 -116 -157 -167 -197 -74 -59 -120 -79 -351
-153 -234 -75 -346 -126 -405 -185 -50 -50 -116 -187 -170 -355 -75 -236 -270
-1040 -336 -1390 -31 -170 -43 -386 -24 -466 34 -146 113 -224 265 -264 76
-19 209 -35 303 -35 39 0 72 -4 72 -8 0 -5 -14 -76 -30 -158 -56 -276 -61
-307 -44 -325 13 -15 12 -31 -10 -145 -37 -191 -71 -399 -110 -674 -54 -383
-60 -434 -47 -458 7 -13 40 -32 84 -48 l73 -28 37 -456 c21 -251 58 -638 83
-860 106 -965 171 -1813 215 -2805 17 -376 17 -1358 0 -1608 -9 -144 -10 -202
-2 -210 8 -8 7 -15 -2 -26 -8 -9 -40 -59 -72 -111 -78 -127 -231 -280 -330
-332 -38 -20 -131 -55 -205 -78 -264 -83 -348 -152 -338 -279 4 -48 9 -59 41
-86 50 -43 117 -63 259 -77 134 -13 359 1 465 28 77 19 182 70 265 127 144 99
185 108 235 50 l31 -38 84 1 c99 0 217 26 284 63 67 36 75 68 77 291 1 174 -3
205 -48 383 -5 20 -4 27 7 27 42 0 46 21 62 380 40 874 45 1767 15 2590 -17
445 -14 746 10 1285 31 690 41 947 42 1070 1 82 3 102 10 80 14 -46 163 -774
208 -1015 46 -247 76 -445 126 -820 42 -321 118 -885 145 -1070 23 -159 66
-497 79 -625 48 -447 65 -622 91 -932 34 -408 70 -920 70 -1006 0 -72 10 -92
55 -107 40 -13 41 -20 18 -110 -14 -52 -17 -103 -15 -260 1 -155 -3 -223 -19
-335 -34 -224 -13 -344 77 -444 56 -62 126 -97 225 -112 191 -30 385 55 456
199 25 52 28 67 27 162 0 102 -2 110 -58 265 -55 152 -59 168 -71 310 -7 83
-23 191 -35 240 -11 49 -17 91 -13 92 4 2 23 12 42 24 l34 21 -7 286 c-4 158
-11 616 -16 1017 -5 402 -14 800 -20 885 -28 431 -35 523 -75 980 -42 481 -48
673 -41 1385 6 599 -1 1060 -20 1436 l-7 126 44 7 c61 10 125 40 143 68 13 20
14 35 6 84 -6 32 -26 165 -45 294 -50 326 -113 710 -132 802 -16 77 -16 78 6
95 l22 18 -54 298 -54 298 67 133 c157 310 321 812 410 1256 57 284 73 419 74
620 0 196 -11 259 -66 361 -63 120 -147 171 -456 278 -246 86 -291 104 -370
148 -80 44 -186 144 -241 224 l-41 62 0 -34 c0 -45 -22 -133 -60 -249 -43
-128 -60 -167 -220 -510 -76 -162 -163 -360 -195 -440 -31 -80 -61 -152 -65
-160 -5 -8 -8 82 -7 200 1 137 -3 249 -12 309 l-13 95 63 61 c35 33 77 71 92
82 l28 22 -42 58 c-23 32 -53 70 -67 85 -13 14 -23 31 -21 36 2 5 42 38 89 73
146 110 344 311 388 395 9 17 52 307 52 350 0 6 18 19 40 29 78 35 137 130
165 261 19 92 4 165 -48 221 l-20 22 27 65 c14 36 33 103 42 148 15 76 15 93
1 187 -21 142 -65 231 -162 326 -165 160 -248 222 -342 254 -62 21 -196 33
-263 24z m919 -3759 c-13 -14 -65 -57 -116 -95 -99 -74 -233 -204 -233 -226 0
-24 19 -14 98 55 112 97 146 122 247 180 88 51 115 61 115 44 0 -17 -79 -76
-367 -277 -13 -9 -23 -21 -22 -28 0 -9 2 -9 6 1 2 6 9 10 13 7 11 -7 81 28
212 106 116 69 152 86 146 67 -6 -18 -107 -90 -195 -139 -40 -22 -75 -45 -79
-50 -9 -15 37 -10 104 11 109 34 126 20 25 -20 -32 -13 -69 -31 -83 -40 -28
-19 -39 -19 -198 11 -57 10 -126 19 -155 19 l-52 1 31 27 c18 15 51 41 74 57
23 17 60 53 82 80 81 103 277 233 352 235 18 0 17 -2 -5 -26z m-1548 -420
c-53 -118 -77 -213 -89 -339 -7 -77 -8 -80 -32 -77 -29 3 -57 27 -77 67 -41
81 -97 115 -250 151 -60 14 -115 27 -124 30 -15 4 -15 9 -3 52 21 69 70 164
98 192 40 36 110 38 231 5 115 -32 171 -30 244 9 25 13 47 23 48 22 1 -1 -19
-51 -46 -112z"/>
</g>
</svg>
