<?xml version="1.0" standalone="no"?>
<!DOCTYPE svg PUBLIC "-//W3C//DTD SVG 20010904//EN"
 "http://www.w3.org/TR/2001/REC-SVG-20010904/DTD/svg10.dtd">
<svg version="1.0" xmlns="http://www.w3.org/2000/svg"
 width="1024.000000pt" height="1536.000000pt" viewBox="0 0 1024.000000 1536.000000"
 preserveAspectRatio="xMidYMid meet">
<metadata>
Created by potrace 1.16, written by Peter Selinger 2001-2019
</metadata>
<g transform="translate(0.000000,1536.000000) scale(0.100000,-0.100000)"
fill="#000000" stroke="none">
<path d="M5005 14730 c-94 -14 -246 -68 -330 -115 -227 -130 -328 -295 -360
-590 -3 -33 -16 -89 -28 -125 -29 -90 -29 -190 0 -250 l23 -46 -22 -54 c-29
-75 -37 -290 -15 -411 9 -46 18 -129 21 -184 10 -187 65 -316 183 -433 40 -40
73 -74 73 -76 0 -3 -31 -25 -70 -51 -84 -56 -249 -135 -430 -205 -416 -162
-481 -203 -560 -352 -32 -59 -83 -241 -96 -339 -6 -44 -11 -54 -40 -71 -23
-13 -38 -34 -50 -66 -50 -136 -81 -205 -152 -349 -83 -165 -211 -447 -269
-593 -54 -137 -123 -377 -135 -477 -26 -204 24 -369 151 -493 119 -117 244
-163 448 -164 l123 -1 0 -30 c0 -42 -34 -264 -75 -494 -41 -227 -42 -244 -14
-272 l20 -20 -20 -137 c-19 -123 -52 -442 -96 -911 -8 -91 -15 -196 -15 -234
0 -66 2 -71 34 -102 19 -18 65 -43 103 -57 l68 -26 12 -78 c47 -301 202 -1644
303 -2629 11 -110 29 -281 40 -380 69 -640 97 -956 106 -1200 l7 -160 -34
-100 -34 -100 -2 -295 c0 -162 3 -335 8 -384 l10 -90 -36 -51 c-46 -68 -188
-205 -247 -239 -25 -15 -109 -49 -185 -77 -172 -62 -195 -74 -245 -127 -48
-52 -68 -97 -68 -152 0 -125 111 -170 417 -170 335 0 574 61 723 185 30 25 70
50 89 56 33 11 36 10 63 -22 15 -19 35 -42 43 -51 21 -25 58 -23 231 12 189
38 280 65 288 86 4 9 14 82 23 163 9 80 22 152 29 158 19 20 22 49 39 353 51
951 67 1599 46 1960 -7 113 -19 318 -27 455 -8 138 -17 408 -21 600 -7 420 6
1139 19 1055 20 -121 121 -725 178 -1055 62 -362 146 -907 200 -1290 37 -261
99 -663 135 -865 45 -256 54 -338 80 -702 35 -487 39 -504 111 -534 42 -18 42
-14 8 -260 -40 -293 -27 -409 61 -512 135 -159 486 -198 692 -76 32 19 75 53
95 75 74 81 104 229 74 364 -8 39 -31 144 -51 235 -20 91 -38 173 -41 183 -4
13 1 17 23 17 60 0 63 9 73 200 15 294 33 1735 27 2080 -10 485 -24 662 -73
915 l-25 130 11 1015 c5 558 13 1070 17 1137 l6 121 36 7 c66 12 130 47 172
92 l42 46 -6 126 c-7 144 -72 730 -118 1056 -34 247 -55 374 -135 820 -68 374
-68 383 4 665 57 220 132 452 232 711 80 206 110 302 145 459 80 362 105 727
61 889 -38 137 -136 257 -287 348 -104 64 -187 102 -384 178 -309 119 -395
165 -501 270 -63 62 -90 97 -118 156 -20 42 -36 80 -36 86 0 5 53 63 119 129
190 191 236 278 236 449 -1 106 -13 144 -71 222 -22 29 -23 35 -13 90 16 84 5
321 -19 409 -72 267 -334 475 -691 549 -94 19 -258 27 -336 15z m270 -871 c37
-11 105 -66 105 -87 0 -6 -58 -9 -147 -8 -82 0 -176 -3 -210 -7 -58 -7 -63 -6
-63 11 0 25 50 71 96 87 47 17 164 19 219 4z m-659 -80 c84 -41 71 -54 -53
-55 -64 -1 -134 -8 -172 -18 -52 -13 -66 -14 -73 -4 -23 37 3 80 58 98 55 18
186 6 240 -21z m309 -649 c85 -14 195 -71 244 -126 37 -42 62 -106 47 -121 -3
-3 -43 1 -88 10 -46 9 -131 21 -189 27 -102 11 -200 4 -381 -26 -36 -6 -38 -5
-38 19 0 88 113 193 234 217 58 11 102 11 171 0z m798 -487 c-9 -22 -54 -101
-273 -468 -245 -413 -404 -705 -510 -937 -30 -65 -55 -116 -56 -115 -3 4 24
317 46 521 l22 201 66 68 66 67 -47 95 c-26 52 -47 99 -47 105 0 5 39 30 88
56 146 79 313 175 387 223 104 67 243 171 249 187 3 8 8 14 10 14 3 0 2 -8 -1
-17z m-957 -548 c-37 -48 -70 -93 -73 -100 -2 -7 7 -44 20 -83 l25 -69 -60
-169 c-33 -93 -91 -261 -128 -374 l-69 -205 0 110 c-1 211 34 595 95 1040 26
192 9 185 142 52 l115 -115 -67 -87z m1238 -1182 c3 -4 -35 -15 -85 -25 -50
-10 -108 -27 -128 -38 l-36 -19 125 -2 c139 -1 140 0 -65 -50 -198 -47 -203
-66 -10 -34 117 19 125 18 40 -6 -118 -33 -240 -71 -248 -78 -4 -4 46 1 110
10 65 10 119 16 121 14 5 -5 -56 -21 -171 -46 -50 -11 -94 -23 -97 -26 -3 -3
42 -3 100 0 119 6 109 -3 -40 -33 -101 -21 -230 -27 -230 -11 0 19 90 129 153
188 74 69 198 136 282 151 61 12 169 15 179 5z m-1844 -349 c0 -4 -16 -25 -36
-47 -47 -52 -96 -158 -125 -274 -26 -104 -24 -102 -104 -59 -35 19 -40 26 -37
51 5 49 32 125 69 195 49 94 75 122 120 130 49 10 113 12 113 4z"/>
</g>
</svg>
