<?xml version="1.0" standalone="no"?>
<!DOCTYPE svg PUBLIC "-//W3C//DTD SVG 20010904//EN"
 "http://www.w3.org/TR/2001/REC-SVG-20010904/DTD/svg10.dtd">
<svg version="1.0" xmlns="http://www.w3.org/2000/svg"
 width="1024.000000pt" height="1536.000000pt" viewBox="0 0 1024.000000 1536.000000"
 preserveAspectRatio="xMidYMid meet">
<metadata>
Created by potrace 1.16, written by Peter Selinger 2001-2019
</metadata>
<g transform="translate(0.000000,1536.000000) scale(0.100000,-0.100000)"
fill="#000000" stroke="none">
<path d="M4795 14695 c-80 -20 -144 -45 -177 -67 -39 -27 -45 -22 -13 12 35
37 27 47 -24 30 -51 -17 -140 -87 -190 -149 -21 -28 -66 -73 -99 -100 -143
-119 -202 -273 -202 -523 0 -126 18 -244 43 -282 10 -15 13 -42 10 -96 -11
-166 72 -378 173 -443 18 -12 34 -27 34 -34 0 -39 -49 -116 -124 -193 -46 -47
-99 -108 -119 -135 -49 -70 -131 -145 -202 -186 -65 -38 -241 -116 -537 -239
-251 -105 -299 -135 -339 -213 -11 -21 -39 -122 -64 -225 -51 -218 -147 -620
-210 -877 -126 -514 -217 -930 -236 -1069 -28 -214 10 -373 218 -926 126 -333
347 -887 410 -1028 l56 -124 36 5 c20 2 63 20 96 40 45 27 61 32 63 21 2 -8
-6 -73 -17 -144 -12 -72 -21 -162 -21 -201 0 -84 15 -104 115 -151 36 -16 67
-34 70 -38 8 -12 41 -355 64 -660 35 -448 45 -695 44 -1105 0 -359 -3 -444
-33 -825 -43 -550 -46 -885 -12 -1385 38 -571 78 -994 127 -1345 14 -96 32
-247 40 -335 21 -214 46 -400 56 -416 4 -8 22 -12 43 -11 43 3 42 14 15 -165
-27 -176 -23 -336 9 -399 28 -54 74 -93 122 -100 34 -6 43 -14 75 -65 113
-183 343 -257 768 -247 156 4 189 7 228 25 63 28 76 61 60 153 -7 38 -28 102
-47 142 -31 64 -54 92 -194 229 -142 139 -164 164 -194 230 -24 51 -38 96 -42
143 -7 68 -7 68 14 57 22 -11 55 -53 145 -183 89 -126 204 -208 347 -247 104
-28 178 -38 375 -51 198 -14 281 -8 327 24 31 21 33 25 33 82 0 56 -3 65 -42
116 -52 66 -178 169 -338 274 -192 125 -221 159 -299 345 -24 58 -53 124 -65
147 -29 56 -27 69 7 64 37 -5 40 2 179 413 182 537 248 705 452 1148 97 209
340 698 490 982 114 216 126 258 117 430 -17 316 -53 699 -112 1170 -45 362
-185 1333 -210 1456 -4 23 2 31 51 64 31 20 61 47 66 58 20 44 -144 1180 -186
1289 -3 8 3 23 15 33 11 10 20 28 20 39 0 12 -20 122 -44 246 -78 395 -133
738 -151 942 l-7 77 -49 -20 c-125 -49 -209 -6 -167 86 10 23 8 29 -26 64 -64
65 -62 95 23 301 39 95 78 184 86 197 24 36 58 45 195 49 69 2 143 8 165 13
22 6 68 11 103 11 62 0 63 0 112 51 l50 52 82 -5 c129 -7 176 -38 241 -158 96
-176 103 -333 18 -383 -45 -27 -92 -22 -149 16 l-49 34 56 -120 c46 -98 63
-124 93 -144 51 -34 99 -38 198 -14 47 11 161 29 253 41 266 32 415 71 509
131 96 62 123 124 116 268 -8 144 -46 228 -171 380 -108 133 -141 154 -275
175 l-89 14 -64 64 c-54 54 -81 71 -174 112 -173 76 -233 114 -331 206 -50 48
-110 97 -134 111 -33 18 -47 33 -54 58 -6 21 -31 54 -65 85 -30 28 -120 117
-200 197 -113 114 -160 154 -209 178 -72 36 -209 71 -420 105 -225 38 -322 63
-322 83 0 4 28 34 63 68 54 52 72 78 126 190 34 72 89 176 122 232 59 99 119
251 119 298 0 44 42 136 85 190 50 60 79 115 90 164 10 45 28 64 44 48 10 -9
16 -7 27 8 17 23 44 109 44 142 0 15 5 21 13 17 8 -3 20 2 27 11 36 44 -31
220 -121 320 -43 46 -48 55 -30 55 12 0 21 5 21 10 0 16 -266 280 -336 332
-94 72 -173 115 -275 149 -85 29 -108 33 -234 35 -100 3 -157 -1 -200 -11z
m-452 -1992 c99 -135 319 -307 507 -398 l75 -36 92 96 c51 52 94 95 97 95 8 0
17 -37 56 -233 69 -351 90 -620 70 -896 -7 -94 -17 -171 -21 -171 -5 0 -9 19
-9 43 0 101 -63 408 -125 613 l-25 81 33 84 c30 75 36 84 58 82 21 -1 24 3 26
40 2 36 1 39 -10 24 -11 -16 -18 -11 -77 54 l-66 72 -136 -28 -136 -28 -56
-87 c-31 -49 -62 -93 -69 -99 -21 -16 -107 66 -167 161 -99 154 -200 400 -200
487 0 39 23 91 40 91 5 0 24 -21 43 -47z m270 -743 c4 0 20 18 36 40 l29 40
87 -78 87 -77 -1 -240 c0 -132 -4 -305 -8 -384 l-6 -144 -45 124 c-116 325
-144 407 -198 579 -31 102 -61 194 -67 205 -5 11 10 1 35 -22 24 -24 47 -43
51 -43z m-1080 -1792 c31 -123 75 -293 98 -378 57 -212 58 -302 5 -515 -36
-146 -76 -255 -93 -255 -9 0 -17 16 -98 204 -65 150 -145 412 -131 426 7 7 11
62 11 148 l1 137 62 189 c34 103 65 206 68 227 4 22 10 39 14 39 3 0 32 -100
63 -222z m1466 -3646 c174 -535 374 -1189 426 -1391 28 -107 28 -128 1 -196
-20 -53 -20 -114 0 -201 19 -81 14 -120 -19 -135 -13 -6 -41 -38 -64 -72 -68
-105 -209 -339 -239 -397 -15 -30 -89 -242 -164 -470 -111 -336 -368 -1065
-398 -1130 -19 -42 -29 1359 -12 1665 10 187 19 255 79 640 22 143 59 404 81
580 88 696 112 880 146 1135 37 285 39 294 54 285 5 -3 54 -144 109 -313z"/>
<path d="M6338 10960 c-39 -31 -35 -39 15 -27 30 6 53 6 73 -1 l29 -10 -30 0
c-16 1 -65 -9 -108 -21 -42 -11 -101 -21 -130 -21 -28 0 -88 -7 -132 -15 -44
-9 -114 -15 -155 -14 -102 4 -135 -6 -159 -44 -11 -18 -49 -104 -86 -192 -78
-186 -80 -210 -21 -275 40 -44 41 -47 25 -86 -17 -47 -5 -71 41 -78 34 -5 53
-1 108 26 37 17 77 31 89 29 12 -1 45 10 75 25 29 15 82 39 118 54 89 36 168
89 249 166 l68 64 89 -9 c74 -8 90 -7 97 5 6 10 16 13 29 8 21 -6 21 -5 15
103 -11 173 -48 286 -104 312 -15 8 -59 16 -98 18 -61 5 -74 2 -97 -17z"/>
</g>
</svg>
