<?xml version="1.0" standalone="no"?>
<!DOCTYPE svg PUBLIC "-//W3C//DTD SVG 20010904//EN"
 "http://www.w3.org/TR/2001/REC-SVG-20010904/DTD/svg10.dtd">
<svg version="1.0" xmlns="http://www.w3.org/2000/svg"
 width="1024.000000pt" height="1024.000000pt" viewBox="0 0 1024.000000 1024.000000"
 preserveAspectRatio="xMidYMid meet">
<metadata>
Created by potrace 1.16, written by Peter Selinger 2001-2019
</metadata>
<g transform="translate(0.000000,1024.000000) scale(0.100000,-0.100000)"
fill="#000000" stroke="none">
<path d="M4994 9775 c-144 -31 -266 -98 -374 -205 -127 -125 -182 -249 -183
-406 0 -58 6 -108 17 -141 15 -46 15 -55 0 -114 -10 -43 -17 -131 -21 -274 -5
-195 -4 -216 16 -290 25 -92 59 -164 103 -218 16 -21 28 -40 27 -41 -2 -2 -89
-38 -194 -80 -104 -43 -230 -94 -279 -114 -107 -43 -189 -95 -234 -146 -18
-20 -55 -81 -82 -136 -96 -190 -399 -625 -421 -603 -4 5 -17 26 -30 48 -12 22
-48 87 -81 145 -66 118 -62 106 -78 253 -12 122 -42 234 -94 355 -33 76 -36
92 -36 178 0 104 -14 151 -51 178 -59 41 -126 -2 -154 -99 -14 -46 -16 -77
-10 -146 10 -132 13 -128 -104 -122 -88 5 -104 3 -145 -16 -47 -23 -79 -64
-92 -116 -4 -16 -20 -45 -35 -62 -33 -38 -44 -86 -35 -156 3 -30 1 -65 -6 -83
-14 -40 -4 -93 27 -138 20 -30 24 -45 19 -76 -13 -82 67 -218 148 -250 44 -18
44 -17 24 -39 -25 -27 -45 -88 -46 -136 0 -96 38 -161 222 -370 176 -201 364
-384 428 -420 48 -26 65 -30 130 -30 90 0 155 21 241 76 l61 40 -4 -28 c-3
-15 -24 -131 -46 -258 -70 -398 -88 -525 -73 -535 11 -6 11 -36 1 -161 -17
-232 -26 -512 -20 -624 10 -153 35 -197 183 -330 38 -34 36 -23 77 -380 24
-210 52 -422 121 -925 42 -308 76 -519 161 -1018 8 -46 8 -96 -1 -185 -15
-160 -14 -226 4 -276 14 -41 14 -44 -15 -95 -36 -62 -135 -161 -203 -200 -26
-16 -98 -46 -160 -68 -140 -49 -200 -82 -243 -132 -67 -78 -64 -151 8 -187 23
-12 95 -28 176 -41 314 -46 609 3 813 138 45 30 84 54 85 54 1 0 5 -12 8 -26
10 -36 60 -54 155 -54 83 0 197 20 255 44 58 24 66 46 66 176 0 110 1 118 34
185 l34 70 12 270 c12 271 17 1026 6 1043 -3 5 8 130 24 277 16 147 33 316 36
377 4 60 10 105 14 101 31 -37 415 -1329 490 -1648 23 -99 53 -224 66 -279 26
-111 72 -217 111 -258 25 -26 26 -31 20 -115 -4 -66 -13 -108 -36 -168 -36
-89 -42 -162 -17 -200 39 -59 215 -127 362 -140 201 -17 449 60 520 164 32 47
31 93 -3 299 l-27 162 27 55 c24 50 27 66 27 168 0 203 -41 1066 -56 1172 -3
22 -16 81 -29 130 -21 78 -28 150 -50 535 -14 245 -31 515 -36 600 l-11 156
36 59 c20 33 44 83 53 110 31 92 25 19 -13 -147 -50 -216 -52 -240 -24 -268
51 -51 183 11 325 154 189 189 234 334 203 644 l-14 132 36 18 c73 38 76 48
89 359 30 721 16 1171 -49 1593 -27 176 -66 366 -101 495 -49 183 -199 636
-230 698 -70 138 -179 200 -669 384 -200 75 -375 162 -434 215 l-48 43 12 44
c6 24 34 76 61 116 26 39 63 105 81 146 29 66 33 84 33 169 0 84 -3 102 -28
152 -16 32 -25 62 -22 68 13 22 6 221 -10 278 -44 150 -164 293 -313 370 -158
82 -358 112 -518 77z m661 -1562 c-21 -73 -213 -449 -424 -828 -89 -159 -183
-334 -209 -387 -26 -54 -49 -98 -52 -98 -3 0 -2 42 1 93 27 382 31 464 27 513
-5 55 -5 55 40 95 62 54 86 59 123 23 16 -15 32 -25 35 -21 7 7 -78 147 -105
171 -21 19 -62 23 -100 11 -15 -4 -37 -1 -61 10 -24 11 -49 15 -64 11 -24 -6
-191 -184 -181 -194 2 -2 19 8 39 23 l35 26 35 -38 c20 -21 36 -41 36 -45 0
-3 -18 -46 -41 -95 -66 -142 -130 -311 -176 -458 -8 -27 -19 -54 -23 -60 -4
-5 -10 -19 -14 -30 -12 -44 13 802 30 1010 8 93 10 94 98 31 118 -85 177 -110
255 -110 36 0 91 6 121 13 92 22 267 112 375 193 102 77 205 177 205 199 0 7
3 10 6 6 3 -3 -2 -32 -11 -64z m-2518 -1065 c-7 -112 -37 -199 -97 -281 -80
-108 -173 -152 -243 -115 -24 12 -121 97 -128 112 -2 6 22 9 57 7 66 -2 140
12 194 39 89 45 179 165 200 266 6 30 14 54 17 54 3 0 3 -37 0 -82z m3501
-2497 c138 -35 292 -61 365 -62 93 0 62 -14 -53 -24 -108 -8 -212 12 -329 66
-97 43 -93 48 17 20z"/>
</g>
</svg>
