<?xml version="1.0" standalone="no"?>
<!DOCTYPE svg PUBLIC "-//W3C//DTD SVG 20010904//EN"
 "http://www.w3.org/TR/2001/REC-SVG-20010904/DTD/svg10.dtd">
<svg version="1.0" xmlns="http://www.w3.org/2000/svg"
 width="1024.000000pt" height="1536.000000pt" viewBox="0 0 1024.000000 1536.000000"
 preserveAspectRatio="xMidYMid meet">
<metadata>
Created by potrace 1.16, written by Peter Selinger 2001-2019
</metadata>
<g transform="translate(0.000000,1536.000000) scale(0.100000,-0.100000)"
fill="#000000" stroke="none">
<path d="M4975 14515 c-121 -25 -217 -69 -360 -166 -185 -125 -259 -219 -292
-373 -22 -107 -5 -276 46 -441 14 -46 17 -72 10 -110 -13 -81 -10 -216 6 -280
23 -90 97 -232 158 -301 40 -46 56 -73 61 -104 9 -58 40 -114 76 -140 65 -46
78 -211 26 -326 -52 -114 -124 -176 -261 -227 -38 -14 -194 -65 -345 -113
-151 -48 -300 -98 -330 -111 -93 -41 -116 -72 -165 -223 -71 -222 -180 -472
-305 -696 -107 -192 -147 -275 -161 -340 -7 -30 -16 -54 -21 -54 -4 0 -8 1 -8
3 0 9 -183 536 -199 572 -10 24 -38 63 -60 88 -41 44 -41 45 -27 78 21 50 38
192 30 247 -9 63 -35 131 -100 264 -77 156 -99 213 -130 339 -27 112 -38 129
-83 129 -12 0 -30 -9 -41 -20 -26 -26 -27 -124 -3 -258 19 -109 21 -106 -69
-116 -79 -8 -147 -45 -225 -123 -95 -94 -113 -180 -64 -294 11 -27 19 -69 20
-108 2 -90 35 -159 118 -242 l65 -67 -1 -73 c0 -41 -6 -109 -12 -152 -6 -43
-9 -126 -7 -185 4 -99 8 -115 47 -206 60 -139 342 -699 388 -771 54 -83 133
-151 196 -170 150 -44 352 20 487 155 73 72 318 394 371 486 l33 59 7 -35 c4
-19 12 -174 18 -345 13 -365 3 -620 -34 -881 -29 -204 -31 -256 -9 -279 14
-14 15 -29 5 -138 -7 -67 -18 -194 -26 -282 -14 -152 -26 -277 -61 -635 -8
-85 -18 -188 -23 -229 -14 -110 -5 -124 97 -161 34 -13 62 -28 62 -34 0 -6 5
-40 10 -76 5 -36 23 -207 40 -380 17 -173 37 -378 45 -455 20 -185 68 -708 95
-1015 11 -135 27 -317 35 -405 22 -254 24 -290 40 -675 23 -573 37 -1155 30
-1270 -15 -251 -47 -644 -60 -745 -8 -60 -15 -141 -15 -178 0 -75 -13 -108
-83 -212 -56 -82 -188 -218 -258 -264 -32 -21 -93 -53 -136 -71 -151 -62 -339
-158 -382 -196 -46 -40 -80 -101 -81 -145 0 -74 74 -102 318 -121 265 -20 606
8 705 58 18 9 57 42 87 73 70 72 121 112 188 145 l52 26 0 -40 c0 -52 31 -85
87 -95 80 -13 296 38 356 85 59 46 85 164 93 425 5 142 10 184 22 198 17 19
22 101 56 887 50 1148 53 1713 11 1950 -33 185 -19 599 62 1807 9 139 18 251
20 249 5 -5 69 -347 102 -546 39 -240 94 -628 121 -855 72 -621 136 -957 325
-1715 163 -654 193 -860 215 -1465 6 -165 13 -305 15 -311 2 -7 21 -17 42 -24
21 -6 43 -13 50 -15 18 -6 -25 -133 -123 -374 -76 -184 -144 -397 -144 -452 0
-55 89 -89 280 -108 236 -24 378 -19 503 19 72 22 130 65 166 124 27 43 66
166 80 252 11 63 15 70 34 70 39 -2 41 47 14 308 l-24 240 26 21 25 22 -33
289 c-18 159 -48 438 -67 619 -36 349 -49 474 -114 1075 -67 614 -94 789 -147
928 -28 76 -30 120 -13 367 6 83 17 256 25 385 20 305 103 1467 111 1547 l7
62 41 7 c59 9 115 34 126 54 5 9 14 66 20 126 6 59 13 110 14 112 2 2 41 5 87
8 85 4 123 19 133 51 12 40 68 317 115 569 100 535 156 913 170 1156 8 120 0
409 -13 508 -3 25 -15 122 -26 215 -44 361 -79 570 -181 1060 -111 535 -159
721 -195 764 -45 54 -165 109 -699 320 -422 168 -474 201 -568 367 -57 102
-70 153 -62 246 10 116 17 131 87 207 72 78 130 180 153 266 20 80 19 197 -4
262 -16 47 -17 60 -5 120 7 38 13 109 14 160 1 329 -159 557 -515 734 -131 65
-272 83 -410 54z m610 -2281 c-9 -49 -25 -113 -36 -142 -10 -30 -19 -74 -19
-99 0 -27 -18 -98 -44 -177 -24 -72 -58 -177 -75 -233 -16 -56 -59 -182 -94
-280 -36 -98 -80 -223 -98 -278 l-34 -100 -7 55 c-10 80 -46 810 -40 810 1 0
31 -23 67 -51 75 -59 108 -63 113 -14 4 42 -35 97 -124 174 -78 68 -84 82 -59
131 20 40 76 76 235 153 74 37 155 84 180 106 25 21 46 38 48 36 1 -1 -5 -42
-13 -91z m-619 -166 c19 -21 34 -45 34 -54 0 -29 -32 -77 -97 -146 -71 -75
-109 -144 -91 -165 20 -25 59 -14 101 27 22 22 41 39 42 38 6 -6 -28 -152 -86
-370 -43 -164 -68 -283 -89 -433 -16 -114 -32 -210 -35 -213 -9 -9 -5 491 5
675 6 98 22 280 35 405 14 124 25 258 25 298 l0 71 61 -47 c33 -26 76 -65 95
-86z m-2156 -1148 c-18 -80 -64 -165 -120 -221 -78 -78 -140 -91 -184 -38 -14
17 -26 39 -26 50 0 28 18 59 34 59 8 0 44 13 80 30 78 34 156 104 194 172 23
41 28 45 31 26 1 -13 -2 -48 -9 -78z m3736 -980 c9 -36 33 -119 54 -185 50
-157 60 -211 58 -320 -1 -49 2 -151 6 -225 8 -132 5 -167 -26 -315 l-11 -50
-48 150 c-74 230 -74 226 -74 555 0 264 12 528 22 475 2 -11 11 -49 19 -85z"/>
</g>
</svg>
