<?xml version="1.0" standalone="no"?>
<!DOCTYPE svg PUBLIC "-//W3C//DTD SVG 20010904//EN"
 "http://www.w3.org/TR/2001/REC-SVG-20010904/DTD/svg10.dtd">
<svg version="1.0" xmlns="http://www.w3.org/2000/svg"
 width="1024.000000pt" height="1536.000000pt" viewBox="0 0 1024.000000 1536.000000"
 preserveAspectRatio="xMidYMid meet">
<metadata>
Created by potrace 1.16, written by Peter Selinger 2001-2019
</metadata>
<g transform="translate(0.000000,1536.000000) scale(0.100000,-0.100000)"
fill="#000000" stroke="none">
<path d="M5487 14520 c-155 -28 -319 -104 -450 -210 -86 -69 -220 -221 -275
-312 -47 -78 -98 -211 -116 -300 -28 -136 -15 -422 22 -519 8 -21 6 -43 -13
-100 -48 -154 -59 -254 -59 -534 1 -194 5 -280 16 -340 l16 -80 -35 -31 c-20
-18 -51 -34 -70 -37 -20 -4 -65 -24 -102 -46 -36 -22 -149 -74 -251 -117 -321
-133 -408 -186 -495 -306 -57 -76 -148 -266 -242 -503 -92 -232 -106 -259
-180 -360 -33 -44 -86 -118 -119 -164 -32 -46 -64 -86 -69 -88 -6 -1 -103 93
-216 210 l-206 213 13 64 c33 156 6 362 -70 549 -60 145 -77 230 -85 411 -9
210 -31 250 -137 250 -64 0 -111 -29 -139 -85 -33 -68 -33 -335 2 -507 l5 -28
-133 0 c-156 0 -219 -14 -298 -68 -40 -27 -64 -54 -88 -97 -30 -54 -33 -66
-28 -115 6 -57 6 -62 2 -215 -2 -76 1 -96 18 -120 12 -19 22 -55 25 -101 6
-61 16 -91 72 -205 62 -128 135 -239 181 -276 21 -17 22 -27 23 -158 2 -169
21 -252 93 -400 135 -276 440 -658 602 -753 166 -97 332 -101 509 -12 82 41
207 137 271 208 l55 62 -12 -63 c-26 -127 -80 -671 -109 -1092 -36 -522 -48
-778 -49 -1055 -1 -289 -1 -296 22 -342 30 -61 91 -94 158 -84 28 3 44 2 44
-5 0 -6 4 -52 10 -102 5 -51 14 -157 20 -237 49 -646 119 -1100 280 -1810 58
-255 81 -381 114 -630 61 -450 95 -1021 99 -1627 l2 -359 -39 -79 c-30 -62
-57 -98 -120 -160 -122 -120 -180 -150 -468 -240 -135 -42 -191 -83 -234 -168
-23 -44 -26 -60 -22 -133 2 -70 6 -86 27 -108 67 -71 212 -99 526 -100 244 -1
340 8 511 49 159 38 321 114 405 192 25 23 27 23 83 9 103 -27 293 -40 401
-27 156 18 233 64 266 158 16 43 19 261 6 359 -8 59 -8 60 18 72 57 26 58 40
51 567 -7 533 -21 1084 -36 1425 -25 575 -23 1700 3 1540 27 -171 135 -642
291 -1280 192 -783 331 -1475 381 -1900 9 -74 20 -217 24 -317 6 -153 10 -185
25 -201 16 -19 15 -24 -24 -116 -59 -138 -91 -270 -97 -402 -7 -141 0 -176 43
-223 75 -84 205 -115 479 -115 184 1 208 3 300 27 142 38 218 78 295 156 76
77 112 140 142 248 19 68 22 106 24 298 1 163 5 237 17 285 9 36 23 121 31
190 34 286 41 446 40 940 -1 553 -7 661 -74 1210 -69 570 -80 713 -100 1275
-24 699 -37 924 -66 1180 l-6 50 46 21 46 21 12 -36 c15 -43 16 -164 4 -278
-7 -61 -6 -90 4 -113 16 -38 52 -49 90 -27 l27 17 23 -63 c14 -38 37 -76 60
-99 49 -49 91 -51 168 -7 42 23 62 29 86 25 44 -8 116 15 189 62 34 22 86 52
115 68 66 34 166 133 210 207 18 30 45 88 59 129 41 117 34 301 -18 500 l-21
76 26 45 c90 153 145 459 177 992 15 254 6 967 -15 1170 -40 386 -112 819
-227 1380 -33 160 -77 376 -98 480 -50 246 -54 259 -96 330 -107 177 -303 301
-780 490 -438 174 -585 251 -680 357 -77 86 -114 177 -116 288 -1 68 -1 71 38
113 22 24 63 78 92 121 124 183 170 336 136 452 -16 56 -57 127 -89 153 -13
11 -16 36 -16 131 0 276 -75 456 -274 656 -136 137 -285 225 -471 279 -75 22
-115 27 -240 30 -82 2 -172 0 -198 -5z m470 -967 c39 -18 53 -41 33 -53 -7 -4
-34 -11 -61 -14 -27 -4 -93 -20 -146 -37 -54 -16 -123 -32 -154 -36 -68 -7
-129 3 -129 21 0 41 141 117 260 140 45 8 162 -4 197 -21z m-994 -8 c37 -8 94
-26 126 -40 60 -27 120 -79 107 -92 -18 -18 -136 -14 -222 7 -131 33 -184 63
-184 106 0 36 61 43 173 19z m158 -711 c27 -24 149 -64 199 -64 55 0 131 20
186 48 l42 21 63 -32 c128 -64 268 -232 286 -341 l6 -38 -46 35 c-108 82 -302
131 -517 130 -217 -1 -342 -37 -440 -129 l-50 -47 0 41 c0 48 33 158 62 210
37 64 90 124 137 153 53 34 50 33 72 13z m1292 -537 c-9 -119 -66 -235 -272
-550 -76 -116 -146 -227 -155 -244 -9 -18 -20 -33 -25 -33 -22 0 -371 271
-371 288 0 4 30 16 66 26 151 44 387 179 538 310 72 61 164 175 190 234 23 52
35 40 29 -31z m-1405 -471 c26 -13 87 -36 136 -52 l90 -27 -50 -45 c-107 -98
-295 -226 -308 -210 -8 9 70 358 80 358 2 0 26 -11 52 -24z m871 -528 c-17
-33 -58 -108 -93 -166 -120 -203 -261 -486 -352 -707 l-33 -80 0 105 c-1 242
37 683 69 810 23 88 38 120 110 227 l53 80 138 -105 138 -104 -30 -60z m-715
175 c-2 -96 -15 -144 -69 -253 -80 -159 -170 -415 -245 -695 -12 -44 -26 -89
-31 -100 -12 -26 -3 732 10 834 11 92 14 95 196 205 77 47 140 86 140 86 0 0
-1 -35 -1 -77z m-2459 -834 c14 -56 16 -94 12 -173 -8 -118 -26 -194 -71 -291
-103 -221 -307 -288 -421 -139 -24 32 -71 134 -61 134 1 0 18 -8 37 -17 19 -9
59 -19 90 -21 191 -14 379 238 379 508 0 45 4 79 9 76 5 -3 17 -38 26 -77z
m4765 -1669 c6 -113 12 -380 15 -595 4 -359 3 -383 -10 -305 -17 104 -32 299
-46 610 -10 220 -8 314 8 500 6 71 7 73 14 35 5 -22 13 -132 19 -245z m370
-1771 c134 -27 169 -30 260 -26 58 3 132 13 164 22 32 8 61 14 63 11 2 -2 -8
-17 -22 -34 -87 -103 -462 -90 -620 23 -44 31 -47 35 -25 35 14 0 95 -14 180
-31z"/>
</g>
</svg>
