<?xml version="1.0" standalone="no"?>
<!DOCTYPE svg PUBLIC "-//W3C//DTD SVG 20010904//EN"
 "http://www.w3.org/TR/2001/REC-SVG-20010904/DTD/svg10.dtd">
<svg version="1.0" xmlns="http://www.w3.org/2000/svg"
 width="1024.000000pt" height="1536.000000pt" viewBox="0 0 1024.000000 1536.000000"
 preserveAspectRatio="xMidYMid meet">
<metadata>
Created by potrace 1.16, written by Peter Selinger 2001-2019
</metadata>
<g transform="translate(0.000000,1536.000000) scale(0.100000,-0.100000)"
fill="#000000" stroke="none">
<path d="M6034 14379 c-159 -8 -255 -30 -324 -74 -30 -19 -66 -40 -80 -46
-139 -65 -127 -55 -264 -207 -252 -280 -274 -667 -65 -1118 22 -49 66 -152 96
-229 45 -114 56 -156 63 -230 5 -49 15 -108 23 -130 36 -99 117 -207 234 -312
138 -123 266 -249 298 -292 17 -22 37 -42 45 -44 8 -3 -1 -5 -20 -6 -56 -2
-113 -34 -202 -113 -87 -77 -151 -128 -161 -128 -10 0 -76 116 -108 190 -17
41 -42 117 -55 169 -33 131 -74 419 -81 579 -3 72 -8 132 -10 132 -2 0 -30
-17 -61 -39 -185 -125 -344 -167 -717 -191 -318 -20 -438 -30 -484 -42 -52
-13 -108 -64 -204 -185 -31 -39 -85 -96 -119 -125 -33 -29 -103 -91 -154 -138
-81 -75 -114 -97 -290 -190 -244 -129 -479 -261 -779 -437 -255 -150 -304
-190 -324 -270 -7 -26 -68 -217 -136 -423 -129 -390 -195 -617 -263 -905 -88
-371 -125 -552 -126 -610 l-1 -60 83 -19 c75 -18 83 -22 79 -40 -3 -12 -30
-119 -61 -238 -63 -248 -80 -351 -74 -443 4 -72 22 -100 69 -110 16 -4 29 -11
29 -16 0 -23 74 -89 117 -103 25 -9 65 -34 89 -56 46 -43 62 -47 113 -29 27
10 43 8 86 -6 51 -18 55 -18 98 -1 64 24 94 50 122 107 14 27 32 49 41 49 8 0
28 7 44 15 38 20 54 71 46 150 -4 42 -1 77 9 111 8 27 15 63 15 80 0 50 -38
160 -91 266 -27 54 -49 104 -49 113 0 26 178 699 226 853 95 305 164 470 247
585 57 79 77 126 77 183 0 21 6 34 18 39 204 82 791 259 807 243 27 -27 40
-710 17 -918 -33 -300 -135 -513 -391 -820 -78 -93 -99 -154 -66 -190 13 -15
11 -26 -26 -111 -109 -250 -437 -1062 -449 -1111 -8 -30 -8 -52 -1 -70 13 -34
209 -198 331 -277 52 -34 136 -83 186 -108 90 -46 91 -47 122 -112 40 -86 83
-135 147 -172 l52 -29 -49 -168 c-108 -370 -129 -447 -188 -679 -33 -133 -67
-261 -75 -284 -8 -23 -39 -68 -69 -100 -46 -49 -56 -68 -66 -116 -6 -32 -16
-74 -21 -94 l-9 -37 -88 -7 c-108 -8 -144 -24 -343 -150 -538 -341 -799 -486
-1134 -630 -99 -43 -186 -82 -194 -88 -24 -20 -31 -56 -20 -103 6 -25 9 -47 6
-51 -4 -3 -58 6 -121 21 -67 15 -145 26 -187 26 -75 0 -326 -43 -368 -63 -35
-17 -58 -62 -70 -137 -21 -131 -6 -451 24 -509 15 -30 23 -34 98 -46 l37 -6 0
-54 c0 -33 -13 -95 -35 -164 -65 -209 -80 -384 -50 -583 17 -116 42 -193 101
-313 59 -119 132 -216 201 -265 73 -52 106 -58 173 -29 45 19 56 30 73 68 19
41 22 74 28 311 9 349 20 403 107 532 52 79 72 124 92 205 6 29 16 50 21 47
12 -7 11 -107 0 -158 -5 -21 -6 -35 -1 -30 15 17 50 129 60 193 5 35 11 65 13
68 3 2 7 -13 10 -34 7 -41 32 -83 49 -83 6 0 8 19 4 53 -19 171 -19 171 3 199
11 14 34 31 51 37 28 9 32 7 53 -20 12 -17 34 -37 49 -45 70 -36 123 -14 603
263 66 38 212 117 325 174 205 105 264 133 655 314 295 136 458 219 545 277
89 58 111 88 312 443 111 196 443 762 454 774 2 2 126 -117 276 -264 150 -148
308 -298 351 -334 75 -63 78 -67 73 -101 -3 -19 -9 -75 -12 -125 -6 -89 -6
-91 39 -206 l46 -117 0 -171 c1 -339 43 -543 199 -951 22 -58 59 -154 82 -215
60 -158 145 -398 286 -814 68 -200 130 -371 136 -379 7 -8 31 -23 54 -33 37
-15 45 -25 64 -76 34 -90 36 -141 10 -192 -52 -103 -34 -237 65 -491 18 -47
52 -134 74 -194 52 -139 67 -156 138 -156 161 0 483 111 577 198 15 15 40 51
55 81 l26 55 115 17 c185 27 271 54 446 141 111 55 271 169 378 269 110 102
232 255 278 346 41 82 41 82 23 110 -25 38 -72 80 -120 105 -31 17 -57 22
-115 22 -85 -1 -128 -17 -280 -104 -104 -61 -202 -96 -286 -105 -71 -8 -212
23 -349 76 -44 17 -99 37 -123 43 l-43 12 58 18 c32 10 81 30 108 45 l50 26
-34 3 c-29 3 -153 -19 -201 -36 -10 -3 -12 -2 -5 5 11 11 160 59 214 70 64 12
2 21 -78 11 -77 -9 -175 -43 -248 -85 -40 -23 -42 -23 -52 -6 -20 38 -50 126
-45 134 2 4 55 44 117 87 61 44 120 88 130 100 21 23 30 -11 -83 297 -118 322
-142 391 -265 756 -67 201 -132 406 -143 455 -23 95 -62 365 -137 929 -25 193
-55 387 -65 432 -25 108 -68 201 -134 287 -29 39 -135 186 -236 326 -101 140
-229 318 -285 395 -56 77 -172 238 -258 358 l-157 217 40 79 c22 44 44 82 50
86 5 3 43 -25 82 -62 175 -164 240 -198 303 -157 32 21 45 65 85 289 17 99 49
277 71 395 43 238 74 449 85 566 6 66 11 80 34 101 l28 24 -5 372 -5 372 77
160 c42 88 140 296 218 463 78 166 144 302 147 302 8 0 249 -344 317 -450 33
-52 83 -143 111 -201 56 -118 97 -162 240 -262 132 -93 259 -147 346 -147 102
0 228 99 526 414 228 241 250 273 258 389 5 74 -15 264 -29 272 -13 8 47 132
85 177 74 86 114 245 82 323 -25 58 -46 167 -46 235 0 50 -5 65 -35 109 -19
28 -46 75 -59 105 -13 30 -33 59 -44 65 -13 7 -94 11 -214 11 -174 0 -196 -2
-225 -20 -22 -13 -35 -31 -43 -59 -9 -34 -17 -42 -54 -56 -149 -57 -165 -225
-42 -434 54 -92 55 -109 12 -165 -19 -26 -59 -89 -88 -141 -29 -52 -56 -95
-60 -95 -5 0 -73 129 -152 288 -110 219 -148 305 -161 364 -9 42 -29 96 -44
120 -22 35 -29 63 -39 153 -6 61 -21 137 -32 170 -12 33 -35 125 -51 205 -46
221 -82 284 -211 366 -154 99 -345 181 -578 249 -154 45 -154 45 -149 50 3 2
43 -3 89 -11 69 -12 97 -13 148 -3 77 14 98 37 107 117 9 90 26 164 46 204 11
21 19 45 19 55 0 10 11 35 25 55 14 20 25 50 25 65 1 47 36 112 72 131 53 28
98 77 98 107 0 46 -31 137 -76 223 -57 107 -60 163 -13 216 16 19 34 50 40 68
21 75 5 223 -41 378 -12 40 -18 75 -15 78 4 4 30 -18 58 -48 l50 -55 -7 55
c-8 63 -35 129 -72 178 -49 64 4 53 79 -17 l50 -46 -6 35 c-4 19 -27 77 -52
127 -88 179 -258 321 -507 422 -155 64 -286 81 -514 70z m329 -2521 c-4 -18
-7 -166 -5 -330 5 -469 -15 -613 -158 -1133 -33 -117 -33 -112 -10 80 15 115
13 584 -2 701 -20 156 -17 203 18 257 32 51 50 63 70 46 21 -17 18 27 -5 76
-23 50 -53 78 -114 105 -26 12 -47 24 -47 28 0 4 12 15 28 24 15 9 69 53 121
97 52 45 99 81 104 81 5 0 5 -14 0 -32z m-453 -335 c0 -22 11 -57 25 -82 14
-23 25 -53 25 -66 0 -44 -74 -310 -232 -835 -85 -285 -82 -275 -85 -220 -13
220 -28 419 -48 665 -32 385 -39 525 -29 524 5 0 26 -22 47 -50 27 -35 44 -49
62 -49 15 0 62 29 122 75 54 41 101 75 106 75 4 0 7 -17 7 -37z m2160 -1315
c0 -4 31 -71 69 -150 79 -164 135 -236 201 -258 37 -12 45 -12 77 5 19 11 57
44 85 74 l51 55 -8 -34 c-9 -44 -34 -92 -75 -148 -38 -52 -107 -87 -153 -78
-103 21 -217 206 -258 419 -10 56 -19 115 -19 131 0 28 1 29 15 10 8 -10 15
-22 15 -26z"/>
</g>
</svg>
