<?xml version="1.0" standalone="no"?>
<!DOCTYPE svg PUBLIC "-//W3C//DTD SVG 20010904//EN"
 "http://www.w3.org/TR/2001/REC-SVG-20010904/DTD/svg10.dtd">
<svg version="1.0" xmlns="http://www.w3.org/2000/svg"
 width="1024.000000pt" height="1024.000000pt" viewBox="0 0 1024.000000 1024.000000"
 preserveAspectRatio="xMidYMid meet">
<metadata>
Created by potrace 1.16, written by Peter Selinger 2001-2019
</metadata>
<g transform="translate(0.000000,1024.000000) scale(0.100000,-0.100000)"
fill="#000000" stroke="none">
<path d="M5769 9830 c-108 -19 -217 -61 -314 -120 -119 -73 -131 -83 -157
-133 -21 -43 -18 -87 9 -109 55 -45 70 -192 32 -313 -11 -38 -18 -78 -14 -92
4 -17 -7 -49 -36 -107 -23 -46 -44 -104 -46 -129 -5 -45 -5 -46 33 -64 40 -19
67 -59 78 -114 4 -19 11 -45 16 -59 5 -14 11 -56 13 -94 3 -57 8 -73 27 -88
25 -20 63 -23 108 -7 40 14 81 -5 100 -45 13 -27 12 -30 -23 -66 -20 -21 -60
-51 -88 -66 -51 -27 -57 -28 -257 -34 -227 -7 -236 -9 -340 -80 -34 -23 -117
-69 -184 -101 -98 -48 -143 -63 -227 -79 -198 -36 -279 -43 -356 -31 -40 6
-94 11 -122 11 -37 0 -94 17 -233 70 -100 39 -219 87 -263 106 -214 96 -373
149 -391 131 -4 -3 -8 -41 -10 -83 -1 -43 -8 -101 -15 -128 -12 -56 -66 -176
-77 -176 -4 0 -15 15 -25 33 l-18 33 45 94 c51 109 79 206 66 229 -4 9 -37 31
-72 49 -34 18 -99 63 -144 101 -116 97 -198 129 -523 202 -274 62 -291 63
-291 18 0 -41 89 -92 250 -143 121 -38 118 -35 85 -91 -24 -42 -27 -55 -21
-104 15 -138 43 -175 167 -216 70 -24 91 -26 150 -21 87 9 140 -6 179 -51 27
-30 30 -41 30 -98 0 -61 2 -68 37 -106 44 -48 68 -61 238 -127 72 -28 216 -87
320 -132 416 -179 450 -186 964 -195 206 -4 381 -9 389 -13 13 -4 14 -45 8
-311 -14 -608 -33 -800 -112 -1105 -16 -64 -16 -69 -1 -81 14 -10 15 -18 7
-41 -5 -16 -30 -150 -55 -299 -25 -148 -57 -328 -71 -400 -13 -71 -24 -144
-24 -161 0 -46 38 -86 125 -131 l75 -38 0 -185 c0 -290 25 -811 65 -1330 8
-107 22 -351 31 -541 15 -301 16 -395 5 -738 -13 -446 -23 -592 -56 -844 -26
-200 -26 -201 -138 -310 -76 -73 -164 -116 -323 -155 -189 -47 -247 -84 -260
-164 -5 -27 -1 -40 20 -65 39 -47 101 -57 356 -57 235 0 224 -2 434 74 86 32
92 32 150 21 34 -7 109 -12 167 -13 116 -1 149 9 182 54 19 25 19 35 11 189
-7 127 -6 166 4 180 25 35 36 143 98 949 28 364 42 890 26 1024 -5 45 -5 126
0 185 4 58 19 266 33 461 37 521 56 763 62 780 10 26 44 -98 239 -868 74 -293
151 -586 171 -650 101 -325 113 -397 248 -1367 56 -400 73 -497 96 -521 10
-11 19 -31 19 -45 0 -30 -52 -234 -80 -314 -12 -33 -24 -90 -27 -127 -6 -64
-5 -68 24 -96 40 -40 139 -57 288 -49 208 12 312 63 331 162 3 19 -3 131 -15
248 -17 169 -19 228 -11 283 27 191 -5 1137 -50 1464 -22 161 -40 244 -125
579 -63 245 -65 258 -65 380 -1 69 -7 241 -15 381 -31 567 -49 980 -42 986 4
4 48 19 99 34 121 34 127 44 110 166 -7 48 -22 123 -32 168 -11 45 -20 104
-20 132 0 42 4 54 28 76 15 14 41 33 59 42 30 15 34 15 65 -4 43 -26 81 -25
112 3 28 25 184 269 411 642 84 138 169 277 190 309 65 103 88 161 80 209 -8
48 -39 132 -83 228 -47 102 -255 498 -294 559 -19 30 -40 78 -47 105 -7 28
-30 79 -51 115 -49 82 -53 94 -101 275 -58 219 -83 249 -265 314 -164 58 -229
84 -336 134 -114 54 -175 93 -241 156 -47 45 -49 45 -63 26 -8 -11 -18 -31
-21 -45 -3 -14 -27 -79 -53 -145 -121 -306 -272 -831 -335 -1160 -40 -210 -54
-361 -65 -695 -17 -494 -21 -561 -32 -553 -18 10 -2 657 32 1373 11 229 23
384 46 605 21 202 18 192 59 199 26 5 35 12 35 27 0 35 -26 84 -54 98 -28 15
-62 73 -52 89 3 5 32 15 65 21 86 17 189 72 251 133 77 77 85 98 85 204 l0 91
81 134 c105 173 117 197 145 299 53 196 15 384 -111 555 -78 106 -177 177
-290 209 -67 18 -238 28 -301 16z m-31 -1672 c14 -14 4 -34 -43 -81 -31 -31
-36 -42 -33 -74 2 -30 8 -39 24 -41 l22 -3 -25 -77 c-51 -160 -148 -624 -203
-974 -17 -106 -38 -236 -46 -290 -9 -53 -35 -248 -58 -435 l-42 -338 -62 -9
c-35 -5 -65 -6 -69 -3 -3 4 -1 35 5 69 6 35 83 488 171 1008 184 1092 184
1093 233 1164 56 82 99 111 126 84z m1207 -1197 c121 -214 197 -432 190 -543
-5 -79 -78 -214 -211 -393 -47 -64 -180 -192 -189 -184 -2 2 -17 85 -34 184
l-32 181 42 174 c61 263 169 680 176 680 1 0 27 -45 58 -99z m-22 -1511 c10
-16 14 -30 10 -30 -17 0 -153 152 -153 170 0 15 123 -106 143 -140z"/>
</g>
</svg>
