<?xml version="1.0" standalone="no"?>
<!DOCTYPE svg PUBLIC "-//W3C//DTD SVG 20010904//EN"
 "http://www.w3.org/TR/2001/REC-SVG-20010904/DTD/svg10.dtd">
<svg version="1.0" xmlns="http://www.w3.org/2000/svg"
 width="1024.000000pt" height="1536.000000pt" viewBox="0 0 1024.000000 1536.000000"
 preserveAspectRatio="xMidYMid meet">
<metadata>
Created by potrace 1.16, written by Peter Selinger 2001-2019
</metadata>
<g transform="translate(0.000000,1536.000000) scale(0.100000,-0.100000)"
fill="#000000" stroke="none">
<path d="M3242 14304 l-22 -15 0 -403 0 -403 -32 -61 c-27 -53 -31 -73 -32
-143 l-2 -81 -39 -21 c-53 -27 -164 -140 -197 -202 -44 -84 -61 -166 -55 -280
5 -119 27 -184 90 -267 l43 -58 -9 -72 c-15 -127 -5 -209 37 -291 20 -40 36
-85 36 -102 1 -43 18 -111 39 -156 l19 -39 -54 -36 c-67 -45 -120 -107 -139
-165 -47 -146 -49 -676 -4 -1049 34 -291 122 -554 203 -615 99 -73 259 -58
565 51 214 77 390 171 507 270 l51 43 6 -67 c47 -514 32 -1005 -48 -1542 -22
-145 -23 -166 -10 -176 13 -10 12 -37 -10 -230 -30 -264 -62 -628 -71 -820 -6
-134 -5 -144 16 -186 l22 -45 -36 -309 c-20 -170 -49 -439 -66 -599 -33 -312
-50 -454 -80 -665 -43 -301 -82 -690 -105 -1050 -8 -117 -58 -718 -85 -1010
-32 -348 -98 -779 -182 -1192 -38 -186 -41 -211 -29 -243 l12 -35 -67 -78
c-119 -135 -227 -243 -288 -284 -83 -57 -158 -84 -347 -123 -255 -53 -327 -85
-368 -168 -23 -47 -23 -48 -6 -93 21 -56 69 -92 176 -134 114 -44 226 -68 374
-82 110 -9 152 -9 272 5 180 21 260 41 325 83 78 49 150 84 176 84 12 0 40
-11 61 -24 54 -35 104 -46 203 -46 107 0 180 14 236 46 64 38 76 62 77 163 0
47 5 143 9 213 7 92 5 152 -4 217 -11 80 -11 92 3 105 9 9 19 38 22 64 3 26
24 137 46 247 22 110 60 313 84 450 24 138 62 340 84 450 111 547 174 1072
170 1422 -2 155 0 186 14 200 25 28 34 60 62 219 14 82 50 248 80 369 57 232
130 544 190 810 20 88 38 167 41 175 6 16 119 -527 159 -760 13 -80 31 -206
40 -280 26 -221 50 -294 270 -810 234 -549 294 -710 410 -1105 94 -320 275
-1017 275 -1059 0 -4 16 -23 36 -41 l36 -33 -37 -114 c-72 -220 -150 -328
-365 -503 -160 -131 -210 -193 -210 -263 0 -168 597 -219 864 -74 100 54 204
169 269 298 27 53 44 64 101 64 35 0 121 42 159 78 62 59 70 90 64 257 -6 185
-26 267 -102 423 -49 101 -53 115 -40 128 8 9 15 30 15 48 0 71 -201 1032
-276 1316 -51 195 -108 381 -149 490 -20 52 -39 102 -41 110 -4 12 31 22 183
52 169 33 580 125 804 179 48 11 101 29 118 40 65 40 70 82 51 509 -6 129 -14
426 -18 660 -9 470 -8 468 -74 508 -49 30 -178 43 -345 36 l-141 -7 -7 49 c-8
53 -43 129 -84 183 -24 32 -25 39 -26 180 -1 110 -6 172 -23 251 -40 192 -41
202 -14 225 44 38 46 90 46 1040 1 828 -3 1005 -29 1365 -3 36 -9 182 -15 325
-14 339 -38 737 -51 850 -21 185 -64 290 -158 388 -83 88 -150 129 -397 243
-429 198 -590 289 -642 362 -68 94 -19 251 147 477 150 204 200 333 208 540 8
192 -36 347 -135 478 -132 174 -474 295 -727 257 -84 -12 -242 -66 -310 -105
-22 -12 -73 -39 -113 -60 -138 -70 -140 -74 -168 -295 -19 -152 -15 -403 6
-455 8 -19 13 -88 14 -190 1 -148 3 -165 29 -235 16 -41 39 -109 52 -150 46
-148 92 -221 174 -276 29 -20 51 -42 51 -52 0 -30 -54 -106 -111 -154 -112
-95 -221 -154 -388 -209 -224 -73 -288 -115 -403 -266 -144 -191 -276 -314
-438 -409 -36 -21 -86 -58 -112 -82 l-46 -43 -6 63 c-16 202 -26 414 -26 563
0 205 -11 280 -51 363 l-31 64 21 19 c12 11 30 39 42 62 12 23 46 81 76 130
80 127 105 235 84 352 l-11 57 40 48 c183 219 123 572 -125 732 l-59 39 -1 78
c-1 69 -5 87 -33 141 l-32 63 0 409 0 408 -26 10 c-42 16 -186 12 -212 -6z
m221 -1244 c83 -26 164 -96 203 -176 50 -103 41 -245 -22 -346 l-25 -39 -39
31 c-75 59 -123 74 -245 74 -120 0 -168 -14 -233 -69 -39 -33 -50 -27 -83 48
-29 67 -32 188 -5 265 20 58 94 147 154 184 81 50 191 60 295 28z m2390 -1191
c10 -21 12 -41 7 -58 -4 -14 -65 -150 -135 -301 -200 -433 -370 -799 -404
-870 l-31 -65 5 95 c3 52 9 138 15 190 5 52 10 177 10 278 0 194 -1 190 57
271 2 3 31 -15 65 -39 66 -46 65 -46 -31 78 -64 82 -112 122 -147 122 -11 0
-45 -8 -76 -18 -57 -17 -57 -17 -122 -122 -36 -58 -56 -92 -43 -75 33 44 74
85 85 85 6 0 13 -34 17 -76 7 -72 6 -81 -33 -187 -23 -62 -48 -137 -56 -167
-18 -63 -56 -299 -56 -347 0 -49 -18 -40 -27 15 -13 79 -7 417 11 547 30 222
71 402 123 544 l16 43 30 -48 c40 -66 135 -174 153 -174 8 0 22 4 32 9 9 5 65
32 124 60 108 50 317 180 352 220 26 29 41 26 59 -10z m-1498 -533 c-25 -33
-45 -46 -45 -29 0 10 63 74 68 69 2 -3 -8 -21 -23 -40z m2094 -2106 c19 -154
40 -600 29 -600 -11 0 -29 193 -43 460 -21 392 -19 414 14 140z m122 -1985
c-17 -20 -31 -40 -31 -45 0 -6 -5 -10 -10 -10 -7 0 -7 6 0 19 5 11 10 35 10
53 0 18 8 52 17 75 l18 42 14 -49 c13 -49 13 -50 -18 -85z m-120 -211 c-42
-132 -55 -221 -47 -349 6 -102 4 -114 -19 -170 -13 -33 -25 -72 -25 -87 0 -47
-18 -40 -26 9 -9 64 3 342 21 478 8 61 14 118 15 127 0 10 14 24 33 31 17 8
41 24 51 36 11 11 21 20 23 18 2 -2 -10 -44 -26 -93z m666 -555 c7 -59 -12
-40 -21 21 -5 33 -4 42 4 34 6 -6 14 -31 17 -55z m-133 3 c5 -18 7 -34 4 -37
-2 -3 -70 -10 -151 -17 -103 -8 -151 -8 -158 -1 -6 6 -14 27 -19 48 l-8 37 46
-8 c54 -10 171 -7 222 6 48 11 53 8 64 -28z m-494 -62 c0 -22 -4 -40 -10 -40
-11 0 -14 63 -3 73 11 12 13 8 13 -33z"/>
</g>
</svg>
