<?xml version="1.0" standalone="no"?>
<!DOCTYPE svg PUBLIC "-//W3C//DTD SVG 20010904//EN"
 "http://www.w3.org/TR/2001/REC-SVG-20010904/DTD/svg10.dtd">
<svg version="1.0" xmlns="http://www.w3.org/2000/svg"
 width="1024.000000pt" height="1536.000000pt" viewBox="0 0 1024.000000 1536.000000"
 preserveAspectRatio="xMidYMid meet">
<metadata>
Created by potrace 1.16, written by Peter Selinger 2001-2019
</metadata>
<g transform="translate(0.000000,1536.000000) scale(0.100000,-0.100000)"
fill="#000000" stroke="none">
<path d="M4715 14565 c-204 -46 -436 -166 -554 -289 -25 -26 -44 -36 -65 -36
-83 -1 -302 -121 -405 -222 -39 -38 -151 -266 -180 -367 -22 -74 -42 -182 -66
-351 -26 -183 -28 -189 -99 -252 -59 -53 -64 -56 -126 -60 -76 -4 -95 -16
-285 -168 -66 -53 -183 -144 -260 -202 -386 -290 -588 -483 -760 -727 -79
-113 -168 -291 -190 -380 -26 -106 -17 -212 24 -296 71 -144 280 -286 506
-344 253 -64 757 -128 1146 -146 l146 -7 27 -132 c15 -72 56 -267 92 -433 35
-166 75 -365 88 -442 25 -138 25 -141 11 -328 -22 -286 -52 -498 -99 -713 -46
-208 -47 -239 -5 -268 24 -17 25 1 -11 -227 -68 -434 -136 -1023 -127 -1103 5
-51 40 -93 102 -124 22 -11 41 -21 42 -22 2 -1 -13 -101 -31 -222 -19 -120
-37 -244 -41 -274 -7 -54 -66 -438 -104 -675 -138 -858 -137 -843 -85 -1420
22 -251 44 -503 79 -935 30 -371 56 -808 65 -1109 10 -344 9 -340 75 -381 20
-12 34 -27 33 -32 -2 -6 -40 -49 -83 -97 -155 -170 -279 -249 -509 -328 -205
-69 -282 -126 -347 -255 -39 -76 -43 -144 -13 -186 49 -65 337 -112 689 -112
314 0 482 46 695 189 41 28 81 51 88 51 6 0 22 -12 35 -26 54 -63 74 -64 352
-18 224 38 271 51 301 87 l26 31 -4 236 c-4 158 -11 271 -23 344 -12 70 -14
110 -8 115 31 20 32 53 34 1027 1 859 -7 1361 -26 1654 -14 211 -16 198 95
520 56 162 172 505 258 762 86 257 160 467 163 467 3 1 11 -27 17 -61 6 -35
35 -202 66 -373 63 -356 188 -1104 240 -1436 20 -125 63 -390 96 -590 172
-1053 263 -1639 315 -2045 9 -73 33 -106 100 -138 l57 -27 -6 -39 c-11 -68
-72 -182 -187 -346 -120 -172 -171 -269 -194 -366 -42 -178 -7 -222 210 -269
216 -46 519 -33 719 32 186 59 261 122 281 231 l11 63 49 16 c67 21 101 57
114 119 14 66 14 340 0 491 l-12 120 29 30 29 30 -2 592 c-2 971 -40 1536
-153 2297 -16 107 -34 231 -41 275 -7 51 -9 127 -5 210 8 148 43 679 51 770
14 158 35 483 45 690 16 322 3 285 116 330 116 45 207 104 224 144 9 23 9 60
0 163 -38 456 -99 850 -250 1609 -38 195 -83 438 -100 540 l-31 186 16 199 c8
110 21 267 29 349 8 83 20 229 27 326 l12 175 161 52 c340 110 544 224 694
387 247 270 205 632 -113 964 -184 191 -463 381 -1035 703 -354 199 -454 248
-506 248 -47 0 -103 30 -167 89 -54 49 -63 82 -87 316 -12 121 -33 274 -46
340 -25 132 -82 306 -119 371 -56 96 -149 147 -371 204 -24 6 -75 36 -120 71
-128 99 -258 155 -423 184 -102 18 -324 18 -406 0z m1040 -365 c38 -18 78 -47
98 -71 41 -48 118 -216 124 -273 4 -36 -1 -29 -40 55 -52 111 -85 165 -118
195 -46 41 -120 86 -172 104 l-52 19 49 0 c34 1 66 -8 111 -29z m-100 -154
l80 -41 47 -110 c56 -130 68 -205 17 -109 -76 144 -107 182 -203 244 -50 32
-100 66 -111 74 -37 28 83 -12 170 -58z m-1684 -5 c-12 -16 -40 -40 -64 -54
-80 -46 -195 -107 -203 -107 -16 0 34 44 120 102 133 92 185 113 147 59z
m1450 -102 c79 -26 129 -51 151 -76 21 -22 75 -155 112 -271 19 -60 26 -105
26 -160 0 -168 52 -504 90 -585 11 -23 38 -66 61 -96 l41 -54 -39 24 c-21 12
-56 36 -78 52 -22 15 -62 41 -88 58 -55 33 -72 66 -106 199 -17 67 -23 127
-28 280 -5 173 -9 208 -35 310 -37 144 -61 186 -126 224 -49 29 -62 47 -62 94
0 27 1 27 81 1z m-1597 -205 c-10 -37 -18 -115 -21 -209 -5 -139 -3 -161 27
-310 17 -88 34 -203 37 -255 l5 -95 -48 -54 c-52 -59 -110 -91 -164 -91 -62 0
-64 9 -23 89 l38 74 6 361 c7 363 11 415 35 450 14 21 117 106 122 101 1 -1
-5 -29 -14 -61z m1315 -629 c16 -8 41 -29 56 -47 l28 -33 -74 -7 c-60 -6 -94
-18 -179 -59 -156 -76 -255 -78 -315 -8 -25 30 -42 75 -32 85 3 3 24 -4 47
-16 57 -29 103 -22 222 37 51 25 104 49 118 53 41 13 99 11 129 -5z m-989 -65
c19 -9 64 -28 100 -40 135 -47 147 -82 38 -111 -58 -16 -101 -4 -185 50 -33
21 -76 45 -96 52 -21 7 -37 16 -37 19 0 9 42 46 60 53 22 9 79 -2 120 -23z
m334 -79 c20 -68 20 -71 -2 -71 -24 0 -45 64 -36 109 8 40 18 31 38 -38z
m-1220 -276 c72 -146 229 -291 339 -314 l32 -7 -32 -32 c-42 -42 -94 -43 -178
-4 -230 109 -325 336 -221 526 l21 39 6 -77 c5 -52 15 -93 33 -131z m3096 198
c0 -4 -41 -67 -91 -141 -102 -150 -190 -311 -214 -396 -19 -65 -29 -64 -60 5
l-19 41 43 84 c57 112 143 231 239 332 70 73 102 96 102 75z m-2371 -393 c12
-41 21 -77 21 -81 0 -3 -32 -11 -71 -18 -53 -10 -79 -21 -105 -43 l-34 -30 17
39 c9 21 15 56 14 78 -1 35 3 43 32 63 18 12 46 36 62 52 16 17 32 27 36 23 4
-5 17 -42 28 -83z m1745 -150 c-17 -90 -43 -166 -304 -910 -28 -80 -52 -150
-55 -156 -2 -7 -50 33 -107 87 -57 55 -131 123 -166 151 l-62 52 68 36 c197
103 334 246 489 509 46 77 108 208 136 284 13 36 13 15 1 -53z m-788 -69 c53
-23 106 -72 168 -154 28 -38 36 -58 36 -91 0 -23 -5 -47 -12 -54 -21 -21 -73
-13 -149 22 -81 37 -139 52 -239 62 -45 4 -72 12 -87 26 l-22 21 -93 -38 c-51
-20 -127 -56 -168 -81 -41 -24 -82 -44 -90 -44 -18 0 -35 28 -44 71 -14 65 55
209 119 249 42 26 60 25 115 -4 90 -48 147 -45 232 11 50 32 57 34 118 30 36
-2 88 -14 116 -26z m-476 -647 c53 -38 144 -72 205 -76 19 -1 35 -5 35 -8 0
-3 -16 -22 -36 -41 -39 -37 -142 -177 -169 -229 -9 -18 -18 -30 -20 -28 -4 3
-75 398 -75 413 0 10 11 4 60 -31z m837 -395 l42 -35 -73 -210 c-41 -115 -91
-264 -112 -331 -20 -67 -41 -120 -44 -118 -4 3 -10 37 -14 77 -9 97 -41 301
-66 424 -11 54 -20 110 -20 124 0 14 16 70 35 125 20 55 38 106 40 113 3 8 35
-13 87 -60 46 -40 102 -89 125 -109z m-598 59 l29 -106 -23 -108 c-24 -111
-48 -291 -61 -442 -3 -46 -9 -81 -12 -77 -7 7 -45 160 -103 413 l-42 184 56
81 c80 119 118 169 122 165 2 -2 17 -51 34 -110z"/>
</g>
</svg>
