<?xml version="1.0" standalone="no"?>
<!DOCTYPE svg PUBLIC "-//W3C//DTD SVG 20010904//EN"
 "http://www.w3.org/TR/2001/REC-SVG-20010904/DTD/svg10.dtd">
<svg version="1.0" xmlns="http://www.w3.org/2000/svg"
 width="1024.000000pt" height="1024.000000pt" viewBox="0 0 1024.000000 1024.000000"
 preserveAspectRatio="xMidYMid meet">
<metadata>
Created by potrace 1.16, written by Peter Selinger 2001-2019
</metadata>
<g transform="translate(0.000000,1024.000000) scale(0.100000,-0.100000)"
fill="#000000" stroke="none">
<path d="M4453 9730 c-33 -14 -29 -16 20 -12 73 7 33 -8 -46 -17 -75 -9 -175
-47 -222 -85 -16 -13 -9 -12 33 4 85 32 93 22 13 -17 -92 -45 -145 -97 -182
-179 -24 -52 -35 -66 -57 -70 -38 -8 -103 -54 -128 -91 -11 -17 -36 -76 -54
-130 -17 -54 -40 -114 -50 -133 -14 -28 -19 -73 -24 -225 -6 -206 -15 -266
-47 -332 -15 -31 -28 -45 -47 -49 -80 -16 -88 -20 -115 -64 -78 -123 -146
-235 -200 -330 -33 -58 -95 -164 -138 -235 -157 -264 -183 -337 -195 -553 -7
-129 -6 -132 21 -187 31 -64 104 -128 163 -145 90 -25 221 -6 324 46 44 22
332 203 616 386 67 43 128 81 135 84 12 4 49 -75 255 -546 l55 -125 -6 -145
c-4 -80 -14 -188 -24 -240 -10 -52 -17 -122 -16 -155 2 -65 -10 -142 -89 -549
l-52 -268 35 -32 c20 -17 42 -35 51 -41 13 -9 3 -52 -84 -340 -149 -498 -374
-1263 -387 -1320 -13 -57 -8 -130 33 -450 25 -194 89 -785 121 -1110 8 -88 24
-239 34 -335 l19 -175 40 -35 c35 -30 39 -38 30 -55 -22 -40 -151 -186 -234
-264 -92 -87 -161 -130 -310 -193 -148 -63 -224 -144 -224 -237 0 -40 49 -76
128 -96 61 -15 100 -17 235 -12 247 8 324 32 541 165 l99 61 19 -24 c24 -31
35 -31 178 -1 132 28 196 51 205 74 8 21 8 290 0 339 -3 21 -15 82 -26 135
l-21 97 27 35 c26 34 26 38 21 138 -3 57 -11 222 -16 368 -31 807 -49 1122
-75 1303 -21 156 -42 104 357 922 186 381 300 606 305 602 9 -10 37 -596 52
-1127 l9 -295 61 -350 c33 -192 70 -411 81 -485 11 -74 27 -175 35 -225 24
-153 83 -571 105 -755 36 -299 37 -303 63 -325 13 -11 32 -24 41 -30 16 -9 15
-17 -14 -95 -56 -154 -116 -263 -204 -375 -90 -113 -116 -167 -136 -275 -10
-57 -10 -66 8 -89 25 -35 57 -49 148 -66 170 -33 459 38 572 139 42 38 82 122
82 171 0 19 12 30 62 57 88 47 102 70 106 176 4 98 -24 260 -62 352 l-22 56
31 20 30 20 -2 139 c-1 77 -7 214 -12 305 -6 91 -18 280 -26 420 -28 466 -73
911 -109 1086 -8 38 -17 143 -20 234 -8 193 -6 221 94 1025 38 308 72 590 76
628 l6 67 77 40 c43 22 92 55 110 74 l32 33 -71 399 c-39 219 -93 521 -120
671 -28 149 -50 279 -50 287 0 11 9 16 31 16 146 0 222 92 254 309 27 179 12
387 -45 611 -16 63 -41 176 -54 250 -30 161 -58 248 -121 369 -66 127 -118
182 -219 231 -93 44 -505 177 -655 211 -123 28 -127 26 -124 -68 3 -101 25
-159 99 -261 37 -51 65 -95 62 -97 -2 -3 -20 16 -39 42 -125 169 -131 188
-134 398 -1 100 -7 168 -17 205 -8 30 -21 83 -27 118 -9 46 -27 88 -68 155
-70 114 -95 142 -155 173 -29 15 -59 41 -78 70 -18 25 -56 61 -85 79 -55 35
-159 75 -196 75 -13 0 -52 12 -88 27 -61 25 -78 27 -231 30 -91 1 -175 -2
-187 -7z m752 -389 c22 -10 57 -36 78 -57 39 -39 121 -196 114 -217 -2 -6 -20
23 -41 65 -54 109 -93 150 -189 198 -45 23 -83 43 -85 45 -9 8 87 -18 123 -34z
m-158 -102 c96 -37 167 -119 241 -281 2 -5 -1 -8 -6 -8 -6 0 -31 37 -55 83
-54 97 -100 145 -187 192 -75 40 -74 44 7 14z m-1042 -39 c-35 -17 -78 -49
-104 -77 -31 -33 -39 -39 -26 -18 40 67 120 126 170 124 11 0 -6 -12 -40 -29z
m-2 -133 c-65 -34 -106 -66 -136 -107 l-18 -25 7 25 c4 14 11 31 17 38 18 23
99 75 137 88 60 22 58 14 -7 -19z m999 -25 c60 -32 79 -53 121 -133 26 -49 37
-88 46 -155 29 -229 43 -273 120 -374 28 -37 40 -61 36 -75 -3 -11 -16 -87
-30 -170 -28 -173 -61 -345 -67 -350 -4 -4 -202 135 -226 159 -10 10 -1 21 46
58 71 55 252 294 252 332 0 7 -10 24 -21 37 -69 78 -103 167 -119 309 -6 55
-17 120 -25 145 -29 99 -105 188 -191 227 -24 10 -44 21 -44 24 0 9 56 -9 102
-34z m-795 -606 c13 -27 22 -50 20 -51 -1 -2 -22 -11 -47 -22 -64 -28 -102
-64 -160 -149 l-50 -76 0 37 c0 40 9 56 97 172 34 45 70 105 80 133 16 47 19
49 27 28 6 -13 20 -45 33 -72z m1555 -138 c-53 -102 -251 -282 -278 -255 -14
13 9 44 41 55 43 16 171 135 216 201 44 66 56 65 21 -1z m-2128 -7 c-21 -104
99 -223 228 -225 26 -1 48 -4 48 -7 0 -12 -77 -19 -125 -12 -115 15 -203 148
-165 247 13 35 21 33 14 -3z m832 -190 c53 -56 92 -101 87 -101 -27 0 -273
283 -273 314 0 6 20 -18 45 -51 24 -34 88 -107 141 -162z m1569 45 c156 -185
263 -294 374 -383 120 -96 157 -130 183 -168 13 -18 -5 -5 -43 31 -35 33 -89
80 -119 105 -148 118 -312 290 -526 549 -27 32 -27 33 -4 15 14 -10 75 -77
135 -149z m-604 60 c24 -32 51 -68 59 -80 l14 -21 -22 20 c-25 21 -112 139
-112 151 0 10 8 1 61 -70z m-1476 -238 c-18 -56 -137 -300 -143 -294 -2 2 23
57 56 122 33 66 68 147 78 182 10 35 20 58 22 52 2 -5 -4 -34 -13 -62z m865
-145 c-34 -65 -51 -123 -36 -123 2 0 20 16 40 36 l36 36 21 -26 c32 -41 35
-73 31 -316 l-4 -225 -29 95 c-54 175 -147 567 -137 575 9 6 76 23 95 24 22 1
21 -2 -17 -76z m762 -74 c29 -37 110 -136 179 -220 178 -218 382 -480 377
-485 -3 -2 -36 35 -74 83 -76 97 -375 470 -497 622 -43 53 -83 105 -88 116
-11 22 24 -17 103 -116z m-409 -6 c20 -14 37 -34 37 -44 0 -27 -60 -372 -65
-378 -3 -2 -5 4 -5 14 0 11 -16 83 -36 161 -33 131 -36 150 -29 229 l7 85 26
-20 c15 -12 44 -32 65 -47z"/>
</g>
</svg>
