<?xml version="1.0" standalone="no"?>
<!DOCTYPE svg PUBLIC "-//W3C//DTD SVG 20010904//EN"
 "http://www.w3.org/TR/2001/REC-SVG-20010904/DTD/svg10.dtd">
<svg version="1.0" xmlns="http://www.w3.org/2000/svg"
 width="1024.000000pt" height="1024.000000pt" viewBox="0 0 1024.000000 1024.000000"
 preserveAspectRatio="xMidYMid meet">
<metadata>
Created by potrace 1.16, written by Peter Selinger 2001-2019
</metadata>
<g transform="translate(0.000000,1024.000000) scale(0.100000,-0.100000)"
fill="#000000" stroke="none">
<path d="M4625 9914 c-116 -19 -235 -66 -331 -131 -48 -33 -70 -41 -122 -46
-80 -7 -144 -38 -248 -120 -66 -53 -89 -79 -129 -148 -69 -117 -110 -233 -145
-411 -35 -179 -59 -235 -141 -321 -51 -53 -60 -59 -86 -53 -76 19 -87 18 -129
-12 -68 -50 -303 -272 -426 -404 -302 -322 -431 -516 -519 -778 -85 -254 -57
-387 111 -543 200 -184 388 -212 920 -137 218 31 192 36 206 -45 7 -38 28
-193 49 -343 l36 -273 -40 -237 c-61 -354 -140 -934 -186 -1363 -20 -190 -13
-209 103 -286 28 -19 52 -36 52 -38 0 -1 -11 -52 -25 -113 -105 -467 -183
-911 -192 -1092 -8 -170 21 -420 133 -1150 25 -162 56 -372 69 -467 13 -95 29
-185 37 -200 12 -26 39 -45 82 -58 18 -5 18 -7 -5 -31 -55 -59 -188 -150 -297
-202 -141 -66 -211 -131 -268 -248 -59 -119 -38 -170 92 -214 131 -44 461 -64
682 -39 132 14 237 42 346 92 l91 42 130 1 c207 1 387 38 435 89 22 23 23 29
17 127 -3 57 -13 158 -22 224 l-16 121 30 31 c36 35 38 64 21 257 -9 104 -25
449 -51 1106 l-12 295 75 135 c96 172 274 502 329 610 42 83 42 84 51 54 16
-55 286 -1137 332 -1330 25 -104 81 -343 126 -530 134 -568 149 -628 167 -647
9 -10 30 -18 49 -18 19 0 49 -11 70 -25 20 -14 45 -25 54 -25 26 0 43 -25 34
-52 -4 -13 -68 -86 -144 -163 -145 -149 -188 -214 -198 -300 -4 -40 -1 -48 29
-78 70 -69 246 -106 507 -107 303 0 543 50 643 135 17 13 49 33 72 43 57 26
107 69 123 109 19 43 18 183 -1 329 l-16 117 28 29 c24 25 28 38 32 106 5 99
-16 672 -35 962 -16 254 -45 511 -74 677 -18 102 -19 118 -6 180 42 198 100
563 136 856 16 128 60 565 60 599 0 4 18 17 39 28 55 27 81 64 81 113 0 108
-110 703 -189 1022 -47 191 -145 513 -196 645 l-37 95 6 260 c3 143 6 279 6
303 0 29 4 42 14 42 19 0 216 80 296 120 258 129 380 294 380 513 0 277 -209
593 -458 690 -24 10 -76 46 -115 80 -225 196 -569 393 -862 493 -96 32 -123
37 -209 38 l-99 2 -40 79 c-22 44 -57 129 -78 189 -71 200 -155 334 -283 454
-81 76 -157 113 -244 121 -45 4 -78 14 -97 27 -55 39 -153 84 -242 110 -69 20
-115 26 -213 29 -69 2 -138 1 -155 -1z m-602 -1431 l6 -112 -32 -10 c-35 -10
-177 -23 -177 -15 0 2 38 52 85 109 47 58 90 114 97 124 7 11 13 19 14 18 1
-1 4 -52 7 -114z m1240 -1170 c-68 -236 -129 -450 -136 -477 l-14 -48 -12 88
c-25 175 -51 379 -51 400 0 12 13 38 29 57 22 28 31 55 41 118 10 66 18 86 38
103 14 11 68 58 120 104 52 45 98 82 102 82 3 0 -49 -192 -117 -427z m-562
108 c29 -44 53 -95 60 -126 11 -51 9 -64 -43 -272 l-54 -218 -33 162 c-44 224
-101 543 -101 571 0 23 0 23 61 -10 51 -28 69 -45 110 -107z"/>
</g>
</svg>
