<?xml version="1.0" standalone="no"?>
<!DOCTYPE svg PUBLIC "-//W3C//DTD SVG 20010904//EN"
 "http://www.w3.org/TR/2001/REC-SVG-20010904/DTD/svg10.dtd">
<svg version="1.0" xmlns="http://www.w3.org/2000/svg"
 width="1024.000000pt" height="1024.000000pt" viewBox="0 0 1024.000000 1024.000000"
 preserveAspectRatio="xMidYMid meet">
<metadata>
Created by potrace 1.16, written by Peter Selinger 2001-2019
</metadata>
<g transform="translate(0.000000,1024.000000) scale(0.100000,-0.100000)"
fill="#000000" stroke="none">
<path d="M4217 9944 c-64 -16 -182 -73 -257 -124 -138 -93 -266 -242 -330
-383 -15 -34 -42 -75 -59 -92 -62 -59 -84 -221 -79 -594 2 -206 0 -242 -15
-281 -22 -56 -50 -86 -108 -115 -56 -29 -64 -41 -118 -185 -24 -63 -72 -180
-107 -260 -88 -206 -192 -486 -220 -598 -44 -174 -42 -318 7 -413 10 -20 39
-55 65 -78 95 -83 251 -102 420 -50 97 30 128 47 261 147 266 199 554 404 560
399 6 -6 212 -446 258 -553 77 -176 145 -368 145 -411 0 -40 -17 -139 -45
-257 -11 -47 -14 -89 -10 -130 5 -50 -2 -103 -38 -286 -85 -426 -120 -637
-112 -676 4 -23 19 -49 38 -66 37 -35 53 29 -130 -513 -185 -547 -327 -1052
-340 -1210 -7 -85 2 -166 73 -665 96 -681 144 -1100 144 -1273 0 -88 17 -147
41 -147 33 0 -28 -105 -125 -215 -94 -106 -151 -143 -283 -182 -178 -52 -256
-101 -289 -180 -39 -93 14 -160 151 -192 268 -61 629 -25 800 80 52 33 72 34
165 9 29 -8 80 -10 145 -6 158 10 224 31 256 83 21 33 22 43 15 167 -3 72 -11
184 -18 250 -10 108 -9 121 7 149 16 27 17 49 11 230 -20 600 -86 1409 -130
1576 -10 40 -10 53 3 80 13 27 13 42 2 105 l-12 74 101 224 c104 228 528 1095
533 1087 1 -2 -1 -101 -4 -219 -4 -118 -10 -399 -14 -625 -10 -516 -1 -622 74
-922 77 -305 218 -1121 272 -1573 12 -100 27 -142 59 -163 27 -16 25 -45 -6
-120 -42 -100 -80 -152 -157 -210 -92 -69 -154 -131 -178 -179 -21 -40 -25
-118 -9 -149 29 -53 171 -81 413 -80 264 1 368 29 456 121 44 46 54 52 112 61
90 14 123 26 150 55 22 24 24 34 23 122 0 54 -6 161 -14 240 -11 118 -11 150
0 183 11 34 10 86 -9 352 -51 730 -93 1126 -143 1362 -23 105 -32 171 -30 220
2 55 -3 86 -24 145 -16 44 -27 96 -27 125 0 44 18 191 102 823 10 79 20 144
22 146 2 1 35 15 73 31 133 55 246 188 286 337 28 103 24 235 -10 378 -22 90
-22 95 -5 105 66 37 171 114 188 137 20 26 20 32 8 175 -31 363 -84 739 -167
1188 -180 968 -279 1442 -341 1630 -103 315 -298 493 -653 595 -52 15 -189 49
-305 75 -145 32 -221 54 -245 70 -19 13 -84 58 -145 99 l-110 76 0 93 c-1 52
-6 102 -13 115 -10 17 -10 31 -1 61 14 49 7 89 -31 169 -96 204 -277 373 -450
423 -61 18 -457 20 -523 3z m1098 -1314 c-1 -142 -6 -238 -18 -312 -9 -59 -22
-194 -28 -300 -6 -106 -12 -195 -14 -197 -7 -6 -275 215 -291 241 -3 5 23 39
58 77 101 108 199 316 232 491 9 45 16 130 17 189 l1 106 21 -45 c20 -42 22
-60 22 -250z m-1331 -209 c20 -32 43 -64 51 -71 14 -11 9 -17 -32 -40 -26 -15
-69 -46 -95 -69 -51 -45 -78 -46 -78 -2 0 14 11 44 25 66 13 22 25 45 25 52 0
22 49 123 59 123 5 0 26 -26 45 -59z m-473 -216 c26 -18 68 -37 95 -44 27 -7
66 -22 87 -33 29 -15 52 -19 107 -16 79 3 79 -3 1 -26 -62 -18 -178 -21 -234
-5 -70 19 -150 112 -133 154 6 18 8 17 77 -30z m1277 -257 c1 -13 3 -30 4 -38
3 -14 -88 -108 -95 -99 -2 2 -10 30 -19 62 -14 52 -14 57 1 57 9 1 32 9 51 20
46 25 57 25 58 -2z m393 -145 l71 -58 -6 -127 c-5 -113 -43 -361 -65 -428 -6
-18 -10 0 -15 70 -8 110 -74 589 -83 604 -13 21 29 -5 98 -61z m-306 -144 c19
-85 31 -299 20 -355 -6 -36 -8 -37 -21 -20 -22 31 -110 262 -140 369 l-28 97
55 49 54 49 22 -57 c12 -32 29 -91 38 -132z"/>
</g>
</svg>
