<?xml version="1.0" standalone="no"?>
<!DOCTYPE svg PUBLIC "-//W3C//DTD SVG 20010904//EN"
 "http://www.w3.org/TR/2001/REC-SVG-20010904/DTD/svg10.dtd">
<svg version="1.0" xmlns="http://www.w3.org/2000/svg"
 width="1024.000000pt" height="1536.000000pt" viewBox="0 0 1024.000000 1536.000000"
 preserveAspectRatio="xMidYMid meet">
<metadata>
Created by potrace 1.16, written by Peter Selinger 2001-2019
</metadata>
<g transform="translate(0.000000,1536.000000) scale(0.100000,-0.100000)"
fill="#000000" stroke="none">
<path d="M5760 13816 c-257 -55 -438 -198 -555 -441 -67 -139 -79 -209 -80
-485 -1 -225 -2 -238 -27 -313 -48 -144 -147 -277 -231 -312 -33 -13 -84 -22
-284 -50 -61 -8 -178 -34 -260 -57 l-148 -41 -110 12 c-223 24 -423 -34 -672
-195 -116 -75 -183 -107 -299 -144 -347 -111 -486 -166 -505 -202 -6 -12 -9
-37 -7 -57 l5 -36 -121 -54 c-171 -77 -411 -197 -476 -239 -66 -42 -189 -160
-274 -262 -80 -96 -189 -255 -304 -445 -50 -82 -120 -190 -156 -240 -36 -49
-124 -176 -196 -282 -154 -226 -228 -301 -369 -377 -111 -60 -165 -115 -219
-222 -51 -103 -66 -168 -59 -264 5 -86 14 -107 63 -163 19 -20 34 -47 34 -58
0 -12 12 -44 27 -71 32 -59 171 -184 215 -193 17 -4 58 0 97 10 l67 18 66 -46
c126 -86 185 -74 268 51 33 51 74 98 111 127 61 48 115 115 145 180 16 35 19
69 20 255 1 248 5 263 94 395 136 204 251 326 470 501 169 134 269 231 350
339 103 137 95 132 235 139 66 3 142 9 169 12 40 5 53 2 79 -16 56 -42 121
-36 385 35 110 29 383 78 415 73 12 -2 -25 -13 -82 -25 -57 -12 -109 -27 -114
-32 -12 -12 6 -323 34 -611 25 -245 22 -320 -21 -500 -38 -164 -67 -251 -208
-630 -129 -348 -173 -495 -179 -605 -5 -71 -3 -83 17 -108 12 -15 44 -39 71
-52 27 -14 49 -26 50 -28 0 -1 4 -87 8 -192 7 -171 11 -198 36 -270 43 -124
122 -270 205 -380 42 -55 84 -114 94 -131 l19 -32 -42 -97 c-50 -117 -61 -168
-61 -285 0 -162 54 -295 185 -460 53 -65 154 -166 210 -208 25 -19 26 -21 5
-11 -77 36 -291 254 -336 340 -8 17 -17 29 -20 27 -2 -3 5 -51 15 -109 23
-123 32 -193 24 -185 -6 6 -13 39 -57 286 -15 80 -34 162 -43 183 -37 85 -121
130 -318 173 -157 33 -225 57 -355 127 -63 33 -158 83 -210 109 -114 59 -139
82 -193 173 -118 202 -146 245 -210 311 -125 133 -225 174 -340 140 -31 -9
-57 -20 -57 -25 0 -5 -22 -14 -50 -21 -54 -13 -100 -55 -100 -92 0 -36 -38
-78 -71 -78 -41 0 -94 -51 -80 -77 6 -13 5 -24 -5 -38 -8 -10 -14 -32 -14 -47
0 -21 -14 -44 -48 -80 -72 -78 -337 -286 -432 -341 -95 -54 -125 -84 -141
-140 -12 -44 -56 -97 -115 -138 -57 -39 -86 -82 -95 -141 -5 -33 -18 -61 -38
-83 -31 -36 -35 -53 -46 -196 -6 -65 -3 -83 13 -115 36 -71 95 -104 184 -104
76 1 125 27 226 122 68 64 121 102 233 165 194 111 242 130 396 163 142 31
166 40 237 95 25 19 56 35 69 35 70 0 285 -165 502 -385 237 -240 320 -302
580 -434 201 -101 252 -136 443 -310 73 -66 154 -135 180 -154 172 -125 336
-140 511 -47 80 43 229 167 312 261 193 217 369 467 369 524 0 14 6 13 38 -6
73 -44 164 -125 189 -167 23 -39 25 -51 20 -120 -4 -63 -16 -104 -65 -227
-102 -253 -144 -435 -145 -620 -1 -164 34 -294 152 -557 188 -422 288 -753
340 -1130 28 -196 27 -218 -14 -378 -40 -160 -65 -295 -65 -357 0 -24 10 -69
21 -101 12 -31 30 -82 40 -112 14 -40 32 -66 67 -97 l47 -41 -805 5 c-475 3
-971 1 -1210 -5 -556 -15 -1399 -51 -1435 -61 -85 -23 1208 -40 2720 -36 650
2 1198 7 1220 12 22 5 53 23 71 40 41 42 116 57 280 57 128 1 132 0 194 -32
44 -22 77 -32 108 -32 41 0 49 4 88 46 l42 47 56 -7 c31 -3 80 -9 109 -12 48
-6 56 -3 86 21 17 15 47 52 66 81 40 63 70 75 121 50 19 -9 51 -16 71 -16 34
0 46 10 145 110 89 91 113 110 138 110 79 0 62 121 -29 203 -89 80 -177 106
-410 117 -194 10 -244 21 -336 75 -33 19 -104 57 -158 85 -111 57 -163 100
-217 180 -21 30 -61 74 -89 98 -82 69 -113 147 -147 367 -22 141 -22 406 -1
740 27 426 34 738 24 1005 -8 203 5 284 70 460 45 120 47 129 47 235 1 120 -8
154 -78 292 -18 38 -57 134 -85 216 -58 171 -117 295 -196 421 -45 71 -52 88
-35 83 32 -8 26 40 -14 98 -45 67 -189 239 -339 405 -67 74 -138 153 -157 175
-19 21 -56 62 -82 91 -71 76 -58 78 20 3 79 -78 170 -152 213 -174 61 -32 88
12 148 233 16 59 32 119 35 135 4 16 13 27 24 28 29 1 114 52 136 82 28 38 25
89 -18 307 -49 242 -54 320 -27 388 24 60 27 127 10 248 l-12 80 46 80 c58
103 84 166 163 398 72 212 109 294 212 479 77 137 132 255 132 282 0 9 4 13
10 10 5 -3 9 -16 8 -28 -2 -46 24 -78 134 -165 62 -49 142 -120 177 -156 92
-97 179 -136 230 -104 37 23 122 -33 270 -176 176 -170 231 -216 331 -276 88
-53 268 -126 440 -180 252 -79 467 -176 519 -236 33 -38 51 -89 51 -150 0
-107 81 -248 210 -365 78 -71 99 -104 120 -187 6 -24 27 -61 47 -83 29 -32 42
-39 74 -39 47 0 134 32 173 63 27 22 31 23 62 8 29 -13 32 -17 20 -30 -42 -47
-8 -121 55 -121 17 0 61 16 99 35 150 80 247 208 238 315 -3 28 -1 53 4 56 4
3 8 0 8 -5 0 -6 5 -11 11 -11 23 0 0 80 -71 252 -39 95 -85 194 -102 221 -50
78 -119 131 -271 208 -184 93 -266 140 -352 205 -105 78 -292 267 -467 469
-257 298 -399 420 -624 535 -152 78 -226 141 -244 210 -33 124 -57 153 -237
292 -82 64 -169 138 -193 165 -25 28 -117 158 -205 289 -176 262 -267 368
-366 426 -62 37 -78 43 -226 89 -40 12 -73 25 -73 28 0 4 17 7 38 7 80 0 114
24 92 65 -6 10 -23 26 -38 34 l-27 15 25 -2 c36 -3 50 9 50 44 0 29 1 30 38
25 20 -2 52 -10 69 -18 29 -12 35 -11 49 3 14 13 14 28 5 109 -22 197 -24 246
-10 283 7 20 16 36 19 36 17 0 93 77 110 111 27 51 60 252 60 360 0 53 5 91
13 101 8 11 33 17 75 20 51 4 68 9 89 30 31 31 27 61 -16 110 -15 18 -36 48
-45 66 -9 17 -20 32 -24 32 -8 1 -112 95 -112 102 0 2 16 10 35 18 43 17 53
44 28 72 -25 29 -103 78 -124 78 -10 0 -37 20 -60 45 -37 39 -50 46 -116 61
-64 14 -78 21 -92 45 -35 63 -150 90 -396 95 -126 2 -199 -1 -245 -10z m-473
-2349 c151 -91 182 -102 308 -102 101 0 115 2 169 29 32 16 74 42 92 59 19 16
37 27 40 25 9 -10 -81 -80 -136 -106 -42 -20 -76 -27 -140 -30 -139 -7 -258
43 -455 189 -49 37 -99 77 -110 90 -11 12 17 -5 62 -39 45 -34 121 -86 170
-115z m1236 -754 c-20 -132 -78 -323 -97 -323 -2 0 9 40 25 88 15 49 37 136
49 193 22 109 27 129 33 129 2 0 -2 -39 -10 -87z m-198 -530 c-26 -49 -52 -92
-57 -98 -6 -5 5 19 24 55 20 36 43 80 52 98 9 17 19 32 22 32 3 0 -16 -39 -41
-87z m-1945 -1125 c98 -69 421 -262 535 -318 55 -28 152 -70 215 -95 125 -48
130 -60 9 -20 -68 22 -140 52 -248 103 -95 44 -396 230 -516 318 -90 66 -169
137 -197 177 -12 18 14 -2 58 -43 43 -42 108 -96 144 -122z m4742 -351 c66
-40 208 -152 208 -164 0 -6 -11 -25 -25 -41 -14 -17 -32 -46 -40 -65 -27 -66
-40 -62 -118 38 -95 122 -138 220 -110 248 13 13 48 6 85 -16z m-4492 -407
c173 -25 298 -54 485 -110 273 -83 397 -132 175 -70 -132 37 -422 113 -515
133 -232 53 -594 67 -818 33 -65 -10 -120 -16 -123 -13 -8 7 181 39 285 47
130 11 359 1 511 -20z m-494 -1696 c61 -78 157 -210 213 -293 56 -83 122 -170
146 -195 40 -38 124 -94 207 -136 42 -20 26 -23 -23 -4 -55 21 -174 102 -216
146 -17 18 -84 110 -148 203 -162 234 -317 430 -452 571 -104 109 -80 92 38
-26 69 -69 174 -189 235 -266z m1304 272 c0 -2 -46 -19 -102 -37 -121 -40
-238 -112 -349 -215 -71 -67 -72 -67 -31 -18 56 69 164 156 239 193 70 35 243
90 243 77z m479 -4881 c-8 -7 -108 -9 -116 -2 -3 4 22 7 57 7 35 0 61 -2 59
-5z"/>
<path d="M8136 4709 c-300 -41 -587 -255 -718 -535 -79 -169 -109 -411 -73
-599 65 -347 319 -616 670 -711 109 -29 379 -27 495 4 319 86 575 340 662 657
28 106 31 345 4 445 -50 189 -120 314 -255 462 -109 119 -296 228 -451 263
-92 21 -242 27 -334 14z"/>
</g>
</svg>
