<?xml version="1.0" standalone="no"?>
<!DOCTYPE svg PUBLIC "-//W3C//DTD SVG 20010904//EN"
 "http://www.w3.org/TR/2001/REC-SVG-20010904/DTD/svg10.dtd">
<svg version="1.0" xmlns="http://www.w3.org/2000/svg"
 width="1024.000000pt" height="1536.000000pt" viewBox="0 0 1024.000000 1536.000000"
 preserveAspectRatio="xMidYMid meet">
<metadata>
Created by potrace 1.16, written by Peter Selinger 2001-2019
</metadata>
<g transform="translate(0.000000,1536.000000) scale(0.100000,-0.100000)"
fill="#000000" stroke="none">
<path d="M4760 13093 c-174 -29 -338 -157 -419 -326 -77 -158 -103 -312 -99
-582 3 -170 3 -170 -24 -211 -77 -120 -202 -137 -478 -68 -145 36 -164 38
-295 37 -152 -1 -231 -14 -362 -61 -103 -36 -172 -78 -282 -169 -99 -83 -133
-101 -251 -133 -107 -28 -148 -49 -235 -120 -117 -94 -156 -118 -250 -150 -49
-18 -108 -42 -130 -55 -22 -12 -101 -49 -175 -81 -74 -32 -161 -73 -193 -92
-88 -51 -180 -143 -280 -281 -49 -70 -125 -166 -166 -216 -95 -112 -152 -192
-376 -525 -137 -204 -202 -313 -284 -475 -144 -283 -166 -356 -166 -560 0
-197 18 -256 108 -352 66 -70 155 -138 229 -174 38 -18 53 -21 79 -13 28 8 35
16 42 48 8 31 5 53 -18 119 -36 108 -31 146 46 298 32 66 61 119 64 119 3 0 4
-39 3 -87 -2 -108 17 -190 52 -220 46 -42 68 -29 118 72 16 33 35 91 41 129 7
38 22 97 34 130 17 48 22 82 21 156 -1 96 -13 149 -63 264 -18 41 -20 54 -11
82 20 61 88 152 197 264 123 128 236 216 408 317 140 83 261 178 330 258 131
154 283 211 489 186 121 -15 239 3 362 54 106 44 129 50 138 36 6 -10 28 -126
71 -386 9 -55 40 -217 68 -360 l51 -260 -3 -185 c-1 -102 3 -230 9 -285 7 -55
15 -129 19 -164 5 -43 1 -109 -11 -205 -11 -87 -17 -192 -16 -276 1 -74 -2
-180 -6 -235 -8 -98 -7 -101 21 -156 30 -55 30 -56 36 -280 5 -174 10 -242 26
-304 41 -166 99 -292 202 -435 37 -53 73 -108 78 -124 19 -49 12 -197 -23
-446 -60 -428 -61 -435 -42 -524 34 -166 13 -296 -67 -399 -39 -51 -94 -81
-231 -126 -123 -41 -197 -81 -338 -181 -198 -141 -299 -260 -413 -490 -31 -63
-76 -142 -100 -175 -66 -92 -252 -313 -320 -379 -106 -103 -288 -256 -312
-262 -13 -4 -55 6 -100 22 -73 27 -87 29 -231 29 l-153 0 -40 -45 c-23 -25
-60 -74 -83 -110 -35 -52 -49 -66 -72 -68 -16 -2 -33 -7 -38 -12 -14 -14 4
-68 46 -130 l40 -61 -31 -77 c-38 -93 -39 -122 -6 -153 22 -22 25 -32 25 -101
0 -42 -9 -150 -21 -240 -20 -159 -21 -163 -55 -200 -19 -21 -35 -46 -35 -56
-1 -9 -3 -62 -4 -117 -1 -55 -5 -123 -9 -152 -7 -50 -7 -52 27 -83 l35 -32 4
-120 c3 -114 4 -121 29 -142 14 -12 39 -42 56 -67 17 -24 51 -63 76 -86 80
-74 124 -71 191 14 55 70 92 175 131 371 41 209 86 322 160 409 17 21 73 92
122 159 50 66 130 159 178 205 83 81 86 85 81 120 -7 46 19 83 135 194 206
197 431 356 789 555 361 201 517 311 747 526 144 134 190 165 310 205 178 58
242 122 354 351 43 85 97 186 121 224 25 38 73 120 107 182 51 90 68 113 89
118 80 18 109 28 134 45 40 29 81 124 138 319 55 189 77 226 148 257 18 7 47
34 65 59 17 24 36 43 42 42 5 -2 89 -29 187 -61 157 -51 183 -63 245 -110 80
-62 127 -133 171 -258 123 -346 205 -502 341 -650 80 -87 139 -126 307 -202
191 -86 234 -117 529 -373 181 -157 316 -298 351 -365 28 -53 29 -59 34 -264
6 -210 6 -210 39 -287 29 -70 76 -128 101 -128 5 0 21 -20 35 -45 40 -67 81
-98 123 -91 49 8 82 32 82 61 0 47 76 61 119 21 15 -12 46 -31 69 -40 l44 -17
39 43 c22 24 49 53 60 66 19 22 23 23 122 17 64 -5 125 -3 165 5 57 10 66 9
89 -7 62 -44 80 -53 118 -59 50 -7 97 10 147 55 40 35 56 38 98 16 16 -9 50
-18 74 -21 57 -8 101 20 110 69 8 40 46 80 78 79 13 0 53 -10 90 -22 66 -21
69 -21 119 -5 53 18 69 36 50 58 -8 11 4 24 54 61 35 26 67 56 70 66 4 11 10
20 15 20 4 0 22 13 39 29 37 35 34 49 -23 110 -55 58 -104 78 -222 91 -141 16
-223 36 -354 87 -165 65 -447 210 -576 296 -141 95 -164 107 -212 107 -87 0
-103 9 -207 114 -187 187 -338 384 -485 631 -29 50 -99 158 -155 240 -56 83
-139 204 -183 270 -95 142 -200 268 -387 465 -80 85 -145 163 -157 188 -11 24
-35 105 -54 180 -43 170 -63 204 -157 252 -59 30 -79 48 -140 127 -40 50 -116
142 -169 204 -54 61 -98 120 -98 131 0 38 -29 75 -72 93 -23 9 -106 70 -183
134 -170 143 -292 234 -360 268 -85 43 -103 59 -97 88 8 45 -18 174 -60 289
-21 61 -46 143 -54 181 -37 179 -38 191 -26 251 7 33 21 118 32 189 11 72 34
167 50 212 28 78 50 160 81 298 13 62 29 108 72 210 14 33 30 79 36 102 6 23
24 56 38 74 26 31 28 31 99 27 81 -5 168 -41 246 -101 84 -65 126 -81 193 -77
151 9 198 4 293 -28 109 -37 126 -46 296 -141 247 -140 351 -167 676 -181 275
-11 385 -22 532 -54 173 -37 222 -59 287 -127 68 -73 102 -86 263 -102 155
-16 178 -29 278 -161 89 -117 120 -151 147 -165 18 -9 24 -8 37 11 19 27 20
75 2 151 -14 60 -8 72 17 34 9 -13 51 -42 94 -65 52 -27 84 -51 96 -71 22 -38
62 -43 71 -8 15 55 0 144 -40 242 -5 12 6 5 27 -17 68 -71 125 -60 117 23 -5
52 -73 171 -137 242 -111 123 -330 222 -656 298 -181 43 -366 109 -595 213
-181 83 -247 120 -387 222 -65 48 -135 98 -156 111 -88 55 -273 114 -465 148
-136 24 -156 32 -244 99 -46 34 -130 91 -188 126 -190 115 -223 141 -375 294
-170 172 -236 230 -318 280 -62 36 -175 70 -272 81 -77 8 -143 29 -178 58
l-28 22 56 2 c31 2 71 10 88 19 48 23 94 95 118 181 12 42 35 106 53 142 31
65 32 66 71 66 22 0 48 5 58 11 25 15 36 71 26 135 -18 113 -14 179 17 244 26
55 29 70 29 175 0 63 -2 139 -5 169 -5 51 -4 55 19 61 37 8 63 51 63 99 -1 51
-21 89 -90 174 -53 66 -78 81 -175 106 -21 5 -61 25 -90 44 -76 51 -164 85
-263 102 -79 14 -244 18 -304 8z m-178 -1860 c99 -97 212 -224 163 -183 -45
37 -269 270 -260 270 4 0 48 -39 97 -87z m914 -725 c-20 -161 -72 -377 -97
-403 -7 -7 -8 -5 -5 5 19 52 86 351 86 382 0 36 8 68 17 68 3 0 2 -24 -1 -52z
m-1166 -1048 c113 -89 212 -169 220 -178 13 -13 12 -13 -7 -3 -26 13 -134 98
-298 235 -119 98 -167 142 -135 120 8 -6 107 -84 220 -174z m-277 -597 c-18
-2 -48 -2 -65 0 -18 2 -4 4 32 4 36 0 50 -2 33 -4z m247 -17 c115 -17 313 -61
395 -87 84 -28 233 -103 275 -138 29 -24 15 -19 -80 28 -63 31 -144 67 -180
79 -157 52 -414 107 -590 125 -20 2 -9 4 25 5 33 1 103 -5 155 -12z m540 -528
c98 -31 185 -71 253 -116 61 -40 29 -37 -59 6 -90 45 -251 114 -306 132 -21 6
-38 14 -38 16 0 7 47 -5 150 -38z m-1061 -1294 c9 -8 -45 -2 -64 6 -14 7 -8 8
20 3 22 -3 42 -7 44 -9z m140 -40 c193 -64 310 -135 639 -387 20 -16 101 -76
180 -134 78 -58 142 -107 142 -110 0 -14 -128 72 -318 216 -338 255 -461 330
-677 412 -126 48 -106 50 34 3z m1264 -76 c-30 -49 -107 -209 -134 -283 l-19
-50 6 40 c7 51 66 180 122 268 24 37 45 67 48 67 2 0 -8 -19 -23 -42z"/>
<path d="M9098 6240 c-144 -25 -248 -80 -364 -195 -152 -150 -212 -285 -221
-496 -8 -171 16 -275 96 -429 37 -70 193 -219 276 -262 214 -111 467 -115 681
-12 64 31 97 57 175 134 78 78 102 110 136 180 93 190 106 399 39 598 -38 110
-84 181 -180 278 -78 78 -105 98 -186 137 -142 69 -300 92 -452 67z"/>
<path d="M3545 2000 c-667 -13 -1219 -31 -1228 -39 -15 -15 169 -22 782 -31
1177 -18 3514 -7 3641 17 l35 6 -45 8 c-42 7 -349 21 -760 33 -323 10 -2011
14 -2425 6z"/>
</g>
</svg>
