<?xml version="1.0" standalone="no"?>
<!DOCTYPE svg PUBLIC "-//W3C//DTD SVG 20010904//EN"
 "http://www.w3.org/TR/2001/REC-SVG-20010904/DTD/svg10.dtd">
<svg version="1.0" xmlns="http://www.w3.org/2000/svg"
 width="1024.000000pt" height="1536.000000pt" viewBox="0 0 1024.000000 1536.000000"
 preserveAspectRatio="xMidYMid meet">
<metadata>
Created by potrace 1.16, written by Peter Selinger 2001-2019
</metadata>
<g transform="translate(0.000000,1536.000000) scale(0.100000,-0.100000)"
fill="#000000" stroke="none">
<path d="M5758 13464 c-4 -3 0 -22 8 -41 9 -19 13 -37 11 -40 -3 -2 -36 5 -75
16 -93 28 -217 28 -299 0 -58 -19 -64 -19 -127 -5 -37 9 -76 16 -87 16 -29 0
-23 -17 9 -24 35 -8 66 -32 58 -45 -7 -10 -148 -110 -311 -218 -195 -130 -198
-136 -45 -108 l35 6 -53 -47 c-29 -26 -90 -69 -134 -95 -87 -51 -89 -67 -8
-56 22 3 40 3 40 1 0 -2 -18 -27 -40 -56 -22 -29 -42 -69 -46 -88 -3 -19 -7
-45 -10 -57 -6 -33 11 -28 26 6 6 16 24 41 39 55 l28 27 -5 -49 c-3 -41 -1
-52 15 -63 11 -8 23 -31 26 -52 3 -22 12 -45 18 -54 11 -12 14 -10 25 14 l12
28 11 -30 c7 -16 19 -63 27 -104 27 -145 72 -241 112 -241 13 0 21 -19 35 -93
10 -50 29 -115 42 -143 14 -28 25 -64 25 -80 0 -27 20 -67 63 -127 10 -14 24
-48 32 -75 l13 -50 -42 -12 c-22 -6 -97 -42 -166 -78 -69 -37 -163 -82 -210
-100 -169 -66 -267 -120 -328 -180 -37 -36 -125 -156 -239 -327 -210 -314
-335 -487 -408 -566 -55 -61 -85 -113 -85 -151 0 -22 -21 -61 -45 -83 -6 -5
-42 -47 -80 -93 -81 -97 -160 -164 -305 -257 -134 -86 -290 -241 -460 -460
-68 -88 -154 -196 -191 -240 -81 -98 -324 -335 -411 -400 -66 -50 -258 -150
-368 -192 -36 -13 -76 -34 -88 -46 -52 -48 -123 -230 -143 -361 l-13 -89 28
-54 c36 -68 134 -160 180 -168 57 -11 70 -4 76 40 13 92 52 124 228 181 175
57 229 102 284 238 103 252 147 296 483 483 574 321 666 388 873 648 114 141
145 172 232 230 93 61 177 101 239 114 30 6 69 20 86 31 48 30 124 115 193
216 74 109 154 187 217 214 69 30 75 28 64 -22 -6 -22 -7 -62 -3 -87 9 -64 68
-332 104 -475 42 -167 41 -202 -15 -301 -73 -129 -93 -176 -110 -255 -26 -129
-41 -156 -179 -330 -86 -109 -108 -162 -116 -285 l-6 -102 -67 -80 c-85 -102
-143 -204 -182 -318 -31 -89 -31 -90 -75 -106 -65 -23 -102 -65 -159 -181 -28
-57 -83 -156 -123 -221 -40 -64 -98 -158 -128 -208 -30 -51 -88 -144 -129
-208 -121 -191 -153 -243 -192 -316 -54 -98 -49 -57 5 49 25 48 50 113 57 144
6 31 22 78 34 103 60 117 68 243 26 369 -25 74 -89 185 -126 220 l-26 24 -107
-18 c-59 -10 -125 -26 -147 -36 -22 -10 -85 -59 -139 -110 -117 -108 -203
-161 -377 -230 -114 -46 -133 -58 -183 -108 -154 -158 -246 -338 -246 -482 0
-147 67 -222 200 -223 70 -1 112 13 290 96 98 46 190 72 190 55 0 -5 -12 -85
-26 -176 -22 -140 -25 -187 -21 -292 7 -144 42 -312 108 -515 l42 -130 76 -76
c62 -62 90 -82 156 -110 70 -30 90 -34 165 -34 80 0 90 3 171 42 110 54 158
98 379 348 304 343 448 498 477 514 19 10 67 16 153 18 102 3 133 8 170 25 73
35 200 168 543 572 106 125 154 166 190 166 15 0 17 -5 12 -28 -5 -24 1 -37
30 -72 20 -24 47 -61 60 -84 50 -86 144 -305 160 -372 15 -64 15 -74 -1 -136
-17 -63 -17 -68 1 -113 23 -61 115 -152 192 -190 44 -21 77 -29 134 -33 76 -4
77 -5 111 -46 105 -127 160 -245 173 -374 9 -79 8 -82 -131 -315 -141 -236
-221 -398 -273 -552 -68 -203 -80 -265 -91 -455 -14 -258 -34 -401 -96 -698
-76 -370 -97 -443 -149 -532 -24 -41 -58 -107 -75 -145 -17 -39 -56 -121 -88
-184 -56 -113 -57 -115 -60 -215 -3 -94 -1 -104 23 -141 14 -22 37 -66 52 -97
l27 -57 61 1 c33 0 68 5 78 10 23 12 89 -7 112 -32 10 -11 22 -20 27 -20 5 0
40 29 77 64 90 84 148 113 271 133 95 16 105 15 178 -2 126 -29 157 -30 179
-6 59 69 63 71 128 71 53 0 65 -3 77 -22 13 -19 19 -21 48 -12 38 11 79 69 61
87 -20 20 58 54 141 62 l76 7 54 79 c98 147 121 195 125 274 3 62 1 76 -24
119 -20 35 -41 57 -73 74 -42 22 -52 24 -155 18 -60 -3 -146 -14 -190 -26
-120 -30 -171 -26 -304 23 -63 23 -119 50 -125 59 -12 20 -1 67 51 213 45 127
100 241 209 435 211 376 321 633 394 919 33 131 68 322 80 438 14 139 21 164
86 305 111 241 128 324 102 504 -9 66 -9 117 1 246 22 271 24 352 11 460 -19
168 -87 471 -142 628 -45 130 -51 155 -53 240 -3 110 -23 193 -62 259 -23 38
-28 58 -28 111 0 36 -4 77 -8 91 -7 23 -4 29 27 47 19 11 43 36 53 54 20 37
20 44 14 623 -5 379 6 511 63 765 80 362 103 592 116 1180 5 245 13 430 20
453 14 46 40 64 116 77 32 6 92 21 133 32 67 20 76 26 111 72 54 71 126 214
166 326 18 52 33 88 34 79 0 -24 -43 -164 -73 -234 -14 -33 -23 -63 -19 -67 4
-3 41 0 82 7 41 8 122 21 180 30 291 45 456 119 841 375 303 202 352 227 505
251 94 14 115 24 185 84 30 26 72 56 94 67 69 35 105 78 126 152 18 62 -7 108
-148 262 -72 79 -306 65 -404 -23 -22 -20 -58 -67 -81 -105 -22 -38 -59 -84
-81 -103 -46 -40 -170 -105 -242 -129 -91 -29 -278 -66 -431 -86 -170 -21
-204 -33 -359 -119 -60 -33 -124 -64 -143 -67 -38 -7 -120 7 -240 42 -84 24
-376 84 -514 105 -46 7 -129 10 -205 6 -112 -4 -143 -9 -243 -42 -82 -26 -125
-35 -150 -31 -109 18 -130 18 -179 0 -42 -15 -52 -15 -66 -4 -31 25 -52 85
-59 161 -7 69 -5 81 17 125 54 107 67 189 45 283 -9 41 -9 68 3 134 40 236 -6
438 -132 581 -47 53 -173 146 -198 146 -9 0 -48 34 -87 75 -39 41 -73 72 -76
69z m542 -1860 c-17 -80 -20 -63 -7 31 7 45 13 68 15 52 2 -15 -2 -52 -8 -83z
m-610 -172 c0 -8 -43 -32 -58 -32 -6 0 49 40 56 40 1 0 2 -4 2 -8z m-314 -13
c3 -6 20 -19 38 -30 17 -10 25 -19 17 -19 -7 0 -29 14 -48 30 -18 17 -29 30
-24 30 5 0 13 -5 17 -11z m167 -46 c-7 -2 -21 -2 -30 0 -10 3 -4 5 12 5 17 0
24 -2 18 -5z m332 -63 c44 -11 84 -25 89 -30 10 -10 9 -10 -114 21 -47 11
-114 25 -150 29 l-65 9 80 -4 c44 -2 116 -13 160 -25z m-950 -1095 c-22 -13
-44 -24 -50 -25 -5 0 8 11 30 25 22 13 45 24 50 25 6 0 -8 -11 -30 -25z m1348
-542 c-306 -396 -517 -618 -696 -735 -23 -15 -66 -45 -96 -65 -70 -49 -119
-79 -106 -66 14 14 97 72 190 134 103 68 342 306 505 504 220 266 261 315 266
315 3 0 -25 -39 -63 -87z m-812 -302 c-71 -99 -311 -325 -426 -400 -55 -36
-47 -29 100 93 55 46 154 140 220 209 66 69 121 126 123 126 2 1 -6 -12 -17
-28z m1369 -366 c0 -10 -97 -125 -164 -193 -185 -190 -425 -375 -608 -468 -78
-40 -55 -21 43 35 185 106 463 337 634 529 90 101 95 106 95 97z m-1769 -921
c131 -46 406 -118 569 -149 89 -17 321 -49 475 -65 61 -7 117 -16 125 -21 11
-7 8 -8 -10 -5 -14 3 -70 8 -125 11 -142 8 -389 42 -526 71 -202 42 -627 174
-562 174 6 0 30 -7 54 -16z m1002 -688 c-106 -61 -204 -138 -337 -265 -74 -71
-77 -73 -35 -22 62 77 205 197 307 258 48 29 92 53 97 53 6 0 -9 -11 -32 -24z
m-733 -240 c0 -5 -144 -63 -290 -118 -116 -43 -282 -89 -405 -113 -122 -23
-133 -16 -17 11 169 39 541 157 677 214 23 10 35 12 35 6z m1535 -402 c63 -16
161 -60 171 -76 3 -5 -12 0 -35 11 -133 68 -397 85 -586 36 -33 -8 -90 -30
-127 -48 -37 -18 -63 -28 -58 -21 16 18 140 72 205 88 132 34 318 38 430 10z
m-3570 -484 c-14 -23 -53 -89 -85 -148 -65 -117 -76 -127 -32 -29 29 63 133
229 140 222 2 -1 -8 -22 -23 -45z m580 -156 c72 -18 173 -39 225 -48 l95 -15
-80 5 c-44 2 -107 9 -140 15 -74 13 -246 67 -260 81 -7 8 -4 9 10 3 11 -4 79
-22 150 -41z m2204 -199 c18 -22 10 -16 -18 13 -28 29 -51 59 -50 65 0 7 8 1
17 -13 9 -14 32 -43 51 -65z m706 -3225 c-23 -38 -339 -250 -352 -237 -4 5 60
48 112 75 37 19 154 101 215 151 28 23 34 25 25 11z m-1022 -437 c-7 -2 -21
-2 -30 0 -10 3 -4 5 12 5 17 0 24 -2 18 -5z"/>
<path d="M1675 3605 c-113 -29 -169 -53 -248 -107 -163 -111 -274 -263 -329
-455 -30 -104 -33 -351 -5 -453 75 -272 287 -481 572 -562 103 -29 293 -31
400 -4 280 71 497 283 577 561 33 115 32 325 0 440 -125 437 -547 690 -967
580z"/>
</g>
</svg>
