<?xml version="1.0" standalone="no"?>
<!DOCTYPE svg PUBLIC "-//W3C//DTD SVG 20010904//EN"
 "http://www.w3.org/TR/2001/REC-SVG-20010904/DTD/svg10.dtd">
<svg version="1.0" xmlns="http://www.w3.org/2000/svg"
 width="1024.000000pt" height="1024.000000pt" viewBox="0 0 1024.000000 1024.000000"
 preserveAspectRatio="xMidYMid meet">
<metadata>
Created by potrace 1.16, written by Peter Selinger 2001-2019
</metadata>
<g transform="translate(0.000000,1024.000000) scale(0.100000,-0.100000)"
fill="#000000" stroke="none">
<path d="M2285 7719 c-27 -4 -90 -13 -140 -19 -133 -15 -175 -34 -277 -122
-49 -43 -96 -78 -104 -78 -35 0 -115 -228 -122 -348 -4 -74 -1 -93 33 -200 58
-182 72 -214 126 -279 42 -52 51 -71 60 -124 19 -118 -22 -265 -79 -283 -10
-4 -40 -37 -66 -75 -46 -68 -240 -259 -401 -395 -44 -37 -95 -86 -113 -109
-49 -61 -120 -211 -138 -292 -9 -38 -43 -151 -75 -250 -104 -322 -169 -533
-169 -552 0 -10 7 -28 15 -40 13 -19 13 -26 -9 -75 -86 -195 -172 -501 -197
-703 -14 -105 -17 -421 -9 -735 7 -274 -7 -307 -188 -441 -117 -86 -182 -147
-182 -170 0 -33 26 -42 98 -34 37 5 105 9 152 9 69 1 95 6 140 27 30 14 87 38
127 54 l71 27 98 -41 c81 -35 102 -41 121 -32 34 15 29 40 -22 108 -67 90 -97
171 -103 273 -5 99 16 263 59 465 17 77 55 262 85 410 54 271 79 365 117 440
33 66 96 154 149 207 60 60 121 154 258 391 56 97 105 177 109 177 4 0 18 -23
32 -52 13 -28 44 -81 69 -117 63 -92 357 -451 544 -665 110 -126 191 -231 270
-350 62 -94 138 -205 170 -246 91 -118 223 -258 273 -286 43 -26 46 -26 79
-10 19 9 42 16 50 16 9 0 89 -70 179 -156 90 -86 204 -186 255 -224 136 -100
471 -275 631 -331 95 -33 222 -37 326 -10 108 28 131 27 297 -13 221 -53 300
-66 416 -66 140 0 230 23 390 102 156 76 214 83 389 48 101 -21 121 -22 194
-11 45 6 120 11 167 11 219 1 431 45 497 103 53 47 32 159 -44 233 -80 78
-227 114 -468 114 -183 0 -229 8 -350 60 -115 49 -217 73 -315 74 -94 1 -130
-17 -172 -85 -17 -27 -38 -49 -48 -49 -9 0 -41 13 -71 29 -124 67 -156 80
-202 86 -63 8 -103 44 -161 144 -24 42 -63 94 -86 115 -85 77 -215 146 -349
186 -86 25 -144 75 -205 175 -25 41 -44 75 -41 75 3 0 32 -34 65 -77 82 -104
118 -128 236 -159 55 -14 124 -39 154 -56 172 -98 183 -100 505 -96 296 4 288
1 343 111 18 37 43 73 55 81 54 34 393 72 575 64 144 -6 214 -28 409 -128 221
-112 312 -131 723 -150 118 -6 276 -17 350 -26 244 -27 511 -90 581 -137 19
-12 71 -72 116 -132 45 -61 103 -130 130 -154 51 -47 166 -106 189 -97 8 3 14
19 14 36 0 36 31 70 64 70 31 0 76 36 76 61 0 12 13 33 28 49 36 36 103 50
237 50 128 0 189 12 249 51 26 16 56 29 66 29 15 0 20 7 20 28 0 19 10 38 30
55 62 55 83 148 55 244 -41 139 -158 170 -465 122 -74 -12 -164 -23 -200 -26
-36 -2 -103 -6 -150 -9 -47 -4 -100 -2 -118 3 -19 5 -69 4 -118 -1 -70 -8 -94
-6 -137 7 -29 9 -216 99 -417 200 -534 269 -731 341 -1130 416 -324 61 -383
70 -530 80 -145 11 -177 19 -315 76 -196 81 -460 174 -607 214 -245 66 -424
90 -754 100 -233 8 -255 10 -287 30 -19 12 -41 28 -48 37 -24 30 -73 46 -174
60 -170 22 -267 70 -340 166 -29 38 -59 63 -107 88 -37 19 -79 46 -93 60 -34
32 -93 154 -144 300 -36 105 -98 269 -116 313 -5 13 -2 17 11 17 11 0 75 7
144 15 69 8 211 22 315 30 132 10 200 20 223 32 37 19 38 21 16 52 -9 12 -12
26 -8 30 18 16 82 32 229 56 82 14 184 34 225 45 233 63 508 201 805 405 129
89 165 108 308 165 176 69 233 99 318 169 105 84 221 207 217 228 -5 29 -61
28 -115 -1 -25 -15 -48 -25 -50 -22 -2 2 42 41 99 87 134 110 198 172 198 193
0 18 -22 21 -52 5 -35 -19 -29 -3 17 43 31 31 45 54 45 72 0 14 -4 26 -8 26
-5 0 -47 -23 -93 -51 -46 -27 -133 -74 -194 -103 -101 -49 -121 -64 -237 -175
-70 -67 -155 -139 -188 -160 -118 -76 -298 -136 -730 -242 -315 -77 -388 -99
-540 -158 -161 -63 -177 -65 -264 -42 -51 14 -121 21 -251 25 -99 4 -243 13
-320 21 -366 38 -383 39 -522 22 -231 -30 -263 -22 -204 50 37 45 39 75 6 128
-38 62 -65 118 -65 138 0 10 11 22 24 27 14 5 30 19 37 31 16 30 4 135 -21
195 -11 26 -20 68 -20 97 0 35 -7 63 -21 86 -11 18 -18 36 -15 39 3 3 29 -7
57 -21 28 -15 53 -27 55 -27 2 0 4 14 4 31 0 23 -13 44 -57 90 l-56 59 49 0
c27 0 55 4 63 9 20 13 -27 41 -75 44 -21 2 -39 8 -42 15 -2 7 2 10 10 7 19 -7
50 28 43 47 -9 24 -51 38 -112 38 -45 0 -68 7 -118 35 -105 58 -186 73 -300
54z m486 -1414 c-37 -79 -112 -157 -183 -190 -43 -20 -69 -25 -136 -25 -98 0
-102 15 -5 23 108 9 178 40 249 111 46 46 65 75 79 116 10 30 20 49 23 42 2
-7 -10 -41 -27 -77z m1436 -87 c-2 -13 -4 -5 -4 17 -1 22 1 32 4 23 2 -10 2
-28 0 -40z m-2167 -215 c84 -24 84 -24 29 -19 -32 2 -84 17 -122 34 -70 32
-95 53 -29 25 20 -9 75 -27 122 -40z m1260 -1439 c-99 -47 -263 -102 -353
-119 -40 -7 -119 -16 -177 -19 l-105 -6 109 20 c158 29 334 74 466 119 142 49
157 50 60 5z m725 -290 c-87 -134 -192 -267 -313 -399 -121 -132 -302 -312
-302 -301 0 4 69 81 153 170 162 173 328 370 442 527 39 53 72 95 74 93 1 -1
-22 -42 -54 -90z m1553 -79 c-11 -98 -3 -312 17 -495 3 -23 -1 -16 -11 20 -23
86 -38 360 -24 455 14 101 21 137 26 132 2 -2 -1 -52 -8 -112z m-990 -964
c-80 -89 -188 -341 -188 -439 0 -18 -4 -32 -8 -32 -15 0 0 125 24 198 37 113
90 208 148 268 65 67 83 71 24 5z"/>
<path d="M9035 5890 c-222 -31 -411 -173 -510 -383 -50 -105 -68 -199 -62
-327 16 -311 227 -562 529 -626 86 -19 230 -14 323 11 180 47 336 177 420 350
46 95 65 181 65 300 0 55 -7 129 -16 165 -55 236 -258 442 -485 494 -87 20
-191 26 -264 16z"/>
</g>
</svg>
