<?xml version="1.0" standalone="no"?>
<!DOCTYPE svg PUBLIC "-//W3C//DTD SVG 20010904//EN"
 "http://www.w3.org/TR/2001/REC-SVG-20010904/DTD/svg10.dtd">
<svg version="1.0" xmlns="http://www.w3.org/2000/svg"
 width="1024.000000pt" height="1024.000000pt" viewBox="0 0 1024.000000 1024.000000"
 preserveAspectRatio="xMidYMid meet">
<metadata>
Created by potrace 1.16, written by Peter Selinger 2001-2019
</metadata>
<g transform="translate(0.000000,1024.000000) scale(0.100000,-0.100000)"
fill="#000000" stroke="none">
<path d="M6993 9825 c-39 -7 -94 -20 -123 -30 l-51 -17 -24 26 c-16 17 -35 26
-55 26 -49 0 -185 -58 -268 -114 -63 -41 -87 -66 -132 -132 -30 -45 -82 -112
-114 -150 -51 -59 -118 -179 -149 -267 -4 -9 -19 -22 -34 -28 -42 -17 -66 -28
-83 -38 -8 -5 -57 -28 -108 -52 -62 -30 -94 -51 -98 -64 -4 -15 -47 -38 -167
-89 -239 -101 -433 -199 -549 -276 -175 -116 -177 -118 -282 -334 -141 -287
-179 -410 -242 -783 -34 -199 -38 -242 -44 -483 l-6 -265 -52 -162 c-63 -197
-82 -271 -127 -494 -88 -425 -81 -405 -247 -674 -71 -116 -81 -152 -52 -193
15 -21 13 -26 -40 -100 -30 -42 -74 -103 -98 -135 -135 -180 -164 -224 -227
-347 -38 -74 -82 -146 -96 -160 -15 -14 -40 -53 -56 -88 -16 -35 -44 -85 -62
-110 -105 -144 -427 -701 -427 -738 0 -12 6 -27 14 -33 32 -27 25 -72 -27
-186 -27 -60 -53 -114 -58 -120 -4 -5 -23 -39 -42 -75 -19 -36 -46 -83 -61
-104 -14 -21 -26 -44 -27 -50 0 -16 -101 -93 -184 -143 -181 -107 -310 -223
-400 -358 -29 -44 -95 -154 -145 -245 -262 -467 -277 -490 -361 -568 -43 -41
-79 -80 -79 -88 0 -7 -13 -20 -29 -28 -15 -8 -56 -43 -89 -77 -72 -72 -102
-139 -102 -227 0 -66 -2 -69 -123 -236 -72 -98 -92 -133 -113 -202 -23 -74
-26 -96 -22 -191 3 -84 9 -119 26 -158 28 -60 66 -103 109 -121 49 -21 141
-18 188 7 95 50 215 203 255 327 20 61 136 330 147 342 3 3 3 -39 1 -92 -3
-90 3 -121 18 -105 4 4 9 55 12 114 5 129 37 246 78 284 14 13 52 62 83 109
73 110 351 385 504 498 288 213 403 317 498 451 24 34 54 77 67 94 14 19 40
38 65 46 28 10 68 41 127 100 135 134 315 336 397 446 41 55 78 103 82 107 3
4 44 -8 90 -27 101 -40 100 -41 194 74 35 42 144 160 241 264 172 181 271 271
285 262 4 -2 95 -38 202 -79 107 -41 253 -102 324 -135 163 -75 339 -134 368
-125 12 4 56 28 98 54 84 52 60 50 249 21 36 -6 69 -11 73 -11 5 0 -32 -43
-82 -96 -50 -53 -111 -129 -136 -168 -65 -104 -126 -257 -132 -330 -7 -72 -23
-107 -111 -235 -96 -141 -136 -194 -213 -283 -38 -44 -69 -86 -69 -93 0 -8
-48 -40 -106 -72 -114 -62 -196 -138 -251 -230 -24 -40 -28 -59 -28 -118 0
-48 6 -84 19 -114 17 -35 18 -46 7 -63 -10 -17 -10 -23 5 -39 16 -18 19 -18
42 -3 24 16 26 15 41 -3 70 -88 73 -93 62 -107 -9 -10 -7 -19 7 -35 l17 -22
29 22 c37 29 48 22 114 -76 48 -73 52 -83 46 -121 -5 -37 -3 -44 16 -54 16 -9
25 -9 36 1 8 6 16 10 17 8 66 -99 78 -123 72 -146 -4 -17 0 -32 11 -44 22 -24
33 -24 61 2 l22 22 56 -43 c37 -28 55 -49 52 -59 -3 -9 -6 -22 -8 -29 -2 -8 9
-24 24 -35 24 -19 30 -20 37 -7 30 53 31 53 98 36 72 -19 89 -14 121 38 38 60
29 98 -59 275 -90 181 -129 299 -112 343 7 19 7 53 1 104 -12 90 -6 106 11 35
11 -46 25 -69 35 -59 2 2 -9 45 -25 96 -17 51 -30 100 -30 111 0 10 -7 24 -16
31 -11 10 -14 23 -8 54 5 30 23 58 73 115 137 154 221 238 391 390 389 347
432 392 540 566 38 61 108 153 155 205 152 168 187 240 186 379 -1 66 -6 94
-24 135 -53 113 -173 239 -367 385 -47 35 -114 92 -150 126 -36 34 -99 81
-140 105 -116 68 -481 247 -520 255 -69 15 -100 32 -100 58 0 28 -41 93 -78
123 l-27 22 43 11 c24 7 48 21 56 34 12 19 51 169 71 277 9 44 29 76 185 285
160 213 245 343 319 486 l58 112 214 102 c244 117 443 226 554 303 64 45 80
62 100 105 21 47 38 64 196 184 304 230 348 280 370 418 21 139 17 433 -10
671 l-24 212 21 27 c20 25 22 39 21 159 0 75 -5 136 -11 143 -15 19 -2 75 29
119 39 59 53 97 64 185 5 44 18 104 29 132 44 122 52 175 48 332 -3 135 -6
156 -28 200 -19 38 -35 55 -66 70 -31 15 -44 28 -48 50 -4 16 -24 65 -46 110
-88 181 -235 305 -422 354 -102 27 -171 31 -255 16z m-439 -1059 c30 -46 75
-100 98 -121 53 -45 162 -98 248 -120 69 -18 208 -25 252 -12 23 6 27 3 38
-26 6 -17 15 -69 20 -114 5 -45 16 -97 24 -115 19 -41 22 -128 5 -194 -14 -57
-7 -97 21 -122 13 -11 20 -29 20 -53 0 -56 -45 -309 -78 -445 -17 -65 -33
-144 -36 -174 l-7 -56 -68 -10 c-47 -8 -88 -23 -137 -51 -38 -22 -113 -60
-166 -83 -54 -23 -116 -58 -138 -78 l-41 -35 -54 13 c-86 21 -218 8 -302 -29
-82 -36 -197 -52 -206 -29 -11 29 9 39 81 41 105 3 121 22 196 232 12 33 34
82 49 109 24 43 27 59 27 139 0 89 1 92 32 124 31 32 31 33 20 85 -6 29 -13
95 -15 146 -3 81 -1 92 14 92 36 0 33 61 -7 142 -39 77 -176 174 -317 224 -43
15 -223 12 -331 -6 -149 -24 -280 -161 -334 -349 -36 -123 -52 -199 -52 -241
0 -61 28 -160 56 -197 33 -43 31 -95 -5 -176 -30 -66 -55 -88 -77 -65 -6 7
-22 47 -34 88 -29 97 -54 146 -97 192 l-36 37 32 128 c37 154 51 242 51 345
l0 77 98 70 c55 38 166 125 248 193 82 68 193 159 247 201 96 77 98 78 130 66
31 -11 36 -9 83 26 27 20 66 55 87 76 26 27 46 39 66 39 19 0 34 8 45 25 9 14
33 29 58 36 24 6 61 17 83 24 22 8 43 14 47 14 4 1 32 -37 62 -83z"/>
</g>
</svg>
