<?xml version="1.0" standalone="no"?>
<!DOCTYPE svg PUBLIC "-//W3C//DTD SVG 20010904//EN"
 "http://www.w3.org/TR/2001/REC-SVG-20010904/DTD/svg10.dtd">
<svg version="1.0" xmlns="http://www.w3.org/2000/svg"
 width="1024.000000pt" height="1536.000000pt" viewBox="0 0 1024.000000 1536.000000"
 preserveAspectRatio="xMidYMid meet">
<metadata>
Created by potrace 1.16, written by Peter Selinger 2001-2019
</metadata>
<g transform="translate(0.000000,1536.000000) scale(0.100000,-0.100000)"
fill="#000000" stroke="none">
<path d="M5995 13863 c-87 -22 -281 -91 -328 -116 -116 -61 -215 -192 -251
-332 -21 -84 -56 -306 -56 -360 0 -55 19 -96 57 -120 37 -24 83 -67 83 -78 0
-5 -18 7 -40 27 -46 41 -82 53 -115 38 -78 -36 -86 -264 -14 -395 44 -80 40
-122 -21 -214 -48 -71 -74 -136 -87 -217 -11 -69 -23 -14 -12 59 12 87 37 142
89 199 l43 46 -29 -5 c-16 -2 -78 -7 -139 -10 -140 -7 -246 -25 -468 -81 -226
-57 -347 -80 -511 -100 -239 -29 -330 -71 -556 -259 -155 -129 -332 -239 -615
-380 -112 -56 -126 -67 -235 -175 -111 -112 -169 -156 -330 -251 -143 -85
-264 -222 -421 -479 -45 -74 -111 -182 -146 -240 -36 -58 -157 -289 -270 -515
-113 -225 -240 -464 -282 -530 -43 -66 -93 -147 -112 -180 -20 -35 -89 -116
-165 -195 -160 -164 -185 -208 -192 -327 -4 -70 0 -96 23 -169 14 -48 42 -117
61 -154 19 -37 34 -71 34 -76 0 -5 9 -20 20 -34 l19 -25 -15 50 c-19 62 -30
300 -16 335 8 19 9 2 5 -65 -7 -117 23 -282 69 -375 39 -81 129 -174 182 -188
44 -13 71 -5 107 32 22 21 28 24 33 11 3 -8 17 -15 32 -15 49 0 129 98 232
286 140 253 157 316 123 456 -52 221 -50 243 44 436 103 213 212 364 500 697
225 260 308 372 419 567 l41 72 90 28 c50 15 106 31 125 34 19 3 57 13 83 22
41 14 52 14 80 3 67 -28 87 -25 193 28 140 69 234 105 371 142 64 17 123 33
130 36 11 4 11 0 3 -22 -6 -14 -14 -86 -20 -158 -12 -169 -21 -216 -80 -422
-73 -253 -83 -299 -75 -375 l7 -66 -67 -90 c-105 -140 -155 -253 -155 -351 0
-63 -3 -69 -80 -183 -119 -177 -230 -381 -296 -545 -52 -130 -50 -107 -42
-342 1 -27 -10 -92 -26 -148 -24 -85 -29 -125 -33 -265 -6 -180 2 -257 42
-392 62 -215 187 -442 372 -677 41 -52 83 -111 94 -132 38 -75 36 -107 -26
-439 -20 -103 -21 -229 -5 -314 12 -59 11 -70 -19 -192 -36 -147 -100 -354
-124 -400 -23 -45 -77 -89 -160 -130 -254 -128 -480 -276 -593 -389 -86 -85
-130 -157 -181 -298 -64 -180 -115 -249 -377 -515 -126 -128 -206 -200 -262
-238 -83 -54 -120 -98 -134 -158 l-8 -31 -1 28 c-1 15 6 41 14 57 9 17 13 30
9 30 -29 0 -282 -78 -334 -102 -103 -49 -223 -185 -288 -326 -34 -73 -43 -216
-18 -276 19 -46 34 -43 63 14 13 25 24 37 27 29 24 -78 36 -146 36 -197 0 -93
39 -173 59 -120 7 21 10 19 30 -27 46 -101 80 -272 111 -560 14 -129 29 -203
47 -240 21 -40 23 -42 32 -26 6 10 16 -5 32 -48 31 -85 79 -143 79 -96 0 13 5
11 22 -5 46 -43 157 -82 278 -99 106 -15 691 -38 1323 -52 505 -10 661 -8 641
11 -14 12 -118 28 -249 39 -107 9 -253 17 -1027 50 -114 5 -212 12 -218 16 -6
4 -5 16 5 35 30 58 12 114 -67 206 -114 132 -168 231 -194 355 -22 104 -15
186 19 236 48 69 61 228 32 388 -20 111 -19 142 10 204 53 112 167 239 335
372 76 60 338 242 536 372 220 145 508 345 512 358 2 5 8 9 13 9 6 0 8 -4 5
-9 -4 -5 -15 -52 -26 -105 -11 -52 -44 -195 -74 -317 -44 -175 -64 -240 -99
-308 -229 -448 -294 -584 -305 -629 -22 -96 -25 -239 -8 -336 9 -49 16 -109
16 -133 0 -47 16 -88 47 -115 17 -15 24 -16 53 -5 25 9 34 9 37 0 10 -28 66
-95 96 -114 18 -11 47 -19 67 -18 19 1 40 1 47 0 7 0 60 -74 118 -163 157
-237 252 -328 330 -314 29 6 35 2 77 -52 48 -62 123 -109 156 -99 9 4 42 15
72 26 76 28 134 27 192 -4 67 -36 96 -33 151 15 25 22 48 40 51 40 3 0 35 14
70 30 80 38 102 75 92 157 -14 117 -65 188 -249 346 -73 63 -147 132 -164 153
-51 65 -91 157 -128 292 -43 160 -74 242 -132 355 -37 71 -44 93 -39 120 4 17
11 100 16 182 13 203 57 339 198 621 127 253 225 407 367 575 53 63 112 137
131 166 58 87 182 352 220 467 43 135 70 188 132 263 77 94 115 151 190 283
71 126 93 160 156 237 66 82 71 204 15 382 -38 118 -142 376 -215 530 -110
232 -190 330 -306 373 -34 12 -57 23 -51 25 19 7 123 -38 166 -71 89 -67 203
-254 307 -501 71 -169 88 -205 99 -205 15 0 83 138 121 245 52 147 128 484
160 710 7 49 25 109 45 155 52 114 66 180 71 330 5 155 20 264 42 299 11 18
13 44 9 105 -3 45 -8 90 -12 102 -5 16 4 33 34 68 81 93 105 181 95 340 l-7
104 38 38 c45 44 62 82 130 279 48 142 57 158 152 295 89 129 161 241 395 620
58 94 188 313 262 443 31 54 39 60 23 18 -11 -29 -9 -32 89 -128 87 -84 107
-111 145 -188 43 -88 71 -114 89 -84 19 30 175 -130 308 -316 51 -71 92 -136
92 -146 0 -9 -7 -53 -16 -96 -10 -49 -19 -171 -24 -328 -4 -137 -12 -264 -18
-281 -31 -98 -97 -159 -192 -179 -83 -18 -148 -72 -216 -180 -20 -33 -59 -88
-86 -122 -61 -78 -77 -117 -94 -226 -12 -78 -17 -93 -49 -128 -34 -37 -44 -59
-27 -59 4 0 12 -10 17 -22 7 -16 20 -24 44 -26 31 -3 41 4 106 70 54 55 82 94
110 153 85 182 90 191 93 169 3 -21 -57 -213 -81 -261 -9 -15 -32 -44 -52 -63
-82 -78 -108 -157 -64 -201 39 -39 128 -11 208 65 35 33 40 35 22 11 -18 -26
-19 -35 -11 -67 20 -72 79 -94 162 -61 35 14 42 15 47 2 8 -26 59 -69 82 -69
104 0 303 243 365 445 13 43 18 99 20 200 l3 140 152 360 c178 424 195 470
210 584 28 207 -8 335 -167 601 -34 58 -83 156 -109 218 -42 100 -46 116 -35
137 19 35 1 75 -104 233 -82 124 -132 206 -199 332 -36 68 -86 196 -112 290
-49 172 -116 303 -223 433 -80 98 -135 136 -437 302 -148 81 -276 152 -283
158 -10 8 -9 14 7 31 11 12 27 41 35 64 20 57 49 266 41 300 -4 22 -1 29 17
37 13 6 34 33 48 60 24 49 25 56 25 265 0 180 3 221 17 250 9 19 17 29 17 21
2 -29 31 11 31 43 0 164 -161 417 -326 511 -27 16 -62 39 -77 52 -48 39 -179
75 -312 84 -66 5 -136 11 -155 13 -19 3 -44 2 -55 -1z m631 -1800 c-13 -27
-38 -91 -55 -143 -38 -110 -68 -167 -124 -228 -52 -56 -85 -73 -166 -83 -123
-15 -264 31 -383 125 -31 25 -62 56 -69 68 -8 16 3 10 32 -18 168 -158 390
-206 524 -114 59 41 108 115 150 230 31 81 98 210 111 210 2 0 -6 -21 -20 -47z
m-2431 -2108 c104 -264 295 -545 559 -822 32 -35 56 -63 52 -63 -11 0 -133
125 -245 250 -168 189 -314 436 -382 644 -32 97 -24 93 16 -9z m3473 -301 c-7
-15 -14 -21 -16 -15 -5 16 5 41 17 41 7 0 6 -10 -1 -26z m-3694 -637 c47 -35
309 -197 411 -254 96 -53 380 -202 558 -292 59 -30 106 -56 104 -58 -10 -9
-288 119 -464 215 -192 104 -222 121 -293 166 -79 49 -306 201 -339 227 -34
27 -14 23 23 -4z m-301 -542 c183 -25 348 -66 502 -127 94 -37 159 -71 420
-218 208 -117 440 -228 600 -286 50 -18 82 -33 72 -34 -34 0 -273 92 -412 161
-77 37 -212 109 -300 160 -354 203 -582 285 -914 328 -285 37 -301 41 -181 35
58 -3 154 -12 213 -19z m-2227 -108 c-9 -48 -72 -201 -84 -205 -23 -7 -24 65
-3 113 19 44 76 125 88 125 3 0 2 -15 -1 -33z m5994 -296 c-23 -43 -51 -87
-62 -97 -21 -19 -21 -19 -8 6 7 14 23 39 35 55 12 17 32 49 44 73 12 23 24 42
27 42 3 0 -13 -36 -36 -79z m-3062 -86 c168 -60 294 -167 410 -345 35 -53 211
-399 232 -456 23 -60 -11 -4 -96 156 -155 295 -211 378 -322 479 -99 91 -195
145 -313 177 -87 23 -90 24 -37 19 31 -3 88 -16 126 -30z m57 -919 c-115 -28
-236 -105 -360 -230 -49 -50 -78 -75 -65 -56 47 67 169 185 226 220 67 41 176
80 219 79 23 -1 19 -3 -20 -13z m-435 -831 c124 -139 183 -220 204 -283 18
-52 21 -119 6 -157 -6 -15 -75 -93 -154 -175 -161 -166 -237 -272 -328 -455
-95 -192 -140 -327 -177 -542 -24 -132 -27 -76 -6 77 34 234 118 455 248 650
66 99 118 161 259 306 125 131 147 169 133 243 -11 61 -71 161 -155 261 -101
120 -162 197 -185 235 -16 28 -15 28 16 -6 19 -20 81 -89 139 -154z m-2387
-2795 c2 -43 1 -66 -4 -55 -4 11 -8 49 -8 85 1 82 6 68 12 -30z m2212 -530
c-11 -5 -27 -9 -35 -9 -9 0 -8 4 5 9 11 5 27 9 35 9 9 0 8 -4 -5 -9z"/>
<path d="M7095 3615 c-112 -25 -237 -77 -324 -136 -297 -198 -458 -530 -438
-902 14 -252 102 -458 270 -630 339 -346 883 -383 1275 -87 43 32 96 78 118
102 106 115 198 281 234 423 26 101 36 284 22 392 -25 184 -112 380 -235 526
-108 130 -318 256 -501 302 -82 21 -121 25 -230 24 -72 -1 -158 -7 -191 -14z"/>
<path d="M4829 1591 c-51 -10 -249 -86 -276 -107 -15 -11 64 -14 487 -15 1236
-3 1847 4 1866 23 5 6 -414 36 -801 58 -645 36 -1201 54 -1276 41z"/>
</g>
</svg>
