<?xml version="1.0" standalone="no"?>
<!DOCTYPE svg PUBLIC "-//W3C//DTD SVG 20010904//EN"
 "http://www.w3.org/TR/2001/REC-SVG-20010904/DTD/svg10.dtd">
<svg version="1.0" xmlns="http://www.w3.org/2000/svg"
 width="1024.000000pt" height="1536.000000pt" viewBox="0 0 1024.000000 1536.000000"
 preserveAspectRatio="xMidYMid meet">
<metadata>
Created by potrace 1.16, written by Peter Selinger 2001-2019
</metadata>
<g transform="translate(0.000000,1536.000000) scale(0.100000,-0.100000)"
fill="#000000" stroke="none">
<path d="M4400 13560 c-94 -13 -241 -52 -345 -92 -197 -74 -364 -187 -590
-397 -132 -124 -155 -142 -258 -202 -57 -33 -127 -99 -127 -119 0 -6 10 -8 23
-6 56 12 97 16 97 11 0 -3 -13 -31 -29 -63 -79 -157 -112 -367 -77 -500 20
-79 42 -114 70 -110 20 3 38 50 72 183 l8 30 3 -30 c19 -155 180 -586 269
-721 40 -59 53 -107 54 -192 0 -87 38 -251 75 -327 98 -200 402 -451 590 -486
147 -27 275 3 417 98 91 61 98 65 98 59 0 -2 -35 -32 -77 -67 -138 -110 -250
-149 -430 -149 -100 0 -132 -10 -169 -52 -46 -51 -129 -227 -255 -540 -76
-189 -195 -439 -254 -534 -72 -115 -98 -180 -92 -225 7 -51 32 -89 68 -102 16
-6 29 -17 29 -24 0 -20 -58 -131 -103 -198 -23 -33 -129 -152 -238 -265 -203
-212 -346 -372 -511 -571 -153 -185 -196 -214 -408 -279 -159 -49 -233 -90
-315 -175 -78 -80 -179 -245 -201 -329 -17 -61 -18 -154 -3 -193 22 -59 79
-96 79 -52 0 64 100 279 161 349 l32 35 -27 -45 c-47 -78 -98 -183 -117 -239
-38 -109 -16 -266 38 -266 10 0 37 -17 58 -38 48 -45 78 -54 119 -37 32 13
123 43 188 62 132 38 184 94 173 186 -8 67 1 78 73 93 155 32 276 146 296 279
24 150 82 213 310 333 162 85 262 150 461 297 226 167 359 321 515 598 29 50
56 92 59 92 3 0 23 -5 43 -11 77 -21 149 35 209 161 51 109 52 118 13 233 -42
122 -104 359 -103 390 0 12 13 -25 29 -83 32 -120 68 -220 210 -590 56 -146
116 -305 134 -355 19 -49 55 -137 81 -194 l48 -104 -23 -69 c-20 -61 -22 -83
-18 -186 6 -114 5 -120 -29 -222 -54 -160 -73 -263 -60 -331 l10 -56 -61 -109
c-209 -380 -469 -881 -530 -1025 -63 -145 -132 -343 -132 -375 0 -14 12 -37
26 -51 31 -31 34 -8 -46 -318 -51 -198 -62 -259 -67 -350 l-5 -110 76 -151
c55 -111 83 -183 105 -265 43 -162 113 -387 261 -834 145 -439 184 -570 201
-671 12 -69 12 -70 -21 -137 -36 -74 -85 -128 -278 -304 -144 -133 -210 -171
-392 -233 -157 -54 -180 -65 -239 -116 -55 -48 -80 -102 -81 -176 0 -62 12
-102 39 -133 10 -11 21 -33 25 -49 4 -16 20 -41 36 -57 28 -28 31 -29 139 -29
l111 0 27 -31 c31 -35 79 -59 116 -59 13 0 41 13 62 30 30 24 48 30 85 30 40
0 55 -6 90 -35 59 -49 95 -45 185 19 25 18 59 19 823 22 1129 5 2170 32 2473
64 52 5 105 10 119 10 23 1 24 1 6 12 -13 7 -205 13 -585 19 -311 4 -836 13
-1166 19 -330 6 -679 8 -775 5 l-175 -7 35 34 35 33 28 -22 c35 -28 88 -30
137 -5 46 23 75 85 96 203 29 166 2 343 -76 507 -24 51 -40 98 -40 121 0 49
-46 140 -76 152 -33 12 -43 42 -64 204 -35 264 -51 490 -60 820 -9 351 -17
417 -67 565 -35 102 -114 269 -170 358 -29 47 -45 84 -45 105 0 58 77 228 114
251 13 8 22 6 37 -8 30 -27 101 -33 128 -10 13 11 54 73 91 139 130 228 254
438 299 506 24 38 60 103 80 144 32 68 36 86 41 183 8 188 -25 304 -110 376
-23 20 -93 71 -155 113 -108 72 -150 106 -80 65 17 -10 61 -36 97 -57 76 -45
158 -104 182 -132 31 -34 66 -129 77 -204 7 -51 7 -157 0 -344 -6 -148 -9
-353 -6 -455 5 -200 18 -265 61 -317 33 -39 43 -83 62 -262 37 -360 128 -509
367 -601 88 -34 252 -72 463 -106 500 -80 971 -191 1035 -243 24 -19 24 -19 8
-79 -12 -45 -14 -72 -8 -104 10 -46 24 -335 20 -433 -1 -33 -24 -150 -51 -261
-78 -313 -85 -412 -33 -491 50 -77 126 -108 252 -101 68 4 98 11 141 33 30 15
58 32 62 38 4 7 15 7 35 -1 57 -22 142 -7 168 31 10 14 15 45 15 90 0 66 1 69
21 64 32 -9 98 21 105 47 3 12 6 55 7 96 3 75 3 75 65 159 66 90 72 112 43
150 -17 22 -17 27 -4 60 8 19 24 80 34 135 44 227 103 387 156 421 37 25 55
78 52 154 -5 130 0 206 13 193 18 -18 35 -14 42 11 11 44 -48 145 -137 232
-113 109 -226 166 -394 195 -76 13 -231 14 -298 1 -35 -7 -60 -6 -85 3 -19 7
-129 83 -243 170 -314 238 -438 304 -648 341 -90 16 -139 35 -139 54 0 5 26
24 57 41 78 44 158 106 179 138 11 17 19 52 21 102 25 491 36 592 129 1210 8
52 17 181 20 285 6 154 3 211 -10 298 -18 112 -17 137 7 137 7 0 24 12 38 26
35 37 30 104 -24 319 -25 99 -62 255 -82 347 -44 203 -70 283 -135 413 -45 90
-53 116 -80 270 -35 195 -83 375 -147 555 -38 109 -67 250 -50 250 3 0 34 -16
69 -36 34 -20 129 -69 209 -109 199 -99 255 -105 344 -39 48 36 78 44 122 32
76 -20 105 -66 316 -489 184 -369 201 -407 267 -610 38 -118 70 -230 70 -248
0 -36 -30 -99 -85 -181 -46 -69 -102 -187 -121 -260 -12 -45 -14 -95 -8 -272
l6 -216 30 -29 c26 -25 31 -26 41 -12 9 12 16 14 29 5 14 -8 24 -4 53 24 45
44 64 105 72 234 5 76 8 94 15 75 19 -49 21 -221 4 -314 -9 -49 -16 -112 -16
-140 0 -27 -4 -67 -9 -88 -5 -20 -6 -39 -2 -42 13 -8 103 24 165 59 34 19 78
37 98 41 20 4 55 22 76 41 22 19 45 34 50 34 6 0 14 9 17 20 4 11 19 27 35 35
42 21 81 78 108 154 l23 66 -6 -58 c-7 -58 -6 -58 15 -47 29 15 77 94 96 155
22 74 29 194 15 277 -15 93 -44 185 -115 371 -74 191 -78 205 -125 442 -43
213 -110 469 -187 712 -170 540 -326 776 -590 893 -160 72 -156 69 -150 114 9
62 -15 93 -125 155 -52 30 -119 73 -149 96 -55 43 -401 269 -517 339 -114 68
-348 174 -484 219 -181 61 -347 100 -591 142 -322 54 -316 53 -340 100 -11 22
-29 52 -39 67 -11 14 -19 41 -19 59 0 29 12 45 84 114 100 95 153 172 217 314
85 191 123 341 135 526 12 199 -23 388 -101 550 -68 142 -138 226 -265 318
-20 14 -21 17 -5 12 11 -4 53 -9 94 -12 61 -5 73 -4 69 8 -9 28 -104 88 -173
111 -70 22 -72 24 -88 68 -9 25 -37 69 -63 98 -48 55 -164 141 -164 122 0 -6
10 -30 21 -52 12 -23 29 -65 39 -94 l18 -52 -63 48 c-94 71 -213 123 -355 156
-78 18 -415 27 -510 14z m348 -3257 c24 -46 68 -84 125 -108 90 -37 276 0 445
90 83 44 55 11 -37 -43 -107 -63 -159 -77 -291 -77 -128 0 -173 15 -223 74
-29 34 -67 130 -66 164 0 14 5 8 13 -18 7 -22 22 -59 34 -82z m1502 -2194
c-66 -60 -218 -181 -270 -216 -56 -38 -243 -132 -330 -166 -87 -34 -247 -80
-263 -74 -6 2 13 10 43 17 30 7 102 31 160 52 232 86 412 190 600 347 101 85
135 107 60 40z m-3903 -891 c-155 -195 -213 -271 -239 -316 -16 -29 -32 -51
-35 -48 -10 10 19 76 54 123 115 153 232 288 241 278 3 -2 -7 -19 -21 -37z
m2820 -113 c185 -46 392 -74 673 -90 186 -11 610 24 808 66 124 27 140 19 21
-10 -259 -62 -630 -91 -924 -72 -254 16 -501 60 -650 115 -59 21 -38 19 72 -9z
m-168 -5269 c-10 -8 -169 -14 -169 -7 0 5 27 11 61 13 45 3 64 9 71 22 9 16
11 16 25 -4 8 -12 13 -23 12 -24z"/>
<path d="M2250 3974 c-121 -21 -153 -28 -205 -46 -257 -88 -488 -305 -596
-560 -124 -291 -115 -668 22 -941 191 -377 604 -603 1022 -558 303 33 559 175
730 404 128 173 184 331 202 578 32 434 -240 878 -644 1049 -125 53 -211 71
-366 75 -77 2 -151 2 -165 -1z"/>
</g>
</svg>
