<?xml version="1.0" standalone="no"?>
<!DOCTYPE svg PUBLIC "-//W3C//DTD SVG 20010904//EN"
 "http://www.w3.org/TR/2001/REC-SVG-20010904/DTD/svg10.dtd">
<svg version="1.0" xmlns="http://www.w3.org/2000/svg"
 width="1024.000000pt" height="1536.000000pt" viewBox="0 0 1024.000000 1536.000000"
 preserveAspectRatio="xMidYMid meet">
<metadata>
Created by potrace 1.16, written by Peter Selinger 2001-2019
</metadata>
<g transform="translate(0.000000,1536.000000) scale(0.100000,-0.100000)"
fill="#000000" stroke="none">
<path d="M5910 13589 c-321 -21 -650 -149 -894 -348 -144 -118 -284 -288 -343
-418 -23 -49 -27 -53 -42 -40 -24 22 -117 67 -196 95 -105 37 -295 43 -397 12
-150 -45 -233 -100 -421 -278 -127 -119 -194 -164 -282 -187 -158 -41 -298 -2
-458 127 -60 48 -62 49 -65 25 -4 -35 33 -174 68 -253 76 -168 226 -318 403
-399 39 -19 47 -26 33 -31 -27 -11 -205 3 -266 20 -111 31 -110 32 -40 -35
245 -233 530 -289 815 -160 159 73 280 185 443 412 71 99 127 154 186 179 88
38 82 45 77 -86 -3 -118 9 -248 35 -384 73 -370 310 -698 639 -885 44 -25 101
-53 128 -63 26 -9 47 -21 47 -25 0 -24 -75 -230 -78 -214 -8 38 -101 16 -172
-41 -49 -39 -53 -40 -148 -46 -177 -11 -316 -27 -410 -47 -259 -56 -897 -244
-982 -290 -67 -36 -81 -56 -87 -130 l-6 -58 -41 -7 c-96 -16 -258 -68 -351
-114 -140 -67 -227 -148 -288 -267 -96 -189 -163 -457 -242 -978 -51 -331 -64
-384 -134 -522 -133 -267 -156 -466 -70 -597 29 -43 110 -96 149 -96 8 0 21
-13 28 -30 24 -54 67 -75 154 -76 55 0 82 -5 95 -16 36 -31 69 -42 128 -41
102 1 176 54 208 149 8 23 26 47 44 59 124 81 140 332 33 520 -16 28 -59 85
-95 128 -58 68 -65 81 -65 119 0 63 71 263 217 613 71 171 136 330 144 354
l14 45 73 12 c40 7 92 22 115 33 26 13 43 17 46 10 8 -25 70 -94 109 -122 60
-44 130 -47 292 -13 69 15 215 44 325 66 110 22 209 42 219 44 11 3 15 1 10
-4 -5 -4 -99 -30 -209 -55 -110 -26 -201 -48 -202 -49 -2 -1 -16 -72 -33 -157
-17 -85 -44 -206 -60 -269 -16 -63 -40 -171 -54 -239 -17 -86 -33 -135 -50
-160 -35 -51 -56 -105 -56 -146 0 -29 -14 -52 -83 -138 -97 -119 -170 -223
-255 -362 -89 -146 -116 -209 -109 -256 6 -46 18 -63 68 -95 l37 -23 -29 -76
c-104 -268 -89 -516 46 -743 99 -167 223 -286 519 -503 72 -52 160 -116 197
-144 553 -410 1038 -754 1077 -764 46 -13 97 9 181 75 l82 65 42 -33 c23 -18
65 -51 94 -74 l51 -41 -70 -59 c-155 -131 -286 -302 -488 -639 -151 -249 -276
-441 -393 -598 -68 -92 -83 -107 -101 -102 -108 35 -165 -1 -369 -238 -32 -37
-96 -99 -142 -137 -102 -85 -135 -142 -135 -235 0 -74 28 -135 95 -212 50 -57
193 -175 295 -243 36 -24 106 -87 155 -139 209 -222 311 -318 411 -384 173
-115 324 -169 474 -171 108 -1 169 16 224 66 55 47 70 90 64 177 -7 94 -42
156 -157 275 -53 56 -111 121 -127 146 -93 135 -162 330 -150 424 19 148 19
159 -6 196 -13 19 -40 43 -61 53 l-37 19 62 71 c132 152 307 336 708 742 404
410 612 632 697 745 112 148 140 320 78 472 -42 104 -130 214 -340 424 l-201
201 19 36 c10 20 16 44 13 54 -11 33 -430 387 -765 646 -34 26 -61 51 -59 55
2 5 19 49 38 99 27 74 39 93 58 98 14 3 29 19 37 39 29 69 115 437 150 641 4
21 26 71 49 110 119 196 185 337 306 660 133 356 209 620 250 869 11 72 23
132 25 135 8 7 6 -5 -14 -155 -23 -160 -72 -383 -131 -593 l-40 -145 28 -60
c37 -79 80 -106 142 -89 l41 10 26 -46 c98 -170 303 -429 405 -511 134 -108
240 -119 392 -43 225 113 444 301 629 538 75 96 168 235 194 289 14 30 21 34
67 40 28 3 83 22 123 41 176 87 284 256 269 420 -21 234 -28 262 -91 354 -20
29 -44 74 -53 100 -59 176 -235 269 -413 218 -106 -31 -195 -137 -214 -254 -5
-31 -12 -43 -24 -43 -30 0 -90 -50 -113 -93 -18 -34 -22 -58 -22 -132 1 -107
20 -163 88 -259 25 -36 46 -68 46 -71 0 -17 -132 -105 -377 -251 -95 -56 -175
-99 -177 -96 -2 4 -19 34 -36 67 -18 33 -41 74 -52 92 -19 32 -19 32 2 43 31
16 80 99 80 133 0 19 -43 109 -119 246 -104 190 -250 460 -388 718 -78 147
-193 272 -332 362 -58 37 -128 68 -136 59 -2 -1 -10 -46 -19 -98 -17 -99 -35
-165 -42 -157 -10 9 27 257 47 321 11 37 32 86 46 110 l26 43 164 -54 c239
-78 367 -86 491 -33 65 28 143 111 168 177 10 28 35 65 60 89 52 50 63 84 40
130 l-16 35 46 19 c25 11 49 20 53 20 5 0 27 13 49 30 53 38 82 95 82 158 0
47 3 51 65 114 90 90 87 131 -15 217 -94 79 -113 181 -65 342 95 315 117 463
96 638 -7 58 -21 131 -31 161 -10 30 -17 56 -16 58 2 1 32 -28 68 -66 58 -62
125 -175 163 -277 13 -32 35 74 41 195 7 131 -11 224 -65 335 -98 202 -291
352 -501 391 -67 13 -93 23 -125 49 -151 123 -438 248 -695 304 -86 18 -135
24 -315 35 -27 1 -102 -1 -165 -5z m-1795 -6414 c99 -36 395 -111 587 -150
163 -32 331 -54 507 -65 79 -5 146 -12 150 -16 9 -10 -319 5 -457 21 -266 31
-594 110 -781 187 -68 29 -165 81 -116 63 11 -4 61 -22 110 -40z"/>
<path d="M3566 6517 c-90 -154 -218 -378 -317 -555 -90 -161 -119 -222 -119
-249 0 -37 20 -75 82 -158 21 -27 38 -54 38 -59 0 -5 -10 -23 -23 -40 -13 -17
-70 -109 -128 -205 l-104 -173 -140 -128 c-352 -321 -479 -481 -706 -891 -124
-225 -222 -393 -306 -521 -60 -94 -64 -97 -88 -88 -71 27 -135 5 -258 -89 -56
-43 -142 -100 -191 -127 -214 -119 -249 -252 -128 -489 16 -33 83 -143 147
-245 64 -102 148 -250 187 -329 86 -179 127 -240 217 -323 165 -153 444 -237
604 -182 57 19 113 79 123 130 15 81 -36 200 -130 305 -30 33 -52 72 -68 117
-21 60 -23 84 -22 237 0 147 4 186 27 288 38 166 36 188 -19 248 l-25 26 52
79 c101 154 217 289 513 599 106 110 282 294 391 409 110 115 259 260 330 321
153 132 189 170 355 375 69 85 132 163 141 173 15 19 16 19 57 -2 48 -25 92
-27 131 -7 69 36 329 334 475 543 l56 81 -47 35 c-27 19 -106 73 -178 120
-253 167 -599 431 -710 542 -54 53 -98 111 -134 173 -30 50 -57 92 -60 92 -3
0 -15 -15 -25 -33z"/>
</g>
</svg>
