<?xml version="1.0" standalone="no"?>
<!DOCTYPE svg PUBLIC "-//W3C//DTD SVG 20010904//EN"
 "http://www.w3.org/TR/2001/REC-SVG-20010904/DTD/svg10.dtd">
<svg version="1.0" xmlns="http://www.w3.org/2000/svg"
 width="1024.000000pt" height="1536.000000pt" viewBox="0 0 1024.000000 1536.000000"
 preserveAspectRatio="xMidYMid meet">
<metadata>
Created by potrace 1.16, written by Peter Selinger 2001-2019
</metadata>
<g transform="translate(0.000000,1536.000000) scale(0.100000,-0.100000)"
fill="#000000" stroke="none">
<path d="M5174 14801 c-253 -62 -473 -264 -548 -501 -36 -114 -50 -227 -43
-359 5 -99 13 -137 50 -256 79 -252 140 -368 257 -486 90 -92 151 -129 255
-159 l60 -17 13 -64 c10 -45 14 -162 15 -394 1 -312 0 -339 -25 -495 -15 -91
-32 -201 -38 -245 -6 -44 -22 -103 -35 -131 -25 -57 -144 -189 -212 -236 l-43
-29 -9 24 c-16 42 -30 100 -45 185 -8 48 -23 94 -36 112 -14 20 -17 28 -7 24
8 -3 18 0 22 6 15 24 -9 75 -60 126 -29 28 -65 74 -81 100 -85 151 -133 227
-189 299 -53 69 -62 85 -58 112 4 26 -1 38 -24 62 -43 42 -89 53 -264 58 -136
5 -166 3 -240 -16 -318 -80 -535 -311 -583 -618 l-11 -75 -89 -29 c-275 -90
-386 -238 -386 -513 0 -140 32 -233 145 -426 73 -125 95 -186 95 -263 0 -75
-23 -129 -79 -190 -23 -24 -41 -47 -41 -50 0 -14 87 -37 141 -37 67 0 89 9
137 53 50 48 38 18 -18 -45 -27 -31 -50 -61 -50 -67 0 -18 55 -13 117 10 80
30 178 130 226 231 58 121 70 180 65 315 -6 141 -19 180 -114 331 -93 147
-108 188 -108 297 -1 134 8 145 47 55 87 -200 229 -338 423 -411 75 -29 83
-35 88 -63 5 -28 -16 -161 -27 -172 -3 -3 -24 -15 -48 -27 -66 -33 -80 -66
-91 -215 -16 -222 -21 -633 -9 -774 16 -172 27 -230 122 -626 96 -403 113
-501 106 -642 -4 -89 -11 -124 -47 -228 -46 -137 -60 -241 -38 -282 7 -13 27
-34 45 -46 l31 -21 -68 -149 c-167 -371 -210 -520 -210 -744 0 -189 26 -301
140 -595 91 -236 132 -496 155 -990 9 -176 16 -199 63 -218 20 -8 80 -18 133
-22 l95 -7 18 -72 c10 -39 46 -154 79 -256 68 -211 86 -301 76 -376 -11 -84
-36 -124 -231 -366 -77 -94 -182 -256 -233 -358 -50 -99 -80 -213 -110 -417
-34 -223 -61 -329 -179 -687 -106 -320 -105 -318 -248 -454 -81 -77 -165 -197
-203 -291 -13 -31 -35 -81 -49 -111 -14 -30 -26 -72 -26 -93 0 -33 7 -46 52
-91 65 -64 160 -117 343 -191 152 -62 216 -101 315 -192 93 -86 136 -105 325
-148 86 -20 131 -38 248 -99 176 -92 232 -111 427 -141 86 -13 216 -40 290
-61 362 -98 532 -121 697 -94 193 30 347 140 329 234 -10 52 -60 122 -108 149
-24 14 -79 35 -123 47 -173 48 -252 94 -412 244 -89 82 -117 131 -143 240 -11
48 -27 97 -35 110 -18 27 -56 46 -92 46 -23 0 -25 3 -20 33 2 17 43 151 90
297 47 146 122 382 167 525 44 143 133 420 196 615 63 195 133 411 155 480 22
69 85 220 139 335 54 116 106 242 115 280 23 94 17 166 -39 445 -25 124 -62
316 -82 428 l-36 202 23 19 23 18 -33 109 c-79 264 -212 672 -308 949 -57 165
-118 345 -135 400 l-32 100 -1 280 c-1 238 -5 302 -25 428 l-23 148 46 46 c68
68 72 86 71 333 -1 169 -7 259 -27 420 -49 383 -60 553 -51 780 15 349 4 479
-51 597 -27 59 -106 172 -149 212 -28 26 -91 120 -85 125 2 1 69 38 149 81
327 176 645 386 914 604 217 175 266 231 266 309 0 150 -229 767 -455 1227
-133 271 -230 428 -331 535 l-65 69 43 22 c207 105 377 321 425 539 21 99 21
290 -1 390 -61 279 -314 520 -607 580 -116 24 -250 25 -345 1z m-193 -1495
c39 -14 83 -26 100 -26 16 0 29 -5 29 -10 0 -15 -75 -1 -145 27 -62 24 -161
98 -192 142 -9 14 18 -5 60 -41 56 -48 97 -73 148 -92z m669 -596 c81 -246
162 -608 195 -875 13 -108 38 -217 61 -271 6 -15 -88 -74 -279 -175 -83 -45
-201 -110 -261 -146 -197 -117 -336 -163 -536 -177 -97 -7 -82 -2 65 23 161
27 268 61 400 130 344 180 428 303 426 622 -1 238 -77 826 -127 993 -4 14 -3
18 4 11 6 -5 29 -66 52 -135z m-880 -1489 c-21 -12 -120 -34 -126 -28 -5 5 99
34 126 36 13 0 13 -1 0 -8z m-27 -168 c-7 -2 -19 -2 -25 0 -7 3 -2 5 12 5 14
0 19 -2 13 -5z m-223 -45 c-179 -78 -351 -176 -389 -222 -7 -9 -18 -16 -24
-16 -20 0 38 51 119 107 71 48 279 144 309 142 6 0 -1 -5 -15 -11z m530 -610
c-143 -87 -202 -127 -250 -166 l-55 -46 40 43 c52 55 112 99 205 150 79 43
120 56 60 19z m-94 -352 c-12 -117 -51 -202 -129 -277 -121 -118 -344 -154
-501 -81 -117 55 -216 173 -266 316 -24 71 -20 87 5 19 26 -71 99 -185 151
-237 163 -160 458 -150 615 22 68 74 119 191 119 275 0 15 3 27 6 27 4 0 4
-29 0 -64z m-616 -2120 c73 -19 302 -46 387 -46 77 0 244 23 287 40 16 6 31 8
33 6 9 -9 -68 -36 -150 -52 -136 -28 -419 -5 -577 46 -67 22 -55 25 20 6z
m-121 -1786 c84 -164 191 -456 301 -825 28 -93 55 -174 61 -180 22 -22 408
-14 486 11 15 4 15 4 3 -4 -36 -24 -143 -36 -312 -36 -145 -1 -180 2 -191 14
-7 8 -39 98 -71 200 -143 456 -205 628 -302 830 -70 148 -53 141 25 -10z m791
-1275 c108 -194 146 -276 166 -353 20 -80 12 -93 -11 -17 -19 66 -85 212 -113
253 -42 58 -157 302 -128 271 2 -2 41 -71 86 -154z m27 -777 c-196 -528 -204
-559 -217 -878 -13 -321 -28 -517 -51 -695 -10 -82 -30 -238 -44 -345 -41
-319 -35 -292 -75 -303 -52 -13 -68 -33 -92 -110 -11 -38 -33 -84 -48 -100
l-27 -31 -49 41 c-92 77 -211 208 -238 261 -18 36 -30 82 -37 140 -13 103 -25
139 -50 147 -23 8 -19 33 28 175 39 117 133 318 257 550 263 490 390 724 480
885 56 99 117 210 136 247 38 74 52 82 27 16z"/>
</g>
</svg>
