<?xml version="1.0" standalone="no"?>
<!DOCTYPE svg PUBLIC "-//W3C//DTD SVG 20010904//EN"
 "http://www.w3.org/TR/2001/REC-SVG-20010904/DTD/svg10.dtd">
<svg version="1.0" xmlns="http://www.w3.org/2000/svg"
 width="1024.000000pt" height="1536.000000pt" viewBox="0 0 1024.000000 1536.000000"
 preserveAspectRatio="xMidYMid meet">
<metadata>
Created by potrace 1.16, written by Peter Selinger 2001-2019
</metadata>
<g transform="translate(0.000000,1536.000000) scale(0.100000,-0.100000)"
fill="#000000" stroke="none">
<path d="M4040 14685 c-150 -34 -260 -93 -368 -198 -141 -137 -217 -292 -243
-492 -21 -171 1 -317 68 -455 45 -92 164 -215 301 -310 51 -36 90 -69 88 -75
-61 -136 -87 -204 -101 -270 -26 -122 -40 -163 -140 -390 -106 -239 -133 -312
-209 -567 -166 -553 -172 -654 -50 -825 74 -104 585 -608 746 -736 104 -82
142 -125 207 -228 66 -106 66 -105 32 -275 -55 -277 -62 -486 -25 -768 8 -61
14 -133 14 -162 0 -62 -28 -211 -77 -414 -64 -267 -57 -329 45 -420 31 -27 60
-50 64 -50 4 0 8 -28 8 -62 0 -70 -29 -197 -88 -393 -89 -291 -101 -355 -112
-605 -5 -107 -16 -229 -24 -270 -31 -157 -116 -903 -116 -1017 0 -47 4 -59 29
-84 16 -16 43 -32 59 -35 l30 -6 6 -112 c4 -61 11 -268 15 -461 12 -470 16
-483 218 -720 111 -130 188 -230 588 -760 156 -207 231 -320 306 -464 39 -76
44 -91 40 -140 -9 -143 -5 -185 23 -251 25 -57 27 -69 16 -98 -14 -39 -7 -75
29 -151 25 -54 26 -62 26 -231 l0 -175 -42 -125 c-68 -203 -77 -322 -29 -393
58 -86 205 -89 361 -9 84 44 222 177 274 266 60 100 72 153 81 341 4 93 12
181 18 195 5 14 31 60 56 103 106 179 136 258 136 361 0 77 -29 138 -84 178
-22 16 -93 56 -158 89 -101 52 -121 67 -157 114 -23 30 -56 62 -74 71 -17 9
-42 26 -54 37 -40 36 -163 371 -254 687 -56 197 -76 251 -132 365 -61 124
-138 234 -242 343 -84 89 -96 105 -106 153 -19 90 12 439 54 603 11 46 15 49
65 68 29 11 60 30 68 43 12 18 89 360 95 420 2 24 19 -72 39 -229 12 -93 26
-180 31 -192 10 -29 44 -51 91 -59 42 -8 27 40 114 -365 85 -399 110 -470 258
-748 26 -49 57 -130 76 -200 56 -206 90 -303 167 -477 157 -353 194 -468 247
-760 45 -247 65 -460 48 -518 -47 -161 -50 -232 -18 -412 20 -111 2 -198 -74
-377 -69 -159 -88 -226 -99 -347 -14 -158 13 -267 81 -326 98 -83 254 -87 399
-9 88 47 199 165 248 264 63 127 72 171 81 390 7 182 10 200 38 275 16 44 33
103 37 131 15 114 -32 298 -122 479 -37 74 -53 118 -50 135 6 31 -15 73 -63
126 l-38 41 -6 284 c-3 156 -5 419 -4 584 2 208 -1 323 -10 375 -28 168 -96
318 -258 578 -76 121 -101 175 -109 240 -6 43 7 403 21 617 l7 90 75 29 c89
35 147 85 157 136 7 36 -2 93 -74 480 -55 296 -60 345 -65 590 -3 118 -12 260
-20 315 -29 193 -100 423 -240 774 -78 197 -82 211 -66 226 9 8 30 38 45 66
49 91 29 174 -89 362 l-56 88 18 32 c14 27 17 61 17 227 1 230 1 231 121 435
123 211 151 280 223 555 55 214 63 267 62 410 -1 256 -56 404 -233 630 -40 51
-81 104 -92 117 -18 24 -18 24 26 71 59 63 76 91 103 163 l22 61 12 -73 c17
-104 144 -483 198 -590 143 -287 387 -478 611 -479 79 0 241 32 187 37 -142
14 -266 56 -371 124 -61 39 -115 89 -84 76 8 -3 43 -17 76 -31 87 -36 191 -56
296 -56 169 0 286 48 409 170 42 41 82 85 88 98 12 22 11 22 -47 -7 -145 -73
-296 -60 -464 40 -68 40 -188 143 -188 161 0 5 21 -9 48 -31 53 -45 150 -92
232 -112 72 -17 201 -17 270 1 l55 15 -113 6 c-102 5 -118 9 -186 42 -125 62
-235 196 -351 427 -76 151 -169 266 -279 345 -78 55 -130 81 -241 121 -83 29
-90 34 -93 60 -15 174 -89 317 -224 431 -104 88 -206 134 -493 218 -69 21 -97
35 -121 60 -44 47 -301 573 -319 653 -4 22 3 68 24 150 76 294 67 466 -39 797
-26 83 -56 189 -66 238 -10 48 -21 87 -24 87 -11 0 -126 -211 -151 -275 -19
-50 -23 -82 -25 -190 -1 -71 -7 -146 -13 -165 -6 -19 -11 -55 -11 -80 0 -26
-16 -111 -36 -191 -22 -86 -38 -180 -41 -234 -6 -101 5 -144 77 -305 51 -111
98 -256 149 -457 56 -221 57 -232 26 -274 -92 -125 -110 -170 -121 -292 -3
-40 -1 -108 4 -151 9 -71 8 -84 -8 -117 -39 -76 -60 -179 -61 -294 0 -219 66
-345 229 -436 43 -24 47 -29 45 -60 -6 -71 -11 -82 -41 -75 -57 14 -272 126
-380 200 -164 112 -199 131 -329 177 -141 49 -151 55 -284 164 -57 47 -149
117 -205 156 -143 98 -136 88 -118 189 8 47 26 162 40 255 28 195 65 387 100
527 32 128 129 406 152 438 11 14 55 48 100 75 157 97 207 152 402 444 57 85
127 181 157 214 30 32 64 79 75 103 56 129 34 410 -50 627 -84 216 -270 385
-487 443 -86 22 -264 27 -345 9z"/>
</g>
</svg>
