<?xml version="1.0" standalone="no"?>
<!DOCTYPE svg PUBLIC "-//W3C//DTD SVG 20010904//EN"
 "http://www.w3.org/TR/2001/REC-SVG-20010904/DTD/svg10.dtd">
<svg version="1.0" xmlns="http://www.w3.org/2000/svg"
 width="1024.000000pt" height="1536.000000pt" viewBox="0 0 1024.000000 1536.000000"
 preserveAspectRatio="xMidYMid meet">
<metadata>
Created by potrace 1.16, written by Peter Selinger 2001-2019
</metadata>
<g transform="translate(0.000000,1536.000000) scale(0.100000,-0.100000)"
fill="#000000" stroke="none">
<path d="M4485 12543 c-147 -18 -310 -65 -427 -124 -88 -44 -198 -124 -298
-216 -47 -43 -128 -112 -180 -154 -52 -41 -108 -94 -123 -116 -65 -95 -87
-271 -48 -384 17 -51 58 -129 67 -129 2 0 1 24 -2 54 -8 65 9 145 43 204 13
23 25 42 26 42 2 0 3 -107 2 -237 0 -202 3 -246 18 -293 15 -47 17 -75 11
-190 -8 -157 4 -244 48 -366 37 -104 129 -246 218 -337 49 -50 66 -73 57 -79
-6 -5 -29 -18 -50 -29 -53 -28 -201 -171 -247 -239 -57 -84 -97 -169 -136
-289 -41 -129 -88 -210 -240 -416 -61 -82 -136 -190 -168 -238 -64 -97 -80
-111 -276 -232 -179 -111 -280 -197 -558 -479 -128 -130 -262 -256 -296 -281
-136 -97 -250 -132 -396 -120 -105 8 -305 32 -374 46 -268 53 -414 52 -432 -3
-13 -41 48 -78 214 -129 39 -12 72 -25 72 -28 0 -4 -65 -19 -145 -34 -164 -31
-240 -56 -281 -94 l-28 -26 25 -20 c22 -18 33 -19 159 -13 144 8 297 -1 282
-16 -4 -4 -69 -28 -143 -52 -158 -52 -210 -74 -267 -116 -51 -37 -53 -56 -7
-76 53 -22 112 -17 241 21 203 60 429 83 536 54 l40 -10 -47 -48 c-83 -85
-145 -200 -145 -269 0 -60 50 -89 103 -60 12 6 63 50 113 97 63 60 123 104
195 145 155 88 201 126 288 239 92 120 119 140 267 206 152 67 305 145 517
263 324 180 386 228 672 513 291 290 499 516 543 591 l39 64 18 -92 c36 -190
76 -285 174 -414 70 -94 257 -277 357 -352 50 -37 74 -61 77 -80 3 -15 -4 -74
-15 -132 -29 -151 -17 -225 49 -304 l24 -28 -39 -34 c-41 -35 -82 -125 -97
-211 -6 -38 -10 -43 -34 -43 -33 0 -55 -15 -156 -105 -44 -39 -141 -120 -215
-180 -467 -376 -657 -576 -932 -981 -95 -140 -194 -289 -220 -332 -89 -144
-112 -272 -82 -452 26 -154 30 -648 9 -1100 -9 -195 -20 -370 -23 -388 -6 -29
-14 -36 -67 -57 -70 -28 -119 -77 -134 -132 -6 -21 -15 -87 -20 -146 -11 -127
-19 -145 -144 -293 -140 -167 -203 -210 -427 -299 -141 -55 -250 -115 -296
-160 -46 -46 -70 -114 -60 -168 21 -114 178 -208 427 -256 275 -52 445 -34
679 74 141 65 189 75 417 85 111 5 219 12 240 16 78 14 141 60 163 118 16 42
13 196 -5 365 -20 182 -28 224 -55 286 -19 44 -20 60 -14 152 9 131 -4 181
-57 227 -49 41 -49 56 -9 231 42 179 72 274 145 460 101 255 110 292 110 480
0 98 -7 211 -18 293 -32 234 -8 285 185 382 67 34 145 78 171 97 l48 34 167
-60 c293 -104 327 -113 427 -114 167 -1 180 10 638 506 131 141 253 265 270
273 38 20 135 21 174 2 49 -23 116 -182 293 -685 56 -161 84 -205 145 -229 42
-16 56 -16 124 -6 42 7 88 15 103 18 25 6 28 1 68 -83 23 -48 63 -137 90 -198
116 -268 174 -344 327 -423 157 -81 198 -126 326 -357 83 -150 169 -258 295
-372 53 -48 148 -137 209 -199 132 -130 163 -183 163 -279 0 -79 19 -149 85
-315 71 -179 93 -256 107 -364 10 -85 9 -100 -15 -214 -61 -280 -17 -414 165
-505 254 -127 647 -9 764 229 25 52 29 70 29 149 0 88 -2 97 -113 423 -62 183
-134 379 -161 435 -27 56 -59 140 -71 187 -29 115 -50 159 -93 197 -36 31
-118 63 -162 63 -19 0 -26 12 -45 72 -86 272 -148 447 -205 572 -36 79 -65
147 -65 150 0 20 -76 155 -114 205 -63 80 -201 211 -348 331 -116 94 -130 109
-148 157 -27 72 -126 353 -133 378 -5 16 5 28 49 60 68 49 104 89 104 118 0
22 -40 154 -150 492 -32 99 -100 307 -150 463 -78 240 -101 296 -147 373 -60
100 -77 140 -87 211 -4 27 -32 95 -63 155 -49 96 -135 268 -181 362 -9 19 -47
67 -84 106 l-67 71 15 60 c20 75 22 207 5 259 -20 58 -58 109 -154 205 -47 47
-88 97 -91 110 -2 14 -17 81 -32 150 -15 69 -29 136 -32 149 -4 18 24 -1 125
-85 72 -60 191 -160 266 -222 134 -110 212 -193 285 -302 157 -236 327 -420
587 -633 178 -147 328 -291 368 -353 40 -64 56 -128 66 -260 9 -133 18 -157
88 -243 80 -98 115 -174 158 -345 28 -109 85 -158 146 -126 58 32 63 145 14
356 -15 67 -25 129 -21 139 5 15 14 17 54 12 139 -17 408 -174 601 -352 115
-106 186 -136 239 -99 51 35 21 98 -94 200 -138 123 -169 152 -164 158 3 2 28
-6 55 -20 151 -73 229 -99 298 -99 56 0 71 3 83 19 35 48 -2 86 -154 159 -137
65 -139 72 -32 83 36 3 68 8 73 11 9 6 -35 41 -103 82 -30 19 -194 102 -365
185 -508 249 -508 249 -713 554 -77 114 -190 281 -252 372 -62 91 -155 230
-208 310 -139 212 -160 237 -373 439 -251 238 -614 614 -690 715 -33 44 -89
136 -124 205 -95 190 -174 283 -319 376 -78 50 -165 85 -391 156 -323 103
-568 157 -660 147 -24 -3 -29 2 -46 47 -10 28 -19 56 -19 62 0 7 36 47 80 89
190 182 296 380 345 643 31 170 11 411 -44 536 -12 27 -20 49 -18 51 8 9 102
-22 172 -56 141 -69 222 -138 473 -407 152 -162 232 -221 360 -266 235 -81
519 -22 698 145 63 59 110 115 103 123 -3 2 -31 -3 -64 -11 -64 -15 -204 -17
-245 -4 l-25 8 29 1 c51 2 150 32 225 69 93 45 202 150 249 240 18 34 31 62
28 62 -3 0 -20 -9 -38 -19 -63 -37 -145 -54 -237 -49 -165 9 -282 75 -439 247
-245 267 -351 354 -508 410 -302 110 -542 66 -826 -149 l-107 -81 -90 73
c-115 94 -218 153 -339 194 -156 53 -316 73 -447 57z"/>
</g>
</svg>
