<?xml version="1.0" standalone="no"?>
<!DOCTYPE svg PUBLIC "-//W3C//DTD SVG 20010904//EN"
 "http://www.w3.org/TR/2001/REC-SVG-20010904/DTD/svg10.dtd">
<svg version="1.0" xmlns="http://www.w3.org/2000/svg"
 width="1024.000000pt" height="1536.000000pt" viewBox="0 0 1024.000000 1536.000000"
 preserveAspectRatio="xMidYMid meet">
<metadata>
Created by potrace 1.16, written by Peter Selinger 2001-2019
</metadata>
<g transform="translate(0.000000,1536.000000) scale(0.100000,-0.100000)"
fill="#000000" stroke="none">
<path d="M5238 13109 c-113 -26 -257 -115 -329 -201 -90 -108 -135 -212 -170
-389 -12 -63 -25 -118 -29 -122 -4 -4 -45 2 -91 15 -70 19 -109 23 -239 23
-168 0 -240 -15 -355 -72 -163 -82 -325 -250 -403 -419 -17 -36 -34 -56 -60
-70 -57 -30 -150 -127 -174 -181 -23 -53 -37 -209 -23 -260 7 -24 10 -18 16
40 11 96 58 186 132 250 31 28 59 48 62 45 3 -3 -3 -34 -12 -69 -22 -78 -25
-311 -5 -376 7 -23 29 -66 49 -95 33 -48 37 -61 44 -148 4 -53 17 -125 29
-160 49 -146 158 -312 287 -437 l74 -71 -63 -37 c-212 -125 -323 -279 -373
-521 -9 -43 -21 -161 -26 -262 -11 -219 -24 -279 -115 -503 -36 -89 -86 -223
-111 -298 -51 -154 -70 -181 -165 -231 -102 -55 -210 -144 -341 -283 -161
-171 -256 -251 -437 -370 -252 -164 -306 -191 -478 -237 -326 -87 -534 -189
-701 -345 -58 -53 -141 -160 -141 -179 1 -6 6 -5 13 4 29 35 137 130 147 130
7 0 3 -8 -9 -17 -39 -33 -139 -176 -180 -257 -152 -306 -142 -697 25 -978 65
-110 203 -248 313 -316 96 -58 213 -104 331 -128 124 -25 326 -16 445 20 276
83 490 265 610 518 128 270 107 646 -51 910 -57 95 -183 232 -284 309 -38 29
-70 57 -70 61 0 25 206 139 391 216 52 21 175 65 274 96 99 32 223 79 276 105
232 115 413 292 497 486 87 201 139 322 187 430 69 157 148 379 193 537 20 70
39 124 43 120 4 -4 14 -32 24 -62 24 -75 78 -181 135 -265 103 -151 228 -262
400 -355 116 -63 132 -78 177 -160 63 -114 114 -188 159 -230 24 -22 44 -45
44 -51 0 -6 -16 -39 -35 -73 -23 -41 -38 -85 -45 -135 -14 -85 -27 -121 -76
-197 -37 -57 -71 -135 -118 -264 -28 -79 -37 -95 -181 -322 -49 -79 -146 -255
-216 -393 -69 -137 -166 -329 -216 -425 -126 -241 -188 -397 -293 -740 -88
-286 -211 -465 -493 -717 -204 -184 -295 -278 -351 -363 -56 -85 -421 -821
-533 -1075 -41 -93 -93 -204 -114 -246 -52 -99 -131 -187 -206 -226 -72 -39
-106 -74 -134 -138 -37 -85 -125 -209 -198 -277 -86 -81 -150 -125 -311 -212
-260 -141 -349 -232 -350 -359 0 -131 100 -211 330 -263 100 -23 131 -25 235
-21 66 3 147 12 180 21 96 26 214 90 287 154 37 33 80 63 95 66 15 3 48 8 73
12 69 10 148 43 187 78 55 48 73 98 79 228 5 84 13 136 35 205 20 64 33 140
44 250 10 101 23 173 34 199 41 91 226 284 592 619 159 145 286 270 316 310
78 104 170 264 245 428 119 261 134 285 192 314 102 51 151 103 328 353 53 74
144 194 204 265 122 146 614 649 656 671 15 8 37 14 50 14 43 0 123 46 167 96
23 27 60 87 83 134 42 88 88 163 95 157 2 -3 -1 -26 -7 -53 -6 -27 -25 -121
-41 -209 -33 -184 -77 -395 -119 -575 -68 -297 -75 -345 -75 -525 0 -148 3
-179 22 -240 44 -139 149 -257 266 -301 40 -15 77 -19 167 -19 99 0 125 4 185
26 39 15 140 51 225 82 281 100 423 174 635 328 117 84 202 126 278 135 l54 6
8 -38 c9 -52 31 -88 67 -109 117 -69 138 -124 148 -385 9 -227 25 -292 94
-392 34 -51 55 -69 105 -96 70 -36 119 -41 195 -18 147 45 304 261 341 471 27
155 17 250 -45 441 -47 146 -58 207 -70 389 -6 94 -18 208 -26 255 -38 212
-150 336 -315 348 -137 10 -254 -56 -364 -206 -121 -165 -222 -200 -439 -152
-100 22 -209 26 -286 9 -28 -6 -54 -8 -58 -5 -15 16 65 232 174 468 77 165 95
191 157 231 94 61 159 159 172 262 4 28 2 87 -5 132 -12 93 -6 126 50 247 63
138 98 337 107 617 10 304 -25 519 -122 748 -90 213 -199 365 -346 482 -93 74
-99 83 -99 132 0 50 -41 125 -133 248 -94 123 -91 118 -170 364 -31 94 -65
194 -76 223 -12 29 -21 55 -21 58 0 3 17 -8 38 -24 69 -54 376 -259 572 -382
337 -211 436 -289 596 -465 108 -120 226 -224 359 -318 287 -202 515 -397 646
-553 100 -118 110 -146 108 -296 -2 -132 4 -158 77 -328 25 -57 28 -78 29
-165 0 -89 -3 -107 -28 -160 l-28 -60 23 -18 c41 -34 135 2 183 71 30 44 30
45 30 180 1 178 1 182 23 182 56 -1 182 -97 227 -174 13 -22 46 -100 73 -173
86 -227 146 -321 208 -326 28 -2 29 -1 28 43 0 25 -9 78 -18 119 -9 41 -16 99
-14 130 l3 56 24 -70 c32 -95 46 -120 94 -172 46 -50 84 -73 122 -73 21 0 25
4 25 32 0 17 -15 59 -34 92 -36 63 -78 167 -72 174 2 2 27 -9 56 -23 89 -45
81 -22 -49 143 -47 60 -133 170 -191 243 -57 74 -170 212 -250 307 -320 383
-340 409 -658 877 -49 72 -115 166 -149 211 -33 45 -95 139 -139 209 -130 210
-232 302 -565 510 -166 104 -181 116 -329 265 -167 169 -271 251 -449 357
-146 86 -198 134 -281 259 -124 184 -192 252 -335 339 -71 43 -211 89 -315
104 -119 17 -507 51 -584 51 -39 0 -125 -7 -191 -15 -123 -16 -185 -13 -219
11 -29 20 -56 66 -56 95 l0 27 38 -38 c45 -46 118 -70 209 -70 61 0 133 20
133 37 0 4 -44 8 -97 8 -109 0 -182 20 -208 58 -22 31 -18 94 10 178 55 159
70 285 55 455 -11 127 -44 249 -94 355 l-34 72 91 -6 c167 -11 180 -19 403
-263 230 -251 475 -323 736 -216 73 29 96 52 26 25 -63 -24 -226 -23 -298 1
-143 49 -247 119 -370 249 -47 50 -121 127 -165 171 l-80 80 76 -55 c42 -30
130 -94 195 -144 229 -173 396 -235 636 -235 268 0 505 81 668 229 l45 40 -70
-29 c-39 -16 -110 -37 -159 -46 -76 -15 -103 -16 -185 -7 -53 6 -115 19 -139
30 l-42 18 142 0 c157 0 232 16 348 75 170 87 401 303 472 445 l21 40 -42 -40
c-58 -57 -153 -112 -241 -139 -81 -26 -222 -50 -260 -44 -20 3 -16 8 32 41 66
45 104 91 152 181 48 91 47 113 -4 55 -48 -57 -146 -122 -225 -150 -85 -30
-228 -36 -335 -15 -157 32 -226 70 -437 236 -59 47 -143 104 -187 128 l-81 43
75 -6 c176 -15 346 -87 469 -199 l34 -31 -19 34 c-31 54 -174 183 -256 229
-91 52 -236 105 -348 128 -116 23 -380 16 -460 -13 -128 -47 -204 -101 -283
-203 l-27 -35 26 60 c54 128 113 194 226 254 75 39 151 54 260 49 86 -3 88 -2
56 12 -38 16 -231 23 -290 9z"/>
</g>
</svg>
