<?xml version="1.0" standalone="no"?>
<!DOCTYPE svg PUBLIC "-//W3C//DTD SVG 20010904//EN"
 "http://www.w3.org/TR/2001/REC-SVG-20010904/DTD/svg10.dtd">
<svg version="1.0" xmlns="http://www.w3.org/2000/svg"
 width="1024.000000pt" height="1536.000000pt" viewBox="0 0 1024.000000 1536.000000"
 preserveAspectRatio="xMidYMid meet">
<metadata>
Created by potrace 1.16, written by Peter Selinger 2001-2019
</metadata>
<g transform="translate(0.000000,1536.000000) scale(0.100000,-0.100000)"
fill="#000000" stroke="none">
<path d="M5394 14016 c-151 -39 -249 -99 -413 -250 -99 -91 -141 -121 -238
-170 -124 -62 -259 -81 -397 -55 -32 6 -60 8 -63 5 -10 -9 47 -26 121 -37 178
-24 384 48 538 189 78 71 47 22 -42 -67 -68 -67 -157 -121 -245 -147 -89 -26
-269 -24 -355 4 -78 25 -56 3 29 -29 104 -39 226 -35 361 11 54 19 55 19 32 0
-37 -31 -132 -61 -209 -67 -87 -7 -149 4 -319 58 -168 53 -270 61 -370 30 -38
-12 -80 -28 -94 -37 l-25 -15 30 6 c17 3 75 8 131 12 107 6 176 -7 258 -49 53
-27 37 -34 -94 -41 -121 -7 -235 -34 -311 -73 -64 -32 -157 -119 -200 -186
-38 -58 -79 -168 -79 -206 1 -26 2 -25 21 12 62 117 256 218 414 215 38 -1 36
-2 -33 -24 -148 -47 -234 -134 -248 -252 l-6 -48 31 51 c60 102 156 154 285
154 92 0 150 -18 301 -90 138 -68 181 -79 286 -80 119 0 237 43 331 121 78 65
68 43 -17 -37 -128 -119 -235 -162 -430 -173 l-110 -6 70 -25 c64 -23 83 -25
235 -24 137 0 178 4 244 22 178 49 324 133 449 256 73 72 70 58 -9 -45 -58
-75 -123 -132 -213 -185 -81 -47 -210 -97 -281 -109 -91 -15 -77 -26 25 -22
218 10 454 135 608 322 29 35 86 126 127 202 92 170 172 258 289 316 75 38
121 47 121 25 0 -7 -16 -40 -35 -73 -101 -172 -126 -266 -126 -461 1 -203 41
-361 127 -489 20 -31 52 -69 70 -83 19 -15 34 -31 34 -36 0 -4 -22 -36 -48
-70 -79 -101 -79 -107 8 -51 29 19 55 33 57 31 2 -2 -8 -45 -23 -97 -59 -207
-86 -227 -339 -260 -167 -21 -263 -46 -444 -113 -64 -24 -168 -60 -231 -80
-141 -46 -321 -131 -405 -191 -90 -64 -158 -144 -255 -300 -102 -164 -187
-250 -366 -370 -132 -89 -256 -205 -351 -330 -112 -148 -219 -232 -372 -292
-211 -83 -348 -190 -523 -409 -146 -183 -415 -494 -464 -537 -157 -134 -215
-260 -234 -504 -5 -76 -20 -176 -32 -223 -19 -72 -22 -110 -22 -250 1 -196 16
-284 81 -485 50 -153 80 -220 111 -248 22 -20 42 -16 42 9 0 29 18 12 77 -74
203 -292 466 -445 823 -477 132 -11 358 34 513 104 38 17 74 31 81 31 7 0 30
-26 52 -57 21 -32 65 -83 97 -115 l57 -56 -31 -79 c-17 -43 -60 -166 -96 -273
-67 -203 -71 -229 -42 -297 11 -28 11 -38 0 -65 -7 -18 -33 -100 -58 -183
-134 -450 -186 -592 -275 -752 -77 -140 -105 -167 -272 -262 -428 -243 -578
-386 -777 -737 -114 -202 -355 -535 -478 -662 -69 -71 -150 -121 -196 -122
-38 -1 -95 -28 -148 -69 -68 -52 -108 -66 -235 -80 -119 -14 -185 -32 -265
-72 -131 -66 -188 -155 -195 -299 -8 -155 30 -269 149 -452 124 -190 131 -224
100 -498 -23 -197 23 -346 145 -465 72 -72 189 -135 299 -161 103 -25 334 -25
397 -1 136 53 142 200 15 390 -91 136 -108 252 -66 447 11 52 25 124 31 160 6
36 13 72 15 80 2 8 21 -22 40 -67 49 -111 63 -115 63 -14 0 44 -7 97 -15 121
-22 64 -19 77 35 149 82 111 88 152 40 281 l-29 81 80 93 c108 126 336 307
612 485 337 217 514 352 722 551 141 135 160 150 281 214 178 96 290 174 373
261 58 61 81 96 135 207 35 73 97 178 136 233 40 55 100 148 135 206 35 58 92
146 127 195 36 49 86 123 112 165 47 75 49 77 95 83 93 12 174 88 254 236 19
36 45 94 58 130 12 36 24 66 25 68 1 2 46 -25 101 -60 54 -35 142 -90 195
-121 53 -31 130 -83 170 -116 73 -59 178 -177 178 -201 0 -7 -15 -61 -34 -119
-104 -322 -153 -656 -143 -971 6 -181 15 -241 66 -470 32 -144 109 -566 135
-740 9 -58 27 -168 41 -245 13 -77 30 -206 37 -286 l12 -147 -50 -97 c-49 -97
-49 -97 -49 -194 1 -53 3 -125 5 -161 3 -42 -1 -93 -13 -145 -11 -49 -22 -153
-27 -270 -6 -129 -14 -206 -25 -240 -21 -63 -16 -146 11 -183 27 -36 97 -70
175 -84 80 -14 355 -13 429 1 182 35 193 35 354 16 311 -36 544 1 812 129 138
66 212 113 281 179 71 67 103 122 110 190 6 63 -10 103 -60 141 -50 38 -75 45
-350 91 l-257 42 -54 51 c-29 27 -82 65 -117 82 -35 18 -81 48 -102 67 -21 18
-61 44 -90 57 -32 14 -68 41 -90 66 -38 45 -121 198 -152 283 -20 54 -72 105
-117 114 -17 3 -33 14 -37 27 -18 48 -34 416 -28 646 8 294 34 730 47 798 21
112 45 416 60 772 14 312 39 459 131 785 11 39 23 113 26 165 8 139 -13 187
-127 299 -47 47 -119 133 -160 191 -40 58 -101 139 -135 180 -33 41 -120 154
-192 250 -121 163 -327 400 -402 463 l-32 27 32 66 c39 78 48 156 29 244 -12
57 -12 60 23 142 64 149 94 311 104 551 l6 158 39 51 c52 71 81 165 73 239
l-7 56 64 74 c35 41 82 99 103 129 104 147 276 371 333 434 185 204 277 370
342 620 16 59 31 110 33 112 2 3 7 -23 11 -57 3 -34 20 -101 37 -148 17 -47
48 -149 69 -226 48 -181 166 -487 255 -665 24 -47 59 -128 80 -180 112 -294
294 -506 649 -759 104 -73 227 -170 275 -215 47 -45 101 -92 119 -104 50 -36
56 -56 57 -182 0 -128 -9 -102 108 -320 25 -47 54 -122 66 -168 23 -96 45
-136 118 -221 l52 -61 18 32 c25 48 23 186 -5 313 -21 93 -36 225 -26 225 3 0
28 -17 57 -39 96 -71 147 -145 162 -237 13 -83 -42 -252 -109 -331 -14 -17
-26 -34 -26 -37 0 -13 45 -5 85 14 60 29 111 87 140 160 28 71 28 62 0 -90
-15 -78 -15 -92 1 -172 9 -49 21 -88 27 -88 6 0 35 25 65 56 48 49 68 84 120
204 10 23 11 21 12 -20 0 -40 2 -43 13 -25 8 13 12 64 12 145 0 115 -3 132
-33 220 -19 52 -55 141 -82 196 -51 106 -73 132 -241 289 -42 39 -120 129
-174 200 -55 72 -154 187 -220 256 -67 69 -143 156 -170 195 -27 38 -63 87
-80 109 -17 22 -60 89 -94 149 -104 180 -171 268 -357 471 l-101 110 -22 110
c-42 213 -93 402 -171 635 -91 272 -105 350 -95 535 8 137 -7 347 -31 438 -25
97 -89 211 -158 281 -76 76 -122 106 -371 244 -110 61 -218 123 -239 138 l-40
27 25 19 c31 26 108 21 233 -16 72 -21 95 -24 125 -16 49 13 78 35 97 73 9 18
49 73 89 122 40 50 89 123 110 164 23 47 55 91 87 120 68 63 71 94 24 226 -41
115 -43 137 -16 185 65 118 73 142 78 240 5 111 -11 181 -61 270 l-31 54 30
-21 c75 -54 172 -183 201 -266 l18 -52 3 100 c7 248 -85 443 -257 545 -54 32
-70 47 -80 77 -8 21 -40 63 -71 94 -74 72 -153 105 -370 155 -151 35 -177 38
-315 38 -138 0 -160 -3 -267 -32 l-118 -32 -87 88 c-74 75 -103 96 -183 136
-52 25 -126 53 -165 61 -107 22 -253 18 -361 -9z m-800 -3523 c-12 -86 -37
-203 -60 -283 -13 -47 -35 -148 -50 -225 -18 -101 -37 -167 -66 -235 -22 -52
-56 -133 -74 -179 -48 -121 -87 -181 -145 -219 -53 -35 -76 -74 -104 -174 -11
-41 -29 -71 -63 -110 -26 -29 -69 -79 -95 -110 -72 -86 -81 -86 -189 9 -168
146 -394 211 -647 184 -182 -19 -248 -46 -464 -191 -74 -49 -138 -90 -141 -90
-9 0 4 49 21 82 23 47 227 178 617 399 182 103 267 179 420 377 126 162 170
198 374 306 238 126 316 183 556 405 55 50 103 91 107 91 4 0 5 -17 3 -37z"/>
</g>
</svg>
