<?xml version="1.0" standalone="no"?>
<!DOCTYPE svg PUBLIC "-//W3C//DTD SVG 20010904//EN"
 "http://www.w3.org/TR/2001/REC-SVG-20010904/DTD/svg10.dtd">
<svg version="1.0" xmlns="http://www.w3.org/2000/svg"
 width="1024.000000pt" height="1536.000000pt" viewBox="0 0 1024.000000 1536.000000"
 preserveAspectRatio="xMidYMid meet">
<metadata>
Created by potrace 1.16, written by Peter Selinger 2001-2019
</metadata>
<g transform="translate(0.000000,1536.000000) scale(0.100000,-0.100000)"
fill="#000000" stroke="none">
<path d="M3591 14645 c-35 -8 -105 -34 -155 -59 -207 -101 -343 -264 -412
-491 -24 -80 -27 -106 -27 -230 0 -109 4 -161 22 -235 12 -52 25 -148 30 -212
10 -135 36 -204 118 -311 134 -175 155 -206 173 -253 20 -54 70 -322 115 -619
52 -335 120 -650 190 -865 18 -58 43 -136 54 -175 12 -38 30 -80 40 -92 10
-12 67 -51 127 -86 60 -35 165 -97 233 -137 278 -163 496 -246 910 -344 126
-30 247 -64 268 -75 41 -21 103 -83 103 -104 0 -6 -20 -59 -44 -117 -127 -299
-138 -493 -42 -737 19 -48 48 -118 66 -155 30 -64 33 -67 78 -77 213 -45 408
-62 762 -69 203 -4 301 -9 260 -13 -167 -17 -598 -3 -820 27 -162 22 -408 72
-455 93 -63 29 -117 82 -185 183 -35 51 -77 108 -94 126 -35 38 -125 86 -261
141 -85 34 -96 36 -205 36 -132 -1 -178 -16 -218 -76 -13 -19 -46 -45 -75 -60
-29 -14 -53 -33 -55 -42 -6 -28 34 -57 81 -57 l42 -1 -35 -17 c-43 -21 -47
-56 -10 -83 19 -14 48 -20 115 -23 80 -4 285 -52 304 -72 9 -9 -126 5 -211 23
-64 13 -82 14 -108 3 -25 -10 -30 -18 -28 -38 5 -39 44 -60 167 -87 148 -34
198 -60 301 -161 108 -105 143 -121 310 -140 119 -14 160 -25 458 -124 327
-108 596 -182 805 -221 309 -57 522 -74 590 -45 94 39 177 212 257 538 16 68
59 256 95 418 36 162 81 356 101 430 65 248 56 456 -27 629 -53 109 -103 158
-202 199 -42 18 -106 53 -141 78 -36 25 -114 68 -173 96 -137 64 -167 87 -188
142 -34 89 -3 145 129 231 113 73 196 163 246 266 22 46 40 90 40 98 1 13 4
12 15 -3 22 -29 18 -100 -9 -180 -49 -144 -43 -275 19 -403 43 -87 154 -196
247 -242 78 -40 101 -41 66 -3 -15 15 -36 49 -48 76 -21 50 -21 75 0 35 23
-42 94 -111 140 -134 84 -42 145 -49 283 -29 l124 18 43 -22 c24 -12 46 -20
48 -17 8 7 -39 64 -81 99 -23 18 -62 44 -87 57 l-45 24 83 3 c142 5 249 -42
322 -141 l35 -47 3 37 c5 53 -15 149 -45 210 -54 115 -156 195 -331 257 -41
14 -83 31 -95 37 -32 17 -107 79 -107 89 0 4 21 0 48 -10 78 -29 125 -33 186
-16 47 14 123 62 114 72 -2 2 -22 -3 -43 -11 -22 -8 -67 -14 -100 -14 -116 -1
-203 62 -293 210 -66 110 -118 168 -179 201 -63 35 -152 49 -222 36 -39 -7
-56 -6 -61 2 -4 6 -10 49 -13 94 -14 203 -139 377 -341 477 -132 64 -206 83
-331 83 -122 0 -200 -21 -253 -68 -20 -18 -74 -54 -119 -80 -92 -53 -140 -103
-149 -156 -15 -83 -55 -129 -177 -209 -81 -52 -89 -73 -57 -142 23 -48 23 -51
7 -84 -21 -44 -21 -52 -2 -89 12 -23 13 -32 3 -44 -7 -8 -14 -45 -15 -81 -1
-36 -5 -92 -9 -123 -5 -54 -4 -59 24 -87 18 -19 51 -36 88 -46 155 -42 178
-50 204 -77 31 -30 50 -98 50 -175 l0 -46 -77 6 c-44 4 -127 22 -191 41 -183
57 -302 76 -547 86 -250 10 -286 17 -449 90 -61 27 -160 66 -221 88 -233 83
-274 102 -299 135 -38 53 -229 520 -321 789 -70 203 -134 429 -141 502 -10
100 6 143 88 231 84 90 111 107 213 134 256 70 460 277 525 536 26 101 28 260
5 365 -59 270 -278 504 -550 590 -92 29 -299 37 -394 15z m-322 -1250 c31 -68
102 -151 158 -186 18 -12 75 -36 126 -55 61 -22 78 -32 52 -28 -55 9 -162 52
-210 85 -89 61 -144 148 -179 286 -23 87 -18 112 5 30 10 -37 32 -97 48 -132z
m2681 -2590 c-28 -213 3 -283 112 -257 24 6 54 13 68 16 15 4 9 -2 -15 -14
-176 -87 -233 18 -169 309 10 47 12 14 4 -54z m-312 -47 c-52 -61 -159 -221
-194 -290 -26 -51 -40 -64 -24 -24 36 95 116 223 190 304 68 74 89 82 28 10z
m1128 -30 c-49 -56 -101 -167 -127 -269 -19 -71 -22 -116 -24 -284 -2 -176 -6
-213 -29 -313 -27 -113 -64 -322 -86 -487 -12 -85 -28 -149 -29 -115 -3 76 45
385 91 590 27 123 30 154 32 350 3 238 9 272 71 396 19 40 56 95 81 123 55 61
70 68 20 9z"/>
<path d="M5417 8833 c-4 -3 -7 -36 -7 -73 0 -102 -16 -166 -66 -267 -40 -79
-46 -97 -42 -140 3 -26 13 -68 23 -93 l18 -45 -51 -78 c-28 -43 -57 -93 -63
-112 -11 -31 -17 -34 -71 -44 -37 -6 -95 -30 -156 -62 -53 -29 -171 -78 -261
-110 -186 -66 -231 -94 -244 -155 -9 -37 -13 -41 -105 -84 -175 -81 -453 -255
-672 -419 -297 -222 -533 -440 -587 -543 -26 -49 -28 -61 -27 -168 0 -137 3
-147 134 -391 210 -393 413 -716 811 -1294 90 -132 209 -356 274 -519 19 -50
35 -91 35 -92 0 -1 -13 -4 -30 -7 -40 -9 -60 -51 -60 -128 0 -107 -92 -345
-190 -489 -42 -61 -145 -170 -206 -216 -45 -35 -64 -72 -64 -125 0 -51 30
-103 73 -126 43 -22 178 -29 273 -13 164 26 332 105 497 234 56 44 174 125
262 179 239 149 328 224 387 327 38 66 43 101 20 152 -18 41 -124 174 -252
319 -37 42 -62 81 -70 107 -6 23 -21 54 -34 69 -22 25 -31 28 -84 28 l-60 0
-105 210 c-130 259 -164 348 -222 565 -107 407 -184 568 -421 882 -73 95 -74
98 -52 107 240 90 377 129 616 177 97 19 230 49 294 65 l117 31 39 -32 c94
-75 218 -43 603 158 16 8 19 -102 7 -203 -7 -61 -13 -143 -13 -183 0 -71 1
-75 33 -103 18 -16 39 -29 48 -29 11 0 14 -7 9 -32 -3 -18 -7 -307 -8 -643
l-2 -610 27 -80 c15 -44 36 -122 47 -173 31 -141 47 -169 178 -305 139 -145
178 -207 388 -617 78 -151 209 -396 292 -545 182 -326 207 -377 267 -527 39
-100 111 -330 103 -332 -1 -1 -15 -8 -32 -16 -39 -20 -44 -68 -15 -154 26 -78
38 -185 46 -396 8 -181 -2 -257 -52 -405 -49 -147 -49 -243 3 -297 37 -38 84
-51 165 -46 234 17 508 322 568 633 37 192 51 241 86 305 84 157 106 228 106
335 -1 77 -27 143 -68 172 -16 11 -58 33 -94 50 -107 50 -148 86 -181 159 -32
70 -65 94 -128 94 -18 0 -31 6 -36 17 -34 83 -110 312 -129 391 -14 53 -48
219 -76 367 -57 304 -83 400 -145 532 -69 147 -130 236 -354 512 -137 168
-140 239 -26 621 30 102 84 305 121 452 l66 267 31 6 c41 9 64 30 76 69 15 47
39 251 52 445 9 141 15 183 34 225 32 73 61 177 82 286 14 77 18 148 18 370
-1 242 -3 290 -23 403 -29 158 -52 230 -107 334 -29 52 -48 105 -56 148 -10
61 -10 68 9 88 31 34 53 84 59 135 6 52 -16 194 -44 287 l-19 60 -43 -58 c-23
-32 -53 -62 -67 -67 -73 -28 -281 -17 -569 31 -258 43 -404 81 -724 190 -198
67 -176 61 -184 52z"/>
</g>
</svg>
