<?xml version="1.0" standalone="no"?>
<!DOCTYPE svg PUBLIC "-//W3C//DTD SVG 20010904//EN"
 "http://www.w3.org/TR/2001/REC-SVG-20010904/DTD/svg10.dtd">
<svg version="1.0" xmlns="http://www.w3.org/2000/svg"
 width="1024.000000pt" height="1024.000000pt" viewBox="0 0 1024.000000 1024.000000"
 preserveAspectRatio="xMidYMid meet">
<metadata>
Created by potrace 1.16, written by Peter Selinger 2001-2019
</metadata>
<g transform="translate(0.000000,1024.000000) scale(0.100000,-0.100000)"
fill="#000000" stroke="none">
<path d="M4735 9931 c-55 -14 -109 -48 -197 -125 -148 -129 -188 -212 -188
-389 0 -84 6 -129 35 -245 19 -80 49 -169 67 -205 28 -55 31 -71 30 -142 -1
-90 -17 -153 -57 -221 -34 -59 -65 -73 -350 -165 -275 -88 -333 -112 -404
-164 -97 -72 -151 -135 -277 -327 -68 -103 -144 -209 -168 -237 -34 -38 -47
-63 -56 -105 -6 -31 -26 -77 -44 -103 -79 -116 -206 -342 -272 -483 -39 -83
-49 -115 -49 -155 1 -99 100 -223 235 -294 36 -19 67 -35 68 -37 2 -1 -14 -29
-35 -61 -135 -201 -173 -340 -153 -565 29 -330 193 -725 403 -968 91 -104 145
-144 304 -225 l138 -70 22 -210 c12 -115 29 -271 37 -346 8 -75 25 -263 37
-417 l22 -281 -21 -143 c-61 -406 -54 -838 23 -1513 42 -370 71 -544 106 -646
30 -88 32 -104 34 -249 1 -102 -2 -177 -11 -218 -25 -115 -14 -202 34 -256 26
-29 115 -65 192 -77 134 -20 329 18 387 76 44 44 43 74 -7 227 -59 179 -93
356 -86 443 18 208 18 232 2 320 -48 271 -49 282 -36 581 6 154 11 440 11 635
0 323 2 360 20 424 13 46 23 124 29 230 10 179 13 202 75 580 24 149 53 338
65 420 38 275 36 264 44 230 17 -67 179 -611 226 -755 87 -267 109 -351 115
-445 4 -49 13 -121 20 -160 11 -54 12 -106 5 -230 -12 -210 -12 -602 0 -1000
5 -176 10 -518 11 -760 1 -487 0 -476 67 -519 57 -38 142 -51 243 -39 83 10
85 10 165 -23 45 -18 126 -46 180 -61 90 -24 115 -27 269 -27 292 0 410 44
391 148 -12 65 -47 91 -250 191 -185 91 -196 98 -301 194 -60 55 -116 112
-124 128 -11 21 -15 57 -13 143 1 73 -5 144 -15 193 -14 66 -14 93 -4 190 31
290 62 752 76 1127 3 85 11 214 17 287 10 113 9 151 -6 265 -9 73 -25 264 -36
423 -36 534 -73 902 -115 1155 -13 80 -27 177 -31 215 -3 39 -12 95 -19 125
-7 30 -16 93 -20 140 -3 47 -11 118 -17 158 -10 68 -13 73 -32 68 -12 -4 -95
-24 -186 -45 -292 -69 -316 -85 -474 -308 -122 -171 -239 -322 -248 -323 -9 0
132 234 229 381 120 184 187 229 421 284 247 59 349 126 426 277 49 99 69 199
62 313 -5 84 -28 183 -54 232 -10 18 -8 23 14 38 14 9 28 15 30 12 3 -2 16
-46 30 -98 43 -161 82 -209 178 -217 69 -6 164 22 295 87 304 151 589 344 721
488 70 76 152 187 182 243 29 57 31 158 4 209 -23 44 -30 39 182 134 254 113
292 129 346 143 65 17 61 18 62 -10 2 -32 36 -100 49 -98 6 1 15 31 20 68 10
66 10 67 49 81 22 7 44 12 48 11 4 -2 18 -23 30 -48 13 -25 31 -47 42 -49 17
-3 19 2 13 58 -6 66 0 77 49 87 27 5 31 2 49 -38 12 -24 28 -44 39 -46 17 -4
18 1 12 54 l-6 59 40 17 c41 17 46 27 41 88 -2 26 -50 143 -100 240 -33 65
-57 73 -121 40 -47 -24 -52 -21 -69 31 -14 42 -44 74 -62 64 -11 -8 -8 -75 6
-121 6 -19 -1 -26 -56 -52 -35 -17 -66 -29 -69 -27 -4 2 -15 31 -25 65 -33
107 -69 105 -62 -5 2 -33 7 -68 11 -77 6 -13 -1 -22 -26 -38 -18 -11 -37 -20
-43 -20 -5 0 -21 28 -35 62 -44 108 -89 75 -57 -41 12 -43 13 -59 4 -68 -7 -6
-68 -42 -137 -79 -361 -195 -437 -234 -453 -234 -10 0 -27 5 -38 11 -33 17
-79 1 -100 -36 -14 -24 -33 -38 -66 -49 -43 -15 -141 -66 -593 -308 -90 -48
-168 -88 -172 -88 -4 0 -19 39 -34 86 -19 62 -23 89 -15 97 19 19 12 89 -18
187 -17 52 -42 144 -56 204 -69 294 -112 399 -203 498 -75 81 -166 138 -364
229 -94 43 -179 86 -189 95 -20 18 -43 79 -35 92 3 5 31 12 61 15 70 7 138 46
168 95 29 46 68 146 74 190 4 23 17 43 45 65 l40 32 -7 90 c-10 117 -8 140 15
232 11 43 23 110 26 148 5 52 13 77 31 98 31 39 37 67 24 127 -20 95 -91 203
-149 227 -20 8 -61 37 -91 65 -73 64 -135 96 -228 114 -77 14 -285 18 -338 5z
m-928 -2896 c14 -88 27 -165 28 -171 2 -7 44 -21 93 -33 336 -77 523 -40 742
149 146 126 249 170 396 170 154 0 276 -59 396 -190 71 -77 133 -174 123 -189
-14 -23 -34 -8 -84 58 -68 93 -171 185 -245 221 -168 83 -355 54 -511 -79
-100 -85 -177 -142 -228 -168 -142 -72 -327 -82 -578 -32 -85 16 -207 38 -273
48 l-118 18 -51 51 c-45 45 -51 56 -50 89 4 84 81 201 147 223 18 6 62 26 97
44 l64 34 13 -42 c7 -22 24 -113 39 -201z m2843 -135 c0 -50 -78 -119 -201
-179 -157 -76 -307 -105 -340 -65 -9 11 39 38 251 144 144 71 268 130 276 130
9 0 14 -11 14 -30z"/>
</g>
</svg>
