<?xml version="1.0" standalone="no"?>
<!DOCTYPE svg PUBLIC "-//W3C//DTD SVG 20010904//EN"
 "http://www.w3.org/TR/2001/REC-SVG-20010904/DTD/svg10.dtd">
<svg version="1.0" xmlns="http://www.w3.org/2000/svg"
 width="1024.000000pt" height="1024.000000pt" viewBox="0 0 1024.000000 1024.000000"
 preserveAspectRatio="xMidYMid meet">
<metadata>
Created by potrace 1.16, written by Peter Selinger 2001-2019
</metadata>
<g transform="translate(0.000000,1024.000000) scale(0.100000,-0.100000)"
fill="#000000" stroke="none">
<path d="M5015 9570 c-145 -17 -293 -96 -480 -257 -144 -125 -202 -188 -235
-257 -30 -63 -32 -100 -5 -89 9 3 20 -8 29 -32 11 -26 21 -35 31 -32 8 4 17 2
20 -3 3 -6 17 2 29 17 23 27 23 27 30 5 9 -28 24 -28 37 1 6 15 7 2 2 -43 -15
-120 -9 -240 14 -295 12 -27 26 -82 32 -121 13 -86 53 -187 120 -303 53 -92
91 -174 91 -197 0 -7 -10 -16 -22 -18 -234 -50 -320 -89 -413 -187 -46 -49
-77 -95 -109 -161 -75 -153 -165 -447 -232 -753 -20 -93 -38 -171 -39 -172 -1
-2 -30 13 -66 32 -79 43 -124 56 -213 64 -69 6 -70 7 -78 39 -12 45 -43 58
-110 44 -63 -12 -71 -10 -85 29 -11 29 -14 31 -50 24 -34 -5 -42 -2 -68 25
-47 49 -74 61 -111 45 -30 -12 -94 -83 -94 -104 0 -6 -3 -11 -7 -11 -4 0 -80
34 -168 77 -160 76 -235 119 -235 133 0 5 53 50 118 102 218 174 377 302 493
398 233 191 368 300 373 300 4 0 6 -7 6 -15 0 -8 11 -22 25 -31 63 -41 146 35
161 150 4 27 2 46 -5 50 -20 13 -12 26 17 26 15 0 68 9 117 20 185 41 254 51
274 40 33 -17 89 -11 141 15 151 77 138 240 -24 300 -45 16 -51 17 -76 2 -36
-21 -382 -136 -581 -192 -346 -98 -484 -161 -594 -270 -80 -80 -120 -146 -265
-430 -147 -289 -153 -298 -197 -319 -21 -10 -72 -37 -114 -62 -42 -24 -81 -44
-87 -44 -7 0 -12 15 -12 35 0 44 -24 103 -44 111 -24 9 -82 -14 -117 -47 -17
-16 -32 -29 -34 -29 -2 0 -6 11 -9 24 -3 13 -22 34 -42 46 -29 18 -45 22 -84
17 -134 -16 -225 -124 -237 -283 -10 -125 30 -193 137 -231 28 -10 50 -20 49
-23 0 -3 -37 -36 -82 -74 -45 -37 -173 -144 -284 -237 -211 -176 -212 -178
-175 -221 32 -37 32 -37 346 242 259 230 316 280 322 280 2 0 4 -1275 4 -2833
l0 -2833 -182 -12 c-196 -12 -276 -29 -314 -67 -33 -33 -40 -86 -18 -132 l19
-38 105 -6 c146 -9 750 -9 894 0 109 6 120 9 138 31 16 19 19 35 16 72 -3 26
-11 55 -19 64 -38 46 -145 68 -391 80 l-148 7 0 2844 0 2844 23 -8 c21 -7 41
-9 115 -12 28 -1 31 -4 23 -18 -5 -10 -12 -44 -16 -75 l-7 -58 38 0 c22 0 44
4 49 8 17 12 34 56 38 97 l3 40 219 7 c121 4 221 6 222 4 2 -2 -6 -25 -18 -51
-17 -39 -21 -62 -17 -119 8 -115 65 -214 150 -257 22 -11 43 -31 49 -47 66
-167 155 -291 267 -374 68 -51 250 -138 373 -179 172 -58 349 -50 459 21 69
45 135 117 184 204 48 84 90 194 84 222 -2 13 -44 25 -188 54 -102 20 -243 53
-315 73 -153 42 -164 44 -275 56 -137 15 -216 49 -246 106 -15 30 -9 31 34 5
20 -12 65 -23 119 -30 63 -7 106 -19 162 -45 119 -55 345 -116 591 -160 80
-14 150 -28 157 -30 10 -3 9 -13 -1 -42 -17 -50 -42 -208 -56 -358 -6 -66 -23
-169 -36 -230 -14 -60 -32 -138 -40 -172 -7 -35 -19 -72 -26 -83 -24 -39 -167
-98 -480 -200 -606 -196 -743 -246 -875 -318 -94 -52 -176 -135 -216 -219 -30
-64 -32 -74 -31 -178 1 -161 32 -275 165 -599 184 -448 272 -702 569 -1624 56
-173 97 -285 106 -289 8 -3 43 2 79 11 35 9 68 16 73 16 10 0 42 -64 42 -84 0
-22 -145 -209 -204 -263 -68 -63 -107 -85 -287 -162 -78 -34 -157 -73 -175
-86 -52 -40 -82 -166 -51 -209 13 -17 36 -19 328 -20 297 -1 318 0 394 21 128
36 233 93 319 174 l76 71 63 -16 c73 -18 123 -20 196 -6 117 22 236 105 267
185 30 79 18 119 -111 376 -64 127 -114 233 -112 235 2 2 64 1 137 -2 l132 -7
-6 -56 c-16 -129 -26 -271 -20 -285 3 -8 21 -24 40 -35 28 -17 34 -26 34 -54
0 -53 -19 -98 -170 -401 -121 -242 -142 -291 -151 -353 -6 -40 -8 -77 -5 -82
8 -13 130 -58 195 -72 74 -16 329 -6 406 15 150 41 279 140 338 258 42 83 43
115 7 273 -47 210 -80 375 -80 401 0 20 5 24 33 24 17 0 38 4 45 9 11 6 41
242 42 324 0 16 15 17 223 15 l222 -3 21 -275 c12 -151 31 -399 43 -550 30
-386 30 -388 55 -405 27 -19 87 -19 133 0 l36 15 -6 68 c-3 37 -26 310 -51
607 -25 296 -46 542 -46 545 0 4 66 12 148 19 81 6 165 14 187 17 l40 6 75
-449 c57 -342 79 -452 93 -465 22 -23 104 -24 135 -2 33 23 69 -218 -268 1788
-88 528 -159 965 -156 971 2 7 30 15 62 18 34 3 69 14 83 25 24 18 26 26 25
88 0 49 -7 85 -24 122 -23 53 -23 55 -6 102 10 27 16 56 14 65 -2 10 -29 26
-68 39 -212 74 -368 203 -604 499 -241 300 -331 347 -651 334 -82 -3 -182 -2
-222 3 -309 40 -444 322 -348 728 26 110 32 103 11 -14 -65 -362 15 -584 245
-677 50 -20 71 -22 304 -22 236 0 254 -1 318 -24 80 -27 194 -113 259 -194
254 -318 347 -415 473 -499 166 -109 278 -148 451 -155 157 -7 255 12 383 74
227 109 399 369 545 822 80 248 100 353 100 536 1 171 -14 253 -70 404 -28 75
-28 71 -10 71 24 0 159 95 199 139 58 65 87 134 87 209 0 73 -28 166 -72 234
-43 68 -147 161 -239 215 -62 36 -79 51 -79 69 0 25 -24 54 -44 54 -7 0 -21
-9 -31 -20 -17 -19 -18 -19 -54 15 -20 18 -75 69 -122 112 -47 43 -167 153
-265 245 -215 201 -290 262 -409 332 -118 69 -246 124 -425 180 -80 25 -157
54 -171 63 -14 10 -56 52 -92 94 -89 102 -134 131 -279 182 -16 6 -16 10 7 42
62 92 95 233 95 410 0 232 -42 348 -169 475 -155 153 -365 233 -556 210z
m-1521 -1618 c6 -9 -216 -231 -344 -343 -163 -144 -362 -310 -366 -306 -5 5
195 393 226 438 85 122 162 178 283 204 70 15 193 19 201 7z m2026 -1029 c36
-16 85 -49 110 -72 l45 -42 -50 34 c-107 74 -179 97 -299 97 -236 0 -447 -136
-526 -340 -7 -19 -17 -39 -22 -45 -16 -17 29 92 58 142 41 72 137 158 220 200
105 51 161 63 289 60 99 -3 117 -6 175 -34z m1210 -77 c81 -29 280 -119 275
-124 -2 -2 -48 4 -102 14 -58 11 -147 18 -218 18 -111 0 -138 -4 -350 -54
-200 -47 -243 -54 -330 -54 -87 0 -108 4 -158 27 -62 28 -121 66 -114 74 3 2
26 -9 51 -26 108 -68 243 -76 451 -26 61 14 160 37 220 51 61 14 123 30 138
36 34 13 60 49 51 72 -8 22 9 21 86 -8z m-2530 -242 c102 -25 259 -61 350 -80
91 -19 169 -39 174 -44 14 -14 1 -13 -106 9 -325 68 -676 159 -613 161 6 0 93
-21 195 -46z m1617 -330 c27 -9 67 -31 89 -50 l39 -35 -40 25 c-92 57 -225 70
-333 33 -124 -43 -189 -148 -180 -291 8 -115 70 -211 171 -260 28 -14 44 -26
36 -26 -31 0 -125 67 -161 115 -147 193 -46 455 191 495 76 13 136 11 188 -6z
m-119 -621 c-10 -2 -26 -2 -35 0 -10 3 -2 5 17 5 19 0 27 -2 18 -5z m-1685
-1630 c-3 -49 -1 -73 9 -86 17 -23 75 -36 161 -37 53 0 67 -3 67 -15 0 -15
-75 -482 -125 -779 -14 -82 -27 -152 -30 -154 -2 -3 -9 8 -15 24 -6 16 -26 67
-45 114 -112 284 -209 540 -323 852 l-39 106 31 6 c17 3 83 10 146 17 63 6
117 13 119 15 2 2 15 4 27 4 22 0 23 -2 17 -67z m2236 -525 c41 -244 82 -488
92 -543 10 -55 39 -219 64 -365 25 -146 48 -276 51 -290 l5 -26 -177 -13 c-97
-7 -178 -11 -180 -9 -2 3 -15 139 -29 304 -13 164 -40 490 -60 723 -19 233
-38 475 -42 537 l-6 113 59 4 c32 2 79 4 104 5 l45 2 74 -442z m-465 380 c3
-24 19 -227 36 -453 17 -225 44 -582 61 -793 17 -211 28 -386 25 -389 -8 -9
-393 -9 -402 0 -5 4 6 146 25 315 76 715 102 1006 114 1292 2 54 2 55 37 61
19 4 49 7 67 8 30 1 32 -1 37 -41z m-967 -47 c4 -31 8 -299 8 -596 0 -490 -8
-730 -31 -934 l-7 -53 -176 7 c-97 4 -180 11 -185 15 -9 9 -93 190 -138 300
-17 41 -35 80 -40 86 -5 7 7 98 31 230 22 121 53 300 70 399 17 99 47 271 66
383 19 112 35 206 35 210 0 4 81 7 180 8 l179 0 8 -55z"/>
</g>
</svg>
