<?xml version="1.0" standalone="no"?>
<!DOCTYPE svg PUBLIC "-//W3C//DTD SVG 20010904//EN"
 "http://www.w3.org/TR/2001/REC-SVG-20010904/DTD/svg10.dtd">
<svg version="1.0" xmlns="http://www.w3.org/2000/svg"
 width="1024.000000pt" height="1024.000000pt" viewBox="0 0 1024.000000 1024.000000"
 preserveAspectRatio="xMidYMid meet">
<metadata>
Created by potrace 1.16, written by Peter Selinger 2001-2019
</metadata>
<g transform="translate(0.000000,1024.000000) scale(0.100000,-0.100000)"
fill="#000000" stroke="none">
<path d="M4834 9450 c-201 -52 -416 -210 -539 -396 -83 -125 -139 -284 -152
-431 -6 -70 -5 -72 16 -66 22 6 25 -7 22 -87 0 -14 2 -19 5 -12 11 24 26 12
21 -17 -5 -26 -3 -31 23 -40 17 -5 30 -15 30 -22 0 -25 13 2 17 33 5 52 19 54
44 7 29 -58 135 -216 169 -254 34 -38 56 -94 65 -168 10 -79 37 -116 105 -142
38 -14 56 -27 58 -40 2 -17 -10 -24 -72 -43 -248 -75 -391 -310 -511 -842 -74
-330 -85 -372 -135 -507 -27 -76 -50 -144 -50 -151 0 -8 -7 -11 -17 -8 -28 8
-435 73 -572 91 -140 19 -154 23 -211 64 -50 36 -116 48 -179 32 -66 -16 -79
-16 -256 13 -88 15 -188 31 -222 36 -44 6 -75 18 -105 39 -36 25 -62 34 -153
48 -60 9 -112 18 -114 19 -2 2 8 13 22 26 37 33 43 68 17 101 -40 50 -110 26
-110 -38 0 -18 10 -40 27 -57 32 -33 30 -33 -93 -13 -84 14 -302 45 -312 45
-2 0 10 13 27 29 45 42 41 90 -10 116 -77 40 -126 -62 -57 -120 l31 -27 -34 6
c-132 23 -171 26 -189 16 -11 -6 -20 -14 -20 -18 0 -4 -7 -47 -15 -97 -8 -49
-18 -148 -21 -220 -8 -163 -8 -163 105 -177 l82 -11 -25 -26 c-31 -33 -33 -74
-6 -101 59 -59 134 27 84 98 -14 21 -14 22 5 22 11 0 54 -5 96 -11 l76 -12
-20 -21 c-44 -47 -14 -121 45 -114 41 4 63 47 47 89 -7 18 -11 35 -8 37 5 6
135 -19 135 -25 0 -3 -9 -16 -20 -30 -26 -33 -25 -49 5 -78 30 -31 58 -32 86
-4 21 21 22 50 4 92 -7 17 -2 18 93 11 l100 -7 51 48 52 48 92 -12 c51 -6 133
-19 184 -28 l91 -16 7 -46 c17 -123 58 -187 161 -249 102 -62 152 -102 291
-231 73 -69 152 -137 176 -153 63 -42 151 -67 268 -78 90 -8 116 -14 184 -47
79 -37 82 -38 200 -38 116 0 123 1 188 33 71 35 171 120 219 186 l28 39 0 -49
c0 -74 -18 -181 -35 -214 -32 -62 -78 -74 -342 -90 -598 -36 -1000 -112 -1242
-235 -77 -39 -156 -118 -193 -193 -32 -65 -33 -70 -32 -192 0 -170 21 -256
154 -650 168 -500 213 -654 331 -1145 75 -312 163 -653 181 -697 11 -31 8 -30
142 -28 l89 1 -44 -33 c-24 -19 -72 -70 -107 -113 -107 -136 -164 -196 -227
-243 -96 -70 -122 -82 -448 -197 -171 -60 -248 -162 -180 -237 20 -22 199 -81
313 -103 254 -48 517 -17 741 86 l89 42 73 -14 c82 -15 280 -16 345 -1 l43 10
-99 -102 c-75 -77 -107 -118 -132 -171 -79 -166 -38 -241 156 -286 174 -40
395 -16 557 61 84 40 177 109 208 155 14 21 42 44 69 56 103 46 138 117 126
257 -6 61 -41 291 -71 469 l-6 33 55 0 c43 0 57 4 64 18 5 9 22 91 36 182 50
303 126 723 157 865 83 381 134 652 154 813 l7 52 178 0 179 0 5 -32 c3 -18
13 -125 21 -238 51 -659 79 -1082 120 -1830 13 -245 26 -471 28 -504 4 -76 27
-95 110 -96 52 0 62 4 88 29 27 27 29 34 24 83 -3 29 -14 247 -25 483 -11 237
-27 554 -35 705 -40 748 -65 1258 -65 1342 0 80 -22 70 210 93 91 9 179 18
196 21 l30 6 22 -114 c108 -549 197 -1046 322 -1798 49 -295 76 -430 87 -442
36 -40 138 -34 183 10 l27 27 -43 285 c-96 630 -211 1298 -320 1854 -24 126
-43 230 -42 231 2 1 24 9 49 18 92 35 159 114 159 189 0 49 -43 131 -95 185
-26 27 -57 64 -70 84 -14 22 -35 39 -52 44 -94 23 -278 132 -403 239 -36 30
-105 89 -155 132 -112 96 -219 166 -293 194 -167 64 -383 81 -673 56 -236 -21
-322 -38 -416 -81 -173 -79 -245 -214 -263 -494 l-9 -126 4 130 c7 259 81 407
245 490 58 29 149 59 205 67 13 2 -2 14 -47 36 -76 37 -174 134 -212 210 -30
60 -66 176 -65 211 1 15 6 4 13 -29 44 -196 134 -320 285 -392 l66 -31 175 16
c200 20 307 21 435 7 236 -27 361 -86 580 -276 235 -204 343 -278 478 -330 40
-15 77 -31 82 -35 6 -4 57 -15 115 -24 126 -21 349 -16 445 10 153 42 266 122
373 264 190 252 300 606 332 1064 10 150 0 377 -20 462 -16 69 -15 71 71 117
100 53 195 138 234 209 27 48 30 63 30 139 0 148 -27 183 -342 448 -129 108
-302 254 -385 323 -83 70 -189 150 -237 177 -47 28 -103 61 -125 74 -21 13
-65 55 -97 95 -166 202 -290 267 -654 343 -264 56 -335 86 -460 200 -85 78
-138 105 -226 119 -34 6 -67 15 -72 20 -5 5 -2 52 9 117 39 251 -7 555 -111
733 -75 127 -163 198 -280 227 -38 9 -77 23 -87 31 -52 45 -263 58 -394 23z
m696 -635 c33 -19 21 -19 -21 0 -19 8 -27 14 -19 14 8 0 26 -6 40 -14z m-7
-84 c19 -21 39 -54 45 -72 15 -46 34 -160 29 -166 -3 -2 -10 29 -17 69 -17 98
-35 142 -76 178 -19 16 -31 30 -26 30 6 0 25 -17 45 -39z m106 -306 c0 -5 -6
1 -14 15 -8 14 -14 30 -14 35 0 6 6 -1 14 -15 8 -14 14 -29 14 -35z m-1389 -3
c0 -7 -4 -10 -10 -7 -5 3 -10 16 -10 28 0 18 2 19 10 7 5 -8 10 -21 10 -28z
m1601 -527 c-20 -98 -81 -298 -89 -290 -2 2 10 45 27 95 38 114 70 268 73 352
l2 63 3 -61 c2 -36 -4 -102 -16 -159z m-615 -169 c-72 -97 -125 -129 -216
-132 l-65 -2 65 7 c100 11 144 40 216 141 27 38 50 67 52 65 2 -2 -21 -37 -52
-79z m-411 -50 c17 -15 53 -39 80 -52 28 -13 44 -24 37 -24 -42 0 -135 70
-180 136 l-34 49 34 -40 c18 -22 47 -53 63 -69z m420 -121 c-3 -26 -8 -45 -11
-43 -2 3 -1 26 2 52 4 25 9 44 12 42 2 -3 1 -26 -3 -51z m474 8 c-14 -16 -74
-82 -135 -148 -60 -66 -120 -133 -132 -149 -12 -16 -22 -24 -22 -19 0 15 295
343 309 343 3 0 -6 -12 -20 -27z m68 -24 c7 -7 29 -15 50 -19 35 -7 35 -8 8
-9 -16 0 -43 8 -60 19 -16 11 -25 20 -19 20 5 0 15 -5 21 -11z m178 -24 c30
-8 40 -14 25 -14 -14 0 -38 6 -55 14 -39 17 -32 17 30 0z m118 -22 c-13 -2
-33 -2 -45 0 -13 2 -3 4 22 4 25 0 35 -2 23 -4z m-836 -25 c-3 -8 -6 -5 -6 6
-1 11 2 17 5 13 3 -3 4 -12 1 -19z m90 -140 c-3 -8 -6 -5 -6 6 -1 11 2 17 5
13 3 -3 4 -12 1 -19z m-769 -479 c-3 -8 -7 -3 -11 10 -4 17 -3 21 5 13 5 -5 8
-16 6 -23z m884 -78 c89 -23 151 -53 266 -127 273 -177 346 -182 831 -58 118
30 216 53 218 51 3 -4 -207 -61 -422 -113 -90 -23 -134 -28 -240 -28 -156 -1
-185 9 -371 126 -154 97 -190 115 -281 139 -136 34 -287 23 -398 -31 -128 -62
-250 -232 -308 -430 -13 -47 -30 -101 -35 -120 l-11 -35 5 35 c17 108 86 285
148 377 41 60 133 148 185 177 107 58 272 73 413 37z m1454 -21 c48 -22 85
-43 81 -46 -3 -3 -43 -17 -89 -31 -89 -27 -131 -37 -110 -27 8 4 12 29 12 75
0 38 4 69 10 69 5 0 49 -18 96 -40z m554 -48 c-19 -9 -61 -49 -93 -89 -32 -40
-123 -129 -202 -198 -80 -69 -145 -129 -145 -134 0 -4 24 -18 53 -33 69 -33
111 -69 148 -127 29 -44 29 -44 2 -11 -50 63 -94 100 -155 131 -56 28 -61 29
-81 15 -161 -118 -400 -222 -725 -317 -112 -33 -228 -71 -257 -84 -62 -30
-139 -95 -160 -136 -9 -16 -25 -34 -38 -40 l-22 -12 23 24 c12 13 39 44 59 67
76 89 128 114 416 198 311 90 597 219 705 318 31 29 104 92 162 142 57 49 127
113 155 143 125 135 153 161 171 161 13 0 8 -6 -16 -18z m-4545 -292 c-3 -5
-12 -10 -18 -10 -7 0 -6 4 3 10 19 12 23 12 15 0z m-25 -23 c0 -2 -12 -14 -27
-28 l-26 -24 19 27 c16 23 34 36 34 25z m278 -4 c-10 -2 -26 -2 -35 0 -10 3
-2 5 17 5 19 0 27 -2 18 -5z m-61 -9 c-3 -3 -12 -4 -19 -1 -8 3 -5 6 6 6 11 1
17 -2 13 -5z m-79 -45 c-15 -11 -39 -35 -54 -52 -14 -18 -21 -22 -15 -11 11
22 77 84 89 84 4 0 -5 -10 -20 -21z m198 -2 c-47 -29 -101 -85 -128 -134 -37
-66 -47 -69 -14 -5 25 49 127 153 149 151 7 0 3 -6 -7 -12z m-425 -74 c-12
-20 -14 -14 -5 12 4 9 9 14 11 11 3 -2 0 -13 -6 -23z m1212 0 c-7 -2 -19 -2
-25 0 -7 3 -2 5 12 5 14 0 19 -2 13 -5z m60 -10 c-7 -2 -21 -2 -30 0 -10 3 -4
5 12 5 17 0 24 -2 18 -5z m60 -10 c-7 -2 -21 -2 -30 0 -10 3 -4 5 12 5 17 0
24 -2 18 -5z m-1352 -30 c-12 -20 -14 -14 -5 12 4 9 9 14 11 11 3 -2 0 -13 -6
-23z m1469 13 c36 -8 56 -14 45 -14 -11 -1 -49 5 -85 12 -36 8 -56 14 -45 14
11 1 49 -5 85 -12z m440 -76 c151 -27 365 -65 475 -85 110 -20 207 -38 215
-40 10 -3 25 11 42 40 32 53 90 97 164 125 111 41 204 17 304 -79 l55 -53 -55
46 c-30 26 -79 58 -108 73 -70 34 -144 30 -235 -15 -70 -35 -99 -66 -148 -159
-17 -32 -27 -49 -24 -38 17 50 35 45 -470 136 -264 47 -505 91 -535 97 l-55
11 50 -5 c28 -3 174 -27 325 -54z m-1928 8 c-8 -8 -9 -4 -5 13 4 13 8 18 11
10 2 -7 -1 -18 -6 -23z m708 -138 c49 -17 131 -35 188 -42 l102 -12 -22 -23
c-20 -21 -29 -23 -138 -23 -110 0 -120 2 -177 30 -78 39 -87 50 -67 78 8 12
18 22 21 22 3 0 45 -13 93 -30z m3848 -74 c-22 -45 -90 -83 -258 -141 -74 -26
-148 -54 -165 -62 -49 -25 -112 -80 -255 -224 -112 -113 -147 -142 -209 -172
-40 -21 -81 -37 -90 -37 -9 0 9 11 39 23 87 36 141 79 298 236 166 166 189
180 383 247 74 25 151 56 171 70 21 13 41 24 46 24 4 0 16 14 25 30 18 29 18
31 -4 63 l-22 32 28 -27 c29 -27 29 -28 13 -62z m-3188 -25 c157 -28 465 -82
685 -121 220 -39 428 -76 463 -82 55 -10 63 -14 68 -37 21 -99 78 -192 147
-238 94 -63 269 -109 377 -98 47 4 50 3 25 -6 -62 -21 -230 8 -340 60 -108 50
-181 134 -208 241 l-14 55 -64 13 c-51 10 -263 48 -594 106 -16 3 -208 36
-425 75 -217 38 -408 71 -425 74 -26 3 -27 4 -5 6 14 0 154 -21 310 -48z
m3307 -26 c-26 -23 -83 -45 -118 -45 -8 0 -24 7 -35 15 -17 14 -16 14 13 4 38
-12 99 2 135 31 33 28 38 24 5 -5z m-2803 -166 c-9 -35 -20 -127 -24 -204 l-8
-140 2 140 c2 96 8 161 21 208 10 37 20 66 22 63 2 -2 -4 -32 -13 -67z m703 9
c-3 -7 -5 -2 -5 12 0 14 2 19 5 13 2 -7 2 -19 0 -25z m425 -88 c-9 -16 -19
-25 -21 -19 -3 9 26 49 35 49 2 0 -5 -13 -14 -30z m188 -16 c0 -10 -85 -42
-130 -49 -33 -5 -50 -2 -65 10 -19 15 -19 15 6 4 30 -12 116 2 159 26 29 17
30 17 30 9z m50 -335 c31 -7 103 -9 165 -6 93 4 101 3 50 -5 -80 -12 -244 -3
-286 17 -25 11 -27 14 -9 10 14 -3 50 -10 80 -16z m313 4 c-7 -2 -19 -2 -25 0
-7 3 -2 5 12 5 14 0 19 -2 13 -5z m-2763 -1014 l25 -20 -32 16 c-18 8 -33 18
-33 20 0 10 16 4 40 -16z m947 -126 c-3 -10 -5 -2 -5 17 0 19 2 27 5 18 2 -10
2 -26 0 -35z m-747 -27 c69 -13 164 -28 213 -32 48 -3 87 -7 87 -8 0 0 -7 -19
-15 -41 -20 -56 -18 -109 5 -156 24 -46 88 -96 137 -105 19 -4 37 -12 39 -19
5 -12 -9 -109 -111 -745 -61 -381 -71 -432 -79 -400 -5 22 -84 347 -162 670
-46 189 -105 403 -146 530 -45 139 -115 320 -129 335 -18 18 -9 25 14 11 12
-8 78 -26 147 -40z m2970 41 c0 -2 -15 -16 -32 -33 l-33 -29 29 33 c28 30 36
37 36 29z m-1366 -43 c3 -8 2 -12 -4 -9 -6 3 -10 10 -10 16 0 14 7 11 14 -7z
m-847 -16 c-3 -8 -6 -5 -6 6 -1 11 2 17 5 13 3 -3 4 -12 1 -19z m2137 -8 c-6
-6 -48 -26 -94 -46 -107 -45 -96 -31 13 17 94 42 94 42 81 29z m-2391 -17
c-13 -2 -33 -2 -45 0 -13 2 -3 4 22 4 25 0 35 -2 23 -4z m252 -378 c-5 -514
-87 -1290 -170 -1610 -31 -116 -28 -147 15 -215 29 -46 31 -51 20 -92 -7 -23
-21 -61 -33 -83 l-20 -40 -21 80 c-24 91 -67 186 -120 269 -20 31 -36 63 -36
72 0 9 16 85 35 169 39 171 177 857 251 1243 39 207 51 252 64 250 10 -2 15
-15 15 -43z"/>
<path d="M1846 6768 c-22 -31 -20 -52 7 -83 44 -52 110 -31 110 35 0 64 -83
97 -117 48z"/>
</g>
</svg>
