<?xml version="1.0" standalone="no"?>
<!DOCTYPE svg PUBLIC "-//W3C//DTD SVG 20010904//EN"
 "http://www.w3.org/TR/2001/REC-SVG-20010904/DTD/svg10.dtd">
<svg version="1.0" xmlns="http://www.w3.org/2000/svg"
 width="1024.000000pt" height="1024.000000pt" viewBox="0 0 1024.000000 1024.000000"
 preserveAspectRatio="xMidYMid meet">
<metadata>
Created by potrace 1.16, written by Peter Selinger 2001-2019
</metadata>
<g transform="translate(0.000000,1024.000000) scale(0.100000,-0.100000)"
fill="#000000" stroke="none">
<path d="M4535 9411 c-16 -4 -57 -21 -90 -38 -33 -17 -93 -41 -134 -54 -41
-12 -95 -37 -120 -53 -52 -35 -180 -188 -216 -257 -13 -25 -42 -122 -65 -214
-37 -150 -42 -179 -38 -264 l3 -96 -50 -11 -50 -10 1 -45 c2 -51 39 -218 114
-513 28 -110 50 -209 48 -220 -4 -25 -97 318 -134 489 -54 253 -64 294 -81
334 -21 48 -31 50 -64 15 -51 -55 -68 -58 -282 -60 -243 -2 -292 -8 -385 -45
-248 -99 -395 -314 -571 -837 -136 -404 -175 -678 -191 -1336 -5 -209 -12
-401 -16 -426 -6 -40 -23 -82 -73 -175 -9 -17 -16 -54 -16 -83 0 -59 -3 -54
95 -125 l45 -33 5 -159 c5 -153 7 -162 35 -214 26 -49 30 -68 36 -177 8 -132
19 -168 93 -299 21 -38 45 -84 52 -102 17 -40 66 -305 99 -533 24 -170 66
-399 100 -548 16 -69 16 -74 -1 -100 -43 -63 -65 -126 -59 -162 6 -36 6 -37
-23 -32 -24 3 -40 -6 -98 -57 -38 -33 -118 -91 -179 -128 -152 -94 -219 -150
-456 -380 -170 -164 -230 -215 -337 -286 -150 -100 -192 -144 -264 -274 -28
-51 -74 -120 -102 -153 -28 -33 -73 -102 -100 -153 -27 -50 -69 -123 -93 -161
-25 -38 -65 -108 -91 -155 -46 -84 -47 -88 -47 -176 0 -89 1 -92 59 -217 59
-130 89 -168 157 -204 111 -57 460 -59 570 -3 20 10 49 33 64 51 24 29 27 38
22 83 -3 28 -17 91 -32 140 -30 99 -30 132 5 213 22 50 24 52 62 52 75 0 112
28 270 202 70 77 107 108 190 158 145 89 255 168 384 275 60 51 195 150 300
220 359 243 559 405 624 507 48 73 67 130 80 233 28 230 54 756 44 884 l-7 84
-117 116 c-96 96 -136 144 -222 276 -126 192 -140 218 -173 331 -97 335 -104
468 -34 683 52 161 116 271 229 394 60 65 63 71 65 121 l1 53 -105 65 c-127
79 -193 135 -225 191 -32 55 -66 162 -122 387 -25 102 -52 195 -60 208 -8 12
-32 33 -52 46 -38 24 -39 26 -77 177 -26 106 -39 182 -42 244 l-3 90 34 -160
c44 -202 50 -223 80 -260 l24 -29 79 74 c145 136 267 190 427 190 105 0 158
-12 204 -47 65 -49 91 -146 92 -341 0 -110 -11 -94 170 -233 144 -111 225
-163 243 -156 22 8 96 162 112 232 13 53 14 75 5 94 -9 20 -8 26 5 34 40 22
87 73 130 142 96 155 217 434 251 580 5 21 8 25 11 13 12 -52 -62 -295 -125
-411 -22 -42 -24 -51 -12 -55 26 -9 181 -92 265 -142 44 -26 105 -60 136 -75
l56 -28 103 58 c122 69 172 85 256 85 85 0 169 -28 297 -100 60 -33 114 -60
121 -60 7 0 17 10 23 22 8 19 11 16 23 -28 14 -51 58 -117 90 -134 15 -8 42 7
142 78 102 73 214 149 288 195 8 5 -1 -5 -20 -23 -60 -55 -315 -244 -371 -274
-30 -16 -110 -82 -179 -146 -124 -117 -256 -230 -268 -230 -3 0 34 37 83 81
50 45 131 124 181 175 95 97 102 112 75 162 -29 54 -271 198 -401 238 -119 37
-239 -2 -410 -131 -57 -44 -102 -115 -145 -230 -74 -195 -161 -298 -286 -336
-60 -18 -78 -20 -128 -11 -75 13 -166 59 -260 131 -41 31 -169 126 -285 212
l-211 156 -5 164 c-5 150 -8 168 -30 209 -41 73 -73 85 -220 85 -122 -1 -127
-2 -200 -36 -89 -43 -168 -93 -230 -147 l-45 -39 22 -54 c13 -30 45 -144 73
-254 69 -273 96 -356 132 -399 32 -39 188 -153 279 -205 31 -17 87 -42 125
-55 147 -52 408 -154 579 -228 206 -90 271 -133 530 -347 115 -95 255 -232
249 -243 -3 -4 -16 -8 -29 -8 -16 0 -56 30 -127 97 -220 206 -397 341 -538
411 -36 17 -184 82 -330 142 -146 61 -280 117 -298 125 -18 8 -41 15 -51 15
-25 0 -145 -128 -202 -215 -90 -136 -163 -309 -189 -449 -40 -215 47 -549 218
-842 92 -159 286 -384 330 -384 7 0 59 -31 115 -69 126 -84 202 -123 315 -161
245 -81 491 -63 717 53 161 83 357 318 493 592 59 118 65 138 91 275 51 267
77 339 142 394 50 42 102 65 279 123 91 30 198 70 237 89 161 77 270 247 203
314 -24 24 -42 25 -104 4 -56 -19 -96 -15 -171 20 -106 48 -184 145 -185 229
0 67 32 109 177 235 76 65 201 176 278 246 77 70 153 134 169 143 21 11 47 13
100 9 237 -19 242 -19 290 3 56 24 194 165 249 254 29 48 37 71 37 109 0 44
-4 53 -43 91 -41 42 -70 59 -191 111 -33 15 -57 28 -54 31 2 2 47 -7 99 -22
146 -40 139 -40 194 9 28 25 140 116 250 203 110 87 246 202 302 256 138 131
389 340 479 399 51 33 114 62 202 91 70 23 132 44 138 46 7 2 29 -14 50 -36
47 -51 74 -53 120 -7 42 42 43 73 4 111 -35 34 -37 53 -10 88 36 45 56 44 104
-7 44 -47 69 -56 108 -35 16 9 48 64 48 84 0 3 -20 27 -45 54 l-45 48 23 20
c54 49 228 159 292 185 39 16 76 36 83 45 34 46 -8 129 -129 257 -63 67 -97
94 -154 122 -89 44 -121 42 -192 -15 -59 -46 -90 -64 -96 -54 -3 5 -8 23 -12
40 -9 42 -54 76 -90 67 -14 -3 -37 -20 -51 -37 -31 -37 -28 -86 7 -123 l22
-24 -23 -25 c-31 -33 -55 -32 -70 5 -14 34 -45 60 -72 60 -10 0 -32 -12 -49
-28 -45 -40 -45 -94 0 -134 l33 -30 -23 -24 c-31 -33 -44 -30 -70 16 -32 56
-61 62 -105 19 -44 -43 -46 -88 -6 -128 l28 -28 -39 -44 c-21 -23 -63 -84 -94
-133 -66 -109 -95 -140 -238 -260 -176 -147 -986 -756 -1006 -756 -5 0 -9 6
-9 14 0 14 -36 46 -51 46 -17 0 -71 -56 -89 -91 -24 -45 -26 -88 -5 -115 21
-27 19 -29 -27 -43 -33 -10 -67 -39 -155 -127 -96 -96 -118 -114 -144 -114
-33 0 -99 17 -217 56 -41 13 -115 29 -165 35 -117 14 -117 14 -210 5 l-77 -8
-136 134 c-75 73 -214 219 -308 323 -178 197 -371 414 -403 452 l-18 22 -55
-67 c-74 -89 -143 -136 -190 -128 -33 5 -220 123 -220 138 0 5 -4 8 -9 8 -5 0
-26 -36 -46 -80 -21 -43 -49 -89 -63 -102 l-24 -23 25 51 c34 68 67 154 67
177 0 36 30 29 92 -21 76 -60 186 -122 217 -122 15 0 57 34 126 101 81 79 108
99 123 95 19 -6 51 22 66 57 3 9 7 8 15 -3 18 -27 72 41 151 189 72 136 94
166 71 100 -6 -18 -9 -35 -6 -38 9 -8 104 90 138 144 l32 50 3 -38 c2 -20 7
-37 11 -37 16 0 61 57 81 103 11 26 25 47 30 47 6 0 10 -20 10 -44 0 -25 5
-48 10 -51 31 -19 63 184 42 273 -5 23 -8 42 -6 42 3 0 13 -19 24 -42 l19 -43
0 36 c1 46 -24 129 -60 201 -34 66 -130 211 -167 250 -45 48 -17 41 47 -13 34
-28 65 -49 68 -45 20 20 -170 213 -252 257 -50 27 -60 44 -17 29 46 -17 -46
61 -111 93 -99 48 -165 60 -311 53 -102 -4 -124 -3 -99 6 39 13 53 38 20 37
-12 -1 -35 -4 -52 -8z m-921 -1397 c3 -8 2 -12 -4 -9 -6 3 -10 10 -10 16 0 14
7 11 14 -7z m66 -196 c21 -99 25 -200 9 -233 -9 -19 -9 -19 -6 1 7 37 -23 236
-58 389 -3 11 4 1 15 -22 11 -23 29 -84 40 -135z m2993 -1059 c34 -17 64 -35
67 -39 3 -4 16 -13 28 -19 13 -7 22 -15 19 -17 -3 -3 -173 89 -186 102 -12 11
16 1 72 -27z m-73 -185 c66 -40 87 -60 49 -49 -29 8 -159 84 -159 92 0 11 51
-9 110 -43z m-810 16 c0 -5 -4 -10 -9 -10 -6 0 -13 5 -16 10 -3 6 1 10 9 10 9
0 16 -4 16 -10z m-1135 -731 c331 -47 450 -99 602 -264 45 -49 80 -91 78 -93
-7 -8 -53 24 -115 80 -143 129 -262 184 -530 241 -91 20 -183 43 -205 52 l-40
15 35 -5 c19 -3 98 -15 175 -26z m588 -378 c57 -35 87 -77 87 -121 0 -55 -8
-68 -52 -91 -46 -23 -67 -19 -96 20 -18 24 -18 28 -4 27 9 0 24 -9 34 -18 10
-10 22 -18 26 -18 19 0 42 27 48 56 8 41 -25 79 -111 129 -36 22 -61 42 -54
45 17 11 83 -5 122 -29z m-68 -371 c-70 -72 -156 -97 -228 -67 -33 14 -101 67
-94 73 2 2 32 -8 68 -22 85 -35 140 -30 211 19 71 48 91 47 43 -3z m-947 -133
c55 -54 153 -178 241 -306 49 -72 66 -126 37 -119 -7 2 -69 75 -137 163 -68
88 -177 215 -241 282 -65 67 -118 125 -118 128 0 14 171 -102 218 -148z m362
-673 c0 -13 -2 -24 -5 -24 -8 0 -35 59 -35 77 1 29 40 -24 40 -53z m400 -63
c0 -10 -6 -23 -13 -30 -11 -8 -13 -5 -9 19 5 33 22 41 22 11z m-736 -209 c7
-48 -6 -60 -33 -26 -24 30 -26 45 -10 61 19 19 36 4 43 -35z m307 -78 c28 -14
49 -28 46 -31 -10 -9 -74 17 -92 37 -24 26 -14 25 46 -6z"/>
<path d="M8953 8294 c-27 -21 -33 -32 -33 -64 0 -31 6 -43 29 -59 37 -27 59
-26 93 2 41 33 46 76 13 115 -32 39 -59 40 -102 6z"/>
<path d="M5548 4879 c-59 -31 -80 -87 -133 -347 -35 -170 -54 -234 -109 -369
-37 -89 -35 -133 8 -171 19 -16 58 -39 88 -50 29 -11 98 -40 153 -64 55 -25
141 -57 190 -72 50 -15 94 -32 100 -37 5 -6 14 -26 20 -46 14 -49 49 -73 118
-80 31 -3 61 -11 65 -17 5 -6 22 -58 37 -116 30 -114 42 -142 87 -208 17 -24
55 -100 85 -170 31 -70 80 -167 111 -217 30 -49 121 -203 202 -341 82 -138
180 -299 218 -357 38 -58 77 -125 85 -149 21 -59 64 -205 72 -248 10 -48 40
-104 79 -148 45 -50 56 -74 56 -119 0 -23 12 -61 30 -96 l31 -57 2 -198 c2
-235 4 -238 105 -284 84 -38 273 -79 377 -81 76 -2 80 -1 83 21 2 12 10 22 18
22 8 0 79 -20 157 -44 250 -78 425 -106 658 -108 175 -1 367 25 433 59 28 15
29 16 22 76 -17 164 -94 232 -390 343 -207 77 -399 214 -524 373 -54 70 -70
99 -89 164 -12 43 -47 129 -77 190 -35 74 -56 131 -60 168 -10 79 -38 130
-190 349 -146 208 -221 348 -279 516 -41 116 -77 191 -177 365 -40 68 -132
246 -205 395 -73 148 -151 299 -172 335 -22 35 -54 92 -73 127 -47 89 -131
162 -306 266 -82 49 -217 136 -301 193 -150 102 -351 209 -447 238 -66 20
-113 18 -158 -6z"/>
</g>
</svg>
