<?xml version="1.0" standalone="no"?>
<!DOCTYPE svg PUBLIC "-//W3C//DTD SVG 20010904//EN"
 "http://www.w3.org/TR/2001/REC-SVG-20010904/DTD/svg10.dtd">
<svg version="1.0" xmlns="http://www.w3.org/2000/svg"
 width="1024.000000pt" height="1024.000000pt" viewBox="0 0 1024.000000 1024.000000"
 preserveAspectRatio="xMidYMid meet">
<metadata>
Created by potrace 1.16, written by Peter Selinger 2001-2019
</metadata>
<g transform="translate(0.000000,1024.000000) scale(0.100000,-0.100000)"
fill="#000000" stroke="none">
<path d="M4510 9365 c-30 -13 -106 -35 -168 -50 -73 -18 -128 -38 -156 -56
-59 -40 -134 -121 -142 -156 -3 -15 -28 -73 -55 -128 -54 -110 -73 -176 -91
-308 -9 -69 -9 -95 1 -123 15 -42 1 -123 -29 -169 -19 -29 -19 -30 1 -51 l21
-22 -48 -32 c-58 -40 -196 -88 -424 -145 -291 -73 -346 -100 -459 -220 -112
-121 -185 -247 -445 -777 -178 -362 -248 -515 -338 -737 -72 -180 -76 -231
-26 -331 35 -70 64 -101 330 -348 98 -90 178 -168 178 -173 0 -4 -22 -37 -48
-72 -70 -92 -107 -161 -141 -262 -42 -129 -55 -233 -48 -399 14 -331 131 -612
350 -843 127 -134 275 -225 454 -280 79 -24 104 -27 243 -27 91 0 180 5 215
12 211 46 385 139 509 273 80 86 98 114 211 337 86 169 106 202 143 229 24 18
60 37 81 43 22 6 127 10 233 10 144 -1 213 3 263 15 156 36 258 133 197 188
-10 9 -46 25 -80 36 -117 36 -174 104 -175 211 -1 148 127 263 405 364 126 45
452 144 504 152 31 5 53 1 90 -16 63 -29 114 -28 284 4 82 16 169 26 225 26
109 0 148 10 213 54 61 42 142 83 252 126 75 30 94 43 167 115 112 111 142
182 108 249 -9 16 -14 30 -13 31 7 4 659 251 707 268 52 17 57 18 98 2 24 -10
54 -15 66 -12 20 5 128 44 216 79 26 10 35 10 38 1 12 -33 51 -78 71 -81 46
-7 63 29 39 81 -9 20 -17 26 -32 22 -11 -2 -31 -7 -45 -11 l-25 -5 25 15 c14
8 110 48 213 88 103 40 197 81 208 91 11 11 19 31 19 52 0 40 -111 331 -141
369 -26 34 -67 34 -137 1 -30 -14 -58 -25 -63 -25 -5 0 -12 18 -15 41 -4 22
-15 50 -24 62 -15 18 -22 20 -46 12 -41 -15 -45 -64 -9 -111 24 -31 25 -35 8
-41 -10 -3 -42 -17 -72 -30 -29 -12 -55 -23 -56 -23 -1 0 -5 17 -8 38 -12 74
-67 108 -100 62 -18 -26 -11 -63 20 -96 13 -14 23 -27 21 -28 -2 -1 -28 -13
-58 -25 -30 -13 -61 -25 -67 -28 -9 -4 -13 6 -13 29 0 46 -24 78 -59 78 -16 0
-34 -7 -41 -15 -15 -18 -5 -66 21 -93 l19 -22 -49 -25 c-27 -13 -76 -46 -108
-73 -32 -27 -69 -56 -83 -65 -14 -9 -184 -79 -379 -157 -311 -123 -356 -139
-370 -126 -40 35 -122 38 -157 5 -14 -13 -26 -39 -30 -66 -4 -28 -13 -47 -23
-50 -9 -3 -149 -58 -311 -122 -275 -107 -301 -115 -376 -119 -265 -13 -520
179 -588 442 -13 53 -13 62 0 89 20 37 16 54 -45 242 -27 83 -77 251 -111 375
-109 400 -119 425 -187 500 -36 41 -131 110 -231 168 -87 51 -87 52 -53 99 17
23 46 73 65 111 20 39 39 73 44 76 5 3 26 1 46 -5 49 -13 65 0 113 98 29 58
39 71 49 62 18 -15 34 24 44 106 4 33 15 77 24 99 25 56 26 200 2 244 -9 19
-20 66 -23 105 -7 90 -37 151 -99 205 -25 23 -58 61 -73 84 -32 50 -110 122
-161 148 -57 29 -172 50 -270 50 -50 0 -99 4 -108 9 -40 20 -69 19 -122 -4z
m-1435 -3185 l7 -255 212 0 c238 0 253 -2 486 -77 181 -58 262 -69 338 -44 74
25 151 85 227 176 127 154 249 217 404 208 89 -5 171 -38 260 -106 30 -23 56
-40 57 -39 2 1 -4 72 -11 157 -8 85 -17 187 -19 225 l-5 70 27 -85 c40 -122
93 -226 162 -319 95 -129 121 -180 118 -236 -5 -84 2 -83 404 39 509 155 493
143 -62 -47 -282 -97 -903 -337 -924 -358 -6 -5 -3 -52 8 -121 9 -62 19 -130
22 -150 4 -24 2 -38 -5 -38 -6 0 -11 12 -11 26 0 29 -18 98 -57 218 l-26 80
21 16 c11 10 140 57 286 106 146 49 266 94 266 100 0 21 -105 168 -169 236
-172 183 -371 235 -555 144 -62 -30 -97 -59 -203 -165 -147 -146 -189 -171
-299 -179 -59 -4 -93 1 -195 28 -285 75 -275 74 -531 74 l-237 1 -32 30 c-40
38 -244 281 -259 310 -11 20 2 49 110 251 67 126 132 246 144 268 l21 39 6
-164 c4 -90 10 -279 14 -419z"/>
<path d="M8703 6554 c-39 -17 -40 -21 -10 -65 29 -43 60 -49 82 -16 15 23 14
28 -1 61 -19 40 -24 41 -71 20z"/>
<path d="M8273 6389 c-40 -18 -42 -21 -30 -42 23 -41 40 -57 62 -57 42 0 57
42 33 95 -13 29 -11 29 -65 4z"/>
<path d="M5144 5128 c-22 -42 -29 -66 -29 -113 1 -86 17 -106 141 -165 56 -27
108 -58 113 -69 14 -26 13 -71 -2 -97 -58 -102 -323 -183 -545 -168 -98 7
-176 -6 -230 -38 -50 -31 -101 -107 -195 -289 l-84 -166 131 -6 c144 -6 177
-13 396 -95 116 -43 637 -247 1185 -465 l160 -64 50 -93 c47 -87 54 -95 109
-124 57 -30 59 -33 86 -106 47 -130 254 -597 485 -1095 58 -126 115 -264 127
-305 25 -93 47 -136 97 -194 77 -89 106 -229 77 -370 -31 -150 -17 -225 51
-270 63 -41 142 -57 288 -55 201 2 223 0 289 -28 100 -42 166 -63 268 -83 282
-58 645 -40 745 36 30 23 33 30 33 80 0 91 -35 146 -112 178 -21 9 -90 30
-155 47 -191 50 -303 120 -481 297 -131 131 -189 217 -202 297 -13 79 -26 116
-76 216 -23 47 -52 126 -63 175 -12 49 -49 152 -82 229 -34 77 -101 230 -149
340 -48 110 -181 414 -295 675 -114 261 -219 498 -233 525 -64 129 -145 201
-633 567 -289 216 -366 272 -694 497 -368 252 -517 351 -530 351 -7 0 -25 -24
-41 -52z"/>
<path d="M2647 3908 c-13 -24 -35 -74 -47 -113 -64 -194 -202 -579 -220 -615
-11 -22 -46 -66 -78 -97 -39 -39 -62 -72 -70 -100 -8 -27 -37 -70 -77 -115
-65 -73 -154 -200 -432 -613 -81 -121 -167 -246 -190 -279 -24 -32 -50 -82
-58 -111 -9 -28 -40 -94 -71 -145 -31 -53 -60 -116 -65 -144 -14 -66 -67 -163
-198 -361 -129 -196 -155 -254 -156 -351 0 -63 3 -75 29 -108 38 -51 99 -75
222 -88 119 -14 228 -3 336 33 117 38 187 120 188 219 0 77 20 170 46 222 26
51 80 109 178 192 76 64 110 112 132 188 14 46 32 77 69 118 150 164 308 357
530 645 76 99 163 207 194 240 63 69 171 231 470 710 118 187 220 347 227 356
8 8 14 17 14 20 0 2 -80 4 -178 5 -166 0 -182 2 -262 28 -159 53 -301 134
-427 246 -37 33 -70 60 -74 60 -4 0 -18 -19 -32 -42z"/>
</g>
</svg>
