<?xml version="1.0" standalone="no"?>
<!DOCTYPE svg PUBLIC "-//W3C//DTD SVG 20010904//EN"
 "http://www.w3.org/TR/2001/REC-SVG-20010904/DTD/svg10.dtd">
<svg version="1.0" xmlns="http://www.w3.org/2000/svg"
 width="1024.000000pt" height="1024.000000pt" viewBox="0 0 1024.000000 1024.000000"
 preserveAspectRatio="xMidYMid meet">
<metadata>
Created by potrace 1.16, written by Peter Selinger 2001-2019
</metadata>
<g transform="translate(0.000000,1024.000000) scale(0.100000,-0.100000)"
fill="#000000" stroke="none">
<path d="M4240 10023 c-8 -3 -27 -14 -42 -25 -16 -11 -29 -15 -33 -8 -13 21
-46 9 -66 -22 -20 -33 -22 -94 -3 -199 6 -34 4 -36 -26 -42 -17 -4 -41 -2 -53
4 -17 9 -23 8 -34 -7 -22 -31 -20 -161 4 -207 12 -25 12 -34 -2 -78 -9 -27
-18 -49 -20 -49 -2 0 -13 20 -24 44 -20 46 -62 83 -81 71 -16 -10 -5 -63 26
-133 13 -30 24 -60 24 -68 0 -24 -20 -26 -39 -3 -22 27 -41 18 -41 -21 0 -36
48 -94 101 -121 67 -34 66 -57 -16 -399 -31 -129 -63 -264 -71 -300 -9 -38
-29 -86 -50 -115 -25 -37 -43 -83 -65 -170 -29 -114 -31 -127 -25 -257 5 -120
3 -152 -19 -255 -35 -174 -102 -452 -121 -509 -19 -58 -54 -124 -66 -124 -5 0
-26 12 -48 26 -68 45 -102 118 -121 262 -19 147 -44 168 -130 114 -56 -36
-106 -93 -132 -151 -39 -89 -38 -280 3 -540 20 -124 21 -150 11 -199 -18 -82
-79 -202 -161 -317 -82 -115 -109 -164 -138 -255 -59 -182 -54 -373 12 -478
147 -234 722 -399 1095 -316 236 53 331 190 331 477 0 129 -14 220 -65 428
-19 79 -35 163 -35 187 0 53 32 120 94 200 24 32 53 76 65 100 19 38 25 42 59
42 50 0 232 -42 375 -87 94 -29 117 -40 117 -55 0 -36 -41 -275 -71 -413 -67
-307 -198 -615 -399 -937 l-92 -148 29 -25 c15 -13 49 -39 75 -57 26 -18 46
-35 45 -38 -1 -3 -28 -56 -61 -119 -117 -229 -300 -683 -486 -1206 -133 -371
-148 -447 -201 -985 -36 -370 -86 -777 -129 -1056 -17 -109 -37 -239 -45 -289
-8 -49 -18 -116 -23 -147 -12 -79 -88 -202 -182 -299 -59 -60 -95 -86 -170
-125 -244 -125 -252 -268 -15 -290 142 -13 355 44 481 128 67 45 76 48 136 48
123 0 226 45 263 114 16 29 17 46 10 132 -13 158 -11 184 17 244 38 80 44 111
78 375 17 132 44 321 60 420 59 365 99 655 120 860 11 115 25 228 31 249 31
116 292 587 442 797 139 195 353 447 368 432 22 -22 180 -381 309 -703 163
-406 216 -529 342 -789 300 -621 401 -863 578 -1388 61 -181 89 -250 111 -274
50 -56 54 -87 39 -307 -12 -192 -12 -200 7 -243 35 -79 103 -111 233 -110 130
1 209 46 256 146 40 85 31 201 -35 429 -11 37 -25 104 -32 147 -10 73 -10 81
10 119 11 22 21 48 21 58 0 26 -109 336 -293 837 -173 470 -250 635 -397 855
-103 153 -116 188 -144 376 -14 93 -41 295 -61 449 -19 154 -48 384 -64 510
-43 331 -47 385 -30 395 7 5 49 6 94 3 62 -4 83 -2 92 8 7 10 13 116 16 329 6
365 12 408 99 646 l52 147 18 -59 c10 -33 30 -115 44 -184 33 -158 35 -284 5
-475 -12 -77 -35 -241 -51 -365 -17 -124 -37 -250 -45 -281 -7 -30 -45 -120
-84 -198 -63 -127 -71 -150 -71 -200 0 -113 35 -104 104 26 25 48 44 77 41 63
-12 -67 -28 -116 -50 -160 -67 -132 3 -171 170 -95 80 36 115 72 156 160 27
57 59 203 59 269 0 23 10 39 40 66 l41 35 29 160 c17 88 41 234 55 325 13 91
34 209 45 264 39 190 37 357 -9 682 -29 201 -58 463 -76 664 -16 193 -30 258
-69 325 -59 99 -133 152 -359 256 -214 99 -286 156 -317 252 -16 50 -7 89 31
149 61 95 71 176 44 374 -23 178 -57 260 -135 326 -109 94 -263 130 -403 93
-84 -22 -129 -48 -209 -121 -39 -36 -95 -79 -123 -95 -64 -36 -110 -83 -102
-103 5 -13 13 -11 49 13 24 16 44 28 46 27 4 -4 -66 -138 -79 -150 -14 -15
-12 -76 4 -70 6 2 34 38 61 79 27 41 50 75 51 75 2 0 1 -34 -2 -75 -5 -70 -4
-80 27 -146 l33 -71 -17 -57 c-14 -45 -15 -67 -7 -111 16 -92 28 -127 51 -160
13 -18 23 -48 24 -69 l1 -36 -140 0 c-126 0 -148 -3 -220 -27 -106 -37 -225
-47 -425 -38 -259 12 -283 25 -348 193 -92 234 -122 461 -86 648 21 110 14
235 -16 303 l-22 48 17 147 c33 298 87 557 135 651 11 21 32 56 46 77 26 37
26 40 20 153 -8 138 5 221 64 395 22 65 40 136 40 157 0 101 -80 171 -160 141z
m-330 -3053 c38 -88 79 -150 116 -177 l27 -20 -47 -13 c-61 -17 -119 -8 -162
25 -62 47 -66 60 -43 140 10 38 22 99 25 135 8 95 14 102 34 40 9 -30 32 -89
50 -130z"/>
</g>
</svg>
