<?xml version="1.0" standalone="no"?>
<!DOCTYPE svg PUBLIC "-//W3C//DTD SVG 20010904//EN"
 "http://www.w3.org/TR/2001/REC-SVG-20010904/DTD/svg10.dtd">
<svg version="1.0" xmlns="http://www.w3.org/2000/svg"
 width="1024.000000pt" height="1536.000000pt" viewBox="0 0 1024.000000 1536.000000"
 preserveAspectRatio="xMidYMid meet">
<metadata>
Created by potrace 1.16, written by Peter Selinger 2001-2019
</metadata>
<g transform="translate(0.000000,1536.000000) scale(0.100000,-0.100000)"
fill="#000000" stroke="none">
<path d="M5155 13930 c-133 -29 -303 -120 -395 -211 -50 -49 -72 -87 -172
-285 -114 -227 -147 -318 -163 -441 -10 -75 -22 -87 -92 -89 -40 -2 -71 -9
-94 -23 -19 -12 -46 -21 -61 -21 -15 0 -49 -14 -76 -31 -45 -28 -64 -32 -223
-50 -96 -11 -192 -24 -214 -30 -69 -19 -285 -109 -405 -170 -247 -125 -318
-188 -535 -470 -157 -203 -214 -288 -325 -484 -40 -71 -121 -204 -179 -295
-133 -210 -231 -379 -270 -467 -49 -113 -140 -396 -152 -475 -14 -89 0 -150
57 -243 34 -58 36 -63 29 -127 -8 -84 -35 -200 -85 -358 -73 -236 -120 -407
-120 -441 0 -19 9 -49 20 -67 24 -40 25 -69 3 -246 -14 -117 -15 -156 -5 -241
19 -173 110 -413 242 -641 102 -176 96 -156 130 -439 32 -263 120 -824 165
-1058 29 -147 31 -189 10 -221 -18 -27 -21 -57 -11 -113 8 -42 7 -43 -28 -60
-34 -16 -96 -94 -96 -121 0 -6 -23 -38 -50 -71 -68 -82 -90 -121 -261 -462
-382 -764 -572 -1206 -790 -1832 -66 -189 -80 -247 -60 -247 5 0 12 -20 15
-44 5 -34 2 -57 -17 -103 -52 -128 -55 -162 -46 -542 5 -220 -5 -208 195 -222
164 -11 353 -4 372 14 9 10 10 26 3 62 -5 28 -8 51 -6 53 1 2 31 -4 66 -12
314 -72 739 -106 954 -76 160 22 326 79 367 126 30 34 50 94 43 128 -10 46
-50 110 -87 138 -42 32 -71 41 -258 78 -85 17 -188 45 -229 61 -110 44 -238
116 -306 172 l-30 25 -4 132 -3 132 48 121 c92 237 187 455 306 702 227 471
389 773 636 1185 177 294 221 380 246 475 15 61 46 365 46 460 0 64 -11 81
-151 235 -63 69 -139 155 -169 190 -30 36 -57 67 -60 70 -3 3 -23 28 -45 55
-22 28 -123 140 -225 250 -186 202 -312 343 -339 380 -21 29 67 -62 194 -200
61 -65 146 -158 190 -205 44 -47 139 -153 210 -235 314 -360 485 -530 898
-885 100 -87 107 -95 107 -130 0 -27 10 -53 37 -91 l38 -54 7 -220 c8 -261 23
-453 44 -590 35 -222 155 -936 173 -1030 35 -182 110 -508 146 -635 20 -69 43
-163 51 -210 8 -47 24 -101 35 -120 18 -29 22 -61 29 -230 8 -172 14 -220 53
-409 30 -146 50 -218 61 -226 11 -8 32 -9 68 -4 125 20 351 40 442 38 l100 -2
13 58 c11 49 46 125 58 125 2 0 57 -12 122 -27 93 -21 145 -27 248 -27 140 -1
196 10 450 90 319 100 354 117 409 188 39 52 83 150 105 236 l19 75 -62 7
c-33 4 -162 12 -286 17 -294 13 -379 33 -610 144 -143 68 -151 74 -165 128
-27 98 -95 264 -114 279 -49 37 -165 628 -212 1080 -20 198 -32 442 -49 985
-17 565 -28 649 -100 808 -28 63 -119 205 -230 357 -112 155 -244 336 -273
373 l-29 39 21 26 c96 121 183 272 339 592 126 260 152 297 231 332 25 12 105
28 189 40 156 21 252 52 345 112 149 95 201 252 111 337 -21 20 -35 24 -77 22
-246 -10 -291 0 -372 80 -52 53 -95 139 -95 192 l0 24 43 -24 c70 -39 128 -48
200 -30 92 23 109 33 142 78 17 23 40 43 51 45 11 2 43 26 71 55 89 91 135
270 91 356 -10 19 -18 38 -18 44 0 20 143 156 310 295 173 145 204 171 410
348 126 109 399 331 484 395 188 141 334 247 352 257 13 7 48 9 91 5 39 -3 82
-3 97 1 28 7 66 43 66 62 0 23 164 179 217 207 53 28 73 28 73 2 0 -19 28 -8
35 14 2 9 32 37 64 61 70 52 101 101 101 158 0 56 -30 87 -132 141 -55 28 -90
54 -101 73 -15 26 -21 28 -74 28 -37 0 -77 -8 -111 -22 -43 -18 -57 -20 -72
-10 -16 10 -34 3 -119 -42 -55 -29 -116 -57 -136 -60 -73 -14 -85 -25 -86 -75
-1 -25 -3 -37 -6 -26 -2 11 -6 30 -8 42 -6 28 -40 20 -85 -20 -31 -28 -33 -37
-15 -79 5 -13 2 -18 -9 -18 -24 0 -66 -98 -62 -147 2 -21 -4 -55 -12 -75 -8
-21 -11 -45 -8 -54 4 -10 1 -14 -6 -12 -7 3 -14 14 -16 26 -5 32 -18 27 -76
-25 -198 -181 -876 -702 -1361 -1046 -58 -41 -91 -72 -93 -86 -3 -21 -22 -30
-22 -11 0 7 -6 7 -19 0 -26 -13 -29 -13 -33 7 -5 26 -84 -52 -104 -104 -19
-48 -67 -80 -104 -68 -27 8 -76 61 -99 105 -27 51 -45 166 -39 251 6 96 29
140 127 243 84 89 107 139 92 193 -5 16 -29 66 -54 109 -41 73 -145 340 -323
837 -65 179 -72 211 -54 222 15 9 12 61 -11 170 -24 114 -53 190 -81 209 -16
11 -16 15 -4 25 8 7 12 19 9 26 -3 9 8 21 32 32 l37 18 44 -52 c24 -28 68 -82
97 -119 48 -63 140 -134 172 -134 7 0 23 21 36 47 21 41 32 50 80 69 31 12 76
35 100 51 97 67 171 98 247 104 55 4 78 11 94 26 25 25 48 118 48 198 0 70 22
159 45 184 20 23 80 41 134 41 36 0 42 3 55 33 8 17 44 63 79 101 l64 69 21
-21 21 -21 36 37 c44 46 91 141 100 203 8 56 -8 168 -35 247 -21 60 -114 249
-193 391 -85 153 -113 182 -332 340 -108 78 -262 130 -405 136 -52 2 -113 0
-135 -5z m-547 -2007 c-10 -2 -26 -2 -35 0 -10 3 -2 5 17 5 19 0 27 -2 18 -5z
m-965 -490 c-22 -26 -75 -95 -118 -153 -43 -58 -149 -193 -235 -300 -86 -107
-198 -251 -249 -320 -50 -69 -108 -145 -127 -169 -19 -24 -34 -49 -34 -56 0
-6 -11 -22 -25 -35 -14 -13 -25 -27 -25 -32 0 -5 23 -44 52 -86 133 -198 479
-589 577 -651 l46 -29 195 13 c107 8 227 20 265 26 91 16 183 57 218 98 15 18
58 94 95 170 72 143 133 241 226 356 31 39 63 88 71 110 8 22 23 112 34 200
20 160 121 630 132 617 3 -4 50 -155 104 -337 53 -181 100 -335 102 -342 3 -8
-3 -13 -19 -13 -33 0 -117 -32 -195 -76 -81 -44 -221 -180 -311 -303 -34 -46
-92 -144 -129 -218 -81 -161 -108 -195 -182 -232 -84 -42 -196 -63 -416 -76
-55 -3 -113 -9 -128 -12 l-29 -5 34 -35 c18 -19 94 -87 168 -151 74 -64 191
-174 260 -243 122 -124 190 -175 342 -259 129 -72 267 -246 319 -405 31 -93
31 -167 0 -233 -30 -64 -39 -62 -11 2 75 175 -89 485 -330 625 -125 73 -200
130 -315 241 -60 58 -164 154 -230 212 -66 59 -142 127 -170 153 -27 26 -103
88 -168 137 -91 69 -142 118 -225 215 -298 350 -445 568 -382 568 8 0 21 13
29 30 16 34 329 452 405 540 51 59 119 144 292 363 115 147 118 151 123 146 2
-2 -14 -25 -36 -51z m4140 -48 c-10 -7 -43 -21 -73 -30 -30 -9 -68 -23 -83
-31 -16 -7 -48 -14 -72 -14 -24 0 -56 -6 -72 -14 -15 -8 -44 -21 -63 -29 -162
-67 -217 -92 -230 -101 -8 -6 -25 -17 -37 -24 -20 -11 -23 -10 -23 7 0 26 18
38 102 71 121 46 226 88 245 98 10 5 32 16 49 25 52 27 118 46 190 55 77 9 94
6 67 -13z m-5408 -1801 c314 -289 650 -558 840 -672 38 -23 64 -42 59 -42 -14
0 -163 90 -242 147 -281 200 -857 706 -902 794 -7 13 36 -24 96 -83 60 -59
127 -124 149 -144z m286 -559 c-46 -148 -65 -266 -65 -415 0 -80 6 -174 13
-209 31 -157 112 -386 200 -560 64 -128 236 -420 325 -551 84 -125 238 -284
318 -329 139 -78 297 -109 461 -92 162 18 252 50 351 126 27 20 50 34 52 32 6
-6 -56 -55 -113 -91 -108 -67 -328 -107 -476 -87 -102 14 -219 53 -297 98
-135 79 -259 237 -522 663 -181 293 -303 622 -327 885 -15 154 16 387 70 536
28 76 34 72 10 -6z m704 -195 c15 -6 25 -13 22 -16 -6 -6 -67 23 -67 32 0 3 4
3 9 0 4 -3 21 -10 36 -16z m162 -80 c52 -30 98 -82 183 -210 68 -102 142 -187
243 -278 59 -54 69 -71 13 -26 -88 73 -195 190 -258 284 -98 145 -152 207
-207 235 -25 13 -41 24 -36 24 6 1 33 -13 62 -29z m1043 -580 c0 -5 -2 -10 -4
-10 -3 0 -8 5 -11 10 -3 6 -1 10 4 10 6 0 11 -4 11 -10z m-416 -102 c69 -105
97 -132 130 -126 14 3 23 1 20 -3 -8 -14 -43 -10 -71 8 -21 14 -143 183 -143
199 0 14 15 -5 64 -78z m296 -28 c-19 -17 -39 -30 -44 -30 -11 0 -6 5 38 38
42 32 47 26 6 -8z"/>
<path d="M8218 3423 c-9 -10 -20 -28 -27 -40 -10 -19 -22 -22 -128 -28 -206
-12 -234 -23 -379 -141 -165 -135 -233 -152 -758 -189 -120 -9 -227 -20 -238
-26 -22 -12 -61 -92 -88 -181 l-18 -58 25 0 c30 0 480 66 543 80 25 6 61 13
80 16 l35 5 -26 -15 c-15 -9 -46 -17 -70 -20 -24 -2 -69 -10 -99 -16 -30 -6
-84 -15 -120 -20 -36 -5 -108 -16 -160 -24 -52 -8 -121 -17 -153 -21 -56 -6
-58 -8 -91 -59 -52 -82 -125 -148 -212 -193 -110 -57 -317 -127 -469 -158 -71
-14 -140 -33 -154 -40 -28 -15 -53 -35 -202 -156 -183 -149 -188 -157 -191
-305 -1 -90 0 -98 21 -116 13 -10 36 -18 51 -18 16 0 93 -11 172 -24 322 -55
807 -140 1203 -211 439 -78 515 -86 568 -59 39 21 143 113 437 388 123 116
335 315 470 441 135 127 320 305 412 396 187 184 212 222 230 352 13 92 4 294
-16 340 -28 69 -34 70 -303 54 -242 -14 -263 -12 -263 22 0 40 -54 55 -82 24z
m472 -78 c-16 -15 -207 -185 -589 -523 -354 -313 -443 -392 -646 -577 -102
-93 -203 -178 -223 -187 -72 -34 -549 -20 -952 27 -142 16 -312 43 -319 51 -7
6 6 5 165 -15 204 -26 333 -39 504 -51 163 -11 505 -13 564 -3 30 5 57 24 130
92 98 93 229 210 531 471 105 91 240 210 301 265 61 55 157 141 214 190 57 50
122 106 144 126 91 79 177 149 183 149 4 0 1 -7 -7 -15z m-490 -174 c0 -12
-25 -21 -58 -21 -25 0 -25 1 -6 15 21 16 64 20 64 6z m-427 -233 c22 2 37 -1
37 -7 0 -6 -18 -11 -39 -11 l-40 0 6 -35 c4 -23 2 -35 -6 -35 -6 0 -11 16 -11
35 l0 35 -45 -7 c-31 -4 -45 -2 -45 6 0 6 18 11 45 11 l45 0 2 53 1 52 6 -50
6 -50 38 3z m-633 -148 c-49 -40 -120 -90 -120 -86 0 6 133 106 140 106 3 0
-6 -9 -20 -20z m255 -59 c3 -5 1 -12 -5 -16 -5 -3 -10 1 -10 9 0 18 6 21 15 7z
m5 -67 l0 -36 45 6 c29 5 45 4 45 -3 0 -6 -13 -11 -29 -11 -50 0 -61 -9 -61
-51 0 -21 -4 -39 -10 -39 -5 0 -10 18 -10 40 l0 40 -47 1 -48 2 48 10 c45 10
47 12 47 44 0 18 5 33 10 33 6 0 10 -16 10 -36z m-505 -83 c-6 -5 -37 -28 -70
-52 -33 -25 -106 -81 -163 -127 -56 -45 -113 -84 -125 -86 -60 -13 -101 -17
-95 -10 4 4 31 11 59 15 44 7 65 20 151 90 55 44 132 103 171 130 68 46 93 60
72 40z m335 -160 c0 -40 0 -40 43 -43 l42 -4 -42 -8 c-40 -8 -43 -11 -43 -42
0 -19 -5 -34 -11 -34 -7 0 -10 14 -7 35 4 34 3 35 -32 36 l-35 2 34 6 c33 6
35 8 34 49 0 23 3 42 8 42 5 0 9 -18 9 -39z m-260 -41 c0 -38 2 -40 33 -42
l32 -1 -32 -4 c-29 -4 -33 -8 -33 -33 0 -16 -4 -32 -10 -35 -6 -4 -10 9 -10
31 0 35 -1 36 -30 32 -17 -3 -33 -1 -36 4 -3 4 11 8 30 8 35 0 36 1 36 40 0
22 5 40 10 40 6 0 10 -18 10 -40z m-792 -67 c-32 -2 -86 -2 -120 0 -35 2 -9 3
57 3 66 0 94 -1 63 -3z m210 -10 c-10 -2 -26 -2 -35 0 -10 3 -2 5 17 5 19 0
27 -2 18 -5z"/>
<path d="M7555 3373 c-16 -2 -136 -7 -265 -12 -311 -12 -298 -6 -481 -184
l-142 -137 149 5 c310 11 592 43 678 76 68 27 119 65 205 152 96 97 93 108
-26 105 -48 0 -101 -3 -118 -5z"/>
</g>
</svg>
