<?xml version="1.0" standalone="no"?>
<!DOCTYPE svg PUBLIC "-//W3C//DTD SVG 20010904//EN"
 "http://www.w3.org/TR/2001/REC-SVG-20010904/DTD/svg10.dtd">
<svg version="1.0" xmlns="http://www.w3.org/2000/svg"
 width="1024.000000pt" height="1024.000000pt" viewBox="0 0 1024.000000 1024.000000"
 preserveAspectRatio="xMidYMid meet">
<metadata>
Created by potrace 1.16, written by Peter Selinger 2001-2019
</metadata>
<g transform="translate(0.000000,1024.000000) scale(0.100000,-0.100000)"
fill="#000000" stroke="none">
<path d="M3805 9440 c-109 -7 -135 -19 -242 -110 -45 -39 -90 -70 -100 -70
-22 -1 -45 -18 -65 -50 -19 -29 -62 -230 -80 -371 -11 -87 -10 -105 11 -215
13 -65 29 -137 36 -159 21 -62 34 -150 28 -176 -4 -13 -13 -34 -21 -47 -22
-35 -153 -117 -208 -131 -97 -25 -350 -115 -418 -148 -91 -46 -159 -111 -195
-187 -19 -39 -44 -131 -70 -251 -22 -104 -56 -256 -75 -336 -55 -225 -58 -242
-40 -285 12 -29 13 -49 5 -107 -15 -103 -36 -424 -36 -547 0 -159 22 -194 229
-365 184 -152 453 -383 461 -395 4 -7 -12 -32 -42 -63 -109 -114 -181 -228
-203 -326 -32 -140 30 -421 158 -711 54 -124 55 -125 49 -200 -11 -132 -107
-605 -153 -750 -18 -56 -37 -92 -80 -145 -31 -38 -81 -107 -111 -152 -33 -51
-61 -83 -72 -83 -9 0 -31 -15 -47 -32 -69 -75 -275 -372 -449 -648 -53 -85
-131 -208 -173 -274 -42 -65 -90 -153 -106 -195 -17 -42 -53 -116 -80 -165
-30 -55 -79 -176 -128 -320 -107 -311 -118 -348 -125 -443 -5 -72 -3 -85 16
-116 28 -46 77 -65 188 -73 121 -8 400 11 429 31 47 30 48 119 5 259 -11 37
-21 88 -21 113 0 41 5 50 43 87 24 22 62 56 85 74 50 40 79 92 93 170 6 31 17
69 25 84 8 15 89 116 181 225 173 204 251 298 623 750 l216 261 202 404 c111
221 217 424 236 449 30 41 43 49 116 73 95 32 173 76 252 143 55 47 191 196
236 261 13 17 30 32 38 32 31 0 145 -67 372 -220 395 -264 636 -453 813 -637
138 -145 172 -197 224 -342 24 -67 60 -152 80 -189 21 -37 89 -161 153 -277
63 -115 157 -286 210 -380 116 -208 153 -287 202 -433 23 -69 53 -136 77 -169
21 -31 46 -67 55 -82 15 -22 18 -50 18 -177 0 -176 14 -238 60 -278 39 -33 63
-36 250 -40 124 -3 175 -9 255 -29 188 -47 233 -52 420 -51 334 2 423 43 371
169 -19 45 -76 85 -216 152 -149 71 -210 116 -351 260 -128 130 -157 176 -188
301 -26 103 -56 163 -124 243 -68 80 -80 105 -106 208 -22 88 -88 231 -404
866 -98 198 -208 419 -244 492 -58 117 -89 162 -286 415 -375 482 -609 790
-614 807 -2 9 15 35 41 62 83 86 84 180 2 222 -36 19 -44 19 -133 7 -163 -22
-244 9 -315 119 -15 25 -28 52 -28 61 0 36 174 159 396 278 71 38 191 105 265
148 240 140 203 129 439 130 201 1 207 1 300 32 106 35 172 72 212 121 30 35
58 116 58 168 0 18 10 63 22 100 33 103 93 156 298 268 91 49 199 109 240 134
l75 45 156 6 c178 6 185 9 248 94 39 53 94 86 142 86 11 0 52 7 90 16 121 27
171 106 139 221 -25 89 -69 118 -189 127 -46 3 -69 10 -85 25 -30 28 -47 26
-81 -9 -19 -20 -35 -28 -47 -24 -13 4 -19 -2 -24 -23 -12 -57 -16 -63 -34 -63
-21 0 -40 28 -40 59 0 36 -36 26 -108 -29 -23 -17 -34 -35 -38 -61 -8 -47 -27
-55 -63 -28 -49 36 -88 7 -106 -81 -4 -19 -19 -48 -34 -64 -15 -16 -136 -83
-291 -161 -146 -73 -301 -154 -344 -179 -106 -60 -130 -65 -165 -32 -29 28
-60 34 -62 14 -2 -20 -2 -21 5 -45 6 -20 -1 -26 -62 -57 -37 -19 -117 -64
-176 -100 -125 -76 -204 -108 -261 -107 -52 0 -123 31 -447 190 -285 141 -304
154 -353 251 -28 56 -75 193 -75 221 0 14 10 20 40 25 53 9 52 23 -8 115 -60
93 -152 261 -271 496 -136 268 -205 333 -432 408 -60 20 -112 41 -115 47 -4 5
3 23 15 39 11 15 21 30 21 33 0 3 11 22 25 42 14 20 25 45 25 54 0 10 11 25
25 34 30 20 75 105 75 143 0 16 -7 39 -17 52 -19 27 -22 103 -5 123 6 8 14 38
18 68 7 60 57 160 79 160 24 0 75 51 75 75 0 12 9 42 20 66 31 70 27 93 -24
129 -32 23 -49 45 -61 78 -27 76 -28 78 -73 127 -46 49 -172 115 -219 115 -13
0 -33 5 -44 11 -66 35 -202 49 -364 39z m-816 -3015 c11 -33 25 -98 31 -145 7
-47 15 -101 17 -120 5 -34 4 -34 -45 30 -28 36 -78 92 -111 124 -57 56 -61 62
-61 105 0 46 24 110 58 159 11 15 25 45 32 67 l13 39 24 -99 c13 -55 32 -127
42 -160z m1652 73 c18 -35 49 -89 70 -120 22 -31 36 -59 31 -61 -4 -3 -27 -8
-52 -12 l-45 -7 -18 49 c-17 48 -35 213 -24 213 4 0 21 -28 38 -62z m546 -462
c59 -24 126 -49 148 -56 65 -21 78 -41 36 -58 -37 -16 -240 -127 -298 -164
-34 -22 -70 -38 -80 -36 -50 9 -67 176 -26 254 31 59 72 104 93 104 11 0 68
-20 127 -44z"/>
</g>
</svg>
