<?xml version="1.0" standalone="no"?>
<!DOCTYPE svg PUBLIC "-//W3C//DTD SVG 20010904//EN"
 "http://www.w3.org/TR/2001/REC-SVG-20010904/DTD/svg10.dtd">
<svg version="1.0" xmlns="http://www.w3.org/2000/svg"
 width="1024.000000pt" height="1536.000000pt" viewBox="0 0 1024.000000 1536.000000"
 preserveAspectRatio="xMidYMid meet">
<metadata>
Created by potrace 1.16, written by Peter Selinger 2001-2019
</metadata>
<g transform="translate(0.000000,1536.000000) scale(0.100000,-0.100000)"
fill="#000000" stroke="none">
<path d="M4816 13756 c-14 -19 -26 -41 -26 -50 0 -22 -49 -28 -125 -16 -131
21 -297 -19 -420 -101 -96 -64 -158 -144 -179 -231 -3 -15 -41 -64 -84 -110
-43 -46 -89 -99 -103 -118 -63 -90 -82 -178 -55 -259 11 -36 13 -56 6 -68 -27
-50 -43 -106 -51 -183 -27 -264 -24 -312 18 -354 14 -14 30 -26 34 -26 13 0
11 32 -5 77 -9 25 -11 53 -7 74 l7 34 18 -60 c10 -33 25 -72 33 -88 20 -39 83
-107 99 -107 27 0 24 21 -10 80 -19 32 -38 76 -41 97 l-6 38 14 -30 c21 -44
116 -139 164 -164 50 -25 103 -28 103 -6 0 8 -4 15 -10 15 -16 0 -104 101
-119 136 -11 30 -11 37 3 59 17 26 36 33 36 15 0 -17 64 -112 98 -147 39 -39
118 -93 136 -93 26 0 49 -42 82 -150 18 -61 40 -122 48 -135 20 -31 59 -41 94
-25 26 11 30 9 76 -42 72 -79 90 -88 169 -88 77 0 113 -15 195 -79 62 -49 99
-53 149 -16 41 32 103 122 142 208 42 91 88 120 125 78 16 -17 16 -27 5 -98
-16 -105 -6 -168 31 -203 l29 -27 -14 -169 c-27 -327 -46 -467 -66 -496 -58
-81 -89 -204 -70 -274 12 -44 1 -64 -34 -64 -49 0 -91 -53 -130 -165 -19 -55
-26 -63 -83 -100 -60 -38 -201 -132 -562 -373 -260 -173 -439 -264 -610 -310
-90 -24 -109 -26 -365 -27 -174 0 -281 -5 -300 -12 -16 -6 -55 -14 -85 -18
-111 -13 -189 -69 -277 -198 -32 -46 -47 -59 -169 -137 -65 -42 -130 -54 -153
-27 -6 8 -30 20 -53 27 -41 12 -42 13 -19 22 48 17 0 34 -234 77 -88 17 -266
46 -395 66 -129 19 -284 44 -345 54 -336 60 -388 53 -443 -59 l-27 -55 0 -350
c0 -369 6 -435 46 -471 13 -12 19 -31 20 -63 0 -64 23 -187 38 -205 38 -46
215 -46 416 -1 66 15 124 28 129 28 12 3 65 -126 550 -1342 l425 -1064 -16
-36 c-50 -116 -65 -175 -58 -242 6 -64 4 -70 -59 -225 -109 -268 -583 -1458
-661 -1659 -41 -104 -126 -323 -190 -485 -63 -162 -140 -363 -171 -446 l-56
-153 -167 -59 c-91 -32 -196 -69 -233 -81 -122 -40 -170 -91 -171 -180 -1 -56
19 -92 66 -122 26 -16 44 -19 92 -16 50 4 109 26 340 127 370 161 679 305 738
342 63 40 79 71 68 136 -14 92 -57 129 -136 118 -22 -3 -86 -25 -143 -50 -56
-26 -105 -46 -107 -46 -16 0 17 89 293 790 90 230 720 1807 741 1855 8 17 12
13 31 -30 27 -62 252 -621 595 -1475 145 -360 333 -830 420 -1043 86 -214 155
-390 153 -392 -16 -14 -107 -51 -213 -86 -130 -43 -174 -70 -200 -120 -29 -55
-12 -131 40 -179 40 -37 116 -34 215 9 195 84 828 433 873 481 35 39 37 102 4
151 -44 65 -107 74 -183 27 -48 -30 -294 -168 -300 -168 -2 0 -4 6 -4 14 0 8
-81 216 -181 463 -99 246 -358 891 -575 1433 l-395 985 7 70 c11 107 7 141
-32 256 l-36 106 82 214 c77 201 152 396 220 569 43 112 394 1000 500 1269
l93 234 76 -7 c168 -14 301 -18 374 -11 99 9 132 32 141 102 4 27 16 95 28
152 33 168 16 205 -118 242 -126 35 -273 69 -306 70 -24 1 -27 3 -10 6 12 2
22 7 22 11 0 10 -190 83 -215 82 -11 0 -39 7 -63 15 -49 17 -170 24 -226 12
-38 -8 -38 -8 -32 17 5 21 3 26 -11 26 -15 0 -16 -2 -3 -10 9 -6 10 -10 3 -10
-6 0 -15 4 -18 10 -3 5 -20 14 -38 18 -31 9 -30 10 43 32 94 29 218 31 343 6
183 -38 307 -7 422 103 74 71 85 74 375 96 113 9 243 20 290 26 128 16 366 65
450 93 109 35 116 36 112 7 -3 -19 0 -22 13 -17 9 3 27 8 38 10 12 3 34 7 49
10 22 5 26 3 22 -9 -16 -41 59 -2 158 83 40 34 109 84 153 110 73 43 126 95
175 170 15 23 16 22 92 -85 121 -169 239 -314 305 -372 l61 -54 -14 -33 c-19
-46 -19 -220 1 -257 14 -27 13 -30 -14 -53 -34 -28 -71 -102 -71 -142 0 -20
-13 -42 -42 -74 -54 -57 -175 -261 -413 -698 -104 -190 -236 -430 -293 -535
-383 -695 -458 -866 -469 -1080 -7 -137 24 -405 70 -610 l32 -140 3 -820 3
-819 -33 -121 c-28 -105 -32 -137 -33 -255 -1 -108 -5 -142 -20 -169 -42 -81
-105 -322 -105 -400 0 -17 -10 -37 -26 -52 -14 -13 -72 -85 -129 -159 -123
-163 -233 -282 -289 -315 -23 -13 -109 -42 -191 -65 -215 -58 -331 -99 -356
-126 -45 -48 -14 -151 57 -191 59 -33 156 -44 393 -44 296 -1 492 31 755 120
50 17 98 31 108 31 10 0 38 -16 64 -35 77 -59 131 -69 339 -61 324 11 331 17
310 278 -6 83 -5 114 6 140 17 42 17 164 0 244 -10 48 -11 80 -2 154 16 130
22 529 10 624 -9 71 -8 86 10 140 26 76 41 213 41 376 0 80 11 211 31 365 26
200 32 286 36 517 7 363 -15 614 -74 861 -21 88 -24 112 -14 130 24 45 38 121
28 157 -11 44 -6 75 33 185 34 94 41 107 126 220 58 78 154 176 154 158 0 -7
-9 -82 -20 -168 -29 -227 -50 -541 -40 -595 22 -116 74 -221 210 -425 391
-587 607 -1025 805 -1635 50 -152 70 -194 111 -225 31 -24 34 -31 34 -78 0
-29 9 -106 20 -172 11 -66 23 -175 26 -242 l7 -121 -79 -88 c-273 -303 -316
-333 -519 -360 -148 -20 -234 -73 -286 -177 -51 -99 -25 -153 90 -187 166 -48
269 -63 461 -64 260 -1 392 29 627 146 l123 60 40 -36 c22 -19 52 -38 67 -42
16 -3 44 -10 63 -15 72 -18 334 -10 422 12 59 15 68 37 68 169 0 202 -33 464
-81 643 -12 43 -19 90 -16 106 7 33 -48 211 -111 361 -21 52 -43 111 -47 130
-19 92 -110 362 -139 415 -18 33 -43 103 -56 155 -62 261 -166 584 -253 785
-105 243 -284 561 -403 715 -36 47 -42 62 -42 105 -1 46 -4 53 -43 88 l-43 38
13 49 c13 51 5 117 -24 201 -13 36 -10 47 70 291 46 139 114 350 153 468 132
410 253 717 343 876 29 49 93 155 144 235 152 238 221 393 259 581 32 158 17
450 -41 769 l-26 146 27 39 c14 21 26 51 26 65 0 70 -124 525 -227 829 -262
780 -595 1365 -1025 1801 -337 340 -818 574 -1248 605 -108 8 -151 21 -224 66
-83 51 -162 40 -230 -31 -60 -63 -116 -19 -80 62 17 36 17 40 1 70 -10 18 -31
41 -48 52 -22 15 -36 38 -53 85 -62 179 -149 296 -259 350 -34 16 -77 47 -97
68 -29 31 -47 40 -110 54 -41 10 -96 20 -122 23 l-48 6 0 55 c0 30 -4 54 -9
54 -5 0 -20 -15 -35 -34z m-1746 -4548 c-50 -45 -114 -88 -131 -88 -38 0 126
123 171 129 3 0 -15 -18 -40 -41z m284 16 c-21 -14 -59 -43 -84 -63 -72 -60
-81 -63 -160 -52 -3 1 7 9 21 19 15 9 55 37 90 62 79 56 85 58 133 59 l39 1
-39 -26z m130 -95 c-21 -23 -114 -74 -114 -62 1 9 110 82 124 83 5 0 1 -9 -10
-21z m-707 -818 c39 -6 98 -20 130 -32 138 -51 137 -51 467 -44 259 6 308 5
303 -6 -10 -24 -280 -703 -397 -999 -341 -863 -419 -1055 -426 -1053 -5 0
-117 273 -250 605 -132 331 -323 808 -423 1058 -100 250 -185 464 -188 474 -6
18 4 19 353 13 197 -3 391 -11 431 -16z"/>
</g>
</svg>
