<?xml version="1.0" standalone="no"?>
<!DOCTYPE svg PUBLIC "-//W3C//DTD SVG 20010904//EN"
 "http://www.w3.org/TR/2001/REC-SVG-20010904/DTD/svg10.dtd">
<svg version="1.0" xmlns="http://www.w3.org/2000/svg"
 width="1024.000000pt" height="1536.000000pt" viewBox="0 0 1024.000000 1536.000000"
 preserveAspectRatio="xMidYMid meet">
<metadata>
Created by potrace 1.16, written by Peter Selinger 2001-2019
</metadata>
<g transform="translate(0.000000,1536.000000) scale(0.100000,-0.100000)"
fill="#000000" stroke="none">
<path d="M5302 13487 c-33 -23 -156 -115 -274 -204 -897 -679 -890 -674 -933
-669 -22 3 -55 8 -73 12 -41 8 -83 -9 -111 -46 -13 -18 -37 -33 -61 -40 -35
-9 -100 -63 -100 -82 0 -4 -15 -14 -34 -22 -18 -7 -42 -27 -54 -43 -11 -16
-39 -42 -61 -57 -49 -34 -65 -72 -57 -129 l7 -44 -58 -39 c-119 -79 -143 -102
-143 -139 0 -43 27 -74 70 -81 31 -5 45 1 104 41 37 25 70 44 73 42 8 -8 -47
-159 -89 -246 -22 -46 -71 -134 -109 -197 -167 -277 -324 -614 -379 -814 -23
-87 -27 -215 -6 -264 28 -68 197 -173 601 -372 138 -68 270 -134 295 -147 43
-21 45 -24 42 -61 -2 -21 2 -52 8 -67 13 -31 17 -33 235 -104 245 -80 455
-197 548 -305 68 -80 137 -234 274 -615 132 -367 155 -430 165 -449 9 -17 8
-18 -13 -12 -135 38 -197 24 -315 -71 -23 -18 -46 -33 -53 -33 -6 0 -77 37
-158 83 -308 174 -655 354 -1158 603 -286 141 -533 260 -548 265 -22 6 -32 4
-48 -12 -27 -27 -24 -54 9 -77 53 -37 443 -254 867 -482 736 -396 911 -494
908 -508 -1 -6 -3 -35 -4 -66 -2 -64 13 -89 67 -106 28 -10 34 -17 34 -40 0
-40 30 -71 75 -79 30 -5 45 -14 63 -41 29 -43 54 -53 99 -41 30 9 37 7 55 -15
27 -30 60 -31 130 -4 71 27 75 26 87 -17 8 -28 7 -41 -3 -52 -7 -9 -25 -37
-40 -62 -41 -71 -32 -143 23 -193 32 -29 26 -43 -25 -51 -48 -7 -277 -123
-454 -230 -52 -31 -108 -65 -123 -74 -55 -31 -302 -197 -386 -259 -47 -34 -86
-60 -89 -57 -2 2 1 18 7 36 24 70 1 129 -62 154 -99 40 -523 104 -965 145
-336 32 -934 26 -1000 -9 -27 -15 -46 -73 -46 -146 -1 -48 4 -66 21 -89 15
-18 21 -37 18 -54 -3 -15 -21 -241 -40 -502 -36 -488 -62 -769 -81 -895 -3
-16 -11 -35 -19 -41 -24 -18 -35 -61 -37 -147 -4 -124 20 -148 206 -206 192
-60 246 -61 260 -5 4 14 9 24 12 22 2 -3 -4 -39 -15 -79 -47 -171 -64 -306
-65 -499 -1 -102 1 -205 4 -230 3 -31 1 -44 -7 -43 -7 2 -21 -9 -32 -24 -26
-32 -29 -133 -6 -177 9 -16 13 -31 11 -33 -4 -5 -323 272 -580 505 -93 84
-176 151 -201 162 l-43 19 -4 728 c-3 702 -2 729 16 755 17 24 18 39 13 128
-4 73 -10 106 -21 119 -24 26 -24 600 0 656 11 28 13 54 8 106 -6 65 -5 72 21
111 22 33 29 57 33 113 5 76 -3 60 233 505 220 415 225 425 250 429 37 5 77
39 99 81 25 49 27 132 4 155 -15 15 -14 21 11 81 15 35 31 66 35 69 4 3 77
-26 161 -64 361 -160 817 -333 1036 -392 101 -27 129 -25 164 10 26 26 28 33
18 58 -32 87 -281 268 -769 560 -140 84 -179 116 -267 220 -45 52 -52 65 -44
85 11 30 -5 75 -30 83 -10 4 -19 10 -19 15 0 5 25 70 55 145 58 143 64 175 40
195 -38 32 -79 -23 -147 -195 -31 -79 -46 -98 -74 -91 -24 6 -47 -10 -70 -49
-10 -18 -12 -18 -57 0 -37 14 -62 16 -115 12 -62 -6 -77 -3 -182 34 -219 77
-555 187 -655 214 -125 33 -262 50 -298 36 -22 -9 -27 -17 -27 -45 0 -65 61
-134 211 -239 122 -85 413 -250 782 -441 l167 -87 -37 -72 c-28 -52 -46 -76
-68 -85 -50 -22 -58 -27 -78 -54 -26 -35 -32 -95 -13 -148 l15 -45 -188 -350
c-279 -515 -251 -470 -292 -467 -50 5 -142 -58 -170 -116 -18 -35 -20 -55 -16
-110 3 -37 9 -81 12 -98 7 -32 21 -7 -297 -563 -71 -124 -134 -242 -140 -264
-11 -38 -11 -41 16 -63 28 -25 52 -30 73 -16 12 8 256 429 362 625 30 56 57
95 63 91 14 -9 0 -621 -15 -649 -6 -11 -13 -67 -15 -125 -4 -89 -2 -108 12
-119 14 -12 16 -82 16 -737 0 -436 -4 -724 -9 -724 -21 0 -69 -52 -75 -81 -3
-17 -32 -60 -65 -97 -52 -60 -504 -661 -592 -787 -75 -109 -110 -151 -143
-175 -25 -17 -50 -55 -86 -125 -71 -141 -66 -179 25 -204 81 -22 126 -8 155
48 21 41 50 154 50 194 0 38 36 91 319 470 l29 38 18 -25 c11 -14 43 -59 72
-100 l54 -75 -27 -66 c-14 -36 -36 -96 -49 -133 -13 -37 -60 -165 -105 -284
-45 -120 -81 -221 -81 -226 0 -5 -9 -17 -21 -28 -53 -47 -129 -237 -129 -320
0 -39 4 -47 32 -64 48 -29 101 -34 142 -15 32 15 38 25 58 89 16 52 23 102 25
186 l3 115 91 245 c50 135 101 273 112 308 12 34 24 62 27 62 13 -1 106 -160
115 -199 16 -69 47 -86 153 -86 77 0 93 3 139 29 29 16 181 143 338 283 307
273 293 264 344 210 l23 -26 -35 -83 c-20 -46 -71 -170 -115 -275 -50 -120
-92 -206 -111 -228 -32 -37 -41 -81 -19 -103 9 -9 9 -17 0 -34 -6 -13 -26 -58
-46 -100 -19 -42 -48 -95 -66 -116 -43 -54 -88 -153 -96 -211 -6 -44 -4 -50
21 -69 37 -29 108 -39 139 -18 39 25 69 117 72 216 2 75 7 97 45 185 49 115
53 121 88 138 22 11 27 20 32 72 5 41 23 96 59 175 28 63 70 160 92 214 61
153 52 146 106 94 48 -46 114 -98 125 -98 3 0 -21 55 -53 123 -33 67 -60 133
-60 146 0 30 12 19 30 -29 115 -302 278 -558 429 -676 57 -44 58 -46 54 -87
-10 -101 98 -173 204 -137 27 10 36 7 89 -28 140 -93 324 -168 514 -209 66
-14 129 -18 280 -18 213 0 322 16 500 75 54 18 97 26 117 23 50 -8 146 43 223
119 36 35 97 84 135 110 39 26 103 74 143 108 l73 62 23 -21 c28 -27 36 -26
95 3 50 26 72 59 76 114 1 15 3 30 3 34 1 4 20 13 43 19 50 15 127 82 145 126
8 18 14 56 15 85 0 64 13 42 24 -42 3 -30 22 -135 41 -232 26 -133 32 -183 24
-197 -16 -31 -12 -44 28 -87 35 -37 40 -50 61 -154 20 -98 21 -119 10 -157
-15 -56 -6 -200 16 -242 8 -17 27 -34 41 -37 36 -9 97 1 128 21 22 15 26 25
26 64 0 61 -22 139 -58 209 -17 32 -40 104 -52 161 -20 92 -21 109 -10 162 12
57 12 60 -12 96 -19 28 -35 85 -62 218 -50 240 -74 342 -91 388 -14 36 -21 86
-10 75 3 -3 17 -45 31 -94 15 -49 30 -93 34 -97 4 -5 26 28 49 72 23 45 47 81
53 81 6 0 37 -16 70 -36 66 -40 65 -33 18 -144 -34 -78 -60 -169 -60 -204 0
-15 6 -42 14 -60 13 -30 21 -36 70 -47 101 -22 131 11 141 157 9 120 8 118 51
89 30 -20 49 -25 101 -25 93 0 127 17 141 71 9 36 21 52 64 84 29 22 74 57 99
77 25 21 50 38 55 38 5 0 81 -79 168 -175 l158 -175 -57 -79 c-35 -48 -69 -84
-86 -92 -43 -17 -115 -102 -137 -162 -37 -98 -37 -114 -4 -146 48 -49 156 -65
199 -30 27 23 52 87 83 211 22 90 38 132 58 157 16 19 33 36 40 39 6 2 23 -36
42 -95 53 -170 98 -223 190 -223 68 0 100 27 100 85 0 96 -78 234 -165 291
-100 66 -95 53 -44 123 24 34 80 110 124 169 44 59 92 125 107 147 15 22 45
59 65 83 l38 43 115 -21 c63 -11 129 -24 145 -29 29 -9 28 -9 -15 -10 -25 0
-72 6 -105 13 -120 28 -128 27 -173 -27 -83 -101 -111 -192 -112 -360 0 -136
26 -166 180 -213 127 -39 139 -47 147 -97 9 -58 54 -102 113 -111 25 -3 81
-18 125 -31 67 -21 100 -25 202 -25 130 0 253 19 312 47 27 14 37 25 39 47 7
60 -9 117 -42 154 l-33 37 -2 261 -2 261 48 40 c26 22 60 48 74 57 33 21 29
30 73 -174 29 -131 33 -170 29 -236 -7 -108 11 -215 43 -250 23 -23 30 -26 70
-20 86 11 130 51 118 107 -18 83 -32 125 -75 209 -26 52 -53 118 -59 145 -6
28 -27 108 -47 179 l-37 129 45 38 c24 20 47 35 50 33 4 -2 60 -104 124 -227
65 -122 155 -292 200 -377 175 -330 199 -380 196 -430 -2 -64 26 -214 49 -260
11 -22 29 -44 39 -50 54 -29 180 6 203 56 26 56 -60 279 -128 331 -26 19 -54
64 -105 162 -37 75 -95 186 -127 246 -32 61 -100 191 -151 290 -160 308 -342
653 -456 865 -34 63 -85 150 -113 194 -29 43 -52 87 -52 98 0 30 -17 54 -55
78 l-35 22 0 480 c0 465 1 481 20 505 17 22 20 41 20 121 0 81 -3 99 -19 116
-19 20 -20 45 -23 591 -2 425 0 577 9 597 8 17 23 29 42 33 36 8 81 57 81 89
0 67 65 90 305 112 331 29 504 54 558 81 41 21 34 62 -13 85 -66 33 -282 70
-539 93 -96 9 -211 25 -255 36 -163 41 -154 37 -158 66 -2 21 -11 30 -35 37
-38 10 -40 24 -13 85 26 57 25 83 -5 111 -25 23 -25 24 -25 206 0 191 -5 210
-46 202 -28 -5 -32 -26 -41 -199 -8 -160 -9 -166 -36 -198 -27 -33 -38 -93
-18 -106 10 -6 41 -63 41 -75 0 -4 -11 -12 -25 -18 -17 -8 -25 -20 -25 -36 0
-19 -6 -25 -37 -30 -21 -3 -65 -20 -98 -36 -40 -21 -92 -36 -155 -46 -221 -35
-381 -77 -562 -147 l-67 -26 -6 47 c-3 26 -8 57 -10 68 -4 19 1 22 43 27 74 9
205 54 244 84 20 16 49 48 64 73 28 43 29 52 32 177 3 108 -1 160 -23 290 -15
87 -31 167 -35 178 -6 15 -1 25 19 42 l26 21 -34 103 c-59 181 -333 843 -394
951 -79 142 -198 261 -352 353 -129 77 -215 115 -395 176 -84 28 -190 69 -234
90 -46 23 -95 39 -115 39 -85 0 -156 40 -190 109 -15 30 -19 69 -24 221 -6
214 -30 330 -93 450 -69 132 -197 243 -304 265 -19 4 -51 16 -70 28 -26 15
-58 22 -125 25 -85 4 -98 2 -214 -37 -131 -44 -213 -91 -254 -144 -14 -18 -57
-57 -97 -87 -68 -52 -159 -160 -179 -213 -5 -13 -21 -37 -35 -54 -36 -42 -46
-75 -46 -144 0 -54 3 -64 30 -91 25 -25 33 -28 45 -18 8 7 15 21 15 32 0 11 5
18 12 16 6 -2 21 -49 34 -105 26 -116 43 -154 91 -205 l36 -37 -6 -98 c-4 -54
-9 -119 -13 -145 -6 -42 -4 -49 21 -74 24 -24 32 -26 74 -21 l47 6 24 -55 c19
-46 31 -59 68 -78 36 -19 47 -31 65 -76 30 -73 67 -95 162 -95 86 0 141 24
222 99 55 49 56 50 28 12 -39 -52 -133 -112 -195 -125 -50 -11 -131 -2 -169
19 -30 16 -60 59 -67 96 -5 28 -14 37 -50 53 -36 16 -48 30 -71 76 -27 54 -29
56 -60 50 -82 -15 -136 51 -114 140 6 23 14 81 17 127 l7 84 -29 11 c-16 6
-71 19 -121 27 -51 9 -172 41 -270 72 -138 44 -185 55 -214 50 -32 -5 -68 5
-211 61 -95 36 -176 69 -181 73 -10 8 101 485 159 689 54 185 125 383 169 471
18 36 65 106 104 155 88 111 113 172 115 280 0 44 -2 94 -7 110 -7 28 -4 33
50 75 32 24 154 123 271 220 118 96 244 200 281 230 276 224 568 476 575 495
11 28 3 50 -23 64 -16 9 -30 3 -79 -32z m757 -3314 c-52 -163 -218 -359 -386
-457 -7 -4 -13 -5 -13 -2 0 2 28 24 63 49 69 49 187 169 234 238 40 58 78 134
94 188 7 24 15 39 17 33 2 -7 -2 -29 -9 -49z m-608 -368 c23 -31 39 -58 37
-61 -5 -4 -61 66 -82 104 -18 31 7 7 45 -43z m1127 -600 c-3 -3 -9 2 -12 12
-6 14 -5 15 5 6 7 -7 10 -15 7 -18z m67 -167 c18 -57 53 -181 76 -275 23 -95
47 -180 54 -190 9 -12 24 -16 48 -15 41 3 44 -1 56 -61 9 -51 23 -43 -174
-101 -516 -151 -1164 -202 -1425 -111 -71 24 -73 25 -68 30 2 2 33 -5 69 -15
111 -35 296 -53 459 -46 291 13 575 55 845 126 138 36 275 77 283 85 2 2 -1
20 -8 39 -10 32 -15 36 -46 36 -24 0 -38 6 -49 24 -9 14 -40 118 -70 233 -30
114 -68 248 -84 297 -17 50 -31 92 -31 95 2 17 35 -61 65 -151z m-480 -1198
c194 -30 455 -34 950 -16 107 4 112 4 40 -4 -324 -35 -642 -33 -1005 5 -240
25 -273 26 -391 16 -75 -7 -150 -21 -214 -41 -54 -17 -103 -29 -107 -28 -13 5
180 68 237 78 59 11 403 4 490 -10z m1440 -250 c352 -22 438 -30 453 -42 8 -7
24 -32 34 -56 14 -30 30 -48 58 -62 22 -11 44 -29 50 -39 6 -13 10 -217 10
-591 l0 -572 -22 -18 c-21 -17 -23 -27 -23 -118 0 -90 2 -103 23 -124 l22 -24
0 -466 0 -466 -89 -90 -89 -89 -6 91 c-25 335 -107 774 -206 1095 -16 53 -37
127 -46 165 -13 52 -28 83 -61 123 -38 47 -49 72 -78 176 -41 149 -106 337
-152 437 -19 41 -48 109 -65 150 -16 41 -45 105 -65 141 -32 62 -34 70 -23
107 12 45 2 129 -25 217 -24 80 -25 78 58 72 39 -3 149 -11 242 -17z m-690
-279 c-14 -13 -226 -59 -385 -83 -105 -16 -185 -21 -355 -21 -232 -1 -278 5
-500 59 -116 29 -129 33 -123 39 2 2 60 -9 128 -25 223 -53 321 -63 550 -57
217 6 334 20 545 66 153 34 152 34 140 22z m-1 -351 c250 -19 446 -59 492
-102 32 -29 57 -119 49 -170 -8 -50 -31 -98 -46 -98 -6 0 -8 -39 -4 -112 4
-62 8 -158 10 -213 3 -55 7 -140 10 -190 5 -75 3 -96 -12 -125 -21 -40 -68
-59 -148 -58 -46 0 -44 2 30 14 57 9 85 19 97 33 22 28 32 130 20 189 -15 69
-25 472 -12 472 6 0 18 16 26 35 32 78 4 199 -53 228 -40 20 -140 43 -278 64
-102 15 -186 18 -560 18 -474 0 -615 -9 -930 -61 -251 -41 -295 -58 -321 -119
-30 -72 -10 -185 32 -185 12 0 14 -30 14 -177 0 -249 0 -248 71 -283 139 -71
299 -214 517 -465 33 -38 119 -133 191 -210 l130 -140 1 -63 c0 -44 -6 -75
-21 -103 -15 -31 -19 -50 -13 -85 3 -24 10 -47 15 -50 5 -3 9 -179 9 -392 0
-369 -1 -388 -20 -417 -17 -25 -20 -47 -20 -131 0 -86 -4 -110 -24 -157 -14
-30 -32 -81 -41 -113 -9 -33 -18 -65 -21 -72 -3 -10 -16 -6 -51 14 -67 38 -66
37 -45 75 11 19 28 55 37 82 14 37 22 47 41 47 12 0 35 11 51 24 25 22 28 31
31 105 3 52 0 86 -7 95 -9 11 -7 33 8 93 32 126 44 255 37 402 -6 142 -37 352
-60 419 -9 26 -12 61 -9 99 7 82 -9 124 -67 175 -34 31 -63 71 -98 140 -67
129 -159 262 -246 355 -79 85 -248 216 -342 265 l-61 32 -7 95 c-3 53 -6 149
-6 213 0 106 -2 117 -19 123 -30 9 -45 58 -37 121 10 86 38 128 101 152 85 32
422 82 685 102 80 5 163 12 185 13 101 9 563 6 689 -3z m-2786 -654 c3 17 96
64 127 64 14 0 36 -5 48 -12 15 -8 76 -11 197 -9 187 2 262 -5 433 -44 l108
-24 50 19 c61 24 106 25 159 4 58 -24 42 -29 -24 -8 -55 17 -57 17 -111 -5
-63 -26 -69 -26 -260 13 -152 31 -353 44 -437 28 -46 -9 -64 -8 -92 3 -70 29
-132 15 -193 -44 -13 -12 -23 -31 -23 -41 0 -21 0 -21 -110 -40 -109 -19 -286
-68 -362 -99 -71 -30 -72 -31 -92 -12 -70 66 -186 29 -234 -74 -19 -39 -36
-57 -77 -82 -199 -122 -455 -383 -586 -597 -29 -48 -54 -84 -57 -82 -6 7 82
150 143 231 112 151 319 346 478 452 48 32 72 55 83 81 20 49 51 81 99 103 54
25 92 23 143 -6 l42 -24 56 25 c73 32 234 77 357 99 87 16 100 20 108 42 5 13
10 93 11 176 l2 152 6 -150 c3 -82 7 -145 8 -139z m192 -216 c58 -12 110 -26
115 -32 7 -8 3 -9 -15 -4 -63 16 -255 47 -345 55 l-100 10 120 -4 c68 -2 166
-13 225 -25z m320 -27 c13 -14 13 -14 -9 -3 -16 8 -46 11 -89 7 -71 -7 -77 2
-9 14 52 8 87 3 107 -18z m138 -146 c191 -114 429 -330 564 -511 76 -102 160
-245 151 -259 -3 -5 -19 17 -35 48 -67 132 -197 301 -330 432 -90 88 -262 221
-370 285 -66 39 -87 57 -50 44 9 -4 41 -21 70 -39z m1461 -82 c11 -6 16 -335
6 -335 -3 0 -22 19 -43 42 -20 24 -94 104 -163 178 l-126 135 158 -7 c87 -3
163 -9 168 -13z m791 -9 c25 -18 57 -54 70 -79 23 -43 23 -49 11 -96 -15 -58
-10 -78 35 -146 33 -51 51 -127 69 -305 10 -94 101 -649 131 -796 24 -119 24
-128 10 -165 -13 -31 -16 -82 -16 -245 l0 -206 -116 -171 c-64 -95 -121 -177
-126 -184 -7 -9 -31 12 -84 74 -41 47 -80 91 -87 98 -7 7 -70 80 -142 161 -71
81 -165 185 -207 230 -64 68 -78 88 -78 115 0 25 -10 42 -44 74 l-44 43 6 132
c4 98 8 127 15 114 6 -11 85 -127 176 -259 91 -132 194 -282 230 -334 57 -84
64 -99 62 -137 -2 -48 22 -105 65 -151 23 -25 33 -28 81 -27 97 3 118 51 73
168 -16 41 -31 63 -52 75 -17 9 -61 62 -102 121 -239 347 -454 642 -501 685
l-43 40 -3 162 c-3 157 -2 164 19 183 17 16 22 32 22 73 0 59 -7 74 -41 91
-21 10 -24 19 -27 81 l-2 70 267 273 c301 306 290 299 373 238z m-362 4 c-96
-131 -260 -320 -278 -320 -4 0 -7 73 -6 163 l1 162 110 5 c205 9 188 10 173
-10z m-1045 -1025 c73 -232 81 -601 20 -855 -23 -98 -33 -94 -12 6 59 285 47
627 -31 883 -10 35 -15 60 -11 55 5 -5 20 -45 34 -89z m2588 -137 c4 -279 -4
-568 -17 -653 -8 -49 -18 -110 -21 -134 -6 -42 -7 -43 -37 -37 -17 3 -80 15
-141 26 -144 27 -301 50 -338 50 -16 0 -27 3 -25 8 2 4 42 66 89 137 87 132
105 161 157 250 16 28 38 57 48 65 18 15 18 14 1 -13 -29 -45 -77 -128 -77
-132 0 -2 -24 -43 -54 -92 -57 -94 -106 -187 -106 -201 0 -9 265 -52 367 -60
45 -3 53 -1 63 18 12 23 7 78 -15 145 -7 22 -20 112 -29 200 -10 88 -22 187
-27 220 -15 89 -14 90 43 181 56 89 92 134 108 134 6 0 11 -48 11 -112z m208
-115 c18 -65 59 -210 93 -323 33 -113 61 -210 62 -216 0 -6 -39 -41 -89 -78
l-90 -67 -12 98 c-13 116 -17 703 -4 703 5 0 23 -53 40 -117z m-459 -123 c-6
-11 -13 -20 -16 -20 -2 0 0 9 6 20 6 11 13 20 16 20 2 0 0 -9 -6 -20z m660
-82 c0 -4 27 -62 60 -129 l59 -121 -22 -19 c-29 -25 -44 -24 -50 4 -2 12 -20
78 -39 147 -20 69 -38 139 -42 155 l-7 30 21 -30 c11 -16 20 -33 20 -37z
m-7008 -5 c51 -43 430 -382 460 -414 l28 -28 -263 -230 -262 -230 -21 22 c-21
22 -22 30 -27 454 -5 399 -4 433 11 443 26 15 38 12 74 -17z m-285 -44 c-4
-28 -15 -65 -26 -82 -16 -27 -103 -254 -144 -374 -5 -18 -13 -33 -17 -33 -4 0
-30 39 -59 86 l-53 85 41 52 c23 29 87 112 144 184 56 73 106 133 111 133 5 0
6 -23 3 -51z m16 -614 l-8 -180 -52 82 c-29 45 -53 90 -53 100 0 10 26 93 58
185 l57 166 3 -86 c1 -48 -1 -168 -5 -267z m5114 287 c10 -27 62 -102 112
-161 28 -34 41 -56 33 -59 -7 -2 -36 -23 -65 -46 -122 -97 -157 -117 -142 -78
5 13 15 250 15 363 0 17 3 18 21 9 11 -6 23 -19 26 -28z m1718 -271 c10 -25
-6 -141 -19 -141 -23 0 -84 75 -100 123 -9 26 -16 49 -16 50 0 1 29 -2 65 -7
42 -7 66 -15 70 -25z m163 -146 c2 -113 -3 -130 -29 -99 -7 8 -29 24 -48 35
-31 17 -32 19 -9 14 48 -9 55 0 62 86 4 43 10 79 14 79 4 0 8 -52 10 -115z
m-2818 -2 c-70 -178 -175 -327 -338 -484 -104 -100 -259 -216 -271 -203 -3 4
0 9 7 11 35 13 177 125 256 201 177 174 288 341 360 546 3 10 9 16 12 13 3 -3
-9 -40 -26 -84z"/>
</g>
</svg>
