<?xml version="1.0" standalone="no"?>
<!DOCTYPE svg PUBLIC "-//W3C//DTD SVG 20010904//EN"
 "http://www.w3.org/TR/2001/REC-SVG-20010904/DTD/svg10.dtd">
<svg version="1.0" xmlns="http://www.w3.org/2000/svg"
 width="1024.000000pt" height="1536.000000pt" viewBox="0 0 1024.000000 1536.000000"
 preserveAspectRatio="xMidYMid meet">
<metadata>
Created by potrace 1.16, written by Peter Selinger 2001-2019
</metadata>
<g transform="translate(0.000000,1536.000000) scale(0.100000,-0.100000)"
fill="#000000" stroke="none">
<path d="M3970 13975 c-24 -29 -1 -61 107 -151 60 -50 140 -119 178 -155 57
-52 370 -321 475 -408 16 -13 21 -23 14 -28 -6 -5 -131 -109 -278 -232 l-267
-223 -44 12 c-51 14 -87 9 -147 -20 -24 -12 -70 -26 -103 -31 -116 -20 -241
-108 -299 -212 -23 -40 -47 -111 -70 -200 -19 -75 -46 -159 -61 -185 -28 -51
-155 -213 -405 -516 -280 -338 -352 -443 -417 -602 -77 -190 -52 -272 149
-494 85 -94 213 -216 291 -277 l28 -21 -25 -36 c-13 -20 -22 -44 -19 -55 8
-31 72 -84 193 -162 204 -130 438 -303 467 -346 46 -67 53 -119 73 -538 11
-231 28 -507 35 -563 3 -27 1 -32 -13 -28 -44 14 -222 37 -365 48 -327 25
-611 -33 -682 -140 -34 -52 -43 -134 -20 -206 16 -52 17 -60 2 -113 -9 -32
-27 -123 -41 -203 -44 -251 -84 -441 -98 -460 -7 -10 -26 -35 -43 -55 -24 -30
-30 -49 -33 -100 l-4 -63 -357 2 c-373 1 -419 -3 -503 -45 -21 -11 -42 -28
-48 -39 -19 -36 -29 -125 -19 -166 26 -107 27 -145 19 -474 -12 -435 -30 -849
-40 -874 -4 -12 -9 21 -13 80 -6 99 -21 164 -38 164 -16 0 -39 -66 -39 -112 0
-24 -8 -72 -17 -108 -11 -45 -16 -118 -18 -235 -1 -93 -12 -289 -23 -435 -29
-353 -33 -400 -41 -400 -3 0 -25 17 -49 39 l-42 39 0 1048 c0 1019 1 1051 20
1119 25 89 25 161 0 254 -19 68 -21 97 -18 412 3 335 3 338 26 366 12 15 36
56 53 90 31 64 35 109 15 208 -7 30 65 239 221 647 58 151 63 160 117 209 64
58 101 116 111 172 4 20 11 40 16 43 5 3 51 -8 102 -25 371 -122 879 -230
1029 -219 53 4 65 9 89 36 60 67 32 140 -86 230 -122 91 -596 313 -969 453
-51 19 -56 23 -49 42 12 33 9 195 -4 208 -21 21 -52 -2 -108 -80 l-56 -79 -47
15 c-190 58 -455 117 -657 147 -157 23 -201 27 -341 27 -109 1 -139 -2 -175
-18 -53 -24 -68 -41 -75 -85 -7 -42 38 -113 99 -159 66 -48 266 -141 452 -209
138 -51 544 -190 552 -190 1 0 -7 -21 -18 -47 -28 -65 -34 -125 -19 -186 l12
-52 -125 -335 c-68 -184 -137 -371 -152 -415 -16 -44 -33 -86 -38 -92 -5 -7
-28 -13 -51 -13 -50 0 -120 -31 -135 -58 -21 -39 -13 -126 19 -212 l30 -81 0
-338 c0 -281 -3 -346 -16 -392 -19 -63 -21 -222 -3 -265 9 -22 12 -294 10
-1083 l-2 -1055 -107 -120 c-58 -67 -129 -146 -156 -176 -268 -292 -522 -596
-596 -710 -38 -58 -88 -127 -111 -155 -75 -87 -103 -186 -70 -242 23 -37 77
-58 126 -49 59 11 105 95 105 193 0 75 73 183 283 418 l44 49 131 -119 c90
-82 132 -127 132 -141 0 -12 -18 -91 -41 -175 -22 -85 -62 -240 -89 -344 -34
-138 -56 -205 -79 -242 -70 -113 -133 -301 -115 -346 7 -20 66 -48 113 -54 21
-3 52 1 73 10 33 14 39 22 58 84 15 47 24 112 30 208 5 84 16 170 28 215 11
41 37 138 57 215 55 208 74 277 79 283 3 2 16 -4 29 -15 23 -17 24 -21 11 -44
-18 -33 -17 -94 2 -113 23 -24 59 -29 142 -22 47 4 95 15 129 31 127 58 429
254 626 407 l128 100 137 -123 c389 -349 403 -363 396 -378 -3 -9 -26 -87 -50
-174 -52 -186 -66 -223 -101 -259 -21 -22 -24 -32 -18 -66 9 -57 -52 -260 -99
-331 -39 -57 -60 -120 -78 -223 -9 -59 -9 -71 6 -93 40 -61 139 -70 187 -17
32 35 44 123 34 235 -6 64 -3 88 25 192 20 75 43 135 60 160 20 27 40 84 64
180 20 77 41 159 47 182 l11 42 32 -46 c57 -84 143 -108 197 -54 23 24 29 38
29 75 0 68 -12 87 -99 160 -45 37 -81 75 -81 83 0 16 74 277 112 393 l21 65
22 -90 c38 -155 156 -449 225 -559 11 -19 29 -60 40 -92 23 -66 73 -148 103
-169 12 -8 31 -15 43 -15 12 0 39 -15 62 -33 22 -17 75 -61 118 -96 131 -107
297 -209 464 -285 19 -9 62 -38 94 -66 63 -53 110 -69 145 -51 16 9 33 8 73
-3 225 -65 546 -70 836 -15 l102 20 22 -21 c38 -35 105 -18 139 36 17 28 45
46 143 93 194 92 363 201 524 338 43 37 83 63 96 63 27 0 93 46 124 84 11 15
28 51 38 79 9 29 46 108 82 176 36 68 86 174 112 235 52 127 54 128 150 99 68
-20 58 -2 105 -193 14 -58 25 -113 25 -122 0 -9 -20 -30 -43 -47 -69 -47 -105
-94 -113 -146 -8 -57 5 -88 48 -116 64 -40 148 2 148 74 1 73 17 56 44 -42 25
-94 26 -103 11 -130 -20 -39 -19 -65 2 -82 23 -20 48 -80 73 -179 20 -77 21
-92 10 -156 -7 -39 -11 -109 -9 -157 4 -78 7 -89 31 -113 31 -32 108 -43 148
-22 40 22 50 54 40 134 -11 90 -35 158 -72 210 -35 49 -81 252 -71 319 3 25
-1 54 -10 77 -8 19 -29 99 -47 177 l-32 142 87 99 c48 55 91 102 95 105 4 3
19 -13 34 -35 52 -78 123 -94 426 -95 134 0 273 6 343 14 117 14 118 14 145
-8 15 -12 45 -35 66 -51 70 -54 134 -34 194 58 20 32 80 120 132 197 l95 140
7 -50 c4 -27 11 -101 15 -163 7 -105 10 -115 33 -134 19 -16 35 -19 72 -16 27
3 57 13 67 22 14 13 20 14 29 4 26 -33 223 -456 228 -492 23 -168 55 -265 93
-286 46 -24 137 -5 184 38 34 32 34 62 3 146 -32 85 -67 140 -132 206 -44 45
-69 88 -144 242 l-90 188 0 354 0 355 42 65 c23 36 44 66 47 66 7 0 82 -400
89 -466 2 -26 -2 -53 -12 -72 -21 -41 -22 -172 -1 -212 27 -53 114 -53 166 0
25 25 29 36 29 87 0 47 -7 73 -35 130 -27 55 -35 84 -35 125 0 88 -41 387 -75
549 -4 16 -1 32 7 40 7 8 23 26 34 41 l21 27 51 -112 c91 -202 228 -498 347
-752 110 -234 118 -255 125 -330 8 -89 35 -155 74 -180 44 -29 171 15 183 63
16 67 -16 145 -105 251 -60 72 -118 189 -367 736 -396 870 -502 1098 -586
1267 l-49 98 0 512 c0 366 4 524 12 553 17 59 14 231 -6 284 -14 38 -16 107
-16 548 l0 505 29 33 c18 21 31 49 35 79 5 34 12 46 24 46 63 0 452 45 566 65
202 37 276 75 276 145 0 81 -122 114 -580 154 -309 28 -288 24 -322 70 -27 38
-29 46 -24 99 4 45 1 68 -16 110 -19 46 -22 77 -27 282 -3 127 -10 236 -14
243 -14 20 -37 14 -48 -15 -5 -14 -14 -87 -20 -162 -19 -252 -25 -294 -53
-352 -14 -31 -26 -66 -26 -78 0 -38 -22 -115 -39 -135 -9 -10 -27 -23 -41 -28
-38 -15 -293 -26 -302 -13 -4 5 -8 115 -8 243 0 220 1 236 23 285 28 65 30
157 5 206 -13 25 -18 58 -18 128 0 54 4 93 10 93 27 0 409 77 575 116 345 80
533 150 594 219 77 88 12 155 -182 185 -118 18 -483 13 -683 -10 -307 -36
-276 -36 -302 2 -77 112 -83 118 -106 118 -31 0 -43 -16 -56 -74 -11 -52 -36
-116 -44 -116 -15 0 -503 -127 -635 -166 -354 -103 -481 -174 -498 -278 -5
-30 -1 -40 24 -65 16 -16 49 -34 71 -41 53 -14 300 -11 497 6 160 14 509 60
563 74 l32 8 0 -72 c0 -52 -5 -83 -20 -111 -27 -54 -27 -146 2 -222 20 -53 22
-77 22 -298 l1 -240 -45 -7 c-25 -4 -101 -14 -168 -23 -166 -21 -211 -45 -212
-113 0 -39 14 -69 44 -93 28 -23 138 -54 268 -76 l107 -17 6 -51 c4 -27 5
-189 3 -360 l-4 -310 -27 -62 c-35 -82 -36 -154 -2 -251 l25 -72 0 -1104 0
-1105 -213 -269 c-116 -148 -256 -325 -309 -393 -137 -174 -198 -235 -198
-198 0 22 -56 83 -125 135 -104 77 -101 71 -55 143 89 138 83 85 70 585 -18
728 -28 1271 -23 1276 3 3 89 8 191 12 254 8 342 27 387 79 33 41 33 86 -5
241 -47 196 -57 409 -22 475 15 27 15 128 1 155 -30 56 -165 80 -451 79 -198
0 -208 1 -208 19 0 52 -25 125 -57 167 -35 45 -36 51 -74 292 -21 135 -50 308
-64 384 l-25 138 21 31 c27 38 35 102 19 167 -24 101 -127 157 -365 198 -140
24 -513 24 -640 0 -104 -20 -118 -21 -110 -7 3 5 15 159 25 342 44 734 58 809
180 928 30 30 121 104 200 163 305 227 340 258 340 301 0 12 -7 31 -15 42 -23
31 -18 42 48 101 111 101 301 297 351 363 81 108 101 160 101 265 -1 80 -4 98
-33 159 -59 126 -139 234 -496 675 -127 155 -257 315 -288 354 -59 73 -96 150
-162 337 -20 58 -53 127 -72 153 -58 80 -171 137 -269 137 -22 0 -58 9 -80 20
-47 24 -124 26 -165 5 l-30 -15 -172 140 c-95 78 -226 185 -291 238 l-118 97
24 20 c76 62 454 392 585 509 163 147 180 174 126 198 -37 17 -57 4 -326 -211
-435 -346 -520 -412 -531 -417 -7 -2 -52 28 -102 67 -92 72 -465 363 -587 457
-90 69 -158 112 -179 112 -9 0 -22 -7 -29 -15z m1107 -982 c102 -87 243 -206
313 -265 l127 -107 6 -56 c15 -148 138 -310 320 -423 108 -67 130 -94 238
-297 146 -273 358 -701 381 -765 l19 -55 -40 -36 c-123 -110 -354 -236 -539
-294 -267 -84 -310 -99 -386 -137 l-79 -40 -48 23 c-62 28 -72 20 -93 -71 -40
-181 -116 -294 -234 -352 -62 -31 -73 -33 -172 -33 -92 0 -111 3 -153 25 -112
57 -181 177 -231 403 -5 23 -11 27 -40 27 -22 0 -45 -9 -64 -25 -26 -21 -31
-23 -42 -10 -31 37 -177 92 -415 155 -104 28 -208 60 -230 72 -22 11 -110 56
-195 99 -85 43 -168 89 -184 102 l-29 24 17 54 c37 116 301 626 467 904 46 77
67 100 149 166 115 92 207 189 248 260 33 59 72 185 72 235 0 28 22 51 232
235 128 112 266 234 308 271 41 37 79 67 83 67 4 1 92 -70 194 -156z m-997
-4537 c282 -67 471 -147 584 -247 44 -40 59 -61 71 -101 8 -29 15 -59 14 -67
0 -9 -6 4 -13 29 -18 64 -30 83 -82 128 -99 88 -365 198 -616 257 -65 15 -118
29 -118 31 0 7 12 5 160 -30z m1670 -55 c-285 -61 -538 -157 -636 -244 -53
-46 -59 -33 -8 17 73 71 296 162 516 210 62 14 122 27 133 29 11 3 34 5 50 5
17 0 -8 -7 -55 -17z m2765 -377 c65 -8 123 -17 127 -20 4 -3 8 -15 8 -27 0
-29 33 -82 65 -103 l25 -16 0 -510 c0 -492 -1 -512 -21 -580 -24 -77 -22 -135
6 -241 12 -48 15 -142 15 -558 l0 -500 -32 -47 c-17 -26 -109 -150 -202 -275
l-171 -229 -5 1039 c-5 968 -4 1042 13 1096 21 72 22 126 2 191 -12 40 -15
121 -15 423 l0 373 33 0 c18 0 86 -7 152 -16z m-3768 -91 c-3 -10 -5 -2 -5 17
0 19 2 27 5 18 2 -10 2 -26 0 -35z m310 -35 c-3 -7 -5 -2 -5 12 0 14 2 19 5
13 2 -7 2 -19 0 -25z m-318 -47 c-12 -59 -25 -70 -15 -13 9 50 17 74 22 69 2
-2 -1 -27 -7 -56z m328 -43 c-2 -13 -4 -3 -4 22 0 25 2 35 4 23 2 -13 2 -33 0
-45z m20 -80 c-3 -7 -5 -2 -5 12 0 14 2 19 5 13 2 -7 2 -19 0 -25z m-334 -204
c19 -38 70 -82 100 -89 55 -11 58 -14 14 -11 -40 3 -56 10 -87 41 -49 48 -76
132 -64 202 l8 48 6 -80 c4 -44 14 -94 23 -111z m294 -6 c-25 -56 -70 -98
-104 -98 -13 0 -9 5 12 16 47 24 62 42 87 101 12 30 24 50 26 45 1 -5 -8 -34
-21 -64z m110 -340 c-3 -8 -6 -5 -6 6 -1 11 2 17 5 13 3 -3 4 -12 1 -19z
m-197 -170 c-1 -101 -1 -280 -1 -399 l1 -216 63 -7 c200 -20 242 -29 285 -58
50 -35 53 -42 10 -24 -18 8 -105 28 -193 45 -88 17 -163 35 -167 39 -16 16
-17 802 -2 802 3 0 5 -82 4 -182z m-183 125 c-3 -10 -5 -4 -5 12 0 17 2 24 5
18 2 -7 2 -21 0 -30z m-1542 2 c503 -56 932 -160 1233 -300 29 -14 61 -25 72
-25 25 0 25 -13 -1 -70 -40 -88 -102 -144 -191 -171 -59 -18 -230 -38 -328
-39 -376 -1 -907 123 -1239 288 -148 73 -250 182 -226 239 8 19 9 16 19 -30
10 -41 80 -113 155 -157 157 -93 496 -211 761 -264 260 -52 547 -69 730 -41
125 18 177 38 238 91 49 41 82 115 62 139 -7 8 -18 15 -24 15 -6 0 -74 24
-151 54 -136 52 -335 113 -500 155 -250 63 -509 99 -930 131 l-120 9 155 -5
c85 -3 214 -11 285 -19z m-462 8 c-7 -2 -21 -2 -30 0 -10 3 -4 5 12 5 17 0 24
-2 18 -5z m-53 -7 c0 -2 -11 -6 -25 -8 -13 -3 -22 -1 -19 3 5 9 44 13 44 5z
m1890 -91 c-13 -61 -26 -76 -16 -17 13 75 19 97 23 85 3 -7 -1 -37 -7 -68z
m165 -177 c-5 -123 -10 -217 -13 -209 -6 17 9 444 15 437 3 -3 2 -105 -2 -228z
m2135 222 c61 -6 35 -7 -90 -3 -280 7 -682 -24 -920 -73 -210 -42 -453 -115
-602 -178 -80 -34 -58 -13 25 25 263 119 672 206 1092 232 105 7 414 5 495 -3z
m-1711 -90 c0 -10 -3 -8 -9 5 -12 27 -12 43 0 25 5 -8 9 -22 9 -30z m-22 -82
c-3 -7 -5 -2 -5 12 0 14 2 19 5 13 2 -7 2 -19 0 -25z m2011 -24 c-12 -20 -40
-50 -62 -66 -145 -107 -512 -233 -818 -282 -164 -27 -152 -16 22 19 414 84
772 227 845 336 28 41 38 36 13 -7z m-1991 -46 c-3 -8 -6 -5 -6 6 -1 11 2 17
5 13 3 -3 4 -12 1 -19z m115 -211 c43 -35 141 -87 165 -87 6 0 14 -4 18 -10
11 -18 -111 31 -161 65 -54 37 -107 102 -97 118 3 5 11 -4 18 -20 7 -16 33
-46 57 -66z m-545 -19 c-3 -8 -6 -5 -6 6 -1 11 2 17 5 13 3 -3 4 -12 1 -19z
m-374 -134 c51 -26 127 -85 127 -98 0 -24 -57 -64 -134 -93 l-78 -30 -32 34
-31 34 -50 -35 c-27 -19 -95 -72 -150 -119 l-100 -84 -8 81 c-4 45 -6 103 -5
130 l3 48 94 34 c51 18 110 44 130 57 37 25 98 44 161 50 19 2 36 5 38 5 2 1
17 -5 35 -14z m1226 -86 c34 -14 42 -21 33 -30 -7 -7 -12 -24 -12 -39 0 -14
-10 -39 -22 -55 -13 -16 -22 -31 -20 -34 2 -2 0 -6 -5 -7 -5 -2 -38 16 -73 39
-58 38 -65 46 -63 73 2 20 -1 25 -6 16 -7 -11 -13 -11 -32 -1 -13 7 -25 14
-27 15 -1 1 3 14 9 29 12 26 13 26 93 20 45 -4 101 -16 125 -26z m-877 -18
c-13 -11 -46 -21 -80 -25 -31 -4 -66 -9 -77 -12 -17 -5 -18 -4 -7 10 13 15
107 34 144 28 9 -1 19 3 23 9 3 5 9 10 13 10 4 -1 -3 -9 -16 -20z m898 -130
c0 -5 -4 -10 -10 -10 -5 0 -10 5 -10 10 0 6 5 10 10 10 6 0 10 -4 10 -10z
m-640 -115 c150 -16 227 -29 238 -40 4 -4 -9 -5 -28 -2 -179 26 -235 29 -462
24 -134 -3 -261 -10 -283 -16 -22 -5 -41 -8 -44 -6 -9 10 60 28 154 40 136 17
264 18 425 0z m-1085 -65 c-11 -18 -236 -202 -241 -197 -4 4 120 119 194 180
34 27 59 36 47 17z m339 -25 c-10 -8 -25 -15 -32 -15 -28 0 -210 -93 -306
-156 -99 -66 -258 -190 -366 -288 l-55 -50 45 48 c58 62 231 212 295 256 131
91 322 196 380 211 50 12 61 11 39 -6z m1822 -38 l101 -12 242 -250 c267 -277
256 -258 227 -368 -13 -51 -11 -106 4 -117 4 -3 10 -71 12 -152 l4 -148 -23
46 c-13 25 -36 64 -51 87 -15 23 -36 60 -46 82 -10 22 -54 105 -99 185 -144
260 -259 416 -421 573 -73 71 -94 97 -76 92 14 -3 70 -11 126 -18z m994 4 c0
-9 -177 -217 -204 -240 -15 -12 -16 -3 -16 112 l0 126 68 4 c140 7 152 7 152
-2z m-382 -115 c1 -58 -1 -126 -5 -152 l-8 -47 -100 94 c-55 52 -131 121 -169
155 l-68 60 174 -3 173 -3 3 -104z m-3079 0 c-9 -8 -10 -7 -5 7 3 10 7 26 7
35 1 9 4 6 6 -7 3 -13 -1 -28 -8 -35z m21 -56 c0 -5 -8 -18 -17 -28 -90 -92
-326 -387 -416 -522 -20 -30 -37 -49 -37 -43 0 16 96 156 186 272 66 84 275
330 282 331 1 0 2 -4 2 -10z m-2040 -574 c-7 -7 -10 11 -10 60 0 107 14 135
18 35 2 -49 -1 -88 -8 -95z m5275 -73 c-8 -68 -25 -95 -25 -41 0 20 5 40 10
43 6 3 10 17 10 31 0 13 3 24 6 24 3 0 2 -26 -1 -57z m1849 -892 c-3 -3 -49
-8 -103 -9 l-97 -4 -59 154 c-32 84 -69 175 -83 202 -21 43 -22 53 -12 70 12
19 61 86 281 381 l74 100 3 -444 c1 -244 0 -447 -4 -450z m-6993 595 c77 -36
177 -60 370 -90 259 -40 386 -50 662 -49 141 1 257 0 257 -2 0 -1 -9 -28 -20
-61 -48 -137 -73 -267 -74 -374 -1 -120 -7 -138 -39 -115 -40 28 -98 13 -144
-37 -56 -60 -49 -137 20 -201 l40 -37 -38 -153 c-21 -83 -46 -180 -55 -213
l-16 -62 -154 141 c-228 207 -391 345 -723 610 -163 131 -295 242 -293 246 5
8 56 469 56 505 0 13 13 5 48 -32 28 -30 70 -61 103 -76z m7219 -95 c21 -83
50 -216 65 -296 25 -137 25 -148 10 -171 -14 -22 -22 -25 -73 -22 -31 2 -56 6
-54 11 1 4 2 150 2 324 0 174 3 314 6 310 3 -3 23 -73 44 -156z m-2271 52 c3
-132 15 -247 41 -373 22 -111 37 -239 27 -229 -4 3 -13 51 -22 106 -19 133
-46 243 -89 377 -20 60 -36 114 -36 118 0 7 70 98 75 98 1 0 3 -44 4 -97z
m2493 -217 l28 -69 -31 -49 c-17 -26 -34 -48 -38 -48 -6 0 -73 363 -71 385 1
13 76 -133 112 -219z m-2304 -286 c0 -59 -3 -76 -8 -55 -4 17 -8 75 -8 130 0
81 2 91 9 55 4 -25 7 -83 7 -130z m-5463 69 c17 -21 25 -40 21 -53 -2 -12 -12
-163 -22 -337 -16 -300 -16 -317 1 -352 21 -45 30 -46 50 -8 13 26 20 82 40
326 14 174 27 300 30 303 3 4 155 -114 378 -292 l88 -71 -34 -30 c-19 -16 -66
-58 -105 -92 -83 -72 -154 -125 -272 -203 -113 -75 -138 -87 -185 -92 l-40 -3
-3 60 c-2 33 2 77 9 97 9 28 9 78 0 220 -6 101 -14 272 -18 382 -6 198 -6 198
14 187 12 -6 33 -25 48 -42z m6792 -126 c-3 -2 -34 -3 -71 -1 l-66 3 68 83 67
84 3 -82 c2 -46 1 -84 -1 -87z m-7046 -22 c-5 -14 -42 -127 -82 -251 -39 -124
-73 -227 -75 -229 -4 -4 -224 200 -224 208 0 4 57 72 126 151 69 80 156 179
192 222 l67 76 3 -76 c2 -42 -1 -87 -7 -101z m5870 -38 c-15 -29 -40 -59 -41
-50 0 10 39 67 46 67 3 0 0 -8 -5 -17z m1929 1 c0 -4 -10 -23 -22 -43 l-23
-36 -3 34 c-2 20 2 37 10 42 15 10 38 12 38 3z m-220 -102 c-1 -42 -31 -141
-54 -174 l-15 -21 -10 24 c-29 68 -78 199 -75 201 1 2 37 4 78 5 l76 2 0 -37z
m-530 -313 c0 -323 -4 -359 -36 -359 -9 0 -105 54 -213 119 -270 164 -301 183
-301 190 0 3 61 78 136 166 75 88 143 170 151 183 15 21 22 22 139 22 l124 0
0 -321z m240 274 c12 -27 44 -105 72 -176 l51 -127 -73 -113 c-40 -61 -78
-120 -84 -129 -6 -10 -14 -18 -18 -18 -5 0 -8 137 -8 305 0 296 1 305 20 305
13 0 25 -14 40 -47z m-1469 -70 c-18 -33 -98 -105 -105 -94 -6 9 50 82 79 103
20 15 36 9 26 -9z m-5816 -422 l-7 -53 -28 33 c-16 19 -29 39 -30 44 0 6 14
60 32 121 l33 111 3 -101 c2 -55 0 -125 -3 -155z m5589 214 c3 -8 1 -15 -4
-15 -6 0 -10 7 -10 15 0 8 2 15 4 15 2 0 6 -7 10 -15z m-44 -70 c11 -13 10
-14 -4 -9 -9 3 -16 10 -16 15 0 13 6 11 20 -6z m2078 -57 c20 -41 82 -181 82
-185 0 -2 -4 -1 -10 2 -19 12 -111 178 -106 191 8 20 21 17 34 -8z m-1174 -42
c17 -13 79 -49 138 -81 60 -32 106 -60 104 -62 -12 -13 -230 106 -290 159 -23
20 20 6 48 -16z m-451 -55 c-21 -26 -72 -92 -113 -145 l-75 -97 -7 38 c-6 32
-3 40 14 53 12 8 65 57 117 107 53 51 97 93 99 93 2 0 -14 -22 -35 -49z"/>
<path d="M4845 11820 c-149 -12 -261 -67 -342 -169 -65 -83 -101 -164 -115
-257 -10 -72 -9 -92 7 -163 16 -73 17 -83 3 -98 -41 -47 -58 -101 -58 -187 0
-120 24 -181 104 -260 l62 -61 18 -95 c36 -186 83 -290 163 -359 109 -94 278
-96 410 -5 98 67 169 213 196 399 10 73 15 84 53 128 98 110 139 279 98 401
-15 43 -15 52 0 105 30 106 12 260 -41 350 -129 221 -277 292 -558 271z"/>
</g>
</svg>
