<?xml version="1.0" standalone="no"?>
<!DOCTYPE svg PUBLIC "-//W3C//DTD SVG 20010904//EN"
 "http://www.w3.org/TR/2001/REC-SVG-20010904/DTD/svg10.dtd">
<svg version="1.0" xmlns="http://www.w3.org/2000/svg"
 width="1024.000000pt" height="1024.000000pt" viewBox="0 0 1024.000000 1024.000000"
 preserveAspectRatio="xMidYMid meet">
<metadata>
Created by potrace 1.16, written by Peter Selinger 2001-2019
</metadata>
<g transform="translate(0.000000,1024.000000) scale(0.100000,-0.100000)"
fill="#000000" stroke="none">
<path d="M5172 9280 c-159 -42 -353 -174 -418 -286 -25 -42 -62 -145 -47 -131
3 4 22 -20 40 -53 33 -58 34 -64 37 -182 2 -99 7 -134 25 -180 21 -55 22 -58
5 -114 -10 -37 -14 -74 -11 -105 7 -54 77 -208 135 -294 l41 -60 -47 -13
c-231 -63 -416 -131 -485 -176 -47 -31 -103 -98 -135 -161 -5 -11 -38 -101
-72 -200 -35 -99 -84 -232 -110 -295 -27 -63 -69 -164 -94 -225 -46 -110 -96
-179 -115 -160 -5 6 -19 35 -31 65 -44 114 -118 205 -204 251 l-30 17 -32 208
c-18 115 -57 371 -88 569 -31 198 -64 405 -72 460 -8 54 -20 105 -26 112 -14
17 -49 17 -73 -1 -22 -16 -21 -27 40 -426 112 -738 135 -892 135 -905 0 -8
-17 -19 -40 -25 -45 -12 -95 -51 -115 -89 -8 -17 -14 -63 -15 -122 -1 -52 -2
-119 -3 -149 0 -30 3 -67 6 -83 13 -50 77 -108 163 -147 73 -34 85 -44 133
-108 70 -95 179 -194 253 -232 85 -42 165 -42 229 -1 64 42 117 95 184 185 32
43 93 116 135 161 44 47 94 115 120 163 72 131 67 132 74 -18 4 -74 8 -220 9
-325 l2 -190 -49 -60 c-134 -163 -149 -321 -50 -502 l34 -63 -149 0 -148 0 21
43 c29 58 33 159 11 229 -75 226 -335 360 -910 472 -268 52 -570 66 -717 33
-140 -32 -219 -81 -260 -160 -21 -41 -21 -47 -1 -178 5 -40 -68 -427 -117
-618 -22 -85 -40 -128 -70 -173 -72 -109 -64 -178 31 -270 110 -105 421 -240
724 -313 268 -65 632 -113 764 -100 231 22 328 149 300 391 -9 85 -9 86 47
305 l57 219 64 0 63 0 0 -265 c0 -276 -6 -332 -45 -420 -26 -60 -107 -151
-192 -215 l-62 -47 -103 -7 c-128 -9 -216 -27 -344 -70 -537 -180 -909 -626
-1020 -1221 -26 -139 -26 -467 0 -610 19 -102 55 -247 76 -300 10 -27 5 -47
-44 -188 -52 -151 -55 -157 -69 -135 -238 378 -659 1018 -689 1048 l-28 28 0
981 c0 540 4 981 8 981 24 0 32 60 32 228 0 159 -2 180 -20 210 -19 32 -20 50
-20 677 l0 644 26 38 c21 31 25 46 21 83 l-5 45 118 124 117 125 149 -42 c476
-133 785 -176 896 -123 47 23 69 46 83 89 42 133 -228 321 -712 496 -100 36
-188 66 -196 66 -23 0 -27 12 -12 34 19 27 19 86 0 113 -8 12 -29 25 -47 28
-27 6 -36 3 -55 -19 -14 -17 -23 -40 -23 -62 0 -44 -1 -43 -173 6 -321 91
-609 147 -812 156 -123 5 -132 4 -175 -18 -55 -28 -69 -60 -51 -119 37 -125
297 -291 711 -456 96 -38 196 -76 222 -83 27 -7 48 -13 48 -14 0 -1 -43 -48
-96 -104 -71 -75 -103 -102 -121 -102 -72 0 -109 -56 -99 -148 l6 -57 -108
-121 c-181 -204 -404 -443 -428 -459 -13 -8 -28 -24 -34 -35 -9 -17 -6 -23 22
-40 66 -40 72 -36 255 163 92 100 206 226 253 280 l85 98 3 -618 c2 -430 -1
-629 -8 -653 -8 -23 -9 -98 -5 -225 3 -104 8 -639 10 -1187 5 -869 3 -998 -9
-998 -30 0 -69 -50 -202 -260 -75 -118 -169 -264 -208 -325 -546 -838 -566
-871 -566 -917 0 -47 34 -84 86 -94 64 -12 93 22 139 163 16 50 54 129 98 200
156 258 272 443 277 443 3 0 77 -77 165 -171 194 -208 243 -249 294 -249 35 0
49 12 243 207 l206 206 147 -222 148 -222 -79 -207 c-43 -114 -83 -223 -90
-242 -7 -19 -13 -56 -14 -82 0 -40 4 -50 31 -72 18 -15 43 -26 60 -26 52 0 71
32 113 185 21 77 47 171 58 209 l20 70 19 -25 c10 -13 32 -50 49 -81 17 -32
40 -63 51 -69 42 -22 99 25 99 80 0 10 -36 75 -80 145 -44 70 -80 132 -80 138
0 8 54 190 76 257 3 8 30 -28 65 -85 86 -141 129 -196 238 -304 124 -123 252
-213 426 -299 522 -259 1112 -253 1580 16 95 55 103 58 170 59 76 0 255 43
363 87 74 30 158 89 181 127 20 33 81 103 85 99 6 -7 85 -384 97 -459 24 -159
68 -220 143 -199 81 23 84 78 15 317 -59 204 -130 475 -125 479 2 2 79 -73
172 -167 160 -161 171 -170 207 -170 42 0 50 6 144 115 l52 60 17 -23 c8 -12
25 -31 36 -42 l20 -18 -27 -69 c-40 -100 -42 -132 -11 -165 28 -31 69 -37 102
-14 12 8 30 46 44 91 13 43 30 79 37 82 7 3 56 0 109 -6 53 -6 160 -14 238
-17 97 -5 159 -12 198 -25 35 -12 86 -19 129 -19 71 0 73 0 109 -40 44 -48 73
-51 130 -15 22 14 51 25 65 25 45 0 133 46 155 82 44 73 12 137 -99 196 -32
18 -62 39 -65 47 -4 10 7 27 31 48 96 82 283 261 283 269 0 30 43 -17 169
-180 139 -181 231 -314 305 -443 47 -80 84 -106 126 -89 38 16 52 56 35 97 -7
17 -72 117 -145 223 -130 188 -132 192 -113 212 16 18 18 39 18 201 l0 181 92
21 c51 12 122 36 158 54 37 18 68 31 69 29 2 -1 83 -162 181 -356 150 -299
183 -372 210 -472 19 -65 38 -128 44 -139 35 -65 147 -69 181 -5 19 34 7 85
-40 172 -22 42 -215 428 -428 857 -392 787 -419 835 -468 835 -12 0 -14 70
-14 466 0 451 1 467 20 491 18 23 20 41 20 187 0 175 -9 231 -40 241 -20 6
-20 18 -20 544 0 468 2 540 15 551 8 7 18 31 22 54 4 30 16 51 45 79 73 70 98
77 332 93 234 16 425 44 480 71 39 18 56 54 39 82 -26 42 -98 55 -426 76 -296
19 -324 25 -395 74 -31 22 -70 43 -85 47 -25 6 -28 9 -20 33 13 43 5 191 -12
217 -13 20 -15 75 -15 352 l0 328 83 24 c97 28 204 80 236 114 27 28 38 94 22
125 -32 58 -179 90 -461 98 -172 5 -499 -7 -661 -23 l-56 -6 -8 68 c-11 101
-18 116 -57 112 -28 -3 -35 -9 -46 -42 -8 -25 -9 -43 -3 -50 14 -17 26 -96 14
-96 -72 0 -444 -59 -601 -96 -57 -13 -107 -24 -111 -24 -4 0 -13 25 -20 55
-28 125 -106 230 -231 311 -93 60 -203 106 -422 179 -290 97 -313 115 -313
255 0 84 1 86 48 161 114 183 167 459 122 634 -43 165 -199 305 -387 350 -89
21 -256 18 -346 -5z m3098 -2485 c0 -295 -1 -317 -19 -336 -30 -32 -36 -123
-15 -226 3 -17 -3 -24 -30 -33 -19 -6 -53 -25 -77 -42 -69 -50 -96 -56 -416
-84 l-73 -6 0 361 c0 203 4 361 9 361 5 0 17 16 26 37 14 28 16 50 11 99 -4
35 -9 70 -12 77 -3 10 35 18 158 36 90 12 219 33 288 45 69 13 131 24 138 25
9 1 12 -68 12 -314z m-777 158 c-13 -60 -6 -124 17 -155 20 -27 20 -38 18
-380 l-3 -351 -50 -12 c-88 -20 -123 -59 -107 -119 11 -39 48 -66 114 -80 l53
-13 3 -597 c2 -588 2 -597 -18 -624 -20 -27 -21 -37 -15 -223 3 -106 8 -526
10 -932 l5 -737 -100 -143 c-54 -78 -109 -155 -121 -172 l-21 -30 6 35 c44
243 80 592 116 1140 38 592 41 678 28 898 -6 114 -11 298 -10 409 1 202 1 203
-24 232 -13 16 -44 36 -67 45 -92 33 -553 56 -776 37 -74 -6 -136 -9 -139 -7
-2 3 -10 60 -18 128 -8 68 -26 195 -39 282 -14 88 -25 168 -25 178 0 15 9 18
63 18 69 0 163 22 326 76 59 19 124 34 151 34 66 0 142 25 172 57 46 50 58 85
58 178 0 116 -21 213 -85 385 -30 80 -53 152 -53 160 3 21 -18 94 -49 168 -14
34 -24 64 -22 66 2 2 128 20 279 40 151 21 282 39 290 40 39 9 41 7 33 -31z
m-1057 -483 c27 -25 61 -54 75 -65 63 -49 56 -95 -18 -115 -26 -7 -77 -21
-112 -31 l-64 -18 7 52 c3 29 6 108 6 176 l0 124 28 -39 c16 -21 51 -59 78
-84z m1644 -652 c62 -18 139 -85 140 -120 0 -9 11 -30 25 -46 l25 -30 0 -535
0 -536 -22 -16 c-22 -15 -23 -21 -26 -209 -3 -192 -3 -193 21 -222 l24 -29 -1
-460 c-1 -450 -1 -460 -21 -458 -58 5 -79 -24 -309 -435 -60 -106 -112 -194
-116 -197 -4 -2 -22 17 -41 43 -18 26 -57 75 -86 109 l-53 62 0 712 c0 696 0
711 20 736 18 24 20 41 20 223 0 184 -1 198 -20 215 -20 18 -20 31 -20 617 l0
599 203 -7 c111 -3 218 -10 237 -16z m-3452 -566 c9 -60 -61 -204 -143 -296
l-35 -39 0 176 0 176 48 4 c100 8 127 4 130 -21z m707 -1016 c174 -14 247 -34
225 -61 -16 -19 -5 -50 28 -71 22 -14 52 -18 156 -20 70 -2 129 -4 130 -6 1
-2 37 -47 79 -101 43 -53 88 -114 99 -135 12 -20 25 -39 28 -42 16 -15 69 -89
84 -118 9 -18 39 -54 67 -80 l50 -47 -5 -140 c-3 -77 -9 -180 -12 -230 -3 -51
-1 -112 5 -140 6 -27 12 -191 14 -362 l3 -313 -107 -135 c-59 -74 -138 -172
-175 -217 -37 -46 -69 -85 -71 -87 -2 -2 -5 -2 -9 1 -3 3 13 33 35 67 158 245
201 606 120 1004 -101 497 -411 928 -814 1130 -75 37 -244 97 -275 97 -10 0
-22 5 -25 10 -9 14 175 12 370 -4z m1248 -153 c4 -3 -3 -22 -15 -42 -21 -34
-145 -211 -154 -220 -2 -2 -4 57 -4 132 l0 137 83 0 c46 0 87 -3 90 -7z m-303
-165 c0 -89 -2 -159 -4 -157 -2 2 -40 58 -83 124 -44 67 -95 137 -112 158
l-33 37 116 0 116 0 0 -162z m391 -952 c-6 -472 -12 -860 -14 -862 -2 -2 -19
16 -38 40 -18 24 -71 85 -116 137 l-83 93 0 329 c0 314 1 330 20 354 16 21 20
41 20 107 0 70 -3 86 -25 118 -24 35 -25 44 -25 183 l0 145 43 53 c24 29 83
111 133 181 l89 128 3 -74 c2 -40 -1 -460 -7 -932z m1586 -657 c-9 -6 -94 -3
-162 6 -33 5 -183 44 -193 50 -2 2 316 563 343 605 7 10 12 -98 15 -320 3
-184 2 -338 -3 -341z m297 346 c75 -149 136 -273 136 -277 0 -10 -175 -65
-232 -73 l-48 -7 0 318 c0 174 2 315 4 313 2 -2 65 -126 140 -274z m-6892
-397 c-2 -222 -6 -404 -7 -406 -6 -7 -300 301 -299 313 1 10 304 495 310 495
1 0 -1 -181 -4 -402z m313 123 l146 -224 -160 -161 -161 -161 0 400 c0 343 2
397 14 385 8 -8 80 -116 161 -239z m5725 64 c22 -30 40 -59 40 -65 0 -11 -90
-170 -96 -170 -2 0 -4 68 -4 151 0 100 3 148 10 144 6 -4 28 -31 50 -60z
m-202 -479 l-3 -164 -137 134 -138 133 105 146 c58 80 120 169 138 198 l32 52
3 -167 c1 -93 1 -242 0 -332z m407 205 l69 -84 -55 -51 c-31 -28 -97 -89 -147
-135 l-92 -83 0 97 0 96 77 125 c42 68 77 123 78 121 1 -1 33 -40 70 -86z
m-1352 -159 l78 -92 -42 -61 c-34 -50 -112 -150 -161 -203 -4 -6 -8 106 -8
250 l1 259 27 -31 c15 -17 62 -72 105 -122z m-278 -400 c-3 -3 -35 24 -73 59
-37 35 -91 86 -120 112 -28 26 -52 50 -52 53 0 3 40 55 90 114 49 60 104 129
122 155 l33 47 3 -268 c1 -147 0 -269 -3 -272z m1931 528 l63 0 3 -120 c2 -66
0 -119 -4 -118 -6 3 -166 211 -183 239 -6 9 0 10 25 6 18 -4 61 -7 96 -7z
m-2443 -424 c-13 -21 -133 -150 -133 -142 0 8 58 83 99 129 26 28 48 37 34 13z"/>
</g>
</svg>
