<?xml version="1.0" standalone="no"?>
<!DOCTYPE svg PUBLIC "-//W3C//DTD SVG 20010904//EN"
 "http://www.w3.org/TR/2001/REC-SVG-20010904/DTD/svg10.dtd">
<svg version="1.0" xmlns="http://www.w3.org/2000/svg"
 width="1024.000000pt" height="1024.000000pt" viewBox="0 0 1024.000000 1024.000000"
 preserveAspectRatio="xMidYMid meet">
<metadata>
Created by potrace 1.16, written by Peter Selinger 2001-2019
</metadata>
<g transform="translate(0.000000,1024.000000) scale(0.100000,-0.100000)"
fill="#000000" stroke="none">
<path d="M4200 9657 c-84 -19 -155 -64 -229 -143 -118 -127 -185 -269 -221
-465 -41 -230 -15 -444 51 -409 26 15 26 15 18 -43 -9 -67 -29 -107 -85 -167
-57 -61 -115 -86 -339 -149 -277 -77 -354 -114 -462 -220 -66 -65 -81 -91
-201 -347 -54 -115 -130 -265 -168 -334 -39 -69 -80 -148 -92 -176 -35 -82
-122 -567 -122 -678 l0 -93 101 -144 c175 -248 363 -468 544 -636 l88 -81 -50
-66 c-116 -156 -160 -276 -148 -410 12 -131 50 -297 89 -388 l36 -85 -24 -94
c-26 -99 -79 -353 -146 -703 -22 -115 -47 -239 -56 -275 -24 -94 -110 -321
-189 -496 -89 -199 -157 -384 -195 -536 -67 -264 -153 -571 -206 -733 -61
-186 -59 -166 -38 -403 10 -111 -27 -209 -162 -435 -87 -143 -115 -211 -121
-284 -5 -57 -4 -63 27 -97 43 -49 89 -61 240 -61 196 -1 310 45 361 146 11 22
34 47 51 56 53 29 96 71 117 116 18 35 21 61 21 162 l0 120 41 39 c77 75 106
144 133 315 10 63 27 122 51 172 63 138 107 273 260 808 l93 325 120 245 c122
250 257 540 316 678 l33 77 92 7 c232 18 359 83 550 283 50 53 98 107 107 120
9 14 20 25 26 25 27 0 356 -269 502 -410 248 -240 430 -507 507 -742 57 -174
274 -1195 339 -1590 22 -139 36 -196 64 -261 l36 -82 -10 -125 c-5 -69 -10
-157 -10 -196 0 -65 3 -75 28 -101 l27 -30 172 -6 c162 -6 178 -8 275 -41 133
-45 251 -66 415 -73 147 -6 265 7 325 38 67 34 74 80 29 174 -37 79 -60 98
-156 132 -209 74 -369 214 -408 357 -8 28 -20 114 -26 191 -16 178 -34 286
-76 455 -19 74 -50 245 -70 380 -40 279 -47 313 -120 615 -50 204 -66 289 -96
500 -18 131 -43 194 -229 575 -308 629 -410 820 -551 1033 -44 64 -79 119 -79
120 0 2 22 26 49 54 53 55 66 91 56 151 -13 81 -73 116 -165 100 -123 -22
-114 -23 -145 13 -54 65 -69 136 -41 203 31 73 311 368 505 529 167 140 182
147 583 272 160 49 219 85 279 168 74 102 134 270 146 407 4 45 12 83 22 96 9
11 97 91 196 176 99 85 239 208 310 272 112 100 138 119 185 132 131 36 165
49 219 84 31 20 88 72 126 115 123 139 178 195 189 195 34 0 136 63 183 112
89 95 93 179 13 252 -51 46 -129 85 -186 93 -57 8 -74 24 -74 74 0 99 -126
109 -166 14 -18 -43 -5 -88 38 -132 l32 -33 -21 -43 c-18 -36 -22 -39 -28 -22
-20 60 -52 119 -74 136 -43 35 -104 22 -168 -35 -33 -28 -32 -94 3 -135 29
-34 26 -56 -10 -90 l-23 -22 -6 29 c-8 38 -68 102 -96 102 -13 0 -36 -13 -52
-29 -33 -34 -36 -63 -14 -137 14 -46 13 -52 -14 -139 -16 -50 -36 -107 -46
-126 -29 -54 -242 -261 -464 -447 -255 -214 -295 -243 -362 -253 -62 -10 -92
-35 -115 -96 -12 -32 -33 -56 -78 -92 -34 -26 -109 -93 -166 -147 -58 -55
-122 -113 -143 -128 -37 -29 -39 -29 -100 -18 -111 21 -167 42 -208 79 -52 47
-72 87 -71 142 0 32 -10 65 -34 114 -36 70 -134 337 -204 553 -77 237 -170
328 -470 464 -63 28 -135 61 -159 72 l-44 21 42 34 c22 19 71 80 108 136 37
56 84 123 105 148 43 51 46 73 18 109 -11 14 -20 30 -20 36 0 5 18 40 40 77
40 66 69 161 70 227 1 29 2 32 11 17 6 -10 8 -25 5 -33 -6 -15 12 -64 24 -64
3 0 17 18 29 41 20 34 23 52 19 114 -3 63 -9 85 -47 157 -64 123 -110 185
-193 264 -87 82 -153 122 -263 159 -95 32 -247 42 -335 22z m-1100 -2821 c26
-147 39 -291 46 -516 l6 -185 -31 35 c-99 111 -269 378 -278 436 -6 39 25 99
112 213 31 41 68 98 82 125 24 48 26 49 35 27 4 -13 17 -74 28 -135z m1885
-81 c-10 -24 -25 -50 -33 -57 -14 -11 -15 -10 -8 7 4 11 12 47 18 80 14 87 19
96 30 53 8 -29 6 -48 -7 -83z m220 -347 c14 -6 27 -19 30 -29 3 -10 17 -34 31
-54 14 -21 24 -38 22 -39 -2 -1 -32 -27 -68 -57 -36 -31 -96 -75 -133 -99 -60
-38 -71 -41 -91 -31 -12 7 -30 25 -39 41 -38 63 -11 144 81 249 33 36 67 79
77 95 l19 28 23 -46 c13 -26 35 -52 48 -58z"/>
</g>
</svg>
