<?xml version="1.0" standalone="no"?>
<!DOCTYPE svg PUBLIC "-//W3C//DTD SVG 20010904//EN"
 "http://www.w3.org/TR/2001/REC-SVG-20010904/DTD/svg10.dtd">
<svg version="1.0" xmlns="http://www.w3.org/2000/svg"
 width="1024.000000pt" height="1536.000000pt" viewBox="0 0 1024.000000 1536.000000"
 preserveAspectRatio="xMidYMid meet">
<metadata>
Created by potrace 1.16, written by Peter Selinger 2001-2019
</metadata>
<g transform="translate(0.000000,1536.000000) scale(0.100000,-0.100000)"
fill="#000000" stroke="none">
<path d="M3997 13903 c-38 -42 -8 -150 69 -248 22 -27 51 -69 66 -91 15 -23
46 -57 69 -75 78 -63 139 -122 139 -134 0 -17 -135 -153 -255 -256 -55 -48
-206 -164 -335 -259 -358 -263 -459 -347 -661 -549 -207 -207 -457 -482 -502
-551 -25 -39 -28 -52 -24 -101 12 -136 185 -363 407 -533 142 -109 715 -481
925 -601 28 -16 62 -37 77 -47 l26 -18 -50 -87 c-135 -235 -260 -524 -496
-1148 -238 -628 -406 -1055 -484 -1228 -124 -275 -158 -358 -158 -385 0 -27
14 -56 46 -95 23 -27 23 -29 7 -60 -30 -59 -209 -350 -323 -527 -133 -206
-371 -589 -420 -675 -144 -255 -220 -402 -349 -673 -177 -371 -325 -735 -363
-892 -31 -128 -28 -297 7 -408 15 -48 108 -244 216 -459 105 -206 207 -414
228 -462 36 -82 125 -335 189 -541 44 -140 65 -179 142 -258 43 -43 71 -80 71
-94 3 -44 -3 -93 -16 -143 -24 -87 -28 -156 -12 -216 l14 -56 -44 -66 c-74
-112 -185 -199 -309 -246 -29 -11 -121 -36 -205 -56 -166 -38 -283 -87 -319
-132 -11 -14 -25 -43 -32 -65 -14 -49 4 -93 57 -134 51 -39 208 -82 365 -101
116 -14 159 -14 300 -4 186 14 299 34 515 93 136 37 155 40 215 32 121 -15
298 -9 410 14 58 11 118 22 135 24 24 2 35 12 55 48 23 42 25 54 23 170 -2
156 -15 255 -58 440 -18 80 -39 187 -45 238 -14 120 -49 231 -117 365 -69 139
-96 221 -182 557 -131 517 -178 648 -305 860 -84 140 -106 200 -113 307 l-6
82 36 40 c26 28 38 53 43 87 6 44 18 59 143 193 75 81 206 223 291 316 85 94
216 235 290 315 74 80 170 186 214 235 43 50 81 91 85 93 12 4 130 -222 367
-703 655 -1332 674 -1368 767 -1463 29 -30 102 -91 162 -136 61 -45 171 -128
246 -183 202 -151 480 -394 689 -603 197 -196 289 -304 421 -497 108 -158 152
-194 265 -223 23 -5 54 -20 69 -32 28 -22 129 -220 166 -327 10 -30 24 -60 31
-68 15 -19 -4 -75 -43 -125 -16 -21 -48 -72 -70 -113 -45 -82 -68 -104 -175
-159 -93 -48 -134 -91 -145 -152 -11 -59 1 -106 41 -161 67 -91 200 -119 518
-110 245 7 379 31 500 90 74 36 116 80 133 139 18 62 32 74 102 88 34 6 80 20
102 29 61 28 131 95 161 157 l27 55 -18 107 c-51 321 -76 407 -190 670 -66
151 -104 200 -200 261 -57 36 -67 48 -95 108 -64 140 -107 195 -263 343 -126
119 -202 213 -334 415 -58 88 -126 186 -150 218 -113 147 -318 345 -553 536
-232 188 -344 264 -439 300 l-45 16 3 52 c3 68 -32 137 -98 192 -49 41 -50 44
-105 209 -95 289 -120 403 -180 854 -25 183 -47 367 -51 408 -9 118 -45 309
-71 381 -13 37 -23 75 -22 85 1 11 -2 36 -6 56 -6 27 -3 53 10 94 16 52 16 57
1 66 -26 14 -20 53 20 126 l38 67 2 135 c1 85 8 168 20 225 15 77 17 109 9
216 l-9 127 46 84 c51 93 68 154 93 338 9 69 25 149 36 178 20 53 135 219 369
533 68 91 167 227 219 302 52 75 97 136 100 136 18 -1 256 -530 279 -619 7
-25 18 -72 27 -105 8 -33 21 -77 29 -98 17 -44 20 -148 4 -164 -6 -6 -15 -51
-19 -99 -13 -137 -97 -401 -270 -844 -142 -364 -150 -385 -171 -419 -21 -35
-71 -61 -119 -61 -53 0 -172 -31 -246 -65 -77 -35 -146 -91 -171 -138 -8 -17
-44 -61 -79 -98 -59 -63 -64 -72 -64 -112 0 -30 8 -56 24 -80 13 -19 22 -38
20 -40 -3 -3 -5 -23 -6 -46 0 -37 6 -49 68 -118 91 -101 170 -153 235 -153 27
0 66 -7 86 -15 60 -23 211 -44 248 -34 41 11 140 102 200 182 26 34 86 143
134 242 106 219 196 375 453 787 108 174 234 384 279 467 69 128 85 151 109
156 15 3 35 14 44 23 21 24 146 525 146 587 0 50 -33 196 -179 800 -92 380
-135 578 -181 825 -42 225 -110 470 -159 575 -51 110 -143 206 -336 350 -82
62 -168 128 -190 148 l-40 34 72 37 c45 22 93 38 130 42 32 4 63 10 68 14 6 4
26 11 45 15 19 4 64 22 100 41 36 18 88 38 115 45 28 6 69 22 91 35 88 50 193
200 235 336 23 74 43 82 33 15 l-6 -42 38 64 c50 87 66 165 52 257 -10 66 -10
74 10 106 25 41 23 99 -8 183 -25 69 -40 159 -49 298 -4 64 -11 120 -14 124
-13 12 -20 -7 -26 -69 -6 -61 -6 -62 -18 -33 -7 17 -17 53 -23 80 -6 28 -26
95 -45 150 -18 55 -39 124 -45 152 -14 61 -24 61 -34 1 l-7 -43 -40 83 c-53
109 -149 210 -229 240 -30 11 -56 19 -58 17 -2 -2 17 -29 43 -60 25 -32 44
-60 41 -62 -3 -3 -42 9 -88 27 -105 42 -166 58 -254 66 -95 9 -106 -9 -22 -34
l63 -19 -62 5 c-71 5 -125 -4 -102 -19 7 -5 22 -9 33 -9 18 0 129 -52 154 -72
20 -17 7 -20 -35 -9 -157 41 -211 39 -116 -4 35 -15 68 -34 75 -43 12 -13 7
-14 -42 -6 -55 9 -215 11 -320 4 -32 -2 -101 5 -164 18 -149 30 -189 29 -215
-4 -17 -21 -19 -35 -15 -80 5 -44 3 -54 -9 -54 -9 0 -42 -26 -75 -57 -54 -52
-61 -64 -72 -118 -20 -97 -39 -151 -63 -172 -35 -32 -84 -53 -144 -63 -85 -14
-146 -48 -159 -89 -10 -29 -19 -37 -75 -58 -117 -43 -157 -116 -125 -227 16
-55 32 -76 155 -205 88 -93 111 -173 76 -272 -9 -24 -15 -57 -14 -74 4 -39
-11 -105 -23 -105 -5 0 -21 12 -36 26 -67 63 -213 108 -401 122 -111 9 -148 6
-331 -26 -86 -16 -226 3 -263 34 -16 14 -43 31 -61 39 -33 16 -57 30 -176 105
-41 26 -98 55 -125 64 -28 10 -75 34 -105 54 -30 20 -57 38 -59 39 -6 4 27 53
66 98 72 84 193 238 193 244 0 42 464 546 529 576 l41 18 87 -32 c49 -18 95
-36 104 -41 9 -4 50 -14 91 -21 58 -10 88 -10 133 -1 93 19 98 17 163 -48 83
-84 125 -81 215 20 37 41 48 63 61 120 16 70 20 129 10 165 -3 11 -27 38 -54
60 -26 22 -55 55 -64 73 -14 29 -15 36 -1 62 8 16 15 38 15 49 0 25 -154 189
-182 193 -12 2 -30 18 -41 38 -10 19 -33 51 -51 70 -18 19 -43 50 -55 68 -36
52 -72 65 -155 57 -41 -4 -78 -13 -88 -22 -16 -14 -23 -11 -88 47 -39 34 -101
102 -139 150 -80 101 -95 113 -212 169 -108 52 -148 60 -172 34z"/>
</g>
</svg>
