<?xml version="1.0" standalone="no"?>
<!DOCTYPE svg PUBLIC "-//W3C//DTD SVG 20010904//EN"
 "http://www.w3.org/TR/2001/REC-SVG-20010904/DTD/svg10.dtd">
<svg version="1.0" xmlns="http://www.w3.org/2000/svg"
 width="1024.000000pt" height="1024.000000pt" viewBox="0 0 1024.000000 1024.000000"
 preserveAspectRatio="xMidYMid meet">
<metadata>
Created by potrace 1.16, written by Peter Selinger 2001-2019
</metadata>
<g transform="translate(0.000000,1024.000000) scale(0.100000,-0.100000)"
fill="#000000" stroke="none">
<path d="M4710 9585 c-30 -8 -75 -14 -98 -15 -184 -1 -321 -161 -281 -327 12
-50 29 -63 29 -22 0 11 5 17 10 14 6 -3 10 -17 10 -31 0 -13 5 -33 11 -43 10
-14 6 -33 -16 -92 -15 -41 -37 -92 -48 -114 -31 -62 -24 -145 18 -205 20 -30
28 -59 39 -149 8 -61 20 -118 26 -126 7 -8 13 -46 15 -85 1 -39 7 -76 14 -83
6 -6 11 -19 11 -28 0 -35 65 -32 154 6 21 9 39 15 40 13 45 -70 46 -66 -39
-94 -188 -63 -304 -166 -492 -441 -65 -94 -257 -354 -259 -350 -1 1 11 144 26
317 18 208 33 328 43 352 10 23 35 51 67 74 76 54 140 161 140 234 0 16 4 40
10 54 8 23 15 26 55 26 52 0 96 19 119 52 21 29 21 110 0 153 -39 82 -171 132
-234 88 -14 -10 -45 -17 -74 -18 -36 -1 -71 -11 -116 -33 -36 -18 -72 -32 -81
-32 -34 0 -155 -43 -185 -65 -17 -13 -52 -55 -79 -95 -36 -53 -67 -84 -122
-123 -194 -136 -193 -135 -223 -200 -52 -112 -52 -120 -45 -1577 7 -1239 6
-1346 -9 -1359 -14 -11 -16 -38 -16 -175 0 -127 3 -166 15 -182 12 -16 14
-259 15 -1876 l0 -1858 -62 0 c-81 0 -226 -25 -290 -51 -69 -27 -135 -74 -153
-109 -25 -48 -19 -78 23 -120 100 -100 367 -137 692 -96 85 10 163 14 245 10
208 -11 401 19 572 87 69 28 95 32 218 39 218 11 231 24 213 200 -10 97 -10
117 5 163 28 89 29 95 11 164 -15 61 -15 84 -4 233 16 205 21 1047 9 1310 -8
164 -7 201 6 235 9 25 14 74 14 132 l-1 93 72 147 c62 125 206 433 463 990 29
61 55 106 58 100 39 -72 236 -710 328 -1063 38 -148 83 -308 100 -355 17 -47
153 -367 302 -710 149 -343 336 -778 414 -967 l143 -342 -20 -58 c-30 -85 -31
-86 -136 -161 -177 -126 -215 -190 -156 -260 18 -22 46 -37 97 -53 62 -20 93
-23 227 -23 253 1 408 49 474 146 21 32 49 58 75 71 23 11 54 36 68 55 22 29
26 43 24 94 -1 34 -8 91 -15 127 -8 37 -17 103 -21 147 -15 184 -115 509 -340
1105 -138 366 -237 592 -327 746 -57 99 -82 150 -83 177 -1 21 -11 48 -22 60
-11 12 -26 32 -32 44 -13 26 -48 364 -91 878 -38 460 -86 975 -105 1120 -14
108 -14 110 7 126 l20 16 -62 304 c-34 167 -72 348 -85 402 -18 78 -20 97 -9
97 8 0 82 -14 166 -31 203 -41 297 -39 355 7 109 87 106 207 -14 663 -39 151
-44 179 -34 206 25 70 10 113 -126 355 -38 69 -105 196 -149 283 -87 175 -129
235 -191 283 -61 46 -128 69 -393 130 -267 61 -332 84 -361 125 -19 27 -19 31
-5 61 9 17 16 46 16 64 0 18 9 54 21 81 11 26 37 100 57 163 33 104 37 125 36
225 0 100 -3 117 -32 188 -63 154 -126 217 -308 309 -117 58 -124 60 -210 64
-57 2 -109 -2 -144 -11z m-1093 -1389 c4 -60 -2 -100 -40 -266 -77 -330 -122
-559 -168 -860 -7 -47 -13 -144 -14 -217 0 -130 0 -132 30 -175 65 -94 170
-111 295 -49 81 40 117 68 282 216 154 139 387 329 394 322 14 -14 67 -293 89
-470 42 -339 40 -644 -5 -966 -18 -124 -18 -137 -3 -168 19 -40 21 -28 -61
-293 -193 -618 -286 -976 -413 -1594 l-55 -271 5 -585 c7 -662 20 -1021 43
-1192 l16 -118 -47 -77 c-73 -120 -162 -210 -255 -258 -69 -35 -98 -37 -219
-21 -62 9 -145 16 -186 16 l-75 0 0 1848 c0 1495 3 1855 13 1887 18 52 16 327
-1 348 -10 11 -12 332 -10 1423 3 1347 4 1411 22 1451 26 60 72 97 153 121 38
12 93 32 123 46 l55 24 13 -25 c8 -14 16 -57 19 -97z m1624 -893 c13 -16 12
-17 -3 -4 -10 7 -18 15 -18 17 0 8 8 3 21 -13z m80 -60 c13 -16 12 -17 -3 -4
-10 7 -18 15 -18 17 0 8 8 3 21 -13z m40 -30 c13 -16 12 -17 -3 -4 -10 7 -18
15 -18 17 0 8 8 3 21 -13z m-255 -71 c-5 -4 -66 26 -66 33 0 3 16 -3 35 -12
19 -9 33 -18 31 -21z m299 18 c10 -11 16 -20 13 -20 -3 0 -13 9 -23 20 -10 11
-16 20 -13 20 3 0 13 -9 23 -20z m56 -67 c13 -16 12 -17 -3 -4 -10 7 -18 15
-18 17 0 8 8 3 21 -13z m79 -88 c19 -19 32 -35 29 -35 -3 0 -20 16 -39 35 -19
19 -32 35 -29 35 3 0 20 -16 39 -35z"/>
</g>
</svg>
