<?xml version="1.0" standalone="no"?>
<!DOCTYPE svg PUBLIC "-//W3C//DTD SVG 20010904//EN"
 "http://www.w3.org/TR/2001/REC-SVG-20010904/DTD/svg10.dtd">
<svg version="1.0" xmlns="http://www.w3.org/2000/svg"
 width="1024.000000pt" height="1536.000000pt" viewBox="0 0 1024.000000 1536.000000"
 preserveAspectRatio="xMidYMid meet">
<metadata>
Created by potrace 1.16, written by Peter Selinger 2001-2019
</metadata>
<g transform="translate(0.000000,1536.000000) scale(0.100000,-0.100000)"
fill="#000000" stroke="none">
<path d="M2098 14379 c-10 -5 -18 -21 -18 -33 0 -13 36 -108 81 -211 44 -103
78 -192 76 -198 -2 -6 -59 60 -128 147 -75 94 -133 159 -146 162 -32 8 -51 -1
-65 -31 -10 -23 -7 -31 30 -83 76 -104 202 -294 202 -304 0 -12 -59 34 -167
129 -45 40 -93 75 -107 79 -30 7 -63 -9 -72 -38 -5 -18 13 -40 119 -142 154
-149 205 -216 164 -216 -6 0 -59 23 -117 50 -58 28 -113 50 -122 50 -10 0 -25
-11 -34 -25 -15 -22 -15 -27 -1 -47 8 -13 63 -52 122 -87 140 -84 152 -94 215
-198 31 -51 92 -128 145 -183 76 -79 101 -114 147 -205 31 -61 77 -164 103
-230 105 -270 216 -466 395 -695 53 -69 103 -136 110 -149 7 -14 57 -71 111
-129 95 -99 103 -110 178 -267 44 -89 105 -200 136 -246 l57 -83 -7 -59 c-12
-114 35 -206 261 -503 73 -97 136 -190 147 -218 10 -28 32 -141 48 -251 16
-110 34 -229 39 -265 37 -255 35 -313 -25 -815 -43 -358 -58 -426 -125 -595
-57 -142 -68 -188 -54 -224 3 -8 37 -40 75 -71 60 -49 69 -60 69 -89 0 -18 -9
-54 -20 -80 -12 -25 -27 -79 -35 -120 -9 -45 -26 -92 -43 -120 -16 -25 -37
-71 -46 -103 -17 -58 -35 -98 -95 -205 -58 -103 -323 -868 -422 -1216 -54
-192 -127 -509 -153 -666 -9 -54 -23 -110 -30 -125 -27 -52 -55 -160 -62 -242
-5 -67 -15 -103 -49 -179 -92 -206 -100 -240 -180 -730 -102 -624 -133 -777
-190 -930 -56 -150 -80 -312 -63 -426 10 -68 9 -76 -22 -165 -30 -87 -32 -101
-26 -180 8 -101 4 -109 -119 -282 -94 -132 -135 -175 -241 -252 -142 -104
-194 -163 -233 -268 -37 -100 -24 -144 53 -177 110 -47 428 -53 574 -11 104
30 197 80 268 143 104 93 128 107 250 148 136 46 247 108 275 153 12 20 19 50
19 82 0 46 -22 219 -35 272 -4 16 3 30 25 49 29 26 29 28 28 123 -2 91 0 101
37 191 l39 95 1 200 c2 249 11 297 165 870 42 159 102 433 120 550 6 39 24
109 41 156 25 74 29 102 29 188 0 107 6 128 47 173 17 17 47 93 93 230 60 180
86 241 239 546 205 411 283 551 406 737 104 156 199 279 290 373 52 53 66 62
96 62 59 0 134 -66 298 -262 156 -188 254 -336 431 -648 129 -228 152 -267
244 -410 57 -89 100 -173 151 -296 81 -194 104 -237 169 -312 39 -45 46 -60
46 -95 0 -23 18 -93 40 -155 21 -62 53 -172 69 -245 45 -196 121 -467 195
-692 118 -362 161 -528 206 -790 33 -195 58 -272 133 -400 l52 -90 1 -95 c1
-135 1 -132 35 -184 l32 -47 -24 -97 c-16 -68 -24 -127 -24 -196 l0 -98 48
-43 c53 -49 141 -86 261 -111 108 -22 149 -41 235 -112 41 -34 99 -74 130 -91
130 -69 343 -106 517 -90 105 9 174 32 215 70 31 29 32 31 25 91 -13 124 -91
232 -226 313 -146 87 -256 192 -286 273 -10 26 -29 64 -43 86 -63 94 -60 88
-49 132 9 33 7 56 -10 130 -11 49 -23 128 -26 176 -8 123 -22 176 -76 303 -37
87 -55 149 -83 290 -21 105 -63 266 -101 385 -35 113 -101 358 -146 545 -130
537 -192 741 -277 908 -38 75 -47 104 -54 171 -5 50 -20 112 -39 161 -17 44
-55 168 -86 275 -119 420 -204 675 -341 1020 -88 221 -215 495 -282 610 -21
36 -47 88 -57 115 -9 28 -34 75 -53 105 -20 30 -43 73 -50 95 -8 22 -24 56
-36 75 -14 21 -25 58 -28 92 -4 38 -19 84 -46 140 -23 46 -41 89 -41 95 0 25
51 70 114 102 73 36 123 80 132 115 3 12 -17 157 -45 322 -116 700 -119 625
47 1279 72 286 142 543 156 570 32 67 165 225 308 365 117 116 158 175 158
230 0 14 -11 51 -24 83 l-24 58 43 49 c61 69 115 151 165 250 59 119 116 203
195 290 37 41 94 113 127 160 32 47 91 123 129 170 129 156 248 366 359 636
92 224 138 301 241 409 48 49 114 133 147 185 58 91 65 97 174 170 92 61 114
80 116 102 2 20 -4 31 -23 44 -25 16 -28 15 -121 -30 -89 -43 -124 -54 -124
-41 0 22 45 76 149 180 106 105 121 124 121 153 0 43 -37 63 -72 40 -18 -12
-121 -100 -234 -201 -36 -32 -46 -39 -51 -34 -5 6 54 95 150 230 31 42 59 86
62 97 11 33 -12 60 -50 60 -28 0 -40 -8 -72 -47 -125 -156 -213 -255 -213
-241 0 9 50 128 99 235 28 62 51 121 51 131 0 29 -35 55 -64 48 -35 -9 -63
-49 -149 -217 -70 -138 -104 -193 -151 -246 l-19 -23 -59 113 c-95 180 -119
208 -167 192 -35 -11 -34 -41 7 -162 24 -71 42 -146 46 -188 7 -91 25 -146 69
-220 58 -95 51 -126 -70 -310 -84 -127 -142 -195 -348 -405 -215 -219 -276
-298 -374 -487 -71 -139 -76 -145 -177 -239 -57 -53 -131 -134 -164 -179 -35
-49 -92 -110 -138 -148 -42 -36 -90 -79 -107 -97 -53 -56 -116 -92 -229 -132
-125 -43 -186 -77 -289 -162 -75 -62 -171 -113 -221 -118 -24 -2 -34 3 -52 30
-28 41 -41 158 -24 220 12 45 17 52 86 101 59 42 88 85 119 176 16 44 50 113
77 154 62 91 87 145 98 218 14 84 -2 174 -47 263 -21 41 -40 79 -42 83 -2 5 5
7 14 5 36 -6 25 22 -31 77 -42 41 -54 59 -45 65 8 4 10 13 7 19 -6 10 -87 67
-137 97 -10 6 -30 22 -43 37 -13 14 -36 29 -50 33 -28 7 -32 14 -15 31 8 8 1
16 -27 31 -73 36 -129 45 -226 38 l-92 -7 19 21 c48 53 -47 45 -123 -10 -23
-16 -44 -30 -47 -30 -3 0 5 18 17 39 25 44 22 54 -17 54 -41 0 -101 -49 -132
-109 l-28 -54 -31 37 c-21 25 -36 34 -47 30 -21 -8 -21 -32 -2 -86 l14 -41
-36 -15 c-19 -8 -41 -15 -49 -15 -7 0 -25 -5 -39 -10 -23 -9 -25 -13 -14 -26
7 -9 22 -14 36 -11 36 7 27 -6 -20 -28 -29 -14 -43 -27 -45 -44 -4 -23 -3 -24
52 -17 37 4 56 3 56 -5 0 -5 -11 -34 -24 -63 -34 -75 -46 -123 -46 -189 0 -38
-7 -71 -20 -96 -31 -62 -60 -180 -60 -246 0 -33 9 -98 20 -145 11 -47 20 -106
20 -131 0 -75 26 -143 81 -211 73 -91 83 -122 60 -205 -14 -51 -45 -83 -81
-83 -28 0 -52 16 -167 109 -89 74 -185 122 -293 149 -41 11 -93 27 -114 36
-54 23 -302 270 -373 371 -31 44 -98 123 -149 176 -93 97 -118 136 -179 280
-62 147 -158 276 -380 512 -212 226 -376 469 -391 580 -5 37 -1 57 29 123 26
59 37 100 42 159 5 54 19 110 43 174 39 104 37 124 -15 129 -37 4 -56 -18
-127 -142 -27 -47 -56 -86 -64 -86 -43 0 -157 173 -274 416 -91 191 -129 233
-180 203z"/>
</g>
</svg>
