<?xml version="1.0" standalone="no"?>
<!DOCTYPE svg PUBLIC "-//W3C//DTD SVG 20010904//EN"
 "http://www.w3.org/TR/2001/REC-SVG-20010904/DTD/svg10.dtd">
<svg version="1.0" xmlns="http://www.w3.org/2000/svg"
 width="1024.000000pt" height="1024.000000pt" viewBox="0 0 1024.000000 1024.000000"
 preserveAspectRatio="xMidYMid meet">
<metadata>
Created by potrace 1.16, written by Peter Selinger 2001-2019
</metadata>
<g transform="translate(0.000000,1024.000000) scale(0.100000,-0.100000)"
fill="#000000" stroke="none">
<path d="M3826 9909 c-97 -10 -138 -23 -178 -57 -87 -74 -103 -224 -43 -411
l35 -108 0 -269 c0 -444 26 -687 105 -999 48 -189 69 -248 151 -431 l56 -126
-6 -107 c-12 -191 38 -383 168 -635 l71 -140 0 -160 c0 -253 -24 -1010 -36
-1121 -6 -55 -28 -183 -49 -285 -21 -102 -42 -213 -46 -247 -9 -83 3 -190 24
-211 10 -10 16 -28 14 -42 -13 -113 -83 -411 -221 -935 -80 -302 -128 -562
-166 -880 -8 -71 -22 -155 -30 -185 -8 -30 -15 -76 -15 -103 0 -26 -27 -181
-60 -345 -33 -163 -73 -394 -90 -512 -40 -276 -51 -331 -100 -473 -22 -65 -44
-148 -50 -185 -39 -244 -57 -287 -161 -387 -55 -53 -89 -76 -181 -119 -148
-70 -198 -119 -198 -196 0 -37 43 -88 95 -111 32 -15 66 -19 172 -19 142 0
185 6 334 50 92 27 211 52 314 65 128 16 145 37 144 177 0 51 -6 127 -13 168
-9 47 -11 83 -5 98 5 13 9 46 9 74 0 37 7 64 25 94 19 33 28 67 36 146 13 129
65 321 148 543 58 156 95 308 136 555 57 346 64 385 79 416 8 16 29 83 46 149
17 66 47 154 65 195 37 83 63 146 129 307 96 236 228 472 293 523 29 23 74 22
115 -3 65 -40 266 -435 439 -865 40 -97 96 -230 126 -296 29 -65 69 -171 87
-235 19 -64 55 -188 81 -276 88 -302 216 -700 252 -780 19 -44 39 -109 44
-144 13 -95 35 -178 68 -251 35 -78 56 -176 54 -250 0 -30 -3 -107 -4 -172 -4
-130 3 -150 72 -195 19 -12 45 -33 59 -47 58 -56 176 -88 325 -88 128 0 200
22 232 71 13 19 23 48 23 65 0 45 -41 125 -95 186 -121 136 -167 251 -166 407
1 48 -5 92 -19 132 -13 40 -20 87 -20 139 0 63 -7 100 -34 183 -19 57 -49 185
-66 284 -67 389 -163 762 -242 944 -11 25 -46 178 -79 339 -32 161 -111 498
-175 750 -240 944 -237 932 -224 976 16 54 14 164 -6 259 -14 71 -14 89 0 208
17 132 67 389 87 444 20 53 92 195 99 195 4 0 37 -46 74 -101 65 -97 69 -106
81 -193 8 -50 19 -176 25 -280 6 -105 15 -210 20 -235 20 -105 44 -202 75
-306 68 -224 70 -272 19 -338 -20 -26 -51 -56 -69 -67 -45 -28 -109 -99 -136
-152 -18 -33 -23 -60 -24 -115 0 -64 3 -75 30 -110 39 -48 121 -89 207 -103
123 -19 211 19 251 109 25 53 29 139 46 851 11 455 6 585 -30 795 -12 66 -24
176 -29 245 -7 123 -23 196 -105 490 -13 47 -35 137 -50 201 -30 136 -77 238
-133 294 -50 50 -165 111 -297 159 -166 61 -273 107 -290 126 -25 28 -29 88
-11 174 20 96 52 152 111 194 47 33 61 57 111 192 15 41 36 87 47 101 47 65
62 249 27 343 -22 56 -81 121 -151 164 -25 15 -42 36 -54 68 -34 90 -108 148
-202 161 -35 4 -59 15 -87 41 -34 30 -43 33 -75 27 -20 -4 -74 -10 -121 -14
-86 -7 -116 -17 -140 -46 -7 -9 -28 -22 -45 -29 -46 -20 -77 -69 -82 -130 -3
-28 -14 -69 -25 -92 -20 -38 -20 -47 -10 -164 10 -118 9 -126 -15 -204 -30
-100 -28 -135 21 -291 41 -132 97 -253 133 -287 13 -12 23 -30 23 -40 0 -34
-29 -78 -51 -78 -24 0 -282 232 -373 335 -34 38 -67 88 -78 118 -11 29 -37 75
-58 102 -48 63 -74 115 -95 190 -10 33 -37 98 -60 145 -100 200 -130 300 -118
389 10 77 8 97 -32 341 -19 118 -51 320 -70 449 l-35 233 32 52 c18 28 48 71
67 96 57 76 74 124 69 199 -8 114 -61 204 -143 242 -43 20 -83 21 -209 8z"/>
</g>
</svg>
