<?xml version="1.0" standalone="no"?>
<!DOCTYPE svg PUBLIC "-//W3C//DTD SVG 20010904//EN"
 "http://www.w3.org/TR/2001/REC-SVG-20010904/DTD/svg10.dtd">
<svg version="1.0" xmlns="http://www.w3.org/2000/svg"
 width="1024.000000pt" height="1536.000000pt" viewBox="0 0 1024.000000 1536.000000"
 preserveAspectRatio="xMidYMid meet">
<metadata>
Created by potrace 1.16, written by Peter Selinger 2001-2019
</metadata>
<g transform="translate(0.000000,1536.000000) scale(0.100000,-0.100000)"
fill="#000000" stroke="none">
<path d="M1954 14234 c-46 -16 -107 -72 -131 -119 -9 -16 -30 -47 -48 -67
-111 -131 -124 -270 -38 -441 18 -37 49 -84 67 -105 128 -143 226 -308 346
-587 115 -264 253 -525 386 -725 106 -160 190 -264 329 -409 61 -64 140 -154
175 -201 35 -47 120 -155 188 -240 124 -154 155 -205 168 -277 11 -63 30 -88
131 -176 150 -129 296 -285 328 -352 l28 -57 -32 -152 c-18 -83 -48 -223 -67
-311 -18 -88 -70 -331 -115 -540 -104 -493 -208 -900 -300 -1185 -69 -211 -62
-253 46 -282 l41 -11 -38 -161 c-21 -89 -38 -172 -38 -186 0 -13 -18 -58 -39
-100 -73 -140 -377 -1060 -500 -1510 -24 -88 -99 -428 -136 -618 -14 -74 -37
-170 -50 -215 -73 -255 -67 -184 -72 -802 -2 -308 -5 -738 -6 -955 -3 -440 -4
-446 -77 -680 -47 -147 -57 -210 -42 -263 10 -35 7 -44 -39 -135 -56 -110 -79
-190 -79 -274 0 -56 -2 -59 -59 -125 -105 -121 -314 -318 -374 -352 -32 -18
-117 -59 -190 -90 -153 -66 -203 -100 -228 -156 -22 -49 -24 -77 -5 -114 31
-59 131 -75 425 -68 272 6 314 15 493 107 76 38 149 70 162 70 13 0 41 -7 62
-16 97 -41 302 -2 390 73 54 47 58 65 57 234 -1 87 -7 183 -14 214 -11 52 -11
59 12 103 21 42 24 65 30 212 4 116 11 180 23 215 13 37 20 105 26 255 10 234
18 272 140 684 117 398 136 521 126 844 -7 225 -19 347 -38 369 -8 10 -6 19 9
36 38 41 43 62 41 188 l-2 124 67 186 c135 379 330 859 453 1117 74 156 181
342 259 447 36 49 65 97 65 108 0 17 -9 28 -80 87 -45 38 89 -34 170 -91 206
-146 337 -328 745 -1040 87 -150 218 -366 292 -480 104 -161 156 -254 232
-416 136 -290 180 -355 296 -439 59 -42 66 -52 143 -196 44 -84 105 -205 136
-268 30 -63 110 -212 177 -330 153 -270 249 -463 428 -855 l141 -310 -2 -90
c-2 -100 13 -149 59 -198 23 -23 26 -35 24 -80 -5 -96 -3 -122 8 -163 16 -59
51 -106 94 -127 l37 -19 2 -76 c5 -178 -13 -299 -61 -411 -57 -134 -64 -254
-17 -304 41 -44 91 -52 326 -52 211 1 216 1 279 28 119 50 161 101 161 195 0
28 -13 129 -30 225 -16 96 -30 192 -30 212 0 58 -40 214 -68 270 -22 42 -26
65 -28 140 -1 72 -10 118 -42 230 -22 77 -42 169 -45 205 -6 70 -12 85 -92
260 -29 64 -116 306 -195 545 -253 766 -299 875 -467 1115 -91 131 -144 215
-197 314 -41 76 -105 164 -173 238 -26 29 -43 57 -43 72 0 14 -20 53 -44 88
-83 118 -126 208 -190 396 -35 103 -112 322 -171 487 -59 165 -145 408 -191
540 -222 633 -250 705 -339 865 -77 139 -124 261 -135 354 -5 38 -17 99 -26
135 -9 36 -17 88 -18 115 l-1 48 48 13 c70 18 99 51 105 117 2 29 -6 164 -19
298 -38 390 -43 355 80 615 184 391 569 1148 631 1243 71 107 126 157 312 279
152 100 264 205 274 258 10 52 56 115 136 185 40 34 200 185 356 333 209 199
290 284 308 319 13 26 63 107 111 180 127 194 188 334 269 613 19 66 69 225
111 354 66 203 91 262 184 446 59 117 118 245 130 285 41 135 10 303 -64 341
-12 7 -45 33 -74 59 -62 57 -165 101 -238 103 -66 1 -116 -28 -143 -86 -11
-23 -34 -52 -51 -65 -62 -45 -95 -149 -89 -279 4 -100 31 -171 93 -247 19 -24
35 -48 35 -53 0 -16 -171 -416 -216 -506 -15 -29 -73 -117 -129 -197 -174
-247 -251 -378 -334 -571 -50 -115 -67 -133 -256 -264 -134 -94 -290 -210
-421 -314 -92 -72 -158 -92 -339 -101 -229 -11 -413 -61 -525 -141 -12 -9 -25
-5 -55 16 -27 18 -49 25 -68 22 -24 -3 -27 0 -26 22 0 14 -3 87 -7 161 l-7
135 54 82 c30 45 58 82 64 83 5 0 4 -5 -3 -12 -7 -7 -12 -18 -12 -26 0 -17
129 143 173 215 18 29 37 53 43 53 20 0 86 106 116 187 29 79 32 72 14 -37 -5
-29 -1 -24 24 28 43 89 64 198 57 302 -6 99 -26 160 -95 280 -27 47 -55 103
-62 125 -27 86 -109 213 -152 236 -18 10 -19 9 -7 -13 8 -15 -6 -6 -38 24 -28
26 -68 54 -89 63 -51 22 -125 45 -144 45 -13 0 -13 -1 0 -11 11 -7 3 -7 -25
-2 -22 4 -85 8 -140 8 -81 0 -108 -5 -145 -22 -25 -12 -65 -24 -90 -28 -71
-11 -225 -63 -256 -87 -44 -33 -104 -91 -115 -111 -10 -17 -9 -17 23 -2 l33
16 -33 -26 c-36 -30 -52 -55 -63 -102 -8 -39 4 -43 27 -8 24 36 28 25 8 -24
-21 -53 -12 -64 15 -20 32 53 25 23 -9 -35 -16 -29 -30 -68 -31 -87 -1 -19 -8
-56 -15 -84 -8 -27 -13 -68 -12 -91 2 -34 -5 -49 -44 -100 -77 -98 -89 -156
-39 -196 l29 -23 -14 -109 c-9 -66 -11 -113 -5 -119 5 -5 1 -33 -10 -70 -10
-34 -19 -92 -19 -129 0 -61 3 -71 30 -101 36 -42 96 -59 189 -56 l66 2 0 -154
c-1 -138 -3 -159 -24 -205 -12 -29 -36 -64 -52 -80 l-29 -28 0 36 c0 50 -36
99 -95 129 -28 14 -72 40 -99 58 -76 53 -164 88 -317 126 -178 45 -203 56
-314 138 -50 37 -104 69 -121 73 -21 4 -36 16 -48 39 -29 53 -128 155 -301
308 -171 152 -176 158 -318 400 -49 82 -131 198 -218 307 -150 186 -281 366
-342 467 -21 34 -74 136 -118 228 l-81 166 25 47 c41 76 60 166 53 252 -9 121
-27 160 -120 254 -44 46 -95 91 -113 100 -39 20 -113 20 -169 0z m76 -376 c0
-5 -4 -8 -10 -8 -5 0 -10 10 -10 23 0 18 2 19 10 7 5 -8 10 -18 10 -22z m3133
-695 c-7 -2 -21 -2 -30 0 -10 3 -4 5 12 5 17 0 24 -2 18 -5z m187 -2006 c0 -2
-17 -19 -37 -38 l-38 -34 34 38 c33 34 41 42 41 34z"/>
</g>
</svg>
