<?xml version="1.0" standalone="no"?>
<!DOCTYPE svg PUBLIC "-//W3C//DTD SVG 20010904//EN"
 "http://www.w3.org/TR/2001/REC-SVG-20010904/DTD/svg10.dtd">
<svg version="1.0" xmlns="http://www.w3.org/2000/svg"
 width="1024.000000pt" height="1536.000000pt" viewBox="0 0 1024.000000 1536.000000"
 preserveAspectRatio="xMidYMid meet">
<metadata>
Created by potrace 1.16, written by Peter Selinger 2001-2019
</metadata>
<g transform="translate(0.000000,1536.000000) scale(0.100000,-0.100000)"
fill="#000000" stroke="none">
<path d="M4006 14594 c-239 -47 -454 -183 -601 -378 -52 -70 -110 -191 -142
-293 -24 -80 -26 -104 -27 -258 -1 -148 2 -180 22 -248 63 -218 177 -376 379
-528 l93 -70 0 -82 c0 -205 -7 -228 -178 -617 -276 -630 -351 -843 -352 -1004
0 -213 132 -420 448 -698 123 -109 120 -101 101 -215 -14 -81 -2 -135 38 -183
14 -17 83 -69 152 -114 133 -88 301 -214 364 -274 22 -22 37 -45 37 -59 0 -13
-15 -88 -34 -166 -70 -293 -96 -460 -116 -757 -24 -353 -39 -464 -81 -593
-115 -350 -117 -422 -13 -523 37 -37 54 -61 54 -78 0 -14 -16 -87 -35 -163
-26 -107 -65 -295 -65 -319 0 -1 -22 -28 -49 -58 -45 -52 -81 -135 -81 -188 0
-23 -89 -189 -182 -339 -46 -75 -121 -219 -167 -320 -46 -101 -110 -232 -143
-290 -81 -146 -100 -200 -100 -279 1 -36 6 -80 11 -99 9 -30 6 -46 -24 -120
-66 -165 -110 -398 -103 -547 5 -121 33 -186 118 -274 69 -71 149 -123 360
-232 91 -47 217 -116 280 -153 138 -81 614 -397 652 -433 26 -24 28 -31 27
-108 -1 -91 10 -121 66 -183 l34 -37 -14 -60 c-20 -83 -19 -110 10 -192 14
-39 25 -83 25 -96 0 -52 -43 -246 -80 -361 -67 -209 -78 -321 -40 -395 38 -74
131 -115 242 -108 238 17 531 328 603 640 8 35 19 113 25 175 5 61 17 130 25
154 8 23 62 115 118 203 115 180 147 245 147 306 0 136 -108 221 -418 330 -68
24 -138 54 -155 66 -74 55 -152 85 -221 85 -44 1 -71 6 -81 15 -30 30 -205
264 -265 354 -91 138 -219 259 -356 339 -193 112 -187 107 -180 149 8 41 49
85 74 78 10 -2 78 -19 153 -36 149 -36 184 -35 239 3 40 27 113 154 185 322
28 67 69 148 90 180 21 33 52 88 70 122 l32 63 6 -103 c4 -56 16 -147 27 -201
11 -55 31 -184 45 -289 28 -220 45 -268 110 -304 42 -24 109 -40 185 -45 l44
-4 41 -144 c98 -346 172 -489 371 -720 55 -64 197 -295 426 -695 166 -289 183
-321 253 -475 l63 -140 -34 -42 c-98 -123 -97 -280 1 -396 26 -31 28 -39 30
-135 1 -56 5 -156 10 -222 l8 -120 -38 -95 c-94 -242 -117 -318 -122 -419 -5
-83 -3 -104 14 -143 39 -87 127 -128 278 -128 173 0 318 65 460 205 145 144
187 257 189 510 l1 160 57 135 c74 179 91 240 92 330 1 95 -16 154 -62 215
-52 68 -101 104 -173 129 -59 20 -64 24 -71 59 -4 20 -21 63 -37 94 -31 61
-68 92 -133 113 -31 9 -39 18 -47 48 -45 169 -126 509 -156 652 -45 211 -71
293 -134 426 -66 139 -138 248 -256 388 -55 65 -106 127 -113 137 -17 22 -92
357 -92 407 0 48 5 55 66 85 59 30 97 71 115 124 19 58 5 225 -38 438 -41 211
-39 156 -32 835 4 321 3 334 -47 590 -24 123 -66 278 -106 393 -11 32 -18 59
-17 61 2 1 23 14 46 29 95 60 105 146 41 347 l-41 132 36 72 c49 93 48 129 -4
276 -22 63 -43 125 -46 138 -4 16 19 71 75 185 117 236 198 437 308 759 84
246 100 376 69 566 -38 234 -140 414 -311 546 -38 29 -84 61 -103 71 -46 23
-31 30 94 45 131 15 205 34 278 71 69 35 165 106 198 147 23 29 23 29 3 -38
-8 -27 8 -25 54 4 82 52 199 203 237 307 l23 64 13 -28 c12 -26 13 -26 31 -10
63 57 62 301 -3 465 -10 27 -19 51 -19 54 0 2 16 -3 36 -11 49 -20 54 -19 54
12 0 42 -38 109 -84 150 -40 35 -43 43 -48 99 -3 34 -16 83 -29 110 -21 46
-23 47 -27 22 l-3 -28 -35 28 c-23 18 -34 35 -34 53 0 74 -80 211 -167 285
-57 49 -135 84 -141 64 -2 -6 -19 3 -38 20 -47 41 -90 61 -229 109 -169 57
-343 78 -412 49 -27 -11 -24 -12 47 -24 l75 -12 -140 3 c-203 4 -299 -6 -370
-39 -91 -41 -148 -106 -95 -106 14 0 20 7 21 23 l0 22 9 -22 c5 -12 17 -26 27
-31 17 -10 17 -12 -5 -35 -13 -14 -45 -33 -70 -42 -88 -33 -268 -159 -260
-182 2 -4 6 -7 11 -5 11 3 8 -16 -4 -23 -15 -10 -16 -8 -59 94 -39 90 -137
411 -161 526 -12 59 -11 61 26 150 107 255 138 397 139 630 0 185 -13 284 -60
430 -98 303 -330 559 -604 664 -154 60 -346 77 -504 45z m548 -1941 c3 -10 15
-67 26 -128 12 -60 41 -195 65 -300 47 -209 69 -354 85 -580 13 -173 28 -261
65 -371 36 -109 122 -285 193 -396 32 -51 78 -129 102 -173 23 -44 61 -107 85
-140 23 -33 45 -66 50 -74 9 -16 10 -16 -70 35 -122 77 -247 121 -424 150
l-93 15 -99 82 c-165 137 -266 190 -419 221 -39 8 -118 64 -199 141 l-74 71
17 129 c24 186 81 475 122 617 38 130 147 430 168 463 19 28 157 126 278 195
56 33 106 60 110 60 4 0 9 -8 12 -17z m806 -637 c0 -2 -6 -16 -14 -31 -8 -15
-17 -54 -21 -86 -4 -33 -10 -59 -14 -59 -10 0 -53 142 -45 149 10 11 94 35 94
27z"/>
</g>
</svg>
