<?xml version="1.0" standalone="no"?>
<!DOCTYPE svg PUBLIC "-//W3C//DTD SVG 20010904//EN"
 "http://www.w3.org/TR/2001/REC-SVG-20010904/DTD/svg10.dtd">
<svg version="1.0" xmlns="http://www.w3.org/2000/svg"
 width="1024.000000pt" height="1536.000000pt" viewBox="0 0 1024.000000 1536.000000"
 preserveAspectRatio="xMidYMid meet">
<metadata>
Created by potrace 1.16, written by Peter Selinger 2001-2019
</metadata>
<g transform="translate(0.000000,1536.000000) scale(0.100000,-0.100000)"
fill="#000000" stroke="none">
<path d="M4355 13478 c65 -49 135 -118 119 -118 -5 0 -72 14 -149 32 -127 29
-155 32 -305 32 -149 0 -176 -2 -275 -28 -112 -29 -246 -77 -345 -126 -56 -27
-220 -120 -220 -124 0 -2 48 -1 108 0 l107 4 -55 -19 c-92 -31 -132 -51 -215
-106 -150 -99 -264 -219 -341 -359 -38 -70 -89 -216 -74 -216 4 0 30 22 56 50
26 27 49 48 51 46 3 -2 -8 -28 -22 -57 -15 -29 -38 -95 -51 -147 -21 -82 -24
-118 -24 -273 0 -178 8 -218 30 -141 14 52 68 140 73 122 3 -8 15 -55 27 -105
42 -169 109 -325 185 -430 25 -34 33 -70 75 -325 44 -276 67 -338 178 -485 94
-126 244 -259 377 -335 30 -17 55 -35 55 -40 0 -4 -12 -16 -27 -26 -49 -31
-144 -127 -189 -190 -81 -114 -115 -211 -160 -469 -49 -275 -58 -309 -114
-440 -79 -180 -152 -405 -166 -509 l-7 -46 -206 -137 c-230 -152 -443 -285
-589 -367 -107 -60 -201 -86 -315 -86 -105 0 -172 -18 -356 -97 -298 -127
-373 -172 -478 -287 -75 -82 -116 -157 -142 -265 -12 -46 -42 -129 -67 -185
-147 -324 -150 -708 -9 -1014 135 -291 405 -531 713 -631 130 -43 221 -54 379
-48 299 11 541 122 773 356 232 233 344 476 357 771 12 262 -47 477 -190 690
-73 109 -155 207 -242 288 l-77 72 28 10 c15 6 106 33 203 61 364 104 414 120
494 160 168 85 278 185 392 359 53 80 125 222 125 245 0 4 15 32 34 63 28 47
77 166 111 267 6 18 8 17 20 -10 8 -16 52 -113 98 -215 47 -102 106 -235 131
-296 49 -116 102 -212 139 -252 21 -22 22 -31 19 -160 -2 -101 1 -152 12 -195
18 -67 50 -133 78 -164 l21 -22 -21 -83 c-40 -156 -45 -280 -17 -369 5 -14
-29 -82 -118 -237 -215 -376 -319 -568 -472 -871 -73 -144 -91 -214 -62 -236
14 -10 9 -31 -49 -186 -76 -206 -102 -296 -148 -524 -36 -176 -57 -269 -150
-641 -59 -240 -149 -641 -191 -852 -30 -155 -61 -287 -70 -301 -3 -6 -27 -20
-53 -31 -59 -26 -75 -41 -125 -115 -51 -77 -75 -95 -167 -123 -149 -47 -157
-47 -335 -28 -99 11 -183 16 -212 11 -108 -16 -232 -105 -288 -207 -24 -43
-30 -65 -30 -118 0 -90 34 -157 125 -254 127 -133 282 -215 637 -337 79 -27
182 -71 230 -98 230 -129 399 -176 554 -152 124 20 192 59 230 133 31 60 61
256 61 402 1 126 2 130 35 193 24 47 33 78 33 112 0 72 -19 159 -47 224 l-26
58 43 142 c90 290 194 534 315 737 117 195 176 336 229 546 28 110 56 297 62
414 3 63 7 129 10 145 4 29 106 181 181 270 l32 38 59 -31 c101 -54 260 -102
338 -102 107 0 143 22 197 123 165 304 222 406 293 515 43 68 98 154 121 190
23 37 45 66 48 65 5 -2 365 -716 427 -847 33 -69 112 -89 258 -67 50 8 76 9
78 2 2 -6 29 -52 59 -103 149 -248 309 -415 502 -525 81 -46 104 -53 94 -27
-8 21 -23 29 307 -164 250 -145 442 -269 573 -369 55 -42 57 -46 51 -79 -12
-64 4 -117 55 -185 41 -54 47 -67 39 -89 -6 -19 0 -52 24 -130 51 -168 44
-271 -33 -476 -87 -232 -112 -375 -80 -454 35 -85 115 -151 228 -188 89 -29
167 -35 258 -18 114 20 186 50 268 112 100 75 178 170 237 289 76 153 91 221
100 480 7 194 10 229 33 300 103 328 109 431 32 590 -65 135 -158 214 -315
264 -51 17 -108 42 -126 56 -71 54 -143 79 -233 82 -65 2 -88 6 -103 20 -11
10 -115 115 -231 233 -287 292 -425 387 -637 439 -46 12 -88 25 -92 29 -4 4
-19 50 -33 102 -15 52 -32 113 -39 135 l-13 40 59 64 c71 78 120 173 126 245
4 47 -8 91 -101 372 -58 176 -151 463 -207 639 -56 176 -118 370 -137 430 -19
61 -53 157 -76 214 -26 68 -37 108 -31 116 5 7 41 59 79 116 107 157 146 208
255 329 131 147 189 236 302 465 114 232 128 273 128 380 0 172 -59 273 -331
562 -163 173 -248 250 -464 423 -213 171 -380 334 -496 485 -146 189 -254 262
-556 374 -418 156 -724 230 -898 218 l-83 -6 -26 37 c-23 33 -56 112 -56 133
0 4 26 10 58 14 176 18 300 100 368 243 21 44 28 80 35 162 4 58 29 209 54
335 25 127 49 267 52 312 3 45 10 80 14 77 5 -3 9 -17 9 -32 0 -19 3 -23 9
-13 7 11 10 11 17 0 25 -39 31 178 9 286 -31 147 -127 323 -246 448 -32 33
-57 62 -56 63 1 1 42 -11 92 -27 49 -15 91 -26 93 -24 8 8 -60 95 -108 138
-58 53 -147 108 -203 128 -34 12 -42 22 -76 95 -42 88 -98 152 -165 186 l-39
20 23 -38 c13 -22 32 -56 42 -76 10 -20 22 -40 28 -43 5 -3 10 -10 10 -15 0
-6 -24 8 -52 30 -121 92 -406 206 -541 217 l-72 6 60 -45z m2275 -4378 c63
-42 183 -118 265 -170 83 -51 155 -97 161 -102 9 -6 5 -35 -12 -106 -32 -137
-213 -680 -214 -642 0 8 -14 44 -31 80 -24 49 -33 86 -39 150 -9 105 -39 179
-90 223 -41 35 -29 -7 -135 462 -19 83 -37 161 -40 173 -7 28 -17 33 135 -68z"/>
</g>
</svg>
