<?xml version="1.0" standalone="no"?>
<!DOCTYPE svg PUBLIC "-//W3C//DTD SVG 20010904//EN"
 "http://www.w3.org/TR/2001/REC-SVG-20010904/DTD/svg10.dtd">
<svg version="1.0" xmlns="http://www.w3.org/2000/svg"
 width="1024.000000pt" height="1536.000000pt" viewBox="0 0 1024.000000 1536.000000"
 preserveAspectRatio="xMidYMid meet">
<metadata>
Created by potrace 1.16, written by Peter Selinger 2001-2019
</metadata>
<g transform="translate(0.000000,1536.000000) scale(0.100000,-0.100000)"
fill="#000000" stroke="none">
<path d="M5175 14704 c-190 -35 -357 -104 -531 -218 -260 -172 -396 -380 -411
-631 -8 -142 37 -287 117 -378 16 -19 30 -39 30 -44 0 -16 -54 -61 -92 -77
-21 -9 -61 -16 -90 -16 -72 0 -122 -16 -161 -49 -17 -16 -54 -42 -82 -58 -28
-16 -66 -51 -85 -77 -19 -27 -55 -72 -80 -101 -25 -29 -71 -103 -102 -164 -66
-129 -73 -161 -83 -391 -8 -196 -19 -272 -51 -336 -25 -53 -31 -57 -124 -85
-110 -33 -153 -109 -317 -564 -89 -247 -267 -783 -292 -879 -63 -243 -46 -414
54 -524 78 -88 185 -121 316 -101 156 23 390 132 638 297 116 76 141 90 141
77 0 -2 20 -145 45 -317 24 -172 49 -374 56 -449 l11 -137 -66 -268 c-93 -383
-176 -808 -231 -1187 -32 -219 -33 -280 -2 -311 13 -13 29 -25 35 -27 10 -3
10 -110 2 -499 -23 -1104 -75 -2567 -96 -2701 -6 -35 -4 -39 27 -54 99 -52
306 -105 490 -126 l106 -12 17 -166 c9 -91 25 -303 36 -471 31 -463 57 -703
149 -1340 81 -562 80 -677 -11 -890 -113 -267 -190 -379 -334 -485 -198 -147
-289 -300 -228 -382 40 -53 99 -66 274 -60 291 10 496 80 652 223 79 74 98 73
43 -1 -42 -57 -76 -132 -82 -183 -5 -43 -1 -60 21 -106 22 -45 35 -59 73 -77
42 -20 62 -23 173 -22 244 2 467 73 601 192 30 27 63 64 74 84 18 34 20 35 86
39 46 2 74 9 87 21 34 31 88 289 99 477 5 98 3 115 -27 230 -36 140 -48 274
-32 360 6 30 41 179 77 330 150 624 230 993 257 1185 18 124 15 538 -6 740 -8
88 -18 192 -22 231 l-7 71 109 12 c219 26 504 115 504 158 0 10 -5 47 -10 83
-34 242 -79 868 -110 1535 -34 746 -70 1426 -79 1515 -6 56 -6 91 1 104 6 11
8 43 4 77 -6 53 -5 59 11 59 54 0 72 31 258 449 68 152 189 420 270 596 159
349 190 430 205 547 12 101 13 98 -95 784 -72 461 -229 1260 -277 1404 -45
138 -83 198 -195 307 l-105 103 -43 167 c-24 93 -54 193 -65 223 -39 98 -108
439 -196 960 -88 524 -106 597 -199 784 -132 266 -353 449 -630 522 -127 34
-371 43 -500 18z m-744 -1443 c-24 -152 -11 -235 41 -278 29 -23 61 -90 51
-108 -16 -27 -258 -275 -270 -275 -6 0 -25 -11 -41 -25 -17 -14 -34 -25 -39
-25 -21 0 -86 66 -108 110 -13 26 -37 61 -54 77 -35 36 -55 100 -42 136 5 13
24 34 43 45 18 11 61 49 95 85 42 42 75 67 101 75 22 7 52 22 67 34 30 23 85
104 85 124 0 18 74 116 78 104 2 -5 -1 -41 -7 -79z m154 -547 c15 -36 44 -91
65 -122 81 -124 162 -176 289 -188 71 -7 74 -8 87 -40 8 -18 14 -56 14 -84 0
-45 -4 -55 -42 -96 -57 -62 -113 -88 -291 -135 -84 -22 -180 -52 -213 -68
-165 -77 -323 -217 -475 -421 -47 -63 -93 -121 -101 -128 -43 -35 -30 50 39
250 41 121 45 139 39 198 -3 36 -8 74 -12 86 -4 17 12 39 77 109 46 48 108
104 139 125 30 21 67 51 81 66 49 54 138 215 164 298 14 44 39 101 55 125 17
25 33 55 36 68 4 13 10 23 14 23 4 0 20 -30 35 -66z m245 -1199 c6 -8 37 -24
68 -36 47 -19 83 -23 210 -27 83 -2 152 -7 152 -12 0 -4 -25 -47 -57 -96 -209
-330 -292 -484 -399 -741 -32 -78 -62 -143 -65 -143 -12 0 -30 153 -36 300 -6
151 3 259 38 466 24 148 60 304 69 304 4 0 13 -7 20 -15z m1752 -1542 c78
-293 92 -379 67 -425 -6 -11 -12 -44 -14 -73 -2 -30 -15 -78 -31 -111 -57
-125 -77 -171 -101 -239 -32 -89 -39 -96 -47 -47 -3 22 -22 91 -42 154 -35
110 -36 116 -30 228 6 114 27 225 106 553 19 75 36 137 39 137 4 0 27 -80 53
-177z m-1233 -5806 c29 -110 41 -251 41 -466 0 -206 13 -546 35 -956 26 -463
17 -928 -20 -1146 -18 -109 -65 -241 -76 -213 -43 117 -72 230 -81 311 -12
109 1 455 27 718 73 740 84 1069 50 1495 -28 356 -29 367 -11 350 9 -9 25 -50
35 -93z"/>
</g>
</svg>
