<?xml version="1.0" standalone="no"?>
<!DOCTYPE svg PUBLIC "-//W3C//DTD SVG 20010904//EN"
 "http://www.w3.org/TR/2001/REC-SVG-20010904/DTD/svg10.dtd">
<svg version="1.0" xmlns="http://www.w3.org/2000/svg"
 width="1024.000000pt" height="1536.000000pt" viewBox="0 0 1024.000000 1536.000000"
 preserveAspectRatio="xMidYMid meet">
<metadata>
Created by potrace 1.16, written by Peter Selinger 2001-2019
</metadata>
<g transform="translate(0.000000,1536.000000) scale(0.100000,-0.100000)"
fill="#000000" stroke="none">
<path d="M5095 15150 c-101 -11 -147 -25 -265 -80 -58 -27 -132 -60 -165 -72
-85 -33 -167 -90 -266 -185 -174 -167 -302 -392 -339 -594 -15 -80 -15 -232 0
-307 16 -80 80 -207 137 -272 l48 -54 0 -246 c0 -235 1 -247 23 -290 35 -69
96 -130 131 -130 8 0 -1 10 -20 23 -54 36 -88 110 -94 203 l-5 79 14 -62 c29
-126 70 -191 141 -224 87 -40 222 -6 271 68 l21 32 38 -46 c45 -54 130 -98
173 -88 15 3 60 28 100 55 41 28 78 50 83 50 13 0 39 -63 39 -96 0 -17 -11
-35 -32 -52 -17 -15 -65 -58 -105 -95 -84 -78 -170 -122 -353 -181 -148 -48
-251 -98 -286 -138 -36 -43 -79 -139 -93 -208 -13 -62 -76 -527 -87 -637 -3
-40 -10 -73 -14 -73 -4 0 -15 9 -24 19 -25 28 -140 103 -213 140 -130 65 -274
77 -398 32 -33 -12 -66 -23 -74 -24 -19 -3 -221 263 -311 408 -71 115 -122
171 -163 179 -98 21 -319 56 -348 56 -21 0 -42 -7 -50 -16 -18 -22 -2 -50 162
-259 77 -99 155 -202 174 -230 l34 -50 -21 -62 c-20 -61 -20 -65 -4 -125 9
-35 25 -114 37 -177 11 -63 25 -124 31 -135 19 -36 145 -200 180 -233 18 -17
56 -43 83 -57 28 -13 61 -35 74 -47 23 -22 24 -25 15 -113 -5 -50 -9 -154 -8
-231 0 -122 3 -148 23 -198 29 -74 65 -110 271 -269 91 -70 199 -154 240 -188
85 -69 161 -110 202 -110 21 0 28 -5 28 -19 0 -39 -34 -195 -105 -487 -163
-664 -252 -1096 -246 -1197 1 -10 26 -42 56 -71 l56 -53 -16 -219 c-55 -793
-73 -2507 -31 -2922 14 -129 21 -163 47 -220 58 -127 140 -332 260 -654 347
-925 574 -1618 719 -2193 39 -155 50 -170 122 -161 27 4 78 16 114 27 36 11
68 18 71 16 8 -9 -27 -164 -61 -264 -91 -270 -254 -483 -499 -652 -134 -92
-182 -138 -213 -204 -31 -67 -30 -98 3 -137 33 -40 61 -51 146 -59 l68 -6 -26
-34 c-32 -44 -33 -85 -1 -106 64 -42 341 -66 536 -46 237 24 329 59 431 160
55 56 77 90 147 226 45 88 94 176 111 195 l29 35 6 -100 c13 -193 20 -207 117
-213 97 -6 108 6 120 138 11 118 47 297 84 416 14 43 28 106 31 139 7 68 -17
239 -45 321 l-17 52 65 13 c78 14 97 22 111 50 26 47 95 775 110 1154 29 719
6 1287 -82 2055 -46 399 -46 399 37 1630 14 201 27 442 31 535 3 94 14 220 24
280 29 171 32 211 39 463 l6 236 55 22 c30 12 71 35 90 52 l35 29 -22 94
c-132 569 -182 808 -273 1316 l-50 282 60 93 c104 160 207 376 305 638 81 218
130 395 224 821 74 329 76 348 75 594 0 184 -4 236 -21 315 -29 130 -56 199
-108 270 -69 93 -145 141 -375 235 -250 102 -340 167 -413 298 -41 72 -103
132 -148 142 -16 4 -31 10 -34 15 -3 5 36 29 87 53 51 25 110 59 132 76 90 72
137 167 138 281 0 53 2 60 10 40 15 -37 2 -156 -21 -203 -26 -52 -20 -58 12
-15 56 74 78 208 58 349 -34 229 -212 645 -395 924 -223 338 -505 499 -811
465z m-1348 -3595 l28 -24 -109 -1 c-60 0 -106 3 -102 8 12 12 99 40 128 41
15 1 39 -10 55 -24z m93 -271 c38 -24 91 -78 135 -137 27 -36 28 -41 23 -128
-3 -49 -8 -92 -11 -96 -6 -6 -78 52 -168 135 l-57 53 15 45 c14 43 14 93 -2
142 -6 19 -5 21 11 15 11 -3 35 -17 54 -29z m787 -1261 c-2 -21 -4 -6 -4 32 0
39 2 55 4 38 2 -18 2 -50 0 -70z m528 -3864 c18 -129 54 -369 80 -534 25 -165
57 -383 70 -485 13 -102 31 -234 39 -295 43 -321 86 -868 92 -1175 2 -129 2
-230 -1 -225 -2 6 -18 78 -34 160 -66 333 -209 714 -379 1013 -25 44 -46 97
-53 135 -6 34 -27 97 -46 141 -20 43 -37 95 -40 115 -3 20 15 147 41 291 64
361 186 1077 186 1097 0 3 2 4 5 1 3 -3 21 -110 40 -239z"/>
</g>
</svg>
