<?xml version="1.0" standalone="no"?>
<!DOCTYPE svg PUBLIC "-//W3C//DTD SVG 20010904//EN"
 "http://www.w3.org/TR/2001/REC-SVG-20010904/DTD/svg10.dtd">
<svg version="1.0" xmlns="http://www.w3.org/2000/svg"
 width="1024.000000pt" height="1536.000000pt" viewBox="0 0 1024.000000 1536.000000"
 preserveAspectRatio="xMidYMid meet">
<metadata>
Created by potrace 1.16, written by Peter Selinger 2001-2019
</metadata>
<g transform="translate(0.000000,1536.000000) scale(0.100000,-0.100000)"
fill="#000000" stroke="none">
<path d="M5030 14635 c-149 -28 -304 -94 -429 -182 -158 -112 -322 -305 -400
-473 -50 -107 -64 -180 -59 -305 4 -94 8 -118 31 -165 15 -30 25 -44 22 -30
-3 14 -8 48 -11 75 -5 42 2 28 40 -78 51 -144 82 -205 111 -221 29 -16 32 -23
54 -116 17 -77 18 -91 5 -150 -28 -132 -12 -202 48 -214 41 -7 75 -49 113
-136 16 -36 37 -77 47 -92 10 -14 18 -31 18 -37 0 -7 7 -14 16 -18 22 -8 12
-97 -22 -206 -25 -77 -59 -230 -71 -313 -5 -38 -8 -41 -50 -52 -56 -15 -126
-84 -170 -167 -39 -74 -216 -601 -238 -710 -9 -44 -19 -119 -22 -167 -3 -49
-9 -88 -12 -88 -9 0 -178 90 -212 113 -42 28 -154 47 -211 37 -27 -5 -56 -14
-66 -19 -26 -14 -76 31 -277 254 -203 224 -218 235 -341 235 -103 0 -258 -24
-289 -44 -57 -38 -21 -107 165 -312 154 -169 144 -154 130 -211 -10 -40 -10
-61 4 -128 21 -101 51 -163 121 -248 62 -75 111 -114 198 -158 67 -34 72 -44
87 -166 38 -310 120 -426 412 -582 125 -67 197 -91 270 -91 74 0 124 20 146
60 36 65 38 65 34 -12 -5 -109 -54 -325 -138 -615 -41 -142 -95 -328 -120
-413 -25 -85 -46 -178 -47 -207 -2 -45 2 -56 27 -82 16 -17 37 -33 46 -36 15
-5 16 -12 9 -50 -40 -215 -91 -654 -139 -1195 -50 -575 -109 -1553 -97 -1602
16 -63 69 -91 354 -191 63 -22 63 -22 63 -62 1 -98 60 -304 124 -435 53 -108
256 -424 438 -684 78 -110 157 -223 176 -251 20 -27 88 -125 153 -217 128
-182 293 -426 355 -527 l39 -64 0 -261 c0 -237 -2 -270 -23 -366 -83 -367
-322 -762 -714 -1176 -58 -61 -115 -131 -126 -156 -43 -88 -23 -152 60 -189
49 -22 64 -24 223 -23 143 0 183 4 250 22 185 51 384 179 499 321 65 81 77 85
145 42 62 -39 83 -44 129 -31 73 19 120 86 151 218 16 68 21 77 39 74 17 -3
23 5 31 37 6 23 16 59 21 80 35 135 122 303 221 426 l61 75 34 -30 c65 -57
155 -30 201 60 60 117 28 324 -75 490 -49 78 -90 119 -237 230 -71 55 -149
116 -172 137 l-42 38 60 230 c108 418 137 636 125 924 -8 178 -25 283 -95 585
-43 183 -51 234 -51 315 0 53 4 101 8 107 4 7 40 17 79 23 97 15 140 36 152
75 5 17 12 119 16 226 15 498 43 1018 92 1725 12 173 17 376 18 656 l0 406 35
19 35 19 -1 70 c-1 53 -15 117 -58 265 -68 232 -196 640 -230 736 l-25 68 35
35 c80 80 130 179 238 473 157 427 291 897 386 1353 75 362 40 552 -128 703
-41 37 -100 94 -132 126 -56 58 -57 61 -43 83 13 19 14 41 9 111 -14 171 -51
291 -183 587 -175 391 -218 524 -303 956 -36 178 -70 289 -121 392 -53 106
-85 151 -160 223 -116 109 -243 180 -398 221 -120 32 -352 41 -471 18z m1430
-1977 c71 -151 116 -288 130 -403 6 -48 9 -90 6 -92 -2 -3 -12 31 -21 74 -35
166 -82 306 -169 506 -9 20 -14 37 -10 37 3 0 32 -55 64 -122z m-1320 -429
c-14 -127 -137 -329 -201 -329 -6 0 8 22 33 48 77 83 115 155 153 296 9 32 18
57 19 55 2 -2 0 -34 -4 -70z m501 -324 c-28 -61 -112 -165 -133 -165 -6 0 10
23 35 50 50 56 87 116 108 174 9 24 15 32 17 22 2 -9 -10 -46 -27 -81z m-555
-241 c91 -41 224 -44 319 -8 10 4 2 -13 -22 -45 -35 -46 -362 -626 -426 -756
-41 -82 -117 -264 -147 -350 -16 -44 -29 -72 -29 -63 -1 10 10 132 24 270 34
335 90 683 131 806 21 61 75 172 84 172 4 0 34 -12 66 -26z m-1336 -906 c55
-29 98 -53 96 -55 -9 -10 -188 71 -207 93 -21 26 9 16 111 -38z m496 -84 c123
-83 214 -173 267 -265 42 -71 32 -71 -17 1 -47 71 -154 176 -248 246 -65 47
-66 61 -2 18z m-586 -449 c14 -4 68 -42 120 -84 147 -118 231 -165 370 -205
68 -19 106 -24 193 -25 43 -1 66 -5 62 -11 -9 -14 -121 -12 -207 4 -146 28
-244 76 -405 199 -52 40 -118 86 -146 104 -77 48 -101 68 -52 45 22 -11 51
-23 65 -27z m1601 -5230 c17 -52 89 -389 89 -412 0 -4 -12 12 -26 37 -14 24
-49 74 -78 110 -86 106 -107 142 -113 203 -3 30 -3 71 1 92 l7 36 51 -3 50 -3
19 -60z"/>
</g>
</svg>
