<?xml version="1.0" standalone="no"?>
<!DOCTYPE svg PUBLIC "-//W3C//DTD SVG 20010904//EN"
 "http://www.w3.org/TR/2001/REC-SVG-20010904/DTD/svg10.dtd">
<svg version="1.0" xmlns="http://www.w3.org/2000/svg"
 width="1024.000000pt" height="1536.000000pt" viewBox="0 0 1024.000000 1536.000000"
 preserveAspectRatio="xMidYMid meet">
<metadata>
Created by potrace 1.16, written by Peter Selinger 2001-2019
</metadata>
<g transform="translate(0.000000,1536.000000) scale(0.100000,-0.100000)"
fill="#000000" stroke="none">
<path d="M5020 14663 c-78 -13 -224 -55 -280 -81 -73 -33 -202 -122 -269 -185
-169 -162 -291 -404 -375 -747 -50 -202 -70 -351 -70 -535 -1 -139 2 -169 21
-230 43 -137 138 -248 270 -317 81 -43 149 -63 262 -78 65 -9 94 -18 126 -40
58 -40 68 -55 60 -87 -18 -73 -151 -154 -440 -268 -278 -110 -499 -228 -572
-306 -46 -50 -71 -104 -93 -208 -28 -125 -110 -623 -160 -966 -80 -550 -92
-624 -146 -908 -58 -305 -180 -907 -319 -1579 -47 -224 -85 -416 -85 -427 0
-28 22 -41 79 -48 28 -3 51 -7 51 -8 0 -1 -30 -123 -67 -271 -62 -248 -67
-278 -67 -379 -1 -131 15 -201 78 -331 57 -120 140 -210 238 -259 115 -57 188
-42 188 40 0 49 -21 95 -76 168 -80 105 -114 207 -114 345 0 86 15 59 28 -52
7 -57 19 -124 28 -148 33 -97 97 -115 129 -36 23 59 52 266 60 438 6 131 -4
317 -22 374 -4 15 -2 18 13 12 11 -4 44 -12 74 -18 l55 -11 1 -206 c0 -185 4
-231 37 -451 79 -534 237 -1756 276 -2150 44 -435 66 -815 82 -1410 14 -542 7
-840 -37 -1403 -19 -243 -21 -237 78 -264 67 -19 67 -12 10 -138 -101 -224
-250 -399 -460 -543 -137 -94 -186 -163 -168 -237 8 -33 32 -44 134 -60 288
-46 520 -15 682 92 69 46 151 123 197 186 l36 48 17 -51 c10 -28 22 -56 27
-61 5 -5 35 -14 66 -19 94 -18 231 15 262 64 20 31 85 385 85 464 0 56 -15
147 -36 213 -3 13 5 18 34 23 71 11 71 12 87 317 30 577 37 771 42 1294 4 469
2 604 -18 1025 -26 555 -27 858 -5 1290 9 168 21 459 28 647 7 188 13 341 15
340 3 -4 107 -596 137 -782 73 -462 184 -1258 286 -2050 17 -132 39 -307 50
-390 29 -219 78 -606 100 -790 11 -88 22 -176 25 -195 2 -19 23 -183 45 -365
30 -237 45 -334 56 -347 9 -9 38 -22 66 -29 30 -8 54 -21 61 -34 9 -14 11 -93
8 -280 -8 -574 -9 -533 22 -595 89 -173 272 -237 476 -165 103 36 204 124 244
213 26 59 29 199 5 282 -9 30 -32 109 -52 175 -19 66 -50 181 -69 255 l-34
135 26 3 c62 7 131 33 142 54 9 16 10 90 5 272 -3 138 -9 350 -12 471 -18 772
-36 1115 -75 1460 -17 157 -35 292 -104 805 -46 343 -45 534 20 2035 8 193 15
465 15 606 l0 257 44 11 c25 6 61 11 80 11 l35 0 -25 -54 c-68 -148 -89 -277
-99 -611 -7 -203 3 -277 38 -299 25 -16 68 11 91 58 23 48 66 210 66 254 0 20
4 31 10 27 12 -8 13 -99 0 -185 -7 -49 -25 -98 -75 -195 -95 -188 -88 -234 30
-222 95 10 233 96 310 195 102 130 195 374 195 513 0 40 -42 381 -59 471 l-8
47 54 12 c98 20 97 15 89 283 -19 659 -35 974 -67 1381 -65 819 -184 1742
-290 2245 -61 289 -121 392 -274 472 -38 20 -185 79 -325 131 -321 120 -413
160 -560 243 -111 63 -118 69 -123 103 -3 20 -8 50 -12 67 l-7 31 58 8 c85 10
219 51 289 88 138 73 246 223 281 387 26 122 14 395 -24 577 -78 365 -214 676
-371 846 -104 112 -210 169 -356 193 -49 8 -128 23 -175 34 -80 18 -266 26
-340 13z m-285 -2758 c78 -74 178 -108 320 -108 144 -1 270 38 353 107 16 15
32 26 35 26 3 0 -26 -73 -65 -162 -258 -600 -435 -1056 -578 -1488 -69 -206
-79 -230 -84 -200 -17 93 -67 452 -82 585 -27 226 -24 664 4 890 23 178 53
385 57 385 1 0 19 -16 40 -35z m1685 -2005 c6 -80 19 -228 30 -330 38 -360 52
-591 73 -1167 2 -46 1 -81 -1 -78 -10 10 -176 844 -192 958 -18 141 -12 256
24 466 19 108 37 220 41 249 4 29 9 52 10 50 2 -2 9 -68 15 -148z"/>
</g>
</svg>
