<?xml version="1.0" standalone="no"?>
<!DOCTYPE svg PUBLIC "-//W3C//DTD SVG 20010904//EN"
 "http://www.w3.org/TR/2001/REC-SVG-20010904/DTD/svg10.dtd">
<svg version="1.0" xmlns="http://www.w3.org/2000/svg"
 width="1024.000000pt" height="1536.000000pt" viewBox="0 0 1024.000000 1536.000000"
 preserveAspectRatio="xMidYMid meet">
<metadata>
Created by potrace 1.16, written by Peter Selinger 2001-2019
</metadata>
<g transform="translate(0.000000,1536.000000) scale(0.100000,-0.100000)"
fill="#000000" stroke="none">
<path d="M5220 14764 c-313 -39 -612 -193 -800 -410 -62 -72 -133 -211 -162
-319 -28 -102 -32 -331 -8 -380 22 -44 50 -43 85 6 16 22 31 35 33 30 10 -29
-26 -88 -101 -166 l-82 -85 -69 0 -69 0 -51 -52 c-28 -29 -72 -62 -97 -74 -26
-12 -59 -39 -75 -60 -15 -22 -47 -60 -70 -85 -23 -25 -47 -63 -54 -85 -7 -21
-24 -61 -37 -88 -14 -27 -32 -71 -39 -98 -14 -44 -49 -263 -76 -468 -10 -75
-15 -89 -44 -117 -27 -28 -39 -33 -78 -33 -52 0 -90 -16 -123 -52 -12 -12 -63
-108 -113 -213 -218 -452 -394 -907 -470 -1218 -91 -368 -60 -513 128 -600 42
-19 63 -22 187 -21 118 0 155 5 238 27 188 50 484 180 676 296 46 28 85 50 86
49 1 -2 15 -138 30 -303 20 -213 29 -361 29 -510 1 -233 0 -237 -90 -755 -107
-606 -193 -1126 -205 -1232 -14 -122 -8 -142 54 -171 l34 -16 6 -233 c4 -128
13 -318 22 -423 8 -104 17 -224 20 -265 14 -184 73 -725 160 -1470 148 -1266
162 -1493 174 -2830 l6 -725 33 0 c17 0 32 -4 32 -10 0 -20 -62 -140 -113
-219 -69 -105 -141 -183 -241 -260 -109 -84 -139 -100 -298 -161 -151 -58
-197 -86 -222 -138 -41 -87 -1 -145 124 -180 119 -34 245 -49 410 -50 242 -1
346 24 508 121 120 71 169 78 263 36 61 -28 71 -29 211 -29 121 0 150 3 163
16 53 53 64 335 26 647 -27 226 -28 212 13 212 32 0 66 20 66 40 0 4 7 70 15
146 74 713 87 1708 30 2389 -38 457 -44 547 -50 775 -6 208 9 1043 20 1120 2
14 4 57 5 95 1 47 4 64 10 50 4 -11 29 -166 55 -345 64 -437 103 -673 181
-1065 35 -181 71 -364 79 -405 24 -124 131 -769 170 -1020 20 -129 47 -305 61
-390 42 -260 143 -971 174 -1225 21 -163 35 -244 45 -254 8 -8 34 -17 57 -20
43 -6 43 -6 46 -51 7 -86 -19 -266 -64 -450 -86 -353 -82 -477 19 -554 65 -50
110 -60 257 -59 323 2 507 122 551 359 15 81 6 216 -30 432 -17 101 -34 219
-37 262 l-7 78 51 7 c28 4 56 13 63 21 8 10 10 58 5 177 -67 1612 -91 1894
-226 2662 -21 121 -43 281 -49 355 -21 246 -31 754 -38 1736 -6 913 -5 972 12
997 17 27 17 82 0 134 -5 17 -1 24 20 35 22 10 45 50 115 203 48 105 101 219
117 255 378 806 386 823 436 950 70 180 82 236 81 380 -1 117 -7 164 -58 450
-8 47 -31 175 -51 285 -58 330 -229 1128 -306 1434 -69 277 -151 356 -512 500
-277 111 -376 177 -443 297 -39 70 -73 107 -145 156 -27 18 -49 35 -49 38 0 3
51 21 113 41 160 52 238 93 319 168 109 101 171 205 203 344 55 237 6 614
-120 926 -154 383 -404 609 -760 688 -68 15 -323 26 -395 17z m-769 -1799 c14
-38 29 -78 33 -87 6 -13 4 -18 -6 -18 -32 0 -110 -63 -178 -145 -109 -131
-132 -134 -170 -22 -11 34 -36 82 -55 107 -19 25 -51 68 -71 96 l-35 52 19 38
c11 22 41 59 67 84 26 25 60 63 75 86 16 22 69 74 119 114 51 41 107 97 128
128 l38 55 5 -209 c5 -191 8 -215 31 -279z m1740 -182 c-5 -10 -22 -29 -37
-43 -26 -23 -25 -22 5 18 34 43 49 55 32 25z m-1616 -70 c38 -63 140 -162 206
-198 47 -26 64 -30 134 -30 44 0 90 4 101 8 21 7 22 5 26 -75 4 -73 2 -86 -16
-107 -59 -66 -270 -177 -458 -240 -231 -77 -254 -94 -404 -288 -81 -105 -320
-363 -337 -363 -9 0 52 172 107 300 76 176 102 275 88 344 -12 61 -8 68 60
102 27 14 88 64 136 112 72 72 98 107 151 206 36 65 86 148 113 184 26 35 48
71 48 78 0 27 18 13 45 -33z m331 -1199 c100 -33 192 -45 283 -34 42 5 84 12
94 16 13 5 -26 -82 -126 -282 -166 -332 -225 -463 -348 -767 -48 -121 -90
-221 -92 -224 -22 -22 -28 588 -8 772 15 136 55 385 77 483 13 60 19 72 33 67
9 -4 48 -17 87 -31z m1633 -1494 c86 -351 94 -394 94 -485 0 -109 -23 -194
-111 -405 -34 -80 -64 -157 -67 -173 -9 -36 -25 -45 -25 -13 0 14 -11 94 -25
178 -33 210 -39 296 -26 413 14 130 114 637 122 622 4 -7 21 -68 38 -137z"/>
</g>
</svg>
