<?xml version="1.0" standalone="no"?>
<!DOCTYPE svg PUBLIC "-//W3C//DTD SVG 20010904//EN"
 "http://www.w3.org/TR/2001/REC-SVG-20010904/DTD/svg10.dtd">
<svg version="1.0" xmlns="http://www.w3.org/2000/svg"
 width="1024.000000pt" height="1536.000000pt" viewBox="0 0 1024.000000 1536.000000"
 preserveAspectRatio="xMidYMid meet">
<metadata>
Created by potrace 1.16, written by Peter Selinger 2001-2019
</metadata>
<g transform="translate(0.000000,1536.000000) scale(0.100000,-0.100000)"
fill="#000000" stroke="none">
<path d="M4988 14376 c-253 -45 -461 -173 -597 -369 -82 -120 -93 -234 -24
-253 2 0 -10 -52 -26 -115 -41 -162 -64 -386 -58 -562 5 -164 17 -215 84 -360
l48 -102 -2 -125 c-1 -155 -24 -298 -63 -399 -44 -112 -61 -126 -250 -185
-190 -59 -239 -96 -299 -226 -37 -81 -64 -184 -95 -370 -24 -141 -33 -212 -96
-793 -58 -532 -145 -976 -314 -1596 -135 -494 -206 -799 -206 -883 0 -40 21
-93 40 -100 6 -2 -16 -84 -55 -203 -36 -110 -70 -226 -76 -258 -15 -72 -6
-234 16 -302 9 -27 25 -95 36 -150 30 -158 84 -242 184 -289 43 -21 114 -20
144 0 55 39 63 139 16 209 -21 29 -22 35 -9 46 33 27 39 58 59 299 4 41 16
107 28 145 20 63 22 89 20 276 l-2 205 97 -18 c53 -9 98 -17 98 -18 1 0 5 -37
9 -82 3 -46 19 -222 36 -393 16 -170 36 -386 44 -480 8 -93 26 -296 39 -450
28 -316 50 -618 66 -905 15 -291 19 -332 35 -356 26 -40 184 -80 436 -110 79
-9 149 -22 156 -28 29 -28 303 -890 389 -1226 47 -183 54 -323 30 -622 -52
-652 -132 -1112 -248 -1423 -92 -248 -174 -377 -379 -591 -127 -135 -180 -206
-211 -287 -37 -97 -13 -182 60 -215 30 -14 66 -17 187 -16 128 0 164 4 246 26
186 50 346 154 445 289 l35 47 24 -24 c29 -29 57 -30 100 -4 42 26 65 83 72
176 5 66 7 71 35 83 29 13 164 142 363 349 59 62 109 111 110 110 1 -2 7 -43
14 -93 19 -136 59 -188 147 -189 66 -1 80 21 99 159 9 61 32 175 51 255 32
127 36 156 32 235 -6 117 -28 164 -149 325 -52 69 -105 149 -117 177 -24 56
-72 334 -93 539 -12 117 -11 121 15 219 45 167 85 373 96 495 22 253 10 683
-29 1070 -10 96 -17 176 -16 177 1 2 63 14 138 28 157 29 234 55 275 93 40 37
40 43 52 697 6 303 15 669 20 815 6 146 13 505 17 798 6 505 7 532 24 532 10
0 26 11 35 25 14 22 16 44 11 143 -3 64 -15 164 -26 221 l-21 104 51 55 c62
68 259 321 356 457 95 134 177 284 204 374 19 66 21 88 16 200 -12 243 -88
839 -167 1311 -10 63 -26 174 -35 245 -37 288 -90 494 -155 594 -49 74 -75 96
-162 141 l-73 37 -41 174 c-23 96 -64 262 -92 369 -49 186 -66 288 -112 645
-59 457 -107 662 -192 815 -100 181 -272 315 -474 371 -100 27 -358 35 -476
15z m-232 -2238 c-56 -162 -49 -270 22 -330 117 -99 313 -46 553 149 l89 73
-80 -159 c-44 -88 -130 -247 -191 -353 -282 -488 -421 -770 -519 -1052 -41
-117 -42 -117 -59 4 -21 154 -31 353 -31 642 0 483 32 671 158 938 27 58 55
123 62 145 15 48 20 58 27 52 2 -3 -11 -52 -31 -109z m1382 -1818 c61 -256
111 -769 81 -847 -16 -45 -131 -213 -140 -207 -5 3 -9 14 -9 25 0 12 -34 123
-76 249 l-76 228 30 120 c17 66 60 198 96 294 36 97 66 181 66 189 0 25 17 -6
28 -51z m-1582 -611 c5 -35 4 -42 -6 -32 -7 6 -14 33 -17 60 -5 60 13 38 23
-28z m-1281 -2468 c-5 -71 -10 -90 -17 -77 -9 17 -6 77 9 171 11 66 16 10 8
-94z m2040 -5090 c-22 -78 -58 -165 -49 -116 11 59 58 208 62 195 3 -7 -4 -42
-13 -79z"/>
</g>
</svg>
