<?xml version="1.0" standalone="no"?>
<!DOCTYPE svg PUBLIC "-//W3C//DTD SVG 20010904//EN"
 "http://www.w3.org/TR/2001/REC-SVG-20010904/DTD/svg10.dtd">
<svg version="1.0" xmlns="http://www.w3.org/2000/svg"
 width="1024.000000pt" height="1024.000000pt" viewBox="0 0 1024.000000 1024.000000"
 preserveAspectRatio="xMidYMid meet">
<metadata>
Created by potrace 1.16, written by Peter Selinger 2001-2019
</metadata>
<g transform="translate(0.000000,1024.000000) scale(0.100000,-0.100000)"
fill="#000000" stroke="none">
<path d="M3280 9699 c-159 -14 -285 -71 -395 -177 -115 -112 -185 -245 -293
-562 -147 -428 -212 -566 -411 -864 -206 -309 -267 -477 -260 -715 4 -115 5
-119 47 -203 37 -76 73 -120 117 -145 11 -7 11 -21 0 -88 -23 -132 -44 -373
-60 -685 -18 -337 -28 -442 -56 -555 -23 -89 -138 -506 -199 -715 -50 -171
-90 -341 -90 -380 0 -31 22 -50 58 -50 19 0 20 -6 15 -148 -8 -235 25 -333
153 -459 41 -39 74 -74 74 -77 0 -3 -105 -6 -234 -6 l-234 0 -6 73 c-3 39 -10
164 -16 277 -43 821 -216 2301 -309 2646 -25 94 -86 144 -176 144 -55 0 -91
-19 -104 -54 -11 -28 7 -185 79 -689 99 -701 171 -1288 200 -1647 25 -317 31
-427 40 -832 11 -477 11 -478 -70 -1393 -117 -1319 -142 -1637 -129 -1646 21
-13 167 -11 175 3 12 19 179 1632 244 2353 17 193 33 365 36 383 l5 32 1148 0
1149 0 6 -88 c3 -48 11 -175 16 -282 9 -174 27 -515 75 -1380 18 -330 32 -583
45 -823 5 -108 14 -184 21 -193 17 -21 142 -19 160 2 10 13 10 91 0 437 -15
519 -34 1075 -62 1737 -11 278 -19 524 -17 548 l3 42 115 -55 c161 -77 218
-75 299 9 35 36 55 44 65 27 4 -5 -10 -59 -29 -121 -71 -226 -89 -366 -105
-815 -16 -427 -41 -649 -92 -800 -11 -33 -52 -127 -92 -210 l-71 -150 1 -90
c1 -76 8 -110 42 -219 23 -71 52 -175 64 -230 12 -56 26 -107 31 -113 6 -9 36
-13 83 -13 89 0 94 6 94 112 1 83 15 216 24 225 13 14 100 -39 255 -155 184
-138 233 -166 311 -179 82 -14 629 -8 643 6 7 7 13 54 15 116 2 58 7 105 12
105 35 0 108 -38 330 -171 129 -78 150 -81 489 -77 286 3 301 4 328 24 36 27
43 79 14 116 -27 34 -78 57 -189 84 -158 40 -212 71 -334 196 -116 117 -271
301 -324 385 -79 122 -146 386 -249 973 -73 414 -137 772 -170 945 -34 176
-75 437 -75 475 0 14 16 28 51 46 l52 26 -6 61 c-14 171 -154 395 -300 480
-138 81 -259 111 -1062 267 -189 36 -478 99 -484 105 -2 3 -14 29 -26 58 -12
29 -63 129 -115 221 l-93 167 7 107 c4 58 8 107 10 109 1 1 83 -2 182 -7 98
-5 271 -10 382 -10 l204 0 -2 -107 c-1 -60 -2 -114 -1 -120 1 -10 423 -13
2076 -13 l2075 0 2 -2165 3 -2165 -510 -2 -510 -3 -3 -117 -3 -118 866 0 866
0 -3 117 -3 118 -197 3 -198 2 0 2165 0 2165 200 0 200 0 -2 163 -3 162 -923
3 c-508 1 -922 5 -920 10 28 55 86 185 158 352 48 113 203 472 344 798 141
325 256 603 256 618 0 40 -85 70 -123 42 -17 -13 -147 -308 -534 -1210 l-196
-458 -537 0 -537 0 -48 78 c-27 42 -90 118 -140 169 -85 86 -94 92 -160 111
-119 33 -202 52 -231 52 -15 0 -108 -20 -208 -45 -194 -47 -338 -75 -392 -75
-26 0 -34 4 -34 18 0 48 -13 49 -390 56 -380 7 -610 20 -675 37 -63 17 -117
50 -110 69 36 91 45 267 21 392 -29 148 -74 269 -260 691 -42 95 -64 164 -87
270 -17 78 -37 156 -44 173 -12 30 -10 33 52 120 36 49 71 97 78 108 13 17 16
17 94 -13 91 -35 130 -38 172 -14 35 21 41 33 48 103 5 48 9 55 28 56 22 1 73
29 73 40 0 3 -4 14 -10 24 -8 15 -6 20 9 25 20 6 41 52 41 89 0 34 20 46 72
46 54 0 88 24 88 63 0 13 -18 60 -40 106 -46 95 -53 164 -22 209 26 38 52 108
52 141 0 15 9 36 19 45 11 10 29 41 41 69 18 42 22 64 18 127 -5 93 -39 160
-110 223 -27 23 -74 67 -106 98 -65 64 -160 130 -235 164 -74 34 -214 73 -289
80 -34 3 -72 7 -83 9 -11 1 -58 -1 -105 -5z m-115 -1815 c155 -139 173 -177
230 -460 19 -94 50 -226 70 -294 20 -68 34 -127 33 -132 -2 -5 -23 44 -48 109
-113 302 -284 666 -376 803 -25 37 -31 60 -14 60 6 0 53 -39 105 -86z m-1131
-709 c20 -63 20 -78 0 -42 -25 47 -46 176 -37 237 7 54 8 53 14 -45 4 -55 14
-122 23 -150z m3855 -1331 c34 -25 61 -50 61 -56 0 -12 -34 9 -103 64 -69 54
-31 47 42 -8z m-223 -24 c96 -33 89 -40 -41 -41 -137 -2 -174 -7 -188 -30 -15
-24 0 -107 21 -113 21 -6 -475 -5 -503 1 -17 3 -20 10 -17 47 l4 44 161 4 162
4 135 51 c74 28 151 52 171 52 20 1 62 -8 95 -19z m-636 -3097 c0 -8 37 -108
82 -222 133 -338 238 -620 264 -716 14 -51 28 -132 31 -187 5 -88 3 -104 -23
-185 -39 -117 -41 -251 -6 -362 13 -40 21 -75 19 -77 -2 -2 -28 0 -58 6 -82
15 -174 65 -235 127 -81 82 -260 341 -303 438 -20 45 -25 178 -12 293 14 119
49 269 125 529 57 196 80 282 91 346 6 35 25 44 25 10z"/>
</g>
</svg>
