<?xml version="1.0" standalone="no"?>
<!DOCTYPE svg PUBLIC "-//W3C//DTD SVG 20010904//EN"
 "http://www.w3.org/TR/2001/REC-SVG-20010904/DTD/svg10.dtd">
<svg version="1.0" xmlns="http://www.w3.org/2000/svg"
 width="1536.000000pt" height="1024.000000pt" viewBox="0 0 1536.000000 1024.000000"
 preserveAspectRatio="xMidYMid meet">
<metadata>
Created by potrace 1.16, written by Peter Selinger 2001-2019
</metadata>
<g transform="translate(0.000000,1024.000000) scale(0.100000,-0.100000)"
fill="#000000" stroke="none">
<path d="M8605 9884 c-80 -13 -189 -46 -246 -74 -160 -77 -307 -188 -390 -292
-21 -27 -63 -69 -93 -93 -138 -113 -216 -309 -175 -444 16 -54 60 -114 98
-133 19 -9 40 -30 47 -46 9 -21 21 -31 45 -36 19 -4 51 -22 72 -42 l38 -35
-11 -62 c-6 -34 -22 -97 -36 -140 -13 -43 -24 -82 -24 -87 0 -20 34 -40 69
-40 34 0 39 -4 59 -46 12 -25 35 -53 51 -62 24 -13 29 -22 24 -42 -4 -20 1
-29 21 -40 19 -9 26 -21 26 -42 0 -17 5 -28 14 -28 7 0 29 -23 47 -52 19 -29
49 -61 68 -72 30 -17 41 -18 95 -9 34 6 96 24 139 42 43 17 82 31 85 31 4 0
12 -11 19 -25 11 -25 8 -28 -86 -100 -54 -40 -116 -96 -138 -124 -22 -28 -63
-68 -90 -90 -89 -70 -134 -142 -193 -306 -17 -49 -42 -135 -55 -190 -12 -56
-37 -128 -54 -163 -17 -34 -31 -76 -31 -94 0 -18 -13 -62 -29 -98 -15 -36 -49
-114 -75 -175 -25 -60 -67 -154 -94 -207 -45 -94 -48 -97 -80 -98 -18 0 -50
-11 -72 -25 -30 -19 -53 -25 -97 -25 -85 0 -454 -27 -559 -41 l-92 -12 -48 35
c-73 53 -186 109 -233 115 -22 3 -41 7 -41 9 0 5 87 233 135 354 25 63 46 121
48 128 1 7 -12 22 -30 33 l-32 20 -16 -24 c-9 -14 -32 -65 -51 -113 -134 -337
-137 -344 -179 -344 -13 0 -30 -8 -37 -19 -7 -10 -32 -22 -54 -25 -29 -5 -52
-19 -79 -46 -21 -22 -41 -37 -45 -35 -8 5 -20 -69 -20 -122 0 -18 9 -59 20
-90 18 -52 29 -67 54 -76 5 -1 0 -19 -10 -39 l-19 -37 -190 -5 c-104 -2 -248
-11 -320 -20 -154 -19 -335 -62 -352 -84 -13 -16 -140 -23 -1238 -72 -350 -15
-823 -38 -933 -46 l-93 -6 3 -131 3 -130 103 -35 102 -34 0 -2074 0 -2074 25
-16 c21 -14 43 -16 123 -12 53 3 109 11 125 17 l27 11 0 1911 c0 1525 3 1910
13 1907 6 -3 140 -36 297 -73 157 -38 440 -107 630 -154 l345 -86 5 -2185 5
-2185 40 -20 c31 -16 60 -20 130 -20 50 0 102 6 118 12 l27 13 0 2210 0 2210
23 0 c12 0 119 9 237 20 118 12 388 36 600 55 212 19 601 55 865 79 1052 97
1315 119 1321 114 7 -8 -10 -40 -52 -95 -19 -25 -34 -55 -34 -68 0 -21 -7 -24
-92 -39 -130 -23 -136 -25 -693 -157 -629 -150 -723 -176 -738 -201 -7 -11
-48 -37 -92 -57 -104 -49 -135 -76 -177 -158 -70 -134 -81 -179 -76 -305 5
-98 10 -128 46 -233 22 -66 48 -151 57 -190 58 -243 198 -668 400 -1210 51
-137 105 -287 119 -332 36 -117 59 -261 55 -351 -4 -68 -9 -88 -52 -174 -47
-94 -80 -147 -168 -273 -94 -133 -166 -194 -397 -332 -195 -116 -241 -167
-210 -230 25 -50 57 -64 174 -74 164 -15 324 6 464 61 68 27 212 121 240 158
12 15 59 78 106 140 46 62 84 111 84 109 0 -2 -11 -31 -24 -64 -48 -123 -126
-207 -296 -318 -126 -82 -215 -154 -252 -203 -52 -66 -30 -162 40 -181 54 -16
252 -13 367 4 291 44 463 129 573 285 29 41 85 119 125 174 l72 98 2 -48 c2
-27 5 -87 9 -133 l6 -83 61 7 c89 10 93 14 107 97 12 76 28 154 79 397 28 132
30 151 20 215 -6 39 -20 93 -30 119 -11 26 -19 50 -19 52 0 3 21 5 48 5 26 1
173 13 327 29 154 16 281 28 282 27 1 -1 -37 -35 -85 -75 -111 -93 -389 -357
-410 -390 -17 -24 -34 -206 -34 -353 0 -88 60 -177 144 -212 42 -18 135 -21
189 -6 57 16 115 73 138 136 26 67 26 107 2 159 -19 43 -95 119 -130 130 -44
14 -24 42 72 98 261 154 376 221 515 301 l152 88 45 -11 c76 -19 185 -7 185
20 0 18 22 8 153 -69 320 -190 685 -402 700 -408 30 -11 22 -100 -14 -168 -28
-51 -31 -65 -26 -115 8 -96 75 -194 153 -227 44 -18 165 -18 209 0 126 53 187
189 136 301 -20 45 -82 105 -129 126 -17 7 -33 21 -35 31 -4 15 1 18 33 18 29
0 43 6 54 22 16 22 13 26 -86 126 -119 120 -350 329 -458 415 -91 72 -100 80
-80 73 8 -3 139 -12 290 -21 151 -9 331 -20 399 -25 68 -6 128 -10 132 -10 16
0 9 -86 -11 -145 -24 -70 -24 -86 -5 -151 18 -62 76 -131 129 -155 84 -38 197
-19 274 46 114 96 90 274 -48 352 -57 32 -62 43 -21 43 52 0 59 7 54 53 -7 53
-43 102 -85 116 -18 5 -172 40 -343 76 -170 37 -527 113 -793 171 -265 57
-484 104 -487 104 -2 0 -5 78 -7 174 -2 146 -6 177 -20 193 -15 16 -17 53 -19
308 l-3 290 95 32 c104 35 258 65 419 83 308 32 761 93 804 107 64 20 128 81
163 152 27 53 28 64 31 222 4 188 -5 227 -58 257 -31 17 -31 17 -25 82 7 73
42 358 50 405 6 37 40 55 109 56 28 0 71 6 96 12 44 12 45 13 72 87 40 107 65
262 182 1110 142 1023 150 1103 125 1193 -13 47 -59 100 -114 132 -56 34 -198
82 -276 95 -98 15 -324 13 -394 -5 -176 -45 -325 -248 -400 -545 -45 -180
-104 -476 -160 -800 -25 -145 -48 -266 -50 -268 -4 -5 -26 45 -45 103 -7 22
-24 62 -38 90 -23 46 -24 57 -19 150 3 60 28 213 60 380 109 551 119 623 125
891 4 222 3 249 -17 345 -31 144 -75 232 -151 299 l-60 51 0 67 c0 91 -24 187
-61 244 -32 50 -111 126 -160 155 -29 17 -29 18 -29 113 0 52 -7 125 -14 161
-18 82 -82 213 -150 301 -130 172 -137 185 -235 473 -111 322 -208 457 -422
586 -45 27 -106 56 -133 64 -51 16 -256 28 -311 19z m-795 -584 c-43 -54 -48
-51 -10 6 18 25 34 43 37 40 3 -3 -9 -23 -27 -46z m-45 -162 c-4 -35 -2 -90 4
-123 6 -33 13 -73 16 -90 4 -20 -1 -13 -15 20 -28 66 -35 141 -20 204 6 28 14
51 17 51 2 0 2 -28 -2 -62z m2015 -543 c35 -71 60 -139 48 -125 -3 3 -35 64
-71 135 -41 79 -57 118 -42 100 14 -16 43 -66 65 -110z m50 -272 c0 -37 -3
-64 -6 -60 -9 9 -10 136 -1 130 4 -2 7 -34 7 -70z m179 -341 c10 -20 21 -50
25 -67 12 -48 -11 -17 -38 53 -26 66 -18 75 13 14z m-1315 -47 c15 -23 15 -31
2 -83 -52 -199 -60 -268 -40 -325 9 -24 14 -84 15 -156 1 -64 4 -140 7 -170
l7 -54 44 114 c42 109 47 117 121 189 43 42 85 91 95 110 10 19 33 56 52 82
18 26 61 104 95 175 33 70 62 129 63 131 3 4 173 -117 179 -127 7 -11 -79
-360 -92 -373 -14 -14 -88 7 -200 58 -41 19 -77 32 -80 29 -3 -3 -7 -14 -9
-25 -3 -19 -49 -109 -179 -350 -144 -267 -207 -456 -249 -747 -42 -290 -36
-282 -73 -93 -46 239 -55 336 -49 490 7 162 32 284 97 485 61 186 62 201 27
252 -17 25 -27 52 -27 76 0 36 -1 37 -27 31 l-28 -7 27 34 c15 19 67 89 115
156 48 67 89 123 89 123 1 0 9 -11 18 -25z m-2223 -1562 c-15 -32 -39 -87 -52
-122 -20 -56 -24 -61 -31 -41 -5 13 -6 25 -3 28 3 3 5 -1 5 -9 1 -10 4 -9 11
4 6 9 7 27 4 40 -5 16 -4 18 3 8 8 -11 11 -10 16 6 4 11 4 29 0 39 -4 13 -3
15 3 7 6 -9 17 4 36 42 15 30 29 55 32 55 3 0 -8 -26 -24 -57z m628 -133 c44
-22 82 -67 106 -123 26 -63 15 -65 -14 -2 -42 90 -86 123 -196 148 -11 3 -1 3
23 1 23 -2 60 -13 81 -24z m1260 -321 c-9 -24 -14 -25 -67 -22 -160 10 -176
20 -136 79 15 21 53 69 87 106 l60 68 33 -102 c28 -84 32 -108 23 -129z
m-1834 69 c-13 -28 -33 -61 -45 -72 l-21 -21 9 26 c10 25 70 119 77 119 2 0
-7 -23 -20 -52z m-275 -29 c0 -7 -5 -29 -12 -51 -9 -29 -9 -41 0 -50 9 -9 16
-7 29 11 15 22 20 23 72 16 31 -4 70 -7 86 -6 17 0 66 0 111 0 61 0 83 3 93
15 12 14 46 16 240 16 233 -1 415 -11 428 -24 8 -7 -24 -39 -103 -103 -32 -27
-36 -34 -24 -42 51 -35 174 -15 334 55 88 38 86 37 86 27 0 -8 -98 -61 -155
-84 -28 -12 -23 -13 65 -20 52 -4 135 -17 183 -29 48 -12 118 -25 155 -29 l67
-7 -105 -7 c-135 -10 -469 -33 -680 -48 -91 -6 -198 -14 -238 -18 -66 -7 -79
-5 -125 17 -123 57 -343 98 -575 109 -84 3 -150 8 -148 10 18 18 228 49 464
68 152 13 77 16 -99 5 -211 -13 -348 -34 -398 -59 l-37 -19 -46 28 c-56 35
-207 89 -337 120 l-94 23 90 22 c166 41 673 81 673 54z m-698 -124 c116 -30
287 -89 340 -116 24 -12 38 -26 38 -38 0 -18 -8 -16 -87 18 -110 48 -196 76
-314 104 -76 18 -93 26 -100 45 -7 19 -6 22 9 18 9 -2 61 -16 114 -31z m714
-166 c151 -14 335 -53 435 -90 66 -25 98 -31 149 -30 82 2 576 35 909 61 318
25 486 27 495 5 8 -21 2 -23 -169 -29 -82 -4 -328 -20 -545 -36 -217 -16 -474
-33 -570 -38 l-175 -8 -92 33 c-201 71 -381 103 -594 103 -128 0 -137 1 -142
20 -5 19 0 20 92 20 54 0 147 -5 207 -11z m4434 -1229 c76 -40 73 -20 40 -255
-17 -115 -30 -213 -30 -217 0 -4 -17 -1 -37 7 -21 8 -96 33 -168 55 -71 23
-133 44 -137 48 -3 4 9 66 27 137 19 72 37 154 41 183 l6 52 43 0 c27 0 45 5
48 14 7 17 117 2 167 -24z m-2831 -1175 c76 -78 70 -75 285 -160 244 -96 390
-146 433 -147 21 -1 156 9 299 22 189 16 278 20 320 14 l59 -9 3 -289 c2 -245
0 -293 -13 -312 -12 -19 -15 -59 -15 -203 0 -162 -2 -180 -17 -185 -10 -3
-196 -39 -413 -81 -217 -42 -494 -96 -615 -119 l-220 -43 -17 66 c-43 164 -62
361 -73 726 -6 223 -20 395 -41 530 -14 94 -48 224 -65 257 -18 34 20 6 90
-67z"/>
<path d="M5695 5880 c-27 -7 -25 -8 15 -8 25 0 72 4 105 8 l60 7 -75 0 c-41 1
-88 -3 -105 -7z"/>
<path d="M6710 5810 c-30 -4 10 -5 90 -2 80 2 147 6 149 8 7 6 -180 1 -239 -6z"/>
<path d="M6685 5770 c-88 -4 -186 -8 -217 -9 -36 0 -58 -5 -58 -13 0 -8 32 -9
123 -3 67 4 179 10 249 14 70 3 130 10 134 14 4 4 -10 6 -32 5 -21 -1 -111 -5
-199 -8z"/>
<path d="M7003 5773 c15 -2 39 -2 55 0 15 2 2 4 -28 4 -30 0 -43 -2 -27 -4z"/>
</g>
</svg>
