<?xml version="1.0" standalone="no"?>
<!DOCTYPE svg PUBLIC "-//W3C//DTD SVG 20010904//EN"
 "http://www.w3.org/TR/2001/REC-SVG-20010904/DTD/svg10.dtd">
<svg version="1.0" xmlns="http://www.w3.org/2000/svg"
 width="1024.000000pt" height="1024.000000pt" viewBox="0 0 1024.000000 1024.000000"
 preserveAspectRatio="xMidYMid meet">
<metadata>
Created by potrace 1.16, written by Peter Selinger 2001-2019
</metadata>
<g transform="translate(0.000000,1024.000000) scale(0.100000,-0.100000)"
fill="#000000" stroke="none">
<path d="M4756 9849 c-91 -22 -125 -41 -182 -101 -26 -28 -60 -50 -94 -62 -68
-25 -175 -124 -212 -197 -77 -152 -75 -267 5 -401 34 -58 43 -67 47 -49 5 19
7 18 27 -12 11 -17 24 -50 28 -72 5 -35 0 -52 -34 -120 -47 -95 -44 -113 29
-150 27 -14 50 -32 50 -41 0 -26 29 -72 79 -128 26 -29 57 -73 69 -97 46 -94
98 -115 197 -79 103 37 98 37 118 -17 9 -26 17 -55 17 -63 0 -33 -175 -158
-272 -196 -72 -27 -111 -63 -150 -137 l-23 -42 -2 50 c-8 151 -53 326 -108
421 l-25 43 38 26 c36 24 72 78 72 110 0 20 -76 104 -179 199 -110 101 -154
130 -183 123 -13 -4 -60 -40 -106 -82 -63 -57 -89 -75 -112 -75 -31 0 -65 -36
-91 -97 -8 -18 -29 -41 -51 -53 -37 -21 -68 -64 -68 -94 0 -8 -9 -18 -20 -21
-28 -9 -47 -40 -60 -99 -6 -27 -24 -67 -40 -90 -40 -55 -46 -94 -25 -140 21
-45 149 -165 227 -213 63 -39 56 -20 73 -195 5 -56 4 -58 -24 -73 -51 -26 -61
-50 -61 -150 0 -211 51 -605 91 -707 77 -195 251 -197 437 -4 l72 74 0 -107
c0 -193 -28 -378 -139 -906 -46 -220 -49 -241 -34 -252 9 -7 26 -13 36 -13 22
0 22 10 -10 -210 -24 -165 -28 -759 -9 -1195 9 -199 16 -415 16 -482 l0 -121
28 -11 c15 -6 68 -13 117 -16 l90 -4 7 -33 c4 -18 25 -112 47 -208 22 -96 47
-238 55 -315 24 -206 61 -476 130 -935 56 -366 66 -463 67 -616 2 -226 -24
-290 -228 -555 -96 -126 -112 -139 -233 -205 -58 -30 -124 -71 -147 -90 -50
-41 -73 -97 -53 -133 21 -41 67 -51 232 -51 260 0 344 29 491 169 107 101 144
131 164 131 10 0 12 -6 8 -21 -4 -11 -4 -47 0 -78 8 -67 25 -81 99 -81 59 0
75 15 86 85 5 33 19 90 30 128 11 37 29 97 40 134 33 112 27 150 -64 364 -58
138 -64 227 -40 632 10 183 19 452 19 599 0 148 2 268 5 268 3 0 27 -35 55
-78 27 -42 115 -178 196 -302 201 -309 326 -515 436 -715 148 -270 178 -369
154 -508 -15 -89 -55 -224 -93 -322 -29 -73 -40 -89 -135 -183 -129 -127 -153
-162 -153 -217 0 -32 6 -47 26 -66 24 -22 33 -24 117 -23 191 4 410 72 486
152 23 24 52 77 80 142 24 58 50 115 57 127 16 25 34 30 34 10 0 -8 10 -23 23
-35 18 -17 36 -22 80 -22 73 0 79 12 76 133 -1 51 2 126 6 168 12 124 -23 207
-152 358 -119 139 -211 342 -383 846 -45 132 -102 289 -126 349 -101 247 -249
500 -371 637 -102 114 -101 110 -105 237 -3 129 -14 116 105 127 37 3 78 10
91 15 l23 8 6 349 c6 387 13 485 59 818 28 203 32 256 32 450 -1 195 -3 233
-25 332 l-25 112 28 6 c15 4 30 11 34 16 6 11 9 2 -86 294 -62 191 -87 282
-141 517 -11 47 -9 52 67 240 42 106 118 283 169 393 50 110 100 221 109 246
12 32 29 54 54 70 94 61 144 297 99 464 -9 32 -15 61 -13 62 2 2 14 -14 28
-34 69 -106 84 -224 44 -348 -14 -43 -23 -81 -21 -83 7 -7 58 82 79 138 17 44
21 76 20 165 -1 96 -5 121 -31 198 -35 99 -89 193 -200 347 -128 178 -158 262
-233 645 -23 116 -48 237 -56 270 -95 379 -264 584 -529 640 -98 21 -262 18
-359 -6z m525 -1713 c-23 -31 -103 -120 -179 -198 -192 -199 -350 -386 -387
-458 l-19 -35 -28 89 c-32 104 -31 110 34 286 l43 115 45 -23 c63 -33 167 -27
235 13 63 37 190 149 245 217 25 31 47 54 48 53 2 -2 -15 -28 -37 -59z m-1148
-383 c31 -43 70 -93 87 -111 l32 -33 -45 -48 -45 -48 -4 67 c-3 54 -9 76 -36
116 -17 28 -32 60 -32 72 0 11 -4 24 -10 27 -10 6 -14 35 -6 35 2 0 29 -35 59
-77z"/>
</g>
</svg>
