<?xml version="1.0" standalone="no"?>
<!DOCTYPE svg PUBLIC "-//W3C//DTD SVG 20010904//EN"
 "http://www.w3.org/TR/2001/REC-SVG-20010904/DTD/svg10.dtd">
<svg version="1.0" xmlns="http://www.w3.org/2000/svg"
 width="1024.000000pt" height="1536.000000pt" viewBox="0 0 1024.000000 1536.000000"
 preserveAspectRatio="xMidYMid meet">
<metadata>
Created by potrace 1.16, written by Peter Selinger 2001-2019
</metadata>
<g transform="translate(0.000000,1536.000000) scale(0.100000,-0.100000)"
fill="#000000" stroke="none">
<path d="M5638 14320 c-31 -8 -86 -27 -306 -107 -67 -24 -156 -113 -197 -197
-46 -95 -58 -152 -16 -76 28 50 163 190 183 190 5 0 -5 -17 -21 -37 -49 -63
-97 -149 -136 -246 -20 -51 -46 -102 -57 -114 -12 -13 -52 -30 -101 -43 -232
-60 -275 -101 -265 -254 1 -30 0 -52 -4 -48 -3 4 -32 54 -63 112 -127 235
-232 389 -336 493 -82 81 -93 80 -261 -31 -235 -156 -408 -256 -833 -485 -366
-197 -365 -196 -365 -257 0 -78 117 -362 214 -519 12 -20 34 -57 49 -82 l26
-47 -106 -26 c-141 -36 -169 -48 -188 -87 -9 -17 -32 -118 -51 -223 -36 -195
-92 -444 -145 -641 -174 -642 -179 -752 -34 -828 36 -19 60 -22 224 -25 276
-6 576 21 964 86 l169 28 -6 -40 c-3 -23 -8 -131 -12 -241 -7 -204 2 -326 42
-570 42 -259 27 -584 -37 -834 -22 -86 -63 -244 -90 -351 -83 -320 -148 -557
-196 -705 -25 -77 -46 -157 -46 -178 -2 -41 3 -46 126 -152 l47 -40 -54 -260
c-30 -143 -76 -359 -101 -480 -103 -491 -193 -972 -240 -1283 -43 -289 -78
-590 -70 -619 3 -12 14 -25 25 -28 24 -8 23 21 5 -316 -21 -378 -21 -378 -114
-974 -48 -311 -78 -537 -180 -1360 -53 -425 -68 -494 -135 -641 -46 -98 -169
-284 -243 -366 -109 -122 -378 -390 -413 -412 -19 -13 -98 -44 -176 -70 -216
-72 -294 -129 -294 -217 0 -29 6 -43 31 -63 17 -14 34 -26 37 -26 4 0 44 -7
90 -15 122 -22 439 -36 555 -25 187 18 353 94 574 262 57 43 105 78 108 78 3
0 5 -44 5 -99 0 -107 12 -157 40 -166 24 -8 177 -25 220 -25 19 0 41 4 48 9 8
4 31 71 52 147 21 77 57 195 80 264 22 69 43 150 46 181 8 69 -18 176 -74 309
-23 52 -46 115 -52 139 -32 124 50 404 315 1081 203 518 244 631 289 800 52
198 65 298 76 570 12 286 20 351 65 511 18 66 39 151 46 190 l13 71 85 -7 c47
-3 145 -13 216 -20 227 -24 484 -37 681 -33 l191 3 36 -115 c73 -229 152 -375
285 -530 129 -150 295 -427 487 -810 59 -118 155 -300 213 -405 219 -395 392
-767 428 -922 41 -173 -22 -414 -211 -809 -67 -139 -123 -195 -277 -272 -163
-81 -218 -139 -218 -227 0 -84 26 -97 215 -106 266 -13 465 11 602 72 110 49
148 85 321 302 90 114 166 206 168 204 2 -2 10 -36 19 -77 19 -91 29 -104 72
-97 52 9 140 53 156 79 13 19 16 73 19 293 l3 270 -37 75 c-23 45 -72 115
-124 175 -194 225 -234 347 -359 1088 -55 331 -84 462 -141 638 -54 168 -125
329 -205 469 -57 100 -82 135 -281 394 -121 156 -176 280 -194 431 l-6 51 73
16 c41 10 101 22 134 28 33 7 71 19 84 27 26 17 26 21 -10 213 -30 166 -56
386 -104 903 -59 624 -89 881 -156 1316 l-32 205 67 60 c55 49 68 67 68 92 1
20 -25 80 -72 170 l-73 139 41 55 c36 47 126 197 135 224 2 6 30 -6 63 -26 91
-55 181 -98 205 -98 23 0 37 14 175 175 42 50 212 236 378 415 640 690 700
766 701 886 0 51 -6 73 -43 146 -82 166 -272 406 -563 709 l-168 177 52 6 c28
4 62 13 74 19 20 11 17 15 -55 52 -97 51 -199 146 -258 242 l-47 74 31 67 c40
86 51 139 52 231 0 135 -44 260 -164 464 -106 180 -179 358 -208 507 -8 44
-12 179 -13 410 -1 311 -3 355 -22 445 -84 396 -303 685 -645 850 -149 73
-248 96 -413 101 -77 2 -156 -1 -177 -6z m-1022 -1275 c5 -26 1 -53 -10 -84
-27 -75 -31 -142 -12 -183 19 -40 61 -66 161 -98 235 -76 315 -178 315 -401 0
-110 -17 -139 -95 -168 -51 -19 -74 -21 -233 -19 -150 3 -185 0 -229 -15 -75
-26 -158 -84 -238 -165 -79 -81 -93 -88 -190 -97 -66 -7 -72 -9 -110 -50 -22
-24 -61 -53 -87 -64 -84 -36 -468 -136 -468 -122 1 28 78 301 170 596 55 176
59 211 45 339 -7 56 8 140 26 151 4 3 42 -13 84 -35 101 -53 147 -54 241 -4
93 49 171 103 286 196 115 94 188 179 231 271 l32 67 37 -39 c22 -24 39 -53
44 -76z m-291 23 c-21 -70 -156 -200 -262 -253 -75 -38 -181 -46 -232 -18 -18
11 -33 23 -34 28 -1 30 341 221 448 250 76 20 88 19 80 -7z m2630 -948 c15
-30 56 -102 90 -160 102 -171 138 -273 150 -430 8 -100 -7 -168 -19 -84 -9 69
-51 174 -133 335 -39 74 -82 171 -96 215 -30 90 -57 212 -56 252 0 21 4 17 18
-23 10 -27 31 -75 46 -105z m-1185 -109 c-49 -166 -154 -327 -368 -565 -281
-311 -393 -451 -513 -643 -130 -207 -271 -511 -311 -669 -6 -27 -15 -53 -18
-57 -11 -14 -30 240 -30 403 0 276 23 394 135 685 40 105 101 278 134 385 75
238 98 286 163 345 57 51 79 59 52 18 -72 -110 -124 -228 -130 -298 -10 -103
50 -141 221 -139 158 1 277 51 401 167 102 95 222 282 264 410 21 68 22 31 0
-42z m1213 -372 c26 -44 70 -159 62 -159 -5 0 -115 228 -115 238 0 8 20 -22
53 -79z m-265 -1298 c215 -125 508 -385 529 -469 6 -25 -21 -72 -91 -157 -228
-279 -531 -586 -730 -738 -34 -26 -36 -32 -36 -82 0 -49 -3 -57 -37 -91 -41
-39 -121 -90 -129 -81 -3 3 -14 44 -24 91 -11 47 -40 138 -66 203 -46 117 -46
118 -35 183 17 104 106 424 156 560 55 152 144 337 177 368 l24 22 65 -26 c41
-17 91 -28 142 -32 l78 -5 -32 34 c-18 19 -41 54 -52 79 -24 53 -36 180 -18
180 7 0 43 -18 79 -39z"/>
</g>
</svg>
