<?xml version="1.0" standalone="no"?>
<!DOCTYPE svg PUBLIC "-//W3C//DTD SVG 20010904//EN"
 "http://www.w3.org/TR/2001/REC-SVG-20010904/DTD/svg10.dtd">
<svg version="1.0" xmlns="http://www.w3.org/2000/svg"
 width="1024.000000pt" height="1024.000000pt" viewBox="0 0 1024.000000 1024.000000"
 preserveAspectRatio="xMidYMid meet">
<metadata>
Created by potrace 1.16, written by Peter Selinger 2001-2019
</metadata>
<g transform="translate(0.000000,1024.000000) scale(0.100000,-0.100000)"
fill="#000000" stroke="none">
<path d="M4923 9934 c-84 -18 -120 -34 -218 -98 -173 -113 -264 -236 -271
-366 -2 -36 -1 -57 2 -47 6 20 9 20 35 7 28 -16 51 -66 59 -135 11 -82 -4
-145 -46 -197 -18 -24 -34 -48 -34 -54 0 -6 -7 -17 -15 -24 -13 -11 -10 -18
24 -55 45 -49 54 -84 55 -218 1 -84 3 -90 29 -112 36 -32 79 -39 184 -29 119
12 167 6 171 -23 4 -27 -51 -146 -91 -197 -48 -60 -135 -119 -231 -155 -181
-68 -219 -126 -277 -415 -21 -106 -50 -231 -65 -277 -14 -46 -35 -129 -44
-184 -10 -55 -26 -121 -35 -145 -54 -150 -87 -252 -96 -308 -10 -54 -15 -65
-40 -77 -34 -18 -79 -81 -79 -112 0 -13 -28 -65 -62 -117 -35 -52 -85 -130
-112 -172 -27 -42 -113 -157 -191 -254 -193 -239 -226 -286 -293 -408 -31 -58
-70 -118 -86 -134 -16 -17 -75 -52 -130 -80 -138 -68 -156 -86 -183 -183 -40
-146 -36 -287 10 -332 38 -39 53 -25 67 59 13 76 45 174 60 183 5 3 0 -25 -11
-62 -23 -80 -29 -208 -10 -241 17 -32 57 -44 115 -36 51 7 101 43 94 67 -3 7
-19 19 -37 28 -43 20 -50 34 -40 77 13 57 58 111 154 185 50 38 121 98 158
134 63 61 69 64 85 49 30 -26 78 -39 101 -27 11 6 59 68 107 138 111 161 219
313 337 473 147 199 212 295 273 401 31 55 60 102 65 105 12 7 11 -123 -2
-226 -5 -47 -21 -139 -35 -205 -118 -572 -160 -809 -150 -850 7 -28 32 -43 96
-60 l45 -11 -3 -200 c-3 -196 6 -319 43 -584 27 -198 23 -232 -74 -539 -33
-102 -76 -244 -97 -314 -37 -128 -37 -128 -16 -142 19 -14 19 -17 6 -61 -27
-89 -36 -211 -24 -327 14 -138 7 -174 -76 -420 -60 -180 -157 -493 -254 -827
-88 -300 -130 -407 -223 -570 -71 -124 -144 -216 -271 -337 -202 -195 -313
-256 -494 -274 -129 -12 -185 -30 -201 -65 -26 -58 -7 -74 151 -131 221 -80
277 -95 363 -96 99 -1 157 16 317 91 141 67 216 97 224 90 2 -3 8 -49 13 -101
10 -124 31 -150 98 -122 54 23 94 97 179 335 29 81 30 165 4 280 -26 112 -26
205 0 270 11 28 52 101 92 163 284 446 500 821 552 959 38 100 75 271 92 426
26 243 41 315 92 444 44 115 50 124 88 145 51 28 188 41 252 24 42 -12 43 -14
104 -138 58 -118 70 -135 176 -246 117 -122 184 -216 302 -422 61 -107 277
-456 503 -815 251 -399 259 -416 259 -540 0 -63 -8 -99 -47 -215 -91 -271
-123 -317 -283 -410 -86 -49 -132 -93 -132 -126 0 -56 47 -79 163 -79 90 0
256 26 342 53 107 34 136 68 218 262 98 232 136 300 167 300 22 0 28 -9 61
-110 19 -60 41 -120 48 -132 15 -29 42 -29 69 0 27 29 29 83 6 171 -10 39 -14
82 -11 121 13 142 -34 250 -164 375 -48 47 -103 110 -122 140 -85 136 -246
518 -316 750 -132 434 -160 494 -324 682 -134 153 -229 275 -252 325 -24 50
-32 113 -19 148 9 24 73 53 164 75 143 34 180 49 180 74 0 12 -34 91 -76 176
-223 455 -227 465 -232 625 -3 117 7 281 39 600 5 55 7 168 3 250 l-6 150 140
33 c268 65 637 177 712 218 68 37 110 85 110 127 0 54 -45 203 -130 432 -45
120 -88 231 -96 246 -19 38 -18 46 10 53 33 8 83 52 103 89 12 23 14 47 10 96
-9 99 -39 182 -119 326 -40 72 -106 204 -148 295 -42 91 -108 215 -147 275
-77 120 -139 238 -183 349 -76 192 -110 269 -126 288 -30 33 -193 106 -266
119 -81 15 -132 3 -193 -44 l-40 -30 30 32 c50 55 99 74 170 68 77 -8 194 -48
257 -89 54 -34 83 -74 113 -153 10 -27 29 -74 42 -104 24 -53 24 -53 45 -35
12 11 34 39 50 63 24 38 28 55 28 110 -1 126 -81 263 -255 435 -125 124 -125
124 45 2 228 -164 330 -287 330 -399 0 -52 -33 -117 -71 -137 -11 -7 -18 -14
-15 -17 3 -3 26 8 51 23 33 21 53 44 72 82 25 50 26 57 15 113 -7 40 -22 75
-46 107 -63 87 -222 226 -454 398 -74 54 -129 100 -122 102 24 8 332 -94 445
-147 104 -50 140 -87 140 -147 0 -24 1 -44 3 -44 1 0 7 12 13 26 15 40 -5 87
-57 132 -25 23 -146 92 -281 161 -262 135 -354 198 -383 265 -10 22 -32 106
-49 186 -48 233 -86 337 -166 461 -45 70 -121 136 -188 164 -106 44 -358 59
-494 29z m597 -1459 c0 -2 -15 -12 -32 -21 l-33 -17 19 22 c17 19 46 29 46 16z
m26 -475 c-34 -102 -76 -232 -93 -290 -17 -58 -60 -202 -96 -320 -36 -118 -71
-234 -77 -258 -6 -24 -13 -49 -16 -57 -4 -9 10 -16 48 -24 29 -7 63 -14 75
-17 21 -6 23 -3 23 28 0 50 53 320 151 763 64 291 72 326 76 321 5 -4 -16
-115 -77 -406 -56 -271 -97 -482 -115 -594 -9 -55 -18 -103 -21 -107 -3 -5 8
-15 23 -23 40 -20 64 -50 72 -88 10 -49 56 -62 196 -53 61 3 128 9 150 13 38
7 40 9 47 54 3 26 20 76 36 110 16 35 33 79 37 98 12 60 19 65 44 39 55 -59
152 -266 130 -279 -14 -9 -239 -44 -383 -61 -75 -8 -114 -8 -162 1 -68 13 -90
30 -121 94 -18 40 -49 57 -120 69 -186 32 -215 31 -235 -6 -6 -12 -13 -65 -16
-117 -7 -147 22 -265 71 -288 17 -8 18 -11 5 -11 -25 -1 -67 60 -84 121 -16
60 -18 213 -4 273 11 48 37 71 88 80 35 6 39 10 52 53 7 26 28 92 45 147 18
55 58 181 89 280 99 312 215 649 222 643 2 -2 -25 -87 -60 -188z m-645 25 c41
-34 87 -33 194 4 49 17 85 25 85 19 0 -6 -29 -63 -64 -127 -215 -393 -396
-862 -410 -1064 -4 -71 -16 -88 -16 -24 0 25 -14 113 -31 194 -41 195 -50 393
-24 543 20 123 103 372 185 555 l23 50 14 -62 c11 -47 22 -69 44 -88z m937
-1640 l8 -30 89 3 c233 7 649 62 739 98 12 5 17 4 13 -3 -33 -54 -818 -146
-855 -100 -12 15 -39 135 -46 207 -4 45 0 36 19 -45 14 -55 28 -113 33 -130z
m-403 156 c95 -27 195 -52 222 -56 77 -10 103 -16 103 -24 0 -9 -136 6 -213
24 l-59 14 7 -42 c13 -77 124 -509 190 -742 73 -254 82 -302 63 -326 -31 -38
-107 -60 -263 -74 -63 -6 -73 -4 -95 15 l-25 21 27 -16 c23 -14 37 -15 110 -5
110 15 177 30 211 47 38 19 36 62 -13 214 -70 214 -230 833 -230 888 0 20 -14
27 -149 70 -36 12 -66 19 -69 17 -2 -2 1 -51 7 -108 30 -290 53 -508 81 -747
29 -256 34 -319 26 -310 -8 8 -80 606 -111 929 -8 85 -18 182 -22 214 -5 53
-4 59 11 53 9 -4 95 -29 191 -56z"/>
</g>
</svg>
