<?xml version="1.0" standalone="no"?>
<!DOCTYPE svg PUBLIC "-//W3C//DTD SVG 20010904//EN"
 "http://www.w3.org/TR/2001/REC-SVG-20010904/DTD/svg10.dtd">
<svg version="1.0" xmlns="http://www.w3.org/2000/svg"
 width="1024.000000pt" height="1024.000000pt" viewBox="0 0 1024.000000 1024.000000"
 preserveAspectRatio="xMidYMid meet">
<metadata>
Created by potrace 1.16, written by Peter Selinger 2001-2019
</metadata>
<g transform="translate(0.000000,1024.000000) scale(0.100000,-0.100000)"
fill="#000000" stroke="none">
<path d="M4400 8706 l0 -1295 26 -20 c36 -28 43 -27 98 14 l46 36 0 1194 0
1195 2375 0 2375 0 0 -1730 0 -1730 -2372 2 -2373 3 -3 150 -2 151 -64 -4
c-36 -2 -72 1 -85 7 l-21 12 0 -205 0 -204 -32 2 -33 1 -3 -72 -3 -73 1256 0
1255 0 0 -2434 c0 -2080 -2 -2435 -14 -2445 -8 -7 -21 -26 -29 -44 -15 -31
-26 -35 -551 -210 -295 -99 -538 -182 -540 -185 -2 -4 0 -41 3 -82 l6 -75 79
-3 c73 -3 81 -1 100 21 19 21 74 36 461 121 l440 97 142 -1 c134 0 155 -3 395
-55 139 -31 327 -72 418 -91 216 -45 240 -52 240 -68 0 -18 32 -26 107 -26
l62 0 6 43 c4 23 5 62 3 86 -3 42 -5 45 -43 57 -22 7 -254 82 -515 167 -261
86 -487 159 -502 162 -16 4 -28 13 -28 20 0 7 -11 29 -25 49 l-25 37 0 2429 0
2430 1233 -3 c677 -2 1249 -2 1270 1 l37 4 0 69 0 69 -33 0 -34 0 -6 818 c-4
449 -7 1286 -7 1860 l0 1042 -2545 0 -2545 0 0 -1294z"/>
<path d="M2770 9884 c-153 -30 -268 -98 -350 -209 -90 -123 -135 -256 -164
-495 -44 -353 -106 -513 -270 -705 -149 -174 -161 -198 -162 -350 -2 -107 -5
-126 -28 -177 -35 -74 -73 -223 -96 -378 -13 -89 -36 -177 -78 -305 -54 -160
-112 -384 -112 -429 0 -8 -14 -57 -31 -108 -41 -122 -61 -232 -53 -285 9 -62
55 -128 116 -167 83 -52 331 -185 453 -241 60 -28 118 -55 127 -60 15 -9 8
-35 -67 -252 -46 -133 -87 -258 -90 -277 -7 -34 -6 -35 34 -47 23 -7 41 -15
41 -19 0 -4 -13 -61 -30 -126 -47 -188 -76 -365 -136 -818 -30 -231 -75 -547
-100 -700 -24 -154 -43 -280 -41 -282 6 -7 171 -37 232 -42 l70 -7 -3 -49 c-4
-77 -30 -153 -78 -219 -257 -364 -282 -423 -329 -785 -40 -310 -105 -701 -127
-766 -33 -101 -58 -138 -147 -226 -121 -118 -146 -170 -147 -305 0 -55 -6
-142 -14 -192 -7 -51 -11 -96 -7 -99 3 -3 35 -17 72 -30 61 -22 66 -23 71 -6
35 108 48 99 106 -79 60 -180 84 -213 192 -258 91 -38 223 -61 359 -64 128 -3
157 11 157 74 0 56 -21 92 -115 189 -61 64 -87 99 -102 140 -32 84 -92 378
-99 483 -14 201 63 437 303 927 58 118 148 309 199 424 107 237 123 267 192
353 27 34 63 85 80 115 33 57 89 214 100 280 l7 40 308 2 307 1 11 -40 c6 -22
30 -102 55 -177 l44 -137 -7 -178 c-9 -211 -2 -345 26 -485 12 -57 86 -296
166 -533 80 -238 151 -470 161 -520 22 -120 15 -190 -30 -292 -20 -44 -41
-105 -47 -134 -15 -71 -6 -176 25 -270 14 -42 28 -111 32 -153 8 -92 13 -96
117 -96 87 0 84 -4 93 110 7 78 8 80 33 80 50 0 129 -48 213 -128 117 -113
186 -135 418 -135 144 0 271 16 307 39 29 19 31 76 3 121 -23 38 -63 60 -192
102 -151 50 -142 41 -408 376 -70 88 -109 154 -125 210 -31 107 -72 530 -100
1025 -20 358 -30 449 -67 643 -29 152 -31 177 -32 399 l-1 237 30 6 c76 15
125 28 129 34 3 4 -2 52 -9 106 -8 55 -48 370 -90 700 -65 519 -122 933 -141
1027 -5 26 -2 29 40 40 31 8 46 18 46 28 0 24 -53 298 -116 595 -42 199 -52
261 -42 264 7 2 78 38 157 78 145 75 231 127 231 142 0 10 -172 63 -475 147
-341 94 -378 104 -395 104 -15 0 -198 -130 -333 -236 -32 -25 -72 -53 -90 -63
-33 -19 -157 -37 -157 -23 0 5 22 16 48 25 26 10 77 35 112 57 86 52 327 231
334 248 8 18 -17 201 -48 352 -51 254 -128 444 -379 938 -98 193 -174 352
-170 352 5 0 22 -14 39 -31 16 -18 93 -83 170 -145 78 -62 173 -147 211 -188
l70 -75 11 110 c5 61 13 113 16 116 17 17 36 -17 64 -114 141 -492 137 -474
136 -663 -2 -177 -19 -316 -77 -603 -1 -5 30 -15 68 -22 39 -7 142 -31 229
-54 88 -23 161 -40 162 -38 3 3 43 252 59 370 3 26 8 47 9 47 2 0 36 -22 77
-48 224 -147 503 -292 562 -292 31 0 68 21 235 133 108 73 244 167 302 208 58
41 174 124 258 184 85 59 156 114 159 121 2 6 -18 60 -46 119 -28 60 -51 111
-51 115 0 27 63 62 187 105 151 52 219 86 227 113 3 10 7 37 8 60 1 23 7 47
15 53 7 6 13 30 13 53 0 22 7 50 15 60 33 43 2 83 -70 92 -27 3 -51 7 -53 9
-2 2 75 47 170 101 152 87 173 102 173 124 0 42 -40 36 -191 -30 -76 -34 -188
-80 -249 -102 -60 -22 -129 -54 -152 -70 -24 -16 -78 -75 -120 -131 -119 -157
-141 -179 -173 -172 -23 5 -49 -14 -211 -156 -206 -181 -281 -243 -419 -347
l-94 -72 -11 33 c-8 26 -24 39 -86 72 -43 22 -99 58 -125 81 -27 22 -74 59
-105 81 -42 31 -58 50 -67 81 -16 51 -44 86 -91 113 -23 13 -45 36 -55 58 -38
79 -153 275 -183 311 -42 49 -94 72 -222 100 -159 33 -214 53 -294 106 -39 27
-74 50 -76 51 -8 5 0 148 9 157 6 6 47 2 105 -9 87 -16 98 -16 112 -2 16 16
42 137 48 220 2 34 10 55 24 68 14 13 21 32 21 58 0 32 6 42 40 70 49 39 48
42 -21 156 -27 43 -49 88 -49 99 0 12 21 52 48 90 l47 69 0 86 c0 78 -3 93
-33 153 -35 71 -106 144 -174 179 -39 20 -155 64 -263 100 -59 20 -212 33
-265 23z m669 -539 c0 -16 -4 -39 -9 -50 -6 -14 -9 0 -9 45 -1 45 2 60 9 50 5
-8 9 -28 9 -45z m-1343 -847 c-84 -147 -119 -228 -122 -285 -2 -49 -6 -57 -31
-73 -15 -9 -34 -24 -42 -33 -27 -33 -34 -18 -29 62 6 105 27 144 153 282 55
60 101 109 103 109 2 0 -12 -28 -32 -62z m107 -1668 c43 -151 76 -335 63 -348
-6 -5 -205 95 -222 112 -15 14 5 135 28 181 16 30 39 103 58 183 6 23 14 42
18 42 4 0 29 -76 55 -170z"/>
</g>
</svg>
