<?xml version="1.0" standalone="no"?>
<!DOCTYPE svg PUBLIC "-//W3C//DTD SVG 20010904//EN"
 "http://www.w3.org/TR/2001/REC-SVG-20010904/DTD/svg10.dtd">
<svg version="1.0" xmlns="http://www.w3.org/2000/svg"
 width="1024.000000pt" height="1536.000000pt" viewBox="0 0 1024.000000 1536.000000"
 preserveAspectRatio="xMidYMid meet">
<metadata>
Created by potrace 1.16, written by Peter Selinger 2001-2019
</metadata>
<g transform="translate(0.000000,1536.000000) scale(0.100000,-0.100000)"
fill="#000000" stroke="none">
<path d="M6419 14381 l-29 -30 6 -95 7 -96 -1482 0 -1483 0 -29 -29 c-23 -24
-29 -38 -29 -73 0 -52 21 -85 66 -104 l34 -14 -1 -1568 c-1 -862 -4 -1578 -8
-1590 -5 -21 -9 -16 -26 33 -23 70 -90 147 -154 179 -25 13 -78 33 -118 45
-39 12 -78 28 -86 36 -8 8 -30 74 -48 147 -47 189 -50 317 -14 533 24 142 27
176 22 302 -6 137 -6 143 14 154 36 19 79 125 79 194 0 237 -200 488 -426 535
-31 7 -77 22 -103 35 -57 29 -143 45 -235 45 -274 -1 -497 -157 -636 -445 -69
-143 -88 -220 -136 -555 -31 -221 -87 -403 -178 -582 -76 -147 -112 -245 -129
-346 l-13 -75 -63 -22 c-39 -15 -79 -38 -102 -61 -70 -69 -144 -247 -209 -504
-86 -340 -229 -1326 -218 -1509 5 -87 35 -135 123 -198 79 -56 539 -333 554
-333 16 0 16 -1 -43 -238 -30 -119 -69 -282 -86 -361 l-32 -145 21 -17 c12
-10 26 -19 32 -21 8 -3 6 -29 -5 -88 -51 -281 -99 -717 -155 -1430 -49 -620
-72 -975 -65 -995 8 -20 109 -50 238 -71 92 -15 106 -20 106 -37 0 -36 -58
-192 -128 -342 -115 -248 -155 -380 -192 -634 -27 -187 -37 -335 -50 -726 -16
-538 -25 -601 -105 -775 -29 -65 -61 -139 -70 -166 -22 -64 -30 -205 -15 -274
6 -30 15 -107 20 -170 5 -63 9 -119 9 -123 1 -4 16 -23 35 -41 28 -29 35 -45
44 -106 7 -46 20 -86 36 -110 62 -94 261 -179 442 -188 165 -8 214 22 214 127
0 78 -23 159 -76 271 -249 519 -234 813 83 1690 128 352 167 471 244 740 38
135 90 295 116 355 86 208 132 333 139 374 l7 41 228 0 c130 0 230 -4 234 -9
3 -5 8 -65 11 -133 5 -104 2 -146 -20 -278 -39 -237 -49 -374 -43 -570 7 -197
31 -392 76 -620 110 -565 130 -869 67 -1020 -93 -218 -90 -211 -90 -295 1 -62
8 -101 32 -174 22 -64 33 -122 37 -185 4 -50 11 -101 17 -113 25 -51 179 -63
223 -18 22 22 25 32 25 105 0 44 3 80 6 80 15 0 153 -133 207 -200 70 -87 102
-113 173 -140 141 -52 404 -69 553 -35 113 26 143 70 105 150 -17 37 -52 66
-129 110 -93 53 -252 174 -308 234 -87 94 -232 326 -273 436 -17 45 -19 78
-18 305 2 237 9 359 60 1000 9 107 20 402 25 655 5 253 13 494 18 535 5 41 10
108 10 148 1 39 4 72 7 72 21 0 263 44 283 51 l23 9 -6 338 c-14 721 -33 1216
-61 1582 -16 202 -52 559 -60 596 -3 16 1 23 15 27 11 3 23 13 27 23 11 29
-64 462 -141 817 -71 323 -77 356 -86 472 -8 99 -1 300 16 434 l6 44 30 -54
c56 -102 61 -123 67 -312 l6 -179 33 -29 32 -29 1420 0 1420 0 0 -2757 0
-2758 -36 -29 c-48 -38 -64 -80 -64 -170 0 -74 0 -74 -40 -108 -22 -19 -88
-56 -147 -82 -237 -106 -725 -367 -1092 -587 -113 -67 -139 -128 -82 -191 27
-31 34 -33 93 -33 73 0 141 28 147 60 6 35 23 47 186 125 292 140 554 237 766
283 108 23 129 25 384 22 282 -2 312 -6 480 -57 178 -53 449 -165 668 -275 85
-42 112 -61 129 -89 25 -42 63 -63 128 -71 61 -7 106 10 125 48 30 58 13 114
-45 153 -134 89 -789 447 -1073 587 -103 51 -199 104 -212 117 -22 22 -25 33
-25 99 0 86 -23 142 -70 170 l-30 17 0 2763 0 2763 1459 0 1459 0 31 26 c37
30 52 80 41 129 -11 48 -33 71 -78 82 l-37 9 -3 2472 -2 2472 31 0 c42 0 89
47 89 90 0 47 -26 99 -55 110 -17 6 -546 10 -1493 10 l-1467 0 9 90 c11 100 3
129 -41 149 -40 19 -73 13 -104 -18z m2871 -2921 l0 -2420 -2480 0 c-1364 0
-2480 3 -2479 8 1 8 582 300 662 332 68 28 72 46 42 187 -14 64 -22 120 -18
123 5 4 37 13 73 19 191 35 297 98 370 219 22 37 54 86 72 109 23 32 32 56 36
96 4 51 6 55 38 66 19 7 41 23 50 36 17 26 12 43 -32 102 l-24 32 98 88 c53
49 290 259 527 468 521 461 637 566 642 582 2 6 -5 21 -17 33 -21 21 -22 21
-50 3 -15 -10 -156 -129 -312 -264 -155 -135 -355 -308 -443 -385 -88 -76
-245 -211 -348 -301 -103 -90 -192 -163 -197 -163 -6 0 -10 7 -10 15 0 26 -26
28 -92 6 -35 -11 -94 -25 -132 -31 -75 -12 -104 -24 -186 -81 -79 -54 -143
-124 -186 -204 -50 -94 -63 -107 -92 -100 -17 4 -57 -14 -160 -73 -116 -67
-634 -322 -653 -322 -4 0 -12 26 -18 58 -13 68 -37 95 -97 111 -38 10 -41 14
-58 68 -10 32 -54 154 -97 272 l-79 215 0 1758 0 1758 2825 0 2825 0 0 -2420z
m-6222 850 l0 -45 -9 40 c-4 22 -8 54 -7 70 0 29 0 29 8 5 4 -14 8 -45 8 -70z
m-1558 -857 c-30 -90 -54 -147 -139 -338 -31 -69 -32 -69 -25 -25 12 84 45
175 117 321 40 80 74 145 76 143 1 -1 -12 -47 -29 -101z m1246 -271 c24 -37
53 -96 64 -132 26 -89 65 -292 81 -425 17 -140 17 -530 0 -655 -14 -106 -59
-321 -69 -332 -4 -4 -29 59 -57 140 -64 189 -236 536 -425 857 -78 132 -158
272 -178 310 -33 67 -85 205 -79 211 2 2 49 -54 104 -124 106 -133 194 -226
353 -377 65 -61 106 -109 128 -150 25 -48 32 -55 32 -35 2 86 15 186 33 255
16 61 21 110 22 210 0 130 0 130 -37 209 -37 76 -49 124 -28 111 6 -4 31 -37
56 -73z m-1268 -1819 c49 -206 72 -317 72 -343 0 -16 -12 -13 -100 28 -77 36
-98 50 -93 62 4 8 8 56 8 105 1 62 7 112 22 160 12 39 25 91 28 118 4 26 10
47 14 47 4 0 26 -80 49 -177z"/>
</g>
</svg>
