<?xml version="1.0" standalone="no"?>
<!DOCTYPE svg PUBLIC "-//W3C//DTD SVG 20010904//EN"
 "http://www.w3.org/TR/2001/REC-SVG-20010904/DTD/svg10.dtd">
<svg version="1.0" xmlns="http://www.w3.org/2000/svg"
 width="1024.000000pt" height="1024.000000pt" viewBox="0 0 1024.000000 1024.000000"
 preserveAspectRatio="xMidYMid meet">
<metadata>
Created by potrace 1.16, written by Peter Selinger 2001-2019
</metadata>
<g transform="translate(0.000000,1024.000000) scale(0.100000,-0.100000)"
fill="#000000" stroke="none">
<path d="M2760 9874 c-121 -24 -226 -80 -304 -165 -117 -126 -165 -252 -191
-496 -34 -323 -84 -452 -285 -735 -106 -148 -130 -198 -144 -293 -10 -64 9
-74 23 -12 18 83 63 166 132 242 34 39 80 97 101 129 21 33 38 56 38 53 0 -3
-29 -66 -65 -139 -56 -115 -78 -180 -101 -295 -2 -13 -18 -30 -34 -38 -68 -35
-141 -197 -195 -430 -45 -196 -72 -302 -115 -445 -52 -174 -166 -634 -180
-725 -8 -50 -8 -82 0 -116 22 -91 58 -116 480 -340 116 -61 210 -112 210 -114
0 -1 -12 -38 -26 -81 -91 -279 -144 -448 -144 -459 0 -7 16 -19 35 -25 19 -6
35 -15 35 -18 0 -4 -9 -54 -20 -112 -32 -161 -75 -434 -120 -760 -77 -551
-140 -1015 -140 -1027 0 -6 32 -19 70 -27 39 -9 102 -23 140 -32 l70 -16 0
-38 c0 -50 -19 -137 -37 -173 -8 -16 -57 -85 -109 -155 -112 -151 -174 -271
-208 -405 -28 -107 -78 -408 -126 -751 -43 -313 -68 -374 -218 -539 -89 -98
-109 -140 -121 -253 -5 -50 -15 -137 -22 -194 l-13 -103 35 -29 c55 -46 77
-47 112 -5 16 21 32 37 36 37 14 0 58 -93 86 -180 38 -117 66 -163 122 -197
96 -59 219 -86 399 -87 157 -1 174 7 174 81 0 59 -19 93 -102 180 -79 84 -115
152 -158 303 -51 174 -63 261 -57 400 8 208 36 281 432 1145 122 267 155 327
254 467 91 129 150 247 183 367 l23 81 296 0 297 0 45 -137 c62 -188 67 -225
66 -483 -1 -335 17 -425 179 -890 218 -626 221 -642 151 -840 -55 -156 -61
-238 -26 -375 14 -55 29 -134 33 -176 3 -43 10 -82 14 -89 17 -28 154 -34 186
-9 6 5 15 42 18 82 11 114 13 117 48 107 47 -14 83 -40 176 -131 77 -75 95
-87 156 -107 99 -33 254 -45 408 -33 179 15 223 42 199 122 -18 59 -67 94
-183 129 -57 18 -122 43 -144 56 -113 64 -378 413 -422 554 -25 80 -66 495
-107 1080 -14 201 -34 424 -45 495 -52 343 -53 352 -45 537 l7 177 75 17 c72
16 74 17 69 43 -3 14 -19 145 -36 291 -61 522 -112 920 -156 1229 -25 172 -43
319 -40 326 2 7 23 16 46 20 38 6 41 9 36 33 -7 32 -61 337 -111 626 -20 114
-33 211 -30 214 3 3 90 52 193 109 140 77 182 104 167 109 -11 3 -112 38 -225
78 -172 61 -205 76 -204 92 1 10 15 100 32 200 18 99 32 195 32 213 l0 32 90
-63 c245 -171 429 -274 508 -285 22 -3 56 -3 74 1 21 4 132 78 303 201 149
108 347 251 442 318 95 67 172 125 173 130 0 4 -25 57 -55 118 l-55 111 22 18
c40 33 115 70 234 115 64 25 125 52 135 61 21 19 39 73 39 119 0 17 9 57 20
89 36 108 25 136 -54 136 -32 0 -46 4 -40 9 5 6 77 49 159 96 164 94 191 115
182 139 -11 27 -54 18 -205 -45 -81 -34 -178 -72 -217 -86 -134 -48 -180 -79
-242 -162 -32 -42 -86 -111 -122 -154 -54 -64 -69 -77 -87 -73 -18 5 -89 -50
-370 -283 l-348 -290 -25 19 c-14 10 -102 81 -195 159 -128 107 -179 156 -207
200 -20 32 -46 65 -56 72 -33 24 -85 98 -157 227 -116 205 -182 252 -412 292
-130 23 -162 36 -217 88 -44 43 -60 91 -49 152 l8 45 93 0 c85 0 94 2 112 24
13 15 19 39 19 70 0 26 6 55 14 66 14 21 37 115 42 175 2 24 12 42 33 60 18
14 31 34 31 47 0 13 -21 63 -47 113 -46 88 -47 91 -35 135 7 25 12 76 13 113
0 54 2 62 10 42 6 -13 8 -46 5 -73 -6 -57 3 -54 41 11 25 41 28 57 28 132 0
73 -4 93 -28 142 -53 108 -173 190 -377 259 -79 26 -113 32 -205 35 -60 1
-121 0 -135 -2z m225 -1781 c50 -33 116 -88 147 -122 l57 -61 6 58 c8 76 22
127 39 141 12 10 18 -4 36 -86 12 -54 37 -147 55 -208 68 -222 78 -273 83
-420 3 -110 0 -172 -17 -290 -22 -150 -68 -373 -81 -388 -4 -4 -10 32 -13 80
-21 317 -208 823 -510 1380 -42 77 -77 145 -77 149 0 4 42 -33 93 -83 50 -49
133 -117 182 -150z m-766 -1353 c27 -135 47 -247 45 -249 -4 -5 -195 77 -208
89 -8 8 25 165 76 359 17 64 24 80 30 65 5 -10 30 -129 57 -264z"/>
</g>
</svg>
