<?xml version="1.0" standalone="no"?>
<!DOCTYPE svg PUBLIC "-//W3C//DTD SVG 20010904//EN"
 "http://www.w3.org/TR/2001/REC-SVG-20010904/DTD/svg10.dtd">
<svg version="1.0" xmlns="http://www.w3.org/2000/svg"
 width="1024.000000pt" height="1536.000000pt" viewBox="0 0 1024.000000 1536.000000"
 preserveAspectRatio="xMidYMid meet">
<metadata>
Created by potrace 1.16, written by Peter Selinger 2001-2019
</metadata>
<g transform="translate(0.000000,1536.000000) scale(0.100000,-0.100000)"
fill="#000000" stroke="none">
<path d="M2384 13036 c-171 -33 -278 -89 -399 -211 -172 -172 -270 -407 -309
-735 -9 -74 -21 -173 -26 -220 -21 -171 -56 -283 -150 -480 -49 -102 -101
-227 -117 -277 l-28 -93 -46 -15 c-101 -34 -177 -104 -224 -207 -66 -145 -144
-503 -245 -1123 -115 -710 -114 -788 3 -891 47 -42 527 -365 571 -385 14 -7
26 -15 26 -18 0 -3 -9 -31 -21 -61 -26 -67 -136 -460 -144 -515 -6 -35 -3 -44
20 -67 24 -24 25 -30 16 -65 -48 -178 -160 -1161 -216 -1883 -49 -635 -49
-642 -30 -656 21 -16 130 -41 239 -56 45 -6 82 -12 84 -13 1 -1 -7 -24 -17
-51 -269 -671 -311 -896 -336 -1804 -11 -396 -27 -495 -109 -677 -60 -134 -76
-192 -83 -303 -4 -71 0 -127 15 -220 11 -69 24 -170 27 -225 10 -146 25 -173
105 -190 19 -4 54 -25 77 -46 76 -69 193 -112 351 -128 143 -15 249 8 286 61
38 53 17 135 -92 358 -136 277 -178 465 -169 745 9 257 44 404 196 825 92 251
150 428 221 669 74 250 168 521 245 706 37 88 74 177 82 198 l16 37 247 0 247
0 7 -73 c4 -47 0 -136 -11 -243 -12 -117 -17 -254 -17 -449 0 -322 5 -369 88
-790 80 -400 103 -629 87 -855 -10 -131 -19 -167 -68 -266 -64 -126 -80 -216
-63 -355 30 -259 47 -379 52 -385 10 -9 162 -16 174 -7 7 5 17 71 24 161 7 83
14 152 16 152 2 0 66 -65 144 -144 146 -149 196 -185 314 -226 98 -33 248 -53
359 -47 119 6 165 18 207 53 69 59 27 127 -155 247 -105 69 -114 78 -212 207
-163 216 -220 341 -243 536 -14 112 -9 253 20 674 30 411 40 687 40 1075 0
315 9 547 26 706 l6 55 96 12 c53 7 112 20 132 30 l35 17 -1 485 c-3 1097 -94
2119 -259 2920 -69 332 -86 450 -90 640 l-5 185 29 -82 c43 -120 113 -263 148
-300 40 -43 97 -57 208 -50 230 14 369 63 875 306 157 76 297 143 313 149 24
10 27 17 27 60 0 27 -9 75 -20 108 -11 32 -20 67 -20 76 0 27 39 46 139 68
118 25 177 57 254 140 68 72 114 151 146 251 15 44 33 77 56 99 42 41 51 76
31 125 -9 21 -16 41 -16 45 0 7 318 289 1003 889 277 243 303 272 249 279 -26
4 -54 -18 -381 -297 -313 -266 -772 -656 -859 -728 -73 -62 -75 -63 -136 -63
-134 0 -352 -79 -439 -160 -29 -26 -62 -74 -91 -128 -49 -96 -101 -172 -116
-172 -6 0 -10 11 -10 25 0 14 -4 25 -8 25 -5 0 -60 -33 -123 -74 -132 -85
-269 -160 -424 -232 -131 -62 -282 -116 -308 -112 -13 2 -37 35 -71 98 -114
209 -199 432 -262 687 -98 396 -132 495 -192 564 -28 32 -69 56 -164 93 -45
18 -93 81 -114 150 -21 71 -44 245 -44 344 0 71 6 101 42 210 48 144 55 236
25 327 -16 46 -16 57 -2 129 8 43 24 91 35 106 12 16 33 55 48 87 22 49 27 72
27 143 0 75 -4 93 -31 150 -77 160 -254 295 -459 350 -103 27 -282 35 -381 16z
m777 -708 c-8 -30 -9 -27 -10 33 -1 36 2 69 7 73 11 12 14 -68 3 -106z m-896
-1289 c61 -80 99 -124 349 -395 60 -65 128 -148 152 -185 23 -37 47 -70 52
-73 16 -10 27 114 26 299 -1 173 -14 323 -40 474 -8 46 -13 86 -11 88 8 7 85
-213 105 -302 44 -191 56 -315 56 -610 1 -277 -28 -687 -44 -639 -4 10 -29 86
-55 168 -34 105 -78 208 -145 340 -101 202 -179 328 -370 596 -65 91 -134 195
-153 230 -41 76 -77 187 -77 238 0 34 3 30 46 -55 25 -50 75 -128 109 -174z
m-661 -1804 c14 -71 28 -159 32 -194 l7 -63 -24 7 c-47 14 -143 71 -162 97
-30 40 -32 104 -8 189 32 113 71 242 77 259 8 19 47 -128 78 -295z"/>
</g>
</svg>
