<?xml version="1.0" standalone="no"?>
<!DOCTYPE svg PUBLIC "-//W3C//DTD SVG 20010904//EN"
 "http://www.w3.org/TR/2001/REC-SVG-20010904/DTD/svg10.dtd">
<svg version="1.0" xmlns="http://www.w3.org/2000/svg"
 width="1024.000000pt" height="1536.000000pt" viewBox="0 0 1024.000000 1536.000000"
 preserveAspectRatio="xMidYMid meet">
<metadata>
Created by potrace 1.16, written by Peter Selinger 2001-2019
</metadata>
<g transform="translate(0.000000,1536.000000) scale(0.100000,-0.100000)"
fill="#000000" stroke="none">
<path d="M5630 14984 c-307 -36 -500 -122 -705 -315 -109 -104 -185 -204 -233
-309 -52 -112 -66 -175 -66 -290 0 -119 20 -189 79 -272 79 -112 84 -125 73
-193 -15 -94 -3 -285 25 -395 27 -105 95 -258 152 -344 119 -179 232 -238 367
-189 26 9 51 13 55 9 13 -12 16 -159 4 -189 -15 -37 -72 -61 -251 -102 -394
-91 -549 -175 -674 -365 -24 -36 -187 -351 -363 -701 l-319 -635 -125 120
c-408 393 -552 524 -615 561 -81 48 -137 119 -183 232 -18 43 -43 106 -58 141
-28 69 -66 123 -167 238 -38 44 -102 129 -142 191 -103 156 -145 183 -199 128
-47 -46 -23 -133 79 -295 31 -48 56 -91 56 -95 0 -14 -193 3 -272 24 -79 20
-203 68 -364 139 -142 63 -214 68 -214 16 0 -39 44 -73 184 -145 68 -35 123
-65 121 -67 -2 -2 -54 20 -116 48 -253 115 -254 115 -283 96 -31 -20 -35 -65
-8 -88 19 -18 146 -83 230 -118 29 -13 51 -24 49 -26 -1 -2 -45 10 -97 27
-118 37 -154 39 -182 11 -20 -20 -20 -22 -4 -46 20 -31 41 -40 243 -107 162
-53 205 -78 62 -35 -46 13 -103 27 -126 31 -37 6 -43 4 -58 -19 -33 -50 -6
-70 208 -155 69 -28 172 -70 230 -95 57 -24 173 -65 258 -91 181 -55 241 -82
302 -135 91 -80 109 -144 59 -202 -96 -112 -89 -141 77 -313 58 -61 179 -187
268 -281 282 -297 575 -553 712 -621 62 -32 83 -37 140 -37 55 0 77 6 131 33
128 65 323 291 431 500 l44 84 8 -79 c4 -44 8 -187 8 -319 2 -312 -10 -391
-131 -815 -118 -415 -250 -957 -250 -1030 0 -41 35 -75 86 -83 l41 -7 6 -172
c8 -198 30 -489 52 -693 9 -77 18 -160 20 -185 3 -25 28 -238 55 -475 28 -236
64 -551 80 -700 17 -148 39 -344 50 -435 88 -744 150 -1598 225 -3089 9 -172
20 -324 25 -336 6 -16 23 -28 51 -36 52 -16 62 -41 57 -139 -5 -89 -25 -131
-123 -262 -82 -109 -279 -315 -374 -390 -48 -38 -135 -90 -245 -145 -198 -99
-259 -140 -286 -194 -39 -76 -20 -127 57 -153 124 -42 498 -46 690 -7 232 48
416 136 600 285 l32 26 7 -72 c11 -109 23 -118 166 -118 136 0 176 15 194 70
7 19 22 105 34 190 17 119 21 183 17 275 -4 110 -9 133 -56 278 -53 163 -69
248 -57 311 6 31 12 37 47 48 81 24 75 -38 82 830 6 821 -1 1233 -33 1838 -27
521 -32 772 -34 1653 l-1 767 22 -102 c34 -155 246 -1260 293 -1528 23 -129
53 -296 66 -370 141 -796 286 -1756 404 -2674 38 -296 72 -547 75 -557 10 -31
48 -49 118 -56 l65 -6 13 -86 c12 -87 8 -266 -11 -511 -12 -161 -12 -435 1
-506 13 -71 49 -147 90 -190 105 -109 355 -138 525 -60 72 33 137 96 165 159
55 125 3 419 -166 938 -48 148 -61 223 -51 292 6 41 10 46 50 61 79 30 80 34
72 213 -9 229 -43 794 -66 1118 -39 533 -74 872 -129 1250 -17 110 -46 308
-65 440 -73 497 -89 871 -84 2000 1 451 -1 904 -5 1007 l-9 187 41 11 c58 15
73 42 62 110 -20 121 -191 748 -295 1081 -72 232 -80 293 -73 553 5 191 31
421 53 476 4 8 13 -25 20 -75 42 -273 143 -509 279 -649 107 -110 170 -125
320 -75 102 34 500 226 658 318 168 97 198 120 223 175 29 63 30 96 3 130 -25
31 -52 33 -129 7 l-55 -19 35 30 c79 67 165 98 430 153 69 15 199 51 290 80
91 29 190 58 220 64 75 15 120 44 120 76 0 40 -30 48 -158 42 -62 -3 -112 -4
-110 -3 1 2 59 11 128 20 250 33 300 48 300 89 0 51 -43 58 -190 32 -88 -16
-127 -19 -118 -10 5 5 87 22 223 45 121 21 165 44 165 87 0 45 -38 48 -208 18
-84 -15 -155 -25 -158 -22 -3 2 45 17 107 32 142 35 213 70 217 106 4 36 -22
59 -67 59 -21 0 -109 -16 -197 -35 -199 -44 -390 -67 -489 -58 l-75 6 53 56
c99 105 166 215 167 272 0 43 -35 79 -77 79 -33 0 -46 -10 -142 -108 -83 -85
-135 -128 -238 -195 -147 -96 -173 -125 -243 -264 -68 -135 -90 -151 -480
-336 -41 -19 -92 -47 -112 -61 -50 -34 -48 -16 2 26 l40 33 -14 175 c-8 96
-22 285 -30 420 -36 565 -57 750 -101 888 -61 195 -204 342 -440 453 -84 40
-555 224 -626 246 -18 5 -22 31 -35 188 -8 103 6 158 54 206 31 30 51 39 115
53 128 29 228 85 328 185 72 72 93 101 131 181 67 137 83 215 83 390 0 217
-30 342 -134 555 -174 357 -482 599 -849 669 -83 16 -254 27 -312 20z m-775
-998 c9 -48 19 -96 21 -105 3 -9 -2 -4 -10 11 -22 37 -46 144 -45 198 1 42 2
43 9 15 5 -16 16 -70 25 -119z m487 -1632 c-71 -140 -104 -249 -106 -341 -1
-94 14 -125 80 -158 59 -30 241 -29 344 3 232 73 401 218 530 455 53 97 51 73
-3 -33 -54 -108 -112 -189 -235 -331 -265 -309 -410 -517 -539 -772 -91 -182
-172 -389 -217 -559 -14 -51 -30 -113 -37 -138 l-12 -45 -8 40 c-33 173 -44
331 -43 645 0 280 3 347 23 485 39 285 93 499 166 670 22 52 88 165 93 161 2
-2 -15 -39 -36 -82z"/>
</g>
</svg>
