<?xml version="1.0" standalone="no"?>
<!DOCTYPE svg PUBLIC "-//W3C//DTD SVG 20010904//EN"
 "http://www.w3.org/TR/2001/REC-SVG-20010904/DTD/svg10.dtd">
<svg version="1.0" xmlns="http://www.w3.org/2000/svg"
 width="1024.000000pt" height="1536.000000pt" viewBox="0 0 1024.000000 1536.000000"
 preserveAspectRatio="xMidYMid meet">
<metadata>
Created by potrace 1.16, written by Peter Selinger 2001-2019
</metadata>
<g transform="translate(0.000000,1536.000000) scale(0.100000,-0.100000)"
fill="#000000" stroke="none">
<path d="M5070 14649 c-36 -5 -105 -14 -155 -20 -196 -24 -328 -91 -481 -244
-92 -91 -106 -111 -158 -215 -67 -137 -94 -225 -102 -340 -11 -146 26 -286
103 -386 l27 -36 -17 -101 c-23 -133 -22 -230 2 -282 15 -34 19 -80 25 -280 8
-265 -2 -403 -36 -492 -23 -62 -29 -66 -138 -82 -151 -23 -288 -113 -409 -269
-114 -148 -139 -172 -178 -172 -35 0 -57 -18 -96 -74 -29 -42 -160 -120 -254
-152 -68 -23 -109 -42 -178 -85 -33 -21 -75 -39 -94 -41 l-34 -3 -18 65 c-9
36 -28 95 -43 132 -27 70 -44 189 -86 573 -27 249 -32 270 -78 313 -35 31 -37
37 -37 91 1 71 31 124 97 168 38 25 52 47 123 189 44 89 97 183 118 210 21 26
40 59 44 73 8 33 -29 102 -67 125 -24 14 -30 24 -30 52 0 42 -23 89 -50 104
-12 6 -104 16 -206 22 -206 12 -250 6 -278 -37 -38 -57 -61 -219 -108 -742
l-23 -262 -45 -10 c-25 -6 -81 -15 -124 -20 -86 -10 -129 -33 -134 -71 -9 -59
202 -1163 289 -1515 70 -281 121 -321 370 -291 180 22 328 54 699 148 460 117
459 117 469 104 11 -13 65 -248 91 -395 61 -343 68 -652 21 -864 -6 -23 -30
-105 -55 -182 -31 -98 -45 -155 -44 -190 1 -33 -27 -166 -80 -385 -104 -425
-147 -637 -133 -654 6 -7 34 -23 62 -36 l51 -25 -6 -65 c-3 -36 -11 -119 -18
-185 -14 -155 -14 -665 1 -915 14 -221 27 -427 70 -1055 17 -242 34 -508 39
-591 5 -83 12 -157 17 -163 17 -28 81 -43 209 -48 l131 -6 67 -261 c77 -296
74 -278 88 -601 17 -381 32 -524 120 -1120 74 -500 97 -718 111 -1060 12 -264
11 -272 -10 -353 -38 -147 -120 -300 -257 -482 -115 -153 -206 -228 -392 -325
-83 -43 -148 -110 -158 -160 -8 -43 3 -89 25 -109 81 -73 445 -95 631 -37 68
21 146 65 194 110 15 14 66 74 113 133 87 112 184 201 212 196 11 -2 22 -33
38 -112 26 -131 39 -163 69 -183 26 -17 75 -10 94 13 7 7 23 67 36 131 13 65
46 187 74 270 65 197 66 248 14 390 -118 317 -119 323 -119 658 0 280 3 335
61 952 35 385 41 569 24 748 -15 151 -47 332 -90 506 -21 86 -42 194 -45 240
-7 90 10 398 23 411 4 4 39 10 78 14 l70 6 12 -81 c15 -107 86 -318 160 -478
69 -149 88 -216 97 -333 21 -292 53 -473 155 -880 94 -373 150 -880 136 -1235
-14 -361 -24 -436 -85 -642 -61 -202 -135 -379 -220 -518 -86 -143 -113 -208
-118 -283 -5 -81 14 -126 67 -157 31 -18 52 -20 200 -20 368 0 535 87 609 317
14 42 29 57 40 39 13 -21 40 0 50 38 6 20 29 122 52 226 66 303 59 442 -35
664 l-34 81 14 207 c7 115 18 269 24 343 57 741 70 948 70 1171 0 390 -34 577
-169 931 -73 191 -102 323 -108 489 l-6 146 51 7 c28 4 54 10 56 15 17 27 104
943 128 1346 20 329 17 1134 -5 1385 -10 113 -20 224 -23 247 -6 41 -5 42 35
62 36 19 41 26 41 54 0 84 -95 488 -188 797 -27 91 -51 170 -52 175 -2 6 0 18
4 27 5 11 -4 58 -23 120 -65 216 -93 395 -90 559 3 138 11 171 66 261 30 48
63 120 78 171 15 48 29 86 31 84 10 -9 -52 -286 -70 -316 -15 -23 19 -20 55 5
95 65 200 228 234 363 21 84 36 267 28 358 -3 40 -4 73 -1 73 2 0 110 -41 239
-91 511 -199 634 -237 824 -258 243 -28 304 32 384 371 204 863 321 1427 307
1483 -9 37 -44 54 -147 74 -78 14 -94 21 -96 37 -1 10 -12 143 -23 294 -24
313 -61 586 -87 638 -30 61 -75 76 -222 76 -257 -1 -311 -19 -311 -103 0 -35
-14 -62 -37 -73 -5 -1 -20 -18 -35 -36 -36 -44 -38 -99 -4 -139 32 -38 67
-110 106 -218 46 -126 55 -143 115 -205 81 -84 111 -203 53 -212 -11 -2 -30
-15 -41 -30 -17 -23 -24 -70 -48 -335 -31 -331 -46 -430 -85 -563 -46 -155
-49 -158 -114 -119 -50 31 -164 123 -242 196 -36 35 -71 63 -77 63 -6 0 -14
15 -19 33 -5 20 -21 40 -43 54 -49 31 -65 48 -120 136 -67 105 -127 168 -227
234 -72 48 -87 63 -113 115 -38 76 -103 270 -123 368 -21 106 -70 442 -106
725 -63 497 -114 688 -238 898 -60 102 -185 230 -282 290 -165 101 -381 143
-590 116z m510 -2266 c29 -96 32 -265 6 -448 -9 -65 -16 -141 -16 -168 0 -36
-3 -48 -12 -44 -88 39 -175 68 -196 65 -20 -2 -32 -14 -48 -44 -27 -54 -54
-99 -136 -226 -135 -210 -243 -443 -331 -713 -54 -166 -127 -413 -127 -430 0
-8 -4 -15 -8 -15 -9 0 -62 333 -87 540 -30 260 -44 712 -26 840 5 30 7 57 4
60 -2 2 -18 -3 -34 -13 l-30 -17 7 48 c21 146 71 275 157 406 l52 79 13 -69
c68 -365 129 -573 165 -561 7 2 36 33 65 68 30 35 115 133 190 218 222 249
294 347 337 459 10 23 21 42 25 42 4 0 18 -35 30 -77z"/>
</g>
</svg>
