<?xml version="1.0" standalone="no"?>
<!DOCTYPE svg PUBLIC "-//W3C//DTD SVG 20010904//EN"
 "http://www.w3.org/TR/2001/REC-SVG-20010904/DTD/svg10.dtd">
<svg version="1.0" xmlns="http://www.w3.org/2000/svg"
 width="1024.000000pt" height="1536.000000pt" viewBox="0 0 1024.000000 1536.000000"
 preserveAspectRatio="xMidYMid meet">
<metadata>
Created by potrace 1.16, written by Peter Selinger 2001-2019
</metadata>
<g transform="translate(0.000000,1536.000000) scale(0.100000,-0.100000)"
fill="#000000" stroke="none">
<path d="M5135 14481 c-500 -81 -931 -541 -902 -961 10 -134 23 -156 52 -87
12 29 13 27 19 -49 6 -59 2 -116 -14 -224 -35 -228 -20 -393 50 -546 73 -162
211 -302 333 -339 39 -12 42 -15 39 -45 -6 -70 -157 -164 -319 -200 -48 -10
-181 -32 -294 -49 -277 -40 -273 -39 -604 -254 -241 -157 -375 -239 -571 -347
-146 -81 -163 -86 -164 -42 0 6 -13 123 -30 260 -16 136 -39 346 -50 467 -11
121 -23 230 -25 243 -5 19 -12 22 -50 22 l-45 0 0 84 0 83 38 26 c86 56 134
124 182 253 16 41 39 89 53 107 54 72 71 118 71 202 1 107 -19 150 -86 179
-47 21 -48 22 -48 66 0 61 -35 129 -80 155 -52 30 -271 28 -385 -3 -164 -45
-251 -108 -304 -221 -26 -55 -26 -59 -25 -271 0 -122 8 -286 17 -379 9 -91 17
-184 17 -207 0 -39 -2 -42 -32 -48 -52 -10 -154 -62 -172 -87 -20 -30 -20 -87
-1 -362 46 -642 110 -1163 163 -1333 38 -123 126 -218 226 -245 67 -19 271 -4
431 30 267 57 816 195 897 226 17 7 21 -11 33 -155 2 -36 19 -213 36 -395 28
-292 30 -338 20 -403 -7 -41 -60 -263 -117 -495 -141 -569 -175 -718 -265
-1190 -16 -83 -11 -93 60 -129 l53 -27 -1 -273 c-2 -279 7 -406 50 -738 38
-296 120 -867 165 -1155 202 -1301 262 -1925 309 -3240 3 -93 8 -178 11 -187
5 -18 72 -43 142 -54 24 -4 46 -13 49 -20 10 -27 -29 -112 -91 -194 -121 -162
-344 -370 -509 -475 -113 -72 -198 -136 -220 -167 -25 -33 -34 -125 -17 -158
21 -39 88 -59 235 -72 255 -21 523 16 691 97 40 20 136 83 211 140 l138 104 8
-72 c11 -94 15 -101 68 -105 54 -5 203 16 245 33 35 15 34 9 56 225 16 158 16
303 -1 355 -8 22 -31 81 -51 130 -21 50 -41 111 -45 136 l-7 46 58 8 c86 10
182 43 194 65 22 41 4 1228 -25 1615 -19 265 -29 372 -67 725 -33 315 -33 235
-8 1165 24 878 30 1078 34 1082 2 2 9 -20 16 -49 21 -91 100 -365 155 -543 47
-150 94 -304 280 -915 26 -85 60 -200 75 -255 15 -55 53 -190 83 -301 190
-684 335 -1418 453 -2289 20 -148 42 -285 50 -303 10 -25 27 -39 68 -58 54
-24 182 -54 236 -54 l28 0 6 -97 c3 -54 2 -235 -2 -403 -4 -168 -4 -335 0
-373 8 -78 44 -153 97 -199 137 -120 431 -155 617 -73 152 67 205 199 155 390
-16 63 -121 373 -230 685 -44 124 -49 150 -27 150 20 0 119 41 139 59 11 9 16
23 13 36 -3 12 -19 165 -36 341 -98 1037 -135 1307 -266 1939 -108 522 -103
497 -149 900 -18 161 -48 483 -75 800 -71 835 -104 1172 -140 1413 -11 74 -20
137 -20 141 0 4 20 13 45 20 25 7 54 24 64 37 18 23 18 26 0 124 -55 298 -157
703 -314 1235 -37 127 -77 264 -88 306 l-21 77 102 363 c56 200 116 421 133
491 21 84 36 125 43 121 6 -4 63 -41 126 -83 350 -234 757 -441 974 -497 40
-10 90 -14 151 -11 76 3 98 8 144 33 114 63 159 154 249 510 69 271 136 637
207 1139 30 215 31 246 6 278 -21 26 -119 78 -147 78 -15 0 -16 9 -10 88 17
217 36 598 36 708 0 154 -15 208 -72 259 -88 80 -322 164 -424 152 -62 -7 -90
-29 -111 -87 -16 -44 -23 -52 -54 -60 -58 -16 -99 -74 -99 -140 0 -21 -8 -33
-34 -48 -43 -26 -60 -75 -54 -157 6 -72 23 -109 63 -135 24 -16 29 -27 32 -66
7 -125 77 -269 154 -316 53 -34 55 -40 43 -132 -6 -44 -8 -46 -40 -46 -48 0
-83 -16 -94 -45 -5 -13 -32 -136 -59 -272 -64 -319 -121 -594 -127 -611 -2 -7
-40 32 -86 90 -246 309 -503 593 -620 684 -32 25 -81 55 -110 68 -79 35 -330
90 -680 150 -65 11 -99 23 -130 45 -58 40 -125 110 -137 144 -21 55 -16 61 62
79 96 23 222 87 286 144 l51 46 0 -36 c0 -20 4 -36 8 -36 17 0 88 58 143 116
179 190 278 440 295 745 12 218 -23 421 -102 588 -74 158 -165 267 -286 344
-51 33 -134 67 -163 67 -7 0 -35 18 -60 40 -61 53 -148 96 -244 122 -84 22
-318 33 -406 19z m84 -2992 c-231 -439 -420 -877 -564 -1304 -37 -110 -68
-201 -70 -203 -9 -9 -80 330 -109 518 -59 382 -46 723 40 1065 14 55 27 101
28 103 2 1 24 -6 50 -17 168 -73 437 -64 681 21 22 8 41 13 43 12 1 -1 -43
-89 -99 -195z"/>
</g>
</svg>
