<?xml version="1.0" standalone="no"?>
<!DOCTYPE svg PUBLIC "-//W3C//DTD SVG 20010904//EN"
 "http://www.w3.org/TR/2001/REC-SVG-20010904/DTD/svg10.dtd">
<svg version="1.0" xmlns="http://www.w3.org/2000/svg"
 width="1024.000000pt" height="1536.000000pt" viewBox="0 0 1024.000000 1536.000000"
 preserveAspectRatio="xMidYMid meet">
<metadata>
Created by potrace 1.16, written by Peter Selinger 2001-2019
</metadata>
<g transform="translate(0.000000,1536.000000) scale(0.100000,-0.100000)"
fill="#000000" stroke="none">
<path d="M5515 14739 c-343 -47 -670 -258 -797 -514 -52 -104 -63 -153 -63
-280 0 -130 9 -161 70 -234 l27 -31 -7 -228 c-8 -261 -2 -297 78 -484 24 -56
59 -141 77 -188 38 -97 89 -181 130 -210 15 -10 48 -25 73 -32 38 -10 55 -9
108 6 34 9 66 13 70 9 8 -8 29 -156 29 -204 0 -21 -6 -28 -27 -31 -92 -16
-428 -100 -483 -121 -129 -49 -251 -129 -341 -224 -113 -119 -173 -230 -352
-648 -155 -362 -204 -472 -295 -654 l-76 -153 -45 49 c-48 51 -252 283 -384
437 -153 177 -208 224 -292 247 -45 13 -56 30 -100 159 -70 201 -109 256 -309
435 -43 38 -103 104 -133 147 -74 106 -136 168 -167 168 -40 0 -66 -43 -66
-110 0 -94 24 -145 109 -232 l76 -77 -90 5 c-49 3 -126 12 -170 20 -73 14
-128 32 -393 126 -110 39 -182 47 -218 23 -36 -24 -26 -32 129 -99 118 -51
267 -130 267 -142 0 -5 -7 -2 -167 70 -127 57 -230 86 -304 86 -69 0 -89 -7
-89 -30 0 -28 17 -36 191 -99 90 -32 176 -64 192 -70 15 -6 39 -16 53 -21 15
-6 25 -13 22 -15 -3 -3 -38 6 -79 19 -83 28 -238 71 -284 79 -45 8 -85 -3 -85
-23 0 -37 74 -76 261 -134 63 -20 124 -43 134 -52 20 -15 20 -16 0 -9 -11 4
-68 18 -128 31 -81 19 -112 22 -127 14 -26 -14 -25 -22 2 -47 32 -29 91 -57
203 -97 53 -19 143 -62 200 -96 130 -77 210 -111 355 -150 156 -41 265 -96
324 -161 25 -28 46 -57 46 -64 0 -7 -15 -32 -33 -56 -65 -85 -69 -106 -36
-172 30 -58 382 -412 678 -681 373 -339 438 -382 560 -374 141 10 210 76 474
451 41 59 77 113 80 120 11 30 16 -12 27 -223 17 -322 10 -377 -99 -758 -127
-444 -223 -856 -237 -1017 -6 -69 -6 -70 26 -102 l33 -33 -14 -267 c-10 -201
-14 -534 -13 -1328 1 -1089 8 -1323 39 -1354 14 -14 232 -49 316 -50 l35 -1
13 -107 c14 -124 50 -323 86 -473 34 -144 42 -227 65 -660 37 -696 41 -804 47
-1305 6 -556 1 -645 -47 -795 -48 -147 -131 -280 -291 -465 -159 -185 -223
-238 -412 -340 -214 -117 -330 -270 -234 -310 77 -32 438 -45 597 -20 203 31
313 91 530 290 52 48 107 96 122 106 l27 20 6 -23 c3 -13 6 -71 8 -130 2 -71
7 -112 15 -120 9 -9 42 -13 95 -13 64 0 89 4 116 20 67 39 67 40 172 500 30
130 23 260 -20 375 -85 227 -83 412 9 990 93 580 119 808 127 1105 6 254 -4
406 -48 715 -29 198 -31 228 -25 385 4 94 9 184 12 201 l6 32 158 -1 158 -1
11 -53 c17 -73 92 -310 131 -413 76 -198 89 -241 109 -365 12 -71 33 -197 47
-280 40 -242 101 -551 160 -809 184 -806 206 -933 230 -1333 20 -338 15 -476
-27 -713 -38 -218 -43 -347 -16 -427 25 -72 85 -136 164 -175 58 -28 79 -33
163 -36 113 -5 184 8 266 47 115 56 184 141 205 256 13 70 4 115 -102 533 -70
278 -79 322 -79 405 0 50 -8 135 -17 187 -21 121 -21 320 1 680 9 151 16 415
16 585 0 648 -57 1065 -197 1453 -78 216 -106 322 -116 443 l-4 46 106 22
c144 30 179 41 186 60 3 8 -3 220 -14 471 -11 250 -25 610 -31 800 -19 613
-50 955 -130 1472 l-29 187 35 35 c41 41 42 32 -16 261 -41 158 -97 339 -236
750 -104 310 -118 387 -111 590 7 164 16 218 98 533 l53 204 47 -249 c54 -284
79 -395 115 -508 33 -104 96 -232 139 -283 45 -52 123 -100 186 -113 105 -23
272 41 529 203 74 46 175 106 224 134 142 79 236 199 252 322 4 28 5 52 2 52
-2 0 -28 -11 -56 -25 -67 -32 -72 -31 -38 4 41 43 107 67 234 86 138 20 189
35 312 90 130 59 176 73 288 90 53 9 109 20 124 26 29 12 44 37 29 52 -13 13
-85 26 -143 27 -26 0 -50 5 -53 10 -4 7 46 8 157 4 184 -7 240 3 246 43 5 37
-41 52 -187 59 -72 4 -131 11 -131 16 0 4 42 8 93 9 220 1 308 20 292 61 -14
35 -59 41 -258 36 -175 -4 -187 -3 -132 8 33 8 113 20 178 28 123 15 171 34
165 64 -2 9 -19 25 -38 34 -47 24 -142 23 -304 -3 -181 -29 -360 -24 -427 12
l-45 25 65 55 c115 96 174 208 141 266 -36 63 -71 54 -185 -46 -50 -44 -112
-83 -218 -137 -184 -94 -241 -145 -324 -291 l-58 -101 -220 -147 c-121 -81
-238 -161 -260 -179 -64 -52 -73 -53 -34 -5 68 83 79 108 79 180 0 36 -9 114
-20 175 -21 113 -58 368 -85 584 -36 288 -90 501 -167 657 -51 103 -149 226
-225 283 -80 61 -83 64 -48 56 52 -13 165 -96 219 -163 29 -35 75 -106 102
-158 27 -52 53 -95 58 -95 14 0 -1 84 -27 148 -14 33 -56 108 -94 168 -223
347 -336 724 -408 1359 -66 580 -142 824 -329 1047 -168 199 -419 312 -721
323 -60 2 -141 0 -180 -6z m-272 -3014 c74 -34 191 -49 278 -35 70 10 170 41
221 66 15 8 30 14 33 14 3 0 -17 -28 -43 -62 -57 -74 -134 -188 -262 -388
-243 -381 -274 -440 -345 -655 l-43 -129 -10 39 c-25 93 -35 225 -35 460 -1
309 21 534 73 724 l11 42 35 -26 c19 -14 58 -37 87 -50z"/>
</g>
</svg>
