<?xml version="1.0" standalone="no"?>
<!DOCTYPE svg PUBLIC "-//W3C//DTD SVG 20010904//EN"
 "http://www.w3.org/TR/2001/REC-SVG-20010904/DTD/svg10.dtd">
<svg version="1.0" xmlns="http://www.w3.org/2000/svg"
 width="1024.000000pt" height="1536.000000pt" viewBox="0 0 1024.000000 1536.000000"
 preserveAspectRatio="xMidYMid meet">
<metadata>
Created by potrace 1.16, written by Peter Selinger 2001-2019
</metadata>
<g transform="translate(0.000000,1536.000000) scale(0.100000,-0.100000)"
fill="#000000" stroke="none">
<path d="M5183 14839 c-288 -48 -561 -314 -668 -649 -18 -57 -29 -117 -32
-182 -7 -118 9 -169 73 -238 l42 -45 -15 -65 c-28 -121 -6 -277 66 -464 85
-222 59 -392 -90 -581 -105 -133 -137 -212 -108 -267 6 -11 9 -21 7 -23 -2 -2
-55 -18 -118 -35 -202 -54 -273 -102 -332 -222 -14 -29 -51 -154 -82 -278 -53
-217 -202 -681 -232 -727 -31 -49 -37 -34 -79 202 -31 172 -69 334 -88 373 -8
18 -20 26 -34 25 -18 -2 -22 6 -33 72 l-13 74 58 172 c35 103 59 195 62 233 5
59 4 64 -57 181 -35 66 -83 144 -107 172 -44 52 -45 57 -119 339 -75 289 -93
340 -120 351 -27 10 -61 -6 -74 -37 -17 -42 -9 -121 34 -319 47 -212 47 -217
-3 -225 -36 -6 -91 -51 -91 -76 0 -5 -18 -19 -41 -32 -44 -24 -69 -62 -69
-101 0 -18 -8 -28 -31 -37 -65 -27 -77 -99 -39 -245 26 -101 63 -180 140 -300
71 -108 85 -148 93 -260 5 -66 4 -74 -5 -47 -6 17 -15 32 -19 32 -14 0 -128
-142 -150 -187 -27 -56 -23 -82 35 -235 62 -162 98 -288 151 -529 25 -114 54
-231 64 -260 45 -129 147 -325 224 -427 73 -96 161 -126 247 -82 39 20 40 20
40 1 0 -10 8 -36 17 -57 10 -22 16 -57 14 -81 -4 -65 28 -127 81 -155 36 -19
58 -22 145 -23 85 0 103 -3 103 -15 0 -8 -21 -91 -46 -185 -100 -374 -265
-1058 -262 -1087 3 -30 13 -40 52 -52 16 -6 18 -13 12 -59 -7 -56 -60 -546
-101 -922 -32 -298 -52 -496 -110 -1110 -9 -88 -23 -232 -33 -320 -9 -88 -16
-168 -14 -177 4 -21 100 -68 187 -93 33 -10 70 -21 83 -26 l22 -9 -6 -182 c-9
-265 11 -330 190 -606 37 -57 105 -178 151 -270 46 -92 105 -205 130 -252 101
-186 443 -853 525 -1024 156 -323 228 -514 265 -696 30 -148 22 -188 -115
-555 -28 -77 -80 -224 -115 -327 -94 -275 -128 -337 -319 -583 -127 -163 -166
-237 -166 -311 0 -88 46 -117 205 -130 152 -12 329 22 471 92 136 67 209 148
259 291 18 49 19 50 34 31 9 -11 34 -22 56 -25 58 -7 92 22 100 85 17 141 95
485 120 532 8 14 27 41 43 60 l29 35 8 -65 c13 -121 32 -194 55 -212 33 -27
133 -25 160 2 17 17 19 28 13 58 -16 83 -8 363 16 511 20 126 21 152 11 205
-20 103 -66 178 -187 309 -35 37 -63 75 -63 85 0 26 27 116 138 457 159 486
213 699 243 955 17 154 6 556 -25 890 -19 191 -26 321 -24 425 l3 150 90 12
c87 12 155 34 155 51 0 4 14 134 30 287 154 1422 186 1902 154 2347 -5 76 -5
76 23 90 41 19 40 49 -7 258 -63 276 -156 595 -276 941 -30 86 -54 158 -54
161 0 3 23 8 51 12 82 11 154 43 192 85 44 48 80 126 155 331 156 430 236 740
330 1283 31 186 36 233 36 382 1 185 -10 250 -61 355 -31 65 -125 159 -187
190 l-43 21 14 42 c36 103 20 266 -43 428 -129 334 -166 486 -219 900 -54 422
-89 575 -170 748 -128 270 -305 409 -550 432 -49 4 -117 15 -150 23 -65 17
-225 19 -312 5z m1273 -1813 c15 -55 45 -145 67 -200 89 -227 112 -356 87
-476 -20 -94 -29 -81 -23 33 7 133 -6 207 -68 375 -48 131 -110 356 -108 397
1 25 7 7 45 -129z m-1731 -191 c-9 -64 -28 -104 -103 -224 -65 -103 -102 -196
-102 -252 l0 -30 -25 18 c-50 37 -20 126 84 253 65 79 126 188 137 246 9 51
17 41 9 -11z m1010 -128 c9 -32 37 -102 62 -155 57 -122 65 -142 54 -142 -12
0 -95 182 -120 263 -11 37 -23 98 -25 135 l-5 67 9 -55 c5 -30 17 -81 25 -113z
m-661 -172 c-8 -82 -17 -151 -19 -154 -3 -2 -5 28 -5 67 0 40 -4 72 -9 72 -18
0 -65 -67 -104 -148 -49 -101 -58 -189 -34 -317 9 -44 15 -81 14 -82 -1 -1
-29 32 -61 73 -34 43 -69 77 -83 80 -17 5 -55 -9 -136 -50 -62 -31 -115 -56
-119 -56 -15 0 36 73 74 103 21 18 68 68 104 112 37 44 129 144 205 223 82 84
148 161 161 187 12 25 23 43 24 42 2 -2 -4 -70 -12 -152z m1451 10 c18 -74 16
-196 -3 -232 -7 -12 -9 13 -5 82 4 73 1 119 -11 168 -9 38 -16 71 -16 75 1 19
19 -31 35 -93z m-718 -150 c19 -55 37 -125 40 -155 7 -70 -12 -161 -39 -196
-19 -24 -26 -26 -71 -21 -27 4 -54 10 -61 15 -23 19 -159 62 -195 62 -24 0
-70 -16 -130 -45 -51 -25 -95 -45 -98 -45 -3 0 39 47 94 103 121 126 273 322
348 450 l28 49 24 -59 c14 -32 41 -103 60 -158z m-2490 -17 c-3 -8 -6 -5 -6 6
-1 11 2 17 5 13 3 -3 4 -12 1 -19z m-96 -222 c-6 -7 -22 -16 -34 -20 -18 -4
-17 -2 8 18 31 25 46 26 26 2z m-108 -33 c-7 -2 -19 -2 -25 0 -7 3 -2 5 12 5
14 0 19 -2 13 -5z m1801 -207 c14 -28 30 -80 36 -116 14 -79 11 -92 -83 -400
-36 -118 -79 -285 -95 -370 -41 -211 -43 -222 -34 -216 5 3 14 38 21 78 42
246 200 759 268 871 74 123 183 214 309 258 30 11 59 17 64 14 17 -10 -22 -80
-170 -305 -260 -397 -337 -550 -461 -919 -26 -80 -50 -138 -53 -130 -25 76
-43 608 -27 801 18 217 67 463 108 541 l16 31 38 -43 c21 -24 50 -66 63 -95z
m-1519 -367 c-43 -44 -183 -140 -242 -164 -19 -8 -50 -15 -67 -14 -28 1 -26 2
16 14 81 22 234 114 292 174 17 17 32 31 35 31 3 0 -13 -19 -34 -41z m2622
-721 c-3 -8 -6 -5 -6 6 -1 11 2 17 5 13 3 -3 4 -12 1 -19z m-10 -50 c-3 -8 -6
-5 -6 6 -1 11 2 17 5 13 3 -3 4 -12 1 -19z m-1960 -35 c-3 -10 -5 -2 -5 17 0
19 2 27 5 18 2 -10 2 -26 0 -35z m10 -105 c-3 -7 -5 -2 -5 12 0 14 2 19 5 13
2 -7 2 -19 0 -25z m10 -80 c-3 -7 -5 -2 -5 12 0 14 2 19 5 13 2 -7 2 -19 0
-25z m41 -330 l9 -58 -42 0 -43 0 32 65 c17 35 32 61 33 57 1 -4 6 -33 11 -64z
m379 -535 c-3 -10 -5 -4 -5 12 0 17 2 24 5 18 2 -7 2 -21 0 -30z m484 -4222
l146 -1 7 -121 c10 -169 29 -283 78 -471 40 -157 42 -169 42 -323 1 -210 -14
-515 -25 -515 -5 0 -9 27 -9 59 0 74 -31 226 -70 343 -56 166 -200 430 -336
613 -99 135 -107 167 -83 328 15 103 13 100 62 93 23 -3 108 -5 188 -5z m236
-1793 c-3 -8 -6 -5 -6 6 -1 11 2 17 5 13 3 -3 4 -12 1 -19z"/>
</g>
</svg>
