<?xml version="1.0" standalone="no"?>
<!DOCTYPE svg PUBLIC "-//W3C//DTD SVG 20010904//EN"
 "http://www.w3.org/TR/2001/REC-SVG-20010904/DTD/svg10.dtd">
<svg version="1.0" xmlns="http://www.w3.org/2000/svg"
 width="1024.000000pt" height="1536.000000pt" viewBox="0 0 1024.000000 1536.000000"
 preserveAspectRatio="xMidYMid meet">
<metadata>
Created by potrace 1.16, written by Peter Selinger 2001-2019
</metadata>
<g transform="translate(0.000000,1536.000000) scale(0.100000,-0.100000)"
fill="#000000" stroke="none">
<path d="M6832 15032 c-62 -65 -122 -112 -142 -112 -7 0 10 24 39 54 57 61 65
86 26 86 -37 0 -83 -26 -132 -72 l-41 -40 -53 12 c-66 16 -182 8 -269 -19 -86
-27 -194 -114 -419 -338 -164 -164 -175 -173 -212 -173 -48 0 -46 2 -222 -240
-77 -107 -235 -321 -350 -474 -115 -154 -231 -312 -257 -352 -87 -133 -342
-762 -483 -1189 -88 -266 -188 -599 -207 -692 -8 -35 -23 -66 -49 -95 -123
-142 -277 -385 -336 -529 -68 -168 -79 -352 -40 -674 20 -163 19 -260 -5 -441
-18 -131 -29 -175 -76 -306 -207 -574 -284 -797 -284 -819 0 -20 76 -83 162
-135 53 -32 59 -39 53 -61 -17 -71 -35 -241 -45 -424 -17 -335 -2 -548 85
-1248 32 -263 81 -743 105 -1046 10 -118 15 -143 32 -162 23 -25 128 -71 225
-100 35 -10 64 -24 66 -33 3 -8 32 -103 65 -210 68 -220 95 -318 112 -405 7
-33 27 -99 46 -147 32 -83 34 -96 54 -365 23 -320 39 -468 81 -748 17 -110 39
-258 50 -330 11 -71 33 -213 50 -315 79 -485 101 -684 102 -920 0 -221 -32
-344 -163 -615 -120 -250 -246 -400 -441 -529 -64 -41 -131 -91 -147 -111 -53
-60 -54 -148 -2 -186 73 -55 399 -51 590 7 129 39 205 96 252 188 43 85 109
187 187 285 l66 83 10 -112 c9 -99 14 -115 34 -131 28 -23 72 -24 111 -4 31
16 50 62 50 125 0 52 25 158 66 287 58 184 49 279 -46 483 -32 69 -63 148 -69
176 -47 230 -33 881 31 1419 15 128 21 240 22 385 0 224 -13 341 -65 585 -17
77 -43 204 -59 283 -18 85 -42 169 -60 208 -16 36 -39 93 -50 127 -20 61 -60
267 -60 311 0 27 -23 39 -106 56 -71 15 -108 33 -49 24 22 -3 69 -11 105 -17
65 -12 65 -12 68 -47 7 -91 37 -242 63 -312 35 -95 64 -154 145 -288 89 -149
140 -275 279 -685 67 -198 161 -472 208 -610 116 -337 181 -596 241 -950 53
-315 58 -514 21 -835 -30 -261 -28 -250 -74 -352 -56 -126 -73 -155 -148 -256
-79 -106 -108 -174 -100 -233 10 -78 64 -109 188 -109 184 0 425 99 530 218
67 76 87 128 109 275 31 203 61 336 80 360 4 4 10 -29 13 -74 4 -45 12 -88 18
-95 6 -8 29 -14 51 -14 31 0 46 7 70 31 l31 30 -9 97 c-5 53 -9 176 -9 272 0
169 -1 177 -27 233 -19 41 -60 91 -135 170 -119 122 -121 128 -147 282 -32
187 -34 208 -66 1035 -25 624 -89 851 -371 1316 -87 144 -133 242 -149 317 -6
32 -12 125 -13 208 l-2 151 68 23 c37 12 80 31 94 41 l27 20 1 455 c1 471 9
617 55 989 45 363 42 595 -10 850 -35 168 -88 364 -144 529 -20 58 -35 105
-33 105 1 1 16 8 32 17 25 12 29 21 27 45 -5 38 -87 244 -207 519 -207 473
-238 551 -224 576 7 15 9 43 5 82 -6 60 -5 62 49 156 30 53 94 155 142 228
114 171 357 481 361 461 5 -25 -55 -170 -97 -236 -21 -32 -56 -72 -76 -88
l-38 -29 34 -6 c69 -15 176 11 236 57 63 48 23 -25 -57 -104 -52 -52 -53 -52
-24 -52 57 1 162 29 225 61 126 63 247 221 283 369 21 85 18 26 -3 -78 -27
-130 -104 -266 -180 -318 -34 -23 -35 -24 -10 -24 39 0 125 47 172 95 55 55
108 156 143 270 25 82 27 105 27 250 0 169 -8 229 -64 464 -16 68 -28 126 -26
127 4 4 116 -361 155 -501 49 -179 41 -379 -20 -485 l-20 -35 36 39 c59 65 81
147 81 306 -1 152 -10 205 -85 485 -26 99 -60 237 -75 307 -30 145 -34 116 47
338 45 122 105 272 250 625 27 66 62 154 78 195 29 78 123 298 280 655 153
349 200 462 200 479 0 26 -27 72 -56 95 l-26 20 35 108 c92 282 122 405 122
493 0 75 -3 91 -30 140 -42 79 -173 205 -292 283 l-102 67 -3 53 c-4 65 -18
69 -84 24 -80 -55 -82 -54 -21 12 62 68 69 94 24 99 -24 3 -38 -7 -85 -56z
m-11 -185 c15 -12 34 -38 44 -57 l17 -35 -40 42 c-23 23 -50 44 -62 48 -11 3
-20 11 -20 16 0 16 34 9 61 -14z m-101 -264 c47 -23 119 -57 161 -77 42 -20
100 -57 128 -82 43 -38 51 -51 51 -80 0 -37 -38 -136 -115 -297 -41 -85 -50
-98 -68 -93 -46 12 -44 14 -270 -459 -55 -115 -175 -385 -267 -600 -187 -436
-257 -590 -353 -780 -169 -337 -249 -562 -298 -835 l-19 -105 5 85 c4 83 53
297 95 416 10 30 15 54 11 54 -36 0 -228 -186 -291 -282 -53 -81 -73 -91 -27
-13 46 78 143 183 243 261 82 66 88 73 135 171 27 56 49 104 49 106 0 2 50
107 111 232 61 126 138 292 170 369 33 78 83 192 111 253 l50 113 -14 44 c-44
133 -164 283 -293 367 -170 111 -267 146 -430 156 -172 10 -309 -28 -440 -122
-110 -78 -165 -172 -189 -323 -16 -101 -18 -106 -80 -195 -108 -154 -130 -236
-131 -479 0 -201 0 -201 131 -269 49 -25 89 -50 89 -55 -2 -50 -21 -180 -40
-269 -13 -60 -27 -125 -30 -143 -4 -18 -9 -31 -12 -29 -2 3 4 77 15 164 12 87
23 184 27 215 l6 57 -73 35 c-138 66 -155 107 -138 344 17 245 44 330 145 457
30 38 55 71 55 73 0 3 7 48 16 101 34 201 118 309 309 404 100 49 186 65 351
67 7 0 56 64 110 143 54 78 147 211 205 295 112 159 116 170 77 212 l-20 21
64 78 c154 189 225 270 246 280 41 20 95 12 257 -40 154 -49 305 -75 305 -53
0 5 -17 18 -37 29 -40 21 -184 112 -193 122 -6 7 -9 9 100 -44z m-2281 -2760
c-8 -10 -48 -53 -89 -96 -88 -91 -103 -117 -34 -60 58 48 127 90 208 126 98
45 74 22 -36 -34 -87 -44 -118 -67 -196 -145 -53 -53 -90 -83 -86 -70 23 73
86 162 173 243 55 52 87 71 60 36z m1096 -103 c-17 -12 -84 -53 -150 -92 -183
-108 -327 -206 -471 -322 -343 -276 -646 -676 -744 -981 -18 -55 -35 -107 -38
-115 -13 -36 -23 121 -19 290 6 220 23 296 94 432 66 125 228 337 418 545 27
30 80 77 117 104 l68 49 -94 -93 c-142 -141 -159 -192 -76 -235 38 -20 55 -23
111 -18 37 2 82 11 100 19 19 8 101 64 183 126 171 128 224 162 385 247 115
61 173 83 116 44z m-725 6 c0 -2 -24 -10 -52 -16 -65 -16 -270 -102 -320 -135
-52 -35 -59 -31 -12 6 51 40 205 115 274 133 53 14 110 20 110 12z m-435 -258
c-27 -5 -64 -20 -82 -34 -69 -53 -187 -249 -242 -404 -46 -126 -65 -265 -65
-470 0 -142 -2 -163 -8 -110 -5 36 -7 135 -4 220 7 232 48 375 165 583 58 102
139 203 175 217 12 5 41 9 66 8 l45 0 -50 -10z m1045 -138 c0 -6 -35 -10 -86
-10 -78 0 -85 -2 -79 -17 34 -85 39 -104 29 -121 -9 -15 -67 -60 -299 -231
-204 -150 -522 -441 -684 -626 l-53 -60 42 55 c73 97 285 314 422 432 120 104
380 305 499 385 74 51 74 52 41 132 l-30 71 99 0 c59 0 99 -4 99 -10z m-1310
-1608 c0 -38 -27 -74 -53 -70 -11 2 -22 8 -24 14 -2 7 6 10 21 7 21 -4 28 0
36 22 6 15 8 37 4 48 -4 13 -2 17 5 13 6 -4 11 -19 11 -34z m-53 -893 c-2 -14
-8 -14 -65 -1 -58 12 -63 16 -58 35 3 12 23 105 43 206 l37 183 23 -203 c13
-112 22 -211 20 -220z m89 -277 c87 -192 180 -230 574 -233 l195 -2 -125 -10
c-143 -11 -363 3 -447 28 -103 31 -172 108 -228 254 -25 66 -34 109 -13 61 7
-14 26 -58 44 -98z m1617 -7439 c18 -9 50 -22 72 -29 l40 -13 -33 0 c-36 -1
-94 22 -113 45 -15 18 -5 18 34 -3z"/>
</g>
</svg>
