<?xml version="1.0" standalone="no"?>
<!DOCTYPE svg PUBLIC "-//W3C//DTD SVG 20010904//EN"
 "http://www.w3.org/TR/2001/REC-SVG-20010904/DTD/svg10.dtd">
<svg version="1.0" xmlns="http://www.w3.org/2000/svg"
 width="1024.000000pt" height="1536.000000pt" viewBox="0 0 1024.000000 1536.000000"
 preserveAspectRatio="xMidYMid meet">
<metadata>
Created by potrace 1.16, written by Peter Selinger 2001-2019
</metadata>
<g transform="translate(0.000000,1536.000000) scale(0.100000,-0.100000)"
fill="#000000" stroke="none">
<path d="M5142 14872 c-15 -15 -20 -48 -30 -190 -11 -174 -20 -209 -60 -245
-21 -19 -41 -23 -320 -57 -1189 -146 -2239 -740 -2990 -1692 -73 -93 -192
-269 -192 -285 0 -16 16 -17 26 -2 14 23 136 69 226 86 133 24 481 24 637 -1
180 -28 291 -67 340 -120 l24 -26 31 19 c223 138 1047 194 1606 110 152 -23
301 -67 335 -99 l22 -21 51 35 c37 25 80 41 159 59 59 14 108 25 109 24 1 -1
5 -60 8 -132 l7 -130 -61 -43 c-68 -47 -129 -132 -150 -206 -8 -28 -11 -80 -8
-136 4 -86 7 -96 57 -194 62 -122 62 -129 -15 -223 -66 -80 -84 -131 -61 -167
10 -14 28 -26 44 -28 26 -3 27 -5 24 -61 -2 -44 3 -70 22 -111 14 -30 28 -68
32 -85 4 -18 15 -37 26 -44 15 -9 19 -24 19 -72 0 -48 5 -68 26 -99 39 -56 43
-83 35 -213 -6 -89 -13 -126 -26 -147 -13 -20 -56 -46 -139 -85 -146 -70 -176
-94 -216 -174 -43 -88 -65 -190 -99 -447 -17 -124 -38 -270 -47 -325 -12 -69
-18 -159 -18 -292 l-1 -193 -63 0 c-81 0 -118 -19 -143 -73 -10 -23 -19 -49
-19 -58 0 -9 -9 -19 -19 -22 -48 -12 -74 -106 -50 -177 9 -26 9 -34 -2 -41
-39 -24 -117 7 -142 58 -33 65 -26 168 17 292 18 50 21 114 6 142 -15 27 -79
26 -108 -1 -74 -70 -112 -263 -81 -412 33 -155 146 -252 273 -235 l44 6 22
-67 c34 -105 89 -202 150 -264 47 -46 68 -60 124 -77 37 -12 73 -18 79 -14 15
9 2 -160 -23 -292 -12 -60 -46 -217 -76 -348 -77 -335 -76 -319 -25 -367 22
-21 58 -44 80 -51 l38 -11 6 -252 c8 -350 42 -617 133 -1066 54 -262 53 -271
-5 -455 -48 -148 -128 -464 -165 -648 -27 -133 -26 -155 11 -175 14 -8 15 -18
4 -88 -6 -44 -13 -180 -15 -304 -5 -261 -11 -287 -134 -682 -67 -212 -106
-352 -212 -753 -102 -388 -227 -747 -323 -928 -28 -54 -80 -133 -113 -175
-126 -158 -422 -422 -558 -498 -65 -36 -146 -61 -270 -84 -182 -34 -216 -53
-204 -116 8 -45 146 -116 364 -190 261 -88 363 -70 668 114 174 104 217 112
236 41 8 -30 7 -62 -6 -136 -18 -108 -12 -137 32 -153 40 -15 89 -12 106 8 9
9 25 43 37 74 32 88 87 192 164 313 82 126 116 204 117 258 0 21 -16 102 -36
179 -31 121 -36 152 -31 214 12 154 103 359 342 762 181 307 229 395 289 528
129 289 191 556 216 919 15 228 40 346 96 457 45 90 94 109 173 69 46 -24 83
-65 160 -179 33 -48 98 -136 146 -197 78 -100 103 -144 270 -480 101 -203 238
-467 305 -585 421 -745 551 -1062 511 -1251 -11 -51 -68 -256 -132 -471 -41
-135 -67 -166 -209 -245 -63 -35 -127 -75 -142 -90 -57 -55 -75 -135 -37 -169
18 -17 41 -19 179 -22 86 -2 211 1 276 7 260 22 284 45 446 410 73 164 119
238 152 247 60 15 79 -15 121 -189 31 -127 44 -147 94 -147 22 0 48 8 60 18
l22 17 -9 350 c-8 332 -10 353 -31 402 -27 61 -94 127 -202 200 -105 71 -171
147 -224 258 -67 139 -148 395 -225 708 -155 633 -247 882 -405 1087 -36 47
-88 114 -116 150 -46 60 -127 212 -144 269 -6 18 -4 23 7 19 21 -8 164 18 233
43 107 39 165 87 165 136 0 13 -24 81 -54 153 -108 254 -193 544 -216 730 -24
196 -13 329 55 680 24 124 48 269 54 322 21 189 12 410 -25 609 -6 36 -5 37
27 44 51 11 86 32 92 55 11 44 -63 286 -221 716 -172 467 -176 522 -75 854 20
63 45 153 58 200 l22 85 31 -100 c29 -94 104 -348 208 -705 53 -182 202 -765
238 -930 13 -63 37 -182 51 -265 15 -82 31 -157 36 -167 14 -26 48 -42 104
-48 46 -5 50 -7 53 -34 2 -16 -4 -67 -13 -115 -22 -106 -16 -195 20 -311 14
-47 41 -146 61 -220 51 -191 79 -228 141 -185 34 24 36 69 13 225 -11 78 -19
144 -17 146 9 9 57 -197 63 -267 6 -64 3 -85 -20 -153 -30 -87 -27 -121 7
-110 40 12 168 107 204 150 82 100 130 366 88 485 -9 24 -51 104 -94 179 -110
188 -119 230 -65 312 14 22 24 52 24 73 0 57 -53 305 -146 677 -47 189 -101
413 -120 498 -265 1169 -334 1485 -334 1538 0 8 16 12 46 12 63 0 117 17 156
50 l32 27 -48 7 c-118 18 -168 52 -191 130 -21 69 -19 136 6 218 18 58 21 86
16 157 -3 48 -12 103 -20 122 -18 42 -35 119 -48 222 -24 191 -74 280 -265
478 -154 158 -216 243 -239 324 -8 27 -28 145 -45 260 -32 218 -56 329 -91
418 -57 146 -204 313 -331 375 -118 58 -212 75 -368 69 -145 -5 -242 -28 -384
-87 -39 -17 -71 -28 -72 -27 -4 4 -23 231 -20 234 1 2 72 8 157 14 171 13 554
7 689 -11 207 -27 399 -78 468 -125 47 -32 65 -31 110 4 46 35 92 53 219 85
297 75 745 111 1083 87 327 -23 528 -64 648 -130 28 -16 52 -25 52 -20 0 54
-239 377 -442 599 -405 443 -847 778 -1333 1011 -434 208 -881 335 -1371 389
-104 12 -202 26 -217 32 -47 18 -59 56 -68 227 -10 191 -15 218 -39 231 -25
13 -27 13 -48 -8z m1644 -4066 c59 -53 106 -121 127 -181 19 -54 30 -135 19
-135 -5 0 -26 27 -47 61 -21 34 -60 91 -88 127 -52 68 -154 218 -177 261 -13
25 38 -16 166 -133z m-1364 -148 c17 -141 -7 -187 -126 -244 -100 -48 -100
-48 -93 39 4 39 10 113 13 164 l7 92 36 6 c20 4 59 17 86 30 28 12 54 19 58
15 4 -4 13 -50 19 -102z m860 -243 c39 -19 63 -35 54 -35 -50 0 -174 88 -203
144 -12 24 -6 20 31 -21 31 -34 71 -64 118 -88z m-879 -72 c-8 -21 -37 -78
-63 -128 -58 -108 -82 -175 -78 -218 3 -29 8 -33 48 -44 85 -22 263 -11 380
23 22 7 18 0 -24 -47 -63 -70 -220 -307 -285 -429 -69 -131 -141 -303 -190
-454 -46 -139 -101 -357 -101 -395 0 -53 -18 -2 -39 108 -32 173 -44 337 -38
526 6 179 18 252 66 394 33 97 175 423 229 521 45 84 102 180 107 180 2 0 -3
-17 -12 -37z m1645 -347 l-23 -71 -3 44 c-3 40 19 162 36 201 4 8 8 -12 10
-44 2 -42 -4 -80 -20 -130z m-2343 -1370 c19 -77 34 -141 31 -143 -10 -10 -77
244 -75 286 1 24 5 9 44 -143z"/>
</g>
</svg>
