<?xml version="1.0" standalone="no"?>
<!DOCTYPE svg PUBLIC "-//W3C//DTD SVG 20010904//EN"
 "http://www.w3.org/TR/2001/REC-SVG-20010904/DTD/svg10.dtd">
<svg version="1.0" xmlns="http://www.w3.org/2000/svg"
 width="1024.000000pt" height="1536.000000pt" viewBox="0 0 1024.000000 1536.000000"
 preserveAspectRatio="xMidYMid meet">
<metadata>
Created by potrace 1.16, written by Peter Selinger 2001-2019
</metadata>
<g transform="translate(0.000000,1536.000000) scale(0.100000,-0.100000)"
fill="#000000" stroke="none">
<path d="M5185 14394 c-11 -2 -47 -9 -80 -16 -56 -10 -249 -83 -341 -129 -113
-56 -247 -227 -298 -379 -56 -167 -46 -316 27 -418 47 -65 43 -119 -18 -236
-63 -122 -61 -143 20 -206 l60 -47 17 -88 c10 -49 22 -91 26 -94 5 -3 12 -31
15 -62 9 -98 53 -160 137 -198 66 -30 218 -29 316 3 18 5 23 0 33 -34 19 -63
24 -161 12 -207 -14 -51 -106 -155 -163 -184 -21 -11 -82 -31 -136 -45 -217
-56 -269 -80 -334 -152 -51 -56 -68 -93 -163 -348 -86 -228 -119 -304 -134
-304 -22 0 -87 156 -146 350 -9 30 -59 145 -110 255 -52 110 -104 227 -116
260 -28 75 -45 102 -70 110 -54 17 -65 -73 -24 -189 13 -39 23 -71 21 -73 -7
-7 -60 84 -92 160 -42 97 -49 107 -80 107 -43 0 -58 -74 -30 -152 15 -43 8
-48 -20 -17 -10 11 -41 37 -69 57 -27 20 -77 59 -110 85 -100 81 -148 101
-235 102 -158 0 -204 -61 -112 -149 l47 -47 -45 26 c-25 13 -57 25 -72 25 -25
0 -28 -4 -28 -32 0 -27 15 -46 103 -131 91 -88 97 -97 59 -77 -25 12 -57 20
-75 18 -52 -5 -46 -33 30 -139 37 -52 112 -164 166 -249 88 -137 129 -193 265
-363 78 -97 87 -148 42 -252 -40 -93 -45 -162 -26 -365 38 -405 86 -673 146
-808 44 -99 106 -136 219 -130 171 8 335 139 450 357 l38 73 12 -76 c14 -97
14 -310 0 -413 -10 -77 -57 -271 -164 -678 -71 -272 -136 -584 -137 -660 -2
-70 17 -106 63 -125 l29 -13 -7 -96 c-13 -155 -9 -968 5 -1161 7 -96 22 -272
32 -390 27 -307 39 -486 50 -803 11 -295 15 -320 63 -351 12 -9 78 -29 147
-45 158 -37 177 -45 185 -73 4 -13 52 -122 107 -242 55 -121 120 -271 145
-335 25 -64 70 -174 100 -246 l56 -130 -7 -210 c-23 -773 -114 -1596 -221
-2006 -29 -112 -36 -130 -126 -316 -237 -489 -342 -616 -621 -747 -63 -30
-129 -67 -147 -82 -56 -47 -71 -110 -37 -153 38 -48 216 -77 425 -68 303 12
434 68 626 264 55 57 106 103 112 103 7 0 22 -32 34 -72 27 -87 54 -118 104
-118 47 0 88 22 118 62 38 51 105 190 137 286 56 167 51 261 -27 507 -105 332
-106 386 -14 663 56 169 260 754 264 759 6 5 275 -762 303 -862 66 -240 69
-313 20 -507 -39 -156 -101 -320 -154 -407 -55 -91 -139 -170 -255 -239 -132
-79 -167 -116 -167 -180 0 -48 33 -79 98 -93 92 -21 421 -18 502 5 171 47 244
116 363 339 46 86 85 147 93 147 8 0 23 -19 33 -42 37 -85 103 -115 164 -75
42 27 57 70 67 185 5 59 14 139 20 177 6 39 11 105 11 147 1 92 -15 132 -100
257 -106 157 -181 327 -226 516 -14 55 -47 260 -76 455 -104 727 -197 1076
-366 1375 -30 55 -68 123 -83 150 -48 84 -71 170 -77 279 -6 117 15 274 43
333 30 60 65 76 218 103 231 39 232 40 246 381 22 526 50 879 109 1379 36 298
44 465 38 798 -3 175 -8 324 -12 334 -4 11 0 18 14 23 38 12 54 61 47 138 -14
147 -112 540 -241 962 -104 342 -110 397 -65 574 20 79 133 391 280 771 199
517 238 633 266 797 24 139 16 322 -19 428 -34 104 -88 194 -158 267 -32 32
-54 58 -50 58 13 0 41 177 41 261 0 125 -21 195 -119 399 -137 284 -187 448
-236 769 -36 236 -65 346 -126 471 -46 94 -62 115 -148 200 -166 164 -304 220
-556 226 -82 1 -159 1 -170 -2z m-621 -499 c-14 -37 -32 -116 -41 -174 -14
-90 -18 -101 -25 -76 -18 63 18 219 70 303 24 37 23 20 -4 -53z m1826 -1252
c62 -101 101 -227 99 -312 l-1 -36 -9 40 c-21 88 -43 153 -76 225 -73 156 -85
187 -64 160 11 -13 34 -48 51 -77z m-500 -449 c17 -15 37 -39 45 -54 19 -36
23 -31 -224 -290 -221 -233 -340 -371 -473 -550 -87 -117 -238 -345 -319 -479
-50 -84 -70 -102 -96 -85 -31 19 -37 79 -24 234 7 80 23 290 36 467 20 274 27
332 48 391 28 79 74 152 151 237 l55 60 -35 -82 c-52 -121 -68 -219 -53 -317
15 -101 39 -132 92 -122 28 5 45 18 70 51 32 43 49 56 222 162 124 75 207 146
337 285 61 65 117 118 124 118 7 0 26 -12 44 -26z m-1925 -1314 c3 -11 15 -20
26 -20 10 0 19 -4 19 -8 0 -11 -58 -102 -65 -102 -3 0 -5 34 -5 75 0 72 12 97
25 55z"/>
</g>
</svg>
