<?xml version="1.0" standalone="no"?>
<!DOCTYPE svg PUBLIC "-//W3C//DTD SVG 20010904//EN"
 "http://www.w3.org/TR/2001/REC-SVG-20010904/DTD/svg10.dtd">
<svg version="1.0" xmlns="http://www.w3.org/2000/svg"
 width="1024.000000pt" height="1024.000000pt" viewBox="0 0 1024.000000 1024.000000"
 preserveAspectRatio="xMidYMid meet">
<metadata>
Created by potrace 1.16, written by Peter Selinger 2001-2019
</metadata>
<g transform="translate(0.000000,1024.000000) scale(0.100000,-0.100000)"
fill="#000000" stroke="none">
<path d="M5044 9835 c-68 -15 -161 -58 -244 -115 -185 -125 -319 -331 -320
-490 0 -96 15 -138 66 -186 63 -59 97 -159 85 -247 -5 -34 -6 -68 -4 -74 3 -7
23 -18 45 -25 29 -9 48 -24 71 -57 48 -70 144 -187 175 -213 l28 -22 -32 -85
c-30 -79 -35 -86 -96 -131 -123 -90 -157 -151 -242 -430 -31 -102 -56 -191
-56 -197 0 -7 21 -21 46 -32 65 -29 54 -46 -32 -47 -51 0 -92 -8 -159 -32 -49
-18 -106 -35 -126 -38 -36 -6 -38 -5 -111 87 -41 52 -168 219 -283 372 -114
153 -213 281 -220 283 -7 3 -70 -17 -141 -44 -164 -63 -278 -91 -400 -100
l-97 -7 129 -164 c71 -90 182 -218 246 -285 64 -67 113 -123 107 -124 -5 -2
-16 -17 -25 -33 -17 -33 -11 -50 31 -89 24 -22 26 -29 20 -72 -6 -41 -3 -52
18 -80 14 -18 28 -45 32 -60 17 -66 116 -123 249 -141 l84 -11 6 -51 c3 -27 6
-69 6 -92 0 -33 5 -45 21 -54 23 -12 358 -101 624 -166 83 -20 151 -37 152
-38 1 -1 -29 -147 -67 -326 -39 -178 -78 -362 -88 -409 -10 -47 -17 -91 -14
-98 2 -7 15 -18 29 -23 22 -8 24 -14 19 -42 -3 -17 -9 -160 -12 -317 -8 -360
2 -515 76 -1220 11 -102 27 -257 36 -345 9 -92 22 -170 30 -182 16 -26 71 -56
130 -72 41 -11 41 -12 54 -74 7 -34 23 -111 36 -172 13 -60 31 -180 39 -265
18 -182 63 -525 104 -800 53 -348 81 -603 81 -731 0 -103 -34 -213 -107 -344
-116 -208 -147 -247 -291 -366 -167 -139 -210 -184 -218 -226 -4 -19 -3 -37 1
-41 3 -4 106 -7 228 -7 292 0 322 8 422 110 39 40 93 90 121 113 l51 42 9 -73
9 -72 39 -3 c46 -4 93 14 100 37 2 9 10 50 16 91 7 41 26 109 42 150 37 93 35
159 -10 270 -56 140 -67 219 -67 475 0 194 4 264 28 445 15 118 31 260 36 315
l7 100 91 -185 c163 -332 289 -644 319 -790 22 -110 15 -252 -20 -370 -13 -47
-30 -114 -36 -149 -16 -91 -34 -130 -123 -269 -86 -135 -107 -178 -107 -218
l0 -26 158 5 c115 3 178 10 237 26 74 19 84 25 135 78 42 45 59 72 73 118 10
33 30 91 45 128 l26 69 70 -4 71 -3 11 105 c6 58 17 126 24 152 16 61 7 118
-29 194 -28 59 -52 85 -123 137 -49 36 -114 146 -133 227 -17 76 -87 510 -110
685 -36 286 -101 459 -288 770 -104 173 -133 233 -140 292 l-5 41 61 7 c84 10
158 37 179 66 14 19 29 112 68 419 27 217 70 544 95 725 62 449 79 633 71 780
-3 66 -10 135 -15 152 -8 29 -7 35 15 52 13 10 24 29 24 40 0 36 -55 256 -103
411 -36 113 -107 372 -107 385 0 2 20 6 45 9 30 5 51 15 63 31 29 36 146 397
191 585 107 450 135 706 95 879 -28 126 -81 183 -212 231 -35 13 -70 33 -77
44 -8 12 -36 75 -64 141 -27 66 -72 169 -101 229 -28 59 -60 143 -71 185 -11
42 -31 110 -44 151 -14 41 -34 115 -45 163 -71 300 -203 522 -360 606 -106 57
-247 74 -376 46z m671 -1400 l28 -21 -12 -79 c-10 -71 -59 -284 -67 -293 -1
-2 -45 21 -98 52 -52 31 -99 56 -104 56 -20 0 -369 -584 -431 -720 l-16 -35
-3 38 c-3 33 15 371 35 660 l6 88 -77 -46 c-42 -26 -79 -45 -82 -43 -5 6 244
332 258 337 6 2 8 -50 4 -150 -4 -85 -3 -203 1 -263 l8 -110 65 100 c37 57
105 141 161 199 88 90 197 241 214 296 6 18 9 17 44 -13 20 -18 50 -42 66 -53z
m-1389 -1098 c0 -1 11 -18 24 -37 49 -71 96 -122 130 -140 19 -10 45 -29 58
-43 19 -20 20 -26 9 -35 -11 -9 -40 15 -145 122 -73 74 -132 137 -132 141 0 6
53 -2 56 -8z"/>
</g>
</svg>
