<?xml version="1.0" standalone="no"?>
<!DOCTYPE svg PUBLIC "-//W3C//DTD SVG 20010904//EN"
 "http://www.w3.org/TR/2001/REC-SVG-20010904/DTD/svg10.dtd">
<svg version="1.0" xmlns="http://www.w3.org/2000/svg"
 width="1024.000000pt" height="1536.000000pt" viewBox="0 0 1024.000000 1536.000000"
 preserveAspectRatio="xMidYMid meet">
<metadata>
Created by potrace 1.16, written by Peter Selinger 2001-2019
</metadata>
<g transform="translate(0.000000,1536.000000) scale(0.100000,-0.100000)"
fill="#000000" stroke="none">
<path d="M4900 14594 c-253 -67 -590 -345 -720 -595 -45 -88 -73 -191 -64
-240 13 -68 69 -146 116 -161 8 -3 13 -37 16 -109 7 -189 -37 -315 -183 -530
-122 -178 -147 -254 -146 -444 0 -139 16 -210 67 -303 l34 -63 -31 -17 c-151
-82 -249 -172 -306 -278 -64 -120 -137 -382 -223 -799 -135 -659 -248 -966
-540 -1465 -161 -275 -337 -641 -426 -889 -29 -79 -33 -98 -25 -128 9 -30 6
-43 -18 -92 -37 -72 -161 -260 -218 -330 -80 -98 -88 -122 -86 -241 4 -268 67
-432 205 -532 104 -76 135 -69 105 26 -16 51 -16 51 3 26 25 -33 42 -51 67
-71 20 -16 21 -16 33 6 8 14 10 37 6 58 -4 24 -3 36 6 39 9 3 6 29 -12 102
l-23 98 19 56 c10 31 43 92 73 136 66 97 126 223 181 381 22 66 43 121 44 123
2 2 21 -8 41 -23 49 -33 106 -49 141 -41 15 4 42 22 59 40 37 39 616 1194 705
1406 34 80 75 185 93 234 36 105 38 103 58 -75 25 -229 14 -324 -131 -1139
-59 -330 -67 -442 -34 -487 11 -15 34 -35 51 -43 l30 -15 6 -200 c12 -364 68
-796 162 -1249 19 -89 55 -260 80 -381 53 -255 71 -396 81 -630 4 -96 12 -183
19 -201 17 -42 68 -64 145 -64 l62 0 -6 -72 c-4 -40 -11 -181 -16 -313 -12
-318 -25 -406 -125 -860 -15 -66 -47 -212 -72 -325 -42 -192 -102 -432 -208
-835 -25 -93 -72 -282 -106 -420 -129 -531 -229 -746 -454 -970 -115 -116
-269 -224 -389 -274 -43 -18 -137 -46 -209 -62 -158 -36 -206 -56 -238 -100
-51 -71 -20 -157 78 -219 71 -45 248 -116 379 -151 95 -26 138 -33 214 -33
115 0 150 12 279 96 77 50 105 62 146 66 l50 4 0 -65 c0 -73 18 -108 73 -140
44 -26 91 -14 147 35 38 33 62 72 130 209 47 95 89 194 96 227 8 38 10 117 6
242 -8 285 15 427 109 686 67 187 127 315 391 839 195 387 302 654 367 915 57
231 76 364 96 680 11 184 20 250 31 250 5 0 9 -4 9 -10 0 -9 100 -223 247
-530 44 -91 171 -340 282 -554 234 -449 292 -568 367 -754 73 -181 95 -266
101 -395 7 -127 -5 -194 -54 -327 -89 -240 -161 -347 -355 -530 -148 -140
-238 -267 -238 -335 0 -36 5 -48 24 -60 57 -38 410 -44 571 -10 97 20 183 65
238 124 30 32 70 98 115 187 70 139 130 232 164 253 15 10 23 5 51 -25 46 -53
106 -78 155 -64 75 20 81 37 108 303 29 296 15 368 -110 536 -136 183 -216
333 -300 558 -60 161 -96 303 -157 623 -57 302 -83 408 -135 547 -54 146 -124
278 -221 421 -204 298 -225 331 -348 546 l-29 49 43 -7 c57 -9 295 11 408 34
151 31 271 97 309 171 22 44 17 94 -26 239 -116 390 -135 498 -127 720 4 86
15 204 27 265 63 343 80 518 80 836 0 230 -8 367 -32 517 l-11 73 36 30 c19
16 38 42 42 58 10 46 -24 166 -164 592 -168 511 -246 760 -261 833 -14 67 -7
178 16 291 22 102 54 324 54 370 0 23 4 35 9 30 18 -20 305 -820 374 -1045 56
-182 109 -378 205 -760 95 -374 120 -455 155 -496 30 -35 90 -42 140 -16 45
24 46 22 17 -93 -11 -44 -23 -134 -27 -201 l-6 -120 48 -140 c29 -81 51 -166
54 -204 5 -56 9 -65 27 -68 14 -2 32 9 52 32 38 44 56 120 57 243 0 51 3 93 6
93 14 0 89 -168 104 -230 26 -114 21 -162 -30 -270 -44 -92 -63 -155 -52 -166
9 -10 130 82 181 136 85 91 157 290 159 440 0 75 -4 98 -37 190 -79 217 -145
416 -151 451 -6 35 -5 37 32 55 57 28 70 63 51 138 -16 64 -195 686 -375 1301
-156 534 -209 735 -293 1125 -28 129 -71 296 -95 370 -58 178 -62 195 -79 335
-25 204 -87 374 -173 474 -19 23 -32 41 -29 41 3 0 30 -17 58 -37 120 -83 206
-188 248 -301 27 -71 42 -204 30 -257 -5 -22 -7 -41 -5 -43 8 -9 65 30 102 71
79 85 110 187 100 326 -13 195 -131 370 -372 553 -55 42 -113 90 -130 108 -30
32 -30 32 -5 25 14 -4 82 -29 151 -56 306 -119 433 -253 457 -482 l8 -72 22
35 c84 134 32 349 -122 505 -91 91 -201 164 -398 261 -174 85 -287 167 -350
253 -21 28 -38 53 -38 55 0 3 28 -14 63 -38 105 -74 222 -125 457 -203 463
-152 596 -257 608 -480 2 -46 9 -83 14 -83 5 0 18 21 30 47 41 93 8 224 -84
328 -92 104 -243 194 -508 300 -248 100 -392 182 -508 290 -123 113 -196 242
-287 505 -157 452 -298 665 -510 773 -110 55 -174 64 -290 41 l-30 -6 23 17
c31 23 28 32 -15 44 -52 15 -147 12 -213 -5z m-841 -1842 c-56 -222 -46 -413
31 -537 28 -46 25 -55 -6 -14 -79 105 -106 223 -85 371 14 95 30 159 57 223
23 56 24 39 3 -43z m621 -453 c-5 -19 -17 -44 -25 -54 -11 -15 -10 -5 5 35 11
30 20 57 20 59 0 2 2 2 5 0 2 -3 0 -21 -5 -40z m4 -486 c121 -36 246 -47 367
-33 56 6 113 16 127 21 13 5 27 8 29 5 2 -2 -56 -122 -129 -267 -193 -380
-311 -689 -380 -991 -18 -82 -35 -148 -39 -148 -7 0 -45 164 -63 275 -42 252
-50 463 -35 848 11 290 15 327 28 321 9 -4 51 -18 95 -31z m-2250 -3907 c-8
-32 -19 -102 -23 -155 l-8 -96 -2 101 c-1 95 6 139 32 191 17 36 17 22 1 -41z"/>
</g>
</svg>
