<?xml version="1.0" standalone="no"?>
<!DOCTYPE svg PUBLIC "-//W3C//DTD SVG 20010904//EN"
 "http://www.w3.org/TR/2001/REC-SVG-20010904/DTD/svg10.dtd">
<svg version="1.0" xmlns="http://www.w3.org/2000/svg"
 width="1024.000000pt" height="1536.000000pt" viewBox="0 0 1024.000000 1536.000000"
 preserveAspectRatio="xMidYMid meet">
<metadata>
Created by potrace 1.16, written by Peter Selinger 2001-2019
</metadata>
<g transform="translate(0.000000,1536.000000) scale(0.100000,-0.100000)"
fill="#000000" stroke="none">
<path d="M4181 14189 c-91 -12 -419 -113 -564 -172 -142 -59 -208 -100 -273
-170 -158 -170 -192 -486 -72 -672 31 -47 39 -44 21 8 -21 58 -12 241 15 317
l20 55 -5 -150 c-6 -148 -5 -151 26 -243 38 -113 38 -144 6 -225 -52 -128 -69
-245 -43 -302 6 -14 33 -41 59 -60 39 -27 50 -43 58 -77 6 -24 19 -70 30 -103
11 -33 27 -100 36 -149 18 -98 31 -130 67 -163 47 -44 71 -46 170 -13 105 35
175 39 208 12 27 -22 60 -104 60 -149 0 -19 -9 -42 -22 -57 -13 -14 -127 -77
-254 -141 -140 -70 -253 -134 -290 -163 -77 -62 -114 -133 -149 -288 -112
-494 -389 -1382 -450 -1443 -8 -8 -29 -20 -47 -25 -23 -8 -49 -34 -89 -86
-116 -155 -250 -265 -610 -503 -249 -164 -326 -227 -336 -278 -8 -44 -37 -58
-181 -90 -171 -39 -235 -72 -343 -179 -71 -70 -94 -101 -127 -170 -85 -180
-83 -317 7 -377 49 -33 87 -30 126 11 l31 34 12 -45 c25 -91 95 -122 133 -58
17 29 25 33 47 29 36 -7 70 20 139 113 30 41 82 96 116 124 94 75 259 189 283
195 12 3 41 -6 69 -20 105 -56 89 -64 740 375 94 63 219 146 280 184 174 111
287 229 364 382 36 72 61 160 61 215 0 76 16 35 38 -94 47 -281 50 -413 18
-851 -27 -375 -41 -621 -41 -742 0 -142 16 -192 70 -221 41 -22 52 -45 67
-142 17 -106 16 -579 0 -712 -39 -305 -125 -676 -232 -991 -77 -227 -88 -312
-45 -354 13 -14 33 -25 45 -25 11 0 20 -2 20 -4 0 -2 -16 -51 -34 -108 -39
-114 -76 -303 -76 -382 0 -109 -29 -243 -154 -726 -428 -1642 -515 -1882 -829
-2285 -73 -94 -240 -265 -349 -357 -101 -84 -189 -128 -373 -183 -196 -59
-274 -98 -298 -147 -49 -101 45 -167 330 -230 77 -17 132 -22 258 -22 216 -1
228 3 625 182 l155 71 3 -32 c2 -18 -1 -62 -8 -99 -10 -60 -10 -71 8 -111 16
-35 28 -47 63 -61 100 -40 180 9 233 145 16 41 72 164 124 274 117 244 119
256 71 412 -31 99 -34 119 -34 238 0 110 4 141 24 204 30 90 115 260 248 491
333 580 484 895 576 1201 39 128 76 293 137 609 61 316 126 502 213 614 29 36
33 38 76 33 59 -7 248 18 318 42 50 17 55 17 60 2 48 -140 98 -223 193 -320
95 -96 191 -162 378 -258 211 -109 277 -156 552 -398 174 -153 385 -326 580
-475 510 -389 805 -692 892 -916 42 -110 115 -415 126 -534 21 -209 -6 -336
-120 -567 -83 -168 -92 -210 -55 -247 35 -35 71 -33 181 10 257 101 437 243
511 406 36 78 53 158 65 298 6 69 15 152 20 185 12 70 80 316 90 328 4 5 43
-25 86 -66 90 -86 133 -106 186 -84 43 18 59 38 65 84 7 52 -11 91 -92 198
-39 51 -90 138 -121 202 -38 81 -68 129 -106 169 -87 92 -145 118 -343 154
-188 33 -267 80 -421 250 -131 144 -236 283 -499 655 -180 255 -279 379 -405
506 -135 137 -238 217 -389 306 -148 87 -199 123 -273 191 -70 66 -156 189
-141 202 4 4 46 24 93 45 174 77 297 144 324 175 45 54 36 90 -51 184 -157
170 -298 421 -355 632 -30 114 -32 127 -32 309 -1 172 2 205 31 355 45 237 48
291 27 493 -20 203 -18 217 52 265 96 68 88 128 -68 476 -44 99 -110 249 -145
331 -35 83 -100 226 -144 318 -101 211 -124 272 -145 383 -23 123 -10 298 37
504 26 114 111 400 119 400 14 0 413 -414 502 -520 174 -209 226 -299 554
-958 167 -337 316 -642 330 -677 37 -93 62 -109 137 -90 16 4 33 3 41 -4 24
-20 46 -124 55 -262 10 -151 1 -124 139 -389 90 -171 152 -256 226 -307 54
-37 113 -44 140 -17 26 25 19 47 -35 114 -84 105 -133 188 -183 314 -27 67
-17 62 19 -10 41 -82 106 -169 220 -297 90 -101 134 -135 188 -144 64 -10 98
57 63 126 -8 15 -49 59 -92 97 -68 60 -154 170 -154 196 0 5 27 -20 60 -55 66
-71 222 -187 251 -187 27 0 43 41 34 87 -6 31 -26 57 -114 143 -59 58 -118
123 -130 144 -12 22 -17 35 -9 29 7 -5 38 -30 68 -54 90 -73 128 -93 145 -79
25 21 18 83 -18 152 -49 93 -271 415 -325 471 -26 27 -73 67 -105 88 l-57 40
21 41 c27 52 22 82 -29 196 -189 419 -271 606 -318 725 -57 144 -241 538 -321
687 -84 157 -176 283 -340 465 -49 55 -136 156 -193 225 -253 304 -314 414
-359 645 -35 175 -109 309 -215 388 -49 36 -23 28 59 -18 33 -18 90 -65 128
-103 85 -89 123 -166 137 -282 17 -134 32 -223 43 -244 8 -17 13 -14 53 25 25
24 59 72 76 107 28 57 32 73 32 155 0 110 -25 200 -81 296 -54 91 -153 194
-244 253 -44 28 -77 53 -75 55 8 8 136 -42 229 -90 253 -131 390 -327 375
-537 -4 -56 -3 -60 10 -44 8 11 28 48 45 84 27 56 32 79 35 161 5 107 -10 173
-58 269 -40 80 -114 174 -170 217 -27 21 -49 41 -50 45 0 4 24 -2 53 -13 240
-94 346 -203 371 -384 l12 -80 18 78 c14 57 17 104 14 179 -3 94 -7 108 -38
166 -74 139 -210 222 -555 341 -110 38 -229 82 -265 99 l-65 30 40 1 c104 2
388 -40 513 -75 199 -57 361 -170 415 -287 50 -110 47 -111 44 3 -2 94 -6 112
-35 173 -61 131 -206 246 -388 306 -111 37 -188 54 -401 86 -90 14 -186 30
-211 37 -49 12 -178 66 -171 72 5 4 397 -21 464 -29 206 -27 429 -103 550
-189 l30 -21 -23 32 c-63 89 -216 185 -388 242 -49 17 -179 48 -289 70 -227
46 -298 67 -405 121 -184 95 -283 223 -375 490 -76 217 -170 349 -324 453
-188 126 -443 186 -670 156z m-292 -3085 c58 -20 87 -25 123 -21 27 4 48 4 48
1 0 -2 -12 -28 -26 -56 -32 -64 -209 -502 -233 -578 l-18 -55 -7 135 c-10 180
12 600 32 600 3 0 40 -12 81 -26z"/>
</g>
</svg>
