<?xml version="1.0" standalone="no"?>
<!DOCTYPE svg PUBLIC "-//W3C//DTD SVG 20010904//EN"
 "http://www.w3.org/TR/2001/REC-SVG-20010904/DTD/svg10.dtd">
<svg version="1.0" xmlns="http://www.w3.org/2000/svg"
 width="1024.000000pt" height="1024.000000pt" viewBox="0 0 1024.000000 1024.000000"
 preserveAspectRatio="xMidYMid meet">
<metadata>
Created by potrace 1.16, written by Peter Selinger 2001-2019
</metadata>
<g transform="translate(0.000000,1024.000000) scale(0.100000,-0.100000)"
fill="#000000" stroke="none">
<path d="M4955 10006 c-132 -36 -221 -94 -316 -203 -128 -149 -259 -453 -306
-713 -35 -197 -30 -319 18 -397 20 -31 76 -79 84 -71 2 2 -8 28 -22 58 -19 39
-27 75 -29 125 l-3 70 13 -65 c21 -97 26 -110 62 -165 51 -78 122 -126 233
-159 68 -20 82 -20 75 -1 -5 12 2 11 37 -4 24 -11 63 -22 87 -26 l42 -7 0 -44
c0 -42 -2 -46 -36 -60 -19 -8 -53 -28 -74 -43 -22 -16 -81 -43 -132 -61 -174
-62 -423 -160 -488 -192 -95 -49 -92 -41 -190 -473 -193 -860 -237 -1031 -284
-1109 -20 -33 -36 -64 -36 -68 0 -5 -76 -182 -170 -393 -93 -211 -170 -386
-170 -389 0 -3 -20 -48 -45 -100 -50 -107 -51 -112 -30 -136 16 -18 7 -33
-117 -186 -86 -106 -127 -215 -128 -341 -1 -145 73 -319 126 -299 11 4 22 -1
31 -14 18 -25 34 -25 67 1 27 21 36 71 16 84 -21 13 -10 52 18 64 31 13 74 77
123 186 19 41 53 94 85 128 35 37 57 72 65 100 6 23 18 50 26 59 14 16 18 16
64 -7 27 -14 55 -25 64 -25 22 0 37 32 382 810 55 124 124 288 154 365 42 110
55 134 57 111 6 -46 -15 -211 -58 -456 -32 -188 -105 -652 -126 -806 l-5 -42
65 -31 c36 -17 71 -31 76 -31 6 0 10 -26 10 -57 0 -32 7 -101 15 -153 9 -52
18 -110 21 -129 20 -123 141 -509 306 -975 l99 -280 -31 -190 c-58 -363 -170
-966 -256 -1381 -2 -11 -15 -78 -30 -150 -26 -133 -52 -247 -105 -464 -33
-137 -34 -133 34 -151 20 -6 37 -13 37 -16 0 -18 -45 -86 -77 -118 -88 -86
-308 -216 -388 -229 -188 -31 -220 -42 -259 -87 -31 -38 -33 -78 -6 -112 31
-40 164 -103 336 -160 141 -47 169 -53 244 -53 83 0 87 1 175 50 50 28 93 52
98 53 4 2 5 -14 1 -37 -6 -38 -5 -41 22 -52 16 -6 55 -16 86 -22 90 -17 95
-12 168 159 l63 149 -6 145 c-4 80 -10 160 -13 178 l-6 32 44 0 c30 0 50 6 60
18 17 18 53 146 143 497 31 121 70 271 86 333 17 62 32 120 34 130 2 9 15 60
30 112 14 52 32 124 40 160 8 36 23 96 33 135 l18 70 129 -250 c70 -138 151
-295 180 -350 29 -55 87 -169 130 -253 87 -171 71 -159 170 -133 25 6 42 6 45
0 13 -20 -74 -327 -117 -414 -13 -27 -64 -90 -112 -140 -100 -103 -120 -131
-131 -178 -16 -73 31 -99 191 -105 185 -7 328 39 400 128 16 20 52 101 83 184
30 81 61 156 70 164 15 15 18 14 45 -16 36 -38 71 -42 117 -10 52 36 54 44 38
169 -33 263 -29 251 -142 391 l-54 67 21 27 c12 15 21 33 21 40 0 20 -346 795
-497 1114 -25 52 -81 173 -124 268 -43 95 -91 196 -105 224 -30 59 -34 41 41
208 116 260 292 702 353 890 74 228 102 349 115 500 11 122 14 135 32 139 42
8 75 41 75 75 0 92 -52 382 -134 745 -30 134 -65 304 -77 379 -20 127 -21 144
-9 276 l13 141 19 -44 c45 -108 130 -375 163 -521 2 -8 11 -40 19 -71 38 -140
150 -649 187 -844 30 -164 19 -149 101 -141 l71 7 -9 -53 c-14 -81 -9 -197 10
-252 9 -28 23 -83 31 -124 20 -104 51 -133 102 -97 28 20 33 66 16 158 -8 43
-13 83 -10 90 5 16 64 -88 78 -138 7 -26 9 -75 4 -140 -13 -184 -14 -180 17
-183 60 -7 145 117 199 290 28 92 30 108 24 187 -8 91 -48 214 -106 320 l-29
55 30 27 c29 27 29 27 15 76 -7 26 -23 95 -35 153 -12 58 -39 179 -61 270 -98
412 -202 838 -240 980 -82 312 -118 458 -143 586 -50 258 -132 544 -184 639
-23 43 -37 55 -94 83 -74 36 -325 133 -458 177 -104 34 -154 59 -245 122 -92
64 -98 90 -26 116 27 9 73 33 101 52 l52 35 -21 -36 c-12 -20 -19 -39 -16 -43
12 -12 159 74 216 126 134 125 169 318 103 578 -48 189 -112 382 -161 484 -47
99 -65 124 -132 190 -100 99 -166 132 -269 139 -42 2 -103 13 -134 23 -76 25
-180 23 -283 -5z m134 -2063 c83 -1 118 3 161 18 96 35 90 35 81 3 -5 -16 -38
-121 -74 -234 -81 -257 -135 -430 -152 -495 -7 -27 -27 -102 -44 -165 -18 -63
-49 -179 -69 -257 -20 -79 -39 -143 -42 -143 -11 0 -82 404 -101 570 -11 102
-7 559 7 706 l6 61 61 -31 c55 -28 69 -31 166 -33z m-1828 -3082 c-11 -27 -21
-59 -21 -70 0 -11 -5 -23 -12 -27 -18 -11 -1 73 24 118 30 52 35 39 9 -21z"/>
</g>
</svg>
