<?xml version="1.0" standalone="no"?>
<!DOCTYPE svg PUBLIC "-//W3C//DTD SVG 20010904//EN"
 "http://www.w3.org/TR/2001/REC-SVG-20010904/DTD/svg10.dtd">
<svg version="1.0" xmlns="http://www.w3.org/2000/svg"
 width="1024.000000pt" height="1536.000000pt" viewBox="0 0 1024.000000 1536.000000"
 preserveAspectRatio="xMidYMid meet">
<metadata>
Created by potrace 1.16, written by Peter Selinger 2001-2019
</metadata>
<g transform="translate(0.000000,1536.000000) scale(0.100000,-0.100000)"
fill="#000000" stroke="none">
<path d="M5211 14549 c-68 -12 -127 -38 -172 -76 -18 -16 -65 -42 -103 -57
-125 -49 -245 -150 -327 -274 -118 -180 -125 -367 -21 -567 l37 -69 -3 -131
c-2 -93 2 -146 13 -185 19 -69 19 -144 1 -290 -14 -112 -93 -550 -100 -557 -2
-2 -54 -17 -116 -34 -150 -39 -200 -76 -265 -200 -36 -68 -107 -293 -170 -539
-20 -80 -47 -179 -60 -220 -32 -100 -84 -247 -84 -239 -1 4 -15 60 -31 125
-17 66 -43 190 -60 277 -16 87 -34 166 -40 176 -5 10 -21 22 -36 25 l-27 7 7
147 c11 249 -16 371 -152 663 l-39 85 28 17 c16 9 29 25 29 35 0 38 -23 45
-149 40 l-119 -4 29 29 c31 30 45 67 35 92 -5 14 -9 14 -33 1 -16 -8 -51 -37
-79 -65 -38 -37 -59 -51 -80 -51 -16 0 -116 12 -222 26 -152 22 -197 25 -217
16 -27 -13 -33 -43 -11 -61 10 -8 395 -91 425 -91 10 0 -12 -294 -25 -325 -7
-18 -11 -42 -7 -52 3 -10 39 -62 79 -115 117 -157 199 -315 212 -410 4 -34 0
-43 -45 -95 -110 -127 -121 -185 -70 -369 20 -71 41 -147 47 -169 6 -22 29
-121 51 -220 64 -288 129 -508 180 -608 74 -144 201 -183 353 -108 125 61 245
226 371 512 30 68 55 120 55 114 0 -5 7 -62 16 -125 29 -218 15 -490 -38 -715
-11 -49 -43 -153 -70 -230 -41 -117 -47 -143 -37 -161 9 -18 5 -41 -24 -131
-77 -231 -187 -681 -187 -761 0 -33 6 -48 25 -66 l26 -24 -20 -138 c-56 -394
-63 -555 -68 -1627 -5 -1081 -10 -1002 65 -1034 20 -8 107 -31 192 -50 85 -19
158 -38 163 -42 8 -8 34 -126 77 -361 19 -105 37 -260 50 -425 11 -143 23
-291 26 -330 14 -170 123 -941 169 -1195 140 -778 152 -961 80 -1208 -101
-348 -210 -537 -390 -680 -189 -149 -235 -202 -235 -270 0 -75 78 -112 235
-112 165 0 317 37 431 106 90 54 112 80 166 194 45 95 149 250 168 250 4 0 11
-51 15 -112 4 -62 13 -128 21 -146 11 -27 18 -32 48 -32 36 0 61 17 70 48 3 9
15 85 26 167 12 83 33 200 47 260 45 201 32 292 -68 468 -45 80 -54 106 -77
221 -22 116 -25 157 -26 356 -1 253 4 336 40 665 14 127 28 290 31 364 7 158
0 165 106 -104 198 -502 265 -712 338 -1060 l40 -190 -1 -295 c-1 -327 -8
-383 -70 -555 -28 -78 -33 -107 -38 -211 -7 -192 27 -270 127 -293 122 -27
295 69 411 227 74 100 90 162 90 341 l0 148 24 -4 c47 -9 48 3 50 492 1 102
-1 114 -28 168 -16 31 -56 89 -89 128 -57 68 -86 124 -153 296 -36 95 -73 358
-89 643 -53 920 -83 1035 -386 1497 -93 141 -95 148 -79 318 l12 141 146 13
c80 6 153 16 162 21 11 6 31 77 68 252 29 134 69 311 88 393 307 1337 323
1424 331 1802 l5 232 22 -15 c13 -7 47 -19 77 -25 100 -20 172 28 124 81 -16
18 -15 19 20 29 66 18 95 62 60 91 -8 7 -51 16 -96 21 -120 12 -122 17 -64
143 21 45 31 89 41 179 10 93 19 132 41 174 15 30 31 57 35 59 5 3 24 -8 44
-25 48 -43 107 -71 148 -71 39 0 52 14 155 168 35 52 186 267 337 479 419 587
433 609 441 703 9 91 -30 186 -170 425 -67 115 -326 520 -392 615 -236 338
-233 333 -274 449 -66 187 -189 390 -274 453 -57 41 -96 58 -201 83 -84 19
-90 23 -98 50 -30 107 -67 370 -108 780 -57 563 -112 821 -223 1042 -82 162
-198 271 -354 332 -106 41 -296 66 -392 50z m-1851 -2010 c0 -17 -6 -20 -37
-17 -47 4 -54 24 -11 36 39 11 48 7 48 -19z m48 -167 c2 -8 -10 -12 -40 -11
l-43 1 30 13 c33 16 47 15 53 -3z m1595 -371 c38 -40 83 -61 131 -61 41 0 174
46 268 94 57 29 66 31 57 14 -15 -28 -135 -324 -239 -588 -104 -266 -270 -733
-270 -761 0 -10 -4 -19 -8 -19 -8 0 -14 31 -51 265 -53 333 -55 684 -6 1040
25 180 22 174 56 107 17 -31 45 -72 62 -91z m1483 -961 c220 -263 382 -487
449 -619 19 -39 42 -74 51 -79 16 -9 15 -14 -8 -53 -14 -24 -51 -94 -82 -155
-94 -185 -324 -520 -506 -737 -36 -42 -62 -85 -70 -112 -7 -24 -20 -51 -29
-59 -16 -14 -23 7 -94 292 -42 169 -81 336 -87 372 -24 156 -7 291 68 530 144
457 227 718 228 717 1 -1 37 -45 80 -97z m-2557 -136 c16 -49 32 -109 35 -134
4 -27 -7 -2 -27 65 -19 61 -39 123 -46 138 -6 16 -11 34 -11 40 1 22 19 -19
49 -109z"/>
<path d="M2500 14194 c-161 -81 -268 -208 -278 -331 -12 -140 50 -214 262
-317 157 -75 208 -111 236 -167 43 -83 19 -178 -71 -288 -80 -98 -111 -160
-107 -214 l3 -42 30 52 c17 28 72 96 124 152 156 167 181 209 181 306 0 79
-24 129 -88 187 -47 41 -93 67 -276 153 -155 73 -200 188 -130 327 32 64 72
107 155 168 104 78 93 81 -41 14z"/>
</g>
</svg>
