<?xml version="1.0" standalone="no"?>
<!DOCTYPE svg PUBLIC "-//W3C//DTD SVG 20010904//EN"
 "http://www.w3.org/TR/2001/REC-SVG-20010904/DTD/svg10.dtd">
<svg version="1.0" xmlns="http://www.w3.org/2000/svg"
 width="1024.000000pt" height="1536.000000pt" viewBox="0 0 1024.000000 1536.000000"
 preserveAspectRatio="xMidYMid meet">
<metadata>
Created by potrace 1.16, written by Peter Selinger 2001-2019
</metadata>
<g transform="translate(0.000000,1536.000000) scale(0.100000,-0.100000)"
fill="#000000" stroke="none">
<path d="M4946 14460 c-301 -47 -574 -226 -741 -484 -108 -167 -135 -245 -142
-406 -9 -193 36 -321 148 -424 l58 -54 -11 -73 c-11 -81 -5 -230 12 -274 10
-27 41 -78 131 -218 66 -103 148 -180 235 -223 70 -35 76 -36 159 -32 84 4 85
4 85 -19 0 -13 7 -53 16 -89 l17 -66 -29 -24 c-143 -121 -219 -172 -344 -231
-247 -118 -264 -128 -305 -168 -40 -40 -95 -153 -145 -300 -31 -87 -105 -388
-134 -544 -14 -74 -27 -136 -30 -138 -2 -2 -11 27 -20 64 -9 37 -39 114 -66
170 -65 133 -66 170 -10 278 l41 76 -7 192 c-3 106 -10 209 -16 231 -12 50
-49 86 -88 86 -23 0 -30 4 -30 19 0 11 -14 31 -31 45 -41 35 -90 34 -154 -3
-74 -42 -180 -144 -205 -197 -31 -63 -25 -130 38 -389 28 -115 57 -243 63
-283 l12 -73 -44 -92 -44 -92 1 -125 c0 -139 31 -307 105 -584 100 -372 181
-531 306 -598 87 -47 205 -46 268 4 28 22 31 14 16 -40 -58 -201 -211 -1126
-228 -1374 l-6 -87 37 -37 37 -37 -10 -81 c-17 -128 -49 -539 -62 -801 -18
-362 -18 -1903 0 -1975 20 -80 596 -1522 781 -1955 127 -298 167 -385 187
-407 20 -23 89 -24 140 -3 19 8 39 15 43 15 8 0 42 -173 55 -276 8 -65 -7
-122 -80 -299 -72 -176 -101 -233 -163 -320 -69 -97 -109 -135 -242 -225 -218
-147 -262 -237 -147 -293 46 -23 217 -25 344 -4 l82 13 -94 -98 c-125 -130
-137 -183 -52 -233 64 -37 157 -55 287 -55 149 0 276 26 386 79 104 50 162
103 208 191 21 39 40 70 42 70 3 0 17 -8 30 -19 35 -28 87 -34 129 -17 46 20
58 48 102 246 43 191 42 238 -16 465 -23 88 -41 176 -41 195 0 32 4 37 56 64
31 16 63 40 71 53 26 40 69 420 112 998 59 773 54 1174 -20 1875 -25 235 -27
191 56 1000 50 485 81 740 130 1060 46 299 58 438 53 586 -2 68 0 118 4 111 4
-6 8 -19 8 -28 0 -8 7 -39 16 -68 14 -50 18 -54 70 -77 30 -13 57 -30 60 -37
2 -7 -2 -32 -11 -56 -8 -24 -25 -100 -36 -170 -20 -118 -21 -136 -9 -296 14
-205 21 -234 60 -268 16 -15 30 -35 30 -46 0 -28 45 -71 77 -73 55 -3 78 4
141 39 139 78 203 150 284 319 61 127 60 141 -15 399 -35 121 -66 227 -70 235
-4 11 8 22 46 40 39 19 57 35 71 63 18 37 18 44 -3 300 -11 144 -25 325 -31
402 -24 338 -66 760 -140 1435 -22 195 -51 481 -65 635 -33 357 -72 700 -90
787 -33 154 -87 259 -173 339 -70 64 -145 105 -320 173 -252 99 -332 150 -418
267 -40 54 -96 89 -144 89 -27 0 -33 6 -55 57 -28 63 -27 67 39 77 63 10 213
88 287 149 96 80 154 164 190 277 l18 55 0 -55 c1 -30 -6 -82 -13 -115 -8 -33
-13 -61 -11 -63 9 -9 101 114 132 176 52 108 70 224 55 355 -23 204 -106 455
-247 742 -184 377 -315 514 -528 551 -43 8 -104 21 -136 30 -67 19 -308 27
-395 14z m-241 -2950 c60 -37 144 -60 219 -60 80 0 174 21 224 50 25 15 32 16
32 5 0 -20 -67 -146 -162 -303 -178 -296 -325 -680 -423 -1102 -19 -80 -34
-140 -35 -135 0 6 -7 48 -15 95 -60 337 -60 817 0 1055 30 121 118 415 123
415 3 0 19 -9 37 -20z m1411 -1725 c8 -60 26 -169 40 -241 13 -72 31 -200 39
-285 16 -161 33 -659 22 -659 -3 0 -11 26 -17 58 -30 151 -106 464 -151 621
-27 95 -49 185 -49 199 0 13 9 77 19 141 11 64 30 181 43 261 l23 145 8 -65
c4 -36 14 -114 23 -175z m433 -2862 c-6 -24 -18 -48 -27 -55 -14 -12 -15 -4
-9 72 6 81 22 178 36 210 12 28 12 -185 0 -227z m-1560 -508 c6 -93 18 -251
26 -350 20 -259 33 -483 45 -780 11 -284 22 -443 46 -663 9 -79 14 -146 11
-148 -2 -3 -16 26 -30 63 -21 57 -140 325 -256 578 -16 34 -43 78 -61 98 -30
34 -32 41 -25 85 25 175 114 734 157 977 27 160 53 308 56 330 l6 40 7 -30 c4
-16 12 -106 18 -200z"/>
</g>
</svg>
