<?xml version="1.0" standalone="no"?>
<!DOCTYPE svg PUBLIC "-//W3C//DTD SVG 20010904//EN"
 "http://www.w3.org/TR/2001/REC-SVG-20010904/DTD/svg10.dtd">
<svg version="1.0" xmlns="http://www.w3.org/2000/svg"
 width="1024.000000pt" height="1536.000000pt" viewBox="0 0 1024.000000 1536.000000"
 preserveAspectRatio="xMidYMid meet">
<metadata>
Created by potrace 1.16, written by Peter Selinger 2001-2019
</metadata>
<g transform="translate(0.000000,1536.000000) scale(0.100000,-0.100000)"
fill="#000000" stroke="none">
<path d="M4910 14555 c-236 -44 -468 -172 -640 -351 -165 -173 -254 -348 -295
-585 -19 -106 -21 -307 -4 -376 17 -68 67 -160 105 -192 l33 -27 -11 -124 c-6
-69 -12 -285 -12 -480 0 -326 1 -363 21 -452 24 -112 58 -189 101 -235 l30
-32 -39 -27 c-55 -38 -114 -104 -142 -161 -24 -47 -62 -159 -213 -628 -68
-210 -78 -236 -85 -210 -5 17 -23 98 -39 180 -38 185 -53 219 -97 223 -66 6
-81 71 -32 133 58 74 73 129 71 267 -1 116 0 124 24 160 25 35 26 41 20 130
-11 155 -45 212 -138 231 -24 5 -33 14 -44 46 -18 53 -49 78 -89 71 -36 -7
-207 -121 -264 -176 -58 -56 -74 -100 -66 -180 7 -65 15 -106 98 -495 70 -324
72 -279 -21 -379 -48 -51 -83 -96 -87 -114 -8 -39 8 -106 159 -644 78 -279
138 -474 160 -520 115 -242 308 -323 490 -208 47 30 48 31 42 8 -25 -90 -234
-914 -276 -1090 -49 -205 -52 -219 -36 -242 8 -14 31 -30 51 -37 24 -9 34 -18
30 -29 -6 -21 -33 -253 -45 -395 -28 -327 -38 -1209 -23 -1994 6 -314 8 -356
23 -371 24 -24 210 -78 370 -107 l45 -8 7 -65 c11 -102 54 -259 91 -330 18
-36 88 -147 155 -247 209 -313 382 -600 542 -903 51 -96 109 -204 130 -240 65
-113 139 -267 165 -344 22 -65 25 -92 25 -208 0 -274 -36 -581 -86 -738 -50
-156 -173 -362 -314 -525 -73 -83 -113 -121 -319 -295 -94 -81 -131 -137 -131
-203 0 -63 33 -98 116 -123 79 -24 339 -25 470 -1 149 28 289 82 377 147 50
37 148 150 195 224 l37 60 13 -63 c17 -77 41 -96 108 -88 89 10 92 15 160 283
43 169 73 263 101 322 l39 82 12 -71 c6 -40 17 -76 24 -81 20 -13 88 -2 117
20 47 34 50 53 53 313 3 327 -5 354 -147 513 -125 140 -174 204 -169 223 2 10
22 90 44 178 120 484 153 718 153 1070 1 335 -17 480 -103 874 -21 97 -38 177
-37 178 2 1 31 6 66 12 35 6 73 17 86 25 27 18 29 33 50 336 9 124 25 331 36
460 10 129 28 341 39 470 11 129 29 339 41 465 35 400 36 801 3 1124 l-7 58
39 -1 39 -1 7 -109 c9 -136 30 -210 64 -232 14 -10 47 -19 75 -22 59 -6 58 8
24 -218 -14 -92 -25 -194 -25 -227 0 -70 16 -260 31 -364 10 -67 9 -74 -11
-101 -16 -21 -21 -40 -18 -73 3 -37 7 -46 33 -58 26 -13 38 -12 95 2 36 10 97
33 136 52 122 59 246 212 304 373 19 52 22 74 16 130 -5 59 -104 501 -121 544
-5 13 1 20 27 31 65 27 65 21 39 300 -53 594 -132 1384 -181 1807 -16 146 -43
456 -60 690 -44 620 -61 756 -116 925 -36 110 -74 181 -134 253 -51 61 -51 62
-81 207 -43 217 -106 595 -118 720 -6 61 -20 211 -31 335 -33 368 -63 553
-116 730 -73 241 -226 459 -427 611 -97 73 -274 160 -382 189 -105 28 -318 36
-425 15z m-653 -2435 c22 -105 67 -218 113 -284 l40 -57 -26 -10 c-84 -31
-151 140 -159 406 -4 109 -3 121 6 75 5 -30 17 -89 26 -130z m398 -703 c63
-100 296 -101 518 -2 11 4 -2 -20 -31 -57 -61 -81 -238 -365 -331 -531 -110
-195 -263 -509 -316 -647 -27 -69 -52 -129 -55 -133 -13 -16 -31 198 -31 370
0 260 21 416 87 650 37 133 124 383 133 383 3 -1 15 -15 26 -33z m1465 -1587
c11 -96 27 -231 35 -300 16 -131 33 -300 65 -640 11 -113 24 -250 30 -305 5
-55 10 -122 9 -150 l-1 -50 -10 55 c-51 305 -149 679 -245 940 l-35 96 31 129
c17 72 46 191 64 267 17 75 33 135 34 134 1 -1 11 -80 23 -176z m501 -2860
c-9 -22 -10 -19 -10 21 -1 26 2 62 7 80 6 31 7 29 10 -21 2 -31 -2 -67 -7 -80z
m-1632 -2050 c0 -10 -3 -8 -9 5 -12 27 -12 43 0 25 5 -8 9 -22 9 -30z"/>
</g>
</svg>
