<?xml version="1.0" standalone="no"?>
<!DOCTYPE svg PUBLIC "-//W3C//DTD SVG 20010904//EN"
 "http://www.w3.org/TR/2001/REC-SVG-20010904/DTD/svg10.dtd">
<svg version="1.0" xmlns="http://www.w3.org/2000/svg"
 width="1024.000000pt" height="1536.000000pt" viewBox="0 0 1024.000000 1536.000000"
 preserveAspectRatio="xMidYMid meet">
<metadata>
Created by potrace 1.16, written by Peter Selinger 2001-2019
</metadata>
<g transform="translate(0.000000,1536.000000) scale(0.100000,-0.100000)"
fill="#000000" stroke="none">
<path d="M6067 15099 c-32 -5 -88 -17 -125 -28 -37 -10 -92 -25 -122 -32 -155
-35 -283 -110 -420 -248 -160 -160 -302 -372 -350 -521 -19 -58 -22 -83 -16
-140 8 -95 27 -137 107 -238 38 -48 81 -115 96 -149 22 -50 32 -63 52 -65 24
-3 25 -6 22 -48 -4 -59 -35 -150 -77 -226 -19 -33 -34 -68 -34 -77 0 -24 30
-36 110 -43 70 -7 71 -8 87 -43 8 -20 23 -62 33 -94 20 -64 124 -249 178 -316
46 -57 87 -81 140 -81 50 0 92 20 187 89 38 28 73 51 78 51 4 0 21 -28 36 -62
22 -48 26 -66 17 -77 -24 -30 -203 -185 -256 -221 -83 -56 -182 -104 -300
-144 -161 -55 -258 -133 -313 -250 -33 -70 -51 -140 -76 -296 -11 -69 -32
-165 -46 -213 -14 -48 -36 -124 -49 -170 -30 -103 -46 -230 -45 -372 0 -60 -5
-134 -11 -164 -5 -29 -10 -80 -10 -113 0 -44 -4 -60 -16 -65 -9 -3 -67 20
-137 55 l-122 61 -186 -3 c-193 -3 -235 -11 -299 -51 -127 -81 -271 -278 -232
-317 7 -7 22 -1 48 20 21 17 40 30 42 28 2 -2 -8 -31 -22 -65 -14 -33 -26 -72
-26 -87 0 -25 -2 -26 -37 -19 -21 3 -62 22 -92 42 -29 19 -76 42 -105 50 -54
16 -125 53 -144 75 -6 8 -85 272 -176 588 -232 809 -314 1095 -337 1172 -31
107 24 96 -709 143 -507 32 -572 34 -593 16 -32 -26 -53 50 238 -861 101 -316
204 -642 230 -725 83 -267 125 -391 141 -413 22 -32 52 -45 229 -97 183 -54
229 -75 305 -141 30 -26 80 -58 110 -72 61 -28 167 -97 280 -182 41 -31 90
-62 108 -68 19 -6 88 -15 155 -18 108 -6 123 -10 142 -30 12 -13 37 -79 60
-159 44 -151 60 -185 102 -212 25 -17 63 -18 470 -21 369 -2 443 -5 443 -17 0
-21 -38 -194 -149 -670 -96 -416 -104 -472 -76 -512 9 -12 45 -41 80 -64 53
-34 64 -46 60 -63 -3 -11 -41 -201 -85 -421 -215 -1071 -224 -1142 -316 -2385
-45 -615 -37 -664 180 -1098 425 -849 657 -1411 880 -2133 37 -118 56 -149 93
-149 18 0 117 18 202 36 24 5 24 5 18 -63 -3 -37 -15 -115 -27 -173 -31 -151
-149 -578 -171 -622 -27 -52 -67 -79 -219 -148 -206 -92 -264 -137 -276 -211
-7 -44 23 -85 74 -99 20 -5 129 -10 241 -10 l204 0 -65 -50 c-168 -126 -195
-246 -64 -279 101 -25 418 -6 581 35 77 20 204 83 273 136 60 47 149 141 165
175 14 32 22 29 36 -17 20 -68 63 -83 157 -55 63 18 88 45 114 119 11 32 50
126 87 209 l68 152 -1 130 c-1 75 -8 170 -18 224 -9 51 -16 94 -14 96 2 1 39
15 83 31 44 15 90 38 102 50 24 25 22 0 58 504 79 1092 90 1494 52 2015 -9
121 -21 301 -27 400 -6 115 -22 251 -44 377 l-34 197 14 133 c36 344 86 985
100 1278 4 95 13 160 29 220 13 47 29 119 36 160 6 41 27 130 45 198 80 289
89 456 45 804 -17 137 -31 252 -31 257 0 5 32 13 71 19 79 12 109 32 109 71 0
14 -12 69 -26 121 -66 248 -244 1024 -244 1068 0 23 13 43 53 84 37 38 72 92
119 184 134 260 210 497 347 1074 138 584 164 844 115 1158 -25 163 -73 276
-154 365 -66 72 -142 122 -360 237 -249 131 -263 144 -375 353 -32 59 -62 107
-66 107 -5 0 -13 -9 -19 -20 -6 -11 -16 -20 -23 -20 -16 0 -53 74 -62 123 -11
57 0 74 59 91 142 42 293 199 341 356 27 88 30 89 33 13 4 -89 22 -97 54 -25
27 59 36 219 19 330 -32 203 -143 477 -306 751 -115 194 -240 331 -375 412
-149 88 -348 125 -533 98z m3 -3026 c150 19 190 21 190 9 0 -8 -180 -305 -329
-542 -150 -238 -255 -498 -347 -857 -25 -98 -47 -183 -49 -190 -2 -8 -52 5
-152 38 -183 60 -177 58 -171 65 3 2 44 -5 92 -17 48 -12 89 -19 92 -17 2 3 9
79 14 169 30 511 106 851 260 1161 86 175 129 210 220 180 40 -14 58 -14 180
1z m-1667 -1460 c4 -3 -12 -20 -36 -36 -65 -47 -107 -88 -138 -136 -56 -87
-30 -99 87 -40 70 36 97 44 152 47 l67 4 98 -71 c155 -111 240 -145 558 -222
207 -51 229 -65 229 -151 0 -29 -5 -84 -12 -123 -20 -127 -20 -128 37 -147
l50 -16 12 -71 c20 -123 43 -454 32 -466 -6 -5 -338 11 -344 17 -11 11 60 726
85 858 5 25 6 48 2 51 -11 10 -243 55 -562 109 -298 50 -575 99 -597 106 -57
16 73 223 172 274 39 19 95 27 108 13z m787 -3 c8 -5 11 -10 5 -10 -5 0 -17 5
-25 10 -8 5 -10 10 -5 10 6 0 17 -5 25 -10z m664 -4522 c73 -525 108 -774 140
-991 20 -131 58 -404 86 -605 28 -202 60 -407 71 -457 38 -171 78 -713 86
-1167 3 -175 3 -318 0 -318 -9 0 -133 383 -217 675 -218 752 -319 992 -530
1259 l-70 89 0 70 c0 58 -6 82 -35 148 l-36 78 91 283 c140 439 373 1128 380
1128 4 0 19 -87 34 -192z"/>
</g>
</svg>
