<?xml version="1.0" standalone="no"?>
<!DOCTYPE svg PUBLIC "-//W3C//DTD SVG 20010904//EN"
 "http://www.w3.org/TR/2001/REC-SVG-20010904/DTD/svg10.dtd">
<svg version="1.0" xmlns="http://www.w3.org/2000/svg"
 width="1024.000000pt" height="1536.000000pt" viewBox="0 0 1024.000000 1536.000000"
 preserveAspectRatio="xMidYMid meet">
<metadata>
Created by potrace 1.16, written by Peter Selinger 2001-2019
</metadata>
<g transform="translate(0.000000,1536.000000) scale(0.100000,-0.100000)"
fill="#000000" stroke="none">
<path d="M4980 14464 c-102 -21 -205 -72 -303 -151 -45 -37 -107 -81 -139
-100 -154 -90 -236 -253 -297 -593 -50 -276 -87 -363 -269 -643 -125 -190
-167 -276 -191 -380 -23 -98 -34 -238 -23 -287 8 -32 9 -28 16 40 12 127 43
239 97 347 67 135 86 148 38 24 -56 -146 -105 -323 -118 -426 -6 -49 -15 -91
-21 -93 -33 -11 -161 -105 -191 -140 -121 -142 -157 -361 -129 -797 43 -666
223 -1491 367 -1683 40 -53 76 -66 174 -65 l87 2 -24 -78 c-13 -43 -84 -264
-157 -492 -74 -228 -142 -444 -152 -482 -17 -65 -17 -68 0 -87 10 -11 33 -25
51 -32 19 -7 34 -14 34 -18 0 -3 -9 -51 -20 -107 -47 -241 -50 -561 -11 -1082
38 -494 45 -793 31 -1260 -11 -360 -11 -424 1 -432 8 -5 49 -16 91 -25 42 -10
82 -20 88 -24 7 -4 11 -59 13 -146 3 -208 -15 -261 -176 -531 -152 -255 -208
-378 -257 -569 -37 -142 -53 -257 -90 -644 -34 -352 -57 -527 -100 -742 -45
-225 -102 -356 -224 -518 -96 -126 -112 -155 -131 -225 -19 -74 -19 -142 0
-242 10 -52 15 -140 15 -263 0 -201 7 -230 54 -230 51 0 60 19 66 141 l5 114
42 -125 c24 -69 56 -187 72 -262 34 -157 44 -181 101 -232 82 -74 221 -115
422 -123 173 -7 248 6 296 53 58 58 40 115 -83 254 -136 155 -200 290 -241
507 -21 118 -30 432 -15 547 30 220 161 640 417 1329 131 354 252 631 427 977
l159 315 -6 -95 c-3 -52 -19 -161 -36 -241 -16 -81 -34 -198 -40 -260 -14
-166 -12 -484 5 -714 54 -717 73 -1176 56 -1355 -14 -143 -39 -235 -101 -369
-27 -59 -54 -128 -60 -156 -22 -96 5 -190 88 -308 49 -71 66 -120 87 -252 9
-55 23 -110 31 -122 26 -41 97 -43 122 -3 7 11 20 86 29 165 16 138 18 145 37
139 62 -20 296 -146 394 -212 250 -171 300 -186 627 -186 238 -1 288 7 331 49
16 16 24 36 24 60 0 72 -85 134 -323 233 -178 75 -249 117 -342 204 -164 154
-296 359 -350 543 -69 238 -61 437 51 1270 24 182 55 465 69 630 61 746 68
792 149 1053 50 159 73 278 82 430 4 61 12 105 18 108 6 2 85 12 175 24 91 11
166 22 168 23 11 11 53 1699 53 2112 0 251 -15 664 -26 742 l-6 42 48 23 c41
19 49 28 52 54 4 45 -185 973 -214 1048 -3 9 -5 16 -3 16 2 0 87 -16 189 -35
241 -46 506 -85 571 -85 46 0 55 4 85 35 37 40 70 136 76 220 l3 50 -55 5 -55
5 63 12 c116 22 757 355 883 458 22 18 46 23 130 29 123 9 156 22 189 78 90
151 738 1523 726 1536 -4 4 -261 7 -570 7 -520 0 -564 -1 -589 -18 -15 -9 -34
-28 -42 -41 -9 -13 -83 -177 -165 -363 -238 -542 -302 -681 -395 -854 -128
-240 -151 -269 -225 -289 -44 -12 -384 -46 -595 -60 -88 -5 -265 -17 -394 -26
-128 -8 -235 -13 -238 -11 -2 3 42 10 99 17 137 16 295 43 448 76 150 32 294
38 355 13 31 -12 54 -14 100 -8 33 4 70 8 83 8 35 1 26 25 -27 73 -96 86 -206
130 -363 144 -95 8 -80 17 50 28 162 14 255 -35 398 -212 16 -18 25 -21 51
-16 29 6 32 9 27 33 -3 14 -21 59 -40 99 -62 135 -191 234 -363 278 -77 19
-146 10 -248 -35 -153 -66 -418 -133 -608 -152 -169 -17 -162 -6 20 30 208 41
529 121 543 136 9 9 -16 339 -43 582 -45 399 -73 548 -121 649 -37 79 -131
161 -250 219 -54 26 -113 59 -131 72 -35 27 -63 95 -63 154 0 21 -9 62 -20 90
-23 58 -19 104 9 112 18 4 105 106 236 276 38 50 79 92 91 95 13 4 37 18 54
33 30 25 32 30 26 72 -17 117 -18 143 -6 190 8 33 28 72 57 109 145 183 160
419 43 669 -66 142 -148 243 -269 332 -103 76 -210 125 -341 156 -98 23 -290
28 -380 9z m-226 -1179 c14 -43 23 -81 21 -84 -8 -7 -52 101 -64 157 -13 60
-14 125 -4 162 5 17 10 -3 15 -65 4 -49 18 -126 32 -170z m87 -905 c91 -91
141 -163 226 -329 36 -69 76 -141 89 -158 24 -32 62 -59 70 -50 2 2 -2 88 -11
191 -8 103 -15 222 -15 264 0 84 23 210 41 226 9 8 10 3 5 -19 -3 -16 -9 -75
-12 -130 -6 -97 -5 -101 21 -140 48 -69 73 -155 45 -155 -25 0 -7 -38 25 -53
24 -12 35 -23 35 -39 0 -12 40 -141 89 -287 50 -147 99 -312 110 -368 28 -137
37 -313 22 -443 -12 -101 -56 -268 -68 -256 -4 3 -16 45 -28 93 -30 118 -73
228 -160 409 -129 271 -211 398 -490 764 -193 253 -273 365 -304 427 -11 23
-21 44 -21 47 0 3 23 31 51 63 28 32 58 70 67 85 l15 27 61 -47 c34 -26 95
-81 137 -122z m1834 -2365 l200 -14 -205 4 c-113 3 -221 9 -240 14 l-35 9 40
0 c22 0 130 -6 240 -13z"/>
<path d="M4931 12059 c-37 -15 -80 -48 -92 -72 -9 -17 -4 -15 22 9 19 18 52
41 74 52 41 22 39 28 -4 11z"/>
</g>
</svg>
