<?xml version="1.0" standalone="no"?>
<!DOCTYPE svg PUBLIC "-//W3C//DTD SVG 20010904//EN"
 "http://www.w3.org/TR/2001/REC-SVG-20010904/DTD/svg10.dtd">
<svg version="1.0" xmlns="http://www.w3.org/2000/svg"
 width="1024.000000pt" height="1536.000000pt" viewBox="0 0 1024.000000 1536.000000"
 preserveAspectRatio="xMidYMid meet">
<metadata>
Created by potrace 1.16, written by Peter Selinger 2001-2019
</metadata>
<g transform="translate(0.000000,1536.000000) scale(0.100000,-0.100000)"
fill="#000000" stroke="none">
<path d="M4940 14710 c-142 -23 -315 -95 -411 -172 -29 -24 -81 -62 -114 -84
-278 -182 -455 -544 -455 -931 0 -109 14 -183 41 -217 11 -14 43 -37 72 -51
92 -46 117 -86 117 -183 0 -72 30 -192 67 -270 35 -75 138 -196 195 -229 15
-10 28 -20 28 -23 0 -4 -24 -14 -53 -23 -38 -12 -74 -36 -132 -88 -44 -39 -98
-83 -119 -97 -56 -38 -75 -76 -87 -178 -32 -281 -23 -255 -109 -317 -55 -40
-104 -118 -131 -212 -12 -38 -49 -126 -84 -195 -34 -69 -85 -181 -113 -250
-28 -69 -89 -204 -136 -300 -47 -95 -86 -179 -86 -185 0 -6 -25 -40 -56 -76
-97 -110 -141 -239 -151 -444 -9 -176 23 -312 93 -394 90 -105 256 -128 377
-51 l45 28 43 -44 c60 -62 142 -101 227 -109 76 -7 200 -33 222 -47 10 -6 5
-7 -15 -3 -58 13 -200 35 -226 35 -26 0 -27 -3 -38 -88 -13 -102 -39 -208 -75
-305 -15 -37 -26 -82 -26 -100 0 -18 -14 -79 -30 -137 -44 -151 -210 -814
-217 -866 -7 -52 5 -69 74 -110 29 -16 43 -31 39 -40 -12 -32 -17 -593 -8
-904 6 -184 18 -636 27 -1005 9 -368 19 -681 21 -693 8 -40 46 -67 134 -95 81
-25 217 -53 289 -59 l33 -3 64 -255 c67 -269 80 -351 114 -705 24 -249 54
-500 75 -625 27 -162 86 -546 110 -722 39 -285 49 -420 49 -638 -1 -247 -13
-305 -101 -479 -103 -203 -236 -374 -388 -496 -200 -161 -231 -188 -252 -223
-47 -77 -15 -149 80 -177 108 -32 413 -12 540 35 109 41 137 67 241 224 91
138 154 206 191 206 8 0 15 -25 19 -67 10 -96 15 -113 37 -113 10 0 19 -4 19
-8 0 -4 -35 -46 -78 -93 -154 -168 -182 -220 -157 -293 15 -44 34 -60 95 -80
146 -49 469 -17 614 62 76 41 138 119 195 245 49 110 50 110 58 76 11 -41 42
-59 101 -59 51 0 92 34 92 75 0 53 32 178 70 274 73 181 72 228 -7 476 -73
227 -72 319 17 915 106 717 132 1029 112 1323 -15 220 -45 364 -127 606 -67
201 -99 330 -111 441 l-6 65 101 22 c56 12 118 30 139 40 l37 18 12 315 c6
173 19 419 28 545 18 268 16 240 60 735 52 577 58 694 51 900 l-7 185 46 19
c62 25 87 59 79 105 -32 174 -130 518 -268 935 -47 142 -86 263 -86 269 0 5
15 26 34 47 79 88 225 385 321 656 93 264 222 716 280 989 38 176 55 306 55
433 0 241 -60 389 -196 483 -25 17 -160 88 -302 159 -185 93 -275 144 -323
183 -69 57 -145 147 -199 235 -24 39 -40 54 -61 59 -33 6 -34 8 -54 140 -15
101 -21 327 -9 357 3 8 29 23 57 32 35 12 65 32 97 65 26 27 50 49 54 49 4 0
-4 -19 -18 -42 -14 -24 -39 -79 -57 -123 -31 -74 -33 -88 -33 -195 0 -96 4
-124 22 -171 48 -121 189 -284 290 -335 49 -25 68 -29 137 -29 53 1 90 6 110
17 l29 16 -34 15 c-19 8 -46 27 -60 41 l-25 27 47 -26 c25 -14 61 -26 79 -27
40 -1 92 23 113 54 19 26 21 47 4 30 -20 -20 -82 -14 -119 11 -20 13 -46 47
-64 82 -29 56 -30 64 -30 184 0 112 4 139 34 246 96 341 14 620 -223 759 -59
35 -66 42 -66 70 0 41 -25 181 -46 259 -22 81 -91 229 -142 303 -83 123 -249
263 -378 320 -126 56 -328 84 -454 64z m-460 -786 c0 -28 52 -139 96 -206 78
-117 202 -211 332 -253 71 -23 59 -31 -14 -10 -156 45 -289 156 -362 301 -40
79 -79 199 -61 188 5 -3 9 -12 9 -20z m1360 -382 c50 -51 64 -155 34 -260 -18
-64 -39 -96 -27 -42 5 19 8 82 8 138 l0 104 -32 28 c-27 25 -36 27 -67 20 -20
-4 -52 -17 -72 -29 -56 -33 -52 -18 8 28 66 51 106 54 148 13z m-1049 -1148
c44 -5 63 -1 101 19 l47 24 7 -64 c6 -58 4 -66 -16 -88 -25 -27 -198 -120
-207 -111 -3 3 0 33 6 68 11 69 2 134 -26 178 l-16 25 25 -23 c18 -16 42 -25
79 -28z m-241 -24 c24 -24 40 -62 40 -93 0 -18 -3 -16 -17 11 -20 41 -68 82
-96 82 -18 0 -19 2 -7 10 24 16 59 11 80 -10z m1077 -124 c-26 -50 -61 -113
-79 -141 -18 -27 -80 -126 -137 -220 -118 -193 -131 -213 -131 -199 0 16 111
209 226 395 61 97 121 201 135 232 13 31 26 49 28 40 1 -9 -17 -57 -42 -107z
m-692 -72 c-25 -53 -57 -123 -71 -155 -15 -33 -28 -58 -30 -56 -7 6 25 102 57
173 28 62 73 134 84 134 2 0 -16 -43 -40 -96z m-306 -149 c-70 -156 -166 -322
-215 -376 -66 -72 -97 -140 -134 -291 -26 -104 -29 -114 -25 -63 5 69 33 180
62 245 11 25 47 78 81 119 33 40 66 85 74 100 7 14 32 59 56 99 23 40 60 109
82 153 22 43 42 79 44 79 3 0 -9 -29 -25 -65z m-102 -17 c-2 -13 -4 -5 -4 17
-1 22 1 32 4 23 2 -10 2 -28 0 -40z m-127 -30 c0 -51 -5 -47 -13 10 -3 24 -1
40 4 36 5 -3 9 -24 9 -46z m-386 -304 c-30 -90 -43 -118 -44 -94 -1 28 65 215
68 194 2 -11 -9 -56 -24 -100z m1776 67 c-86 -23 -135 -33 -127 -25 11 11 131
43 162 42 20 0 9 -5 -35 -17z m-780 -35 c74 0 153 6 174 12 22 6 42 9 44 7 3
-3 -35 -73 -83 -157 -246 -424 -381 -695 -467 -933 l-29 -80 6 130 c14 301 52
641 101 890 36 183 27 167 77 147 32 -12 76 -16 177 -16z m800 -133 c0 -7 -75
54 -91 74 -8 10 10 -2 39 -26 28 -23 52 -45 52 -48z m352 -20 c-38 -55 -130
-250 -180 -383 -44 -118 -82 -239 -136 -440 -15 -54 -15 -54 -10 -10 8 67 58
252 105 386 58 168 220 496 237 479 2 -2 -5 -16 -16 -32z m-488 -165 c-59 -68
-157 -181 -219 -253 -61 -71 -172 -198 -246 -281 -74 -84 -176 -200 -227 -258
-52 -58 -96 -106 -99 -106 -8 0 435 513 467 540 3 3 79 91 169 195 154 178
251 285 259 285 2 0 -45 -55 -104 -122z m-1765 33 c3 -137 91 -272 217 -335
57 -29 81 -32 118 -15 23 11 36 36 49 94 3 11 5 -6 6 -37 1 -48 -2 -59 -21
-72 -34 -24 -106 -20 -165 10 -72 35 -165 137 -193 211 -23 59 -37 160 -26
188 10 27 13 16 15 -44z m335 -575 c-3 -15 -8 -25 -11 -23 -2 3 -1 17 3 31 3
15 8 25 11 23 2 -3 1 -17 -3 -31z m-37 -128 c-13 -40 -46 -139 -73 -220 -26
-81 -50 -146 -52 -144 -3 4 20 79 111 359 17 54 33 94 35 89 2 -6 -8 -43 -21
-84z m1620 -80 c-3 -7 -5 -2 -5 12 0 14 2 19 5 13 2 -7 2 -19 0 -25z m-10 -50
c-3 -8 -6 -5 -6 6 -1 11 2 17 5 13 3 -3 4 -12 1 -19z m-153 -474 c-19 -41 -34
-80 -34 -87 0 -7 25 -30 56 -52 75 -54 92 -77 24 -33 -30 19 -70 44 -87 54
l-33 20 51 87 c28 48 52 87 54 87 2 0 -12 -34 -31 -76z m-1483 -88 c48 -42
171 -106 204 -106 20 0 20 -3 -11 -66 -45 -94 -58 -173 -50 -313 3 -64 8 -129
11 -146 4 -20 0 -15 -12 15 -12 34 -17 79 -17 185 0 129 2 146 28 218 15 43
26 80 24 82 -1 1 -23 13 -48 25 -88 44 -187 130 -240 206 -45 64 -23 60 25 -4
23 -32 62 -75 86 -96z m799 -56 c135 -6 127 -7 -105 -7 -137 -1 -261 3 -275 7
-31 10 179 10 380 0z m563 -25 c22 -14 61 -68 111 -152 20 -34 -7 -6 -53 57
-62 84 -91 100 -191 111 l-75 8 91 -3 c65 -2 98 -8 117 -21z m-1076 -651 c-3
-3 -12 -4 -19 -1 -8 3 -5 6 6 6 11 1 17 -2 13 -5z m333 -39 c204 -20 440 -37
830 -58 30 -2 5 -4 -57 -5 -219 -4 -877 49 -1033 83 -36 8 -47 12 -25 10 22
-3 150 -16 285 -30z m-263 -257 c-2 -13 -4 -5 -4 17 -1 22 1 32 4 23 2 -10 2
-28 0 -40z m73 -452 c38 -160 79 -278 132 -377 111 -209 252 -288 568 -319
l95 -9 -110 4 c-225 9 -359 59 -470 176 -102 108 -185 295 -235 529 -28 134
-50 294 -49 365 1 45 6 22 20 -90 10 -82 32 -208 49 -279z m-233 -88 c-3 -8
-6 -5 -6 6 -1 11 2 17 5 13 3 -3 4 -12 1 -19z m-36 -123 c-43 -132 -84 -209
-139 -264 -47 -46 -145 -101 -179 -100 -10 0 3 9 29 19 137 56 204 140 278
352 19 53 36 95 39 93 2 -2 -11 -47 -28 -100z m781 -3495 c11 -36 44 -123 73
-195 86 -211 112 -319 159 -665 74 -536 116 -1038 116 -1370 0 -385 -65 -755
-178 -1017 -39 -90 -100 -198 -109 -190 -2 3 7 29 21 58 52 115 58 136 63 214
6 95 -8 161 -66 297 -73 173 -76 190 -76 498 0 179 9 398 24 630 27 395 31
800 12 995 -6 66 -30 228 -52 360 -36 207 -42 265 -45 425 l-4 185 20 -80 c11
-44 30 -109 42 -145z"/>
</g>
</svg>
