<?xml version="1.0" standalone="no"?>
<!DOCTYPE svg PUBLIC "-//W3C//DTD SVG 20010904//EN"
 "http://www.w3.org/TR/2001/REC-SVG-20010904/DTD/svg10.dtd">
<svg version="1.0" xmlns="http://www.w3.org/2000/svg"
 width="1024.000000pt" height="1024.000000pt" viewBox="0 0 1024.000000 1024.000000"
 preserveAspectRatio="xMidYMid meet">
<metadata>
Created by potrace 1.16, written by Peter Selinger 2001-2019
</metadata>
<g transform="translate(0.000000,1024.000000) scale(0.100000,-0.100000)"
fill="#000000" stroke="none">
<path d="M5033 9856 c-146 -36 -271 -141 -341 -286 -47 -100 -72 -194 -72
-275 0 -56 1 -57 18 -42 29 26 33 21 26 -30 -6 -47 11 -399 22 -438 4 -17 -3
-23 -44 -37 -97 -35 -163 -102 -209 -213 -16 -40 -70 -258 -99 -403 -2 -12
-27 -47 -54 -76 -59 -66 -58 -65 -105 -191 -49 -131 -120 -301 -211 -507 -103
-232 -127 -322 -122 -446 3 -77 9 -107 27 -144 32 -62 96 -132 146 -158 58
-29 104 -26 185 15 101 51 182 46 159 -10 -13 -34 -10 -44 16 -51 18 -4 25
-13 25 -31 0 -53 -62 -524 -106 -803 -32 -208 -32 -253 2 -277 l26 -20 -11
-166 c-16 -228 -16 -1676 1 -1711 6 -14 22 -33 34 -41 32 -21 138 -45 200 -45
l51 0 13 -47 c8 -25 35 -105 62 -177 44 -120 53 -160 103 -466 30 -184 75
-452 100 -595 129 -740 132 -816 42 -990 -55 -106 -143 -224 -236 -315 -64
-63 -94 -84 -191 -131 -64 -31 -130 -68 -147 -83 -40 -34 -51 -81 -29 -125 55
-106 369 -123 573 -31 87 40 123 70 204 171 39 49 74 89 79 89 4 0 10 -29 12
-65 7 -79 26 -112 71 -120 43 -8 109 18 141 56 49 57 102 282 93 386 -4 38
-23 105 -52 178 -87 220 -95 306 -88 975 2 283 6 520 7 525 2 6 20 -42 41
-105 57 -172 195 -553 270 -745 161 -409 178 -502 135 -716 -47 -229 -91 -319
-228 -466 -98 -105 -118 -142 -106 -192 7 -28 18 -40 49 -56 55 -27 263 -28
377 -2 136 32 176 77 214 240 14 63 21 76 33 71 9 -3 35 -8 57 -11 35 -5 44
-2 58 18 9 13 16 43 16 69 0 25 7 86 15 135 30 182 18 252 -66 400 -93 164
-94 170 -134 560 -72 706 -149 1015 -332 1317 -19 32 -40 86 -48 125 -22 103
-22 103 28 103 63 0 225 28 257 45 17 9 30 25 33 43 3 16 9 399 13 853 5 639
4 850 -6 942 l-12 117 27 22 c25 20 27 25 21 72 -7 67 -50 219 -138 491 -38
121 -88 277 -110 346 l-39 126 121 303 c67 166 146 355 176 420 120 263 161
404 171 585 12 230 -59 349 -237 394 l-70 17 31 24 c32 23 32 23 26 94 -4 40
-27 153 -53 252 -66 253 -80 320 -125 578 -21 125 -50 259 -63 298 -70 201
-207 334 -392 382 -74 19 -255 20 -331 2z m-100 -1436 c16 -27 32 -25 56 8 17
22 20 24 21 8 0 -30 -75 -133 -142 -194 -98 -89 -178 -105 -178 -36 0 30 42
53 63 35 18 -14 42 11 33 35 -5 13 53 128 86 171 12 15 43 1 61 -27z m118
-426 c41 -9 75 -18 77 -19 2 -2 -34 -67 -78 -146 -131 -231 -218 -415 -242
-515 -41 -170 -43 -123 -7 131 33 231 95 482 135 543 17 26 21 27 115 6z"/>
</g>
</svg>
