<?xml version="1.0" standalone="no"?>
<!DOCTYPE svg PUBLIC "-//W3C//DTD SVG 20010904//EN"
 "http://www.w3.org/TR/2001/REC-SVG-20010904/DTD/svg10.dtd">
<svg version="1.0" xmlns="http://www.w3.org/2000/svg"
 width="1024.000000pt" height="1536.000000pt" viewBox="0 0 1024.000000 1536.000000"
 preserveAspectRatio="xMidYMid meet">
<metadata>
Created by potrace 1.16, written by Peter Selinger 2001-2019
</metadata>
<g transform="translate(0.000000,1536.000000) scale(0.100000,-0.100000)"
fill="#000000" stroke="none">
<path d="M5015 15033 c-51 -7 -116 -35 -234 -101 -349 -197 -565 -451 -587
-689 -4 -43 0 -118 11 -203 13 -105 16 -174 11 -310 -6 -193 -8 -200 -59 -318
-50 -113 -70 -194 -65 -269 6 -88 27 -115 123 -153 l30 -12 -34 -16 c-45 -22
-55 -46 -12 -29 49 18 48 0 -3 -44 -62 -55 -111 -148 -69 -132 12 5 15 2 10
-10 -3 -9 -11 -44 -18 -79 -21 -112 -19 -110 -105 -155 -96 -51 -175 -132
-203 -207 -10 -28 -24 -91 -31 -141 -17 -130 -35 -173 -90 -222 -51 -45 -86
-118 -76 -157 4 -15 -4 -45 -20 -81 -19 -40 -25 -68 -22 -98 3 -36 -3 -53 -40
-117 -87 -147 -132 -249 -132 -303 0 -46 -4 -53 -59 -114 -70 -75 -135 -200
-150 -287 -48 -265 57 -553 231 -640 44 -22 65 -26 142 -26 84 0 217 -26 256
-50 12 -7 12 -25 3 -122 -15 -141 -71 -341 -118 -421 -42 -70 -54 -130 -33
-155 14 -15 9 -41 -43 -252 -77 -306 -119 -511 -119 -580 0 -59 19 -100 47
-100 14 0 15 -12 10 -92 -23 -327 -29 -581 -24 -953 5 -369 14 -539 47 -890
10 -117 20 -260 45 -680 19 -324 21 -338 51 -374 39 -47 159 -84 318 -99 l79
-7 19 -55 c57 -165 92 -373 108 -635 19 -331 49 -623 86 -840 39 -228 137
-623 238 -956 129 -428 193 -828 166 -1044 -22 -175 -104 -374 -233 -563 -57
-85 -98 -129 -223 -243 -187 -170 -256 -246 -290 -316 -43 -87 -17 -160 65
-183 93 -26 359 -3 529 46 187 54 272 120 379 297 107 177 135 199 167 124 18
-44 67 -78 120 -84 77 -9 105 22 125 142 7 38 30 141 52 229 31 127 39 178 39
251 0 116 -14 164 -101 336 -77 152 -109 257 -131 430 -20 156 -17 796 6 1245
10 211 17 461 15 581 l-4 209 46 -115 c50 -125 130 -301 216 -476 309 -622
444 -977 520 -1365 25 -125 27 -154 27 -395 0 -429 -42 -630 -194 -935 -87
-174 -106 -259 -73 -327 50 -105 270 -95 506 23 224 112 325 213 381 381 29
88 56 233 56 301 l0 46 28 -27 c29 -28 65 -34 92 -17 12 8 15 36 15 152 0 79
4 199 9 268 15 216 -16 303 -169 475 -111 124 -146 173 -185 258 -58 125 -86
281 -100 562 -25 503 -39 648 -81 848 -37 179 -85 322 -160 477 -67 140 -89
177 -201 337 -88 125 -123 196 -133 264 -8 51 6 161 32 252 l16 57 56 0 c92 1
162 35 182 88 5 13 16 125 24 250 19 295 33 406 105 827 72 424 96 604 109
839 18 297 12 695 -15 968 l-6 66 28 4 c20 2 33 12 43 32 32 67 -37 386 -190
874 -49 158 -105 351 -125 428 l-35 142 46 68 c109 161 257 506 395 924 163
490 234 816 247 1130 9 236 -16 331 -110 416 -46 41 -181 104 -224 104 -13 0
-10 7 14 33 66 68 104 182 96 288 -10 133 -53 241 -160 402 -134 204 -166 290
-208 577 -48 328 -102 525 -200 724 -132 269 -263 398 -446 440 -160 38 -387
61 -474 49z m-759 -1284 c-9 -19 -14 -25 -11 -14 2 11 7 38 12 60 6 34 8 36
11 14 2 -15 -4 -42 -12 -60z m-58 -441 c-8 -75 -8 -135 0 -200 5 -51 9 -94 8
-96 -6 -6 -59 55 -67 76 -12 31 -11 96 2 152 10 47 60 182 65 177 2 -1 -2 -50
-8 -109z m2070 -76 c53 -93 82 -174 82 -226 0 -25 -12 -7 -55 82 -51 107 -102
248 -85 237 4 -3 30 -45 58 -93z m-2025 -52 c-3 -12 -8 -19 -11 -16 -5 6 5 36
12 36 2 0 2 -9 -1 -20z m2211 -360 c-1 -103 -13 -150 -61 -226 -28 -43 -63
-63 -48 -26 54 127 70 223 63 370 l-6 107 26 -65 c21 -54 26 -81 26 -160z
m-1577 161 c43 -64 26 -204 -41 -346 -41 -84 -81 -185 -95 -240 -16 -58 -13
-182 5 -245 8 -30 18 -70 22 -88 l7 -32 60 59 c33 33 63 57 67 55 3 -2 17 9
30 25 14 16 34 34 46 40 11 6 31 26 43 43 20 29 21 31 4 18 -11 -8 -28 -23
-38 -35 -10 -11 -16 -14 -12 -7 15 28 -13 7 -103 -80 -105 -102 -108 -100 -18
12 104 128 236 259 351 345 61 45 126 100 146 121 137 148 205 214 232 225 18
7 35 18 39 23 13 19 8 -15 -12 -93 -11 -41 -20 -88 -20 -103 0 -16 -16 -54
-35 -84 -19 -30 -35 -59 -35 -64 0 -8 -30 -58 -57 -96 -5 -5 -24 -41 -43 -78
-43 -83 -86 -132 -123 -140 -24 -6 -29 -3 -41 25 l-13 31 -12 -32 c-6 -18 -11
-40 -11 -48 0 -8 -20 -38 -43 -66 -38 -44 -121 -166 -205 -301 -14 -22 -37
-58 -52 -80 -15 -22 -40 -65 -55 -95 -16 -30 -34 -62 -41 -70 -11 -14 -153
-284 -215 -410 -33 -67 -69 -207 -69 -269 -1 -30 -3 -41 -9 -31 -13 22 -34
177 -27 189 4 6 3 11 -2 11 -5 0 -12 56 -16 123 -3 72 -15 157 -27 203 -23 88
-22 115 10 253 11 52 21 122 21 155 0 100 31 263 74 394 13 39 -2 24 -23 -23
-21 -48 -37 -63 -21 -19 14 35 12 42 -5 20 -25 -33 -19 4 14 86 51 128 79 180
115 217 44 45 112 182 133 266 16 65 33 78 33 25 0 -26 2 -27 24 -17 18 9 29
27 40 68 9 30 16 67 16 82 0 37 -29 93 -54 106 -19 10 -20 11 -1 8 10 -1 30
-17 42 -36z m-430 -298 c-3 -10 -5 -4 -5 12 0 17 2 24 5 18 2 -7 2 -21 0 -30z
m-392 -758 c26 -33 67 -79 92 -101 41 -38 48 -41 80 -34 19 5 45 18 58 30 34
32 56 22 76 -35 24 -68 24 -124 2 -131 -10 -3 -26 -10 -37 -15 -13 -7 -16 -7
-11 0 4 7 -6 11 -27 11 -23 0 -54 14 -98 43 -35 23 -81 52 -104 65 -83 47 -99
75 -100 184 -1 67 3 66 69 -17z m-75 51 c0 -2 -7 -7 -16 -10 -8 -3 -12 -2 -9
4 6 10 25 14 25 6z m435 -283 c-8 -34 -29 -29 -21 5 3 15 10 54 14 87 l7 60 3
-65 c2 -35 0 -75 -3 -87z m-204 -1350 c-7 -54 -8 -115 -1 -198 5 -66 10 -126
10 -132 0 -7 -21 9 -47 34 l-47 47 16 86 c15 81 69 253 77 245 2 -2 -2 -39 -8
-82z m-268 -280 c-7 -2 -19 -2 -25 0 -7 3 -2 5 12 5 14 0 19 -2 13 -5z"/>
<path d="M4753 12610 c-44 -92 -42 -126 2 -39 15 28 25 58 23 67 -2 11 -11 1
-25 -28z"/>
<path d="M4585 12161 c-3 -5 -1 -12 5 -16 5 -3 10 1 10 9 0 18 -6 21 -15 7z"/>
<path d="M4750 11968 c-12 -29 -62 -173 -111 -320 -85 -256 -120 -402 -118
-478 1 -26 3 -28 6 -10 31 199 42 243 113 450 98 281 105 301 123 336 22 43
30 74 19 74 -5 0 -20 -24 -32 -52z"/>
</g>
</svg>
