<?xml version="1.0" standalone="no"?>
<!DOCTYPE svg PUBLIC "-//W3C//DTD SVG 20010904//EN"
 "http://www.w3.org/TR/2001/REC-SVG-20010904/DTD/svg10.dtd">
<svg version="1.0" xmlns="http://www.w3.org/2000/svg"
 width="1024.000000pt" height="1024.000000pt" viewBox="0 0 1024.000000 1024.000000"
 preserveAspectRatio="xMidYMid meet">
<metadata>
Created by potrace 1.16, written by Peter Selinger 2001-2019
</metadata>
<g transform="translate(0.000000,1024.000000) scale(0.100000,-0.100000)"
fill="#000000" stroke="none">
<path d="M3952 9215 c-347 -79 -582 -445 -582 -906 0 -118 25 -251 62 -331 29
-64 62 -107 73 -96 3 2 8 32 11 66 4 34 11 62 15 62 5 0 16 -14 25 -31 13 -26
16 -78 19 -308 5 -381 28 -510 109 -628 33 -48 111 -100 138 -91 7 3 -4 13
-24 22 -45 22 -78 82 -108 200 -36 142 -26 148 38 23 79 -152 167 -292 213
-338 45 -45 122 -72 166 -59 l28 8 -32 1 c-72 2 -164 138 -179 264 -8 68 7 76
24 13 14 -54 64 -121 120 -160 33 -23 53 -30 92 -30 28 0 55 5 61 11 8 8 -4
10 -40 10 -55 -1 -89 21 -117 75 -19 37 -44 189 -43 262 l1 61 13 -67 c17 -83
57 -159 102 -194 46 -35 45 -8 -3 58 -38 51 -63 108 -63 143 -1 12 11 -2 30
-35 52 -95 140 -169 217 -184 42 -7 41 7 -2 22 -108 39 -217 247 -198 376 l7
49 33 -79 c38 -92 90 -167 135 -194 47 -29 53 -24 14 13 -59 55 -98 154 -117
290 -11 89 -13 192 -4 261 l7 46 53 0 c30 0 54 -3 54 -7 0 -5 9 -51 20 -103
13 -57 25 -170 31 -285 5 -104 14 -213 19 -242 9 -53 7 -312 -10 -1138 -6
-253 -10 -549 -10 -657 0 -181 2 -201 21 -241 l22 -44 -41 -119 c-53 -157 -59
-229 -32 -359 34 -160 99 -250 231 -320 37 -19 72 -35 78 -35 6 0 16 11 21 25
5 14 15 24 22 23 9 -2 13 9 12 35 -1 29 2 37 17 37 26 0 39 29 27 59 -74 184
-77 200 -53 346 8 50 15 131 15 181 l0 91 41 52 c47 59 36 -19 99 706 27 318
40 550 40 712 0 79 4 133 9 127 5 -5 30 -56 55 -114 l47 -105 -11 -100 c-39
-356 -60 -565 -66 -668 l-7 -118 27 -28 26 -27 -20 -155 c-66 -517 -99 -915
-120 -1444 -6 -132 -13 -256 -16 -276 l-6 -36 68 -24 c81 -29 78 -20 94 -244
12 -177 40 -1110 41 -1340 0 -308 -19 -356 -230 -597 -143 -164 -186 -199
-317 -263 -68 -33 -122 -67 -138 -85 -47 -56 -29 -130 37 -153 10 -4 84 -7
165 -7 111 -1 158 3 192 15 97 34 189 81 280 141 52 35 106 65 120 66 24 3 25
0 26 -50 1 -30 7 -59 13 -65 7 -7 52 -11 116 -12 133 0 136 2 165 145 42 205
39 297 -15 414 -53 117 -55 189 -10 426 47 244 104 597 121 745 13 119 15 196
10 375 -4 124 -11 261 -15 305 -5 44 -7 83 -6 86 4 5 156 -8 162 -15 2 -2 15
-57 28 -122 13 -66 40 -173 60 -239 62 -202 112 -371 274 -931 61 -211 93
-388 95 -524 l1 -115 -43 -90 c-52 -107 -159 -271 -220 -337 -25 -26 -88 -76
-141 -112 -123 -82 -152 -112 -158 -168 -4 -37 -1 -49 21 -75 39 -46 96 -65
212 -71 110 -5 221 12 322 50 70 26 137 88 182 167 36 66 50 75 50 36 0 -28
29 -38 137 -49 77 -8 76 -10 109 166 35 190 33 246 -16 387 -64 186 -70 241
-80 751 -14 686 -26 786 -132 1133 -28 92 -48 170 -45 174 4 3 71 17 149 30
78 13 144 26 147 28 2 3 -1 141 -8 307 -15 407 -14 667 5 997 12 196 14 350
10 529 -6 240 -5 255 14 292 41 81 20 184 -115 550 -111 300 -142 377 -172
429 -29 50 -47 118 -73 286 -41 263 -121 723 -140 804 -52 221 -138 421 -222
516 -84 93 -264 200 -360 212 -36 5 -55 17 -113 73 -89 83 -159 126 -305 185
-222 91 -338 156 -561 316 -95 69 -214 131 -304 159 -91 28 -238 35 -323 15z
m1096 -973 l43 -67 -4 -90 c-6 -115 -34 -333 -47 -362 -5 -12 -22 -29 -38 -37
-28 -14 -30 -21 -42 -112 -12 -92 -10 -301 5 -484 l6 -65 -44 105 c-24 58 -73
173 -110 255 -36 83 -79 191 -95 240 -37 110 -47 133 -90 209 -29 50 -34 65
-29 105 2 25 10 59 16 76 l12 30 17 -51 c10 -27 38 -77 64 -110 59 -76 67 -91
99 -199 l27 -90 6 50 c4 28 18 95 31 150 14 55 31 132 39 170 8 39 14 58 15
43 4 -93 42 38 46 157 3 71 15 145 24 145 3 -1 25 -31 49 -68z"/>
</g>
</svg>
