<?xml version="1.0" standalone="no"?>
<!DOCTYPE svg PUBLIC "-//W3C//DTD SVG 20010904//EN"
 "http://www.w3.org/TR/2001/REC-SVG-20010904/DTD/svg10.dtd">
<svg version="1.0" xmlns="http://www.w3.org/2000/svg"
 width="1024.000000pt" height="1536.000000pt" viewBox="0 0 1024.000000 1536.000000"
 preserveAspectRatio="xMidYMid meet">
<metadata>
Created by potrace 1.16, written by Peter Selinger 2001-2019
</metadata>
<g transform="translate(0.000000,1536.000000) scale(0.100000,-0.100000)"
fill="#000000" stroke="none">
<path d="M5030 14750 c-193 -33 -405 -144 -534 -280 -114 -122 -153 -224 -260
-686 -134 -584 -150 -713 -105 -846 85 -255 416 -478 596 -403 19 8 37 15 38
15 1 0 -10 -42 -25 -92 -128 -432 -44 -671 218 -618 155 32 243 117 363 354
45 88 101 188 124 221 23 33 45 69 49 79 13 37 15 9 2 -34 -51 -166 -108 -287
-248 -530 -120 -208 -234 -423 -337 -640 -97 -203 -259 -580 -268 -621 -15
-78 -26 -26 -59 286 -21 201 -29 657 -15 845 14 195 42 372 80 520 17 63 29
116 27 117 -2 2 -45 -15 -96 -37 -51 -23 -168 -64 -259 -91 -91 -28 -209 -63
-261 -79 -168 -52 -223 -103 -323 -305 -144 -288 -509 -1227 -596 -1529 -79
-276 -63 -480 45 -597 74 -78 240 -141 487 -181 l127 -22 -6 -50 c-12 -102
-66 -354 -140 -654 -87 -357 -134 -578 -134 -637 0 -51 20 -72 73 -78 l38 -4
3 -299 c4 -400 41 -737 206 -1894 190 -1330 250 -2057 265 -3185 7 -493 21
-863 36 -917 13 -51 41 -68 111 -68 36 0 58 -4 58 -11 0 -32 -36 -144 -71
-218 -100 -215 -289 -433 -510 -589 -144 -103 -182 -160 -148 -224 55 -103
486 -94 707 14 71 35 166 125 279 265 67 83 89 103 113 103 5 0 15 -28 21 -62
18 -92 47 -118 131 -118 81 0 123 23 137 77 6 21 25 115 42 208 27 149 30 186
27 300 -5 136 -25 218 -67 276 l-20 27 37 6 c65 10 74 22 83 122 25 267 33
1867 11 2279 -12 227 -41 576 -62 765 -20 171 -22 516 -6 1075 9 314 19 642
23 730 6 147 8 155 15 95 26 -202 63 -463 84 -585 95 -552 220 -1302 245
-1465 158 -1070 254 -1793 344 -2605 67 -607 65 -595 136 -595 33 0 38 -3 43
-28 12 -53 23 -429 19 -607 -4 -139 -1 -197 11 -254 53 -250 222 -387 416
-337 112 29 192 107 241 234 18 47 22 78 22 172 0 103 -4 134 -46 305 -25 105
-55 255 -66 335 -12 80 -23 158 -26 173 -4 25 0 30 39 46 28 13 45 27 49 43
21 76 -18 1673 -54 2183 -25 372 -80 787 -142 1075 -20 93 -22 132 -21 350 0
135 6 371 12 525 58 1377 59 1784 6 2147 -20 140 -20 138 21 138 52 0 61 27
46 137 -46 333 -156 796 -276 1162 -40 120 -52 167 -43 170 7 2 33 24 58 50
84 86 153 247 259 604 213 714 273 1037 257 1367 -7 156 -16 208 -52 308 -30
84 -100 168 -184 222 -50 32 -219 104 -365 154 -122 43 -314 139 -372 188 -28
23 -52 45 -52 48 -1 3 20 11 46 18 184 50 347 172 420 316 55 108 64 196 38
371 -23 155 -199 778 -272 966 -87 224 -216 360 -379 400 -27 7 -77 25 -111
40 -115 54 -246 71 -373 49z m775 -4130 c-3 -5 -29 -21 -57 -35 -56 -28 -132
-85 -124 -92 3 -3 32 4 65 16 68 23 81 25 81 11 0 -5 -29 -25 -65 -45 -36 -20
-63 -41 -60 -45 3 -5 11 -7 18 -5 7 2 26 6 42 9 l30 6 -23 -20 c-13 -11 -40
-24 -60 -29 -59 -15 -222 -24 -222 -13 0 6 39 47 88 92 59 55 112 94 166 120
73 37 135 53 121 30z m-1659 -161 l111 -12 -52 -76 c-29 -42 -62 -95 -74 -119
-22 -43 -23 -43 -64 -37 -60 10 -192 43 -265 66 -56 19 -62 23 -57 42 13 43
61 112 95 135 32 22 43 23 115 19 44 -3 130 -11 191 -18z"/>
</g>
</svg>
