<?xml version="1.0" standalone="no"?>
<!DOCTYPE svg PUBLIC "-//W3C//DTD SVG 20010904//EN"
 "http://www.w3.org/TR/2001/REC-SVG-20010904/DTD/svg10.dtd">
<svg version="1.0" xmlns="http://www.w3.org/2000/svg"
 width="1024.000000pt" height="1536.000000pt" viewBox="0 0 1024.000000 1536.000000"
 preserveAspectRatio="xMidYMid meet">
<metadata>
Created by potrace 1.16, written by Peter Selinger 2001-2019
</metadata>
<g transform="translate(0.000000,1536.000000) scale(0.100000,-0.100000)"
fill="#000000" stroke="none">
<path d="M4975 14770 c-196 -31 -373 -126 -516 -276 -173 -184 -254 -428 -220
-669 15 -106 38 -169 82 -219 l36 -41 9 -215 c16 -371 12 -463 -25 -647 -60
-303 -88 -376 -148 -392 -21 -6 -65 -18 -98 -27 -88 -23 -193 -82 -250 -139
-66 -65 -124 -181 -210 -415 -37 -102 -160 -432 -272 -735 -113 -302 -214
-584 -225 -625 -26 -97 -35 -288 -18 -361 46 -198 187 -283 572 -345 58 -9
111 -20 117 -24 9 -5 -11 -99 -68 -326 -97 -387 -133 -546 -166 -741 -32 -191
-32 -223 0 -256 l26 -25 -12 -159 c-13 -180 -7 -912 10 -1213 6 -102 18 -311
26 -465 9 -154 22 -372 30 -485 8 -113 19 -270 25 -350 21 -304 22 -315 39
-334 34 -40 113 -66 333 -107 l58 -10 29 -97 c109 -358 121 -416 121 -600 0
-249 23 -563 80 -1087 65 -595 84 -879 84 -1270 1 -266 -1 -318 -16 -365 -21
-67 -90 -189 -216 -380 -117 -177 -210 -273 -336 -345 -202 -116 -256 -163
-256 -226 0 -39 42 -84 98 -106 69 -26 336 -26 442 1 209 53 333 137 495 334
50 61 93 108 98 105 4 -2 7 -28 8 -56 1 -118 45 -162 152 -154 94 8 100 16
137 169 76 319 82 358 77 458 -4 74 -14 121 -43 210 l-38 115 0 215 c-1 217
10 354 59 770 23 194 56 493 70 643 4 37 7 159 7 270 0 219 -11 329 -67 662
-38 229 -58 453 -53 605 l3 105 101 3 102 3 22 -93 c13 -51 45 -165 72 -253
59 -190 63 -210 83 -480 24 -329 34 -407 130 -980 31 -183 77 -505 105 -720
49 -393 61 -659 35 -820 -13 -82 -15 -137 -11 -215 5 -67 1 -166 -9 -275 -43
-485 -30 -615 77 -731 53 -58 117 -90 203 -104 166 -26 311 43 372 177 62 134
50 290 -52 718 -24 98 -27 136 -32 350 -7 369 -5 414 31 800 58 600 60 639 60
1060 1 544 2 536 -169 1180 -40 151 -75 335 -75 394 0 14 8 22 28 27 70 15
127 39 154 63 30 27 30 28 43 191 29 364 40 795 40 1545 0 758 -5 914 -39
1195 -13 104 -13 105 11 133 27 34 28 44 7 162 -51 290 -238 935 -329 1132
-19 42 -35 77 -35 78 0 2 24 17 53 33 29 16 67 42 85 57 59 50 205 379 307
695 52 163 143 516 170 660 13 67 29 115 56 165 189 349 137 676 -180 1149
-166 248 -248 408 -285 561 -19 78 -49 281 -86 583 -34 282 -66 436 -121 582
-111 297 -323 502 -601 580 -85 24 -296 35 -393 20z m-215 -2435 c-74 -286
-98 -418 -81 -439 30 -36 230 -49 315 -20 63 22 106 69 173 189 31 55 78 141
106 190 51 93 187 295 198 295 16 0 -107 -302 -185 -458 -54 -108 -85 -157
-253 -397 -179 -257 -313 -527 -423 -847 l-36 -107 -13 112 c-22 190 -26 657
-6 827 27 240 84 469 165 665 23 55 53 128 67 163 14 35 27 61 29 60 1 -2 -24
-107 -56 -233z m948 -1610 c-85 -57 -110 -89 -36 -46 32 19 167 55 175 47 5
-4 -60 -46 -72 -46 -10 0 -127 -71 -123 -75 2 -2 35 7 73 21 71 24 115 30 115
17 -1 -8 -118 -55 -220 -89 -79 -26 -37 -29 60 -4 45 12 85 18 88 15 9 -9 -29
-33 -87 -55 -51 -20 -260 -55 -282 -48 -11 4 84 122 151 187 55 53 106 89 157
107 68 24 69 15 1 -31z m-1678 -180 c30 -19 79 -40 108 -46 28 -7 52 -16 52
-20 0 -5 -13 -42 -30 -84 -16 -42 -30 -84 -30 -95 0 -10 -5 -22 -10 -25 -28
-17 -239 62 -287 107 -28 27 -29 61 -3 104 22 35 103 94 130 94 9 0 40 -16 70
-35z"/>
</g>
</svg>
