<?xml version="1.0" standalone="no"?>
<!DOCTYPE svg PUBLIC "-//W3C//DTD SVG 20010904//EN"
 "http://www.w3.org/TR/2001/REC-SVG-20010904/DTD/svg10.dtd">
<svg version="1.0" xmlns="http://www.w3.org/2000/svg"
 width="1024.000000pt" height="1536.000000pt" viewBox="0 0 1024.000000 1536.000000"
 preserveAspectRatio="xMidYMid meet">
<metadata>
Created by potrace 1.16, written by Peter Selinger 2001-2019
</metadata>
<g transform="translate(0.000000,1536.000000) scale(0.100000,-0.100000)"
fill="#000000" stroke="none">
<path d="M5280 14744 c-246 -30 -448 -127 -657 -316 -29 -26 -70 -56 -91 -67
-139 -71 -248 -295 -259 -536 -8 -162 22 -255 111 -347 l46 -47 0 -125 c0 -88
-5 -139 -16 -172 -20 -58 -14 -70 34 -83 21 -6 58 -24 80 -41 35 -25 42 -36
42 -64 0 -42 63 -127 109 -146 27 -11 31 -17 31 -50 0 -54 47 -138 90 -162 46
-26 120 -19 231 22 45 16 83 29 84 27 16 -20 27 -61 32 -115 4 -58 0 -86 -35
-208 -22 -78 -46 -177 -53 -220 -22 -131 -14 -584 9 -584 4 0 31 36 61 80 32
47 90 113 139 157 46 42 117 118 157 167 40 50 105 129 144 176 39 47 94 114
121 150 50 64 150 247 174 318 l13 37 32 -67 c48 -100 61 -159 61 -290 0 -125
-25 -334 -42 -355 -15 -18 -63 -16 -152 7 -104 28 -113 24 -118 -48 -5 -67
-39 -139 -128 -272 -202 -302 -427 -756 -571 -1155 l-32 -87 -24 68 c-54 157
-87 341 -104 588 -15 206 -3 417 37 696 24 169 29 187 52 207 25 21 25 49 0
58 -7 2 -26 9 -41 15 l-28 10 21 28 c44 56 117 179 144 242 15 36 41 86 56
112 29 46 48 98 37 98 -24 0 -327 -68 -429 -96 -270 -74 -392 -144 -573 -329
-66 -68 -141 -137 -166 -153 -25 -17 -69 -58 -97 -90 -37 -42 -73 -70 -124
-97 -40 -21 -84 -46 -98 -56 -14 -9 -112 -67 -218 -128 -135 -77 -210 -113
-248 -121 -47 -10 -65 -21 -112 -67 -32 -30 -82 -72 -112 -93 -197 -137 -291
-369 -207 -513 35 -59 113 -130 183 -165 141 -71 383 -121 498 -102 72 11 182
56 204 82 11 14 6 17 -40 23 -65 9 -126 35 -153 65 -17 18 -20 36 -20 104 1
107 32 175 124 267 88 87 174 130 275 137 72 4 76 3 135 -33 79 -49 142 -66
272 -72 l106 -5 16 -94 c10 -52 37 -185 61 -297 61 -280 70 -355 71 -567 0
-232 -16 -325 -100 -595 -160 -506 -238 -793 -251 -917 -6 -65 -6 -68 22 -96
16 -16 35 -31 42 -33 10 -3 9 -23 -7 -91 -28 -118 -67 -396 -85 -603 -22 -242
-34 -524 -46 -1040 -11 -502 -25 -781 -46 -960 -7 -66 -14 -144 -14 -174 0
-82 31 -106 206 -160 77 -23 145 -47 151 -54 8 -8 21 -92 33 -217 12 -113 32
-270 46 -350 25 -136 27 -175 34 -610 5 -256 13 -532 19 -615 59 -849 64 -944
65 -1235 1 -333 -4 -373 -69 -546 -59 -157 -259 -473 -381 -604 -92 -96 -136
-126 -289 -186 -107 -43 -126 -54 -181 -108 -65 -66 -91 -126 -74 -172 16 -42
69 -49 365 -48 246 0 277 2 350 22 141 39 197 74 334 209 169 166 194 174 224
75 8 -26 20 -66 27 -89 7 -24 21 -50 30 -58 36 -33 187 -44 205 -15 3 6 15 65
27 132 11 68 38 179 61 248 38 117 41 132 41 240 0 105 -4 127 -42 257 -58
198 -65 257 -59 463 5 167 52 548 151 1225 62 424 62 750 0 1166 -21 140 -27
226 -31 443 l-6 269 72 -5 c40 -3 76 -9 81 -14 5 -5 18 -51 29 -101 45 -207
117 -382 258 -628 80 -140 121 -230 143 -315 13 -51 149 -484 161 -515 4 -11
78 -196 163 -410 289 -729 345 -945 346 -1315 0 -395 -35 -691 -105 -894 -66
-187 -85 -262 -85 -333 0 -77 17 -98 86 -109 63 -9 214 2 289 21 33 9 97 33
143 55 161 77 252 200 272 370 23 191 25 195 74 243 l46 44 -5 174 c-8 249
-13 313 -31 382 -23 89 -72 190 -142 293 -138 204 -145 242 -202 1204 -23 395
-25 419 -51 575 -54 326 -138 553 -311 838 -102 168 -122 208 -158 316 -40
119 -39 136 8 160 20 10 65 27 100 36 48 14 63 23 67 39 2 11 9 122 15 246 21
446 73 990 125 1325 55 350 58 396 51 755 -3 179 -10 366 -15 415 -25 250 -25
255 -5 255 10 0 30 9 43 19 l25 19 -13 88 c-27 189 -85 413 -246 959 -46 155
-59 246 -51 370 8 124 26 229 71 415 19 80 40 180 47 223 7 42 15 77 19 77 4
0 10 -26 14 -57 3 -32 24 -148 45 -258 57 -296 80 -434 96 -590 16 -156 38
-1161 35 -1597 l-2 -266 35 -27 c61 -47 58 -132 -15 -344 -37 -108 -39 -120
-39 -235 0 -93 7 -155 30 -270 16 -82 36 -159 45 -172 26 -40 66 -27 97 29 6
12 14 83 17 157 4 104 7 125 12 90 20 -122 2 -250 -46 -322 -15 -22 -30 -58
-32 -78 -4 -31 -1 -40 18 -54 48 -33 90 -20 217 67 146 100 238 232 283 403
24 92 21 168 -12 304 -11 47 -31 138 -45 204 -23 114 -23 119 -6 157 11 26 34
50 67 72 l50 32 7 715 c8 757 5 940 -18 1165 -14 143 -47 544 -59 715 -19 285
-72 804 -101 980 -64 406 -178 681 -324 786 l-50 36 16 36 c34 77 45 130 45
219 0 107 -20 200 -84 388 -53 153 -60 186 -87 410 -39 311 -87 491 -178 670
-60 118 -170 232 -252 262 l-55 20 -57 114 c-31 63 -77 140 -102 171 -103 130
-276 236 -457 282 -93 24 -248 38 -319 30z m897 -1244 c-4 -116 -13 -212 -33
-325 -23 -133 -28 -190 -28 -335 -1 -165 1 -180 27 -255 24 -73 57 -136 104
-205 20 -28 -53 35 -176 154 -155 150 -250 320 -251 445 0 75 21 113 115 207
158 158 213 266 223 434 4 74 7 89 14 70 6 -14 8 -97 5 -190z m-1792 108 c15
-52 13 -81 -3 -37 -12 31 -23 89 -17 89 2 0 11 -23 20 -52z m2401 -1038 c20
-73 26 -317 8 -359 -8 -17 -9 8 -6 91 4 103 -9 231 -34 338 -12 52 14 -5 32
-70z m61 -5552 c-3 -8 -6 -5 -6 6 -1 11 2 17 5 13 3 -3 4 -12 1 -19z"/>
<path d="M3700 11021 c-123 -38 -193 -140 -175 -258 6 -45 14 -55 113 -153 59
-58 115 -120 124 -138 19 -37 77 -66 115 -59 17 3 23 0 23 -15 0 -13 14 -25
45 -38 37 -16 49 -28 64 -64 11 -24 24 -47 30 -50 6 -4 11 -15 11 -25 0 -11 8
-29 18 -41 16 -20 21 -21 43 -10 58 30 148 122 176 178 25 52 28 66 26 157 -2
116 -24 222 -58 281 -77 132 -291 245 -458 243 -40 0 -83 -4 -97 -8z"/>
</g>
</svg>
