<?xml version="1.0" standalone="no"?>
<!DOCTYPE svg PUBLIC "-//W3C//DTD SVG 20010904//EN"
 "http://www.w3.org/TR/2001/REC-SVG-20010904/DTD/svg10.dtd">
<svg version="1.0" xmlns="http://www.w3.org/2000/svg"
 width="1024.000000pt" height="1536.000000pt" viewBox="0 0 1024.000000 1536.000000"
 preserveAspectRatio="xMidYMid meet">
<metadata>
Created by potrace 1.16, written by Peter Selinger 2001-2019
</metadata>
<g transform="translate(0.000000,1536.000000) scale(0.100000,-0.100000)"
fill="#000000" stroke="none">
<path d="M5010 14945 c-36 -8 -106 -35 -157 -60 -50 -25 -97 -45 -103 -45 -20
0 -115 -52 -160 -89 -111 -89 -268 -243 -300 -294 -19 -31 -45 -62 -57 -68
-53 -28 -121 -170 -149 -309 -29 -145 -1 -326 65 -417 21 -29 51 -51 114 -82
l86 -42 10 -50 c16 -72 14 -141 -6 -215 -16 -59 -16 -68 -2 -92 18 -32 49 -39
102 -21 39 13 40 13 68 -22 21 -25 27 -41 23 -61 -4 -19 1 -32 17 -47 13 -12
26 -21 31 -21 4 0 8 -15 8 -33 0 -40 15 -57 51 -57 39 0 74 -37 94 -97 19 -60
63 -103 103 -102 15 0 79 20 142 43 63 24 118 42 122 40 3 -2 18 -35 32 -72
30 -77 53 -115 67 -107 18 12 9 -27 -18 -73 -14 -26 -43 -65 -64 -87 -44 -46
-139 -200 -139 -225 0 -28 77 -108 117 -121 49 -16 144 -6 196 21 23 12 63 39
89 61 26 21 54 39 63 39 27 0 124 80 170 141 46 61 82 126 121 219 13 30 23
49 24 42 0 -19 -57 -160 -82 -199 -11 -18 -36 -52 -55 -76 -20 -23 -44 -60
-53 -83 -14 -33 -26 -44 -63 -58 -25 -9 -51 -24 -57 -32 -7 -7 -23 -14 -36
-14 -26 0 -27 -1 -126 -155 -233 -361 -347 -565 -426 -765 -44 -113 -118 -341
-150 -465 -32 -122 -33 -122 -57 25 -35 212 -29 491 16 715 23 116 174 572
229 692 21 44 74 137 118 206 89 136 109 174 98 184 -12 12 -98 -16 -191 -63
-402 -201 -460 -245 -534 -399 -23 -49 -46 -96 -49 -103 -4 -8 -31 -22 -61
-33 -66 -23 -88 -42 -113 -96 -10 -24 -22 -43 -27 -43 -4 0 -79 -41 -166 -91
-129 -74 -165 -90 -190 -86 -23 4 -43 -4 -82 -29 -29 -19 -58 -43 -65 -52 -9
-13 -39 -21 -103 -30 -188 -26 -219 -36 -313 -107 -25 -19 -53 -35 -62 -35
-42 0 -160 -72 -210 -128 -70 -78 -175 -285 -191 -376 -17 -100 -4 -133 74
-193 34 -26 98 -76 142 -112 44 -35 105 -79 135 -98 30 -20 65 -44 76 -55 23
-20 142 -43 180 -34 24 6 215 140 259 182 77 73 68 72 126 20 37 -33 60 -46
81 -46 l30 0 -26 -31 c-34 -40 -36 -101 -4 -123 29 -20 71 -20 109 0 l30 15
-27 -41 c-23 -34 -25 -44 -16 -65 14 -31 75 -49 122 -35 19 6 36 10 38 10 2 0
1 -24 -3 -52 -9 -71 9 -98 54 -81 17 6 71 44 121 85 69 56 96 86 119 130 28
55 29 64 30 192 1 108 -2 142 -15 167 -17 35 -102 129 -115 129 -4 0 -5 -60
-3 -132 3 -73 1 -153 -4 -178 -8 -37 -10 -19 -11 100 -1 80 -1 161 -2 180 0
45 -35 82 -113 121 -32 16 -63 29 -68 29 -6 0 -36 16 -68 35 -32 19 -64 35
-71 35 -8 0 -34 14 -59 31 -69 47 -86 51 -128 34 -55 -23 -187 -158 -213 -219
-38 -88 -25 -175 31 -203 22 -12 27 -10 46 11 l21 23 26 -19 c33 -24 34 -33 5
-34 -60 -4 -137 -17 -171 -30 -55 -20 -72 -18 -113 18 -35 31 -36 34 -29 82 9
68 58 192 105 265 39 60 126 155 165 178 20 12 20 13 1 28 -11 8 -36 18 -55
21 -47 9 -168 57 -154 61 6 2 39 -7 74 -22 34 -14 72 -25 83 -25 12 -1 39 -8
61 -17 22 -8 74 -27 116 -42 41 -15 104 -48 139 -72 92 -64 137 -89 210 -115
82 -30 94 -30 159 2 57 29 71 24 71 -21 0 -42 41 -166 71 -217 30 -50 32 -59
30 -138 -1 -47 -6 -114 -10 -149 -4 -35 -3 -134 2 -220 15 -225 -8 -451 -78
-766 -13 -60 -53 -243 -89 -405 -58 -262 -91 -442 -110 -608 -6 -49 -5 -55 21
-80 15 -15 39 -34 52 -42 23 -15 23 -16 11 -105 -6 -50 -14 -234 -17 -410 -5
-328 -3 -377 52 -1115 20 -268 41 -585 65 -970 11 -179 22 -363 25 -410 17
-267 29 -381 41 -391 16 -13 291 -100 397 -124 50 -12 78 -24 81 -34 3 -9 17
-70 32 -136 14 -66 44 -167 66 -225 36 -94 41 -119 49 -235 9 -136 20 -265 45
-555 16 -183 61 -556 94 -770 21 -137 62 -524 81 -772 7 -90 9 -235 6 -340 -4
-153 -9 -199 -30 -281 -30 -113 -79 -209 -155 -304 -30 -38 -96 -126 -147
-198 -101 -142 -223 -267 -295 -302 -25 -12 -89 -42 -142 -67 -120 -55 -181
-96 -219 -149 -57 -79 -24 -130 103 -158 90 -20 464 -18 577 4 145 27 173 47
396 271 131 131 220 213 258 235 32 19 60 31 63 28 10 -10 23 -140 24 -233 0
-112 5 -118 95 -112 35 2 67 7 71 11 4 3 17 64 29 134 32 181 49 244 97 342
40 83 42 90 42 186 1 120 -24 198 -99 315 -59 91 -90 161 -113 249 -14 56 -17
115 -16 391 1 350 12 524 50 775 13 88 31 219 39 290 9 72 19 148 23 170 l7
40 48 -73 c198 -306 604 -1061 685 -1277 88 -234 96 -296 82 -680 -12 -307
-26 -433 -58 -493 -10 -20 -57 -91 -103 -157 -125 -180 -149 -232 -149 -315
l0 -68 37 -13 c54 -17 201 -5 306 25 173 51 320 134 445 251 81 74 96 123 127
390 20 179 72 385 96 385 13 0 69 -92 104 -170 41 -91 45 -95 87 -77 43 18 91
74 83 96 -45 110 -76 217 -90 307 -9 60 -23 149 -30 199 -26 167 -103 280
-272 398 -164 115 -257 262 -352 557 -19 62 -124 527 -171 765 -72 364 -149
548 -354 852 -61 90 -132 199 -159 241 -50 80 -87 181 -87 237 l0 32 123 44
122 44 1 450 c1 299 7 534 17 700 19 277 36 460 46 485 9 24 69 74 117 98 22
11 60 37 83 56 24 20 47 36 52 36 18 0 136 125 164 173 15 26 39 89 53 140 23
80 26 109 24 227 -1 74 -7 187 -13 251 -13 129 -4 308 14 314 7 1 35 7 62 11
l50 9 6 215 c6 223 22 470 39 600 37 284 51 954 25 1200 -9 80 -20 244 -26
365 -5 121 -14 272 -19 335 -5 63 -13 266 -19 450 -15 508 -20 581 -47 765
-25 170 -66 335 -106 426 -32 75 -133 164 -248 220 -52 26 -105 49 -117 53
-19 6 -21 12 -15 39 4 18 6 58 5 90 -1 31 -1 103 -1 160 0 56 1 138 1 182 0
198 -85 373 -291 598 -107 117 -141 189 -202 432 -55 218 -79 292 -127 390
-92 185 -251 371 -378 441 -115 63 -207 86 -370 90 -98 3 -159 -1 -205 -11z
m-532 -1172 l84 -83 -48 15 c-81 24 -184 150 -184 224 0 21 5 17 32 -25 17
-27 69 -86 116 -131z m156 -98 c27 -8 75 -15 107 -15 33 0 61 -5 65 -11 12
-20 -135 -5 -186 19 -55 25 -51 27 14 7z m1733 -235 c91 -106 140 -214 167
-370 9 -47 -3 -30 -49 70 -33 72 -128 245 -208 380 l-21 35 24 -20 c12 -11 52
-54 87 -95z m6 -764 c76 -58 102 -85 50 -51 -76 49 -153 107 -153 117 0 7 5 7
13 1 6 -5 47 -35 90 -67z m171 -65 c-7 -43 -17 -52 -28 -25 -6 15 21 80 30 71
3 -2 2 -23 -2 -46z m-2429 -1622 c-4 -5 -2 -63 5 -127 8 -81 9 -139 2 -187
l-9 -70 -3 120 c-1 66 -5 146 -9 177 -6 52 0 98 14 98 4 0 3 -5 0 -11z m-156
-244 c0 -86 -3 -114 -16 -130 l-16 -20 9 20 c5 11 8 79 7 150 -1 79 2 122 7
110 5 -11 9 -69 9 -130z m132 -202 c-5 -10 -24 -31 -42 -48 -31 -29 -31 -28 5
18 40 49 54 60 37 30z m2339 -210 c10 -82 24 -207 30 -278 6 -72 19 -200 30
-285 17 -140 18 -182 9 -428 -6 -150 -14 -283 -19 -295 l-9 -22 0 22 c-1 13
-25 107 -55 210 -56 193 -153 573 -167 653 -5 30 -3 65 7 105 20 83 147 476
152 471 2 -3 12 -71 22 -153z m-2267 53 c-21 -24 -40 -42 -42 -40 -4 4 69 84
77 84 2 0 -14 -20 -35 -44z m2339 -2648 c-22 -46 -52 -116 -66 -156 -14 -40
-34 -87 -43 -105 -19 -33 -18 -32 -23 -457 -1 -80 -5 -134 -8 -122 -4 13 -6
138 -5 277 1 237 3 257 23 302 12 26 33 80 46 118 28 81 107 247 112 234 2 -5
-14 -46 -36 -91z m38 -770 c-9 -30 -10 -29 -5 16 3 27 6 74 7 105 2 51 2 50 5
-16 2 -40 -1 -87 -7 -105z m-14 -123 c-8 -33 -68 -125 -97 -150 -54 -47 -61
-46 -13 0 28 29 63 77 80 112 31 67 40 77 30 38z"/>
</g>
</svg>
