<?xml version="1.0" standalone="no"?>
<!DOCTYPE svg PUBLIC "-//W3C//DTD SVG 20010904//EN"
 "http://www.w3.org/TR/2001/REC-SVG-20010904/DTD/svg10.dtd">
<svg version="1.0" xmlns="http://www.w3.org/2000/svg"
 width="1024.000000pt" height="1536.000000pt" viewBox="0 0 1024.000000 1536.000000"
 preserveAspectRatio="xMidYMid meet">
<metadata>
Created by potrace 1.16, written by Peter Selinger 2001-2019
</metadata>
<g transform="translate(0.000000,1536.000000) scale(0.100000,-0.100000)"
fill="#000000" stroke="none">
<path d="M5090 14650 c-221 -47 -396 -158 -515 -325 -59 -83 -85 -143 -142
-332 -44 -150 -47 -164 -47 -283 -1 -120 0 -128 30 -190 17 -36 39 -73 49 -83
16 -17 17 -37 12 -260 -4 -207 -10 -272 -37 -447 -28 -177 -33 -236 -36 -435
l-4 -230 -62 -16 c-92 -23 -110 -33 -152 -79 -51 -57 -98 -159 -141 -310 -20
-69 -50 -161 -67 -205 -17 -44 -57 -158 -89 -254 -33 -96 -66 -185 -75 -198
-31 -48 -124 -234 -124 -248 0 -60 -42 51 -161 428 -33 103 -85 254 -115 335
l-56 147 8 100 c5 55 9 152 8 215 -1 105 -4 124 -38 224 -38 111 -45 158 -65
409 -9 120 -19 147 -53 147 -34 0 -59 -20 -79 -63 -15 -35 -19 -66 -19 -188 0
-131 -2 -148 -19 -163 -19 -17 -24 -17 -92 -1 -82 18 -137 13 -186 -16 -66
-40 -130 -179 -120 -257 3 -21 12 -106 21 -191 9 -91 22 -163 30 -176 8 -12
52 -55 97 -96 142 -128 169 -156 169 -176 0 -11 -28 -63 -63 -114 -88 -130
-117 -182 -117 -207 0 -12 21 -68 46 -124 25 -55 113 -270 196 -477 157 -393
208 -502 314 -664 141 -215 232 -272 351 -218 49 23 106 80 209 209 87 108
159 216 193 290 14 28 27 52 30 52 8 0 51 -301 51 -350 0 -19 -5 -51 -10 -70
-6 -19 -24 -100 -41 -180 -52 -247 -124 -532 -219 -862 -49 -174 -90 -331 -90
-348 0 -32 35 -74 71 -85 13 -5 18 -13 14 -28 -11 -51 -45 -325 -59 -482 -34
-371 -67 -1181 -82 -2030 l-7 -391 24 -27 c20 -23 47 -33 164 -62 77 -19 149
-35 161 -35 19 0 22 -7 28 -92 12 -160 35 -297 78 -468 35 -140 41 -179 39
-255 -5 -235 25 -601 79 -965 28 -190 93 -734 104 -875 3 -38 11 -131 17 -205
19 -212 17 -571 -2 -647 -19 -75 -65 -153 -139 -239 -30 -34 -102 -118 -160
-186 -58 -68 -141 -159 -185 -204 -72 -73 -93 -87 -215 -146 -80 -39 -153 -83
-178 -106 -38 -36 -43 -44 -40 -78 4 -52 34 -70 148 -91 138 -25 499 -25 590
0 125 34 225 96 404 252 48 42 89 75 91 73 3 -2 9 -43 14 -90 6 -48 16 -96 23
-108 17 -28 81 -43 143 -35 77 10 92 24 100 92 3 32 20 129 37 216 41 213 37
301 -21 470 -56 164 -65 242 -58 477 7 209 17 325 71 800 56 490 66 620 66
854 0 272 -16 416 -80 726 -56 274 -73 411 -68 570 l3 115 13 -117 c13 -122
48 -261 83 -331 12 -23 52 -85 89 -137 75 -105 125 -200 176 -331 86 -224 169
-386 369 -724 348 -588 540 -988 592 -1235 21 -103 29 -408 13 -555 -14 -135
-49 -288 -86 -377 -14 -35 -67 -125 -116 -202 -99 -151 -118 -198 -98 -245 24
-59 138 -76 308 -46 241 42 412 118 461 205 17 30 26 72 36 173 15 140 38 228
88 341 l31 69 13 -38 c18 -53 31 -65 67 -65 73 0 102 85 72 213 -9 38 -16 112
-16 165 0 112 -20 209 -56 269 -14 24 -56 73 -95 110 -38 37 -83 88 -99 113
-60 94 -163 459 -265 940 -74 351 -123 549 -185 755 -108 359 -186 510 -360
700 -111 122 -120 141 -120 262 0 54 3 121 6 149 l6 50 138 32 c75 18 157 43
181 55 55 27 49 -3 89 512 44 562 88 1129 100 1270 30 341 22 818 -17 1103
l-17 123 32 29 c18 16 32 37 32 48 0 45 -200 801 -326 1230 -25 84 -42 157
-39 162 7 11 127 525 151 645 l18 90 23 -145 c36 -226 80 -466 128 -695 24
-116 62 -321 85 -455 61 -368 106 -606 155 -821 155 -686 154 -683 200 -695
14 -3 39 -4 56 0 26 5 29 3 24 -13 -15 -47 -36 -196 -41 -291 -5 -85 -2 -124
15 -204 12 -55 21 -135 21 -178 0 -82 11 -118 34 -118 18 0 26 -22 26 -71 0
-47 35 -89 74 -89 65 0 168 58 270 151 80 72 92 93 148 247 39 107 49 146 45
179 -2 24 -41 120 -90 225 -91 197 -117 256 -117 269 0 5 18 21 41 36 64 42
71 65 54 165 -8 46 -31 189 -50 318 -48 308 -120 683 -201 1038 -36 158 -72
319 -79 359 -26 133 -84 516 -120 798 -65 512 -105 788 -136 940 -33 165 -82
355 -104 409 -35 84 -103 131 -265 185 -36 12 -75 29 -87 39 -21 16 -22 21
-13 82 25 170 5 390 -57 630 -19 74 -43 169 -53 210 -28 110 -47 225 -80 500
-50 409 -84 571 -149 714 -83 183 -239 331 -423 400 -152 57 -389 73 -558 36z
m-660 -1080 c6 -25 19 -58 27 -73 8 -16 12 -31 9 -34 -2 -3 -16 18 -30 45 -33
65 -51 174 -40 238 8 48 8 47 15 -41 3 -49 12 -110 19 -135z m61 -897 c-6 -78
-14 -218 -18 -310 -4 -96 -10 -157 -14 -143 -15 51 -9 251 13 455 25 228 36
227 19 -2z m1854 -118 c23 -166 19 -421 -8 -412 -6 2 -10 103 -11 264 0 144 0
260 1 259 1 -1 9 -51 18 -111z m-471 -400 c4 -16 -3 -91 -14 -165 -16 -104
-49 -352 -50 -367 0 -2 -9 -3 -19 -3 -20 0 -123 72 -155 108 -11 12 -29 22
-41 22 -48 0 -90 -46 -226 -250 -151 -224 -269 -443 -350 -646 -58 -147 -179
-508 -179 -536 0 -10 -4 -18 -8 -18 -11 0 -58 216 -79 365 -13 89 -17 187 -17
380 -1 276 11 378 56 510 35 103 38 123 19 147 -17 20 -21 21 -76 10 -33 -7
-69 -22 -82 -34 -13 -12 -23 -19 -23 -15 0 11 91 157 210 337 64 96 135 208
159 248 24 40 46 71 48 68 2 -2 -10 -77 -27 -167 -31 -169 -38 -201 -71 -353
-29 -135 -27 -161 19 -203 34 -31 37 -39 37 -86 0 -29 -4 -68 -8 -87 -5 -28 1
-21 31 35 61 113 128 200 196 254 82 66 192 182 267 284 59 78 202 349 229
430 l12 38 68 -138 c37 -76 71 -151 74 -168z m1325 -4990 c1 -22 -4 -58 -11
-80 l-11 -40 -8 35 c-4 19 -5 69 -2 110 6 72 7 74 19 45 7 -16 13 -48 13 -70z"/>
<path d="M4871 11024 c0 -11 3 -14 6 -6 3 7 2 16 -1 19 -3 4 -6 -2 -5 -13z"/>
<path d="M4862 10975 c0 -16 2 -22 5 -12 2 9 2 23 0 30 -3 6 -5 -1 -5 -18z"/>
</g>
</svg>
