<?xml version="1.0" standalone="no"?>
<!DOCTYPE svg PUBLIC "-//W3C//DTD SVG 20010904//EN"
 "http://www.w3.org/TR/2001/REC-SVG-20010904/DTD/svg10.dtd">
<svg version="1.0" xmlns="http://www.w3.org/2000/svg"
 width="1024.000000pt" height="1536.000000pt" viewBox="0 0 1024.000000 1536.000000"
 preserveAspectRatio="xMidYMid meet">
<metadata>
Created by potrace 1.16, written by Peter Selinger 2001-2019
</metadata>
<g transform="translate(0.000000,1536.000000) scale(0.100000,-0.100000)"
fill="#000000" stroke="none">
<path d="M5135 14925 c-90 -17 -165 -44 -250 -89 -37 -20 -77 -36 -89 -36 -37
0 -139 -55 -216 -117 -133 -106 -217 -215 -268 -351 -22 -58 -26 -83 -26 -187
0 -126 14 -186 53 -230 10 -11 23 -40 30 -64 7 -25 19 -54 27 -66 12 -19 7
-36 -51 -174 -94 -222 -88 -254 50 -263 40 -3 40 -3 37 -42 -4 -43 13 -92 33
-100 7 -2 18 -27 25 -55 8 -34 21 -59 39 -74 20 -16 31 -38 40 -79 14 -65 45
-117 81 -135 40 -20 118 -14 215 16 49 16 95 26 102 24 13 -5 29 -66 44 -173
l10 -75 -62 -59 c-75 -71 -126 -95 -394 -188 -222 -77 -265 -99 -317 -156 -71
-78 -113 -168 -302 -648 -58 -148 -153 -364 -210 -480 l-104 -209 -27 60
c-123 266 -319 673 -335 696 -11 15 -29 30 -39 34 -27 8 -60 174 -59 300 1
139 -25 223 -137 446 -66 131 -72 155 -80 303 -3 66 -10 125 -16 133 -33 39
-117 -16 -143 -94 -20 -58 -20 -139 -1 -238 8 -43 12 -81 10 -86 -3 -4 -22 -1
-43 8 -136 57 -289 74 -339 37 -35 -26 -49 -73 -36 -116 8 -28 6 -38 -15 -66
-32 -42 -40 -113 -18 -147 15 -23 15 -28 1 -55 -24 -46 -19 -103 11 -139 20
-24 23 -34 15 -50 -22 -40 -13 -73 32 -115 47 -45 199 -132 291 -167 76 -29
108 -63 130 -137 l19 -60 -45 -59 c-58 -75 -68 -95 -68 -134 0 -40 130 -420
215 -629 210 -516 352 -747 509 -827 73 -38 161 -37 239 0 127 63 340 309 458
531 13 25 27 46 30 46 11 0 23 -239 23 -425 -1 -229 -1 -231 -189 -1185 -42
-212 -76 -404 -77 -427 -1 -45 14 -73 39 -73 13 0 14 -12 9 -72 -17 -194 -37
-558 -56 -993 -45 -1064 -61 -1418 -71 -1588 -6 -98 -8 -188 -5 -201 8 -31 58
-52 173 -71 137 -23 129 -18 142 -83 14 -73 136 -320 959 -1953 l301 -595 -5
-100 c-27 -576 -100 -830 -318 -1100 -134 -167 -264 -284 -485 -440 -174 -122
-253 -216 -266 -319 -6 -43 -3 -55 17 -85 54 -80 151 -105 398 -104 307 2 468
59 650 230 63 58 160 124 183 124 3 0 7 -17 11 -38 13 -86 80 -118 192 -93 84
19 112 53 172 207 76 193 83 229 80 391 l-3 139 33 66 c19 36 57 89 86 117
l53 52 12 -43 c35 -125 67 -150 153 -124 99 29 136 82 117 168 -6 23 -14 114
-18 203 -13 255 -50 326 -268 533 -153 144 -187 192 -185 261 0 26 34 193 76
371 142 616 155 704 163 1037 7 295 -3 409 -54 622 -48 205 -82 380 -83 422 0
34 3 37 33 42 194 32 282 53 310 71 l32 22 1 624 c0 469 5 690 17 885 28 431
37 602 37 768 0 154 -14 433 -28 559 -7 62 -7 64 25 94 39 37 42 70 13 146
-11 28 -18 53 -17 55 2 1 18 -3 35 -9 40 -16 54 -8 104 58 45 59 419 683 548
914 112 200 227 429 276 547 32 77 36 95 32 148 -8 95 -84 305 -272 749 -188
444 -291 692 -355 853 -98 247 -174 385 -262 478 l-56 60 -6 105 c-8 140 -31
311 -68 505 -88 461 -176 748 -269 874 -32 44 -33 46 -35 165 -2 98 -9 143
-34 240 -65 243 -139 386 -270 517 -130 129 -278 207 -455 238 -80 15 -265 12
-351 -4z m889 -1621 c-18 -135 -27 -258 -31 -432 l-6 -242 -43 63 c-45 67 -58
77 -104 77 -17 0 -30 7 -34 17 -11 28 -36 213 -36 267 0 44 4 53 51 104 63 69
113 142 174 255 26 48 49 86 51 84 2 -2 -8 -88 -22 -193z m-1062 -1201 c72
-25 289 -25 402 0 44 9 80 16 82 15 1 -2 -90 -140 -202 -308 -338 -506 -430
-696 -549 -1127 -16 -57 -30 -101 -32 -100 -2 2 -15 71 -30 153 -24 133 -26
175 -27 394 -1 201 2 260 17 329 26 121 78 289 159 513 l71 197 28 -24 c16
-13 52 -31 81 -42z m1551 -1409 c47 -105 111 -242 142 -304 51 -102 58 -122
63 -192 2 -43 9 -81 13 -84 23 -14 18 -25 -214 -426 -53 -92 -117 -209 -142
-259 -26 -50 -48 -89 -50 -87 -3 2 -18 47 -34 99 -16 52 -45 136 -65 187 -20
52 -36 108 -36 125 0 18 -10 65 -22 105 -21 72 -21 74 -4 155 10 45 56 215
103 377 47 162 99 343 116 403 17 59 34 104 38 100 4 -5 45 -94 92 -199z
m-1207 -5699 c24 -93 43 -177 43 -185 0 -8 -21 26 -47 75 -26 50 -69 124 -96
165 -27 41 -55 85 -63 98 l-14 23 67 -3 67 -3 43 -170z"/>
</g>
</svg>
