<?xml version="1.0" standalone="no"?>
<!DOCTYPE svg PUBLIC "-//W3C//DTD SVG 20010904//EN"
 "http://www.w3.org/TR/2001/REC-SVG-20010904/DTD/svg10.dtd">
<svg version="1.0" xmlns="http://www.w3.org/2000/svg"
 width="1024.000000pt" height="1536.000000pt" viewBox="0 0 1024.000000 1536.000000"
 preserveAspectRatio="xMidYMid meet">
<metadata>
Created by potrace 1.16, written by Peter Selinger 2001-2019
</metadata>
<g transform="translate(0.000000,1536.000000) scale(0.100000,-0.100000)"
fill="#000000" stroke="none">
<path d="M5355 14115 c-95 -17 -184 -48 -280 -97 -233 -117 -364 -252 -434
-444 -40 -111 -54 -201 -50 -334 3 -95 8 -122 27 -158 21 -40 22 -55 22 -230
0 -273 27 -407 104 -519 42 -62 77 -75 110 -44 l24 22 48 -36 c79 -60 175
-101 308 -130 l29 -6 -59 -60 c-130 -132 -234 -192 -514 -293 -85 -31 -172
-69 -194 -84 -71 -49 -111 -123 -202 -377 -51 -144 -83 -220 -268 -629 -69
-153 -126 -282 -126 -287 0 -5 -4 -9 -9 -9 -10 0 -114 115 -250 275 -51 61
-119 135 -150 165 -56 54 -59 59 -100 190 -24 74 -75 216 -113 315 -66 168
-71 187 -78 287 -5 58 -14 119 -22 135 -30 63 -120 28 -173 -68 -38 -70 -47
-194 -20 -292 13 -50 15 -69 6 -86 -14 -25 -16 -25 -143 -26 -103 0 -128 -10
-170 -66 -20 -27 -20 -30 -16 -274 3 -161 4 -173 30 -228 35 -75 144 -189 212
-222 28 -14 74 -28 101 -31 28 -4 55 -11 62 -16 21 -17 26 -67 9 -93 -25 -37
-20 -87 12 -128 15 -20 71 -90 124 -156 333 -410 509 -594 628 -656 132 -69
227 -53 357 60 54 48 143 170 174 240 11 25 22 45 24 45 2 0 2 -15 -1 -32 -33
-249 -61 -432 -94 -618 -23 -124 -63 -353 -91 -510 -27 -157 -61 -343 -74
-415 -31 -160 -32 -208 -5 -235 11 -11 29 -20 39 -20 11 0 22 -3 24 -8 5 -7 1
-109 -43 -982 -11 -228 -27 -552 -35 -720 -25 -510 -57 -991 -100 -1515 -14
-173 -38 -476 -70 -880 -8 -104 -19 -254 -25 -333 -21 -301 -31 -436 -51 -687
-22 -276 -25 -352 -14 -384 7 -24 72 -64 133 -82 23 -7 42 -15 42 -19 0 -18
-111 -187 -164 -250 -61 -73 -174 -179 -258 -243 -26 -20 -119 -78 -205 -131
-148 -89 -225 -151 -252 -203 -6 -12 -11 -40 -11 -63 0 -78 74 -120 244 -141
199 -24 416 26 673 154 60 30 145 79 189 109 l80 53 -4 -52 c-4 -50 -3 -53 29
-72 25 -15 51 -21 97 -21 101 0 160 39 204 135 21 46 23 64 23 225 0 117 -6
210 -17 280 -9 58 -19 128 -22 156 l-5 52 75 4 c93 4 119 26 134 108 10 59 76
784 110 1215 6 72 17 213 25 315 9 102 31 385 50 630 48 611 72 872 96 1025
34 222 88 532 129 735 48 234 50 243 55 239 3 -4 36 -431 70 -919 13 -176 40
-484 69 -795 3 -27 17 -171 31 -320 14 -148 27 -288 30 -310 2 -22 30 -310 60
-640 86 -925 115 -1237 121 -1275 9 -56 26 -71 88 -77 53 -5 56 -7 56 -33 0
-40 -28 -127 -66 -203 -71 -144 -192 -287 -403 -477 -140 -125 -173 -189 -136
-260 47 -92 331 -135 532 -82 45 12 108 33 139 47 99 44 222 133 277 201 l52
63 23 -22 c19 -18 36 -22 85 -22 131 0 168 53 194 274 18 159 12 287 -26 486
l-18 97 21 8 c11 4 40 13 63 19 74 20 77 27 70 176 -4 71 -22 330 -41 575 -33
417 -42 513 -66 765 -5 55 -21 219 -35 365 -14 146 -41 411 -60 590 -62 587
-68 669 -61 870 8 205 28 510 51 755 22 227 97 780 108 791 2 2 9 -31 16 -74
15 -90 45 -157 85 -186 23 -18 42 -21 114 -21 75 0 95 4 145 28 127 63 228
195 257 334 16 77 8 252 -18 378 -11 55 -24 123 -27 151 l-7 51 40 6 c58 10
83 35 93 93 11 70 11 745 -1 1029 -28 681 -113 1483 -211 1995 -75 396 -117
523 -208 638 -58 73 -124 113 -281 172 -268 100 -318 129 -451 255 -47 46
-105 96 -129 111 l-43 29 59 12 c223 47 272 69 369 167 108 108 172 265 191
461 12 130 -46 421 -122 618 -75 196 -155 327 -263 435 -109 108 -244 174
-413 202 -85 13 -287 11 -373 -5z m222 -2628 c-25 -50 -94 -168 -152 -262
-144 -229 -180 -305 -264 -545 -40 -113 -78 -223 -86 -245 -7 -22 -35 -107
-60 -190 -60 -194 -56 -186 -66 -145 -31 138 -37 716 -9 915 12 83 70 411 90
501 l11 52 42 -24 c133 -74 293 -70 462 10 39 18 72 32 74 30 3 -2 -16 -46
-42 -97z m882 -1501 c46 -290 62 -527 67 -966 2 -274 0 -406 -6 -390 -22 57
-172 821 -177 905 -3 50 -1 128 6 175 17 126 73 410 81 410 4 0 17 -60 29
-134z m142 -2146 c-8 -21 -10 -14 -10 37 -1 82 13 117 17 43 2 -31 -2 -67 -7
-80z"/>
</g>
</svg>
