<?xml version="1.0" standalone="no"?>
<!DOCTYPE svg PUBLIC "-//W3C//DTD SVG 20010904//EN"
 "http://www.w3.org/TR/2001/REC-SVG-20010904/DTD/svg10.dtd">
<svg version="1.0" xmlns="http://www.w3.org/2000/svg"
 width="1024.000000pt" height="1536.000000pt" viewBox="0 0 1024.000000 1536.000000"
 preserveAspectRatio="xMidYMid meet">
<metadata>
Created by potrace 1.16, written by Peter Selinger 2001-2019
</metadata>
<g transform="translate(0.000000,1536.000000) scale(0.100000,-0.100000)"
fill="#000000" stroke="none">
<path d="M3665 13785 c-100 -16 -239 -56 -300 -87 -22 -11 -69 -42 -105 -68
-36 -25 -90 -57 -120 -70 -77 -32 -194 -114 -246 -174 -24 -28 -62 -85 -83
-126 -58 -113 -75 -187 -76 -315 0 -99 3 -116 27 -168 15 -31 52 -83 82 -113
30 -31 60 -72 67 -92 18 -54 5 -138 -35 -235 -41 -100 -44 -134 -15 -171 22
-28 48 -33 66 -15 9 9 14 0 23 -32 6 -24 17 -62 25 -84 8 -23 15 -55 15 -73 0
-18 10 -52 22 -75 31 -58 48 -107 48 -138 0 -15 15 -49 33 -75 73 -109 176
-126 376 -59 l114 37 18 -23 c36 -47 53 -95 57 -162 4 -66 4 -68 -31 -101 -20
-18 -82 -62 -139 -97 -119 -74 -229 -174 -275 -251 -32 -53 -45 -95 -102 -343
-17 -71 -53 -205 -80 -297 -28 -92 -69 -245 -92 -340 -87 -363 -89 -372 -114
-398 -13 -14 -34 -50 -48 -81 -41 -94 -100 -122 -206 -99 -31 6 -129 32 -218
56 -89 25 -205 50 -258 58 -58 8 -103 19 -112 28 -10 10 -20 56 -28 131 -8 64
-19 135 -26 159 -46 156 -195 242 -334 193 -37 -13 -43 -13 -93 12 -59 29
-122 29 -167 -1 -72 -47 -175 -247 -175 -339 0 -25 -7 -64 -15 -87 -21 -59
-19 -136 6 -215 16 -53 31 -78 68 -115 78 -78 161 -113 369 -155 70 -15 157
-33 193 -41 l66 -15 5 -72 c7 -98 34 -149 96 -181 148 -74 829 -251 1013 -263
179 -12 293 55 364 212 20 44 79 173 133 286 l97 207 23 -51 c12 -27 47 -127
77 -221 30 -94 65 -187 77 -206 20 -33 22 -50 30 -385 5 -192 6 -411 2 -485
-5 -110 -3 -143 9 -172 26 -63 96 -84 172 -52 20 8 39 13 41 11 10 -10 34
-177 34 -234 0 -74 -5 -88 -168 -473 -141 -334 -260 -602 -407 -915 -58 -124
-111 -250 -118 -280 -10 -50 -9 -56 10 -77 l21 -23 -35 -105 c-58 -178 -92
-443 -93 -723 0 -60 -7 -159 -16 -220 -22 -154 -261 -1107 -380 -1517 -124
-429 -286 -715 -495 -876 -103 -79 -476 -282 -559 -304 -26 -7 -103 -12 -180
-11 -269 2 -406 -25 -454 -91 -18 -26 -19 -29 -2 -72 29 -77 130 -165 311
-271 208 -123 425 -178 612 -155 49 6 170 34 270 62 101 29 184 50 187 47 2
-2 -3 -38 -11 -79 -18 -92 -13 -172 12 -200 25 -27 78 -41 117 -29 40 11 70
40 119 110 21 32 83 116 138 189 99 132 135 194 174 299 18 49 21 81 23 271 2
231 11 295 61 419 35 89 139 297 231 461 353 633 541 1015 606 1230 48 161 57
244 66 579 8 340 11 361 67 446 50 75 166 195 211 216 40 20 52 21 136 13 183
-18 525 -6 598 21 9 3 30 -30 65 -104 106 -220 274 -432 417 -526 89 -57 172
-81 372 -105 307 -37 629 -107 1039 -226 370 -108 623 -198 800 -287 237 -118
296 -165 424 -337 47 -63 128 -167 180 -230 178 -214 200 -263 211 -465 4 -77
13 -160 21 -184 17 -57 64 -106 116 -121 37 -11 49 -11 88 4 58 23 79 52 149
203 122 265 133 430 49 768 -38 152 -52 280 -35 311 9 16 23 19 101 19 77 0
93 3 110 20 58 58 26 134 -104 247 -164 142 -199 169 -278 209 -148 75 -227
82 -459 39 -112 -21 -120 -21 -195 -6 -44 9 -117 35 -168 59 -49 24 -276 168
-503 320 -227 153 -450 294 -495 316 -177 84 -327 118 -602 135 -110 7 -209
17 -221 24 -12 6 -31 35 -44 64 -12 29 -36 72 -52 96 -17 24 -28 45 -26 46 1
1 23 10 49 19 73 28 207 115 268 176 68 68 211 239 252 301 76 114 65 153 -97
341 -194 224 -262 323 -305 445 -29 83 -35 229 -15 379 28 206 21 285 -48 585
-20 85 -38 165 -41 176 -4 17 1 23 23 27 45 9 116 80 155 154 39 75 65 142 97
251 20 70 22 72 48 65 45 -13 125 -8 159 10 18 9 43 32 56 49 44 59 219 611
291 918 75 322 86 386 86 515 0 146 -39 245 -132 335 -55 53 -485 382 -627
480 -60 41 -162 104 -226 139 -159 87 -213 130 -357 282 -128 137 -185 177
-281 198 -24 6 -135 15 -248 21 -195 10 -321 24 -364 40 -11 4 43 6 120 3 92
-4 195 0 301 11 291 29 416 18 536 -46 104 -55 175 -157 194 -278 4 -22 10
-40 14 -40 13 0 30 96 30 168 -1 193 -75 333 -214 403 -52 26 -56 30 -26 25
58 -10 196 -81 246 -128 64 -59 123 -149 156 -238 l28 -75 -3 140 c-4 124 -8
151 -36 236 -37 115 -87 196 -165 267 -97 88 -237 142 -523 203 -62 13 -113
26 -113 30 0 3 39 0 88 -7 334 -52 511 -121 640 -250 34 -34 62 -57 62 -51 0
7 -9 49 -20 94 -67 281 -237 441 -545 514 l-80 19 135 -4 c204 -7 323 -47 433
-146 l50 -45 -7 30 c-21 86 -85 173 -165 224 -90 58 -160 72 -411 81 -448 17
-557 71 -734 365 -107 177 -245 363 -323 435 -79 72 -206 138 -328 171 -104
28 -321 34 -450 14z m-839 -890 c-4 -14 -11 -23 -16 -20 -12 7 -13 68 -3 79
12 12 26 -31 19 -59z m1088 -2408 c-75 -227 -116 -363 -125 -423 l-13 -89 -13
80 c-7 44 -22 154 -33 245 -22 178 -55 377 -70 424 l-10 29 68 -7 c79 -7 178
11 255 48 29 13 52 25 53 25 0 1 -50 -149 -112 -332z m1613 -118 c43 -17 188
-71 323 -120 135 -50 268 -100 296 -113 48 -22 52 -27 59 -67 4 -24 18 -69 31
-99 l24 -55 -81 -225 c-112 -311 -229 -674 -229 -713 0 -37 -31 -73 -87 -101
-49 -25 -60 -20 -99 42 -20 31 -68 95 -107 142 -110 133 -253 354 -290 447
-16 41 -15 54 18 350 18 170 37 349 40 398 6 93 14 145 21 145 2 0 38 -14 81
-31z"/>
</g>
</svg>
