<?xml version="1.0" standalone="no"?>
<!DOCTYPE svg PUBLIC "-//W3C//DTD SVG 20010904//EN"
 "http://www.w3.org/TR/2001/REC-SVG-20010904/DTD/svg10.dtd">
<svg version="1.0" xmlns="http://www.w3.org/2000/svg"
 width="1024.000000pt" height="1536.000000pt" viewBox="0 0 1024.000000 1536.000000"
 preserveAspectRatio="xMidYMid meet">
<metadata>
Created by potrace 1.16, written by Peter Selinger 2001-2019
</metadata>
<g transform="translate(0.000000,1536.000000) scale(0.100000,-0.100000)"
fill="#000000" stroke="none">
<path d="M3500 14871 c0 -341 -1 -360 -18 -366 -28 -8 -42 -48 -42 -115 0 -50
-3 -60 -20 -65 -80 -26 -198 -143 -254 -253 -100 -198 -80 -501 42 -657 19
-24 19 -26 1 -77 -26 -74 -25 -242 1 -368 20 -96 23 -172 12 -268 l-7 -54 -69
-26 c-41 -16 -76 -37 -87 -52 -13 -18 -33 -120 -73 -385 -130 -852 -169 -1190
-152 -1310 13 -84 100 -158 226 -190 136 -36 571 -15 980 45 36 5 68 10 71 10
3 0 9 -62 12 -137 6 -142 35 -328 80 -508 63 -251 72 -311 71 -486 -1 -188 -6
-214 -94 -539 -116 -425 -204 -794 -196 -816 3 -7 17 -16 32 -20 24 -6 26 -10
20 -43 -58 -332 -71 -532 -70 -1096 0 -416 5 -578 27 -965 15 -256 32 -573 38
-705 6 -131 15 -247 20 -257 12 -23 57 -46 144 -74 l70 -22 0 -314 c-1 -186
-6 -350 -13 -405 -7 -50 -15 -167 -19 -260 -12 -337 36 -661 183 -1223 149
-567 172 -679 185 -905 5 -93 14 -192 19 -218 14 -67 12 -116 -6 -205 -26
-130 -81 -281 -154 -422 -130 -250 -150 -295 -161 -354 -23 -127 22 -262 97
-286 161 -53 501 122 549 282 8 28 15 70 16 92 1 55 13 94 23 78 8 -14 35 -16
53 -4 8 5 19 60 27 138 8 71 25 170 37 219 27 112 22 184 -20 316 -25 76 -31
114 -31 180 0 57 -9 121 -27 199 l-28 115 1 370 c1 243 7 447 18 595 29 380
31 665 7 969 -24 300 -26 455 -6 591 7 52 21 165 31 251 l18 156 99 7 c55 3
102 4 105 1 3 -3 12 -66 19 -141 7 -74 25 -192 39 -262 32 -160 40 -326 25
-512 -24 -290 -29 -497 -20 -800 13 -421 13 -1000 0 -1150 -13 -135 -15 -150
-55 -285 -16 -51 -31 -137 -37 -200 -12 -146 -63 -505 -95 -680 -35 -187 -31
-314 10 -393 87 -170 259 -242 402 -169 68 34 145 121 191 214 33 68 38 86 38
147 -1 41 -11 107 -24 156 -84 314 -122 630 -85 702 11 22 18 78 25 197 11
230 25 297 204 976 117 443 166 662 190 843 26 194 21 518 -11 726 l-6 38 28
-21 c44 -31 343 -120 435 -128 63 -6 133 7 359 69 481 131 1049 326 1108 381
36 34 44 82 32 209 -29 314 -67 593 -121 903 -40 228 -74 369 -105 434 -34 68
-64 81 -207 90 l-109 6 -30 75 c-16 41 -74 181 -128 310 -54 129 -100 242
-101 250 -2 8 5 30 15 48 20 39 19 56 -26 242 -36 151 -78 372 -72 381 2 4 23
12 47 18 79 19 77 -17 41 606 -35 627 -178 2364 -225 2745 -37 301 -85 500
-134 559 -25 29 -82 50 -366 136 l-86 26 20 41 c48 97 30 258 -53 482 -86 234
-99 295 -141 650 -46 403 -85 567 -174 753 -47 97 -137 219 -201 271 -60 49
-167 102 -241 117 -38 8 -90 22 -117 30 -76 23 -272 20 -366 -6 -289 -80 -543
-382 -615 -733 -10 -53 -15 -118 -13 -195 9 -433 -3 -587 -64 -812 -71 -263
-85 -385 -53 -474 8 -21 13 -40 12 -41 -1 -2 -54 -10 -117 -18 -211 -29 -211
-29 -276 -100 -33 -35 -83 -91 -112 -125 -31 -35 -62 -61 -73 -61 -10 0 -31
-13 -46 -30 -14 -16 -35 -30 -46 -30 -10 0 -64 -18 -119 -40 -55 -23 -102 -39
-104 -37 -2 2 1 18 7 36 7 20 9 59 6 97 -8 81 13 360 54 714 l31 274 -27 22
-27 22 21 96 c25 117 33 133 126 261 107 148 119 177 140 345 4 36 14 54 47
85 57 56 95 114 123 189 79 211 37 466 -104 627 -49 56 -152 129 -183 129 -16
0 -18 8 -18 64 0 77 -13 116 -40 123 -19 5 -20 14 -20 364 l0 359 -85 0 -85 0
0 -359z m67 -729 c34 -2 76 0 92 6 27 10 36 7 78 -22 151 -104 210 -376 119
-554 l-22 -44 -17 44 c-19 50 -48 81 -89 97 -22 8 -36 5 -75 -15 -31 -16 -57
-22 -74 -19 -20 5 -31 0 -45 -17 -14 -17 -27 -22 -51 -20 -22 2 -38 -3 -52
-17 -12 -12 -34 -21 -49 -21 -15 0 -33 -5 -40 -12 -18 -18 -28 -2 -46 68 -32
125 -15 297 39 403 35 69 125 148 155 135 8 -4 43 -9 77 -12z m952 -1882 c-13
-95 -10 -282 6 -336 8 -27 15 -50 15 -52 0 -2 -14 -2 -32 0 -29 3 -34 8 -46
48 -23 77 -2 243 48 374 15 41 19 29 9 -34z m1862 -66 c49 -145 60 -242 35
-327 -13 -46 -21 -57 -37 -57 -18 0 -20 4 -15 28 4 15 9 70 12 122 5 90 -3
156 -42 335 -13 59 7 16 47 -101z m-1330 -81 c0 -10 2 -25 3 -33 2 -8 6 -44
10 -79 15 -132 77 -285 182 -448 51 -79 54 -88 56 -151 l1 -67 6 71 c6 67 9
74 51 120 24 27 59 65 76 84 122 134 274 361 302 450 10 35 24 66 29 67 6 2
20 -20 33 -49 27 -64 24 -130 -15 -316 -53 -250 -144 -526 -358 -1082 -69
-179 -144 -378 -168 -442 -52 -140 -45 -146 -119 97 -89 293 -148 566 -182
845 -19 157 -16 547 6 695 16 110 41 229 52 247 9 15 34 8 35 -9z m1448 -2513
c6 -80 25 -314 41 -520 17 -206 33 -411 35 -455 5 -78 4 -76 -30 79 -19 87
-68 282 -110 434 -85 313 -88 342 -55 547 18 108 64 327 78 365 5 14 13 -71
41 -450z m145 -1680 c24 -263 15 -239 90 -242 l63 -3 -13 -53 c-8 -29 -34 -99
-59 -156 -48 -111 -64 -193 -63 -326 0 -41 -4 -93 -11 -115 -15 -53 -14 -87 3
-119 13 -25 9 -41 -45 -204 -32 -97 -79 -258 -104 -357 -40 -153 -59 -204 -72
-191 -2 1 11 65 28 142 136 619 171 870 173 1224 1 135 -3 322 -7 415 -5 94
-7 168 -4 165 3 -3 13 -84 21 -180z m184 -818 c2 -7 -2 -10 -12 -6 -9 3 -16
11 -16 16 0 13 23 5 28 -10z m267 -254 c6 -32 25 -363 25 -452 l0 -74 -71 -12
c-39 -7 -72 -10 -75 -7 -7 7 -21 196 -30 389 l-7 167 41 -4 c23 -2 54 0 69 5
41 12 42 12 48 -12z m-280 -294 c21 -323 26 -288 -42 -304 -32 -7 -84 -20
-115 -30 -32 -10 -58 -16 -58 -15 0 7 72 273 91 339 17 58 74 216 96 266 9 21
10 10 28 -256z m488 -51 c53 -137 54 -141 33 -147 -11 -3 -35 -6 -52 -6 l-31
0 -12 128 c-6 70 -11 145 -10 167 0 47 -4 56 72 -142z m-1244 -1705 c-1 -203
-4 -259 -11 -218 -18 111 -13 490 7 490 3 0 4 -123 4 -272z"/>
<path d="M5090 11575 c-11 -13 -10 -14 4 -9 9 3 16 10 16 15 0 13 -6 11 -20
-6z"/>
<path d="M5282 11233 c-14 -121 -24 -241 -18 -228 7 16 38 316 34 321 -3 2
-10 -40 -16 -93z"/>
<path d="M5247 10931 c-4 -35 -6 -85 -6 -110 1 -27 5 -7 10 49 10 108 7 158
-4 61z"/>
<path d="M5233 10720 c0 -25 2 -35 4 -22 2 12 2 32 0 45 -2 12 -4 2 -4 -23z"/>
</g>
</svg>
