<?xml version="1.0" standalone="no"?>
<!DOCTYPE svg PUBLIC "-//W3C//DTD SVG 20010904//EN"
 "http://www.w3.org/TR/2001/REC-SVG-20010904/DTD/svg10.dtd">
<svg version="1.0" xmlns="http://www.w3.org/2000/svg"
 width="1024.000000pt" height="1024.000000pt" viewBox="0 0 1024.000000 1024.000000"
 preserveAspectRatio="xMidYMid meet">
<metadata>
Created by potrace 1.16, written by Peter Selinger 2001-2019
</metadata>
<g transform="translate(0.000000,1024.000000) scale(0.100000,-0.100000)"
fill="#000000" stroke="none">
<path d="M4646 9804 c-248 -55 -528 -301 -622 -546 -15 -40 -38 -84 -50 -98
-13 -14 -35 -52 -51 -85 l-28 -60 0 -240 c-1 -225 -2 -244 -23 -296 -33 -83
-73 -132 -134 -167 -91 -51 -112 -84 -276 -442 -159 -347 -226 -561 -227 -725
0 -88 3 -104 24 -138 67 -108 228 -133 425 -65 89 31 208 92 416 217 101 61
188 111 192 111 4 0 10 -12 14 -27 18 -85 63 -206 129 -343 102 -215 120 -278
120 -415 -1 -98 -5 -126 -43 -260 -23 -82 -60 -215 -82 -294 -22 -79 -40 -152
-40 -161 0 -10 9 -29 21 -44 l21 -26 -31 -123 c-80 -317 -127 -612 -206 -1287
-30 -261 -60 -516 -66 -567 -6 -51 -9 -99 -6 -108 4 -9 19 -15 41 -15 32 0 36
-3 46 -37 22 -77 61 -435 70 -638 15 -317 35 -509 115 -1105 37 -279 46 -464
25 -545 -18 -68 -121 -302 -172 -392 -57 -100 -162 -211 -262 -277 -106 -70
-140 -109 -132 -150 13 -69 102 -106 257 -106 212 0 368 83 481 255 81 125 87
124 112 -18 14 -75 84 -104 125 -51 12 15 21 32 21 38 0 7 18 72 41 146 52
172 54 241 11 420 -45 188 -54 256 -47 340 15 175 49 427 81 600 20 102 42
221 50 265 18 98 20 279 4 400 -7 50 -28 162 -47 250 -48 215 -47 209 -25 300
11 44 23 100 27 124 l7 44 60 -6 c34 -3 64 -11 68 -17 4 -7 18 -67 30 -134 31
-165 48 -212 150 -426 49 -102 109 -243 133 -315 42 -122 81 -225 210 -560 74
-191 171 -483 196 -585 37 -158 37 -181 -4 -315 -92 -301 -157 -419 -311 -562
-77 -71 -96 -95 -100 -124 -9 -51 29 -94 97 -108 71 -15 233 -13 305 4 157 37
243 102 304 229 37 77 39 80 45 51 11 -53 33 -93 56 -100 27 -9 70 21 80 56 4
13 28 91 53 172 69 223 67 245 -49 522 -30 71 -58 150 -64 175 -19 89 -31 241
-41 555 -17 509 -35 649 -105 816 -33 79 -58 119 -160 259 -34 47 -68 96 -75
108 -13 27 -16 103 -5 180 12 90 25 98 236 151 l184 46 7 70 c3 39 16 232 27
430 12 198 31 488 42 645 34 458 13 716 -82 1007 l-21 63 21 26 c28 36 27 53
-13 170 -38 111 -190 532 -230 638 -14 37 -26 72 -26 77 0 5 15 9 33 9 44 1
105 30 146 71 36 36 94 151 132 260 l23 66 43 -19 c89 -39 182 -34 211 13 18
29 10 35 -53 43 -31 3 -74 15 -96 27 -48 24 -49 20 29 178 l56 114 14 -34 c17
-40 12 -103 -12 -149 -9 -18 -15 -35 -13 -36 9 -9 70 40 92 74 54 82 56 204 5
349 -28 79 -27 81 23 76 80 -8 146 66 147 165 0 43 -14 57 -25 23 -3 -11 -22
-34 -42 -52 -32 -28 -41 -31 -81 -26 -57 6 -91 32 -120 89 -33 66 -38 140 -17
241 29 141 3 237 -96 352 -65 76 -126 122 -308 235 -304 188 -404 288 -554
555 -80 144 -150 239 -242 330 -139 138 -267 196 -445 201 -69 2 -129 -2 -174
-12z m1495 -1231 c53 -35 119 -88 148 -118 64 -67 112 -165 82 -165 -5 0 -13
10 -17 22 -11 36 -181 203 -288 285 -56 42 -105 81 -111 86 -17 16 85 -44 186
-110z m-1809 -300 l20 -22 -49 -61 c-28 -33 -72 -102 -98 -153 -44 -85 -93
-155 -135 -195 -10 -10 -36 -44 -59 -76 -22 -33 -41 -56 -41 -53 0 4 23 54 50
112 28 58 50 108 50 112 0 5 16 28 35 52 41 51 42 60 14 118 -30 62 -15 115
63 221 l60 83 35 -58 c19 -32 44 -68 55 -80z m1218 71 c19 -7 43 -13 53 -14 9
0 17 -4 17 -8 0 -10 -69 -77 -73 -71 -20 26 -67 105 -67 112 0 5 8 6 18 2 9
-4 33 -14 52 -21z m-760 -538 c85 -79 184 -117 255 -97 40 11 154 76 167 95
20 29 3 -23 -46 -141 -114 -275 -180 -495 -217 -723 -11 -69 -22 -126 -23
-128 -2 -1 -19 33 -39 75 -118 260 -191 630 -167 854 5 52 10 97 10 102 0 14
14 6 60 -37z"/>
</g>
</svg>
