<?xml version="1.0" standalone="no"?>
<!DOCTYPE svg PUBLIC "-//W3C//DTD SVG 20010904//EN"
 "http://www.w3.org/TR/2001/REC-SVG-20010904/DTD/svg10.dtd">
<svg version="1.0" xmlns="http://www.w3.org/2000/svg"
 width="1024.000000pt" height="1536.000000pt" viewBox="0 0 1024.000000 1536.000000"
 preserveAspectRatio="xMidYMid meet">
<metadata>
Created by potrace 1.16, written by Peter Selinger 2001-2019
</metadata>
<g transform="translate(0.000000,1536.000000) scale(0.100000,-0.100000)"
fill="#000000" stroke="none">
<path d="M4535 14614 c-79 -17 -151 -41 -220 -74 -44 -21 -107 -46 -140 -55
-136 -38 -297 -165 -390 -306 -26 -39 -67 -85 -97 -108 -120 -90 -273 -325
-312 -478 -32 -123 -14 -240 46 -302 29 -30 30 -32 14 -56 -25 -39 -67 -56
-107 -45 -44 13 -44 13 -28 -6 34 -41 115 -58 139 -29 19 22 30 2 30 -55 0
-58 29 -178 76 -310 34 -97 36 -111 31 -185 -3 -44 -13 -101 -22 -126 -14 -41
-21 -49 -63 -64 -90 -34 -102 -53 -241 -379 -56 -131 -144 -327 -195 -435
-110 -231 -131 -293 -152 -455 -22 -171 -16 -335 15 -399 73 -150 344 -138
661 31 101 53 391 242 437 285 13 11 25 19 27 16 2 -2 16 -58 30 -124 36 -159
79 -283 182 -521 47 -110 92 -223 99 -253 18 -67 8 -145 -35 -285 -41 -136
-128 -475 -190 -751 -29 -126 -65 -281 -81 -344 -16 -63 -29 -124 -29 -137 0
-20 37 -60 76 -82 13 -7 11 -23 -15 -123 -71 -269 -107 -508 -267 -1774 -19
-154 -50 -392 -69 -530 -47 -340 -63 -500 -74 -700 -12 -202 -49 -521 -117
-1005 -19 -135 -46 -324 -59 -420 -50 -362 -148 -1012 -200 -1324 -17 -103
-10 -120 51 -132 19 -3 34 -9 34 -13 0 -23 -34 -192 -60 -294 -30 -121 -95
-273 -163 -382 -204 -328 -332 -469 -593 -653 -163 -114 -221 -200 -193 -281
24 -67 151 -98 364 -87 154 7 278 31 395 76 93 36 147 83 264 228 102 126 209
212 233 188 3 -2 9 -42 14 -88 5 -46 14 -93 19 -105 24 -57 236 -57 260 0 5
12 19 92 30 177 11 85 29 196 40 245 35 159 22 266 -54 450 l-41 100 -3 170
-4 170 138 17 c83 10 142 22 151 30 7 8 31 110 54 234 22 120 83 446 135 724
194 1025 243 1311 269 1565 9 83 27 240 40 350 14 110 29 250 35 312 11 131
14 142 394 1288 140 424 258 782 262 798 9 38 24 44 24 10 0 -15 9 -174 20
-353 24 -406 34 -591 65 -1255 14 -291 29 -570 34 -620 35 -331 36 -364 35
-1185 -1 -546 -7 -989 -17 -1308 -10 -266 -17 -505 -17 -531 0 -58 22 -86 83
-102 23 -6 45 -13 48 -15 13 -8 -58 -376 -102 -529 -55 -191 -179 -473 -289
-660 -94 -158 -127 -230 -140 -303 -12 -63 -11 -73 6 -108 29 -59 58 -74 165
-86 151 -18 337 14 484 83 74 34 160 125 181 192 16 52 18 55 69 71 29 9 57
22 63 29 5 6 15 57 21 112 6 55 27 163 47 240 43 170 42 223 -12 447 -34 143
-34 152 -32 324 l3 177 25 3 c14 1 54 5 89 8 89 8 141 26 150 50 5 12 13 82
20 156 21 243 42 461 66 715 14 138 29 302 35 365 5 63 19 212 30 330 56 615
57 1038 4 1580 -11 109 -15 206 -11 285 6 113 70 619 102 805 33 188 128 798
180 1160 47 319 53 691 15 891 l-10 52 46 49 c41 43 45 52 38 81 -12 55 -141
430 -246 712 -156 421 -193 524 -223 615 l-28 85 12 180 c17 252 36 389 76
545 52 205 102 466 126 655 17 142 20 204 16 375 -7 273 -30 361 -123 461 -91
96 -109 100 -465 108 l-296 6 -40 28 c-63 44 -81 68 -88 122 l-8 50 25 -23
c49 -44 116 -37 193 22 19 14 17 14 -22 9 -30 -4 -50 -1 -68 11 -38 25 -35 96
6 171 19 34 33 77 36 111 9 87 26 78 22 -12 -3 -63 -9 -86 -27 -112 -32 -44
-24 -57 19 -28 75 51 119 149 119 265 0 79 -27 160 -63 190 -28 23 -20 27 43
23 57 -4 61 -3 95 31 43 43 50 80 9 48 -31 -24 -76 -27 -97 -7 -8 8 -17 38
-20 67 -8 67 -58 174 -105 223 -20 21 -82 69 -137 106 -114 77 -141 104 -249
247 -122 161 -224 246 -380 319 -112 51 -178 64 -317 63 -68 -1 -133 -3 -144
-5z m575 -714 c18 -12 2 -12 -25 0 -13 6 -15 9 -5 9 8 0 22 -4 30 -9z m625
-82 c37 -31 75 -101 75 -139 0 -19 -4 -16 -22 20 -12 25 -51 76 -88 115 -53
56 -59 66 -32 50 18 -10 48 -31 67 -46z m-2164 5 c-55 -111 -111 -332 -111
-443 0 -33 -4 -61 -9 -65 -29 -18 -34 223 -7 300 30 82 64 150 102 199 42 56
51 59 25 9z m1738 -38 c44 -38 73 -97 92 -189 16 -81 18 -108 5 -95 -3 3 -9
33 -15 67 -13 84 -53 167 -104 221 -40 43 -30 41 22 -4z m-161 -32 c75 -44
118 -118 127 -220 l5 -58 -14 61 c-8 34 -23 79 -34 101 -25 47 -88 107 -137
127 -19 8 -35 18 -35 21 0 10 41 -5 88 -32z m-180 -75 c28 -22 63 -58 77 -78
57 -82 70 -216 41 -409 -20 -129 -20 -229 -2 -300 8 -29 50 -126 94 -215 44
-88 91 -193 106 -233 30 -79 28 -90 -20 -133 l-28 -25 22 29 c12 16 22 38 22
49 0 36 -50 160 -131 322 -46 93 -83 183 -89 214 -14 75 -12 180 5 291 40 259
1 401 -138 501 -22 16 -33 29 -25 29 8 0 38 -19 66 -42z m531 -233 c7 -54 6
-126 -1 -220 -13 -183 -6 -331 22 -418 26 -84 20 -100 -9 -23 -36 97 -45 178
-35 331 10 171 11 341 2 415 -5 39 -4 46 2 25 5 -16 13 -66 19 -110z m-1847
-392 c19 -26 55 -64 81 -83 25 -19 45 -36 43 -37 -2 -2 -23 8 -48 22 -81 45
-138 127 -153 220 -6 38 -5 37 18 -17 13 -31 40 -78 59 -105z m1982 -415 c-5
-8 -64 57 -64 70 0 3 16 -9 35 -28 19 -18 32 -37 29 -42z m110 -120 c15 -29
62 -132 103 -228 41 -96 78 -179 84 -184 5 -6 9 -17 9 -25 0 -26 -24 16 -75
129 -70 157 -170 356 -194 386 -12 15 -21 32 -21 38 1 18 63 -58 94 -116z
m-1723 -13 c7 -26 24 -57 42 -75 26 -26 38 -30 84 -30 29 0 53 5 53 10 0 6 -4
10 -9 10 -14 0 -38 42 -45 80 l-7 35 27 -34 c47 -57 315 -164 445 -177 35 -4
71 -11 79 -16 21 -13 -91 0 -165 18 -33 8 -92 26 -132 40 -180 61 -337 -2
-425 -173 -20 -38 -39 -79 -43 -93 -4 -14 -22 -56 -40 -95 -38 -81 -128 -285
-175 -398 -18 -42 -35 -75 -37 -73 -7 6 100 261 167 401 32 66 61 139 65 162
6 37 3 45 -20 69 -18 18 -23 29 -16 34 12 7 83 187 117 293 10 31 19 57 21 57
1 0 8 -20 14 -45z m1187 -289 c6 -24 27 -70 47 -103 74 -125 181 -395 325
-823 46 -135 93 -265 105 -290 28 -55 141 -179 210 -230 60 -44 147 -90 172
-90 10 0 25 -5 33 -11 29 -21 -62 0 -116 26 -109 53 -266 202 -316 300 -18 34
-110 288 -153 420 -22 69 -122 346 -154 431 -28 72 -55 127 -147 304 -27 50
-41 110 -27 110 5 0 14 -20 21 -44z m-505 -38 c18 -185 86 -258 239 -258 67 0
159 23 215 55 l43 24 0 -25 c0 -14 -16 -66 -36 -117 -143 -364 -225 -692 -295
-1167 -29 -203 -34 -229 -42 -219 -27 33 -194 459 -226 579 -76 275 -66 662
25 1010 26 100 55 180 65 180 3 0 9 -28 12 -62z m1421 -412 c42 -82 75 -154
73 -160 -7 -20 -157 272 -157 305 0 18 0 19 84 -145z m-2087 42 c-3 -7 -5 -2
-5 12 0 14 2 19 5 13 2 -7 2 -19 0 -25z m1 -245 c0 -145 -3 -199 -9 -178 -10
32 -9 385 2 385 3 0 6 -93 7 -207z"/>
</g>
</svg>
