<?xml version="1.0" standalone="no"?>
<!DOCTYPE svg PUBLIC "-//W3C//DTD SVG 20010904//EN"
 "http://www.w3.org/TR/2001/REC-SVG-20010904/DTD/svg10.dtd">
<svg version="1.0" xmlns="http://www.w3.org/2000/svg"
 width="1024.000000pt" height="1024.000000pt" viewBox="0 0 1024.000000 1024.000000"
 preserveAspectRatio="xMidYMid meet">
<metadata>
Created by potrace 1.16, written by Peter Selinger 2001-2019
</metadata>
<g transform="translate(0.000000,1024.000000) scale(0.100000,-0.100000)"
fill="#000000" stroke="none">
<path d="M3805 9834 c-177 -29 -313 -104 -412 -227 -124 -155 -158 -257 -202
-613 -5 -45 -19 -109 -31 -144 -25 -73 -21 -94 15 -88 30 6 32 -5 7 -30 -27
-27 -97 -36 -124 -18 -18 13 -25 13 -56 1 -19 -8 -50 -29 -69 -46 -45 -39 -40
-37 -316 -108 -351 -91 -439 -123 -573 -206 -81 -51 -187 -158 -246 -249 -104
-160 -260 -537 -608 -1471 -59 -159 -152 -407 -205 -550 -244 -653 -295 -803
-295 -864 0 -42 62 -108 110 -117 17 -4 33 -12 36 -18 2 -6 29 -238 59 -516
74 -668 101 -909 126 -1120 24 -192 25 -177 -30 -415 -100 -438 -173 -964
-226 -1633 -28 -352 -28 -362 18 -362 22 0 23 14 -13 -210 -24 -155 -27 -296
-4 -328 8 -12 23 -26 34 -32 36 -19 155 -30 234 -21 73 8 81 7 139 -19 139
-62 418 -82 726 -53 85 8 112 32 104 93 l-6 42 109 -6 c81 -6 129 -3 189 8
111 22 169 20 282 -9 130 -34 304 -45 507 -33 195 12 230 22 234 62 11 97 -71
162 -278 221 -200 56 -330 151 -395 286 -19 41 -35 79 -35 86 0 7 11 23 25 37
19 19 25 36 25 69 0 76 49 552 90 872 22 171 56 438 75 595 20 157 45 345 55
418 11 73 20 149 20 167 0 40 -58 344 -206 1088 l-105 528 22 18 c21 17 23 33
44 362 13 189 26 406 30 482 4 75 10 137 14 137 3 0 49 -32 101 -71 52 -39
129 -88 170 -108 65 -31 85 -36 146 -36 45 0 77 5 87 14 16 12 17 8 17 -48 0
-83 25 -190 56 -238 52 -79 138 -109 222 -79 l44 16 64 -46 c66 -47 161 -84
217 -84 l31 0 -40 34 c-21 19 -48 49 -58 67 -19 33 -18 32 31 -13 56 -52 92
-63 178 -56 43 4 64 12 95 37 l40 32 72 -38 c72 -38 72 -38 181 -35 162 4 222
34 267 135 14 31 28 48 43 51 12 3 101 7 197 9 191 4 209 8 240 60 36 59 19
146 -36 182 -24 15 -49 19 -134 20 -86 2 -138 10 -285 44 -99 24 -183 45 -188
48 -4 2 -14 20 -22 39 -18 43 -71 68 -127 61 l-38 -5 -158 180 c-86 99 -205
236 -263 304 l-107 124 -7 186 c-8 210 -2 388 26 719 23 274 23 335 5 378 -7
18 -49 79 -92 137 -44 58 -92 134 -107 170 -15 36 -32 73 -38 83 -21 39 9 13
48 -42 33 -48 54 -65 107 -91 62 -31 71 -32 140 -27 116 8 199 53 266 142 33
44 35 45 50 26 13 -17 19 -18 50 -8 42 14 74 71 91 162 18 101 61 178 127 227
33 25 80 76 112 121 l55 78 15 -66 c17 -78 31 -81 72 -14 32 51 51 142 43 209
-5 39 -4 42 7 25 25 -38 78 -87 90 -83 18 6 22 109 8 193 -16 88 -40 155 -85
229 -19 32 -35 61 -35 63 0 3 17 -7 37 -23 l38 -28 -29 49 c-48 84 -163 230
-231 294 -117 109 -223 171 -355 205 -64 17 -284 29 -345 20z m-684 -1375 c33
-121 125 -284 182 -324 21 -15 21 -16 -38 -75 -61 -61 -120 -90 -185 -90 -27
0 -27 0 -19 58 11 84 29 352 29 439 0 42 2 74 5 71 3 -3 15 -38 26 -79z m289
-528 c-22 -58 -44 -90 -56 -78 -6 6 47 110 59 115 4 2 7 11 7 20 0 8 3 13 6 9
3 -3 -4 -33 -16 -66z m-267 -58 c20 -3 37 -8 37 -12 0 -3 -33 -94 -74 -201
-41 -107 -88 -233 -105 -280 -31 -87 -39 -88 -21 -3 8 41 60 474 60 505 0 7
11 8 33 3 17 -3 49 -9 70 -12z m175 -171 c-5 -59 -110 -342 -116 -312 -1 9 13
71 33 139 19 67 35 129 35 137 0 24 43 119 48 105 2 -7 2 -38 0 -69z m-105
-1219 c16 -122 20 -183 13 -183 -9 0 -294 99 -304 106 -2 1 46 85 106 186 60
100 118 199 128 218 l18 35 8 -90 c5 -49 19 -172 31 -272z m137 -354 c-50 -83
-103 -206 -113 -264 -3 -16 -8 -46 -12 -67 -4 -30 -11 -38 -38 -47 -27 -10
-34 -9 -44 6 -16 20 -12 36 33 131 51 110 207 342 221 329 2 -3 -19 -42 -47
-88z m370 -39 c86 -26 185 -83 264 -150 36 -30 63 -56 61 -58 -2 -2 -48 26
-102 63 -54 37 -134 84 -178 104 -171 80 -171 81 -45 41z m289 -504 c72 -95
88 -125 50 -90 -24 21 -111 138 -129 173 -22 43 7 13 79 -83z m-2109 -1382
c44 -159 124 -444 177 -633 l96 -343 -27 -187 c-15 -102 -56 -379 -92 -616
-93 -618 -174 -1284 -161 -1319 3 -8 16 -16 29 -18 20 -3 23 -8 20 -38 -5 -53
-59 -321 -71 -352 -13 -34 -36 -35 -109 -5 -116 49 -262 189 -338 323 -39 69
-40 74 -19 74 9 0 26 10 39 23 21 21 23 33 30 202 17 434 82 850 280 1790 34
160 45 348 53 923 3 259 8 471 10 469 1 -2 39 -134 83 -293z"/>
<path d="M7345 8359 c-91 -12 -215 -52 -285 -91 -76 -44 -165 -135 -178 -182
-6 -21 -8 -59 -5 -86 5 -42 1 -55 -29 -107 -40 -68 -54 -108 -63 -178 -4 -27
-18 -85 -31 -127 -38 -116 -36 -134 19 -182 44 -39 46 -42 32 -66 -7 -14 -17
-43 -20 -65 -4 -22 -21 -83 -38 -135 -25 -75 -32 -112 -32 -179 0 -76 2 -85
25 -103 26 -21 62 -18 92 9 89 80 344 42 438 -65 41 -46 50 -72 27 -72 -7 0
-53 14 -103 30 -286 98 -459 57 -459 -109 0 -38 8 -74 22 -107 12 -27 27 -74
33 -104 14 -72 61 -153 109 -188 l39 -29 -95 -26 c-137 -39 -218 -81 -283
-146 -101 -103 -156 -232 -338 -801 -55 -173 -103 -325 -107 -338 -7 -24 -100
-76 -190 -106 -94 -30 -155 -102 -155 -181 0 -20 7 -65 16 -99 11 -42 15 -85
11 -138 -10 -157 -95 -243 -280 -283 -107 -23 165 -64 533 -80 244 -11 355 18
455 119 33 34 65 70 72 81 9 16 12 -18 12 -167 l1 -188 -1709 0 c-1472 0
-1710 -2 -1714 -14 -3 -8 -9 -86 -13 -173 -6 -133 -4 -160 8 -170 10 -9 72
-13 194 -15 l179 -3 6 -135 c4 -74 8 -585 10 -1135 3 -1201 10 -1691 24 -1703
6 -6 44 -13 86 -17 65 -5 78 -4 98 12 23 19 24 25 52 494 15 261 35 618 43
794 29 573 55 1145 67 1410 6 143 12 266 14 273 4 9 198 12 932 11 l928 -1
-65 -19 c-302 -92 -450 -183 -484 -300 -20 -65 -20 -126 -1 -399 29 -417 75
-1167 83 -1362 10 -210 11 -217 64 -244 15 -8 28 -20 28 -27 0 -25 -99 -163
-152 -214 -71 -67 -148 -105 -300 -147 -161 -46 -195 -61 -240 -104 -46 -44
-62 -89 -54 -147 6 -38 11 -45 39 -54 53 -16 151 -21 392 -21 241 -1 337 8
470 42 84 21 142 20 240 -2 28 -7 109 -13 181 -13 119 -2 134 0 154 18 21 18
22 26 17 95 -7 92 -44 468 -52 531 -6 44 -5 46 25 59 55 23 61 48 55 247 -3
98 -7 393 -10 656 l-6 478 43 -3 43 -3 -3 -110 c-2 -60 -7 -204 -12 -320 -5
-115 -12 -329 -15 -475 -8 -369 -25 -857 -34 -970 -10 -131 -5 -169 26 -181
36 -13 156 -11 176 4 15 10 20 55 37 302 23 351 52 816 80 1300 12 198 23 366
25 373 3 9 66 12 268 12 l264 0 7 -107 c5 -102 19 -496 34 -993 l7 -225 65 -9
c36 -5 66 -10 67 -11 2 -1 -9 -26 -23 -56 -69 -142 -186 -286 -296 -360 -85
-58 -128 -123 -128 -194 0 -44 33 -70 108 -86 81 -18 610 -18 672 0 25 7 87
16 139 20 85 7 96 10 117 35 21 24 24 37 24 109 0 45 -5 136 -10 202 -6 66
-13 167 -16 225 l-7 106 41 12 c46 14 56 35 66 132 13 122 137 1157 142 1178
4 20 10 22 69 22 56 0 65 -2 65 -18 0 -22 45 -977 60 -1282 36 -703 36 -701
51 -711 24 -15 142 -11 167 7 l23 16 -8 766 c-4 422 -8 873 -8 1002 l0 235
305 0 304 0 7 -35 c13 -60 187 -1186 258 -1660 l47 -315 39 -13 c43 -15 141
-10 175 8 26 14 26 15 -15 328 -109 832 -215 1664 -215 1687 0 8 9 15 19 15
10 0 29 8 41 18 27 22 24 4 130 1042 16 162 37 360 45 440 47 456 116 1171
116 1216 1 29 -2 57 -6 63 -15 26 -72 42 -197 57 -86 10 -137 20 -144 30 -6 7
-14 70 -17 139 -13 242 -52 440 -109 548 -66 123 -186 198 -508 318 -343 127
-468 217 -551 397 l-29 63 39 102 c88 235 131 430 138 623 9 255 -34 383 -181
530 -121 121 -254 190 -442 229 -95 20 -312 27 -409 14z m2 -920 c27 -10 83
-56 83 -68 0 -3 -42 -7 -93 -9 -86 -3 -189 -16 -223 -29 -9 -3 -14 2 -14 16 0
24 42 67 85 87 36 16 123 18 162 3z m793 -96 c97 -118 69 -337 -51 -398 -47
-25 -54 -17 -13 14 50 36 71 68 86 131 17 72 -1 177 -41 241 -36 58 -25 65 19
12z m-73 -749 c-77 -174 -553 -1115 -560 -1108 -11 11 -8 302 4 373 12 77 26
106 84 171 26 29 45 61 45 74 0 42 -29 118 -59 156 -33 41 -32 45 17 66 87 36
300 193 457 336 28 26 51 43 53 38 2 -4 -17 -52 -41 -106z m-723 -360 c20 -8
20 -36 -1 -140 -14 -66 -15 -88 -6 -103 10 -15 6 -35 -19 -102 -52 -142 -97
-298 -124 -429 -14 -69 -28 -127 -31 -130 -10 -8 6 360 22 519 16 155 22 196
50 319 l17 72 38 0 c21 0 45 -3 54 -6z m666 -2100 c113 -33 215 -123 246 -216
20 -61 21 -167 1 -204 -14 -27 -14 -26 -10 22 15 161 -160 330 -407 393 l-75
19 96 1 c61 1 115 -5 149 -15z m-651 -97 c-42 -24 -106 -65 -144 -91 -37 -26
-69 -45 -71 -43 -18 18 125 127 205 158 83 31 87 20 10 -24z"/>
<path d="M4982 5371 c-29 -4 -58 -13 -63 -21 -7 -10 -8 -56 -3 -130 5 -63 8
-154 9 -201 0 -82 -2 -88 -37 -146 -45 -72 -47 -89 -13 -105 30 -14 32 -38 5
-63 -21 -19 -43 -83 -36 -106 2 -8 12 -40 22 -71 16 -50 16 -62 4 -113 -12
-49 -11 -60 3 -90 9 -18 25 -36 35 -39 13 -5 22 -20 27 -44 14 -76 26 -80 289
-93 175 -8 225 -7 294 5 135 24 208 80 233 179 16 67 6 196 -24 285 -17 52
-23 86 -19 118 4 39 1 50 -25 82 -66 82 -75 129 -74 355 1 123 -2 183 -10 193
-9 11 -62 14 -288 13 -152 -1 -300 -5 -329 -8z m552 -57 c24 -23 21 -109 -3
-133 -29 -29 -64 -33 -304 -29 l-219 3 -20 25 c-16 19 -19 35 -15 73 2 26 7
50 10 53 16 16 92 22 304 23 198 1 234 -1 247 -15z"/>
</g>
</svg>
