<?xml version="1.0" standalone="no"?>
<!DOCTYPE svg PUBLIC "-//W3C//DTD SVG 20010904//EN"
 "http://www.w3.org/TR/2001/REC-SVG-20010904/DTD/svg10.dtd">
<svg version="1.0" xmlns="http://www.w3.org/2000/svg"
 width="1024.000000pt" height="1536.000000pt" viewBox="0 0 1024.000000 1536.000000"
 preserveAspectRatio="xMidYMid meet">
<metadata>
Created by potrace 1.16, written by Peter Selinger 2001-2019
</metadata>
<g transform="translate(0.000000,1536.000000) scale(0.100000,-0.100000)"
fill="#000000" stroke="none">
<path d="M5100 14531 c-5 -11 -10 -34 -10 -52 0 -20 -8 -39 -23 -53 -18 -17
-25 -37 -30 -86 -11 -103 -30 -180 -44 -180 -20 0 -30 -29 -38 -110 -3 -41
-15 -115 -25 -165 -10 -49 -30 -171 -45 -270 -34 -230 -53 -278 -166 -432 -32
-43 -45 -53 -69 -53 -30 0 -39 -11 -554 -712 -75 -103 -151 -197 -169 -209
-18 -12 -54 -43 -82 -69 -47 -44 -59 -49 -175 -80 -69 -18 -152 -43 -184 -56
-50 -20 -82 -25 -190 -28 -72 -2 -143 -8 -157 -14 -24 -9 -33 -6 -80 30 -34
25 -53 47 -51 57 2 9 17 47 35 84 30 67 32 69 61 63 125 -22 156 -25 194 -20
68 10 81 28 114 150 17 60 31 121 32 136 2 16 10 36 19 46 9 10 21 41 27 69
12 57 21 66 89 103 61 33 63 55 13 133 -92 145 -99 169 -75 249 20 69 12 170
-27 324 -26 102 -27 118 -15 131 20 19 18 59 -4 108 -23 52 -69 91 -129 109
-26 8 -73 30 -106 50 -65 39 -170 76 -291 102 -108 23 -307 23 -394 1 -77 -21
-174 -71 -204 -106 -12 -14 -52 -47 -88 -73 -108 -77 -172 -182 -203 -331 -35
-170 -15 -303 75 -499 32 -70 75 -174 94 -230 20 -57 43 -114 51 -127 17 -26
13 -67 -13 -133 -13 -33 -18 -37 -40 -32 -32 8 -60 -18 -128 -121 -29 -45 -59
-86 -66 -92 -8 -6 -108 -60 -224 -120 -424 -220 -424 -221 -563 -643 -140
-426 -465 -1545 -482 -1660 -5 -36 -17 -216 -25 -400 -9 -184 -25 -474 -35
-645 -11 -170 -20 -390 -20 -488 l0 -178 47 -20 c26 -11 49 -22 51 -23 1 -2
-11 -64 -27 -137 -56 -253 -63 -308 -57 -399 12 -152 30 -220 65 -252 17 -15
39 -28 49 -28 11 0 25 -18 40 -49 16 -36 31 -53 59 -66 21 -10 59 -38 86 -62
36 -34 54 -44 75 -41 20 2 35 -6 61 -35 54 -60 119 -46 109 25 -3 18 -17 74
-32 123 -31 102 -41 199 -28 265 l9 45 7 -70 c9 -86 31 -152 57 -166 11 -5 34
-9 52 -7 32 3 32 3 38 73 4 39 7 113 8 165 0 53 6 133 11 179 12 92 11 96 -68
279 -22 50 -39 92 -37 92 2 0 39 -22 82 -48 43 -27 103 -60 134 -74 l56 -26 6
-178 c4 -129 13 -219 32 -322 l26 -144 -50 -476 c-28 -263 -69 -657 -91 -878
-32 -325 -44 -414 -64 -472 -13 -39 -28 -96 -31 -127 -6 -41 -22 -83 -58 -149
-118 -212 -264 -540 -378 -843 -85 -230 -539 -1535 -539 -1553 0 -5 8 -13 17
-18 15 -9 14 -13 -9 -41 -74 -88 -125 -212 -162 -398 -30 -148 -29 -153 31
-199 82 -63 251 -164 274 -164 7 0 26 12 41 27 15 15 28 22 28 17 0 -17 76
-114 136 -175 69 -71 146 -112 260 -141 79 -20 115 -22 314 -23 365 0 421 27
375 182 -19 64 -44 85 -183 156 -96 50 -166 91 -240 142 -29 21 -72 106 -115
231 -52 150 -52 154 -23 154 23 0 28 10 71 148 75 237 128 376 272 711 271
634 487 1091 674 1430 56 102 111 212 121 245 11 34 102 351 204 706 101 355
187 652 190 660 9 24 73 -147 287 -770 52 -151 120 -342 152 -425 56 -146 58
-153 60 -260 18 -701 23 -745 194 -1510 92 -415 156 -726 200 -975 17 -96 34
-185 36 -197 4 -19 12 -23 41 -23 31 0 35 -3 29 -17 -47 -108 -49 -123 -49
-322 1 -223 0 -220 95 -240 64 -14 394 -14 420 -1 11 6 19 21 19 35 0 33 17
33 204 -6 142 -30 160 -31 301 -25 251 10 547 85 608 154 40 44 -15 163 -93
203 -19 10 -96 27 -170 39 -269 41 -365 73 -420 141 -17 21 -39 39 -50 39 -10
0 -22 9 -25 20 -3 11 -27 34 -52 51 -101 70 -131 109 -83 109 10 0 21 4 24 8
2 4 -16 89 -40 188 -82 323 -120 535 -168 934 -56 458 -91 907 -106 1345 l-9
270 -115 565 c-153 752 -197 964 -257 1220 -42 180 -195 796 -215 866 -5 20
-1 22 61 27 49 3 73 10 88 25 20 20 20 25 8 184 -15 202 -72 705 -151 1343
-33 268 -60 517 -60 553 0 37 14 171 30 299 42 328 48 546 21 778 -23 195 -25
235 -13 235 10 0 490 247 613 315 140 78 235 144 286 197 23 23 145 203 271
398 126 195 280 433 342 527 98 151 112 177 106 203 -7 40 -56 110 -101 147
l-34 29 102 137 102 137 17 -38 c10 -20 30 -75 45 -121 l26 -84 -20 -16 c-12
-9 -35 -24 -52 -33 -17 -10 -34 -24 -37 -33 -13 -33 347 -1032 405 -1125 41
-66 98 -123 256 -255 290 -243 658 -524 863 -660 39 -26 72 -51 72 -54 0 -4
-11 -45 -24 -91 -52 -180 -61 -245 -60 -430 1 -157 4 -185 28 -270 87 -309
115 -481 102 -621 -14 -150 -95 -493 -218 -919 -107 -371 -104 -359 -92 -378
9 -14 70 -55 98 -65 4 -1 -19 -214 -53 -472 -33 -259 -85 -666 -116 -905 -30
-239 -72 -562 -92 -718 -25 -195 -34 -285 -26 -293 18 -18 153 -59 250 -76
l93 -17 0 -197 c0 -155 4 -221 21 -315 23 -130 23 -231 -1 -739 -5 -126 -19
-446 -30 -710 -23 -543 -44 -846 -66 -972 -33 -193 -106 -348 -256 -550 -97
-130 -133 -158 -297 -232 -77 -35 -159 -76 -182 -93 -70 -51 -90 -142 -39
-180 71 -52 502 -51 645 3 39 14 80 45 157 116 105 97 203 171 214 160 4 -3
11 -46 17 -94 5 -48 14 -94 20 -101 13 -16 118 -16 141 1 11 8 27 49 42 105
12 50 40 129 61 174 37 82 38 85 38 203 l0 121 -42 84 c-56 113 -67 169 -59
306 12 214 66 473 211 1009 52 193 106 406 120 475 35 173 42 344 20 535 -36
326 -33 422 26 668 l31 127 209 -2 210 -3 35 -105 c43 -128 100 -265 128 -305
11 -16 63 -83 114 -148 126 -158 146 -193 356 -616 317 -639 490 -1018 567
-1239 84 -244 112 -485 91 -787 -8 -126 -12 -148 -40 -206 -17 -35 -62 -100
-100 -144 -86 -99 -103 -133 -110 -211 -4 -56 -2 -63 19 -78 53 -37 235 -12
388 53 205 87 307 216 336 421 12 88 38 210 44 210 3 0 16 -15 29 -34 58 -85
100 -94 149 -29 l26 34 -27 107 c-14 59 -30 154 -35 211 -8 84 -16 116 -41
167 -35 72 -105 144 -205 212 -84 57 -134 124 -170 230 -14 42 -57 232 -96
422 -206 1017 -264 1169 -591 1552 -33 39 -62 84 -68 107 -15 56 -40 229 -40
278 l0 42 58 16 c70 19 192 63 211 75 16 9 18 -17 -43 460 -42 322 -67 574
-101 995 -32 412 -50 571 -81 726 l-25 127 38 51 c22 28 55 82 74 119 19 37
35 69 36 71 1 2 27 -7 57 -19 30 -13 61 -20 68 -17 8 3 37 40 63 84 27 43 96
152 154 243 179 282 378 618 448 757 103 203 101 237 -33 528 -36 77 -131 266
-211 420 -191 366 -187 357 -245 520 -70 195 -136 321 -201 382 -29 27 -60 54
-70 59 -17 10 -17 12 0 44 28 56 29 130 3 211 -34 104 -101 200 -215 304 -204
186 -252 295 -290 650 -39 370 -99 545 -238 691 -115 122 -256 179 -471 190
-135 7 -253 -12 -341 -54 -33 -16 -100 -49 -150 -72 -173 -83 -301 -250 -313
-408 -6 -86 14 -132 75 -175 37 -27 43 -36 43 -67 0 -41 -13 -63 -87 -143 -29
-32 -53 -67 -53 -78 0 -11 19 -33 49 -54 54 -39 61 -51 61 -100 0 -18 7 -39
16 -46 12 -10 15 -24 11 -54 -5 -33 -2 -45 14 -58 17 -15 19 -25 13 -77 -12
-109 33 -137 197 -126 94 6 99 5 114 -16 17 -25 75 -170 75 -189 0 -8 -14 -10
-47 -5 -27 4 -107 11 -180 15 -112 8 -140 13 -190 37 -44 21 -79 28 -148 33
-106 7 -90 -1 -409 208 -120 79 -223 143 -227 143 -5 0 -20 24 -33 54 -13 30
-38 64 -55 77 -33 25 -43 44 -302 634 -87 198 -163 367 -167 375 -5 8 -19 15
-32 15 -18 0 -29 16 -61 90 -64 149 -67 179 -36 304 14 58 31 140 38 181 6 41
19 126 30 188 24 145 24 150 -6 164 -32 14 -59 -8 -89 -72 l-20 -45 -8 85 c-5
47 -22 163 -38 259 -17 96 -30 190 -30 208 0 26 -6 36 -25 45 -21 10 -29 8
-48 -10 -22 -21 -23 -21 -35 -2 -16 26 -58 26 -72 1z m1764 -1791 c-9 -33 -13
-75 -9 -105 4 -41 3 -46 -7 -31 -17 30 -15 96 6 149 24 63 28 56 10 -13z
m1751 -1155 c79 -78 108 -138 113 -231 4 -65 2 -74 -19 -95 l-24 -24 -7 65
c-9 84 -55 176 -149 300 -40 52 -81 111 -93 130 -19 32 -15 30 49 -25 38 -33
97 -87 130 -120z m-1305 -132 c0 -21 -7 -58 -16 -83 -29 -83 -45 -204 -50
-380 -3 -96 -2 -207 3 -247 l8 -72 125 146 c283 333 357 429 434 566 44 78 52
65 60 -90 9 -156 20 -221 48 -277 l20 -39 -88 6 c-49 4 -105 10 -124 13 -35 5
-35 5 -81 -73 -210 -352 -402 -737 -510 -1018 -21 -55 -39 -95 -39 -90 0 6 -9
62 -20 125 -32 182 -42 377 -30 552 13 186 45 413 74 530 l22 88 -40 -6 c-23
-2 -58 -7 -78 -10 -21 -2 -38 -2 -38 1 0 3 33 45 74 93 40 48 97 123 126 167
55 83 98 135 112 135 4 0 8 -17 8 -37z m-5659 -1778 l1 -130 -85 -345 c-47
-190 -115 -471 -152 -625 -36 -154 -68 -284 -70 -290 -13 -28 73 1121 90 1203
8 40 15 95 15 122 0 36 23 118 82 292 l82 243 18 -170 c10 -93 19 -228 19
-300z m7078 255 c159 -209 211 -296 211 -355 0 -34 22 -67 51 -77 26 -10 -271
-580 -403 -775 -39 -57 -73 -103 -76 -103 -4 0 -23 51 -43 113 -20 61 -65 193
-100 292 l-63 180 113 355 c62 195 126 397 143 449 l31 95 24 -30 c13 -16 63
-81 112 -144z m-7479 -1980 c0 -5 -4 -10 -10 -10 -5 0 -10 5 -10 10 0 6 5 10
10 10 6 0 10 -4 10 -10z"/>
</g>
</svg>
