<?xml version="1.0" standalone="no"?>
<!DOCTYPE svg PUBLIC "-//W3C//DTD SVG 20010904//EN"
 "http://www.w3.org/TR/2001/REC-SVG-20010904/DTD/svg10.dtd">
<svg version="1.0" xmlns="http://www.w3.org/2000/svg"
 width="1024.000000pt" height="1536.000000pt" viewBox="0 0 1024.000000 1536.000000"
 preserveAspectRatio="xMidYMid meet">
<metadata>
Created by potrace 1.16, written by Peter Selinger 2001-2019
</metadata>
<g transform="translate(0.000000,1536.000000) scale(0.100000,-0.100000)"
fill="#000000" stroke="none">
<path d="M2094 14335 c-134 -24 -211 -58 -313 -139 -37 -29 -86 -65 -109 -81
-72 -48 -157 -149 -202 -240 -62 -126 -83 -242 -77 -425 8 -227 42 -350 158
-581 77 -154 97 -236 84 -354 -6 -63 -8 -66 -58 -109 -29 -24 -86 -83 -127
-130 -88 -102 -95 -106 -620 -326 -213 -89 -257 -111 -289 -144 -97 -100 -174
-446 -276 -1231 -20 -155 -61 -619 -76 -855 -15 -251 8 -1850 30 -1999 7 -52
32 -71 95 -73 34 -1 36 -3 36 -37 0 -20 -7 -112 -15 -206 -20 -237 -19 -275
11 -374 34 -112 76 -197 122 -244 44 -45 98 -81 111 -73 5 3 32 -10 61 -29 42
-28 62 -35 101 -35 27 0 49 2 49 3 0 3 -10 17 -48 63 -16 18 -32 52 -32 66 1
7 9 -1 18 -19 35 -65 114 -145 169 -170 57 -26 86 -24 103 7 15 28 -2 61 -56
111 -74 69 -93 107 -109 217 -16 105 -20 232 -7 232 4 0 16 -48 25 -107 22
-134 51 -223 80 -245 12 -10 38 -18 58 -18 65 0 66 11 35 322 -16 149 -34 290
-40 312 -7 23 -36 76 -65 118 -45 68 -81 142 -81 169 0 5 11 9 24 9 25 0 36
-28 36 -92 0 -54 49 -117 116 -151 l31 -16 7 -138 c6 -131 41 -592 51 -678 8
-72 44 -685 55 -930 15 -350 13 -460 -15 -786 -62 -743 -60 -1028 10 -2199 8
-135 20 -353 26 -485 13 -271 19 -298 74 -321 26 -11 35 -19 31 -32 -19 -68
-39 -239 -40 -354 -1 -156 0 -160 92 -235 66 -54 126 -72 164 -50 l27 16 50
-69 c27 -37 65 -79 83 -93 104 -78 284 -132 509 -153 127 -11 328 25 370 67
28 28 25 93 -8 159 -19 38 -61 88 -136 160 -59 58 -135 135 -168 172 l-60 67
73 -33 c181 -83 530 -117 637 -62 57 30 67 100 25 184 -32 65 -100 126 -207
188 -45 26 -116 66 -157 90 -41 24 -90 58 -107 76 -35 36 -103 159 -103 187 0
10 -16 62 -35 117 -19 54 -35 108 -35 119 0 13 13 27 36 40 36 19 39 27 104
215 204 594 465 1175 904 2018 44 83 80 167 87 200 20 97 -3 886 -46 1577 -15
236 -50 677 -60 745 -3 19 -10 92 -15 163 -6 70 -13 133 -15 140 -3 7 16 20
48 32 43 17 53 25 55 47 4 30 -86 835 -123 1114 -14 100 -22 195 -19 210 5 27
-7 105 -57 384 -31 169 -43 433 -33 695 l9 229 49 -84 c71 -125 182 -276 251
-345 91 -90 207 -145 310 -145 85 0 186 73 235 170 32 63 54 166 114 530 85
514 106 658 106 708 0 60 -27 119 -80 176 -40 43 -41 46 -31 83 6 21 11 51 11
66 0 27 2 28 43 25 l42 -3 -3 -68 c-5 -97 5 -109 115 -135 240 -58 618 -66
713 -17 37 19 40 30 40 148 1 56 5 147 10 202 5 55 25 296 45 535 33 394 38
440 61 491 39 92 29 170 -30 216 -13 11 -30 39 -37 63 -31 102 -147 170 -262
155 -29 -4 -63 -11 -76 -16 -19 -8 -29 -4 -56 20 -40 35 -92 45 -163 31 -60
-11 -101 -36 -132 -80 -16 -22 -30 -30 -51 -30 -36 0 -96 -29 -126 -62 -53
-57 -69 -167 -35 -243 14 -31 17 -57 14 -113 l-4 -73 -109 3 c-96 2 -111 0
-136 -18 -41 -31 -62 -74 -71 -140 -7 -58 -8 -59 -43 -65 -50 -8 -100 -39
-126 -79 -35 -50 -81 -208 -94 -316 -14 -118 -7 -266 15 -316 23 -54 20 -79
-18 -129 -42 -56 -54 -100 -81 -308 -13 -104 -20 -131 -28 -120 -2 2 -38 110
-81 239 -84 257 -171 495 -212 578 -39 80 -66 95 -359 203 -175 64 -319 125
-367 156 -29 18 -38 20 -38 9 0 -14 56 -344 85 -501 11 -63 14 -166 14 -475
-1 -239 -5 -371 -9 -335 -5 33 -15 125 -25 205 -20 177 -37 275 -77 445 -30
127 -34 184 -20 254 l8 35 39 -54 c28 -38 41 -49 43 -37 6 31 -52 122 -129
199 l-76 77 34 33 c47 45 103 164 103 217 0 24 3 41 8 39 64 -33 95 -41 157
-42 115 -1 123 6 220 207 45 95 105 226 131 292 l49 120 0 155 1 155 31 50
c48 74 57 127 50 289 -3 78 -10 155 -16 173 -9 32 -9 32 12 18 12 -8 42 -21
66 -30 l43 -15 -27 38 c-16 20 -39 49 -52 63 l-24 26 23 7 c13 3 39 6 59 6
l36 0 -54 58 c-29 31 -78 83 -108 115 -41 43 -49 57 -35 57 28 0 71 22 67 34
-5 16 -408 223 -501 258 -144 53 -342 71 -492 43z m-451 -1040 c-51 -22 -68
-58 -68 -145 0 -41 3 -88 8 -105 4 -19 1 -15 -9 10 -11 29 -14 60 -11 113 6
78 24 117 60 132 36 14 55 10 20 -5z m94 -11 l28 -26 -30 20 c-16 10 -37 22
-45 25 -12 4 -12 6 2 6 9 1 30 -11 45 -25z m-108 -325 c41 -67 40 -75 -4 -13
-32 44 -41 64 -31 64 1 0 17 -23 35 -51z m23 -622 c49 -48 239 -179 458 -317
47 -29 89 -57 93 -60 5 -4 -20 -41 -55 -81 -98 -113 -181 -219 -176 -224 2 -2
33 25 68 60 36 36 68 65 72 65 12 0 78 -74 104 -117 l26 -43 -11 -175 c-6 -97
-11 -276 -12 -398 l0 -222 -63 180 c-124 352 -313 804 -478 1138 -59 119 -88
190 -88 213 0 19 2 34 4 34 2 0 29 -24 58 -53z m2501 -27 l48 0 -2 -196 c-1
-204 -5 -246 -20 -222 -8 12 -5 57 7 115 3 14 -4 29 -18 43 -17 16 -18 20 -6
20 13 0 15 11 12 63 -4 71 -28 101 -89 113 -30 5 -35 10 -35 33 0 34 9 44 35
37 11 -3 42 -6 68 -6z m37 -605 l0 -95 -42 0 -43 0 26 23 c31 26 44 69 29 97
-8 16 -7 26 7 45 10 13 19 25 21 25 1 0 2 -43 2 -95z m-467 -433 c41 -44 127
-93 192 -109 61 -15 69 -15 101 0 24 12 41 31 55 60 l19 42 -5 -55 c-4 -30
-14 -71 -23 -90 -17 -35 -18 -35 -82 -35 -75 0 -156 33 -227 91 -51 41 -70 75
-79 135 l-6 44 17 -30 c9 -16 26 -40 38 -53z m-2724 -1528 c23 -246 21 -291
-24 -659 -28 -230 -45 -427 -45 -529 0 -39 -5 -78 -10 -86 -6 -10 -10 158 -10
485 l-1 500 33 269 c18 147 34 262 35 255 1 -8 11 -113 22 -235z m1292 -3109
c55 -405 139 -982 179 -1220 27 -162 26 -178 -11 -225 -32 -39 -32 -40 -19
-98 l12 -58 -54 -81 c-108 -161 -290 -558 -373 -810 -19 -59 -31 -71 -21 -20
4 17 16 124 26 237 11 113 38 392 60 620 22 228 42 440 45 470 12 131 46 545
65 785 11 143 22 285 25 315 17 226 30 351 33 330 1 -14 16 -124 33 -245z
m-1588 185 c3 -11 1 -18 -4 -14 -5 3 -9 12 -9 20 0 20 7 17 13 -6z"/>
<path d="M8240 13293 c-114 -11 -273 -62 -329 -105 -13 -10 -54 -27 -92 -38
-112 -34 -222 -129 -314 -270 -146 -226 -165 -530 -38 -627 18 -14 36 -23 39
-20 3 3 1 29 -4 59 -16 81 8 249 40 283 5 6 4 -3 -2 -20 -7 -16 -14 -75 -17
-130 -5 -92 -3 -105 21 -164 31 -76 28 -125 -10 -230 -34 -89 -32 -117 11
-157 21 -20 35 -42 35 -57 0 -13 7 -46 15 -73 19 -62 19 -101 0 -242 -22 -163
-2 -276 59 -331 30 -28 34 -56 10 -65 -9 -4 -48 -11 -87 -16 -83 -12 -124 -30
-177 -79 -51 -47 -185 -250 -205 -311 -11 -34 -29 -59 -60 -84 -31 -26 -48
-50 -60 -85 -13 -40 -38 -70 -138 -170 -99 -98 -123 -117 -129 -103 -7 16
-114 451 -154 627 -14 58 -26 88 -47 110 -28 29 -29 33 -24 105 3 41 11 100
17 130 24 109 -11 366 -66 477 -29 60 -62 87 -126 104 l-45 12 1 111 c1 92 -2
118 -19 151 -26 52 -89 85 -162 85 l-54 0 7 68 c6 54 13 73 35 100 43 48 44
149 4 218 -22 37 -91 94 -114 94 -5 0 -19 15 -31 34 -11 19 -37 44 -58 56 -48
29 -144 38 -192 18 -32 -13 -38 -13 -67 4 -76 46 -196 31 -264 -33 -17 -16
-52 -38 -77 -49 -95 -42 -136 -107 -136 -215 0 -45 5 -81 15 -100 14 -25 15
-49 8 -150 -4 -66 -12 -228 -18 -360 -16 -331 -28 -472 -53 -597 -25 -131 -21
-153 35 -178 95 -41 412 -90 586 -90 96 0 111 2 136 22 35 27 52 68 61 146 l7
62 42 0 43 0 51 -99 c28 -55 51 -106 51 -114 0 -9 -15 -25 -34 -36 -45 -28
-156 -147 -157 -169 -3 -44 7 -94 66 -337 34 -143 79 -334 100 -425 111 -493
146 -593 233 -654 52 -37 95 -54 139 -55 87 -2 440 168 652 316 35 24 64 43
66 41 4 -5 44 -440 50 -545 8 -140 -7 -240 -75 -513 -102 -406 -240 -975 -240
-992 0 -21 63 -76 96 -84 21 -5 24 -11 20 -33 -51 -251 -153 -1036 -196 -1511
-11 -124 -27 -290 -35 -370 -8 -80 -20 -239 -26 -353 -11 -171 -11 -210 0
-216 7 -5 60 -23 117 -42 104 -33 104 -33 104 -66 0 -17 14 -130 30 -249 l30
-218 -6 -410 c-5 -334 -2 -501 15 -891 32 -737 28 -949 -24 -1100 -72 -209
-317 -499 -560 -662 -186 -125 -244 -203 -200 -269 56 -86 335 -99 585 -27
120 34 172 66 280 168 84 79 173 155 182 155 2 0 2 -33 0 -72 -5 -99 7 -113
85 -112 63 1 128 16 156 36 12 9 25 51 42 133 13 66 31 140 40 164 44 125 38
250 -21 422 -26 76 -37 128 -41 195 -10 165 29 502 97 834 109 527 126 625
140 825 10 140 -1 347 -31 590 -15 121 -20 198 -16 268 4 54 8 101 11 105 2 4
77 5 166 2 l163 -5 14 -50 c26 -93 63 -181 112 -266 117 -204 169 -315 306
-649 274 -669 435 -1200 435 -1437 0 -34 -7 -96 -15 -139 -15 -78 -155 -514
-182 -569 -23 -45 -77 -117 -166 -218 -112 -130 -134 -179 -106 -240 25 -55
135 -83 292 -74 201 12 367 75 471 179 65 65 71 77 120 233 13 44 38 105 55
135 l30 55 -2 -44 c-1 -35 3 -47 22 -62 48 -39 164 -11 175 43 9 43 21 293 20
408 -1 161 -20 208 -126 313 -128 126 -161 224 -178 530 -38 682 -57 877 -105
1062 -49 193 -119 341 -255 545 -75 112 -106 174 -123 249 l-14 61 23 0 c13 0
42 7 64 16 49 20 46 0 60 369 22 588 53 1055 90 1395 5 47 14 180 20 295 5
116 13 251 17 300 7 87 7 89 14 40 4 -27 8 -77 8 -111 1 -74 15 -94 69 -101
23 -3 42 -7 42 -9 0 -2 -11 -19 -25 -39 -56 -84 -89 -220 -105 -440 -26 -336
-26 -321 4 -340 16 -11 35 -15 50 -11 41 10 63 61 81 186 23 164 36 181 31 40
-5 -125 -15 -160 -71 -245 -37 -56 -59 -126 -50 -155 9 -28 52 -26 111 7 27
14 81 42 119 62 44 23 75 46 82 63 7 14 26 31 43 38 63 26 132 125 186 271 28
72 34 103 34 165 0 63 -28 284 -45 360 -4 17 1 23 23 27 15 3 36 12 47 20 19
15 20 29 20 844 0 1068 -16 1388 -120 2328 -51 458 -111 593 -288 649 -15 5
-16 9 -7 26 20 38 28 151 15 225 -17 97 -31 125 -144 298 -54 84 -108 171
-119 193 -42 82 -62 191 -72 384 -17 299 -40 445 -100 635 -96 299 -250 472
-494 556 -117 41 -235 55 -356 42z m575 -1057 c25 -25 45 -82 45 -128 0 -40
-20 -129 -37 -161 -22 -44 -26 -25 -4 24 55 126 26 267 -59 282 -24 4 -24 4 3
6 17 0 37 -8 52 -23z m-2614 -242 c9 -11 10 -31 3 -72 l-9 -57 -49 0 c-45 0
-51 -3 -57 -25 -5 -14 -5 18 -2 70 3 52 7 97 8 100 7 11 95 -3 106 -16z m2579
-114 c-11 -16 -26 -33 -33 -37 -12 -7 0 11 32 50 23 28 24 20 1 -13z m-2701
-213 c-5 -16 -11 -77 -15 -137 -6 -93 -4 -113 10 -135 16 -25 16 -25 -13 -25
-40 0 -44 17 -26 124 8 50 20 141 27 201 12 107 13 108 19 55 3 -30 2 -68 -2
-83z m1635 -361 c5 -136 -3 -150 -28 -51 -16 61 -22 238 -9 272 13 33 33 -84
37 -221z m1651 2 c57 -90 79 -161 73 -240 -7 -102 -48 -107 -48 -5 0 86 -24
192 -59 260 -16 31 -26 57 -21 57 4 0 29 -33 55 -72z m-705 -153 c-16 -47 -23
-40 -8 8 6 20 13 35 16 33 2 -3 -1 -21 -8 -41z m-646 -60 c-4 -8 -11 -15 -16
-15 -6 0 -5 6 2 15 7 8 14 15 16 15 2 0 1 -7 -2 -15z m1261 -45 c13 -6 15 -9
5 -9 -8 0 -22 4 -30 9 -18 12 -2 12 25 0z m-690 -39 c-3 -6 -11 -11 -16 -11
-5 0 -4 6 3 14 14 16 24 13 13 -3z m-2045 -76 c0 -3 -52 -31 -115 -62 -87 -42
-128 -57 -167 -59 l-53 -3 45 8 c25 5 99 33 165 64 137 63 125 59 125 52z
m1438 -268 c26 -9 64 -18 84 -22 39 -6 208 19 241 36 10 6 21 9 23 6 2 -2 -36
-56 -86 -121 -49 -64 -120 -165 -157 -224 -76 -121 -232 -424 -253 -492 -7
-25 -18 -49 -23 -55 -5 -6 -7 109 -4 285 4 289 16 415 63 644 l6 28 29 -35
c19 -23 46 -41 77 -50z m1226 -1507 c33 -274 44 -488 50 -920 4 -243 2 -318
-5 -275 -6 33 -26 159 -45 280 -19 121 -48 290 -65 375 -42 218 -46 301 -20
425 12 55 29 140 38 188 9 48 20 82 24 75 3 -7 14 -74 23 -148z"/>
</g>
</svg>
