<?xml version="1.0" standalone="no"?>
<!DOCTYPE svg PUBLIC "-//W3C//DTD SVG 20010904//EN"
 "http://www.w3.org/TR/2001/REC-SVG-20010904/DTD/svg10.dtd">
<svg version="1.0" xmlns="http://www.w3.org/2000/svg"
 width="1536.000000pt" height="1024.000000pt" viewBox="0 0 1536.000000 1024.000000"
 preserveAspectRatio="xMidYMid meet">
<metadata>
Created by potrace 1.16, written by Peter Selinger 2001-2019
</metadata>
<g transform="translate(0.000000,1024.000000) scale(0.100000,-0.100000)"
fill="#000000" stroke="none">
<path d="M5813 8080 c-83 -22 -116 -38 -196 -93 -134 -94 -205 -292 -163 -456
9 -34 16 -87 16 -116 0 -30 5 -57 10 -60 6 -3 10 -19 10 -35 0 -16 -4 -32 -10
-35 -24 -15 -4 -51 81 -139 91 -95 228 -197 352 -261 61 -32 71 -45 33 -45
-23 0 -76 -49 -76 -70 0 -5 -3 -16 -7 -26 -4 -10 -2 -15 3 -11 5 3 21 -18 34
-46 24 -50 25 -59 22 -228 -2 -97 -7 -189 -12 -205 -7 -24 -8 -25 -9 -7 -2 35
-67 225 -115 336 -52 120 -171 352 -231 452 -23 39 -59 99 -80 135 -21 36 -40
67 -41 69 -2 2 -31 -22 -66 -54 -80 -72 -89 -77 -277 -136 -314 -100 -407
-139 -450 -187 -37 -42 -70 -126 -83 -210 -6 -43 -19 -87 -29 -100 -61 -79
-119 -435 -119 -737 0 -248 27 -365 98 -436 26 -25 53 -48 60 -50 12 -4 10
-27 -7 -129 -38 -232 -60 -421 -85 -748 -8 -101 -16 -186 -18 -187 -2 -2 -31
15 -65 38 -33 24 -80 51 -103 62 -36 16 -46 17 -73 6 -18 -7 -70 -24 -117 -37
-47 -14 -99 -29 -116 -34 -44 -14 -115 -12 -144 5 -17 9 -57 14 -120 15 -52 0
-131 7 -175 14 -44 8 -117 17 -162 21 -46 4 -83 11 -83 15 0 20 -54 71 -74 69
-44 -3 -57 2 -66 24 -4 12 -22 58 -39 102 -16 44 -43 112 -59 150 -21 51 -31
96 -36 160 -15 193 -68 473 -99 530 -6 11 -11 66 -12 126 0 98 -2 109 -27 147
-42 62 -46 111 -14 158 14 21 26 42 26 47 0 18 50 85 68 89 10 3 48 -8 83 -25
139 -65 215 -23 180 99 -7 26 -5 33 18 52 18 14 35 44 47 82 15 49 24 62 44
67 35 8 60 32 60 58 0 13 -15 45 -33 71 -69 100 -79 136 -53 177 22 33 8 153
-28 256 -23 63 -20 71 11 28 21 -29 29 -34 40 -26 7 7 11 14 9 17 -3 2 1 16 8
31 12 22 12 32 1 57 -7 17 -23 38 -35 47 -12 8 -19 20 -16 25 3 6 -2 12 -11
15 -15 3 -14 6 7 14 24 10 24 11 5 19 -11 4 -56 23 -100 42 -213 91 -220 93
-366 99 -154 6 -253 -10 -312 -53 -17 -13 -57 -37 -88 -53 -98 -52 -177 -164
-199 -282 -25 -129 -7 -232 61 -359 44 -82 80 -213 69 -251 -13 -44 -5 -55 74
-108 144 -97 327 -257 352 -305 21 -43 18 -57 -26 -120 -38 -55 -39 -58 -25
-84 8 -15 24 -38 36 -52 17 -22 19 -38 17 -110 -3 -72 -4 -79 -11 -45 -16 87
-27 124 -55 186 -16 35 -37 84 -47 109 -11 25 -44 92 -74 150 -47 89 -71 120
-156 205 -55 55 -113 107 -128 115 -26 13 -30 13 -40 -5 -6 -11 -20 -29 -31
-40 -12 -12 -32 -41 -45 -66 -31 -56 -54 -83 -116 -129 -121 -90 -269 -271
-331 -406 -50 -107 -101 -269 -118 -371 -20 -118 -44 -434 -56 -738 -6 -137
-14 -275 -17 -305 -6 -52 -8 -46 -29 103 -42 283 -150 677 -213 776 -43 67
-101 96 -175 88 -60 -6 -139 -43 -174 -80 l-24 -25 61 -309 c122 -623 135
-709 135 -943 1 -207 -9 -263 -91 -515 -50 -155 -55 -180 -60 -285 -10 -212
44 -318 200 -390 59 -28 82 -33 175 -37 82 -4 112 -9 127 -23 36 -32 60 -38
180 -50 65 -6 125 -16 133 -23 9 -7 23 -31 34 -53 10 -23 25 -47 33 -54 9 -7
59 -17 112 -21 52 -5 97 -10 99 -12 2 -1 4 -85 4 -186 2 -173 1 -184 -19 -202
-20 -19 -21 -30 -21 -214 l0 -193 -442 -149 c-243 -81 -458 -153 -478 -158
-97 -29 -112 -37 -127 -72 -9 -23 -12 -49 -8 -74 7 -41 7 -41 -48 -53 -15 -4
-42 -19 -60 -35 -29 -27 -32 -34 -32 -88 1 -70 28 -114 87 -138 50 -20 94 -19
143 4 57 26 75 51 81 112 5 47 2 58 -20 88 -26 35 -32 66 -18 87 4 6 45 18 92
27 47 9 153 31 235 50 262 60 430 91 449 84 16 -6 12 -12 -28 -43 -61 -47 -76
-78 -76 -162 l0 -68 -36 -17 c-45 -22 -69 -74 -59 -131 13 -83 60 -116 163
-116 49 0 65 5 95 27 80 62 77 165 -8 234 -31 26 -11 66 59 115 55 38 61 40
85 28 14 -8 56 -14 92 -14 83 0 94 10 84 80 -5 38 -4 50 7 51 7 0 27 2 43 4
17 2 113 -18 215 -45 209 -56 432 -110 455 -110 26 0 16 -28 -21 -57 -19 -15
-42 -40 -50 -55 -32 -61 -2 -163 58 -194 45 -23 147 -16 188 14 17 13 34 20
39 17 9 -5 9 -44 0 -74 -11 -39 266 -75 391 -51 66 12 74 12 172 -15 97 -27
114 -29 308 -29 221 -1 335 12 435 47 72 26 79 45 41 113 -31 56 -31 54 -7 54
11 0 22 4 25 9 3 4 24 11 46 15 l40 6 1 258 c0 141 2 275 4 297 2 22 4 427 6
900 3 1008 11 1554 21 1505 4 -19 17 -138 28 -265 11 -126 27 -265 35 -307 15
-73 14 -83 -5 -180 -16 -75 -20 -121 -15 -168 4 -40 0 -107 -9 -174 -9 -60
-16 -164 -16 -230 0 -265 72 -990 111 -1113 6 -18 19 -35 31 -39 16 -5 19 -11
13 -32 -13 -56 -22 -227 -15 -293 8 -75 23 -100 74 -126 53 -28 185 -44 359
-44 234 0 277 9 277 61 0 16 -4 39 -9 52 -6 13 -17 49 -26 80 -9 36 -26 68
-44 85 -43 41 -62 109 -51 175 37 215 42 349 21 572 -12 121 -12 167 -3 240 7
50 26 213 42 361 23 208 39 307 69 430 22 88 50 212 63 275 l23 115 6 -55 c4
-30 12 -104 20 -165 16 -142 17 -241 2 -338 -7 -43 -13 -125 -13 -181 0 -149
27 -519 50 -676 11 -74 27 -205 35 -290 23 -223 23 -221 41 -235 14 -10 15
-17 6 -45 -7 -18 -12 -81 -12 -140 0 -98 2 -108 23 -127 36 -33 84 -44 218
-50 129 -6 169 2 169 32 0 20 9 19 72 -10 99 -46 183 -58 362 -52 91 3 189 13
226 21 36 9 85 20 109 25 24 5 52 18 63 28 21 21 23 9 -27 143 -17 46 -53 66
-151 85 -166 32 -190 38 -225 56 -45 22 -114 100 -124 137 -4 15 -23 64 -43
110 -30 69 -34 86 -24 100 49 68 53 77 47 122 -3 25 -19 91 -36 148 -36 125
-39 192 -16 367 10 72 24 213 31 315 8 102 19 198 25 214 13 34 37 181 46 286
4 41 20 167 35 280 16 113 32 265 36 338 l7 132 1310 0 1310 0 -27 -32 c-45
-57 -78 -118 -81 -150 -2 -29 -7 -33 -61 -49 -90 -28 -318 -143 -425 -214
-180 -120 -200 -184 -159 -504 12 -86 30 -224 41 -306 31 -235 40 -410 37
-679 l-2 -249 23 -16 c18 -12 53 -15 157 -16 l134 0 0 -100 c0 -112 10 -90
-110 -248 -36 -47 -78 -105 -94 -127 -39 -57 -88 -90 -205 -139 -55 -24 -115
-57 -136 -77 -33 -30 -37 -38 -31 -66 9 -45 15 -49 93 -64 118 -23 342 -14
443 18 65 21 131 75 155 127 13 27 29 52 35 56 18 11 37 -18 46 -68 3 -23 12
-45 18 -49 22 -15 120 -8 143 10 46 35 104 317 80 388 -7 21 -4 22 80 26 48 2
89 3 91 3 3 -3 -83 -215 -118 -289 -18 -40 -55 -89 -105 -141 -90 -93 -101
-114 -80 -155 12 -23 25 -31 72 -41 64 -13 291 -6 353 12 45 12 80 44 103 92
15 33 20 36 36 27 28 -14 67 -12 84 5 8 8 18 43 22 77 4 35 16 89 26 120 26
78 24 98 -17 228 -19 62 -32 116 -27 120 12 12 172 42 183 35 6 -3 10 -20 10
-37 0 -45 28 -95 61 -108 38 -16 145 -9 165 12 8 8 21 36 27 63 l13 47 53 -43
c29 -24 74 -61 99 -82 26 -21 67 -48 92 -61 55 -29 76 -52 84 -92 5 -22 2 -35
-9 -44 -28 -23 -45 -67 -45 -115 0 -50 10 -77 43 -112 25 -28 47 -29 80 -3 32
25 42 25 74 0 38 -30 68 -25 99 15 58 77 38 177 -46 225 -44 26 -45 28 -48 81
-4 88 -8 95 -89 153 -43 31 -73 56 -67 56 22 0 579 -125 610 -137 19 -7 18
-11 -15 -49 -85 -96 -19 -244 108 -244 117 0 180 119 116 220 -20 32 -25 52
-25 109 0 77 -5 85 -72 106 -24 7 -155 48 -293 90 -137 42 -365 112 -505 155
l-255 78 -3 195 c-2 185 -4 196 -22 202 -19 6 -20 16 -20 209 l0 203 51 5 c36
4 57 12 68 26 13 17 38 22 149 35 122 13 135 16 162 42 26 25 38 28 129 34 82
6 105 11 123 28 16 14 44 23 87 28 79 9 159 36 201 66 17 13 43 48 58 79 25
52 27 63 27 195 0 77 -10 241 -23 365 -29 289 -42 424 -39 427 2 1 63 3 136 4
l133 1 -1 -1560 c-2 -1194 1 -1562 10 -1567 20 -13 192 -22 222 -12 22 7 27
15 25 34 l-3 26 135 2 c74 1 143 6 153 10 23 10 22 -10 -3 -42 -11 -14 -20
-36 -20 -48 0 -37 45 -48 198 -47 306 1 366 30 463 220 l32 63 17 -65 c22 -88
42 -109 97 -103 64 7 69 15 72 112 1 61 9 109 27 163 14 42 23 88 20 103 l-5
25 219 38 c120 21 223 35 229 31 6 -3 11 -31 11 -61 0 -87 7 -94 98 -94 l77
-1 23 -35 c12 -20 22 -42 22 -50 0 -8 5 -22 11 -32 9 -14 6 -25 -15 -56 -32
-48 -41 -92 -27 -144 14 -50 49 -79 107 -88 68 -10 129 3 163 35 40 37 48 74
28 128 l-16 43 38 0 c146 0 138 239 -11 316 -35 18 -39 49 -5 40 35 -9 618
-143 657 -151 67 -13 70 -15 70 -50 0 -19 -5 -37 -11 -41 -23 -14 -51 -95 -45
-129 18 -95 144 -145 243 -98 54 25 75 66 70 135 -4 65 -24 95 -85 122 l-37
17 0 65 c-1 44 -6 69 -16 80 -9 8 -65 30 -125 48 -60 19 -264 82 -454 141
-379 117 -502 155 -507 155 -2 0 -3 88 -3 195 0 165 -2 197 -15 201 -13 5 -15
39 -15 215 0 179 2 209 15 210 8 1 24 3 35 4 11 1 35 3 54 4 18 0 50 12 70 26
20 14 49 25 64 25 28 0 73 25 95 52 9 12 39 18 117 22 147 9 228 22 253 41 12
8 37 27 56 40 19 14 46 25 60 25 71 1 159 67 204 154 28 55 31 72 35 169 5
133 -7 220 -65 462 -70 291 -71 425 -3 765 50 254 111 543 125 600 68 267 66
331 -8 374 -23 14 -55 27 -72 30 -46 9 -201 9 -293 1 l-83 -8 8 54 c14 93 7
230 -16 318 -27 104 -52 153 -107 213 -34 37 -44 55 -44 82 0 28 -9 43 -50 82
-167 160 -255 345 -335 698 -37 167 -88 321 -131 394 -46 78 -118 146 -198
187 -67 34 -82 37 -179 42 -124 7 -204 -6 -294 -47 -57 -26 -89 -49 -247 -182
-33 -29 -58 -62 -80 -107 -27 -57 -31 -77 -31 -146 0 -108 28 -166 99 -202
l49 -25 -6 -51 c-3 -29 -17 -77 -31 -107 -43 -92 -31 -130 42 -130 29 0 52
-29 52 -65 0 -7 9 -16 19 -20 11 -3 23 -16 27 -28 3 -12 12 -29 18 -37 7 -8
18 -34 24 -57 10 -32 19 -43 43 -52 17 -6 42 -8 55 -5 18 5 23 2 20 -7 -2 -8
-10 -36 -17 -64 -19 -79 -35 -101 -103 -147 -98 -65 -138 -153 -156 -345 -8
-74 -16 -113 -32 -140 -18 -30 -22 -53 -23 -127 -1 -50 -6 -102 -12 -116 -39
-89 -56 -147 -78 -268 -14 -75 -27 -143 -30 -149 -2 -7 -17 -13 -32 -13 -39 0
-73 -26 -73 -55 0 -19 -7 -26 -27 -31 -16 -4 -38 -13 -50 -20 -12 -8 -63 -23
-113 -34 -51 -11 -106 -28 -123 -37 -30 -15 -33 -15 -129 33 -112 56 -109 45
-52 181 35 84 36 113 3 113 -25 0 -51 -44 -74 -125 -11 -36 -23 -65 -27 -65
-4 0 -8 -6 -8 -13 0 -9 -27 -20 -72 -31 -93 -22 -115 -37 -128 -85 -5 -21 -21
-55 -35 -75 -32 -47 -31 -61 5 -98 50 -50 43 -56 -67 -54 -66 2 -108 -2 -129
-12 -18 -7 -47 -12 -66 -10 l-35 3 19 95 c28 146 78 533 85 651 4 74 2 112 -6
128 -18 32 -69 51 -162 58 l-80 6 7 126 c8 148 -9 382 -35 480 -10 38 -29 88
-42 112 -30 54 -93 87 -314 164 -88 31 -179 63 -202 71 -30 11 -60 36 -100 80
l-57 65 25 22 c14 12 33 48 44 82 10 33 32 79 47 103 16 23 46 77 66 119 33
69 37 88 40 174 5 118 -19 227 -77 344 -54 108 -109 169 -190 210 -126 63
-250 71 -463 29 -155 -30 -227 -64 -302 -144 -50 -54 -96 -139 -96 -180 0 -71
35 -125 65 -100 14 11 25 -34 25 -105 0 -35 -6 -45 -54 -90 -70 -65 -74 -84
-19 -109 l42 -19 -6 -66 c-5 -58 -3 -68 16 -85 11 -11 21 -29 21 -42 0 -12 6
-24 13 -27 9 -3 9 -7 -1 -20 -7 -9 -12 -31 -10 -49 4 -47 50 -68 145 -68 62 0
75 -3 102 -26 40 -34 39 -55 -5 -94 -48 -42 -128 -78 -319 -145 -173 -60 -191
-72 -253 -165 -49 -75 -79 -152 -92 -241 -6 -40 -13 -85 -15 -98 -2 -13 -13
-34 -25 -46 -13 -14 -20 -35 -20 -61 0 -22 -16 -85 -36 -140 -19 -54 -44 -138
-55 -186 -21 -98 -30 -119 -65 -168 -14 -19 -32 -61 -41 -92 -11 -39 -29 -71
-55 -100 -60 -65 -67 -79 -74 -144 -4 -44 0 -79 16 -134 11 -41 21 -89 20
-107 0 -17 4 -34 10 -38 5 -3 10 -11 10 -17 0 -7 -44 -8 -137 -4 -76 3 -537 6
-1024 6 l-887 0 -7 198 c-8 233 -31 581 -41 605 -4 11 -1 17 9 17 32 0 32 64
2 190 -19 77 -35 191 -40 283 -4 85 -6 84 56 35 89 -71 187 -82 414 -48 72 10
181 20 243 21 139 2 149 4 167 40 29 56 68 195 66 236 -2 37 1 43 21 47 155
30 314 96 344 141 9 14 22 25 28 25 16 0 68 57 86 94 8 16 29 36 47 44 18 9
35 24 38 33 9 26 -13 61 -33 55 -9 -3 -30 -8 -47 -11 -27 -5 -28 -4 -11 7 55
38 64 52 55 86 -5 17 -15 32 -22 32 -7 0 -53 -11 -103 -25 -102 -28 -243 -55
-290 -55 -16 0 -38 6 -48 13 -22 16 -16 31 40 104 67 88 64 173 -7 173 -35 0
-79 -39 -79 -70 0 -42 -29 -76 -104 -120 -79 -47 -106 -81 -106 -135 0 -35
-61 -90 -120 -110 -25 -8 -92 -22 -150 -31 -118 -18 -106 -23 -159 65 -14 23
-33 43 -42 46 -10 3 -29 35 -44 73 -15 37 -49 109 -76 161 -27 52 -49 103 -49
113 0 11 -11 39 -25 62 -14 24 -34 85 -45 136 -25 110 -48 160 -93 194 -34 26
-233 123 -339 165 -32 13 -58 26 -58 28 0 3 13 22 29 42 38 49 48 69 83 170
17 47 39 110 50 139 21 59 14 106 -23 170 -19 34 -19 34 2 72 31 55 23 161
-20 249 -17 35 -35 69 -41 76 -6 7 -8 19 -4 28 13 36 -39 92 -124 133 -115 54
-279 68 -409 34z m346 -1232 c22 -101 30 -186 37 -417 5 -173 4 -232 -5 -227
-6 4 -11 14 -11 23 0 40 -55 257 -86 337 -37 96 -42 137 -19 156 17 14 20 50
5 50 -5 0 -10 7 -10 15 0 8 -13 24 -30 37 -16 12 -30 25 -30 29 0 12 84 49
112 49 24 0 27 -5 37 -52z m1282 -875 c-8 -15 -10 -15 -11 -2 0 17 10 32 18
25 2 -3 -1 -13 -7 -23z m-3 -310 c28 -54 56 -73 96 -66 l31 5 -36 -25 c-20
-14 -48 -29 -63 -33 -24 -6 -28 -2 -51 47 -47 103 -58 237 -24 314 12 28 14
21 19 -85 5 -91 11 -124 28 -157z m-1785 45 c2 -7 -3 -38 -11 -68 -16 -59 -22
-247 -9 -292 7 -27 6 -28 -27 -28 -56 0 -60 18 -35 165 5 33 16 80 24 105 8
25 19 64 25 88 11 41 24 54 33 30z m4247 -234 c69 -17 124 -17 175 1 21 8 41
12 43 10 2 -2 -26 -67 -62 -145 -119 -253 -196 -467 -231 -635 -18 -90 -31
-112 -40 -69 -3 16 -13 57 -21 92 -42 181 -40 390 7 642 26 136 25 134 52 125
12 -3 47 -13 77 -21z m-466 -996 c16 -55 14 -68 -10 -68 -11 0 -14 14 -14 60
0 33 2 60 4 60 3 0 11 -23 20 -52z m-5668 -280 c4 -13 8 -59 9 -103 2 -91 -13
-129 -57 -144 -26 -9 -27 -8 -23 17 32 210 40 252 51 252 7 0 16 -10 20 -22z
m9092 -63 c-2 -36 -15 -43 -52 -29 -13 5 -11 11 12 34 36 38 43 37 40 -5z
m-270 -281 c18 -12 42 -15 101 -13 76 4 77 4 73 -19 -6 -28 24 -109 44 -120
13 -7 8 -20 -26 -71 -23 -35 -55 -93 -72 -130 -16 -36 -33 -73 -37 -81 -5 -9
-31 -18 -62 -23 -84 -11 -455 -96 -544 -124 -167 -52 -252 -119 -281 -220 -9
-29 -18 -53 -21 -53 -3 0 -3 39 0 88 4 48 7 214 7 370 l0 282 186 0 c102 0
274 5 382 11 210 11 234 18 213 57 -15 28 -14 62 2 62 7 0 23 -7 35 -16z
m-9217 -89 c136 -9 265 -13 287 -9 21 3 118 1 213 -5 96 -5 256 -13 357 -17
l182 -6 -2 -1412 -3 -1411 -40 3 c-22 2 -70 10 -107 19 -62 13 -73 20 -120 71
-29 31 -68 72 -87 90 -18 18 -30 36 -26 40 3 4 11 0 16 -9 4 -9 19 -24 33 -32
24 -16 24 -16 17 9 -8 30 -87 95 -107 87 -8 -3 -26 3 -40 12 -25 16 -26 20
-20 78 3 33 11 64 17 68 6 3 32 9 58 12 74 9 130 35 148 71 14 27 15 68 10
338 l-6 308 39 238 c21 130 53 318 70 417 48 270 36 356 -61 439 -74 63 -190
95 -664 185 -148 29 -286 55 -304 59 -32 6 -39 16 -98 127 -34 66 -76 150 -92
187 l-30 68 57 -5 c31 -3 168 -12 303 -20z m7703 -771 c3 -9 6 -25 6 -36 0
-16 -3 -18 -13 -10 -7 6 -43 14 -80 18 -37 4 -67 10 -67 14 0 8 79 27 121 29
16 1 29 -5 33 -15z m3381 -120 c5 -59 4 -104 -3 -117 -10 -22 -10 -22 -20 4
-16 41 -60 66 -130 74 -34 4 -65 11 -68 16 -3 5 0 8 8 7 8 -2 19 15 28 43 l15
47 63 -1 c35 0 68 5 74 11 7 7 15 12 19 12 4 0 10 -43 14 -96z m-13095 -52
c-34 -13 -52 -29 -75 -65 -16 -25 -33 -47 -36 -47 -10 0 -19 40 -19 84 l0 39
38 -6 c20 -3 46 -1 57 3 11 5 34 9 50 9 27 0 26 -2 -15 -17z m10444 -203 c18
-68 43 -168 54 -222 12 -53 62 -222 111 -375 50 -152 100 -313 111 -357 23
-89 46 -335 36 -387 -3 -18 -45 -111 -94 -207 l-87 -173 -83 -44 c-46 -24 -85
-44 -88 -44 -2 0 -4 437 -4 972 0 534 2 969 5 966 3 -3 20 -61 39 -129z
m-2537 -59 c49 0 42 17 68 -190 27 -211 30 -440 10 -663 -9 -108 -15 -203 -12
-211 7 -17 90 -46 134 -46 58 0 36 -17 -44 -33 -43 -9 -109 -23 -148 -32 -38
-8 -73 -15 -76 -15 -3 0 -9 38 -13 84 -3 46 -8 90 -11 98 -3 7 5 17 17 23 22
10 23 13 21 150 -3 220 -35 757 -49 827 -5 26 -5 27 28 17 18 -5 52 -9 75 -9z
m-5827 -25 c-31 -31 -33 -40 -31 -87 1 -36 -4 -66 -17 -93 -37 -75 -71 -376
-87 -760 -3 -77 -8 -178 -11 -226 -5 -70 -3 -87 10 -98 19 -16 23 -131 5 -131
-7 0 -174 48 -373 107 -199 58 -415 120 -481 138 l-120 32 -3 196 -2 197 -25
6 -25 6 0 189 0 189 24 0 c13 0 31 2 39 5 10 4 23 -14 45 -59 37 -77 54 -84
178 -67 107 15 134 48 103 127 -8 24 -7 31 10 44 15 11 21 29 23 70 l3 55 230
0 230 0 86 41 c58 28 99 56 130 88 37 40 67 62 88 65 3 1 -10 -15 -29 -34z
m6630 -341 c0 -192 -1 -204 -20 -214 -18 -10 -20 -23 -22 -212 l-3 -202 -75
-12 c-41 -6 -76 -11 -77 -10 -1 1 4 22 11 46 7 25 32 209 56 410 23 201 44
374 46 385 3 18 9 20 44 17 l40 -4 0 -204z m2840 121 c52 -8 145 -17 205 -21
92 -5 114 -10 133 -27 12 -12 33 -22 45 -22 12 -1 48 -2 80 -3 l57 -2 0 -207
c0 -191 -1 -208 -19 -227 -18 -19 -20 -39 -23 -209 l-3 -189 -115 -29 c-94
-24 -203 -54 -421 -115 -11 -3 -20 5 -27 23 -32 80 -36 134 -37 513 -1 324 -4
396 -18 455 -22 90 -22 87 16 80 17 -3 75 -12 127 -20z m-470 -674 c20 -103
27 -240 11 -211 -10 18 -28 146 -35 255 -7 98 -3 90 24 -44z m-9217 -637 c49
-7 54 -12 37 -42 -5 -9 -21 -43 -35 -75 -32 -75 -48 -71 -57 17 -7 75 -17 92
-62 106 -27 9 -25 9 19 5 28 -2 71 -7 98 -11z m10527 -21 c0 -21 -5 -45 -10
-53 -7 -11 -10 0 -10 38 0 28 5 52 10 52 6 0 10 -17 10 -37z m-1511 -189 c-31
-33 -36 -23 -8 16 13 17 25 26 27 20 2 -6 -6 -22 -19 -36z"/>
</g>
</svg>
