<?xml version="1.0" standalone="no"?>
<!DOCTYPE svg PUBLIC "-//W3C//DTD SVG 20010904//EN"
 "http://www.w3.org/TR/2001/REC-SVG-20010904/DTD/svg10.dtd">
<svg version="1.0" xmlns="http://www.w3.org/2000/svg"
 width="1024.000000pt" height="1024.000000pt" viewBox="0 0 1024.000000 1024.000000"
 preserveAspectRatio="xMidYMid meet">
<metadata>
Created by potrace 1.16, written by Peter Selinger 2001-2019
</metadata>
<g transform="translate(0.000000,1024.000000) scale(0.100000,-0.100000)"
fill="#000000" stroke="none">
<path d="M7310 9476 c-352 -55 -794 -279 -1011 -514 -98 -105 -121 -180 -80
-261 22 -42 91 -95 139 -107 26 -7 27 -13 6 -123 -13 -68 -15 -127 -11 -281 5
-224 11 -246 84 -316 l46 -45 -7 -88 c-9 -109 -25 -180 -66 -295 -27 -76 -32
-100 -28 -162 3 -60 8 -77 27 -98 27 -29 79 -50 162 -66 68 -13 89 -34 95 -92
9 -73 13 -87 43 -120 15 -18 36 -48 45 -67 10 -18 36 -53 58 -77 36 -39 40
-48 35 -80 -7 -43 19 -101 59 -133 62 -48 182 -55 393 -21 l131 21 78 -70 c80
-74 102 -97 102 -105 0 -3 -19 -15 -42 -27 -23 -12 -65 -44 -93 -73 -133 -133
-235 -474 -235 -786 0 -69 -9 -208 -20 -310 -13 -124 -20 -256 -20 -399 0
-203 -1 -220 -26 -300 -37 -122 -44 -185 -28 -249 8 -29 14 -55 14 -56 0 -8
-87 -37 -192 -65 -130 -34 -240 -52 -493 -81 -99 -11 -217 -28 -263 -37 l-82
-17 -103 34 c-144 48 -269 53 -380 16 -146 -49 -328 -152 -469 -265 -124 -99
-145 -112 -184 -116 -41 -4 -94 -48 -94 -77 0 -33 31 -80 104 -159 39 -43 81
-91 94 -108 28 -37 44 -32 35 12 -10 53 -30 83 -93 138 -33 28 -60 55 -60 59
0 4 53 22 118 39 179 48 401 120 455 148 70 35 78 24 11 -17 -81 -50 -97 -67
-91 -98 4 -19 -1 -34 -16 -49 -11 -13 -16 -23 -11 -23 5 0 74 22 154 49 153
52 301 85 435 96 98 9 245 -6 449 -45 83 -16 162 -31 176 -33 14 -2 0 -5 -30
-5 -30 -1 -113 7 -185 18 -284 44 -505 37 -714 -22 -97 -27 -318 -121 -366
-156 -20 -14 -19 -14 3 -9 16 4 22 1 20 -10 -2 -10 11 -20 37 -30 72 -25 232
-53 307 -54 60 0 68 -2 48 -11 -15 -6 -94 -8 -205 -5 -154 4 -195 9 -283 32
-57 14 -107 23 -110 19 -4 -4 -2 -9 5 -11 31 -11 78 -51 82 -68 2 -11 24 -43
49 -73 24 -29 42 -55 39 -59 -4 -3 14 -46 40 -95 107 -208 383 -425 570 -448
150 -19 375 40 605 157 l88 45 65 -57 c36 -32 67 -56 69 -54 2 2 -5 60 -15
127 -46 312 -50 599 -10 704 12 31 29 62 38 70 18 14 18 22 -7 -142 -21 -137
-7 -494 27 -685 8 -49 18 -128 22 -174 9 -128 16 -131 272 -116 l146 8 6 -234
c10 -355 9 -730 -5 -1187 -14 -478 -10 -528 43 -576 28 -25 38 -28 81 -24 40
4 56 12 88 43 22 21 42 37 44 34 3 -3 10 -95 16 -204 5 -110 13 -228 16 -262
l6 -63 1339 0 1339 0 -3 2858 -2 2857 -23 97 c-47 206 -139 428 -234 565 -70
103 -228 266 -358 370 -121 97 -368 263 -517 347 -56 32 -106 63 -111 69 -6 7
-15 29 -21 51 -18 69 -56 110 -153 167 -112 66 -150 103 -172 166 -29 81 -30
173 -5 378 30 247 33 616 5 765 -50 274 -141 439 -299 541 -143 92 -386 191
-564 229 -125 27 -354 34 -473 16z m673 -1270 c46 -19 81 -61 117 -137 61
-132 75 -302 31 -399 -25 -56 -46 -81 -95 -114 -53 -36 -69 -33 -19 3 26 19
51 50 69 87 74 150 22 440 -92 515 -53 35 -142 19 -178 -33 -9 -12 -18 -20
-21 -17 -10 11 48 81 78 94 41 18 70 18 110 1z m-543 -207 c-54 -19 -349 -113
-581 -184 l-117 -36 25 -45 c25 -44 53 -132 53 -167 0 -28 -45 -67 -77 -67
-25 0 -33 8 -55 54 -15 30 -53 85 -86 123 -72 83 -96 119 -88 132 9 14 144 53
174 49 18 -2 28 -10 30 -23 2 -11 7 -24 11 -28 4 -4 93 19 197 52 330 104 686
201 514 140z m1250 -616 c0 -8 -12 -30 -26 -48 -100 -131 -388 -661 -519 -955
-70 -157 -162 -384 -275 -680 -56 -146 -104 -267 -107 -270 -2 -3 -3 86 -1
198 3 194 4 204 25 220 30 24 109 150 121 193 7 26 6 44 -3 65 -13 29 -149
167 -194 197 -21 14 -22 17 -8 23 9 3 56 52 104 108 238 276 670 751 787 865
46 45 54 59 49 79 -3 15 -1 27 8 33 16 9 39 -7 39 -28z m-1069 -1266 c-11 -57
-27 -185 -36 -283 -13 -159 -60 -482 -71 -493 -2 -2 -4 11 -4 30 0 35 8 107
70 604 13 104 54 295 58 268 2 -12 -6 -68 -17 -126z m184 -193 c-18 -35 -20
-20 -3 27 7 20 14 27 15 18 2 -8 -3 -28 -12 -45z m881 -586 c-22 -167 -42
-426 -56 -703 -21 -446 -34 -575 -58 -575 -11 0 -3 245 19 555 21 309 46 538
79 729 11 65 20 121 20 124 0 3 3 3 6 0 3 -4 -2 -62 -10 -130z m-2404 -1387
c63 -50 151 -289 102 -279 -10 2 -32 45 -58 111 -24 59 -57 125 -75 147 -28
35 -29 40 -13 40 11 0 30 -9 44 -19z m2410 -208 c85 -53 241 -173 234 -180 -5
-5 -252 160 -301 201 -48 40 -15 30 67 -21z m-247 -78 c-86 -20 -267 -42 -520
-64 -320 -29 -844 -57 -832 -44 4 3 170 16 369 29 402 25 536 36 808 69 214
26 259 28 175 10z m-3470 -104 c-3 -6 -11 -11 -17 -11 -6 0 -6 6 2 15 14 17
26 13 15 -4z m1575 -57 c0 -2 -7 -4 -15 -4 -8 0 -15 4 -15 10 0 5 7 7 15 4 8
-4 15 -8 15 -10z m-940 -484 c12 -8 11 -10 -5 -9 -11 1 -31 5 -45 9 -24 8 -24
8 5 9 17 0 37 -4 45 -9z"/>
<path d="M2342 9085 c-80 -18 -163 -58 -229 -112 -30 -24 -63 -43 -77 -43 -43
0 -150 -39 -213 -77 -129 -79 -208 -165 -288 -316 -103 -195 -146 -406 -146
-728 0 -212 11 -315 52 -515 16 -78 29 -153 29 -168 0 -31 -84 -104 -231 -201
-110 -73 -145 -110 -161 -171 -11 -38 -20 -48 -73 -81 -143 -87 -369 -243
-476 -329 -209 -167 -412 -403 -504 -585 l-25 -48 0 -645 c0 -633 0 -649 25
-830 58 -428 156 -862 286 -1263 121 -374 210 -532 315 -563 57 -16 321 -38
709 -60 l340 -19 -295 5 c-489 7 -741 28 -820 68 -90 45 -163 175 -259 462
-96 287 -181 623 -275 1089 l-25 120 2 -899 2 -899 101 -43 c162 -68 390 -139
654 -204 135 -34 253 -62 263 -63 15 -2 23 13 42 70 30 96 35 107 40 101 3 -3
-1 -42 -10 -89 -11 -65 -11 -85 -2 -91 22 -14 40 -3 53 32 l12 35 1 -33 c3
-106 -329 -1516 -408 -1732 -11 -30 -20 -51 -20 -47 -1 4 17 81 38 170 167
684 352 1507 342 1519 -3 4 -60 19 -126 33 -372 81 -658 163 -880 254 -54 23
-101 41 -102 41 -2 0 -2 -224 -1 -497 l3 -498 185 -48 c102 -26 255 -64 340
-83 176 -41 201 -39 267 19 l37 32 -22 -32 c-12 -17 -42 -41 -67 -53 -75 -36
-136 -29 -448 50 -154 38 -283 70 -288 70 -5 0 -9 -248 -9 -595 l0 -595 978 0
979 0 6 137 c4 75 7 187 7 249 0 62 4 116 10 119 5 3 23 -1 39 -10 43 -22 81
-19 123 10 46 31 74 90 90 190 25 156 12 1319 -18 1624 l-7 64 254 -8 c140 -4
267 -7 282 -6 38 2 73 26 86 59 23 57 83 281 106 397 46 228 49 329 19 577 -3
31 -4 64 0 74 6 15 8 15 27 -2 12 -11 30 -37 42 -59 18 -37 19 -51 13 -180 -6
-151 -23 -279 -56 -444 -12 -57 -19 -108 -17 -114 2 -7 43 28 92 76 48 48 92
87 96 87 5 0 88 -32 185 -70 96 -39 210 -80 252 -91 87 -24 198 -28 257 -9 51
16 239 141 418 277 67 52 75 63 53 78 -14 11 -2 26 99 124 64 61 135 122 159
136 90 53 215 84 349 86 43 1 76 3 73 6 -2 2 -35 25 -74 51 -39 26 -115 91
-171 145 -55 53 -104 97 -110 97 -6 0 -15 -8 -20 -19 -8 -15 -3 -27 27 -62 22
-26 30 -40 20 -36 -10 3 -60 14 -110 23 -255 44 -295 61 -411 175 -95 93 -133
118 -248 160 -106 39 -233 49 -324 26 -128 -33 -373 -167 -450 -246 -33 -33
-59 -43 -30 -11 26 28 14 44 -57 79 -75 37 -203 58 -420 69 -81 4 -150 11
-153 14 -3 3 5 84 19 179 79 542 146 1140 146 1296 0 288 -104 550 -260 658
-35 24 -43 26 -55 14 -12 -12 -11 -37 11 -179 22 -147 24 -186 19 -355 -3
-104 -10 -233 -15 -285 -5 -52 -14 -149 -20 -215 -41 -447 -75 -698 -121 -888
-12 -48 -26 -87 -31 -87 -5 0 -7 12 -4 27 42 201 92 580 131 998 9 94 18 181
20 195 3 13 10 108 17 211 11 178 11 197 -11 366 -13 98 -24 179 -26 181 -7 8
-133 -111 -172 -163 -42 -56 -45 -62 -39 -107 4 -25 16 -68 28 -94 21 -48 21
-49 4 -189 -10 -77 -20 -142 -22 -144 -5 -5 -9 9 -30 99 -52 229 -142 515
-236 749 -133 334 -247 561 -359 712 -33 44 -58 83 -56 86 9 8 178 -151 297
-278 124 -133 266 -294 422 -480 l98 -116 102 104 103 104 85 -35 c140 -56
195 -69 276 -64 116 8 204 75 236 180 8 28 22 44 54 63 42 24 124 109 124 127
0 6 32 44 71 86 57 61 80 79 114 88 139 35 169 139 93 324 -57 137 -57 140 6
218 105 131 217 324 233 403 8 42 18 43 39 4 10 -19 22 -35 27 -35 18 0 59 53
87 112 19 39 31 55 32 43 0 -11 2 -24 3 -30 2 -5 3 -14 4 -18 0 -4 10 -3 21 3
74 39 34 304 -81 532 -55 110 -156 260 -238 356 -199 229 -526 421 -826 483
-109 23 -346 25 -443 4z m-76 -1309 c30 -31 44 -56 49 -86 9 -56 -1 -62 -15
-9 -24 88 -102 127 -183 91 -169 -75 -206 -410 -65 -586 33 -41 11 -37 -29 6
-116 125 -122 363 -13 526 47 70 100 102 169 102 39 0 49 -5 87 -44z m-1530
-1761 c401 -70 589 -267 674 -703 31 -157 37 -363 16 -550 -17 -146 -17 -161
0 -300 14 -122 16 -193 10 -422 -6 -271 -6 -277 17 -355 43 -142 43 -144 -3
-212 -22 -33 -40 -64 -40 -68 0 -4 30 -4 68 -1 37 3 175 11 307 16 407 18 686
30 770 35 65 3 71 2 35 -5 -69 -13 -517 -48 -770 -60 -124 -6 -275 -13 -337
-16 l-112 -6 -103 -63 c-56 -35 -105 -61 -107 -59 -3 2 6 12 20 22 57 40 179
155 212 200 59 79 60 87 25 193 -30 89 -31 100 -27 214 9 257 1 516 -19 635
-20 114 -20 117 -1 205 38 178 35 366 -8 590 -53 279 -173 480 -343 579 -72
42 -220 95 -350 125 -104 24 -60 28 66 6z m1083 -1165 c60 -237 131 -579 131
-626 0 -19 -4 -34 -10 -34 -5 0 -10 12 -10 26 0 14 -9 60 -20 102 -18 74 -37
158 -136 594 -76 338 -44 294 45 -62z m2118 -1175 c37 -8 130 -34 206 -59 168
-55 208 -63 414 -80 132 -11 167 -17 195 -34 18 -12 52 -32 76 -44 23 -12 42
-25 42 -29 0 -3 -21 -9 -47 -12 -27 -3 -136 -25 -243 -49 -175 -38 -208 -43
-320 -42 -104 1 -135 4 -182 23 -32 12 -61 27 -64 33 -5 8 -1 9 12 4 10 -4 67
-10 126 -13 110 -6 211 7 258 33 25 13 25 13 3 20 -12 3 -23 16 -25 27 -4 30
-53 60 -172 106 -246 96 -441 122 -633 83 -191 -39 -355 -107 -468 -192 -74
-56 -87 -47 -22 14 93 89 342 191 519 212 29 3 55 8 57 10 11 10 208 2 268
-11z m228 -645 c-3 -5 -21 -10 -38 -10 -24 0 -28 3 -17 10 20 13 63 13 55 0z
m-1555 -439 c0 -12 -51 -53 -58 -46 -6 6 38 55 50 55 4 0 8 -4 8 -9z m-232
-56 c-3 -28 -8 -31 -26 -13 -18 18 -14 38 8 38 15 0 19 -6 18 -25z"/>
<path d="M6354 7763 c-4 -15 -2 -46 4 -70 7 -24 12 -56 12 -71 0 -30 15 -60
26 -50 23 24 22 171 -1 209 -12 18 -35 8 -41 -18z"/>
</g>
</svg>
