<?xml version="1.0" standalone="no"?>
<!DOCTYPE svg PUBLIC "-//W3C//DTD SVG 20010904//EN"
 "http://www.w3.org/TR/2001/REC-SVG-20010904/DTD/svg10.dtd">
<svg version="1.0" xmlns="http://www.w3.org/2000/svg"
 width="1024.000000pt" height="1024.000000pt" viewBox="0 0 1024.000000 1024.000000"
 preserveAspectRatio="xMidYMid meet">
<metadata>
Created by potrace 1.16, written by Peter Selinger 2001-2019
</metadata>
<g transform="translate(0.000000,1024.000000) scale(0.100000,-0.100000)"
fill="#000000" stroke="none">
<path d="M8234 9176 c-110 -18 -224 -46 -224 -56 0 -4 -34 -24 -75 -43 -173
-83 -307 -191 -357 -292 -35 -69 -61 -200 -52 -265 13 -103 32 -147 81 -190
47 -41 73 -85 73 -121 0 -25 -63 -151 -103 -206 -27 -38 -29 -46 -19 -68 8
-17 32 -35 67 -51 49 -23 55 -29 55 -55 0 -22 7 -32 26 -41 22 -10 25 -17 20
-42 -6 -26 -1 -35 30 -61 32 -27 36 -36 41 -93 5 -48 11 -66 27 -77 25 -18
123 -20 213 -4 35 6 73 9 86 5 27 -6 80 -91 100 -163 l15 -51 -86 -65 c-186
-140 -205 -158 -242 -233 -42 -83 -64 -160 -130 -459 -83 -376 -101 -530 -76
-660 9 -44 16 -97 16 -117 l0 -37 -37 13 c-21 7 -99 30 -173 51 -74 20 -147
43 -163 52 -15 8 -72 59 -126 113 -54 54 -113 106 -132 116 -19 9 -97 36 -174
59 l-140 42 -124 179 c-68 98 -211 309 -318 467 -184 272 -196 288 -222 283
-14 -3 -156 -26 -316 -51 -307 -48 -445 -72 -453 -80 -5 -5 5 -21 338 -535
134 -206 299 -465 368 -575 68 -110 125 -201 126 -202 1 -1 76 3 167 10 154
12 166 11 162 -4 -8 -29 26 -68 71 -80 22 -6 86 -26 141 -44 55 -18 138 -40
185 -50 110 -21 170 -40 250 -79 l65 -31 -9 -37 c-5 -21 -7 -41 -3 -44 7 -7
395 -144 543 -191 l111 -36 15 -69 c15 -69 15 -71 -12 -146 -44 -127 -112
-263 -162 -326 -26 -33 -55 -79 -65 -103 -10 -23 -21 -43 -25 -43 -3 0 -129
-13 -279 -30 -150 -16 -273 -29 -275 -27 -1 1 1 89 4 195 l5 192 171 0 c202 0
206 1 217 81 12 84 11 287 -2 294 -6 4 -923 6 -2039 6 -1898 -2 -2230 1 -2230
19 0 4 75 10 168 13 133 4 187 11 266 31 69 18 104 23 116 16 27 -15 100 -19
421 -25 l296 -5 46 35 c44 34 57 57 39 69 -5 3 -168 -8 -363 -24 -195 -16
-372 -30 -393 -30 l-40 0 22 20 c13 12 35 20 56 20 36 0 52 19 33 39 -9 10 -6
11 16 6 52 -13 62 -11 61 13 0 17 5 22 23 22 39 0 27 35 -31 87 -29 26 -56 58
-60 69 -4 12 -20 27 -37 34 -16 7 -55 31 -87 53 l-57 40 -70 -18 c-38 -9 -128
-41 -199 -71 -143 -60 -151 -61 -384 -47 -86 5 -109 9 -95 17 10 5 108 52 217
103 109 51 201 94 203 96 2 2 -12 37 -31 78 l-33 74 41 47 c45 51 33 47 376
125 168 38 340 106 340 136 0 16 -33 20 -78 9 -36 -8 -48 -7 -59 4 -12 12 -12
14 4 14 25 0 143 57 171 82 25 24 29 46 8 54 -8 3 -46 -4 -86 -16 -39 -12 -76
-20 -82 -18 -6 2 35 16 92 32 113 30 165 53 194 85 17 19 17 21 2 27 -16 6
-37 5 -156 -11 -49 -6 -40 1 42 30 49 17 138 79 138 96 0 23 -50 28 -132 13
-125 -22 -488 -42 -488 -26 0 4 23 21 51 37 81 47 127 122 100 164 -8 13 -92
-28 -319 -156 -45 -26 -118 -126 -176 -240 -39 -79 -138 -163 -190 -163 -8 0
-108 -57 -222 -126 -114 -69 -213 -128 -220 -131 -15 -6 -37 39 -126 261 -33
82 -82 229 -109 325 -136 482 -132 475 -351 613 -70 44 -128 83 -128 85 0 8
33 69 82 151 l50 82 148 0 c185 0 191 3 201 109 6 65 10 76 43 110 25 26 36
46 36 67 0 23 6 34 25 42 21 10 25 18 25 57 0 41 2 45 28 51 54 12 67 17 74
28 14 21 8 63 -12 89 -43 55 -104 199 -108 256 -4 52 -1 59 34 104 33 43 37
55 41 120 9 145 -40 288 -131 381 -109 112 -269 188 -466 221 -47 8 -112 19
-145 25 -239 41 -479 -37 -635 -207 -113 -124 -263 -483 -321 -767 -61 -303
41 -445 401 -556 150 -46 149 -46 143 -69 -4 -15 -15 -21 -46 -23 -39 -3 -41
-5 -52 -48 -20 -78 -41 -105 -152 -193 -264 -209 -345 -349 -384 -661 -14
-116 -7 -359 16 -541 40 -321 47 -395 52 -590 l5 -210 -60 -228 c-34 -125 -80
-309 -103 -410 -41 -177 -59 -230 -59 -173 0 98 -142 975 -226 1391 -75 372
-81 394 -124 423 -32 22 -43 24 -127 20 -95 -4 -130 -17 -157 -61 -8 -12 15
-144 92 -524 241 -1197 316 -1713 329 -2253 4 -176 9 -242 20 -263 18 -36 68
-57 133 -57 47 0 50 -1 46 -22 -27 -125 -133 -714 -311 -1725 -74 -424 -138
-778 -141 -786 -2 -7 3 -20 12 -28 24 -20 160 -17 181 3 8 9 28 74 43 145 75
343 480 2371 480 2403 0 20 12 20 705 20 438 0 705 -4 705 -9 0 -6 13 -23 29
-38 l28 -28 42 -480 c95 -1086 113 -1275 146 -1600 46 -448 42 -423 67 -431
28 -9 143 5 162 19 13 10 14 24 6 102 -5 49 -7 91 -5 94 3 2 22 -1 42 -7 21
-6 95 -27 166 -48 l127 -37 0 -53 c0 -77 14 -87 112 -82 67 3 82 7 96 25 17
22 17 22 117 7 144 -22 409 -16 448 10 20 14 58 22 130 28 118 10 200 31 227
58 13 13 20 34 20 59 0 52 -42 89 -147 129 -43 17 -116 45 -163 62 l-85 33
-192 191 c-167 167 -196 200 -224 260 -26 55 -33 84 -37 156 l-5 89 51 7 c46
6 52 10 61 38 28 85 348 1307 406 1547 78 324 93 526 48 614 -61 118 -237 207
-642 324 -13 4 -25 16 -27 27 -1 10 -5 141 -8 289 l-6 270 1735 2 1735 1 0
-217 0 -218 -72 -13 c-103 -18 -299 -66 -392 -96 -227 -73 -339 -159 -366
-282 -5 -20 -14 -111 -20 -202 -15 -220 -42 -424 -85 -655 -40 -218 -105 -623
-170 -1070 -49 -339 -62 -399 -101 -478 -53 -104 -342 -475 -446 -573 -51 -47
-87 -70 -164 -103 -210 -91 -254 -124 -254 -187 0 -75 53 -94 290 -101 296 -9
392 15 544 135 142 113 264 183 277 159 4 -7 12 -68 19 -137 7 -69 17 -131 22
-137 13 -16 121 -17 149 -3 14 8 19 22 19 53 1 78 28 192 70 297 41 100 42
108 37 186 -3 63 -13 101 -41 170 -61 145 -69 187 -57 269 27 181 131 453 346
902 32 68 61 123 64 123 4 0 12 -17 18 -39 7 -21 53 -134 104 -252 101 -236
229 -574 249 -658 17 -72 8 -173 -21 -241 -28 -65 -207 -308 -293 -399 -73
-77 -101 -95 -231 -152 -131 -57 -180 -85 -205 -116 -20 -26 -26 -67 -14 -98
19 -48 166 -67 424 -55 209 10 242 21 385 135 101 81 230 165 252 165 5 0 18
-60 28 -137 12 -96 23 -142 33 -150 19 -15 90 -17 126 -3 23 8 26 15 26 57 0
125 19 214 65 313 87 185 71 327 -56 510 -78 113 -143 346 -194 698 -20 138
-95 795 -95 832 0 6 12 3 28 -8 24 -18 286 -152 296 -152 2 0 52 65 112 145
60 80 114 143 119 141 15 -5 10 -99 -34 -737 -22 -316 -45 -664 -51 -774 -6
-110 -20 -310 -31 -445 -43 -553 -45 -581 -25 -596 24 -17 138 -29 163 -16 17
9 23 59 71 539 47 475 151 1632 168 1873 5 67 12 106 27 133 l21 37 714 -2
715 -3 172 -860 c95 -473 208 -1024 250 -1225 42 -201 81 -389 87 -418 13 -65
27 -73 119 -75 108 -1 106 -10 59 248 -22 121 -105 582 -185 1025 -80 443
-166 911 -190 1041 -25 130 -45 242 -45 248 0 7 20 11 50 11 61 0 113 20 133
52 11 18 16 76 21 253 14 557 99 1134 356 2400 49 237 71 369 67 387 -11 41
-58 61 -158 66 -103 5 -149 -11 -173 -63 -44 -92 -203 -1090 -312 -1957 -6
-46 -5 -48 30 -69 20 -11 36 -28 36 -37 0 -10 -9 -105 -20 -212 -10 -107 -22
-248 -26 -313 -7 -114 -8 -118 -28 -113 -12 3 -102 6 -201 6 -180 0 -180 0
-150 19 107 65 169 230 182 486 3 76 11 133 17 137 6 4 26 8 44 8 17 0 32 4
32 9 0 14 -207 826 -249 977 -67 241 -65 343 14 714 54 251 69 336 90 513 l17
138 62 63 c113 113 152 225 143 411 -9 175 -29 234 -197 570 -188 376 -212
448 -270 820 -26 163 -58 286 -104 394 -100 237 -212 351 -413 422 -74 27
-246 34 -359 15z m-599 -706 c0 -111 -2 -127 -14 -115 -23 23 -26 119 -6 186
10 32 19 59 19 59 1 0 1 -58 1 -130z m-5798 -1372 c39 -32 73 -58 75 -58 2 0
2 19 1 43 -4 50 -3 49 68 -77 42 -75 129 -299 194 -501 47 -147 96 -434 95
-550 -1 -29 -2 -29 -24 15 -13 25 -40 94 -60 154 -110 327 -297 728 -441 946
-38 58 -106 143 -150 189 l-80 85 125 -94 c69 -52 157 -120 197 -152z m6457
78 c17 -35 9 -59 -69 -191 -101 -172 -207 -409 -326 -722 -29 -78 -55 -140
-57 -138 -19 18 167 625 203 665 8 9 18 32 21 51 13 71 48 158 112 282 l66
129 18 -24 c9 -12 24 -36 32 -52z m1227 -414 c-21 -69 -80 -171 -120 -206 -39
-35 -32 -10 15 50 52 65 100 160 111 214 3 19 8 29 11 22 2 -7 -5 -43 -17 -80z
m-2793 -683 c30 -20 66 -34 103 -39 31 -5 68 -14 80 -22 23 -13 22 -13 -19
-16 -29 -2 -56 3 -83 17 -22 12 -50 21 -62 21 -12 0 -40 7 -62 15 -22 8 -57
14 -77 15 -68 0 -95 25 -35 33 87 11 109 7 155 -24z m-3068 -809 c11 -7 5 -10
-23 -10 -23 0 -36 4 -32 10 8 13 35 13 55 0z m775 -70 c-4 -6 -67 -9 -163 -8
-146 2 -150 2 -62 8 165 11 232 11 225 0z m-1784 -172 c0 -7 4 -70 8 -140 9
-175 1 -168 201 -168 l157 0 9 -260 9 -261 -25 6 c-22 4 -143 27 -540 101 -52
10 -87 20 -77 22 9 2 17 9 17 16 0 6 -22 79 -50 161 -63 188 -100 352 -100
444 l0 71 58 1 c31 1 102 5 157 9 162 11 175 11 176 -2z m-1960 -654 c-5 -16
-10 -21 -10 -12 -1 18 10 51 15 45 2 -1 -1 -16 -5 -33z m-11 -348 c0 -239 68
-441 174 -518 l39 -28 -99 0 c-54 0 -109 -3 -121 -6 -25 -7 -22 -27 -53 321
-12 132 -24 260 -27 285 l-5 45 46 -3 46 -4 0 -92z m2315 -843 c-23 -60 -77
-256 -94 -340 -29 -143 -49 -350 -61 -600 -5 -120 -15 -312 -21 -426 -8 -137
-9 -211 -2 -215 13 -9 -21 -180 -50 -246 -21 -50 -21 -50 -28 -20 -4 16 -12
121 -19 234 -11 212 -95 1414 -106 1533 l-7 67 59 1 c46 0 285 21 328 28 4 0
5 -7 1 -16z"/>
</g>
</svg>
