<?xml version="1.0" standalone="no"?>
<!DOCTYPE svg PUBLIC "-//W3C//DTD SVG 20010904//EN"
 "http://www.w3.org/TR/2001/REC-SVG-20010904/DTD/svg10.dtd">
<svg version="1.0" xmlns="http://www.w3.org/2000/svg"
 width="1024.000000pt" height="1024.000000pt" viewBox="0 0 1024.000000 1024.000000"
 preserveAspectRatio="xMidYMid meet">
<metadata>
Created by potrace 1.16, written by Peter Selinger 2001-2019
</metadata>
<g transform="translate(0.000000,1024.000000) scale(0.100000,-0.100000)"
fill="#000000" stroke="none">
<path d="M2240 9189 c-55 -24 -105 -71 -131 -122 -22 -41 -51 -57 -106 -57
-39 0 -115 -38 -110 -54 2 -6 14 -13 27 -16 l23 -5 -26 -12 c-41 -19 -116 -92
-152 -148 -18 -28 -45 -88 -60 -135 -15 -47 -31 -96 -37 -109 -8 -22 -7 -23 7
-11 23 19 27 8 14 -44 -7 -28 -10 -82 -6 -134 5 -88 12 -113 88 -297 18 -44
47 -134 65 -200 29 -107 31 -122 18 -146 -13 -26 -12 -29 79 -116 129 -126
260 -246 339 -311 53 -43 64 -58 54 -66 -7 -6 -27 -36 -44 -66 -17 -30 -51
-82 -76 -115 -24 -33 -43 -62 -40 -64 2 -2 21 9 42 26 l38 31 34 -41 35 -42 2
-280 2 -280 -25 95 c-82 314 -187 587 -391 1011 -44 91 -86 169 -92 174 -8 4
-47 -26 -109 -87 -99 -96 -166 -145 -402 -289 -205 -126 -281 -210 -324 -359
-31 -108 -35 -204 -41 -905 -3 -390 -8 -730 -11 -754 -3 -25 -26 -135 -50
-245 -76 -341 -84 -377 -100 -476 -22 -140 -53 -428 -60 -565 -6 -125 2 -175
31 -175 8 0 45 -12 82 -27 l68 -28 -45 -7 c-62 -9 -160 -10 -160 0 0 44 -76
874 -83 916 -1 6 29 15 68 19 39 5 75 10 81 12 12 4 41 118 104 410 l38 180 4
504 4 504 -195 -8 c-108 -4 -253 -10 -324 -15 -138 -8 -153 -14 -184 -74 -17
-33 -20 -4 68 -706 110 -869 150 -1220 180 -1545 13 -149 9 -393 -21 -1140
-11 -275 -26 -682 -35 -905 -8 -223 -17 -459 -21 -525 l-6 -121 26 -12 c36
-16 156 -15 178 2 15 11 19 46 28 257 26 588 51 1181 66 1524 9 204 17 371 17
372 1 1 40 -5 87 -12 47 -8 234 -37 415 -65 182 -27 340 -52 352 -55 l23 -5 0
575 0 575 -110 0 -110 0 0 173 0 173 243 81 c312 106 380 125 425 121 30 -2
-29 -25 -293 -113 l-330 -110 -3 -141 -3 -141 47 -7 c26 -3 75 -6 110 -6 l64
0 0 -1874 c0 -1731 1 -1875 17 -1887 22 -19 218 -19 251 -1 l22 13 0 1874 0
1875 2720 0 2720 0 0 -1880 0 -1880 28 -11 c15 -7 75 -12 134 -13 91 -1 110 2
125 17 17 17 18 85 16 1420 -1 771 -5 1612 -9 1870 l-7 467 24 1 c13 0 65 1
116 2 50 2 95 6 99 10 5 4 10 63 12 131 l4 123 -28 20 c-16 11 -76 46 -134 78
-100 55 -110 58 -200 65 -52 5 -201 11 -330 15 -129 3 -236 8 -239 10 -2 3
143 5 324 5 l328 0 111 -58 c61 -32 130 -71 154 -85 l42 -27 0 -148 c0 -102
-4 -152 -12 -160 -8 -8 -49 -12 -119 -12 -77 0 -109 -4 -112 -12 -3 -7 -3
-179 0 -383 3 -203 8 -980 12 -1725 l6 -1355 43 1 c23 0 45 4 49 8 4 4 9 80
11 169 3 121 0 184 -12 248 -20 107 -21 98 14 110 29 11 30 13 30 77 0 37 7
254 15 482 8 228 19 563 25 743 7 180 9 335 6 343 -4 11 6 14 54 14 l60 0 0
-33 c0 -18 -9 -285 -20 -592 -18 -506 -24 -715 -46 -1426 -7 -207 -6 -217 12
-227 35 -19 107 -23 154 -10 l45 14 6 104 c4 58 10 202 13 320 4 118 14 382
21 585 8 204 22 568 30 810 9 242 19 443 23 447 4 3 53 10 110 13 l102 8 0
-49 c0 -57 25 -654 40 -959 5 -115 13 -284 17 -374 8 -198 9 -201 107 -201 36
0 77 5 92 10 l27 11 -6 152 c-4 84 -13 339 -22 567 -8 228 -19 514 -24 635 -5
121 -7 223 -4 228 2 4 19 7 38 7 29 0 653 60 771 74 l42 5 6 -52 c3 -29 10
-164 16 -302 10 -219 28 -585 72 -1469 12 -231 13 -239 35 -253 30 -20 166
-15 187 7 13 13 12 73 -9 500 -13 267 -31 638 -40 825 -31 650 -66 1280 -75
1345 -5 36 -13 297 -19 580 -11 555 -20 707 -66 1025 -12 77 -13 147 -7 306 8
232 0 536 -18 682 -16 137 -64 326 -107 427 -122 283 -274 452 -638 708 -151
106 -133 90 -192 171 -37 50 -49 77 -56 120 -12 85 -11 91 16 166 50 136 59
336 21 481 -35 140 -127 284 -213 336 -20 12 -61 47 -91 78 -89 91 -208 136
-386 147 -330 19 -684 -151 -684 -329 0 -20 -12 -50 -30 -78 -41 -61 -64 -141
-85 -292 l-18 -127 27 -61 c16 -36 26 -71 22 -83 -3 -12 -24 -51 -47 -87 -30
-45 -44 -78 -47 -110 -5 -52 6 -66 72 -90 l41 -16 0 -55 c0 -54 23 -109 45
-109 6 0 10 -17 10 -39 0 -23 8 -48 20 -64 11 -14 20 -40 20 -59 0 -18 10 -51
23 -73 19 -34 37 -48 125 -91 56 -27 107 -55 113 -61 7 -7 -1 -17 -28 -34 -51
-31 -158 -134 -195 -187 -51 -73 -86 -154 -102 -237 -13 -62 -37 -120 -105
-255 -78 -154 -201 -439 -201 -468 0 -5 -21 -26 -46 -47 -25 -21 -49 -48 -54
-61 -6 -16 -22 -27 -52 -34 -24 -7 -92 -27 -153 -46 -60 -19 -127 -40 -147
-46 -21 -6 -38 -15 -38 -19 0 -4 27 -22 61 -40 33 -18 82 -57 110 -87 l50 -55
87 -7 c48 -4 82 -8 75 -9 -14 -1 -38 -81 -52 -178 -15 -101 -14 -214 5 -322 9
-51 14 -94 12 -96 -1 -2 -43 4 -93 12 -76 12 -106 13 -187 2 -132 -17 -242 -7
-362 31 -79 26 -108 40 -145 74 l-46 43 -150 12 c-307 24 -273 16 -307 72
l-31 49 -908 0 c-813 0 -909 -2 -909 -15 0 -9 18 -40 40 -70 33 -45 46 -55 70
-55 41 0 554 -38 725 -53 115 -11 133 -14 101 -21 -61 -12 -478 -150 -606
-201 -132 -52 -122 -51 -430 -30 -415 28 -557 37 -725 44 -169 7 -170 7 -133
24 83 38 122 42 210 24 100 -21 159 -21 258 -1 41 8 104 18 140 21 66 5 91 19
178 100 14 13 37 23 52 23 15 0 33 7 40 15 7 8 19 15 27 15 17 0 140 -67 149
-81 3 -5 10 -9 15 -9 20 0 -42 98 -113 177 -44 49 -45 56 -18 83 26 26 25 45
-1 82 -36 49 -114 104 -191 133 -101 38 -200 92 -283 155 -94 71 -111 79 -130
54 -8 -10 -12 -28 -8 -39 7 -25 56 -79 104 -114 l36 -26 -108 -74 c-75 -51
-131 -81 -184 -98 -88 -29 -95 -37 -131 -154 -20 -65 -24 -100 -22 -157 3 -69
2 -73 -17 -68 -11 3 -37 6 -57 6 -31 0 -38 4 -38 19 0 37 50 212 81 279 l31
70 50 6 c72 10 51 23 -67 42 -133 21 -126 18 -111 51 7 15 33 83 56 151 24 67
47 119 51 115 3 -5 22 -57 42 -118 19 -60 47 -136 61 -167 28 -64 40 -69 101
-44 40 17 161 112 170 133 3 9 -14 38 -43 72 -27 31 -52 64 -55 74 -17 47 51
105 101 86 14 -5 59 -33 101 -63 42 -29 109 -76 150 -104 41 -29 91 -56 110
-62 42 -11 58 -3 146 80 33 31 90 80 128 109 37 29 74 62 82 74 18 25 21 151
4 194 l-10 28 -50 -58 c-28 -31 -57 -57 -64 -57 -22 0 -133 129 -162 188 -28
58 -36 143 -18 206 l8 29 -45 -31 c-24 -17 -61 -50 -82 -74 -21 -23 -81 -87
-134 -141 l-96 -98 -48 188 c-27 103 -62 217 -77 253 -24 54 -30 83 -35 171
-6 116 -35 281 -67 386 -30 97 -98 161 -244 231 -60 30 -117 57 -125 61 -8 5
-17 19 -18 32 -2 13 -8 29 -14 34 -12 12 -3 -136 12 -200 21 -84 40 -378 39
-580 -2 -226 -2 -224 -34 85 -8 85 -22 188 -31 227 -13 65 -13 76 1 102 33 65
1 182 -66 234 -23 18 -29 27 -17 27 21 0 54 46 73 102 9 24 27 66 41 94 l26
51 94 -49 c143 -73 187 -64 218 43 9 29 16 58 16 64 0 7 13 29 30 50 17 21 30
46 30 56 0 11 9 28 20 39 11 11 22 32 26 47 10 50 13 53 61 82 93 58 91 55 69
93 -89 151 -96 198 -44 294 27 51 32 69 31 129 0 42 -7 86 -17 109 -9 21 -16
41 -16 45 1 3 26 -21 56 -54 l56 -60 -5 70 c-2 39 -13 96 -24 128 -11 31 -19
57 -19 57 1 0 23 -11 50 -25 27 -14 51 -23 53 -21 2 2 -10 34 -27 72 -24 53
-49 86 -118 153 -48 47 -106 95 -129 106 -48 23 -47 36 2 28 19 -3 35 -3 35 0
0 3 -37 26 -83 51 -88 47 -236 96 -294 96 -20 0 -32 4 -28 10 3 6 16 10 29 10
12 0 31 6 42 14 18 14 18 15 -11 23 -17 4 -95 8 -175 8 -135 0 -148 -2 -183
-24 -21 -13 -40 -21 -43 -18 -3 2 11 25 31 51 49 65 48 67 -25 35z m6234
-1506 c-16 -21 -69 -87 -119 -148 -129 -157 -292 -388 -412 -584 -15 -23 -16
-21 -74 85 -32 59 -59 111 -59 114 0 3 14 14 32 25 49 28 252 195 463 379 105
91 192 165 194 166 2 0 -9 -17 -25 -37z m-782 -539 c-56 -39 -92 -153 -72
-232 10 -46 9 -52 -41 -177 -29 -72 -67 -177 -85 -235 -57 -183 -36 -42 45
300 27 113 59 248 71 301 l22 96 40 -19 c39 -19 40 -20 20 -34z m197 -248 c7
-8 -28 -86 -105 -236 -63 -124 -112 -216 -110 -205 3 11 15 65 26 120 11 55
32 148 46 207 22 94 30 111 56 129 16 12 34 33 40 48 l10 26 14 -39 c8 -21 18
-44 23 -50z m-980 -1280 c-10 -10 -80 -15 -74 -6 3 5 22 10 42 10 20 0 34 -2
32 -4z m2611 -1903 c0 -29 -15 -61 -24 -52 -6 6 12 79 19 79 3 0 5 -12 5 -27z"/>
<path d="M3945 6878 c-24 -13 -147 -120 -228 -197 -97 -92 -163 -202 -181
-303 -4 -21 -18 -51 -33 -68 -23 -28 -25 -37 -20 -91 3 -37 14 -75 30 -102 27
-45 99 -110 135 -121 28 -9 62 1 62 19 0 9 22 20 58 30 159 43 414 132 501
175 98 48 131 77 131 113 0 16 -5 18 -34 13 -19 -4 -75 -20 -123 -37 -169 -58
-161 -45 15 25 173 68 255 131 227 176 -9 15 -33 9 -185 -50 -69 -26 -136 -51
-150 -54 -38 -10 65 42 148 75 191 76 263 134 220 177 -20 20 -40 15 -200 -49
-150 -59 -258 -99 -267 -99 -19 0 33 26 149 75 146 61 200 95 200 125 0 36
-37 32 -210 -25 -141 -46 -224 -65 -287 -65 -29 0 -53 2 -53 4 0 3 27 30 60
62 88 84 121 167 76 196 -14 10 -17 10 -41 -4z"/>
<path d="M5245 6434 c-159 -6 -314 -12 -342 -13 -42 -1 -53 -4 -53 -18 0 -31
153 -308 377 -681 123 -207 242 -401 263 -432 43 -64 57 -69 169 -71 36 0 112
-6 169 -12 56 -7 102 -11 102 -9 0 8 -95 140 -120 167 -40 43 -70 108 -70 152
0 57 32 100 95 129 63 29 274 83 325 84 60 0 20 -18 -90 -40 -198 -39 -301
-84 -314 -134 -4 -15 0 -41 8 -61 l15 -35 88 4 88 5 -70 -10 c-38 -5 -76 -16
-84 -24 -13 -13 -11 -19 15 -47 41 -44 124 -154 124 -165 0 -19 65 -85 102
-104 111 -57 258 -84 396 -74 59 5 143 8 188 8 l81 -1 -15 51 c-22 80 -19 264
8 357 11 41 23 85 26 97 5 19 1 22 -42 28 -42 6 -58 16 -114 69 -36 35 -85 78
-110 97 -25 18 -47 36 -50 39 -3 3 -32 20 -65 37 -100 53 -229 62 -328 24 -25
-10 -29 -8 -43 17 -27 50 -255 514 -269 548 l-14 34 -78 -2 c-43 0 -208 -7
-368 -14z"/>
<path d="M9632 6028 c0 -139 -3 -309 -6 -378 -6 -102 -3 -152 14 -270 44 -308
53 -455 59 -1015 l6 -540 22 140 c12 77 48 318 78 535 31 217 96 667 146 999
49 332 89 622 89 645 0 23 -9 55 -19 73 -24 39 -69 49 -258 58 l-132 6 1 -253z"/>
<path d="M1930 4263 c0 -76 -3 -346 -7 -600 l-6 -463 31 0 32 0 0 -1159 0
-1159 44 -11 c56 -14 100 -14 149 0 l37 10 0 1162 0 1162 118 23 c64 12 169
34 232 47 63 14 114 25 115 25 0 0 -1 -102 -3 -227 -4 -241 -5 -228 72 -983
20 -190 38 -374 41 -410 9 -94 12 -100 48 -100 52 0 61 -11 52 -66 -4 -27 -15
-62 -25 -79 -49 -82 -70 -241 -51 -404 7 -57 15 -109 17 -116 8 -20 103 -67
162 -81 49 -11 55 -11 72 6 19 19 21 17 106 -55 113 -97 191 -127 374 -145
112 -10 254 4 342 34 115 40 139 77 99 154 -26 51 -68 87 -192 170 -171 114
-230 174 -355 367 -25 39 -63 86 -84 105 -28 26 -39 45 -43 76 l-5 41 59 17
60 16 -5 48 c-30 274 -40 1238 -17 1667 6 126 13 230 14 231 1 1 19 4 40 8
l39 7 -9 -93 c-16 -187 -9 -419 21 -618 86 -585 157 -1050 162 -1063 3 -8 19
-18 36 -21 31 -6 31 -6 25 -59 -3 -28 -19 -79 -35 -112 -52 -104 -73 -273 -50
-399 l13 -70 85 -23 c56 -16 116 -25 175 -26 81 -2 90 0 100 19 10 21 13 20
150 -38 194 -82 235 -91 390 -91 103 0 148 4 214 22 138 36 178 66 167 122
-15 78 -77 121 -261 184 -178 61 -210 81 -335 214 -63 67 -136 135 -161 150
-38 24 -47 35 -52 68 -12 69 -12 69 61 88 37 10 72 21 78 24 10 6 8 35 -50
701 -32 364 -72 902 -86 1155 -5 105 -17 216 -25 248 -45 175 -172 255 -597
378 -77 22 -177 44 -222 50 -44 5 -368 9 -718 9 l-638 0 0 -137z"/>
<path d="M6225 4381 c-139 -50 -327 -164 -407 -249 -66 -69 -80 -95 -103 -190
-34 -138 -17 -314 80 -857 31 -172 49 -370 101 -1121 6 -82 6 -82 36 -88 17
-3 48 -6 69 -6 22 0 39 -3 38 -7 0 -5 -50 -52 -110 -105 -122 -108 -140 -117
-354 -174 -71 -20 -148 -45 -170 -57 -48 -27 -93 -89 -102 -139 -5 -33 -2 -41
29 -72 66 -66 263 -110 488 -109 157 1 228 14 415 78 97 34 131 42 137 32 26
-43 18 -42 175 -18 81 12 167 27 190 33 40 10 42 12 50 57 4 25 8 109 8 186 0
132 -8 181 -42 272 -3 7 9 16 29 21 l33 8 -3 60 c-3 59 -36 380 -72 704 -26
227 -57 542 -66 651 -10 132 10 117 25 -19 16 -148 81 -643 121 -916 l30 -208
-12 -327 c-6 -180 -9 -335 -5 -344 3 -9 22 -19 41 -23 20 -3 36 -8 36 -11 0
-3 -23 -34 -51 -69 -76 -96 -131 -140 -207 -165 -186 -61 -299 -137 -346 -231
-58 -115 -18 -161 184 -215 98 -26 118 -27 300 -27 223 0 295 14 430 81 l74
38 -2 1765 c-1 971 -2 1768 -2 1773 0 4 -228 7 -507 6 -461 0 -513 -2 -558
-18z"/>
</g>
</svg>
