<?xml version="1.0" standalone="no"?>
<!DOCTYPE svg PUBLIC "-//W3C//DTD SVG 20010904//EN"
 "http://www.w3.org/TR/2001/REC-SVG-20010904/DTD/svg10.dtd">
<svg version="1.0" xmlns="http://www.w3.org/2000/svg"
 width="1024.000000pt" height="1024.000000pt" viewBox="0 0 1024.000000 1024.000000"
 preserveAspectRatio="xMidYMid meet">
<metadata>
Created by potrace 1.16, written by Peter Selinger 2001-2019
</metadata>
<g transform="translate(0.000000,1024.000000) scale(0.100000,-0.100000)"
fill="#000000" stroke="none">
<path d="M2400 9186 c-65 -14 -127 -45 -174 -86 -19 -17 -58 -38 -87 -46 -28
-9 -68 -26 -88 -39 -62 -38 -148 -141 -185 -218 -77 -164 -80 -277 -13 -542
25 -99 48 -206 52 -237 4 -32 10 -58 14 -58 3 0 12 -4 20 -9 11 -7 10 -15 -7
-43 l-22 -35 47 -33 c214 -154 475 -440 459 -504 -3 -12 -30 -57 -61 -99 -30
-43 -55 -80 -55 -83 0 -3 13 -24 29 -47 15 -23 40 -66 55 -95 l27 -54 -7 -191
c-8 -206 -12 -208 -39 -14 -57 416 -210 781 -439 1050 l-67 77 -59 -69 c-33
-38 -60 -77 -61 -87 0 -20 -87 -98 -234 -210 -122 -93 -190 -163 -258 -265
-156 -236 -259 -512 -312 -837 -37 -228 -44 -255 -64 -246 -38 17 -278 16
-387 -1 -183 -29 -245 -63 -274 -151 -21 -64 -7 -171 106 -809 126 -707 145
-838 165 -1150 25 -390 2 -682 -156 -1930 -68 -543 -93 -732 -141 -1076 -10
-69 -15 -133 -11 -142 8 -20 84 -32 133 -20 64 15 69 31 109 328 56 428 202
1591 225 1800 11 105 23 200 26 213 l5 23 204 -3 c112 -2 205 -5 208 -8 4 -4
-26 -241 -138 -1105 -15 -110 -44 -330 -66 -490 -46 -330 -48 -315 43 -315 48
0 118 22 118 37 0 10 87 667 144 1098 25 187 59 437 74 555 l28 215 365 -2
c200 -1 441 -5 535 -9 l172 -6 1 -137 c5 -554 54 -1644 101 -2226 10 -128 15
-135 103 -135 95 0 97 3 97 128 0 59 -9 278 -20 487 -22 438 -48 1226 -52
1624 l-3 274 90 33 c50 18 97 33 106 33 15 1 16 -89 11 -1033 l-5 -1034 21 -6
c17 -6 20 -13 16 -35 -3 -16 0 -39 6 -52 10 -17 10 -24 1 -27 -12 -4 -14 -98
-3 -171 6 -41 10 -45 47 -58 65 -21 359 -72 368 -63 5 4 11 26 14 48 l5 39
134 -63 c186 -89 220 -101 321 -115 146 -20 501 -17 607 4 145 30 206 64 206
117 0 14 -15 50 -32 80 -42 68 -85 91 -247 127 l-124 28 129 7 c201 10 384 72
384 131 0 35 -43 96 -88 127 -32 21 -63 31 -129 40 -223 30 -337 62 -372 104
-17 21 -84 56 -106 56 -9 0 -15 9 -15 23 -1 22 -25 43 -128 110 -24 15 -42 32
-40 39 2 6 32 11 73 12 l70 1 14 60 15 60 87 21 c47 12 108 31 134 43 l48 21
-6 98 c-3 53 -12 282 -18 508 -11 384 -11 416 5 475 10 35 60 214 112 398 52
183 98 362 103 396 13 90 -2 205 -37 279 -53 114 -111 160 -255 205 -140 43
-586 123 -904 163 l-103 13 -5 133 -5 132 1177 -2 c648 -1 1538 -4 1978 -6
l800 -3 -3 -157 c-2 -86 -5 -158 -6 -159 -2 -2 -88 -25 -192 -52 -297 -77
-402 -110 -502 -158 -72 -34 -91 -47 -83 -57 8 -9 -1 -24 -35 -57 -60 -59 -91
-113 -110 -196 -23 -98 -13 -175 62 -475 88 -355 134 -508 274 -918 130 -380
187 -587 196 -715 6 -79 6 -81 -33 -155 -36 -70 -210 -327 -256 -377 -11 -12
-92 -59 -181 -103 -177 -89 -246 -145 -246 -200 0 -48 20 -55 161 -55 l128 0
-28 -30 c-42 -43 -46 -68 -19 -99 34 -38 131 -50 353 -43 242 7 263 14 352
114 115 130 230 247 262 266 l31 18 0 -115 c0 -91 3 -118 16 -130 19 -19 107
-22 121 -3 5 6 21 57 35 113 15 55 46 145 70 200 40 93 43 105 43 189 0 101
-12 144 -60 213 -101 148 -107 187 -84 533 41 604 69 1017 70 1066 2 48 4 52
24 47 11 -3 32 -1 45 4 16 6 44 5 80 -3 30 -7 72 -16 92 -19 l36 -7 -4 -192
c-20 -840 -34 -1201 -84 -2091 -9 -154 -8 -182 4 -194 18 -18 149 -21 169 -3
19 15 22 51 52 526 47 768 59 1020 75 1599 5 186 11 341 13 343 4 3 1030 34
1032 30 1 -1 12 -83 24 -182 12 -99 58 -459 102 -800 43 -341 86 -678 95 -750
19 -157 25 -165 119 -165 77 0 100 16 91 64 -3 17 -42 317 -86 666 -44 349
-95 754 -114 900 -18 146 -33 266 -32 267 4 6 456 15 456 9 0 -35 61 -518 100
-796 49 -347 86 -632 160 -1204 46 -362 41 -351 145 -351 111 0 109 -48 26
572 -152 1148 -180 1364 -200 1533 -59 507 -72 823 -47 1133 22 268 44 422
131 897 98 535 165 927 165 967 0 53 -28 109 -70 138 -44 30 -128 47 -327 65
-201 19 -304 -6 -352 -83 -32 -52 -57 -161 -132 -562 -38 -209 -71 -384 -72
-389 -2 -5 -16 44 -31 109 -41 168 -37 274 20 635 14 85 40 234 60 330 100
503 82 713 -77 873 l-58 58 10 55 c21 113 -14 240 -117 421 -124 215 -146 280
-183 533 -56 372 -126 549 -272 685 -163 151 -355 190 -608 120 -104 -28 -288
-120 -370 -185 -54 -43 -129 -141 -161 -211 -37 -83 -23 -215 31 -289 30 -40
41 -38 23 5 -22 53 -15 66 8 15 12 -25 22 -58 23 -75 2 -16 6 -55 10 -87 7
-54 6 -60 -45 -158 -62 -123 -61 -138 10 -168 l50 -21 -2 -45 c-1 -49 24 -91
49 -82 16 7 16 4 1 -29 -10 -21 -8 -29 9 -48 12 -13 23 -41 26 -70 9 -90 70
-121 182 -92 33 9 79 27 102 41 l42 24 36 -76 c19 -42 35 -83 35 -90 0 -15
-86 -70 -234 -148 -115 -62 -173 -111 -205 -174 -28 -56 -68 -198 -97 -352
-14 -74 -52 -216 -83 -315 -32 -99 -73 -234 -91 -300 -29 -107 -36 -122 -64
-141 -24 -16 -31 -27 -30 -51 2 -30 0 -31 -31 -26 -25 4 -38 0 -54 -16 -25
-25 -181 -50 -481 -76 -306 -26 -290 -23 -290 -57 l0 -29 -31 22 c-17 12 -70
59 -117 104 -93 88 -112 100 -217 140 -85 31 -119 32 -175 0 -25 -14 -77 -42
-117 -62 l-71 -37 -206 90 -205 90 -193 -63 c-254 -82 -252 -82 -368 -40 -63
22 -131 38 -201 46 -127 15 -173 6 -335 -64 -57 -25 -108 -45 -113 -45 -17 0
-13 21 6 35 30 22 8 43 -54 49 -182 19 -342 39 -446 56 -65 11 -143 20 -173
20 -50 0 -55 2 -65 28 -12 33 -48 72 -65 72 -23 0 -249 444 -258 508 -4 24
-19 66 -35 95 -16 29 -34 81 -40 117 -17 92 -78 288 -106 335 -13 22 -62 78
-110 123 -60 59 -84 88 -81 100 3 10 38 53 78 96 l73 78 53 -31 c77 -45 131
-57 172 -36 32 16 60 65 60 104 0 11 16 32 36 47 36 28 39 40 19 87 -6 13 -2
17 18 17 37 0 67 43 67 96 l0 43 48 6 c59 9 92 29 92 57 0 11 -13 62 -29 112
-16 50 -32 111 -36 136 -5 42 -3 49 36 99 l41 54 4 106 c5 96 2 126 -21 211
-6 20 4 13 44 -30 l52 -55 -7 53 c-3 29 -9 65 -13 80 -7 24 -3 30 28 49 l35
21 -67 43 -67 43 25 15 c14 9 25 19 25 22 0 4 -34 20 -77 35 -54 20 -93 43
-137 81 -103 90 -235 147 -391 171 -124 19 -169 21 -225 8z m6496 -1663 c61
-109 94 -267 64 -313 -7 -11 -10 2 -10 42 0 56 -38 195 -80 294 -11 24 -17 44
-15 44 2 0 21 -30 41 -67z m-452 -154 c44 -60 45 -62 30 -91 -18 -34 -99 -314
-109 -376 -6 -35 -10 -42 -25 -37 -111 35 -165 46 -173 33 -236 -397 -363
-676 -412 -907 -21 -97 -27 -91 -44 45 -20 161 -14 419 14 610 14 94 32 190
40 214 14 39 14 44 -2 55 -14 11 -22 11 -43 0 -77 -39 -75 -31 38 136 107 159
165 229 178 216 4 -3 -3 -63 -15 -131 -11 -69 -21 -149 -21 -179 0 -45 17
-136 36 -187 3 -9 21 16 48 65 56 106 394 595 410 595 2 0 25 -28 50 -61z
m-3185 -1513 c195 -85 221 -98 215 -107 -9 -16 42 -39 86 -39 33 0 84 -17 192
-62 81 -35 148 -68 148 -74 0 -19 -29 -37 -245 -157 -131 -73 -222 -117 -239
-117 -17 0 -109 42 -220 99 -105 54 -309 158 -453 232 -145 73 -261 134 -259
136 1 2 22 -4 46 -12 86 -30 186 -12 184 33 0 19 17 27 165 76 91 30 181 54
200 55 21 1 88 -23 180 -63z m-1492 -66 c23 0 33 -75 33 -239 l0 -164 99 6
c84 6 109 4 163 -13 34 -11 104 -25 154 -31 77 -9 96 -8 128 5 21 9 54 16 73
16 25 0 43 8 65 30 16 17 38 30 49 30 11 0 31 11 45 25 14 14 37 25 51 25 17
0 40 15 69 43 l43 44 53 -29 c29 -16 142 -75 251 -130 108 -56 196 -103 194
-105 -2 -1 -339 0 -750 4 l-747 6 8 26 c4 14 6 82 6 151 -1 104 -5 139 -27
210 -14 46 -23 88 -20 93 3 5 15 6 27 3 11 -3 26 -6 33 -6z m3787 -297 c8 -37
13 -69 11 -72 -3 -2 -68 -19 -145 -37 -86 -20 -150 -40 -166 -53 -38 -30 -91
-27 -308 14 -102 19 -199 35 -217 35 -41 0 -192 -51 -294 -99 -102 -49 -235
-145 -235 -172 0 -14 7 -19 25 -19 14 0 34 -5 44 -12 15 -9 51 -9 158 1 l138
13 135 -33 c121 -30 150 -33 280 -33 125 -1 152 2 195 21 45 19 53 19 78 7 33
-18 37 -54 7 -54 -11 0 -23 7 -26 15 -8 19 -23 19 -85 -1 -81 -27 -345 -15
-469 21 -91 26 -101 27 -238 20 -196 -9 -277 8 -277 61 0 22 7 32 30 43 17 7
59 35 95 61 121 88 243 145 375 175 66 16 70 15 229 -15 216 -42 302 -49 319
-26 9 12 49 25 123 39 l109 22 40 72 c22 40 43 73 47 73 3 0 13 -30 22 -67z
m-1774 -104 c19 -5 95 -14 169 -19 103 -7 143 -6 172 4 37 13 38 13 73 -23 20
-20 36 -40 36 -44 0 -4 -145 -7 -322 -7 l-323 0 80 50 c44 27 80 50 80 50 0 0
16 -5 35 -11z m-3185 -180 c28 -5 121 -10 208 -10 l158 0 -83 -67 c-46 -37
-116 -98 -155 -136 l-73 -69 0 -93 0 -94 75 0 75 0 0 -110 0 -110 -32 0 c-61
0 -76 10 -116 79 -119 201 -143 282 -157 538 l-5 103 27 -11 c16 -6 51 -15 78
-20z m3865 -14 c-52 -19 -97 -34 -100 -34 -14 0 62 35 110 50 96 31 89 19 -10
-16z m1190 -263 c0 -28 -93 -204 -147 -279 -69 -96 -68 -92 -36 -104 34 -13
22 -22 -57 -44 -30 -9 -63 -18 -72 -21 -17 -5 -18 5 -18 120 l0 126 70 0 70 0
0 95 c0 52 1 95 3 96 5 1 163 27 175 28 6 0 12 -7 12 -17z m1774 -358 c83 -26
155 -50 159 -54 4 -4 -1 -75 -13 -159 -29 -220 -41 -444 -34 -613 l7 -147 -94
41 c-52 22 -137 54 -189 71 -52 17 -97 32 -99 34 -2 2 4 11 13 22 35 39 70
208 82 399 l7 104 34 21 c31 20 33 25 28 62 -13 86 -38 202 -51 233 -7 17 -10
32 -7 32 3 0 74 -21 157 -46z m-8676 -141 c-5 -38 -10 -202 -11 -366 -2 -331
-7 -310 68 -323 22 -4 60 -20 84 -37 l44 -30 -59 -17 c-32 -9 -84 -27 -114
-38 -30 -12 -57 -22 -60 -22 -3 0 -5 123 -6 273 -1 238 -12 450 -30 568 -5 36
-4 37 33 47 62 16 60 18 51 -55z m2571 -1020 c3 -2 -3 -17 -13 -33 -22 -38
-24 -85 -3 -108 14 -15 14 -24 2 -77 -8 -33 -19 -111 -25 -174 -12 -131 -26
-203 -80 -421 -21 -85 -50 -220 -65 -300 -15 -80 -30 -148 -34 -152 -3 -4 -5
283 -3 637 l2 645 108 -6 c59 -4 109 -9 111 -11z m3857 -147 c-3 -12 -6 -46
-6 -76 l-1 -55 -34 100 c-19 55 -35 101 -35 103 0 1 18 -10 41 -25 31 -21 39
-31 35 -47z"/>
</g>
</svg>
