<?xml version="1.0" standalone="no"?>
<!DOCTYPE svg PUBLIC "-//W3C//DTD SVG 20010904//EN"
 "http://www.w3.org/TR/2001/REC-SVG-20010904/DTD/svg10.dtd">
<svg version="1.0" xmlns="http://www.w3.org/2000/svg"
 width="1024.000000pt" height="1024.000000pt" viewBox="0 0 1024.000000 1024.000000"
 preserveAspectRatio="xMidYMid meet">
<metadata>
Created by potrace 1.16, written by Peter Selinger 2001-2019
</metadata>
<g transform="translate(0.000000,1024.000000) scale(0.100000,-0.100000)"
fill="#000000" stroke="none">
<path d="M3010 9820 c-119 -31 -235 -94 -306 -164 -72 -73 -109 -144 -129
-250 -32 -169 -10 -314 78 -512 88 -198 92 -212 89 -327 -2 -54 -4 -58 -29
-63 -26 -6 -47 -27 -112 -120 -18 -25 -39 -38 -90 -55 -178 -59 -372 -194
-424 -295 -8 -16 -26 -66 -41 -112 -22 -69 -26 -102 -26 -197 0 -116 4 -139
75 -465 20 -91 54 -273 76 -405 47 -273 60 -497 40 -689 -10 -98 -67 -471
-151 -994 -17 -100 -30 -200 -30 -222 0 -36 3 -40 56 -71 l57 -32 -7 -136 c-3
-75 -13 -305 -21 -511 -8 -206 -19 -433 -25 -505 -5 -71 -17 -218 -25 -325
-18 -236 -17 -230 -66 -412 -112 -416 -135 -586 -194 -1408 -14 -190 -30 -407
-37 -482 -11 -124 -10 -139 5 -155 15 -17 15 -24 1 -83 -9 -36 -17 -99 -18
-141 -1 -64 2 -81 19 -99 22 -24 106 -70 128 -70 7 0 29 -16 48 -36 72 -75
143 -92 431 -101 164 -5 190 -4 213 11 47 31 30 73 -85 209 -72 85 -131 177
-156 243 -16 43 -16 44 5 61 19 16 24 36 37 173 55 589 136 1028 319 1741 47
184 136 534 198 779 l112 444 9 -364 c7 -282 6 -425 -5 -630 -16 -304 -19
-1252 -5 -1813 8 -355 9 -359 31 -380 20 -19 25 -38 35 -145 6 -68 14 -130 16
-137 5 -13 87 -28 225 -41 61 -6 68 -5 78 14 6 11 11 37 11 57 0 33 2 36 23
29 51 -15 94 -37 127 -63 52 -40 50 -40 167 -61 163 -29 217 -32 351 -22 146
12 165 22 160 86 -3 34 -9 44 -43 68 -22 15 -70 39 -107 53 -91 36 -187 106
-285 208 -81 84 -83 88 -83 136 0 27 -12 98 -26 158 l-27 108 0 440 c-1 431 4
544 43 1085 62 842 110 1650 110 1839 0 139 6 159 49 171 20 6 46 18 58 28
l23 17 -35 305 c-19 168 -43 381 -54 473 -23 193 -37 437 -26 437 4 0 79 -31
166 -70 87 -38 162 -70 167 -70 6 0 15 14 21 30 7 22 16 30 34 30 19 0 29 11
50 58 51 110 148 345 153 371 6 28 19 21 -463 251 l-83 40 0 173 c0 207 -6
263 -71 606 -71 383 -96 448 -201 528 -66 51 -208 134 -271 158 -52 20 -64 42
-73 145 -7 80 -1 86 85 72 38 -7 82 -12 96 -12 39 0 71 38 79 95 4 26 17 61
28 76 15 19 19 36 15 56 -5 23 -1 31 16 38 18 8 22 20 25 68 l3 57 34 0 c39 0
75 29 75 60 0 10 -15 48 -34 82 -45 82 -53 126 -31 168 15 30 16 38 1 114 -41
212 -42 250 -5 261 30 10 26 75 -8 115 -77 92 -253 183 -430 224 -90 20 -120
20 -213 -4z m-107 -1403 c87 -42 190 -97 229 -123 l72 -46 18 22 c10 12 18 28
18 36 0 8 4 14 10 14 5 0 8 -6 6 -12 -3 -7 -7 -25 -10 -39 -4 -19 -14 -28 -34
-32 -24 -5 -34 -17 -56 -68 -29 -63 -26 -78 12 -79 18 0 50 -77 67 -158 15
-78 30 -230 21 -221 -4 4 -44 82 -90 175 -121 246 -245 416 -387 530 -56 46
-67 59 -58 71 7 7 15 12 18 10 3 -1 77 -37 164 -80z m448 -457 c6 -30 17 -75
25 -100 19 -65 44 -218 43 -265 -1 -31 -5 -21 -20 50 -11 50 -36 147 -56 216
-25 88 -34 135 -29 155 10 37 21 19 37 -56z"/>
<path d="M6965 9426 c-71 -20 -172 -59 -232 -90 -67 -34 -114 -75 -152 -134
-46 -72 -55 -130 -42 -273 13 -137 10 -150 -59 -233 -22 -26 -40 -55 -40 -63
0 -28 31 -73 54 -79 20 -5 25 -14 30 -54 4 -30 16 -60 31 -78 24 -29 24 -29 4
-46 -19 -16 -19 -19 -5 -41 10 -15 16 -46 16 -80 0 -77 23 -100 88 -89 26 4
67 8 91 9 52 0 58 -11 60 -106 l1 -57 -69 -64 c-53 -50 -79 -68 -117 -77 -68
-17 -187 -76 -230 -113 -57 -51 -97 -143 -194 -458 -23 -74 -75 -204 -114
-290 -40 -85 -76 -176 -79 -201 -3 -25 -15 -66 -26 -92 -17 -39 -25 -47 -60
-57 -29 -8 -45 -19 -56 -40 -21 -41 -35 -46 -173 -70 -153 -26 -530 -80 -559
-80 -12 0 -34 -5 -49 -10 l-27 -11 29 -31 29 -31 -44 32 c-24 17 -50 31 -58
31 -7 0 -49 20 -92 45 l-78 46 -109 -32 c-97 -28 -143 -47 -194 -79 -8 -5 -28
-11 -43 -15 -33 -7 -52 -45 -103 -213 -37 -124 -41 -152 -20 -152 8 0 33 -16
56 -35 23 -19 48 -35 56 -35 8 0 14 -4 14 -10 0 -5 14 -16 30 -25 20 -10 30
-23 30 -39 0 -28 29 -56 59 -56 13 0 32 -12 44 -26 16 -21 26 -25 53 -21 25 4
37 0 55 -19 27 -29 53 -31 76 -4 11 12 30 20 50 20 17 0 35 5 38 11 4 6 14 8
22 5 22 -9 92 24 99 46 3 10 13 18 23 18 21 0 51 30 51 52 0 9 11 23 24 32 14
8 26 26 28 38 3 19 8 12 29 -32 14 -30 39 -70 54 -89 26 -30 32 -32 66 -27 21
3 163 51 316 105 153 54 338 118 410 141 73 23 144 51 158 62 14 11 51 68 81
127 l55 106 -5 -110 c-6 -133 -32 -288 -91 -535 -38 -164 -82 -374 -100 -482
-5 -33 -2 -39 25 -60 36 -26 36 22 -5 -383 -41 -407 -110 -1418 -103 -1515 3
-42 6 -46 48 -67 27 -14 62 -23 92 -23 26 0 49 -4 53 -10 3 -5 18 -69 33 -142
l27 -133 -1 -610 c0 -641 -3 -692 -50 -965 -30 -175 -54 -230 -182 -405 -101
-138 -157 -187 -301 -263 -85 -45 -105 -60 -121 -92 -29 -58 -26 -78 15 -96
73 -30 176 -38 322 -25 182 16 211 29 389 174 39 31 76 57 83 57 6 0 11 -15
11 -32 0 -74 12 -108 41 -123 32 -17 77 -19 112 -6 20 8 25 19 31 63 3 29 16
121 27 203 24 169 21 241 -13 363 -24 88 -28 204 -9 297 7 33 35 140 62 238
52 183 98 402 119 567 9 68 11 179 6 394 -5 209 -3 328 5 397 l12 99 126 -5
c218 -8 259 -14 266 -38 4 -12 38 -87 76 -167 70 -148 187 -457 264 -700 122
-384 187 -602 200 -679 9 -47 23 -119 32 -159 9 -45 13 -92 9 -121 -12 -94
-58 -228 -125 -366 -64 -132 -74 -145 -156 -225 -48 -47 -93 -99 -101 -117
-21 -49 -18 -109 7 -134 21 -21 28 -22 153 -16 124 6 329 42 374 66 28 15 111
116 127 154 14 33 16 35 54 30 64 -9 89 2 95 40 27 182 46 354 46 408 0 63 -2
70 -62 164 -86 138 -105 200 -117 392 -6 87 -11 260 -11 384 0 274 -12 409
-47 509 -14 41 -73 185 -131 320 -57 135 -107 261 -109 281 -5 34 -3 36 34 47
81 24 76 -11 64 427 -7 215 -16 453 -21 530 -9 128 -8 141 8 160 10 11 43 69
72 129 l54 108 0 164 1 164 33 11 c17 6 36 18 41 27 4 9 11 78 15 152 3 74 13
272 21 440 19 388 19 855 0 1130 -8 118 -19 305 -25 415 -13 252 -34 460 -55
554 -14 59 -25 82 -65 129 -26 31 -65 71 -88 87 -38 28 -43 39 -92 184 -28 85
-57 169 -65 185 -34 75 -87 269 -96 351 -19 167 -59 403 -79 459 -48 140 -146
268 -242 317 -132 68 -299 94 -403 65z m117 -1693 c-39 -60 -93 -146 -119
-192 -27 -46 -53 -82 -58 -80 -15 6 -9 249 6 249 11 0 39 -30 39 -41 0 -5 9
-9 20 -9 22 0 27 19 9 37 -8 8 -6 13 7 17 11 4 35 30 54 58 24 36 46 55 70 63
19 7 37 11 39 9 2 -2 -28 -52 -67 -111z m-234 15 c6 -46 15 -132 20 -191 5
-60 13 -112 19 -115 7 -5 -9 -47 -43 -117 -88 -183 -132 -342 -149 -544 -4
-48 -11 -78 -15 -70 -4 8 -18 57 -31 109 -20 81 -23 121 -24 275 0 174 1 184
32 290 43 146 162 457 173 450 4 -2 12 -41 18 -87z m827 -1354 c16 -172 20
-444 7 -444 -5 0 -17 35 -27 78 -23 102 -32 359 -15 459 7 40 15 72 17 70 2
-2 10 -76 18 -163z m-2519 -36 l29 -33 -32 29 c-31 28 -38 36 -30 36 2 0 16
-15 33 -32z m124 -154 c16 -40 30 -81 30 -91 0 -10 -11 11 -23 47 -28 78 -43
107 -71 140 l-21 25 27 -24 c15 -13 41 -57 58 -97z m-415 76 c11 -16 39 -44
62 -62 24 -17 41 -34 38 -36 -8 -8 -71 45 -105 88 -17 22 -28 40 -23 40 4 0
17 -14 28 -30z m2785 -1518 c-17 -79 -22 -57 -8 34 9 53 14 69 16 49 2 -16 -1
-54 -8 -83z m-23 -154 c-2 -13 -4 -3 -4 22 0 25 2 35 4 23 2 -13 2 -33 0 -45z
m-20 -175 c-3 -10 -5 -4 -5 12 0 17 2 24 5 18 2 -7 2 -21 0 -30z m157 -65 c-9
-18 -33 -53 -52 -78 -20 -25 -37 -47 -39 -49 -2 -2 -6 -2 -9 1 -3 3 8 21 23
39 16 19 42 55 58 81 33 53 45 57 19 6z m-248 -3800 c-3 -7 -7 -25 -10 -40 -4
-16 -11 -28 -17 -28 -10 0 -4 52 8 73 7 12 23 8 19 -5z m-1812 -6 c2 -4 1 -14
-4 -22 -7 -11 -12 -12 -21 -3 -6 6 -8 16 -5 22 8 13 23 14 30 3z"/>
</g>
</svg>
