<?xml version="1.0" standalone="no"?>
<!DOCTYPE svg PUBLIC "-//W3C//DTD SVG 20010904//EN"
 "http://www.w3.org/TR/2001/REC-SVG-20010904/DTD/svg10.dtd">
<svg version="1.0" xmlns="http://www.w3.org/2000/svg"
 width="1024.000000pt" height="1024.000000pt" viewBox="0 0 1024.000000 1024.000000"
 preserveAspectRatio="xMidYMid meet">
<metadata>
Created by potrace 1.16, written by Peter Selinger 2001-2019
</metadata>
<g transform="translate(0.000000,1024.000000) scale(0.100000,-0.100000)"
fill="#000000" stroke="none">
<path d="M2726 9895 c-242 -62 -404 -300 -383 -565 9 -113 40 -216 108 -362
95 -206 91 -181 44 -290 -6 -14 32 -43 212 -161 120 -78 231 -151 247 -161 26
-17 28 -20 13 -31 -16 -11 -83 -143 -76 -148 2 -2 17 -7 33 -12 57 -19 69 -50
78 -207 4 -79 15 -188 23 -242 9 -54 14 -100 12 -102 -1 -2 -27 54 -57 123
-127 293 -486 902 -532 903 -17 0 -38 -24 -91 -104 -30 -45 -45 -55 -217 -143
-384 -196 -416 -224 -446 -392 -36 -201 3 -434 113 -685 24 -53 43 -124 59
-210 13 -72 42 -219 64 -327 63 -310 65 -329 40 -472 -11 -67 -29 -162 -39
-212 -13 -61 -15 -94 -9 -103 6 -6 8 -24 5 -40 -29 -133 -40 -194 -72 -377
-37 -215 -75 -493 -75 -545 0 -29 15 -37 126 -65 12 -3 20 -196 30 -705 8
-396 -20 -856 -62 -1010 -113 -420 -168 -954 -190 -1826 l-7 -281 22 -20 22
-21 -31 -248 c-17 -137 -29 -263 -25 -280 9 -49 75 -117 143 -147 102 -46 174
-59 296 -55 131 4 197 29 230 87 18 31 19 41 8 120 -6 47 -27 141 -46 209 -19
67 -41 158 -47 202 -11 69 -10 82 3 97 9 10 18 27 21 38 4 11 40 259 82 550
113 790 113 795 274 1445 99 402 168 699 201 860 24 116 30 143 35 138 2 -2
11 -215 21 -474 16 -419 16 -488 3 -620 -21 -221 -19 -953 4 -1232 10 -117 24
-302 31 -412 8 -109 19 -208 26 -219 8 -16 7 -36 -5 -82 -23 -87 -11 -345 16
-359 36 -20 147 -40 251 -47 117 -7 138 0 138 43 0 35 25 31 162 -27 171 -72
227 -82 433 -76 183 6 331 27 380 55 38 23 43 57 17 116 -26 57 -50 70 -235
117 -184 47 -234 74 -304 160 -30 37 -60 69 -67 72 -7 3 -32 34 -55 68 -36 54
-43 74 -52 143 -24 187 -40 278 -60 339 -21 63 -21 65 -5 318 9 140 27 409 41
599 81 1129 115 1651 115 1771 0 125 5 143 51 168 21 12 63 42 93 66 51 42 55
48 71 120 9 42 26 98 37 124 l20 48 -37 139 c-48 180 -51 194 -34 194 40 1 40
8 8 286 -17 148 -39 332 -49 409 -15 121 -16 142 -4 151 43 34 142 323 152
440 5 69 1 75 -68 89 -19 4 -58 16 -86 26 l-51 19 -7 123 c-12 200 -45 603
-61 739 -17 146 -66 404 -94 496 -34 111 -74 149 -214 208 -111 46 -235 115
-278 153 -38 34 -42 42 -47 95 -5 67 4 79 52 65 41 -12 128 -11 160 1 31 11
58 62 51 93 -4 13 1 43 11 68 9 24 18 58 19 76 1 17 10 48 19 68 10 20 15 46
12 58 -8 34 7 48 60 58 90 17 89 38 -10 194 -31 49 -56 92 -56 95 0 4 9 15 20
25 37 33 18 180 -34 268 l-25 40 25 19 c28 23 33 82 9 127 -27 53 -151 122
-290 162 -94 28 -333 35 -419 14z m407 -1565 c8 -30 35 -134 60 -230 51 -195
73 -332 81 -495 5 -116 4 -114 -20 30 -20 123 -57 266 -100 388 -26 76 -34
112 -30 142 7 60 -12 131 -43 162 l-27 27 25 45 25 46 8 -30 c4 -17 14 -55 21
-85z"/>
<path d="M6775 9583 c-63 -9 -193 -54 -234 -81 -77 -52 -105 -123 -56 -142 31
-12 31 -13 1 -64 -31 -54 -72 -170 -81 -229 -6 -39 -13 -51 -36 -62 -26 -14
-28 -18 -22 -64 5 -41 0 -60 -31 -128 -20 -44 -36 -90 -36 -102 0 -22 44 -51
79 -51 27 0 34 -15 21 -40 -9 -17 -6 -29 14 -66 19 -35 23 -50 16 -64 -11 -20
-4 -50 11 -50 5 0 9 -22 9 -49 0 -27 4 -61 10 -75 13 -35 72 -62 153 -71 56
-5 70 -11 83 -31 45 -67 -21 -120 -327 -262 -76 -35 -113 -58 -131 -83 -53
-70 -125 -232 -168 -379 -12 -41 -37 -108 -56 -149 -19 -41 -34 -86 -34 -101
0 -20 -12 -37 -47 -67 -37 -31 -63 -69 -113 -163 -43 -80 -76 -131 -98 -148
-18 -14 -42 -43 -53 -64 -15 -30 -25 -38 -47 -38 -15 0 -68 -18 -117 -39 -50
-22 -192 -72 -315 -111 -124 -40 -229 -75 -233 -77 -5 -3 0 -15 11 -27 54 -58
92 -182 92 -298 0 -91 -17 -133 -66 -167 l-34 -23 31 -39 c16 -21 38 -41 49
-44 57 -18 584 165 818 284 133 68 205 127 282 231 28 38 54 70 57 70 3 0 3
-71 1 -157 -5 -139 -12 -189 -57 -411 -54 -261 -55 -282 -14 -282 10 0 13 -6
9 -16 -25 -66 -86 -650 -86 -832 0 -92 0 -93 28 -103 15 -6 46 -9 69 -7 l43 3
4 -40 c3 -22 8 -96 11 -165 6 -128 27 -386 45 -545 16 -144 48 -466 65 -645
153 -1659 146 -1569 115 -1639 -22 -49 -31 -101 -55 -326 -19 -184 -35 -223
-134 -318 -89 -86 -142 -110 -326 -146 -90 -18 -159 -37 -174 -49 -35 -25 -61
-79 -61 -124 0 -34 3 -38 43 -52 81 -31 183 -47 343 -53 208 -8 290 4 453 67
179 69 167 67 175 25 l7 -35 72 0 c159 0 331 34 341 68 6 16 9 240 5 312 -1
19 1 53 4 75 17 113 31 577 31 1035 0 430 -3 538 -18 655 -14 117 -42 763 -32
772 9 9 259 -948 417 -1592 96 -393 109 -458 109 -545 0 -41 4 -124 10 -185 5
-60 10 -144 11 -185 1 -41 6 -89 12 -106 16 -49 -14 -119 -89 -210 -36 -44
-74 -95 -84 -114 -27 -54 -52 -146 -48 -182 3 -31 7 -34 73 -57 97 -33 271
-40 382 -16 138 30 264 104 292 173 8 18 26 33 57 46 26 11 50 29 56 42 7 16
7 77 0 201 -5 98 -6 185 -1 194 19 36 -68 1111 -122 1504 -39 284 -110 579
-182 755 -19 47 -37 101 -41 120 -12 72 -46 551 -51 725 l-6 180 70 60 c44 37
76 74 85 97 48 117 77 320 59 402 l-9 40 -199 48 c-242 58 -225 52 -218 77 7
28 25 27 205 -15 199 -46 329 -71 350 -66 20 4 25 17 38 107 5 39 15 96 20
129 7 35 7 63 1 70 -5 7 -2 45 9 101 48 239 92 698 92 955 0 269 -40 674 -107
1090 -44 269 -105 450 -171 512 -38 35 -290 160 -555 275 -33 15 -60 38 -93
82 -26 33 -55 61 -65 61 -33 0 -171 -178 -285 -369 -84 -140 -182 -330 -242
-468 -27 -61 -50 -110 -51 -109 -2 1 1 36 7 77 5 41 10 128 10 193 0 107 2
123 22 152 13 18 31 35 40 37 16 5 17 8 4 45 -19 52 -44 102 -65 126 -9 11
-12 21 -6 23 20 7 500 305 515 319 12 12 12 19 1 50 -12 34 -11 38 37 122 108
189 147 299 158 449 13 184 -58 358 -168 414 -22 11 -53 35 -69 53 -34 40
-124 82 -216 101 -62 13 -235 18 -308 8z m-51 -618 c98 -8 181 -17 183 -19 22
-21 -118 -22 -344 -1 l-73 7 0 -87 c0 -55 -4 -84 -10 -80 -5 3 -10 44 -10 90
0 118 -17 112 254 90z m-308 -52 c-6 -61 -6 -62 -15 -38 -10 25 -2 85 11 85 5
0 7 -21 4 -47z m324 -808 l21 -35 -38 -61 c-39 -64 -45 -101 -28 -175 5 -24
-4 -66 -38 -170 -24 -77 -53 -179 -63 -229 -42 -201 -19 62 27 310 28 152 86
395 94 395 2 0 13 -16 25 -35z"/>
<path d="M4355 6598 c-16 -6 -39 -18 -50 -28 -48 -42 -81 -46 -195 -24 -25 4
-26 3 -37 -78 -6 -46 -28 -135 -49 -199 -20 -64 -34 -124 -31 -132 3 -9 26
-25 51 -36 42 -18 52 -29 47 -55 -8 -41 28 -86 68 -86 20 0 31 -7 39 -25 15
-34 70 -66 99 -59 17 5 23 2 23 -9 0 -9 12 -25 28 -37 20 -17 36 -21 65 -17
20 3 37 1 37 -4 0 -5 12 -16 26 -25 24 -16 28 -16 60 -1 19 10 43 17 54 17 31
0 67 21 81 47 8 15 19 23 30 20 26 -7 74 27 88 61 10 24 20 32 44 34 25 2 35
10 47 35 8 17 24 34 35 37 12 3 32 20 45 38 23 30 25 42 25 133 0 121 -28 216
-80 270 -27 30 -39 35 -77 35 -36 0 -54 7 -97 40 -61 44 -113 57 -180 41 -35
-7 -51 -6 -72 5 -32 16 -81 17 -124 2z"/>
</g>
</svg>
