<?xml version="1.0" standalone="no"?>
<!DOCTYPE svg PUBLIC "-//W3C//DTD SVG 20010904//EN"
 "http://www.w3.org/TR/2001/REC-SVG-20010904/DTD/svg10.dtd">
<svg version="1.0" xmlns="http://www.w3.org/2000/svg"
 width="1024.000000pt" height="1024.000000pt" viewBox="0 0 1024.000000 1024.000000"
 preserveAspectRatio="xMidYMid meet">
<metadata>
Created by potrace 1.16, written by Peter Selinger 2001-2019
</metadata>
<g transform="translate(0.000000,1024.000000) scale(0.100000,-0.100000)"
fill="#000000" stroke="none">
<path d="M2600 9787 c-93 -32 -154 -71 -230 -146 -76 -77 -119 -158 -145 -276
-29 -130 -10 -268 65 -455 16 -41 41 -116 54 -167 28 -105 31 -113 52 -113 9
0 14 -3 12 -7 -2 -5 -10 -21 -18 -37 -10 -20 -11 -31 -4 -33 6 -2 34 -21 62
-41 28 -20 126 -90 219 -154 190 -134 203 -143 203 -151 0 -4 -18 -36 -40 -72
-22 -36 -40 -72 -40 -81 0 -9 -5 -12 -11 -8 -7 4 -10 1 -7 -7 3 -8 14 -14 25
-15 30 -2 42 -12 74 -62 25 -39 29 -56 29 -116 0 -39 5 -91 10 -116 6 -25 12
-56 15 -70 3 -14 -30 47 -73 135 -88 180 -161 303 -265 450 -88 123 -234 299
-252 303 -8 2 -31 -27 -54 -67 -47 -80 -53 -85 -246 -207 -288 -182 -351 -286
-362 -600 -4 -93 -1 -184 6 -235 13 -95 83 -481 137 -757 20 -101 38 -206 41
-235 3 -33 -8 -143 -31 -302 -112 -785 -156 -1124 -156 -1218 0 -43 3 -49 32
-67 18 -11 41 -20 50 -20 9 0 19 -4 22 -9 3 -5 2 -114 -4 -242 -5 -129 -14
-358 -21 -509 -6 -151 -17 -347 -24 -435 -13 -149 -16 -168 -58 -275 -180
-467 -264 -907 -322 -1690 -18 -248 -19 -347 -4 -352 9 -3 5 -23 -10 -69 -52
-157 -67 -353 -33 -419 17 -32 57 -60 105 -74 12 -4 17 -16 17 -42 0 -55 20
-110 50 -139 33 -32 177 -87 285 -110 113 -24 264 -31 319 -15 56 16 72 46 62
127 -9 76 -34 128 -115 242 -75 104 -86 127 -136 271 l-33 95 27 16 c25 15 29
28 50 145 42 240 122 628 163 789 41 165 87 314 252 830 97 300 211 684 291
975 l42 154 7 -64 c26 -267 39 -618 37 -1050 -2 -494 2 -603 46 -1322 26 -429
29 -458 46 -458 17 0 18 -5 10 -42 -4 -24 -8 -117 -8 -206 0 -159 1 -164 23
-183 33 -26 81 -39 203 -51 138 -14 182 -5 189 39 l5 32 117 -50 c196 -83 242
-92 468 -93 212 -1 344 18 382 56 39 39 11 134 -51 175 -40 27 -81 39 -176 54
-38 6 -97 18 -130 27 -64 17 -83 33 -249 211 l-68 74 -19 141 c-28 203 -44
288 -77 403 -19 64 -29 117 -26 140 2 21 11 153 19 293 36 614 67 1122 90
1480 13 212 27 438 31 502 l7 117 27 -6 c57 -11 187 82 228 164 33 65 74 225
68 263 -3 19 -29 99 -57 177 l-52 142 28 24 28 24 -52 324 c-29 178 -55 338
-58 356 l-5 32 111 -50 c60 -27 121 -49 135 -49 51 0 167 165 225 320 32 87
54 191 42 203 -6 6 -55 25 -108 43 -113 36 -439 186 -466 213 -17 16 -19 39
-21 192 -3 176 -15 284 -76 674 -65 421 -91 526 -144 577 -19 18 -95 64 -170
101 -74 37 -159 84 -187 103 -39 26 -50 30 -46 17 71 -235 130 -482 141 -593
4 -48 3 -44 -15 30 -11 47 -36 133 -55 192 -18 59 -38 137 -44 175 -14 99 -27
136 -65 192 -27 42 -32 56 -26 79 11 37 58 129 71 137 5 3 33 -1 62 -10 71
-21 123 -19 169 7 45 25 60 56 56 118 -2 38 1 46 20 55 23 10 51 61 40 72 -3
3 0 12 8 20 14 13 20 51 17 94 -1 11 5 15 21 12 12 -2 37 5 55 16 44 28 42 57
-14 170 -40 83 -44 95 -30 110 33 36 38 71 21 160 -41 224 -41 223 -22 215 7
-2 24 7 36 20 24 25 24 26 7 70 -23 60 -72 100 -181 152 -279 132 -519 175
-675 121z m959 -5132 c0 -49 -2 -100 -5 -112 -14 -52 -19 -15 -15 114 4 151
18 150 20 -2z"/>
<path d="M6903 9560 c-156 -36 -298 -118 -335 -195 -19 -39 -21 -50 -11 -76
11 -28 7 -46 -33 -163 -46 -135 -49 -167 -15 -188 23 -14 17 -35 -51 -166 -26
-51 -48 -101 -48 -111 0 -11 12 -29 26 -40 25 -19 45 -19 72 2 21 16 13 -1
-23 -55 -49 -71 -46 -104 13 -137 41 -22 43 -26 38 -55 -20 -96 -18 -130 6
-166 29 -43 111 -86 198 -103 l64 -13 -73 -49 c-41 -27 -113 -65 -160 -86
-118 -51 -176 -85 -218 -128 -43 -45 -125 -211 -152 -310 -11 -41 -27 -81 -34
-90 -8 -9 -32 -54 -54 -101 -22 -47 -59 -116 -83 -155 -73 -118 -93 -157 -116
-220 -18 -50 -28 -64 -64 -85 -46 -27 -52 -34 -75 -92 -14 -34 -19 -38 -49
-38 -26 0 -58 -16 -128 -63 -51 -35 -201 -124 -333 -197 -132 -73 -258 -144
-280 -159 -22 -15 -57 -35 -77 -44 -34 -16 -41 -16 -70 -3 -74 32 -108 39
-151 27 -34 -10 -50 -9 -86 4 -52 18 -82 11 -170 -38 -32 -18 -72 -32 -95 -33
-23 -1 -48 -2 -57 -3 -12 -1 -18 -16 -23 -61 -9 -80 -30 -149 -73 -242 -39
-85 -40 -124 0 -130 18 -2 23 -11 28 -45 5 -42 32 -83 54 -83 6 0 17 -11 22
-23 8 -17 26 -28 60 -37 26 -7 59 -24 72 -38 19 -19 30 -23 58 -19 24 4 44 0
66 -13 41 -25 92 -25 142 0 22 11 44 20 51 20 6 0 19 9 29 20 10 11 31 20 48
20 40 0 80 26 118 77 18 24 37 43 42 43 5 0 22 -11 38 -25 46 -38 93 -47 143
-28 61 25 487 270 666 384 85 54 198 132 250 173 52 41 95 74 96 73 0 -1 -5
-49 -12 -107 -34 -276 -57 -562 -48 -587 6 -17 5 -86 -3 -187 -28 -403 -45
-716 -39 -740 8 -31 45 -57 94 -65 l37 -6 7 -150 c34 -752 66 -1186 158 -2194
35 -383 36 -409 11 -509 -11 -43 -31 -142 -45 -222 -14 -80 -33 -169 -41 -199
-18 -57 -15 -81 10 -81 26 0 -145 -157 -203 -186 -37 -19 -84 -31 -160 -40
-193 -25 -236 -43 -273 -116 -21 -41 -29 -114 -14 -138 29 -46 254 -92 455
-92 172 0 252 15 427 78 67 24 126 44 132 44 5 0 11 -10 13 -22 2 -19 12 -25
53 -32 67 -12 340 7 389 28 l38 16 -4 135 c-3 124 -2 135 15 135 9 0 22 10 27
23 18 44 42 469 47 857 5 360 -10 1262 -23 1370 -8 63 9 41 34 -45 12 -38 55
-178 97 -310 160 -509 247 -793 266 -870 57 -240 132 -718 152 -970 1 -19 10
-33 25 -41 12 -6 25 -14 28 -17 18 -17 -151 -210 -219 -251 -89 -52 -148 -144
-151 -236 -2 -96 50 -115 304 -114 207 1 336 23 440 76 57 29 68 40 92 88 15
30 28 49 28 41 0 -11 11 -12 49 -8 68 8 116 30 138 63 26 40 31 239 9 344 -10
49 -12 78 -6 84 26 26 -12 779 -61 1201 -47 408 -97 618 -247 1025 -24 65 -37
203 -53 542 -13 289 -11 313 34 332 44 19 64 43 87 112 38 107 50 190 50 334
l0 138 -67 7 c-115 11 -245 34 -313 57 -62 20 -95 37 -87 45 2 2 58 -8 123
-23 123 -27 346 -72 400 -81 41 -6 53 11 71 99 27 129 33 171 43 288 9 111 26
236 90 645 74 475 76 515 41 845 -64 605 -136 1003 -209 1145 -33 65 -92 127
-160 169 -104 64 -340 178 -425 204 l-92 29 -51 83 c-28 46 -65 95 -81 109
-43 36 -49 70 -17 100 14 13 32 38 40 54 15 27 72 238 97 351 26 121 -72 374
-164 421 -17 9 -56 41 -86 70 -93 93 -217 135 -388 134 -49 0 -127 -9 -172
-19z m539 -1255 c-181 -185 -317 -372 -450 -620 -29 -55 -51 -91 -48 -80 3 11
10 49 16 85 18 110 31 149 52 156 33 10 58 37 58 62 0 12 -11 45 -25 72 -14
27 -25 56 -25 64 0 31 518 401 536 383 2 -1 -50 -57 -114 -122z m-547 -235 c3
-5 -10 -38 -29 -73 -29 -52 -36 -74 -37 -127 -1 -46 -12 -91 -34 -150 -18 -47
-38 -109 -46 -137 -20 -81 -28 -63 -12 25 26 139 42 205 85 340 39 122 55 150
73 122z m-1886 -1839 c90 -64 156 -355 96 -421 -28 -31 -33 -24 -23 32 12 63
-4 192 -30 252 -27 60 -77 113 -120 127 -60 19 -61 29 -3 29 36 0 61 -6 80
-19z"/>
</g>
</svg>
