<?xml version="1.0" standalone="no"?>
<!DOCTYPE svg PUBLIC "-//W3C//DTD SVG 20010904//EN"
 "http://www.w3.org/TR/2001/REC-SVG-20010904/DTD/svg10.dtd">
<svg version="1.0" xmlns="http://www.w3.org/2000/svg"
 width="1024.000000pt" height="1536.000000pt" viewBox="0 0 1024.000000 1536.000000"
 preserveAspectRatio="xMidYMid meet">
<metadata>
Created by potrace 1.16, written by Peter Selinger 2001-2019
</metadata>
<g transform="translate(0.000000,1536.000000) scale(0.100000,-0.100000)"
fill="#000000" stroke="none">
<path d="M3510 14850 c-14 -5 -52 -16 -85 -26 -33 -9 -66 -22 -73 -27 -7 -5
-15 -7 -18 -4 -3 3 3 12 15 19 31 19 25 28 -11 16 -42 -15 -114 -88 -122 -124
-8 -35 -25 -47 -108 -75 -75 -26 -108 -46 -108 -65 0 -8 10 -14 22 -14 17 0
13 -6 -23 -28 -65 -42 -116 -99 -149 -167 -47 -97 -53 -158 -35 -367 8 -100
15 -215 15 -254 0 -113 33 -204 114 -314 32 -43 46 -74 55 -122 7 -34 19 -85
26 -113 10 -36 12 -76 7 -144 -6 -78 -5 -100 10 -133 37 -83 221 -244 357
-313 37 -18 73 -42 81 -52 8 -10 10 -15 6 -11 -14 12 -103 -42 -141 -84 -35
-38 -131 -218 -146 -273 -8 -30 -8 -30 9 -8 9 12 39 60 66 107 27 47 52 86 55
86 10 -1 61 -116 61 -138 0 -11 4 -22 10 -24 5 -2 1 -35 -11 -82 -35 -137 -68
-364 -89 -611 -11 -132 -21 -249 -23 -260 -6 -50 -221 846 -242 1010 -4 28 -9
59 -11 70 -3 11 9 -5 26 -35 17 -30 43 -71 58 -90 15 -19 36 -48 46 -64 13
-20 21 -25 29 -17 8 8 7 14 -5 23 -25 21 -84 127 -122 220 -61 148 -69 199
-70 425 -1 112 -4 203 -8 203 -4 0 -32 -31 -62 -68 -69 -87 -130 -141 -203
-179 -123 -65 -765 -290 -894 -313 -80 -15 -109 -30 -152 -80 -63 -73 -114
-281 -162 -650 -24 -184 -31 -213 -63 -285 -36 -77 -37 -84 -38 -200 -1 -92
-5 -129 -19 -160 -28 -63 -81 -242 -99 -335 -29 -149 -19 -137 -77 -91 -28 22
-98 65 -157 95 -73 37 -129 75 -177 119 -72 66 -121 97 -152 97 -32 0 -62 -29
-74 -72 -24 -90 18 -184 112 -248 87 -59 122 -94 122 -122 0 -30 -114 -182
-172 -228 -138 -111 -166 -137 -192 -178 -39 -62 -46 -102 -23 -148 11 -21 26
-42 35 -47 31 -19 84 3 169 70 47 37 90 68 96 69 16 3 2 -49 -34 -124 -40 -84
-48 -146 -27 -200 33 -81 111 -109 151 -54 11 15 24 36 28 47 7 17 10 14 21
-22 7 -23 32 -68 57 -100 24 -32 57 -75 72 -95 30 -42 66 -50 96 -23 15 14 23
12 84 -20 120 -62 229 -34 202 53 -5 16 7 25 77 56 113 50 256 145 307 204 52
59 115 187 134 272 8 36 20 124 25 195 13 152 63 371 74 320 22 -100 48 -286
57 -406 19 -245 -7 -444 -114 -874 -32 -129 -33 -142 -19 -163 13 -21 13 -33
-1 -110 -61 -339 -108 -667 -152 -1059 -16 -140 -16 -154 -1 -177 16 -24 109
-66 147 -66 16 0 20 -7 21 -37 0 -21 2 -49 4 -63 2 -14 6 -61 9 -105 3 -44 27
-235 55 -425 71 -492 89 -656 121 -1105 6 -77 18 -207 28 -290 12 -104 15
-167 9 -205 -13 -83 -4 -149 30 -221 29 -62 30 -69 30 -209 1 -184 31 -342
142 -730 106 -369 132 -497 186 -895 20 -148 46 -233 91 -286 19 -22 34 -48
34 -57 0 -50 -37 -195 -99 -385 -76 -233 -91 -315 -91 -482 1 -215 30 -335 95
-400 153 -154 371 -27 559 325 48 90 56 88 56 -8 0 -40 6 -67 20 -90 20 -32
20 -35 4 -85 -20 -67 -29 -292 -16 -456 9 -122 9 -125 40 -153 18 -15 49 -31
71 -34 38 -6 39 -7 43 -58 2 -28 13 -64 23 -80 25 -37 165 -104 300 -142 180
-52 424 -29 505 46 26 24 30 35 30 78 0 72 -26 197 -52 251 -12 25 -50 81 -85
124 -100 123 -233 349 -233 394 0 11 12 26 26 33 31 17 50 51 59 105 4 22 24
130 46 240 21 110 48 254 59 320 12 66 48 262 81 435 119 620 154 826 179
1050 21 190 40 692 44 1135 3 263 5 295 39 525 20 135 43 301 52 370 9 69 31
233 50 365 82 579 125 945 125 1071 0 61 1 63 29 69 49 11 71 40 71 94 0 143
-41 1001 -59 1229 -3 51 -3 96 1 100 5 5 -8 132 -28 283 -43 328 -56 543 -43
693 5 61 11 111 13 113 2 2 6 -32 10 -76 3 -43 18 -157 32 -253 45 -311 76
-654 133 -1453 18 -250 29 -306 63 -317 8 -3 4 -23 -15 -69 -47 -113 -59 -189
-52 -329 5 -92 2 -158 -10 -249 -17 -135 -15 -164 17 -198 29 -31 64 -29 97 5
22 22 34 51 54 137 14 61 29 134 33 163 7 54 24 72 24 24 0 -15 5 -43 10 -62
15 -51 16 -201 1 -228 -6 -12 -39 -36 -72 -52 -129 -66 -228 -198 -191 -257
14 -21 105 -55 135 -49 31 6 183 94 238 137 27 21 58 72 128 211 l93 184 1
124 c1 69 0 168 -2 220 -2 52 1 122 5 155 l9 60 5 -105 c5 -111 4 -109 68
-136 3 -1 -5 -37 -48 -219 -12 -49 -31 -109 -42 -132 -32 -63 -22 -153 29
-268 22 -49 44 -106 48 -125 11 -54 27 -72 117 -132 112 -74 184 -110 216
-106 26 3 27 6 30 66 2 34 6 62 10 62 8 0 77 -353 122 -625 16 -99 41 -290 55
-425 14 -135 28 -271 31 -303 10 -98 44 -117 176 -94 l46 8 9 -68 c15 -126 8
-341 -21 -593 -25 -217 -27 -270 -23 -465 3 -165 10 -250 26 -340 27 -148 97
-443 161 -675 155 -564 168 -633 171 -915 3 -185 0 -214 -29 -382 -23 -135
-41 -209 -71 -285 -52 -134 -63 -180 -64 -253 0 -96 18 -143 76 -200 59 -57
100 -73 202 -81 126 -10 266 34 333 105 50 53 62 96 61 231 0 69 -4 177 -8
240 -5 63 -7 118 -5 121 2 4 27 -16 56 -43 80 -74 128 -100 203 -105 52 -5 71
-2 110 17 60 29 109 95 136 184 30 97 22 196 -40 501 -72 347 -73 355 -49 445
15 57 18 90 13 145 -7 69 -6 74 48 210 81 206 111 296 177 524 160 557 184
745 151 1194 -13 167 -10 264 10 385 l11 62 48 0 c59 0 107 16 120 41 6 10 17
72 26 136 19 147 87 565 120 738 127 666 172 1007 180 1355 l4 195 35 23 c20
13 38 29 41 36 6 16 -98 709 -129 859 -1 4 23 18 53 31 146 61 377 190 477
268 63 48 86 83 108 163 9 33 30 107 47 164 43 145 38 207 -26 324 -62 115
-72 145 -106 328 -16 86 -41 205 -56 265 -14 60 -30 158 -35 217 -7 87 -15
122 -40 180 -23 51 -46 143 -81 317 -81 407 -119 527 -182 574 -17 13 -106 49
-197 79 -195 66 -262 95 -254 108 15 23 21 117 14 207 -6 75 -18 132 -52 238
-89 275 -97 318 -127 674 -34 402 -54 507 -124 655 -74 158 -197 268 -371 333
-140 53 -261 75 -375 68 -214 -13 -364 -90 -560 -287 -159 -160 -212 -321
-161 -490 30 -99 34 -139 17 -185 -8 -23 -20 -75 -26 -116 -16 -97 -5 -163 57
-353 25 -77 45 -154 45 -171 -1 -17 -11 -84 -24 -150 -16 -91 -22 -158 -22
-281 -1 -125 -4 -163 -14 -163 -7 0 -117 -34 -244 -76 -254 -84 -271 -93 -310
-182 -80 -179 -149 -616 -183 -1152 -15 -236 -28 -381 -55 -600 -16 -129 -37
-305 -45 -390 -9 -85 -23 -216 -31 -290 -8 -74 -17 -163 -21 -197 -3 -35 -9
-63 -12 -63 -3 0 -7 57 -9 128 -1 70 -9 237 -17 372 -8 135 -19 328 -25 430
-17 306 -28 410 -50 510 -24 109 -39 233 -75 620 -14 151 -32 327 -40 390 -8
63 -19 194 -25 290 -23 379 -54 595 -103 698 -26 56 -61 75 -277 152 -199 71
-408 158 -555 232 -101 51 -235 133 -235 143 0 4 13 25 29 48 16 23 39 76 51
117 12 41 53 156 92 255 65 167 101 291 93 318 -2 7 -9 64 -16 128 -11 105
-10 121 5 159 18 45 19 28 -12 353 -4 42 -6 77 -5 77 2 0 16 -27 33 -60 17
-33 35 -60 40 -60 16 0 12 131 -4 163 -20 37 -2 35 21 -3 27 -47 35 -35 13 21
-28 71 -45 102 -76 138 -18 21 -23 36 -17 42 6 6 14 5 23 -6 14 -17 40 -20 40
-5 0 15 -129 115 -200 154 l-65 36 40 0 c38 1 39 2 20 16 -11 8 -38 19 -60 25
-59 15 -95 30 -95 41 0 5 5 6 10 3 6 -3 10 -2 10 3 0 15 -54 30 -148 42 -140
17 -157 21 -142 30 7 5 -17 7 -56 5 -86 -3 -114 2 -107 21 3 8 4 14 2 13 -2 0
-15 -4 -29 -9z m28 -30 c8 0 13 -3 9 -6 -10 -10 -48 7 -40 19 5 8 8 8 11 -1 2
-7 11 -12 20 -12z m392 -2172 c-1 -158 -13 -235 -60 -377 -22 -68 -39 -126
-36 -128 5 -5 48 71 66 115 7 18 14 31 16 30 7 -8 -36 -430 -72 -693 -22 -158
-89 -523 -98 -532 -1 -2 -6 83 -9 189 -10 308 -54 625 -115 831 -22 74 -27
105 -21 125 5 15 17 55 27 89 l18 62 79 -114 c43 -63 81 -112 83 -110 2 2 -22
52 -53 112 -136 254 -131 247 -188 273 -42 19 -39 25 20 46 60 21 186 99 237
146 35 32 60 47 79 48 l27 0 0 -112z m4035 -580 c18 -81 17 -239 -1 -245 -7
-2 -13 43 -17 141 -4 79 -10 151 -13 160 -3 9 -1 16 4 16 6 0 18 -33 27 -72z
m-1528 -250 c-18 -11 -29 30 -23 87 18 143 20 145 28 30 6 -82 5 -111 -5 -117z
m963 -427 c0 -30 -47 -270 -86 -439 -39 -169 -83 -321 -200 -697 -93 -297 -85
-278 -95 -232 -5 21 -31 115 -58 210 -90 313 -137 513 -176 757 -21 135 -55
393 -52 397 2 1 27 -4 57 -12 130 -35 386 -28 530 14 84 24 80 24 80 2z
m-5977 -1083 c58 -77 97 -194 97 -293 0 -104 -62 -263 -128 -329 -49 -49 -73
-48 -36 2 15 20 39 51 52 69 70 94 93 280 51 405 -12 35 -35 89 -51 121 -31
62 -23 76 15 25z m6933 -640 c7 -60 -4 -88 -33 -88 -10 0 -13 6 -8 18 4 9 9
45 12 80 7 75 20 70 29 -10z m-2207 -195 c1 -42 -54 -286 -70 -313 -12 -20 6
193 38 450 l7 55 12 -75 c7 -41 13 -94 13 -117z m-843 -1244 c63 -30 94 -70
94 -124 0 -23 3 -58 6 -76 3 -24 -1 -18 -14 20 -21 56 -23 59 -87 93 -30 16
-63 23 -133 26 -103 5 -158 -9 -212 -55 l-30 -25 -10 27 c-21 56 -7 81 64 110
95 40 241 41 322 4z m-366 -153 c0 -3 -4 -8 -10 -11 -5 -3 -10 -1 -10 4 0 6 5
11 10 11 6 0 10 -2 10 -4z m875 -945 c9 -113 2 -123 -35 -51 -25 48 -25 84 -3
180 l18 75 6 -50 c4 -27 10 -97 14 -154z m-2396 -861 c6 -140 13 -383 16 -540
3 -157 10 -408 17 -559 12 -283 11 -314 -32 -796 -5 -55 -12 -143 -15 -195 -3
-52 -10 -153 -15 -225 -5 -71 -13 -176 -16 -232 -4 -57 -10 -103 -14 -103 -4
0 -10 30 -14 68 -3 37 -13 137 -22 222 -10 100 -17 275 -19 495 -2 281 -6 366
-24 490 -11 83 -21 177 -21 210 0 33 -9 85 -20 115 -19 55 -19 55 2 142 20 85
20 88 3 162 -19 82 -20 38 16 651 16 277 67 813 96 1005 7 50 43 -482 62 -910z
m3711 -840 c-10 -114 -4 -318 14 -431 18 -114 18 -117 -3 -255 -46 -309 -47
-384 -1 -924 22 -261 9 -502 -36 -669 -14 -54 -29 -145 -34 -210 -5 -64 -16
-178 -25 -254 -8 -77 -15 -159 -15 -185 0 -183 -67 291 -77 543 -6 159 4 366
33 705 17 199 19 507 4 720 -16 239 -13 382 15 572 25 178 55 412 55 436 0 9
11 12 38 10 l37 -3 -5 -55z"/>
</g>
</svg>
