<?xml version="1.0" standalone="no"?>
<!DOCTYPE svg PUBLIC "-//W3C//DTD SVG 20010904//EN"
 "http://www.w3.org/TR/2001/REC-SVG-20010904/DTD/svg10.dtd">
<svg version="1.0" xmlns="http://www.w3.org/2000/svg"
 width="1024.000000pt" height="1536.000000pt" viewBox="0 0 1024.000000 1536.000000"
 preserveAspectRatio="xMidYMid meet">
<metadata>
Created by potrace 1.16, written by Peter Selinger 2001-2019
</metadata>
<g transform="translate(0.000000,1536.000000) scale(0.100000,-0.100000)"
fill="#000000" stroke="none">
<path d="M6143 13626 c-164 -38 -288 -108 -395 -226 l-67 -73 -44 39 c-61 54
-176 117 -277 154 -284 101 -620 99 -940 -6 -275 -91 -546 -271 -673 -448 -35
-49 -53 -63 -113 -91 -239 -110 -392 -282 -455 -512 -44 -159 -10 -389 71
-484 l29 -34 1 76 c0 92 34 217 87 325 20 40 38 72 40 70 2 -2 -1 -34 -8 -71
-12 -73 -7 -206 11 -267 6 -20 28 -60 49 -88 21 -28 44 -73 51 -98 47 -184 69
-232 170 -367 30 -40 31 -46 41 -195 11 -176 18 -211 62 -295 65 -122 217
-244 452 -361 161 -81 242 -83 427 -12 43 17 81 29 83 27 2 -2 -47 -26 -108
-54 -110 -49 -114 -50 -219 -51 -128 -2 -140 -8 -244 -116 -86 -89 -146 -170
-294 -398 -103 -158 -225 -328 -333 -465 -87 -109 -98 -182 -42 -265 l35 -51
-21 -22 c-11 -12 -45 -58 -74 -102 -64 -97 -97 -128 -200 -190 -111 -68 -103
-61 -360 -309 -247 -239 -309 -296 -396 -369 -66 -55 -89 -61 -311 -77 -81 -5
-169 -15 -195 -20 -150 -32 -385 -243 -453 -406 -37 -90 -48 -162 -38 -269 11
-134 62 -235 117 -235 10 0 36 14 59 31 44 32 65 30 94 -9 21 -29 69 -62 90
-62 26 0 134 67 159 98 10 14 19 39 19 56 0 17 3 40 6 51 7 28 227 133 377
180 137 44 183 78 253 187 l44 68 162 79 c90 44 217 102 283 129 299 126 491
243 650 397 41 39 213 248 268 326 31 43 42 46 74 24 35 -24 99 -30 128 -11
25 16 125 145 200 258 20 32 41 55 45 53 4 -3 11 -17 15 -32 20 -82 106 -290
187 -452 l91 -184 -16 -62 c-15 -56 -15 -67 -1 -120 8 -33 19 -65 25 -72 8 -9
6 -26 -4 -60 -28 -86 -107 -415 -107 -444 0 -30 45 -83 81 -94 17 -6 20 -12
15 -38 -64 -344 -30 -892 85 -1382 40 -168 39 -166 52 -135 6 14 30 60 55 103
l44 77 -16 41 c-19 46 -16 62 21 134 52 100 394 605 410 605 6 0 8 4 -132
-210 -202 -308 -285 -453 -285 -495 0 -16 8 -38 19 -49 18 -21 18 -23 -61
-161 -44 -77 -124 -214 -178 -305 -268 -456 -302 -543 -320 -832 -10 -162 -22
-214 -105 -483 -31 -99 -112 -396 -180 -660 -109 -418 -185 -707 -213 -810 -5
-16 -12 -29 -15 -28 -108 30 -184 -9 -241 -123 -23 -45 -33 -54 -86 -78 -35
-14 -84 -48 -114 -76 -56 -53 -95 -70 -161 -70 -110 -1 -253 -52 -334 -119
-107 -90 -133 -202 -73 -323 17 -36 32 -77 32 -91 0 -68 111 -116 159 -68 l21
21 38 -20 c20 -11 54 -26 74 -34 29 -11 39 -22 47 -51 5 -20 18 -43 28 -51 26
-20 84 -17 113 6 51 40 109 20 124 -42 7 -32 50 -58 94 -58 17 0 45 12 67 30
31 25 47 30 91 30 63 0 148 -17 187 -37 16 -8 35 -29 42 -47 30 -71 138 -81
186 -17 l21 28 741 7 c408 3 850 8 982 11 132 3 427 7 655 10 428 6 836 21
880 32 98 26 -740 46 -1977 47 -590 1 -1073 3 -1073 6 0 3 9 34 20 70 38 123
52 215 65 430 12 190 12 219 -2 247 -14 30 -13 38 11 122 51 178 172 424 330
669 237 370 295 474 340 615 37 115 64 264 81 459 21 233 42 365 66 415 18 37
113 148 289 338 122 131 324 335 328 330 3 -2 -51 -64 -120 -137 -159 -170
-366 -402 -402 -451 -34 -45 -32 -67 19 -172 41 -86 124 -168 212 -212 48 -23
73 -29 148 -31 134 -5 604 59 1020 138 55 10 143 24 195 30 52 6 125 16 162
21 102 14 118 12 118 -11 0 -11 6 -36 14 -54 16 -39 87 -86 129 -86 20 0 37
-14 73 -60 26 -33 54 -60 63 -60 25 0 61 -29 61 -50 0 -10 19 -33 41 -51 49
-38 59 -61 109 -234 79 -271 139 -383 238 -446 86 -55 158 -62 237 -25 86 40
126 90 164 205 23 68 29 76 53 79 30 4 58 35 58 66 0 11 -11 36 -24 55 -20 31
-25 51 -28 137 l-5 101 30 9 c57 17 58 107 2 132 -16 8 -29 30 -45 79 -23 70
-102 235 -146 304 -41 66 -53 109 -68 256 -43 396 -149 565 -366 581 -109 8
-253 -43 -347 -122 -16 -13 -55 -32 -87 -41 -69 -20 -140 -83 -151 -135 l-7
-33 -147 6 c-133 5 -160 10 -311 52 -279 78 -428 89 -635 50 -78 -14 -80 -13
-91 48 -4 27 -19 52 -47 80 -23 23 -32 37 -21 33 112 -43 140 -48 244 -43 58
2 119 10 136 16 30 12 33 17 63 144 67 275 105 358 345 761 223 372 261 451
296 621 45 217 50 438 14 620 l-17 85 44 39 c44 38 44 39 43 102 -2 146 -203
641 -364 899 -57 90 -53 77 -125 420 -30 146 -60 280 -64 298 -11 38 -6 39 51
12 24 -11 108 -45 188 -76 80 -31 171 -70 202 -85 66 -33 97 -36 126 -11 22
18 62 89 62 109 0 23 20 24 73 5 28 -10 101 -32 160 -47 125 -33 121 -28 178
-171 21 -53 86 -189 145 -303 142 -275 223 -458 273 -619 62 -195 62 -186 3
-284 -107 -179 -139 -265 -149 -398 -5 -73 -2 -99 21 -181 14 -53 26 -122 26
-152 0 -45 4 -60 21 -76 32 -30 73 -36 109 -15 46 28 61 71 60 172 -1 48 -1
94 -1 102 1 8 24 -23 53 -69 37 -61 52 -96 56 -131 5 -58 -19 -130 -60 -178
-33 -39 -34 -45 -7 -88 41 -67 115 -63 205 11 23 19 50 35 59 35 27 0 91 38
119 71 14 17 48 42 75 55 90 43 140 144 142 283 l1 76 10 -47 c7 -31 7 -67 0
-105 -5 -32 -8 -60 -6 -62 10 -10 74 65 100 117 26 50 29 67 29 147 0 50 -7
115 -14 145 -28 117 -129 293 -274 473 -24 30 -35 68 -72 244 -24 114 -55 255
-68 313 -66 283 -80 344 -108 455 -68 269 -167 475 -296 608 -53 56 -326 240
-450 305 -88 46 -97 54 -107 96 -10 41 -58 83 -141 121 -38 18 -110 51 -158
74 -49 22 -90 41 -92 41 -1 0 -79 37 -171 81 -340 164 -447 210 -609 266 -174
59 -343 97 -483 109 -47 4 -98 15 -131 30 -36 16 -72 24 -112 24 l-58 0 -36
75 c-19 41 -35 84 -35 95 0 11 19 45 43 74 23 30 49 64 57 76 13 18 19 19 50
10 51 -15 149 -12 208 5 29 9 52 19 52 23 0 4 -30 22 -66 41 -36 19 -72 44
-81 57 -14 22 -13 26 32 76 61 69 129 210 161 334 21 80 27 131 31 265 8 252
-27 425 -132 648 -25 51 -45 96 -45 98 0 7 57 -4 119 -23 84 -25 116 -62 192
-221 37 -79 81 -162 98 -187 79 -115 207 -222 325 -275 150 -66 406 -86 511
-41 11 5 27 11 35 13 8 2 -12 8 -45 12 -33 4 -88 16 -122 27 -62 19 -191 97
-228 138 -18 20 -14 19 40 -8 190 -95 467 -76 674 45 130 77 253 229 287 357
19 71 19 83 -3 64 -31 -27 -99 -57 -180 -79 -91 -25 -195 -22 -278 7 l-50 18
70 8 c137 16 263 104 304 212 24 64 35 138 27 172 l-7 26 -39 -36 c-75 -68
-112 -81 -230 -80 -188 1 -263 35 -549 253 -153 117 -280 188 -396 222 -93 27
-294 35 -382 15z m-1358 -3103 c42 -143 129 -224 256 -239 95 -11 235 31 334
99 24 17 27 18 16 4 -8 -10 -44 -36 -80 -57 -249 -147 -510 -50 -546 203 -3
26 -4 47 -1 47 2 0 12 -26 21 -57z m-395 -880 c19 -97 47 -204 80 -301 18 -51
30 -95 27 -98 -8 -9 -79 192 -97 276 -20 93 -32 180 -26 180 3 0 10 -26 16
-57z m1540 -1218 c0 -3 -31 -25 -68 -49 -191 -122 -338 -181 -496 -197 -68 -7
-112 -8 -136 -1 -32 9 -29 10 36 11 109 1 235 27 344 70 93 37 237 113 289
153 25 19 31 21 31 13z m-3860 -485 c-16 -31 -23 -18 -8 15 7 15 14 23 16 17
2 -6 -2 -21 -8 -32z m-61 -59 c-13 -10 -43 -28 -65 -39 -87 -44 -125 -108
-109 -181 9 -42 -1 -39 -15 3 -15 45 1 106 38 146 27 30 135 90 161 90 8 0 4
-8 -10 -19z m4761 -261 c-19 -11 -39 -19 -45 -19 -5 0 6 8 25 19 19 11 40 19
45 19 6 0 -6 -8 -25 -19z m-4852 -28 c-21 -2 -37 3 -50 16 -19 19 -19 19 30 3
47 -15 49 -16 20 -19z m4787 0 c-6 -5 -55 -25 -110 -46 -381 -140 -807 -180
-1210 -112 -153 26 -314 66 -395 97 -59 24 -42 23 45 -1 148 -42 311 -74 508
-100 43 -5 147 -10 230 -10 295 0 572 49 862 153 81 29 82 30 70 19z m2055
-247 c-16 -43 -18 -27 -6 65 l11 85 3 -61 c2 -33 -2 -73 -8 -89z m-3275 -1170
c110 -51 216 -118 312 -198 74 -61 157 -152 128 -141 -8 4 -20 15 -26 26 -12
23 -187 164 -267 214 -31 20 -108 63 -172 96 -129 66 -114 68 25 3z"/>
<path d="M2105 4254 c-11 -3 -58 -14 -105 -26 -214 -51 -435 -205 -573 -399
-196 -276 -230 -691 -82 -1013 71 -156 210 -319 347 -408 77 -50 226 -115 315
-139 113 -30 323 -37 433 -15 207 42 370 130 523 282 192 190 280 388 294 660
7 143 -7 251 -48 379 -99 310 -367 558 -701 651 -75 21 -121 26 -238 29 -80 2
-154 2 -165 -1z"/>
</g>
</svg>
